<?xml version="1.0" encoding="UTF-8" standalone="no"?>
<!-- Created with Inkscape (http://www.inkscape.org/) -->

<svg
   width="210mm"
   height="297mm"
   viewBox="0 0 210 297"
   version="1.1"
   id="svg5"
   inkscape:version="1.2.2 (b0a84865, 2022-12-01)"
   sodipodi:docname="curvaotto.svg"
   inkscape:export-filename="../images/curvaotto.pdf"
   inkscape:export-xdpi="96"
   inkscape:export-ydpi="96"
   xmlns:inkscape="http://www.inkscape.org/namespaces/inkscape"
   xmlns:sodipodi="http://sodipodi.sourceforge.net/DTD/sodipodi-0.dtd"
   xmlns="http://www.w3.org/2000/svg"
   xmlns:svg="http://www.w3.org/2000/svg">
  <sodipodi:namedview
     id="namedview7"
     pagecolor="#ffffff"
     bordercolor="#000000"
     borderopacity="0.25"
     inkscape:showpageshadow="2"
     inkscape:pageopacity="0.0"
     inkscape:pagecheckerboard="0"
     inkscape:deskcolor="#d1d1d1"
     inkscape:document-units="mm"
     showgrid="false"
     inkscape:zoom="0.98061704"
     inkscape:cx="445.63778"
     inkscape:cy="848.95526"
     inkscape:window-width="1440"
     inkscape:window-height="780"
     inkscape:window-x="0"
     inkscape:window-y="25"
     inkscape:window-maximized="1"
     inkscape:current-layer="layer1" />
  <defs
     id="defs2">
    <marker
       style="overflow:visible"
       id="marker15724"
       refX="0"
       refY="0"
       orient="auto-start-reverse"
       inkscape:stockid="Arrow1L"
       markerWidth="8.75"
       markerHeight="5"
       viewBox="0 0 8.75 5"
       inkscape:isstock="true"
       inkscape:collect="always"
       preserveAspectRatio="xMidYMid">
      <path
         style="fill:context-stroke;fill-rule:evenodd;stroke:none"
         d="M 0,0 5,-5 -12.5,0 5,5 Z"
         id="path15722"
         transform="scale(-0.5)" />
    </marker>
    <marker
       style="overflow:visible"
       id="Arrow1L"
       refX="0"
       refY="0"
       orient="auto-start-reverse"
       inkscape:stockid="Arrow1L"
       markerWidth="9.6923084"
       markerHeight="5.5384617"
       viewBox="0 0 8.75 5"
       inkscape:isstock="true"
       inkscape:collect="always"
       preserveAspectRatio="xMidYMid"
       markerUnits="strokeWidth">
      <path
         style="fill:context-stroke;fill-rule:evenodd;stroke:none;stroke-width:0.5"
         d="M 0,0 -2.5,2.5 6.25,0 -2.5,-2.5 Z"
         id="arrow1L" />
    </marker>
    <marker
       style="overflow:visible"
       id="Arrow1L-0"
       refX="0"
       refY="0"
       orient="auto-start-reverse"
       inkscape:stockid="Arrow1L"
       markerWidth="11.25"
       markerHeight="5.625"
       viewBox="0 0 8.75 5"
       inkscape:isstock="true"
       inkscape:collect="always"
       preserveAspectRatio="xMidYMid">
      <path
         style="fill:context-stroke;fill-rule:evenodd;stroke:none;stroke-width:0.5"
         d="M 3.75,0 6.25,2.5 -2.5,0 6.25,-2.5 Z"
         id="arrow1L-3" />
    </marker>
    <marker
       style="overflow:visible"
       id="Arrow1L-0-0"
       refX="0"
       refY="0"
       orient="auto-start-reverse"
       inkscape:stockid="Arrow1L"
       markerWidth="9.166667"
       markerHeight="5"
       viewBox="0 0 8.75 5"
       inkscape:isstock="true"
       inkscape:collect="always"
       preserveAspectRatio="xMidYMid">
      <path
         style="fill:context-stroke;fill-rule:evenodd;stroke:none;stroke-width:0.5"
         d="M 3.75,0 6.25,2.5 -2.5,0 6.25,-2.5 Z"
         id="arrow1L-3-3" />
    </marker>
    <marker
       style="overflow:visible"
       id="Arrow1L-9"
       refX="0"
       refY="0"
       orient="auto-start-reverse"
       inkscape:stockid="Arrow1L"
       markerWidth="9.6923084"
       markerHeight="5.5384617"
       viewBox="0 0 8.75 5"
       inkscape:isstock="true"
       inkscape:collect="always"
       preserveAspectRatio="xMidYMid"
       markerUnits="strokeWidth">
      <path
         style="fill:context-stroke;fill-rule:evenodd;stroke:none;stroke-width:0.5"
         d="M 0,0 -2.5,2.5 6.25,0 -2.5,-2.5 Z"
         id="arrow1L-8" />
    </marker>
    <marker
       style="overflow:visible"
       id="Arrow1L-0-5"
       refX="0"
       refY="0"
       orient="auto-start-reverse"
       inkscape:stockid="Arrow1L"
       markerWidth="9.166667"
       markerHeight="5"
       viewBox="0 0 8.75 5"
       inkscape:isstock="true"
       inkscape:collect="always"
       preserveAspectRatio="xMidYMid">
      <path
         style="fill:context-stroke;fill-rule:evenodd;stroke:none;stroke-width:0.5"
         d="M 3.75,0 6.25,2.5 -2.5,0 6.25,-2.5 Z"
         id="arrow1L-3-7" />
    </marker>
    <marker
       style="overflow:visible"
       id="Arrow1L-6"
       refX="0"
       refY="0"
       orient="auto-start-reverse"
       inkscape:stockid="Arrow1L"
       markerWidth="9.6923084"
       markerHeight="5.5384617"
       viewBox="0 0 8.75 5"
       inkscape:isstock="true"
       inkscape:collect="always"
       preserveAspectRatio="xMidYMid"
       markerUnits="strokeWidth">
      <path
         style="fill:context-stroke;fill-rule:evenodd;stroke:none;stroke-width:0.5"
         d="M 0,0 -2.5,2.5 6.25,0 -2.5,-2.5 Z"
         id="arrow1L-2" />
    </marker>
    <marker
       style="overflow:visible"
       id="Arrow1L-0-5-0"
       refX="0"
       refY="0"
       orient="auto-start-reverse"
       inkscape:stockid="Arrow1L"
       markerWidth="9.166667"
       markerHeight="5"
       viewBox="0 0 8.75 5"
       inkscape:isstock="true"
       inkscape:collect="always"
       preserveAspectRatio="xMidYMid">
      <path
         style="fill:context-stroke;fill-rule:evenodd;stroke:none;stroke-width:0.5"
         d="M 3.75,0 6.25,2.5 -2.5,0 6.25,-2.5 Z"
         id="arrow1L-3-7-3" />
    </marker>
    <marker
       style="overflow:visible"
       id="Arrow1L-6-9"
       refX="0"
       refY="0"
       orient="auto-start-reverse"
       inkscape:stockid="Arrow1L"
       markerWidth="9.6923084"
       markerHeight="5.5384617"
       viewBox="0 0 8.75 5"
       inkscape:isstock="true"
       inkscape:collect="always"
       preserveAspectRatio="xMidYMid"
       markerUnits="strokeWidth">
      <path
         style="fill:context-stroke;fill-rule:evenodd;stroke:none;stroke-width:0.5"
         d="M 0,0 -2.5,2.5 6.25,0 -2.5,-2.5 Z"
         id="arrow1L-2-9" />
    </marker>
    <marker
       style="overflow:visible"
       id="Arrow1L-0-5-8"
       refX="0"
       refY="0"
       orient="auto-start-reverse"
       inkscape:stockid="Arrow1L"
       markerWidth="9.166667"
       markerHeight="5"
       viewBox="0 0 8.75 5"
       inkscape:isstock="true"
       inkscape:collect="always"
       preserveAspectRatio="xMidYMid">
      <path
         style="fill:context-stroke;fill-rule:evenodd;stroke:none;stroke-width:0.5"
         d="M 3.75,0 6.25,2.5 -2.5,0 6.25,-2.5 Z"
         id="arrow1L-3-7-4" />
    </marker>
    <marker
       style="overflow:visible"
       id="Arrow1L-6-8"
       refX="0"
       refY="0"
       orient="auto-start-reverse"
       inkscape:stockid="Arrow1L"
       markerWidth="9.6923084"
       markerHeight="5.5384617"
       viewBox="0 0 8.75 5"
       inkscape:isstock="true"
       inkscape:collect="always"
       preserveAspectRatio="xMidYMid"
       markerUnits="strokeWidth">
      <path
         style="fill:context-stroke;fill-rule:evenodd;stroke:none;stroke-width:0.5"
         d="M 0,0 -2.5,2.5 6.25,0 -2.5,-2.5 Z"
         id="arrow1L-2-0" />
    </marker>
  </defs>
  <g
     inkscape:label="Livello 1"
     inkscape:groupmode="layer"
     id="layer1">
    <path
       style="fill:none;fill-rule:evenodd;stroke:#000000;stroke-width:0.4;stroke-linecap:butt;stroke-linejoin:miter;stroke-dasharray:none;stroke-opacity:1;marker-start:url(#Arrow1L)"
       d="m 106.5847,170.53725 0.10238,71.81688"
       id="path227"
       inkscape:connector-type="polyline"
       inkscape:connector-curvature="0"
       sodipodi:nodetypes="cc" />
    <path
       style="fill:none;fill-rule:evenodd;stroke:#000000;stroke-width:0.4;stroke-linecap:butt;stroke-linejoin:miter;stroke-dasharray:none;stroke-opacity:1;marker-start:url(#marker15724)"
       d="M 190.49739,208.71024 27.512499,208.4002"
       id="path227-9"
       inkscape:connector-type="polyline"
       inkscape:connector-curvature="0"
       sodipodi:nodetypes="cc" />
    <ellipse
       style="fill:none;stroke:#5fd38d;stroke-width:0.3;stroke-dasharray:2.4, 1.2;stroke-dashoffset:0;marker-start:url(#Arrow1L-0);marker-mid:url(#Arrow1L)"
       id="path177"
       cx="65.832413"
       cy="208.4731"
       rx="3.1622491"
       ry="1.85028" />
    <ellipse
       style="fill:none;stroke:#5fd38d;stroke-width:0.3;stroke-dasharray:2.4, 1.2;stroke-dashoffset:0;marker-start:url(#Arrow1L-0-0);marker-mid:url(#Arrow1L-9)"
       id="path177-6"
       cx="65.832703"
       cy="208.48825"
       rx="7.9684129"
       ry="5.4277515" />
    <ellipse
       style="fill:none;stroke:#5fd38d;stroke-width:0.3;stroke-dasharray:2.4, 1.2;stroke-dashoffset:0;marker-start:url(#Arrow1L-0-5);marker-mid:url(#Arrow1L-6)"
       id="path177-7"
       cx="66.118988"
       cy="208.49884"
       rx="13.248926"
       ry="8.912879" />
    <path
       id="path177-7-4"
       style="fill:none;stroke:#5fd38d;stroke-width:0.3;stroke-dasharray:2.4, 1.2;marker-start:url(#Arrow1L-0-5-8);marker-mid:url(#Arrow1L-6-8)"
       d="m 104.58707,208.54681 c 0,5.65939 -7.316909,10.0521 -16.439262,12.94053 -8.178936,2.5897 -17.809196,3.97018 -24.918531,3.97018 -7.207038,0 -12.436025,-1.43561 -15.927658,-4.1122 -3.794252,-2.90858 -5.536947,-7.28257 -5.536945,-12.87222 2e-6,-5.80294 1.499063,-10.59058 5.252749,-13.76459 3.189377,-2.69685 8.006436,-4.22878 14.914642,-4.22878 6.590836,0 15.597451,1.40857 23.636473,3.89457 10.304099,3.18646 19.018532,8.14306 19.018532,14.17251 z"
       sodipodi:nodetypes="sssssssss" />
    <path
       id="path177-7-9"
       style="fill:none;stroke:#5fd38d;stroke-width:0.3;stroke-dasharray:2.4, 1.2;marker-start:url(#Arrow1L-0-5-0);marker-mid:url(#Arrow1L-6-9)"
       d="m 90.185041,208.51942 c 0,3.98161 -3.949448,7.55403 -9.160567,10.00242 -4.461081,2.09598 -9.846783,3.36821 -14.470862,3.36821 -4.053405,0 -7.796517,-0.97929 -10.817662,-2.63441 -4.451287,-2.43862 -7.335296,-6.34437 -7.335297,-10.74664 0,-3.51403 1.83761,-6.71169 4.843127,-9.09931 3.315213,-2.63366 8.05142,-4.28174 13.309832,-4.28174 4.511894,0 9.748903,1.21546 14.14456,3.22598 5.371663,2.45694 9.486869,6.10118 9.486869,10.16549 z"
       sodipodi:nodetypes="sssssssss" />
    <g
       id="path177-7-9-6"
       transform="translate(10.778813,127.87592)">
      <g
         id="g2956">
        <path
           style="fill:context-stroke;fill-rule:evenodd;stroke-width:0.166154"
           d="m 44.957668,67.231447 -0.830769,0.830769 2.907692,-0.830769 -2.907692,-0.830769 z"
           id="path2970" />
        <path
           style="fill:context-stroke;fill-rule:evenodd;stroke-width:0.166154"
           d="m 26.80471,80.612497 0.830769,0.830769 -0.830769,-2.907692 -0.830769,2.907692 z"
           id="path2966" />
        <path
           style="fill:context-stroke;fill-rule:evenodd;stroke-width:0.166154"
           d="m 44.957668,93.993547 0.830769,-0.830769 -2.907692,0.830769 2.907692,0.830769 z"
           id="path2962" />
        <path
           style="fill:context-stroke;fill-rule:evenodd;stroke-width:0.15"
           d="m 68.589098,81.747917 -0.75,0.75 0.75,-2.625 0.75,2.625 z"
           id="path2958" />
      </g>
    </g>
    <ellipse
       style="fill:#000000;fill-opacity:1;stroke:none;stroke-width:0.3;stroke-dasharray:2.4, 1.2;stroke-dashoffset:0"
       id="path3315"
       cx="65.798317"
       cy="208.40446"
       rx="0.91793758"
       ry="0.93270916" />
    <ellipse
       style="fill:none;stroke:#ff7f2a;stroke-width:0.3;stroke-dasharray:2.4, 1.2;stroke-dashoffset:0;marker-start:url(#Arrow1L);marker-mid:url(#Arrow1L-0)"
       id="path177-9"
       cx="-147.7596"
       cy="208.48149"
       rx="3.1622491"
       ry="1.85028"
       transform="scale(-1,1)" />
    <ellipse
       style="fill:none;stroke:#ff7f2a;stroke-width:0.3;stroke-dasharray:2.4, 1.2;stroke-dashoffset:0;marker-start:url(#Arrow1L);marker-mid:url(#Arrow1L-0)"
       id="path177-6-1"
       cx="-147.75931"
       cy="208.49664"
       rx="7.9684129"
       ry="5.4277515"
       transform="scale(-1,1)" />
    <ellipse
       style="fill:none;stroke:#ff7f2a;stroke-width:0.3;stroke-dasharray:2.4, 1.2;stroke-dashoffset:0;marker-start:url(#Arrow1L);marker-mid:url(#Arrow1L-0)"
       id="path177-7-7"
       cx="-147.47302"
       cy="208.50723"
       rx="13.248926"
       ry="8.912879"
       transform="scale(-1,1)" />
    <path
       id="path177-7-4-5"
       style="fill:none;stroke:#ff7f2a;stroke-width:0.3;stroke-dasharray:2.4, 1.2;marker-start:url(#Arrow1L);marker-mid:url(#Arrow1L-0)"
       d="m 109.00495,208.55522 c 0,5.65939 7.3169,10.0521 16.43925,12.94052 8.17894,2.58971 17.8092,3.97019 24.91853,3.97019 7.20704,0 12.43603,-1.43561 15.92766,-4.11221 3.79425,-2.90857 5.53695,-7.28256 5.53695,-12.87222 -1e-5,-5.80293 -1.49907,-10.59057 -5.25275,-13.76458 -3.18938,-2.69685 -8.00644,-4.22878 -14.91464,-4.22878 -6.59084,0 -15.59746,1.40857 -23.63648,3.89457 -10.3041,3.18646 -19.01852,8.14306 -19.01852,14.17251 z"
       sodipodi:nodetypes="sssssssss" />
    <path
       id="path177-7-9-5"
       style="fill:none;stroke:#ff7f2a;stroke-width:0.3;stroke-dasharray:2.4, 1.2;marker-start:url(#Arrow1L);marker-mid:url(#Arrow1L-0)"
       d="m 123.40697,208.52783 c 0,3.98161 3.94945,7.55403 9.16057,10.00241 4.46108,2.09599 9.84678,3.36822 14.47086,3.36822 4.0534,0 7.79651,-0.97929 10.81766,-2.63441 4.45129,-2.43862 7.3353,-6.34437 7.3353,-10.74664 0,-3.51403 -1.83761,-6.71169 -4.84313,-9.09931 -3.31521,-2.63366 -8.05142,-4.28175 -13.30983,-4.28175 -4.5119,0 -9.7489,1.21547 -14.14456,3.22599 -5.37166,2.45693 -9.48687,6.10118 -9.48687,10.16549 z"
       sodipodi:nodetypes="sssssssss" />
    <ellipse
       style="fill:#000000;fill-opacity:1;stroke:none;stroke-width:0.3;stroke-dasharray:2.4, 1.2;stroke-dashoffset:0"
       id="path3315-4"
       cx="147.91956"
       cy="208.631"
       rx="0.91793758"
       ry="0.93270916" />
    <ellipse
       style="fill:#ffffff;fill-opacity:1;stroke:#000000;stroke-width:0.3;stroke-dasharray:none;stroke-dashoffset:0;stroke-opacity:1"
       id="path3315-4-1"
       cx="106.53979"
       cy="208.54878"
       rx="0.91793758"
       ry="0.93270916" />
    <path
       id="path15226"
       style="fill:none;stroke:#9955ff;stroke-width:0.5;stroke-dasharray:4, 2;stroke-dashoffset:0;marker-mid:url(#Arrow1L)"
       d="m 177.07362,208.6847 c 0,10.2808 -5.1106,15.23473 -11.35839,19.34155 -5.0765,3.3369 -12.02242,2.59794 -18.08686,2.23984 -10.4545,-0.61733 -20.45409,-4.57488 -30.50887,-7.50391 -3.5363,-1.03015 -6.78758,-3.4113 -10.46875,-3.53621 -2.45318,-0.0832 -4.74665,1.2528 -7.120225,1.87823 -12.957157,3.41418 -25.480746,10.62967 -38.874266,10.23194 -5.670674,-0.1684 -12.04688,-1.40742 -16.172883,-5.30113 -4.570845,-4.31351 -6.241284,-9.07267 -6.899853,-17.54659 -0.410838,-5.28633 1.831889,-15.7965 7.324561,-20.57384 5.208289,-4.53 13.388033,-4.49814 20.283096,-4.17375 11.115931,0.52296 21.264823,6.57022 31.923398,9.769 3.167402,0.95058 6.215262,2.62298 9.517472,2.80035 3.15012,0.1692 6.24423,-0.95255 9.31304,-1.6835 10.55905,-2.51502 20.37939,-8.62829 31.21457,-9.27479 7.11024,-0.42424 15.43189,-0.75584 21.06197,3.60739 5.69645,4.41467 8.85199,9.51183 8.85199,19.72542 z"
       sodipodi:nodetypes="saaaaaaasaaaaaaas" />
  </g>
</svg>
