<?xml version="1.0" encoding="UTF-8" standalone="no"?>
<!-- Created with Inkscape (http://www.inkscape.org/) -->

<svg
   id="svg5"
   version="1.1"
   viewBox="0 0 210 297"
   height="297mm"
   width="210mm"
   sodipodi:docname="paraboloide.svg"
   inkscape:export-filename="paraboloide.pdf"
   inkscape:export-xdpi="96"
   inkscape:export-ydpi="96"
   inkscape:version="1.2.2 (b0a84865, 2022-12-01)"
   xmlns:inkscape="http://www.inkscape.org/namespaces/inkscape"
   xmlns:sodipodi="http://sodipodi.sourceforge.net/DTD/sodipodi-0.dtd"
   xmlns:xlink="http://www.w3.org/1999/xlink"
   xmlns="http://www.w3.org/2000/svg"
   xmlns:svg="http://www.w3.org/2000/svg"
   xmlns:ns10="http://www.iki.fi/pav/software/textext/">
  <sodipodi:namedview
     id="namedview7"
     pagecolor="#ffffff"
     bordercolor="#000000"
     borderopacity="0.25"
     inkscape:showpageshadow="2"
     inkscape:pageopacity="0.0"
     inkscape:pagecheckerboard="0"
     inkscape:deskcolor="#d1d1d1"
     inkscape:document-units="mm"
     showgrid="false"
     inkscape:zoom="1.3210115"
     inkscape:cx="321.34467"
     inkscape:cy="421.2681"
     inkscape:current-layer="layer1" />
  <defs
     id="defs2">
    <linearGradient
       inkscape:collect="always"
       id="linearGradient15854">
      <stop
         style="stop-color:#000000;stop-opacity:1;"
         offset="0"
         id="stop15850" />
      <stop
         style="stop-color:#000000;stop-opacity:0;"
         offset="1"
         id="stop15852" />
    </linearGradient>
    <linearGradient
       inkscape:collect="always"
       id="linearGradient15048">
      <stop
         style="stop-color:#000000;stop-opacity:1;"
         offset="0"
         id="stop15044" />
      <stop
         style="stop-color:#000000;stop-opacity:0;"
         offset="1"
         id="stop15046" />
    </linearGradient>
    <marker
       style="overflow:visible"
       id="Arrow1L"
       refX="0"
       refY="0"
       orient="auto-start-reverse"
       inkscape:stockid="Arrow1L"
       markerWidth="8.75"
       markerHeight="5"
       viewBox="0 0 8.75 5"
       inkscape:isstock="true"
       inkscape:collect="always"
       preserveAspectRatio="xMidYMid">
      <path
         style="fill:context-stroke;fill-rule:evenodd;stroke:none;stroke-width:0.5"
         d="M 0,0 -2.5,2.5 6.25,0 -2.5,-2.5 Z"
         id="arrow1L" />
    </marker>
    <marker
       style="overflow:visible"
       id="Arrow1L-9-7"
       refX="0"
       refY="0"
       orient="auto-start-reverse"
       inkscape:stockid="Arrow1L"
       markerWidth="8.75"
       markerHeight="5"
       viewBox="0 0 8.75 5"
       inkscape:isstock="true"
       inkscape:collect="always"
       preserveAspectRatio="xMidYMid">
      <path
         style="fill:context-stroke;fill-rule:evenodd;stroke:none;stroke-width:0.5"
         d="M 3.75,0 6.25,2.5 -2.5,0 6.25,-2.5 Z"
         id="arrow1L-9-1" />
    </marker>
    <clipPath
       id="clipPath1194">
      <rect
         style="fill:none;stroke:#000000;stroke-width:0.499999;stroke-dasharray:none"
         width="170.34311"
         height="148.29515"
         x="14.497285"
         y="41.679695"
         id="rect11953" />
    </clipPath>
    <clipPath
       id="clipPath7411">
      <rect
         style="fill:none;stroke:#000000;stroke-width:0.499999;stroke-dasharray:none"
         width="170.34311"
         height="148.29515"
         x="14.497285"
         y="41.679695"
         id="rect12012" />
    </clipPath>
    <linearGradient
       inkscape:collect="always"
       xlink:href="#linearGradient15048"
       id="linearGradient15050"
       x1="74.231247"
       y1="86.808029"
       x2="128.10861"
       y2="82.42437"
       gradientUnits="userSpaceOnUse" />
    <linearGradient
       inkscape:collect="always"
       xlink:href="#linearGradient15854"
       id="linearGradient15856"
       x1="73.812157"
       y1="159.31596"
       x2="119.20381"
       y2="93.293259"
       gradientUnits="userSpaceOnUse"
       gradientTransform="matrix(1,0,0,0.99484114,0,0.68684659)" />
  </defs>
  <g
     inkscape:label="Livello 1"
     inkscape:groupmode="layer"
     id="layer1">
    <path
       style="fill:none;stroke:#000000;stroke-width:0.5;stroke-dasharray:none;marker-end:url(#Arrow1L-9-7)"
       d="m 96.143975,132.92388 c 39.166325,23.19774 38.955755,23.04903 38.955755,23.04903"
       id="path274" />
    <path
       style="fill:none;stroke:#000000;stroke-width:0.5;stroke-dasharray:none;marker-end:url(#Arrow1L)"
       d="M 96.479228,133.06851 C 69.898871,149.6139 66.498535,152.07264 66.498535,152.07264"
       id="path274-1"
       sodipodi:nodetypes="cc" />
    <path
       style="fill:none;stroke:#000000;stroke-width:0.5;stroke-dasharray:none;marker-end:url(#Arrow1L-9-7)"
       d="m 96.382611,133.16131 c 0.0285,-71.361125 0.0284,-70.903669 0.0284,-70.903669"
       id="path274-1-3" />
    <path
       id="path12458"
       style="fill:url(#linearGradient15856);fill-opacity:1;stroke:#000000;stroke-width:0.498708;stroke-dasharray:none;fill-rule:nonzero"
       d="m 64.208924,84.751881 c 0.01643,0.06119 0.03287,0.103871 0.04929,0.102717 0.0569,-0.003 0.1137,0.515328 0.1705,0.511349 0.0569,-0.004 0.1137,0.512343 0.1705,0.508364 0.0569,-0.005 0.1137,0.509358 0.1706,0.505379 0.0568,-0.005 0.1136,0.507369 0.1705,0.502395 0.0568,-0.006 0.1137,0.505379 0.1705,0.49941 0.0568,-0.006 0.1137,0.50339 0.1705,0.497421 0.0568,-0.006 0.1137,0.501399 0.1705,0.494436 0.0569,-0.007 0.1137,0.498415 0.1705,0.491451 0.0569,-0.007 0.1137,0.496426 0.1705,0.489462 0.0569,-0.008 0.1137,0.494436 0.1706,0.486477 0.0568,-0.008 0.1136,0.491452 0.1705,0.483493 0.0568,-0.009 0.1136,0.489462 0.1705,0.480508 0.0568,-0.009 0.1137,0.487472 0.1705,0.478519 0.0568,-0.009 0.1137,0.485482 0.1705,0.475534 0.0569,-0.0099 0.1137,0.482498 0.1705,0.47255 0.0569,-0.0099 0.1137,0.480508 0.1705,0.469565 0.0569,-0.0099 0.1137,0.478518 0.1706,0.467575 0.0568,-0.01094 0.1136,0.476529 0.1705,0.464591 0.0568,-0.01094 0.1136,0.473544 0.1705,0.461606 0.0568,-0.01194 0.1137,0.471555 0.1705,0.459617 0.0568,-0.01293 0.1137,0.469565 0.1705,0.456632 0.0568,-0.01293 0.1137,0.46658 0.1705,0.453647 0.0569,-0.01393 0.1137,0.464591 0.1705,0.450663 0.0569,-0.01393 0.1137,0.462601 0.1705,0.448674 0.0569,-0.01393 0.1137,0.459616 0.1706,0.445688 0.0568,-0.01492 0.1136,0.457627 0.1705,0.442705 0.0568,-0.01492 0.1137,0.455637 0.1705,0.43972 0.0568,-0.01492 0.1137,0.453647 0.1705,0.43773 0.0568,-0.01592 0.1137,0.450663 0.1705,0.434745 0.0569,-0.01691 0.1137,0.448674 0.1705,0.431761 0.0569,-0.01691 0.1137,0.446684 0.1705,0.429772 0.0569,-0.01791 0.1137,0.443699 0.1706,0.425792 0.0568,-0.01691 0.1136,0.442701 0.1705,0.423801 0.0568,-0.0179 0.1136,0.43972 0.1705,0.42181 0.0568,-0.0189 0.1137,0.43674 0.1705,0.41783 0.0568,-0.0189 0.1137,0.43475 0.1705,0.41585 0.0569,-0.0189 0.1137,0.43275 0.1705,0.41286 0.0569,-0.0199 0.1137,0.43076 0.1705,0.41087 0.0569,-0.0209 0.1137,0.42778 0.1706,0.40689 0.0568,-0.0209 0.1136,0.42579 0.1705,0.4049 0.0568,-0.0209 0.1136,0.4238 0.1705,0.40191 0.0568,-0.0209 0.1137,0.42181 0.1705,0.39993 0.0568,-0.0219 0.1137,0.41883 0.1705,0.39595 0.0568,-0.0219 0.1137,0.41683 0.1705,0.39395 0.0569,-0.0219 0.1137,0.41485 0.1705,0.39197 0.0569,-0.0239 0.1137,0.41186 0.1705,0.38799 0.0569,-0.0229 0.1137,0.40987 0.1706,0.386 0.0568,-0.0239 0.1136,0.40788 0.1705,0.38301 0.0568,-0.0239 0.1137,0.4049 0.1705,0.38003 0.0568,-0.0249 0.1137,0.40291 0.1705,0.37804 0.0568,-0.0249 0.1137,0.40092 0.1705,0.37505 0.0569,-0.0259 0.1137,0.39794 0.1705,0.37207 0.0569,-0.0259 0.1137,0.39595 0.1705,0.36909 0.0569,-0.0259 0.1137,0.39396 0.1706,0.3671 0.0568,-0.0269 0.1136,0.39097 0.1705,0.36411 0.0568,-0.0269 0.1136,0.38898 0.1705,0.36113 0.0568,-0.0269 0.1137,0.38699 0.1705,0.35913 0.0568,-0.0279 0.1137,0.38401 0.1705,0.35516 0.0568,-0.0279 0.1137,0.38202 0.1705,0.35317 0.0569,-0.0279 0.1137,0.38003 0.1705,0.35118 0.0569,-0.0298 0.1137,0.37704 0.1706,0.3472 0.0568,-0.0289 0.1136,0.37505 0.1705,0.34521 0.0568,-0.0298 0.1136,0.37306 0.1705,0.34222 0.0568,-0.0298 0.1137,0.37108 0.1705,0.34024 0.0568,-0.0308 0.1137,0.36809 0.1705,0.33626 0.0568,-0.0308 0.1137,0.3661 0.1705,0.33426 0.0569,-0.0308 0.1137,0.36312 0.1705,0.33129 0.0569,-0.0318 0.1137,0.36112 0.1705,0.32929 0.0569,-0.0328 0.1137,0.35814 0.1706,0.32631 0.0568,-0.0328 0.1136,0.35615 0.1705,0.32332 0.0568,-0.0338 0.1137,0.35317 0.1705,0.32034 0.0568,-0.0338 0.1137,0.35118 0.1705,0.31735 0.0568,-0.0338 0.1137,0.34919 0.1705,0.31537 0.0569,-0.0338 0.1137,0.3472 0.1705,0.31238 0.0569,-0.0338 0.1137,0.34421 0.1705,0.30939 0.0569,-0.0338 0.1137,0.34223 0.1706,0.30741 0.0568,-0.0348 0.1136,0.34023 0.1705,0.30442 0.0568,-0.0358 0.1136,0.33725 0.1705,0.30144 0.0568,-0.0358 0.1137,0.33526 0.1705,0.29845 0.0568,-0.0358 0.1137,0.33327 0.1705,0.29646 0.0568,-0.0368 0.1137,0.33029 0.1705,0.29348 0.0569,-0.0368 0.1137,0.3283 0.1705,0.29049 0.0569,-0.0368 0.1137,0.32631 0.1706,0.28851 0.0568,-0.0378 0.1136,0.32332 0.1705,0.28552 0.0568,-0.0388 0.1136,0.32034 0.1705,0.28253 0.0568,-0.0388 0.1137,0.31835 0.1705,0.27955 0.0568,-0.0388 0.1137,0.31537 0.1705,0.27657 0.0568,-0.0388 0.1137,0.31437 0.1705,0.27457 0.0569,-0.0388 0.1137,0.31139 0.1705,0.2716 0.0569,-0.0388 0.1137,0.30939 0.1705,0.2696 0.0569,-0.0398 0.1137,0.30641 0.1706,0.26562 0.0568,-0.0398 0.1136,0.30442 0.1705,0.26363 0.0568,-0.0398 0.1137,0.30144 0.1705,0.26065 0.0568,-0.0408 0.1137,0.29945 0.1705,0.25866 0.0568,-0.0418 0.1137,0.29646 0.1705,0.25567 0.0569,-0.0418 0.1137,0.29348 0.1705,0.25269 0.0569,-0.0418 0.1137,0.29149 0.1705,0.24971 0.0569,-0.0418 0.1137,0.2895 0.1706,0.24672 0.0568,-0.0418 0.1136,0.28751 0.1705,0.24473 0.0568,-0.0428 0.1136,0.28453 0.1705,0.24175 0.0568,-0.0428 0.1137,0.28253 0.1705,0.23876 0.0568,-0.0428 0.1137,0.28054 0.1705,0.23677 0.0568,-0.0438 0.1137,0.27756 0.1705,0.23379 0.0569,-0.0438 0.1137,0.27457 0.1705,0.2308 0.0569,-0.0438 0.1137,0.27259 0.1706,0.22782 0.0568,-0.0438 0.1136,0.2706 0.1705,0.22583 0.0568,-0.0448 0.1136,0.26761 0.1705,0.22284 0.0568,-0.0448 0.1137,0.26563 0.1705,0.21986 0.0568,-0.0448 0.1137,0.26264 0.1705,0.21787 0.0568,-0.0458 0.1137,0.25966 0.1705,0.21389 0.0569,-0.0458 0.1137,0.25866 0.1705,0.21191 0.0569,-0.0458 0.1137,0.25567 0.1705,0.20991 0.0569,-0.0468 0.1137,0.25269 0.1706,0.20593 0.0568,-0.0458 0.1136,0.2507 0.1705,0.20394 0.0568,-0.0468 0.1137,0.24772 0.1705,0.20096 0.0568,-0.0468 0.1137,0.24573 0.1705,0.19897 0.0568,-0.0478 0.1137,0.24274 0.1705,0.19499 0.0569,-0.0478 0.1137,0.24075 0.1705,0.193 0.0569,-0.0478 0.1137,0.23876 0.1705,0.19001 0.0569,-0.0477 0.1137,0.23578 0.1706,0.18803 0.0568,-0.0488 0.1136,0.23279 0.1705,0.18404 0.0568,-0.0478 0.1136,0.2308 0.1705,0.18206 0.0568,-0.0487 0.1137,0.22881 0.1705,0.18006 0.0568,-0.0497 0.1137,0.22583 0.1705,0.17609 0.0568,-0.0487 0.1137,0.22384 0.1705,0.1741 0.0569,-0.0497 0.1137,0.22085 0.1705,0.17111 0.0569,-0.0497 0.1137,0.21787 0.1706,0.16813 0.0568,-0.0497 0.1136,0.21588 0.1705,0.16614 0.0568,-0.0498 0.1136,0.21289 0.1705,0.16315 0.0568,-0.0507 0.1137,0.21091 0.1705,0.16017 0.0568,-0.0507 0.1137,0.20792 0.1705,0.15719 0.0568,-0.0507 0.1137,0.20593 0.1705,0.15519 0.0569,-0.0507 0.1137,0.20295 0.1705,0.15221 0.0569,-0.0507 0.1137,0.20096 0.1705,0.14923 0.0569,-0.0507 0.1137,0.19797 0.1706,0.14723 0.0568,-0.0517 0.1136,0.19499 0.1705,0.14326 0.0568,-0.0517 0.1137,0.193 0.1705,0.14127 0.0568,-0.0517 0.1137,0.19101 0.1705,0.13928 0.0568,-0.0527 0.1137,0.18802 0.1705,0.13529 0.0569,-0.0517 0.1137,0.18604 0.1705,0.13331 0.0569,-0.0527 0.1137,0.18305 0.1705,0.13033 0.0569,-0.0527 0.1137,0.18006 0.1706,0.12734 0.0568,-0.0527 0.1136,0.17807 0.1705,0.12535 0.0568,-0.0527 0.1136,0.17509 0.1705,0.12236 0.0568,-0.0527 0.1137,0.17211 0.1705,0.11938 0.0568,-0.0527 0.1137,0.17012 0.1705,0.1164 0.0568,-0.0527 0.1137,0.16813 0.1705,0.11441 0.0569,-0.0537 0.1137,0.16514 0.1705,0.11142 0.0569,-0.0537 0.1137,0.16216 0.1706,0.10844 0.0568,-0.0537 0.1136,0.16017 0.1705,0.10644 0.0568,-0.0537 0.1136,0.15719 0.1705,0.10347 0.0568,-0.0547 0.1137,0.1542 0.1705,0.10048 0.0568,-0.0547 0.1137,0.15221 0.1705,0.0975 0.0568,-0.0547 0.1137,0.14923 0.1705,0.0955 0.0569,-0.0547 0.1137,0.14624 0.1705,0.0915 0.0569,-0.0537 0.1137,0.14425 0.1705,0.0905 0.0569,-0.0547 0.1137,0.14127 0.1706,0.0866 0.0568,-0.0547 0.1136,0.13928 0.1705,0.0846 0.0568,-0.0557 0.1137,0.1363 0.1705,0.0816 0.0568,-0.0557 0.1137,0.13331 0.1705,0.0786 0.0568,-0.0557 0.1137,0.13132 0.1705,0.0756 0.0569,-0.0547 0.1137,0.12933 0.1705,0.0736 0.0569,-0.0557 0.1137,0.12635 0.1705,0.0706 0.0569,-0.0557 0.1137,0.12336 0.1706,0.0677 0.0568,-0.0557 0.1136,0.12137 0.1705,0.0657 0.0568,-0.0557 0.1136,0.11739 0.1705,0.0627 0.0568,-0.0557 0.1137,0.1154 0.1705,0.0597 0.0568,-0.0557 0.1137,0.11242 0.1705,0.0567 0.0568,-0.0557 0.1137,0.11043 0.1705,0.0547 0.0569,-0.0567 0.1137,0.10744 0.1705,0.0517 0.0569,-0.0567 0.1137,0.10446 0.1706,0.0487 0.0568,-0.0567 0.1136,0.10147 0.1705,0.0458 0.0568,-0.0557 0.1136,0.0995 0.1705,0.0438 0.0568,-0.0567 0.1137,0.0965 0.1705,0.0408 0.0568,-0.0567 0.1137,0.0935 0.1705,0.0378 0.0568,-0.0567 0.1137,0.0915 0.1705,0.0348 0.0569,-0.0557 0.1137,0.0895 0.1705,0.0328 0.0569,-0.0557 0.1137,0.0865 0.1705,0.0298 0.0569,-0.0557 0.1137,0.0836 0.1706,0.0279 0.0568,-0.0567 0.1136,0.0806 0.1705,0.0239 0.0568,-0.0567 0.1136,0.0786 0.1705,0.0219 0.0568,-0.0567 0.1137,0.0756 0.1705,0.0189 0.0568,-0.0567 0.1137,0.0726 0.1705,0.0169 0.0569,-0.0567 0.1137,0.0696 0.1705,0.0129 0.0569,-0.0567 0.1137,0.0677 0.1705,0.0109 0.0569,-0.0567 0.1137,0.0647 0.1706,0.008 0.0568,-0.0567 0.1136,0.0627 0.1705,0.006 0.0568,-0.0567 0.1136,0.0587 0.1705,0.003 0.0568,-0.0567 0.1137,0.0557 0.1705,0 0.0568,-0.0567 0.1137,0.0537 0.1705,-0.003 0.0568,-0.0567 0.1134,0.0507 0.1704,-0.006 0.057,-0.0567 0.114,0.0488 0.171,-0.008 0.056,-0.0567 0.113,0.0458 0.17,-0.0109 0.057,-0.0567 0.114,0.0428 0.171,-0.0129 0.057,-0.0567 0.113,0.0398 0.17,-0.0169 0.057,-0.0567 0.114,0.0378 0.171,-0.0189 0.057,-0.0567 0.113,0.0348 0.17,-0.0219 0.057,-0.0567 0.114,0.0318 0.171,-0.0239 0.057,-0.0567 0.113,0.0288 0.17,-0.0279 0.057,-0.0557 0.114,0.0269 0.171,-0.0298 0.057,-0.0557 0.113,0.0239 0.17,-0.0328 0.057,-0.0557 0.114,0.0209 0.171,-0.0348 0.057,-0.0567 0.113,0.0179 0.17,-0.0378 0.057,-0.0567 0.114,0.0149 0.171,-0.0408 0.057,-0.0567 0.113,0.0119 0.17,-0.0438 0.057,-0.0557 0.114,0.01 0.171,-0.0458 0.057,-0.0567 0.114,0.007 0.17,-0.0487 0.057,-0.0567 0.114,0.004 0.171,-0.0517 0.057,-0.0567 0.114,0.001 0.17,-0.0547 0.057,-0.0557 0.113996,-9.9e-4 0.170996,-0.0567 0.057,-0.0557 0.114,-0.005 0.17,-0.0597 0.057,-0.0557 0.114,-0.007 0.171,-0.0627 0.057,-0.0557 0.114,-0.01 0.17,-0.0657 0.057,-0.0557 0.114,-0.0119 0.171,-0.0677 0.057,-0.0557 0.114,-0.0149 0.17,-0.0706 0.057,-0.0557 0.114,-0.0179 0.171,-0.0736 0.057,-0.0547 0.114,-0.0209 0.17,-0.0756 0.057,-0.0557 0.114,-0.0239 0.171,-0.0786 0.057,-0.0557 0.114,-0.0269 0.171,-0.0816 0.056,-0.0557 0.113,-0.0298 0.17,-0.0846 0.057,-0.0547 0.114,-0.0328 0.171,-0.0866 0.056,-0.0547 0.113,-0.0358 0.17,-0.0905 0.057,-0.0537 0.114,-0.0378 0.171,-0.0915 0.056,-0.0547 0.113,-0.0408 0.17,-0.0955 0.057,-0.0547 0.114,-0.0438 0.171,-0.0975 0.056,-0.0547 0.113,-0.0468 0.17,-0.10048 0.057,-0.0547 0.114,-0.0497 0.171,-0.10347 0.056,-0.0537 0.113,-0.0527 0.17,-0.10644 0.057,-0.0537 0.114,-0.0547 0.171,-0.10844 0.056,-0.0537 0.113,-0.0577 0.17,-0.11142 0.057,-0.0537 0.114,-0.0607 0.171,-0.11441 0.057,-0.0527 0.113,-0.0637 0.17,-0.1164 0.057,-0.0527 0.114,-0.0666 0.171,-0.11938 0.057,-0.0527 0.113,-0.0696 0.17,-0.12236 0.057,-0.0527 0.114,-0.0726 0.171,-0.12535 0.057,-0.0527 0.113,-0.0746 0.17,-0.12734 0.057,-0.0527 0.114,-0.0776 0.171,-0.13033 0.057,-0.0527 0.113,-0.0806 0.17,-0.13331 0.057,-0.0517 0.114,-0.0836 0.171,-0.13529 0.057,-0.0527 0.113,-0.0875 0.17,-0.13928 0.057,-0.0517 0.114,-0.0895 0.171,-0.14127 0.057,-0.0517 0.113,-0.0925 0.17,-0.14326 0.057,-0.0517 0.114,-0.0955 0.171,-0.14723 0.057,-0.0507 0.114,-0.0985 0.17,-0.14923 l 0.171,-0.15221 c 0.057,-0.0507 0.114,-0.10446 0.17,-0.15519 0.057,-0.0507 0.114,-0.10645 0.171,-0.15719 0.057,-0.0507 0.114,-0.11043 0.17,-0.16017 0.057,-0.0507 0.114,-0.11341 0.171,-0.16315 0.057,-0.0498 0.114,-0.1164 0.17,-0.16614 0.057,-0.0497 0.114,-0.11839 0.171,-0.16813 0.057,-0.0497 0.114,-0.12137 0.17,-0.17111 0.057,-0.0497 0.114,-0.12436 0.171,-0.1741 0.057,-0.0487 0.114,-0.12734 0.17,-0.17609 0.057,-0.0497 0.114,-0.13132 0.171,-0.18006 0.057,-0.0487 0.114,-0.13331 0.171,-0.18206 0.056,-0.0478 0.113,-0.13629 0.17,-0.18404 0.057,-0.0488 0.114,-0.13928 0.171,-0.18803 0.056,-0.0477 0.113,-0.14226 0.17,-0.19001 0.057,-0.0478 0.114,-0.14525 0.171,-0.193 0.056,-0.0478 0.113,-0.14823 0.17,-0.19499 0.057,-0.0478 0.114,-0.15221 0.171,-0.19897 0.056,-0.0468 0.113,-0.1542 0.17,-0.20096 0.057,-0.0468 0.114,-0.15718 0.171,-0.20394 0.056,-0.0458 0.113,-0.16017 0.17,-0.20593 0.057,-0.0468 0.114,-0.16316 0.171,-0.20991 0.056,-0.0458 0.113,-0.16614 0.17,-0.21191 0.057,-0.0458 0.114,-0.16912 0.171,-0.21389 0.057,-0.0458 0.113,-0.1721 0.17,-0.21787 0.057,-0.0448 0.114,-0.17509 0.171,-0.21986 0.057,-0.0448 0.113,-0.17807 0.17,-0.22284 0.057,-0.0448 0.114,-0.18106 0.171,-0.22583 0.057,-0.0438 0.113,-0.18405 0.17,-0.22782 0.057,-0.0438 0.114,-0.18703 0.171,-0.2308 0.057,-0.0438 0.113,-0.19002 0.17,-0.23379 0.057,-0.0438 0.114,-0.193 0.171,-0.23677 0.057,-0.0428 0.113,-0.19598 0.17,-0.23876 0.057,-0.0428 0.114,-0.19897 0.171,-0.24175 0.057,-0.0428 0.113,-0.20195 0.17,-0.24473 0.057,-0.0418 0.114,-0.20494 0.171,-0.24672 0.057,-0.0418 0.114,-0.20892 0.17,-0.24971 0.057,-0.0418 0.114,-0.2119 0.171,-0.25269 0.057,-0.0418 0.114,-0.21488 0.17,-0.25567 0.057,-0.0418 0.114,-0.21787 0.171,-0.25866 0.057,-0.0408 0.114,-0.21986 0.17,-0.26065 0.057,-0.0398 0.114,-0.22284 0.171,-0.26363 0.057,-0.0398 0.114,-0.22583 0.17,-0.26562 0.057,-0.0398 0.114,-0.22981 0.171,-0.2696 0.057,-0.0388 0.114,-0.2318 0.17,-0.2716 0.057,-0.0388 0.114,-0.23577 0.171,-0.27457 0.057,-0.0388 0.114,-0.23777 0.17,-0.27657 0.057,-0.0388 0.114,-0.24174 0.171,-0.27955 0.057,-0.0388 0.114,-0.24473 0.171,-0.28253 0.056,-0.0388 0.113,-0.24772 0.17,-0.28552 0.057,-0.0378 0.114,-0.2507 0.171,-0.28851 0.056,-0.0368 0.113,-0.25368 0.17,-0.29049 0.057,-0.0368 0.114,-0.25667 0.171,-0.29348 0.056,-0.0368 0.113,-0.25965 0.17,-0.29646 0.057,-0.0358 0.114,-0.26264 0.171,-0.29845 0.056,-0.0358 0.113,-0.26563 0.17,-0.30144 0.057,-0.0358 0.114,-0.2696 0.171,-0.30442 0.056,-0.0348 0.113,-0.27259 0.17,-0.30741 0.057,-0.0338 0.114,-0.27457 0.171,-0.30939 0.056,-0.0338 0.113,-0.27856 0.17,-0.31238 0.057,-0.0338 0.114,-0.28154 0.171,-0.31537 0.057,-0.0338 0.113,-0.28452 0.17,-0.31735 0.057,-0.0338 0.114,-0.28751 0.171,-0.32034 0.057,-0.0338 0.113,-0.29149 0.17,-0.32332 0.057,-0.0328 0.114,-0.29448 0.171,-0.32631 0.057,-0.0328 0.113,-0.29746 0.17,-0.32929 0.057,-0.0318 0.114,-0.29945 0.171,-0.33129 0.057,-0.0308 0.113,-0.30243 0.17,-0.33426 0.057,-0.0308 0.114,-0.30542 0.171,-0.33626 0.057,-0.0308 0.113,-0.3094 0.17,-0.34024 0.057,-0.0298 0.114,-0.31238 0.171,-0.34222 0.057,-0.0298 0.113,-0.31537 0.17,-0.34521 0.057,-0.0289 0.114,-0.31835 0.171,-0.3472 0.057,-0.0298 0.114,-0.32233 0.17,-0.35118 0.057,-0.0279 0.114,-0.32432 0.171,-0.35317 0.057,-0.0279 0.114,-0.3273 0.17,-0.35516 0.057,-0.0279 0.114,-0.33128 0.171,-0.35913 0.057,-0.0269 0.114,-0.33427 0.17,-0.36113 0.057,-0.0269 0.114,-0.33725 0.171,-0.36411 0.057,-0.0269 0.114,-0.34024 0.17,-0.3671 0.057,-0.0259 0.114,-0.34322 0.171,-0.36909 0.057,-0.0259 0.114,-0.3462 0.17,-0.37207 0.057,-0.0259 0.114,-0.35018 0.171,-0.37505 0.057,-0.0249 0.114,-0.35317 0.17,-0.37804 0.057,-0.0249 0.114,-0.35516 0.171,-0.38003 0.057,-0.0239 0.114,-0.35914 0.171,-0.38301 0.056,-0.0239 0.113,-0.36213 0.17,-0.386 0.057,-0.0229 0.114,-0.36511 0.171,-0.38799 0.056,-0.0239 0.113,-0.36909 0.17,-0.39197 0.057,-0.0219 0.114,-0.37107 0.171,-0.39395 0.056,-0.0219 0.113,-0.37407 0.17,-0.39595 0.057,-0.0219 0.114,-0.37804 0.171,-0.39993 0.056,-0.0209 0.113,-0.38102 0.17,-0.40191 0.057,-0.0209 0.114,-0.38401 0.171,-0.4049 0.056,-0.0209 0.113,-0.387 0.17,-0.40689 0.057,-0.0209 0.114,-0.39098 0.171,-0.41087 0.056,-0.0199 0.113,-0.39396 0.17,-0.41286 0.057,-0.0189 0.114,-0.39694 0.171,-0.41585 0.057,-0.0189 0.113,-0.39992 0.17,-0.41783 0.057,-0.0189 0.114,-0.40291 0.171,-0.42181 0.057,-0.0179 0.113,-0.405894 0.17,-0.423801 0.057,-0.01691 0.114,-0.40888 0.171,-0.425792 0.057,-0.01791 0.113,-0.412859 0.17,-0.429772 0.057,-0.01691 0.114,-0.415843 0.171,-0.431761 0.057,-0.01691 0.113,-0.418828 0.17,-0.434745 0.057,-0.01592 0.114,-0.421813 0.171,-0.43773 0.057,-0.01492 0.113,-0.424798 0.17,-0.43972 0.057,-0.01492 0.114,-0.428777 0.171,-0.442705 0.057,-0.01492 0.113,-0.431761 0.17,-0.445688 0.057,-0.01393 0.114,-0.434746 0.171,-0.448674 0.057,-0.01393 0.114,-0.43773 0.17,-0.450663 0.057,-0.01393 0.114,-0.440714 0.171,-0.453647 0.057,-0.01293 0.114,-0.444694 0.17,-0.456632 0.057,-0.01293 0.114,-0.447679 0.171,-0.459617 0.057,-0.01194 0.114,-0.449668 0.17,-0.461606 0.057,-0.01094 0.114,-0.453648 0.171,-0.464591 0.057,-0.01094 0.114,-0.456632 0.17,-0.467575 0.057,-0.0099 0.114,-0.459617 0.171,-0.469565 0.057,-0.0099 0.114,-0.462602 0.17,-0.47255 0.057,-0.0099 0.114,-0.466581 0.171,-0.475534 0.057,-0.009 0.114,-0.469565 0.17,-0.478519 0.057,-0.009 0.114,-0.472549 0.171,-0.480508 0.057,-0.009 0.114,-0.475534 0.171,-0.483493 0.056,-0.008 0.113,-0.479513 0.17,-0.486477 0.057,-0.008 0.114,-0.482498 0.171,-0.489462 0.056,-0.007 0.113,-0.484488 0.17,-0.491451 0.057,-0.007 0.114,-0.488467 0.171,-0.494436 0.056,-0.006 0.113,-0.491452 0.17,-0.497421 0.057,-0.006 0.114,-0.494436 0.171,-0.49941 0.056,-0.006 0.113,-0.498416 0.17,-0.502395 0.057,-0.005 0.114,-0.5014 0.171,-0.505379 0.056,-0.005 0.113,-0.504385 0.17,-0.508364 0.057,-0.004 0.114,-0.507369 0.171,-0.511349 0.016,-8.55e-4 0.0322,-0.04313 0.0484,-0.103075" />
    <path
       id="path13281"
       style="fill:url(#linearGradient15050);fill-opacity:1;stroke:#000000;stroke-width:0.5;stroke-dasharray:none"
       d="m 128.60468,84.017296 c 0,6.258486 -14.42776,19.329574 -32.210156,19.329574 -17.782396,0 -32.185601,-13.071088 -32.185601,-19.329574 0,-6.258486 14.410607,0.831065 32.193003,0.831065 17.782394,-10e-7 32.202754,-7.089551 32.202754,-0.831065 z"
       sodipodi:nodetypes="sssss" />
    <g
       transform="matrix(0.705556,0,0,0.705556,75.164864,148.52984)"
       ns10:version="1.8.2"
       ns10:texconverter="pdflatex"
       ns10:pdfconverter="inkscape"
       ns10:text="$z= \\alpha (x^2 +y^2)$"
       ns10:preamble="/Users/pietroscapolo/Library/Application Support/org.inkscape.Inkscape/config/inkscape/extensions/textext/default_packages.tex"
       ns10:scale="2.0"
       ns10:alignment="middle center"
       ns10:stroke-to-path="0"
       ns10:jacobian_sqrt="0.705556"
       id="g38081">
      <defs
         id="id-6a064872-feb1-4c02-b564-90de597440ff">
        <g
           id="id-59c68bdf-0364-4899-80af-f8657720334a">
          <g
             id="id-fecd0e1c-1e21-43ab-b4c0-915e165eb63e" />
          <g
             id="id-c7e422b6-d46e-4591-8d96-13bb059b8fb8">
            <path
               d="m 1.328125,-0.828125 c 0.53125,-0.578125 0.828125,-0.828125 1.1875,-1.140625 0,0 0.609375,-0.53125 0.96875,-0.890625 C 4.4375,-3.78125 4.65625,-4.265625 4.65625,-4.3125 c 0,-0.09375 -0.09375,-0.09375 -0.109375,-0.09375 -0.078125,0 -0.09375,0.015625 -0.15625,0.109375 -0.296875,0.484375 -0.5,0.640625 -0.734375,0.640625 -0.25,0 -0.359375,-0.15625 -0.515625,-0.328125 -0.1875,-0.21875 -0.359375,-0.421875 -0.6875,-0.421875 -0.75,0 -1.203125,0.921875 -1.203125,1.140625 0,0.046875 0.03125,0.109375 0.109375,0.109375 0.09375,0 0.109375,-0.046875 0.140625,-0.109375 0.1875,-0.46875 0.765625,-0.46875 0.84375,-0.46875 0.203125,0 0.390625,0.0625 0.625,0.140625 0.40625,0.15625 0.515625,0.15625 0.765625,0.15625 -0.359375,0.421875 -1.1875,1.140625 -1.375,1.296875 l -0.90625,0.84375 C 0.78125,-0.625 0.421875,-0.0625 0.421875,0.015625 c 0,0.09375 0.109375,0.09375 0.125,0.09375 0.078125,0 0.09375,-0.015625 0.15625,-0.125 0.234375,-0.359375 0.53125,-0.625 0.859375,-0.625 0.21875,0 0.328125,0.09375 0.578125,0.375 0.15625,0.21875 0.34375,0.375 0.625,0.375 1,0 1.578125,-1.265625 1.578125,-1.53125 0,-0.046875 -0.046875,-0.109375 -0.125,-0.109375 -0.09375,0 -0.109375,0.0625 -0.140625,0.140625 C 3.84375,-0.75 3.203125,-0.5625 2.875,-0.5625 c -0.1875,0 -0.375,-0.0625 -0.578125,-0.125 -0.34375,-0.125 -0.5,-0.171875 -0.703125,-0.171875 -0.015625,0 -0.171875,0 -0.265625,0.03125 z m 0,0"
               id="id-41c30672-ddc7-462b-bbc1-bd37e680712a" />
          </g>
          <g
             id="id-f80d1b72-50b2-4a71-aa2c-cc60fbd05e6d">
            <path
               d="m 4.75,-2.359375 c 0,-1.5625 -0.921875,-2.046875 -1.65625,-2.046875 -1.375,0 -2.6875,1.421875 -2.6875,2.828125 0,0.9375 0.59375,1.6875 1.625,1.6875 0.625,0 1.34375,-0.234375 2.09375,-0.84375 0.125,0.53125 0.453125,0.84375 0.90625,0.84375 0.53125,0 0.84375,-0.546875 0.84375,-0.703125 0,-0.078125 -0.0625,-0.109375 -0.125,-0.109375 -0.0625,0 -0.09375,0.03125 -0.125,0.109375 -0.1875,0.484375 -0.546875,0.484375 -0.5625,0.484375 -0.3125,0 -0.3125,-0.78125 -0.3125,-1.015625 0,-0.203125 0,-0.234375 0.109375,-0.34375 C 5.796875,-2.65625 6,-3.8125 6,-3.8125 6,-3.84375 5.984375,-3.921875 5.875,-3.921875 c -0.09375,0 -0.09375,0.03125 -0.140625,0.21875 -0.1875,0.625 -0.515625,1.375 -0.984375,1.96875 z m -0.65625,1.375 c -0.890625,0.765625 -1.65625,0.875 -2.046875,0.875 -0.59375,0 -0.90625,-0.453125 -0.90625,-1.09375 0,-0.484375 0.265625,-1.5625 0.578125,-2.0625 C 2.1875,-4 2.734375,-4.1875 3.078125,-4.1875 c 0.984375,0 0.984375,1.3125 0.984375,2.078125 0,0.375 0,0.953125 0.03125,1.125 z m 0,0"
               id="id-15c86e74-2a06-497c-babb-89134c6cd1aa" />
          </g>
          <g
             id="id-aa6f250a-d885-4154-a5b2-12fbfdf3f6aa">
            <path
               d="M 3.328125,-3.015625 C 3.390625,-3.265625 3.625,-4.1875 4.3125,-4.1875 c 0.046875,0 0.296875,0 0.5,0.125 C 4.53125,-4 4.34375,-3.765625 4.34375,-3.515625 c 0,0.15625 0.109375,0.34375 0.375,0.34375 0.21875,0 0.53125,-0.171875 0.53125,-0.578125 0,-0.515625 -0.578125,-0.65625 -0.921875,-0.65625 -0.578125,0 -0.921875,0.53125 -1.046875,0.75 -0.25,-0.65625 -0.78125,-0.75 -1.078125,-0.75 -1.03125,0 -1.609375,1.28125 -1.609375,1.53125 0,0.109375 0.109375,0.109375 0.125,0.109375 0.078125,0 0.109375,-0.03125 0.125,-0.109375 0.34375,-1.0625 1,-1.3125 1.34375,-1.3125 0.1875,0 0.53125,0.09375 0.53125,0.671875 0,0.3125 -0.171875,0.96875 -0.53125,2.375 -0.15625,0.609375 -0.515625,1.03125 -0.953125,1.03125 -0.0625,0 -0.28125,0 -0.5,-0.125 0.25,-0.0625 0.46875,-0.265625 0.46875,-0.546875 0,-0.265625 -0.21875,-0.34375 -0.359375,-0.34375 -0.3125,0 -0.546875,0.25 -0.546875,0.578125 0,0.453125 0.484375,0.65625 0.921875,0.65625 0.671875,0 1.03125,-0.703125 1.046875,-0.75 0.125,0.359375 0.484375,0.75 1.078125,0.75 1.03125,0 1.59375,-1.28125 1.59375,-1.53125 0,-0.109375 -0.078125,-0.109375 -0.109375,-0.109375 -0.09375,0 -0.109375,0.046875 -0.140625,0.109375 -0.328125,1.078125 -1,1.3125 -1.3125,1.3125 -0.390625,0 -0.546875,-0.3125 -0.546875,-0.65625 0,-0.21875 0.046875,-0.4375 0.15625,-0.875 z m 0,0"
               id="id-a9f65415-3dfd-41a3-8fef-28197e5ffbca" />
          </g>
          <g
             id="id-7b4f4150-a928-4080-8c1e-6bf9a861848b">
            <path
               d="m 4.84375,-3.796875 c 0.046875,-0.140625 0.046875,-0.15625 0.046875,-0.234375 0,-0.171875 -0.140625,-0.265625 -0.296875,-0.265625 -0.09375,0 -0.25,0.0625 -0.34375,0.203125 -0.015625,0.0625 -0.109375,0.359375 -0.140625,0.546875 -0.078125,0.25 -0.140625,0.53125 -0.203125,0.796875 l -0.453125,1.796875 c -0.03125,0.140625 -0.46875,0.84375 -1.125,0.84375 -0.5,0 -0.609375,-0.4375 -0.609375,-0.8125 C 1.71875,-1.375 1.890625,-2 2.21875,-2.875 2.375,-3.28125 2.421875,-3.390625 2.421875,-3.59375 c 0,-0.4375 -0.3125,-0.8125 -0.8125,-0.8125 -0.953125,0 -1.3125,1.453125 -1.3125,1.53125 0,0.109375 0.09375,0.109375 0.109375,0.109375 0.109375,0 0.109375,-0.03125 0.15625,-0.1875 0.28125,-0.9375 0.671875,-1.234375 1.015625,-1.234375 0.078125,0 0.25,0 0.25,0.3125 0,0.25 -0.109375,0.515625 -0.171875,0.703125 -0.40625,1.0625 -0.578125,1.625 -0.578125,2.09375 0,0.890625 0.625,1.1875 1.21875,1.1875 0.390625,0 0.71875,-0.171875 1,-0.453125 -0.125,0.515625 -0.25,1.015625 -0.640625,1.546875 -0.265625,0.328125 -0.640625,0.625 -1.09375,0.625 -0.140625,0 -0.59375,-0.03125 -0.765625,-0.421875 0.15625,0 0.296875,0 0.421875,-0.125 C 1.328125,1.203125 1.421875,1.0625 1.421875,0.875 1.421875,0.5625 1.15625,0.53125 1.0625,0.53125 0.828125,0.53125 0.5,0.6875 0.5,1.171875 c 0,0.5 0.4375,0.875 1.0625,0.875 1.015625,0 2.046875,-0.90625 2.328125,-2.03125 z m 0,0"
               id="id-6a975559-6e99-4000-bb54-33b14692a2b6" />
          </g>
          <g
             id="id-5fa41cc7-dab3-4826-9157-3a1eb3b5b747" />
          <g
             id="id-b9c3b086-550e-4f2e-9a38-2730298d7490">
            <path
               d="m 6.84375,-3.265625 c 0.15625,0 0.34375,0 0.34375,-0.1875 C 7.1875,-3.65625 7,-3.65625 6.859375,-3.65625 h -5.96875 c -0.140625,0 -0.328125,0 -0.328125,0.203125 0,0.1875 0.1875,0.1875 0.328125,0.1875 z m 0.015625,1.9375 c 0.140625,0 0.328125,0 0.328125,-0.203125 0,-0.1875 -0.1875,-0.1875 -0.34375,-0.1875 H 0.890625 c -0.140625,0 -0.328125,0 -0.328125,0.1875 0,0.203125 0.1875,0.203125 0.328125,0.203125 z m 0,0"
               id="id-9ce99dcf-a4ed-48fe-8533-da68546dacd1" />
          </g>
          <g
             id="id-9eaa1026-8740-4f67-a92b-809eaa87f0f3">
            <path
               d="m 3.296875,2.390625 c 0,-0.03125 0,-0.046875 -0.171875,-0.21875 C 1.890625,0.921875 1.5625,-0.96875 1.5625,-2.5 c 0,-1.734375 0.375,-3.46875 1.609375,-4.703125 0.125,-0.125 0.125,-0.140625 0.125,-0.171875 0,-0.078125 -0.03125,-0.109375 -0.09375,-0.109375 -0.109375,0 -1,0.6875 -1.59375,1.953125 -0.5,1.09375 -0.625,2.203125 -0.625,3.03125 0,0.78125 0.109375,1.984375 0.65625,3.125 C 2.25,1.84375 3.09375,2.5 3.203125,2.5 c 0.0625,0 0.09375,-0.03125 0.09375,-0.109375 z m 0,0"
               id="id-ee6254c7-1f8b-4796-ad8b-397f41b24474" />
          </g>
          <g
             id="id-6ae4c3f6-59f3-41ac-8f3d-36df189405fe">
            <path
               d="m 4.078125,-2.296875 h 2.78125 C 7,-2.296875 7.1875,-2.296875 7.1875,-2.5 7.1875,-2.6875 7,-2.6875 6.859375,-2.6875 h -2.78125 v -2.796875 c 0,-0.140625 0,-0.328125 -0.203125,-0.328125 -0.203125,0 -0.203125,0.1875 -0.203125,0.328125 V -2.6875 h -2.78125 c -0.140625,0 -0.328125,0 -0.328125,0.1875 0,0.203125 0.1875,0.203125 0.328125,0.203125 h 2.78125 V 0.5 c 0,0.140625 0,0.328125 0.203125,0.328125 0.203125,0 0.203125,-0.1875 0.203125,-0.328125 z m 0,0"
               id="id-b2ee5ad3-9c09-48fe-9940-af4b8f5dbe04" />
          </g>
          <g
             id="id-772d3bdb-a1a0-4078-ad5b-c96b083c08a9">
            <path
               d="m 2.875,-2.5 c 0,-0.765625 -0.109375,-1.96875 -0.65625,-3.109375 -0.59375,-1.21875 -1.453125,-1.875 -1.546875,-1.875 -0.0625,0 -0.109375,0.046875 -0.109375,0.109375 0,0.03125 0,0.046875 0.1875,0.234375 0.984375,0.984375 1.546875,2.5625 1.546875,4.640625 0,1.71875 -0.359375,3.46875 -1.59375,4.71875 C 0.5625,2.34375 0.5625,2.359375 0.5625,2.390625 0.5625,2.453125 0.609375,2.5 0.671875,2.5 0.765625,2.5 1.671875,1.8125 2.25,0.546875 2.765625,-0.546875 2.875,-1.65625 2.875,-2.5 Z m 0,0"
               id="id-cae47f84-18cb-416c-ae85-f09d9b3e36f3" />
          </g>
          <g
             id="id-812e4740-7880-4b1c-b695-e8464c39dcd1" />
          <g
             id="id-fd6b2c28-9c19-422f-b151-9a367d2faf83">
            <path
               d="M 3.515625,-1.265625 H 3.28125 c -0.015625,0.15625 -0.09375,0.5625 -0.1875,0.625 C 3.046875,-0.59375 2.515625,-0.59375 2.40625,-0.59375 H 1.125 c 0.734375,-0.640625 0.984375,-0.84375 1.390625,-1.171875 0.515625,-0.40625 1,-0.84375 1,-1.5 0,-0.84375 -0.734375,-1.359375 -1.625,-1.359375 -0.859375,0 -1.453125,0.609375 -1.453125,1.25 0,0.34375 0.296875,0.390625 0.375,0.390625 0.15625,0 0.359375,-0.125 0.359375,-0.375 0,-0.125 -0.046875,-0.375 -0.40625,-0.375 C 0.984375,-4.21875 1.453125,-4.375 1.78125,-4.375 c 0.703125,0 1.0625,0.546875 1.0625,1.109375 0,0.609375 -0.4375,1.078125 -0.65625,1.328125 L 0.515625,-0.265625 C 0.4375,-0.203125 0.4375,-0.1875 0.4375,0 h 2.875 z m 0,0"
               id="id-dd7f2a5c-9098-4c8d-a074-c2596131fddc" />
          </g>
        </g>
      </defs>
      <g
         fill="#000000"
         fill-opacity="1"
         id="id-40d5dae7-000d-4601-abf6-95d394385e62"
         transform="translate(-149.134,-126.524)">
        <g
           transform="translate(148.712,134.765)"
           id="g38042">
          <path
             d="m 1.328125,-0.828125 c 0.53125,-0.578125 0.828125,-0.828125 1.1875,-1.140625 0,0 0.609375,-0.53125 0.96875,-0.890625 C 4.4375,-3.78125 4.65625,-4.265625 4.65625,-4.3125 c 0,-0.09375 -0.09375,-0.09375 -0.109375,-0.09375 -0.078125,0 -0.09375,0.015625 -0.15625,0.109375 -0.296875,0.484375 -0.5,0.640625 -0.734375,0.640625 -0.25,0 -0.359375,-0.15625 -0.515625,-0.328125 -0.1875,-0.21875 -0.359375,-0.421875 -0.6875,-0.421875 -0.75,0 -1.203125,0.921875 -1.203125,1.140625 0,0.046875 0.03125,0.109375 0.109375,0.109375 0.09375,0 0.109375,-0.046875 0.140625,-0.109375 0.1875,-0.46875 0.765625,-0.46875 0.84375,-0.46875 0.203125,0 0.390625,0.0625 0.625,0.140625 0.40625,0.15625 0.515625,0.15625 0.765625,0.15625 -0.359375,0.421875 -1.1875,1.140625 -1.375,1.296875 l -0.90625,0.84375 C 0.78125,-0.625 0.421875,-0.0625 0.421875,0.015625 c 0,0.09375 0.109375,0.09375 0.125,0.09375 0.078125,0 0.09375,-0.015625 0.15625,-0.125 0.234375,-0.359375 0.53125,-0.625 0.859375,-0.625 0.21875,0 0.328125,0.09375 0.578125,0.375 0.15625,0.21875 0.34375,0.375 0.625,0.375 1,0 1.578125,-1.265625 1.578125,-1.53125 0,-0.046875 -0.046875,-0.109375 -0.125,-0.109375 -0.09375,0 -0.109375,0.0625 -0.140625,0.140625 C 3.84375,-0.75 3.203125,-0.5625 2.875,-0.5625 c -0.1875,0 -0.375,-0.0625 -0.578125,-0.125 -0.34375,-0.125 -0.5,-0.171875 -0.703125,-0.171875 -0.015625,0 -0.171875,0 -0.265625,0.03125 z m 0,0"
             id="id-31b8e4a9-b3eb-46ca-be6e-a52918c38655" />
        </g>
      </g>
      <g
         fill="#000000"
         fill-opacity="1"
         id="id-45e098a2-d48a-4e67-8388-5d95799ddb92"
         transform="translate(-149.134,-126.524)">
        <g
           transform="translate(156.551,134.765)"
           id="g38046">
          <path
             d="m 6.84375,-3.265625 c 0.15625,0 0.34375,0 0.34375,-0.1875 C 7.1875,-3.65625 7,-3.65625 6.859375,-3.65625 h -5.96875 c -0.140625,0 -0.328125,0 -0.328125,0.203125 0,0.1875 0.1875,0.1875 0.328125,0.1875 z m 0.015625,1.9375 c 0.140625,0 0.328125,0 0.328125,-0.203125 0,-0.1875 -0.1875,-0.1875 -0.34375,-0.1875 H 0.890625 c -0.140625,0 -0.328125,0 -0.328125,0.1875 0,0.203125 0.1875,0.203125 0.328125,0.203125 z m 0,0"
             id="id-0abb9337-8dce-4aff-8528-f651225062d2" />
        </g>
      </g>
      <g
         fill="#000000"
         fill-opacity="1"
         id="id-96919fec-1a3e-4f38-9525-0dc69370fb9b"
         transform="translate(-149.134,-126.524)">
        <g
           transform="translate(167.067,134.765)"
           id="g38050">
          <path
             d="m 4.75,-2.359375 c 0,-1.5625 -0.921875,-2.046875 -1.65625,-2.046875 -1.375,0 -2.6875,1.421875 -2.6875,2.828125 0,0.9375 0.59375,1.6875 1.625,1.6875 0.625,0 1.34375,-0.234375 2.09375,-0.84375 0.125,0.53125 0.453125,0.84375 0.90625,0.84375 0.53125,0 0.84375,-0.546875 0.84375,-0.703125 0,-0.078125 -0.0625,-0.109375 -0.125,-0.109375 -0.0625,0 -0.09375,0.03125 -0.125,0.109375 -0.1875,0.484375 -0.546875,0.484375 -0.5625,0.484375 -0.3125,0 -0.3125,-0.78125 -0.3125,-1.015625 0,-0.203125 0,-0.234375 0.109375,-0.34375 C 5.796875,-2.65625 6,-3.8125 6,-3.8125 6,-3.84375 5.984375,-3.921875 5.875,-3.921875 c -0.09375,0 -0.09375,0.03125 -0.140625,0.21875 -0.1875,0.625 -0.515625,1.375 -0.984375,1.96875 z m -0.65625,1.375 c -0.890625,0.765625 -1.65625,0.875 -2.046875,0.875 -0.59375,0 -0.90625,-0.453125 -0.90625,-1.09375 0,-0.484375 0.265625,-1.5625 0.578125,-2.0625 C 2.1875,-4 2.734375,-4.1875 3.078125,-4.1875 c 0.984375,0 0.984375,1.3125 0.984375,2.078125 0,0.375 0,0.953125 0.03125,1.125 z m 0,0"
             id="id-f03bfd6d-e0a7-4942-a823-872c14f387ab" />
        </g>
      </g>
      <g
         fill="#000000"
         fill-opacity="1"
         id="id-767e6ebb-6ba6-45af-9e7c-ea7fa0211755"
         transform="translate(-149.134,-126.524)">
        <g
           transform="translate(173.477,134.765)"
           id="g38054">
          <path
             d="m 3.296875,2.390625 c 0,-0.03125 0,-0.046875 -0.171875,-0.21875 C 1.890625,0.921875 1.5625,-0.96875 1.5625,-2.5 c 0,-1.734375 0.375,-3.46875 1.609375,-4.703125 0.125,-0.125 0.125,-0.140625 0.125,-0.171875 0,-0.078125 -0.03125,-0.109375 -0.09375,-0.109375 -0.109375,0 -1,0.6875 -1.59375,1.953125 -0.5,1.09375 -0.625,2.203125 -0.625,3.03125 0,0.78125 0.109375,1.984375 0.65625,3.125 C 2.25,1.84375 3.09375,2.5 3.203125,2.5 c 0.0625,0 0.09375,-0.03125 0.09375,-0.109375 z m 0,0"
             id="id-f06163ed-4e18-4860-9020-b11273cd7674" />
        </g>
      </g>
      <g
         fill="#000000"
         fill-opacity="1"
         id="id-43e05a8d-e75a-462f-995a-e98ab400acd6"
         transform="translate(-149.134,-126.524)">
        <g
           transform="translate(177.351,134.765)"
           id="g38058">
          <path
             d="M 3.328125,-3.015625 C 3.390625,-3.265625 3.625,-4.1875 4.3125,-4.1875 c 0.046875,0 0.296875,0 0.5,0.125 C 4.53125,-4 4.34375,-3.765625 4.34375,-3.515625 c 0,0.15625 0.109375,0.34375 0.375,0.34375 0.21875,0 0.53125,-0.171875 0.53125,-0.578125 0,-0.515625 -0.578125,-0.65625 -0.921875,-0.65625 -0.578125,0 -0.921875,0.53125 -1.046875,0.75 -0.25,-0.65625 -0.78125,-0.75 -1.078125,-0.75 -1.03125,0 -1.609375,1.28125 -1.609375,1.53125 0,0.109375 0.109375,0.109375 0.125,0.109375 0.078125,0 0.109375,-0.03125 0.125,-0.109375 0.34375,-1.0625 1,-1.3125 1.34375,-1.3125 0.1875,0 0.53125,0.09375 0.53125,0.671875 0,0.3125 -0.171875,0.96875 -0.53125,2.375 -0.15625,0.609375 -0.515625,1.03125 -0.953125,1.03125 -0.0625,0 -0.28125,0 -0.5,-0.125 0.25,-0.0625 0.46875,-0.265625 0.46875,-0.546875 0,-0.265625 -0.21875,-0.34375 -0.359375,-0.34375 -0.3125,0 -0.546875,0.25 -0.546875,0.578125 0,0.453125 0.484375,0.65625 0.921875,0.65625 0.671875,0 1.03125,-0.703125 1.046875,-0.75 0.125,0.359375 0.484375,0.75 1.078125,0.75 1.03125,0 1.59375,-1.28125 1.59375,-1.53125 0,-0.109375 -0.078125,-0.109375 -0.109375,-0.109375 -0.09375,0 -0.109375,0.046875 -0.140625,0.109375 -0.328125,1.078125 -1,1.3125 -1.3125,1.3125 -0.390625,0 -0.546875,-0.3125 -0.546875,-0.65625 0,-0.21875 0.046875,-0.4375 0.15625,-0.875 z m 0,0"
             id="id-e3dd604d-e8dd-4f5c-ba71-3c3b67f4ac4d" />
        </g>
      </g>
      <g
         fill="#000000"
         fill-opacity="1"
         id="id-4b5589a9-c37b-4255-9c7e-c97909080c79"
         transform="translate(-149.134,-126.524)">
        <g
           transform="translate(183.045,131.149)"
           id="g38062">
          <path
             d="M 3.515625,-1.265625 H 3.28125 c -0.015625,0.15625 -0.09375,0.5625 -0.1875,0.625 C 3.046875,-0.59375 2.515625,-0.59375 2.40625,-0.59375 H 1.125 c 0.734375,-0.640625 0.984375,-0.84375 1.390625,-1.171875 0.515625,-0.40625 1,-0.84375 1,-1.5 0,-0.84375 -0.734375,-1.359375 -1.625,-1.359375 -0.859375,0 -1.453125,0.609375 -1.453125,1.25 0,0.34375 0.296875,0.390625 0.375,0.390625 0.15625,0 0.359375,-0.125 0.359375,-0.375 0,-0.125 -0.046875,-0.375 -0.40625,-0.375 C 0.984375,-4.21875 1.453125,-4.375 1.78125,-4.375 c 0.703125,0 1.0625,0.546875 1.0625,1.109375 0,0.609375 -0.4375,1.078125 -0.65625,1.328125 L 0.515625,-0.265625 C 0.4375,-0.203125 0.4375,-0.1875 0.4375,0 h 2.875 z m 0,0"
             id="id-4343c0d0-0b42-4336-9c53-a947f882d41b" />
        </g>
      </g>
      <g
         fill="#000000"
         fill-opacity="1"
         id="id-52899d64-eaeb-48e7-a931-97a49a18481f"
         transform="translate(-149.134,-126.524)">
        <g
           transform="translate(189.729,134.765)"
           id="g38066">
          <path
             d="m 4.078125,-2.296875 h 2.78125 C 7,-2.296875 7.1875,-2.296875 7.1875,-2.5 7.1875,-2.6875 7,-2.6875 6.859375,-2.6875 h -2.78125 v -2.796875 c 0,-0.140625 0,-0.328125 -0.203125,-0.328125 -0.203125,0 -0.203125,0.1875 -0.203125,0.328125 V -2.6875 h -2.78125 c -0.140625,0 -0.328125,0 -0.328125,0.1875 0,0.203125 0.1875,0.203125 0.328125,0.203125 h 2.78125 V 0.5 c 0,0.140625 0,0.328125 0.203125,0.328125 0.203125,0 0.203125,-0.1875 0.203125,-0.328125 z m 0,0"
             id="id-4918a727-3a8a-48fa-84e6-b151a8b2ae31" />
        </g>
      </g>
      <g
         fill="#000000"
         fill-opacity="1"
         id="id-7660ceb1-fdea-4d94-9f34-dc16a84273da"
         transform="translate(-149.134,-126.524)">
        <g
           transform="translate(199.691,134.765)"
           id="g38070">
          <path
             d="m 4.84375,-3.796875 c 0.046875,-0.140625 0.046875,-0.15625 0.046875,-0.234375 0,-0.171875 -0.140625,-0.265625 -0.296875,-0.265625 -0.09375,0 -0.25,0.0625 -0.34375,0.203125 -0.015625,0.0625 -0.109375,0.359375 -0.140625,0.546875 -0.078125,0.25 -0.140625,0.53125 -0.203125,0.796875 l -0.453125,1.796875 c -0.03125,0.140625 -0.46875,0.84375 -1.125,0.84375 -0.5,0 -0.609375,-0.4375 -0.609375,-0.8125 C 1.71875,-1.375 1.890625,-2 2.21875,-2.875 2.375,-3.28125 2.421875,-3.390625 2.421875,-3.59375 c 0,-0.4375 -0.3125,-0.8125 -0.8125,-0.8125 -0.953125,0 -1.3125,1.453125 -1.3125,1.53125 0,0.109375 0.09375,0.109375 0.109375,0.109375 0.109375,0 0.109375,-0.03125 0.15625,-0.1875 0.28125,-0.9375 0.671875,-1.234375 1.015625,-1.234375 0.078125,0 0.25,0 0.25,0.3125 0,0.25 -0.109375,0.515625 -0.171875,0.703125 -0.40625,1.0625 -0.578125,1.625 -0.578125,2.09375 0,0.890625 0.625,1.1875 1.21875,1.1875 0.390625,0 0.71875,-0.171875 1,-0.453125 -0.125,0.515625 -0.25,1.015625 -0.640625,1.546875 -0.265625,0.328125 -0.640625,0.625 -1.09375,0.625 -0.140625,0 -0.59375,-0.03125 -0.765625,-0.421875 0.15625,0 0.296875,0 0.421875,-0.125 C 1.328125,1.203125 1.421875,1.0625 1.421875,0.875 1.421875,0.5625 1.15625,0.53125 1.0625,0.53125 0.828125,0.53125 0.5,0.6875 0.5,1.171875 c 0,0.5 0.4375,0.875 1.0625,0.875 1.015625,0 2.046875,-0.90625 2.328125,-2.03125 z m 0,0"
             id="id-e43871ff-6cee-4c3a-8c4b-6e53795edb24" />
        </g>
      </g>
      <g
         fill="#000000"
         fill-opacity="1"
         id="id-1b4db1a0-7aca-4712-be45-3ab5253e05a6"
         transform="translate(-149.134,-126.524)">
        <g
           transform="translate(204.933,131.149)"
           id="g38074">
          <path
             d="M 3.515625,-1.265625 H 3.28125 c -0.015625,0.15625 -0.09375,0.5625 -0.1875,0.625 C 3.046875,-0.59375 2.515625,-0.59375 2.40625,-0.59375 H 1.125 c 0.734375,-0.640625 0.984375,-0.84375 1.390625,-1.171875 0.515625,-0.40625 1,-0.84375 1,-1.5 0,-0.84375 -0.734375,-1.359375 -1.625,-1.359375 -0.859375,0 -1.453125,0.609375 -1.453125,1.25 0,0.34375 0.296875,0.390625 0.375,0.390625 0.15625,0 0.359375,-0.125 0.359375,-0.375 0,-0.125 -0.046875,-0.375 -0.40625,-0.375 C 0.984375,-4.21875 1.453125,-4.375 1.78125,-4.375 c 0.703125,0 1.0625,0.546875 1.0625,1.109375 0,0.609375 -0.4375,1.078125 -0.65625,1.328125 L 0.515625,-0.265625 C 0.4375,-0.203125 0.4375,-0.1875 0.4375,0 h 2.875 z m 0,0"
             id="id-b20d6794-de67-447d-b8a1-c392dfedbf57" />
        </g>
      </g>
      <g
         fill="#000000"
         fill-opacity="1"
         id="id-df6275c8-5981-4110-8bb8-3f8e42afde56"
         transform="translate(-149.134,-126.524)">
        <g
           transform="translate(209.402,134.765)"
           id="g38078">
          <path
             d="m 2.875,-2.5 c 0,-0.765625 -0.109375,-1.96875 -0.65625,-3.109375 -0.59375,-1.21875 -1.453125,-1.875 -1.546875,-1.875 -0.0625,0 -0.109375,0.046875 -0.109375,0.109375 0,0.03125 0,0.046875 0.1875,0.234375 0.984375,0.984375 1.546875,2.5625 1.546875,4.640625 0,1.71875 -0.359375,3.46875 -1.59375,4.71875 C 0.5625,2.34375 0.5625,2.359375 0.5625,2.390625 0.5625,2.453125 0.609375,2.5 0.671875,2.5 0.765625,2.5 1.671875,1.8125 2.25,0.546875 2.765625,-0.546875 2.875,-1.65625 2.875,-2.5 Z m 0,0"
             id="id-91173871-8548-47d5-bfdf-ac006ec4de78" />
        </g>
      </g>
    </g>
  </g>
</svg>
