<?xml version="1.0" encoding="UTF-8" standalone="no"?>
<!-- Created with Inkscape (http://www.inkscape.org/) -->

<svg
   width="210mm"
   height="297mm"
   viewBox="0 0 210 297"
   version="1.1"
   id="svg776"
   sodipodi:docname="PotenzialeMercurio.svg"
   inkscape:version="1.2.2 (b0a84865, 2022-12-01)"
   xmlns:inkscape="http://www.inkscape.org/namespaces/inkscape"
   xmlns:sodipodi="http://sodipodi.sourceforge.net/DTD/sodipodi-0.dtd"
   xmlns="http://www.w3.org/2000/svg"
   xmlns:svg="http://www.w3.org/2000/svg">
  <sodipodi:namedview
     id="namedview778"
     pagecolor="#ffffff"
     bordercolor="#000000"
     borderopacity="0.25"
     inkscape:showpageshadow="2"
     inkscape:pageopacity="0.0"
     inkscape:pagecheckerboard="0"
     inkscape:deskcolor="#d1d1d1"
     inkscape:document-units="mm"
     showgrid="false"
     inkscape:zoom="0.88046672"
     inkscape:cx="245.32443"
     inkscape:cy="410.5777"
     inkscape:window-width="1421"
     inkscape:window-height="777"
     inkscape:window-x="5"
     inkscape:window-y="25"
     inkscape:window-maximized="0"
     inkscape:current-layer="layer1" />
  <defs
     id="defs773">
    <linearGradient
       id="linearGradient24607"
       inkscape:swatch="solid">
      <stop
         style="stop-color:#000000;stop-opacity:1;"
         offset="0"
         id="stop24605" />
    </linearGradient>
    <marker
       style="overflow:visible"
       id="marker52653-9-1"
       refX="0"
       refY="0"
       orient="90"
       inkscape:stockid="Arrow1L"
       markerWidth="15.299999"
       markerHeight="8.742857"
       viewBox="0 0 8.75 5"
       inkscape:isstock="true"
       inkscape:collect="always"
       preserveAspectRatio="xMidYMid">
      <path
         style="fill:context-stroke;fill-rule:evenodd;stroke:none;stroke-width:0.5"
         d="M 3.75,0 6.25,2.5 -2.5,0 6.25,-2.5 Z"
         id="path52651-6-4" />
    </marker>
    <marker
       style="overflow:visible"
       id="Arrow1L"
       refX="0"
       refY="0"
       orient="auto-start-reverse"
       inkscape:stockid="Arrow1L"
       markerWidth="42"
       markerHeight="7"
       viewBox="0 0 8.75 5"
       inkscape:isstock="true"
       inkscape:collect="always"
       preserveAspectRatio="xMidYMid"
       markerUnits="strokeWidth">
      <path
         style="fill:context-stroke;fill-rule:evenodd;stroke:none"
         d="M 0,0 5,-5 -12.5,0 5,5 Z"
         id="arrow1L"
         transform="scale(-0.5)" />
    </marker>
  </defs>
  <g
     inkscape:label="Livello 1"
     inkscape:groupmode="layer"
     id="layer1">
    <rect
       style="mix-blend-mode:normal;fill:none;fill-opacity:1;stroke:#000000;stroke-width:0.298315;stroke-dasharray:none;stroke-opacity:0.974359;marker-start:url(#Arrow1L)"
       id="rect49349"
       width="162.13846"
       height="0.060165886"
       x="-176.94879"
       y="-66.197701"
       transform="scale(-1)"
       inkscape:label="assi" />
    <rect
       style="fill:none;fill-opacity:1;stroke:#000000;stroke-width:0.301758;stroke-dasharray:none;stroke-opacity:1;marker-start:url(#marker52653-9-1)"
       id="rect52649-0-7"
       width="0.0609526"
       height="128.11841"
       x="-33.102982"
       y="23.557554"
       transform="scale(-1,1)" />
    <path
       id="path21754"
       style="fill:none;stroke:#ffcc00;stroke-width:1.00937;stroke-opacity:1"
       d="m 43.623649,32.064579 c 0.02299,1.061927 0.04599,1.973927 0.06898,1.968376 0.05495,-0.01326 0.109933,4.857697 0.164906,4.844715 0.05495,-0.01298 0.109946,4.526543 0.164907,4.513819 0.05495,-0.0127 0.109945,4.221237 0.164906,4.208804 0.05495,-0.01242 0.109944,3.939351 0.164906,3.927207 0.05495,-0.01214 0.109945,3.678855 0.164908,3.667002 0.05495,-0.01186 0.109943,3.437796 0.164906,3.42623 0.05495,-0.01155 0.10993,3.214512 0.164906,3.203233 0.05495,-0.01126 0.10993,3.007423 0.164908,2.996435 0.05495,-0.01096 0.109942,2.815164 0.164904,2.80449 0.05495,-0.01067 0.109944,2.636494 0.164908,2.626111 0.05495,-0.01039 0.10993,2.470312 0.164905,2.460244 0.05495,-0.01006 0.109943,2.315584 0.164905,2.305835 0.05495,-0.0097 0.109931,2.171382 0.164907,2.161918 0.05495,-0.0095 0.109943,2.036874 0.164905,2.027757 0.05495,-0.009 0.109946,1.911279 0.164907,1.902481 0.05495,-0.0088 0.109932,1.794105 0.164907,1.785452 0.05495,-0.0083 0.109943,1.684316 0.164905,1.67624 0.05495,-0.0083 0.109941,1.581625 0.164908,1.573838 0.05495,-0.0081 0.10993,1.48528 0.164905,1.47778 0.05495,-0.0075 0.10993,1.395569 0.164906,1.388357 0.05495,-0.0072 0.109941,1.310763 0.164908,1.304128 0.05495,-0.007 0.109942,1.231432 0.164904,1.225088 0.05495,-0.0066 0.109944,1.157012 0.164906,1.150956 0.05495,-0.0061 0.109942,1.087205 0.164906,1.081436 0.05495,-0.0058 0.109944,1.021437 0.164906,1.015953 0.05495,-0.0055 0.109934,0.959419 0.164908,0.954225 0.05495,-0.005 0.109943,0.901435 0.164906,0.896534 0.05495,-0.0046 0.109944,0.846632 0.164905,0.842017 0.05495,-0.0044 0.109944,0.794706 0.164831,0.790667 0.05495,-0.004 0.109944,0.745958 0.164905,0.742206 0.05495,-0.0038 0.109943,0.700101 0.164906,0.696628 0.05495,-0.003 0.109945,0.656539 0.164906,0.653349 0.05495,-0.003 0.109931,0.61588 0.164905,0.61301 0.05495,-0.003 0.109946,0.57689 0.164909,0.57459 0.05495,-0.003 0.109944,0.54029 0.164908,0.53828 0.05495,-0.002 0.10994,0.50568 0.164906,0.50394 0.05495,-0.002 0.109941,0.47306 0.164904,0.47163 0.05495,-0.002 0.109943,0.44192 0.164904,0.44104 0.05495,-8.7e-4 0.109945,0.41278 0.164907,0.41193 0.05495,-5.8e-4 0.109933,0.38509 0.164906,0.38481 0.05495,-2.9e-4 0.109946,0.35857 0.164908,0.35857 0.05495,0 0.109943,0.33373 0.164905,0.33403 0.05495,5.8e-4 0.109945,0.31008 0.164908,0.31095 0.05495,5.8e-4 0.109943,0.28761 0.164904,0.28847 0.05495,8.8e-4 0.109945,0.26651 0.164907,0.26797 0.05495,0.002 0.109944,0.24605 0.164907,0.24778 0.05495,0.002 0.109944,0.227 0.164906,0.22932 0.05495,0.002 0.109944,0.20885 0.164905,0.21116 0.05495,0.003 0.109943,0.19155 0.164908,0.19441 0.05495,0.003 0.109943,0.17511 0.164905,0.17828 0.05495,0.003 0.109944,0.15953 0.164906,0.16297 0.05495,0.003 0.109931,0.14484 0.164905,0.14856 0.05495,0.004 0.109946,0.13067 0.164907,0.13471 0.05495,0.004 0.109946,0.11713 0.164907,0.12177 0.05495,0.004 0.109944,0.10437 0.164906,0.10928 0.05495,0.005 0.109931,0.0923 0.164906,0.0976 0.05495,0.005 0.109945,0.0807 0.164907,0.0863 0.05495,0.005 0.109944,0.0698 0.164906,0.0756 0.05495,0.006 0.109942,0.0592 0.164906,0.0656 0.05495,0.006 0.109944,0.0493 0.164907,0.0559 0.05495,0.007 0.109857,0.0396 0.164831,0.0466 0.05495,0.007 0.109942,0.0306 0.164905,0.0377 0.05495,0.007 0.109943,0.0222 0.164906,0.0299 0.05495,0.008 0.109932,0.0141 0.164905,0.0221 0.05495,0.008 0.109946,0.006 0.164908,0.0144 0.05495,0.008 0.10993,-0.002 0.164906,0.007 0.05495,0.008 0.109942,-0.009 0.164905,3e-4 0.05495,0.009 0.109942,-0.0149 0.164908,-0.006 0.05495,0.009 0.109942,-0.0218 0.164906,-0.0122 0.05495,0.009 0.109942,-0.0279 0.164903,-0.0178 0.05495,0.0104 0.109944,-0.0334 0.164909,-0.0233 0.05495,0.0104 0.10993,-0.0391 0.164905,-0.0291 0.05495,0.0104 0.109941,-0.0444 0.164909,-0.0336 0.05495,0.0106 0.109941,-0.0497 0.164906,-0.0386 0.05495,0.0113 0.109942,-0.0541 0.164905,-0.043 0.05495,0.0113 0.109942,-0.0588 0.164905,-0.0472 0.05495,0.0115 0.109932,-0.0634 0.164905,-0.0516 0.05495,0.0122 0.109943,-0.0675 0.164909,-0.0551 0.05495,0.0121 0.109941,-0.0717 0.164905,-0.0591 0.05495,0.0124 0.109942,-0.0752 0.164906,-0.0625 0.05495,0.0126 0.109942,-0.0791 0.164907,-0.0659 0.05495,0.0129 0.109943,-0.0825 0.164903,-0.0692 0.05495,0.0133 0.109944,-0.0857 0.16491,-0.0722 0.05495,0.0135 0.109931,-0.0888 0.164905,-0.0747 0.05495,0.0138 0.109944,-0.092 0.164906,-0.0779 0.05495,0.014 0.109944,-0.0942 0.164906,-0.0802 0.05495,0.0143 0.109941,-0.0972 0.164907,-0.0824 0.05495,0.0147 0.109943,-0.0996 0.164906,-0.0852 0.05495,0.015 0.109931,-0.10213 0.164903,-0.0871 0.05495,0.0153 0.109945,-0.1044 0.164908,-0.0891 0.05495,0.0153 0.109943,-0.10672 0.164906,-0.0912 0.05495,0.0155 0.109943,-0.10875 0.164907,-0.0928 0.05488,0.0159 0.109858,-0.11076 0.164831,-0.0948 0.05495,0.0162 0.109944,-0.11249 0.164905,-0.0963 0.05495,0.0165 0.109945,-0.11453 0.164907,-0.0981 0.05495,0.0167 0.109944,-0.11596 0.164907,-0.0993 0.05495,0.0168 0.109929,-0.11799 0.164908,-0.10105 0.05495,0.017 0.109929,-0.11916 0.164905,-0.10213 0.05495,0.017 0.109943,-0.12057 0.164904,-0.10321 0.05495,0.0174 0.109944,-0.12202 0.164908,-0.10473 0.05495,0.0176 0.109943,-0.12314 0.164903,-0.10558 0.05495,0.0178 0.109943,-0.1243 0.164909,-0.10642 0.05495,0.0178 0.10993,-0.12574 0.164903,-0.10758 0.05495,0.018 0.109946,-0.12666 0.164908,-0.10846 0.05495,0.0181 0.109943,-0.1278 0.164908,-0.10935 0.05495,0.0184 0.109931,-0.12864 0.164905,-0.11017 0.05495,0.0186 0.109944,-0.12953 0.164907,-0.1108 0.05495,0.0186 0.109944,-0.13036 0.164906,-0.11131 0.05495,0.019 0.109931,-0.13126 0.164906,-0.11194 0.05495,0.019 0.109943,-0.13182 0.164907,-0.11277 0.05495,0.0194 0.109943,-0.1324 0.164905,-0.11308 0.05495,0.0194 0.109943,-0.13327 0.164906,-0.11367 0.05495,0.0196 0.109942,-0.13358 0.164906,-0.11395 0.05495,0.0196 0.109944,-0.13442 0.164905,-0.11451 0.05495,0.0196 0.109944,-0.13472 0.164907,-0.11482 0.05495,0.0199 0.109931,-0.13529 0.164907,-0.11508 0.05495,0.0199 0.109944,-0.13558 0.164907,-0.11568 0.05495,0.0203 0.109942,-0.13586 0.164906,-0.11567 0.05495,0.0202 0.109943,-0.13615 0.164905,-0.11565 0.05495,0.0202 0.109944,-0.13645 0.164907,-0.11626 0.05495,0.0205 0.109943,-0.13675 0.164908,-0.11626 0.05495,0.0206 0.109928,-0.13672 0.164904,-0.11624 0.05495,0.0206 0.109932,-0.13732 0.164907,-0.11655 0.05495,0.0206 0.109943,-0.13732 0.164831,-0.11653 0.05495,0.0206 0.109941,-0.13731 0.164905,-0.11681 0.05495,0.0208 0.109942,-0.1373 0.164906,-0.11655 0.05495,0.0209 0.109942,-0.13759 0.164906,-0.11653 0.05495,0.0209 0.109932,-0.13761 0.164907,-0.11682 0.05495,0.0211 0.109943,-0.1376 0.164904,-0.11656 0.05495,0.0208 0.109933,-0.1376 0.164909,-0.11653 0.05495,0.0208 0.109942,-0.13761 0.164905,-0.11654 0.05495,0.021 0.109943,-0.1373 0.164904,-0.11655 0.05495,0.0211 0.109944,-0.13701 0.164908,-0.11622 0.05495,0.0211 0.109944,-0.13703 0.164907,-0.11599 0.05495,0.0208 0.109944,-0.13701 0.164906,-0.11625 0.05495,0.021 0.109942,-0.13673 0.164906,-0.11566 0.05495,0.0208 0.109943,-0.13674 0.164905,-0.11569 0.05495,0.0209 0.109945,-0.13672 0.164907,-0.11567 0.05495,0.0211 0.109941,-0.13614 0.164907,-0.11537 0.05495,0.0211 0.10994,-0.13585 0.164906,-0.11511 0.05495,0.0211 0.109932,-0.13555 0.164904,-0.11478 0.05495,0.0208 0.109932,-0.13558 0.164909,-0.11483 0.05495,0.0211 0.109942,-0.13499 0.164904,-0.11423 0.05495,0.0209 0.109944,-0.135 0.164907,-0.11422 0.05495,0.0208 0.109944,-0.13472 0.164907,-0.11395 0.05495,0.0209 0.109944,-0.13413 0.164904,-0.11365 0.05495,0.0208 0.109945,-0.13383 0.164907,-0.11336 0.05495,0.0209 0.109933,-0.13358 0.164906,-0.1131 0.05495,0.0206 0.10993,-0.13297 0.164908,-0.11248 0.05495,0.0203 0.109941,-0.13298 0.164905,-0.11251 0.05495,0.0202 0.109942,-0.13237 0.164907,-0.11219 0.05495,0.0203 0.109941,-0.132103 0.164908,-0.111912 0.05495,0.02033 0.109928,-0.13156 0.164903,-0.11136 0.05495,0.02003 0.109942,-0.131247 0.164908,-0.111349 0.05495,0.02022 0.10993,-0.130382 0.164904,-0.11076 0.05495,0.0199 0.109945,-0.130107 0.164831,-0.110495 0.05495,0.0199 0.109942,-0.129507 0.164907,-0.110188 0.05495,0.0196 0.109941,-0.129224 0.164905,-0.109607 0.05495,0.01937 0.109942,-0.128657 0.164908,-0.109326 0.05495,0.01927 0.109941,-0.128371 0.164906,-0.109041 0.05495,0.01905 0.10993,-0.127788 0.164906,-0.108748 0.05495,0.01903 0.109932,-0.127209 0.164906,-0.108463 0.05495,0.01903 0.109941,-0.126632 0.164905,-0.107881 0.05495,0.01875 0.109942,-0.12606 0.164907,-0.107596 0.05495,0.01874 0.109931,-0.125481 0.164909,-0.107019 0.05495,0.01817 0.10993,-0.12519 0.164901,-0.107019 0.05495,0.01844 0.109946,-0.124327 0.164909,-0.106153 0.05495,0.01788 0.109943,-0.12404 0.164906,-0.106155 0.05495,0.01789 0.109931,-0.123171 0.164907,-0.10557 0.05495,0.01758 0.109933,-0.122597 0.164904,-0.105286 0.05495,0.01758 0.109945,-0.122019 0.164906,-0.104714 0.05495,0.0173 0.109933,-0.121731 0.164909,-0.104427 0.05495,0.017 0.109929,-0.120866 0.164904,-0.10414 0.05495,0.01702 0.109943,-0.120286 0.164904,-0.103561 0.05495,0.01672 0.109943,-0.11971 0.164909,-0.103271 0.05495,0.01645 0.109931,-0.119134 0.16491,-0.10269 0.05495,0.01614 0.10993,-0.118558 0.1649,-0.102692 0.05495,0.01615 0.109943,-0.117692 0.164909,-0.101831 0.05495,0.01587 0.109931,-0.117112 0.164908,-0.101542 0.05495,0.01558 0.109931,-0.116536 0.164902,-0.101245 0.05495,0.01528 0.109944,-0.115963 0.164907,-0.100667 0.05495,0.01499 0.109942,-0.115382 0.164907,-0.100372 0.05495,0.01472 0.109932,-0.114517 0.164908,-0.100098 0.05495,0.01473 0.109931,-0.113944 0.164902,-0.09952 0.05495,0.01443 0.109945,-0.113077 0.164909,-0.09924 0.05495,0.01415 0.109933,-0.112501 0.164908,-0.09866 0.05495,0.01382 0.10993,-0.111927 0.164902,-0.09837 0.05495,0.01354 0.109857,-0.111055 0.164833,-0.09779 0.05495,0.01325 0.109931,-0.110481 0.164902,-0.0975 0.05495,0.01298 0.109943,-0.109904 0.16491,-0.09721 0.05495,0.01269 0.109943,-0.109036 0.164909,-0.09663 0.05495,0.01241 0.109929,-0.108461 0.164905,-0.09634 0.05495,0.0124 0.109933,-0.107596 0.164903,-0.09577 0.05495,0.01182 0.109944,-0.107016 0.164907,-0.09548 0.05495,0.01153 0.109933,-0.106156 0.164908,-0.09491 0.05495,0.01124 0.109931,-0.105582 0.164902,-0.09462 0.05495,0.01095 0.109944,-0.105 0.164906,-0.09434 0.05495,0.01066 0.109947,-0.104142 0.16491,-0.09375 0.05495,0.01039 0.109931,-0.103272 0.164908,-0.09347 0.05495,0.01016 0.10993,-0.10269 0.164903,-0.09288 0.05495,0.0098 0.109941,-0.102117 0.164906,-0.09258 0.05495,0.0095 0.109943,-0.101246 0.164908,-0.0923 0.05495,0.0092 0.109942,-0.100372 0.164901,-0.09172 0.05495,0.0089 0.109943,-0.0998 0.164909,-0.09145 0.05495,0.0087 0.109942,-0.09894 0.164905,-0.09087 0.05495,0.0081 0.109944,-0.09837 0.164908,-0.09057 0.05495,0.0077 0.109932,-0.09779 0.164902,-0.0903 0.05495,0.0075 0.109945,-0.09693 0.164908,-0.08971 0.05495,0.0072 0.109945,-0.09604 0.164907,-0.08943 0.05495,0.007 0.109932,-0.0955 0.164907,-0.08885 0.05495,0.0064 0.109946,-0.09491 0.164905,-0.08854 0.05495,0.0061 0.109944,-0.09405 0.164906,-0.08827 0.05495,0.0058 0.109943,-0.09345 0.164907,-0.08799 0.05495,0.0055 0.109943,-0.0926 0.164905,-0.08742 0.05495,0.0052 0.109941,-0.09172 0.164911,-0.08712 0.05494,0.005 0.109929,-0.09088 0.1649,-0.08656 0.05495,0.0046 0.109944,-0.0903 0.16491,-0.08626 0.05495,0.004 0.109943,-0.08971 0.164904,-0.08598 0.05495,0.0039 0.109945,-0.08886 0.16491,-0.0854 0.0549,0.0034 0.109859,-0.08827 0.164826,-0.08511 0.05494,0.0029 0.109942,-0.0877 0.164908,-0.08479 0.05495,0.0025 0.109931,-0.08682 0.164908,-0.08422 0.05495,0.0022 0.10993,-0.08626 0.164908,-0.08423 0.05494,0.002 0.109941,-0.08509 0.164902,-0.08337 0.05495,0.0014 0.10993,-0.08479 0.164909,-0.08339 0.05495,0.0014 0.109942,-0.08395 0.164898,-0.08279 0.05495,8.65e-4 0.109944,-0.08337 0.164908,-0.08248 0.05495,5.77e-4 0.109944,-0.08249 0.164915,-0.08222 0.05494,2.88e-4 0.10993,-0.08163 0.164902,-0.08163 0.05495,-2.84e-4 0.10993,-0.08105 0.164908,-0.08163 0.05495,-2.89e-4 0.109941,-0.08019 0.164898,-0.08105 0.05495,-5.76e-4 0.109945,-0.07932 0.164912,-0.08048 0.05495,-0.0011 0.109942,-0.07904 0.164907,-0.08048 0.05495,-0.0013 0.109943,-0.07789 0.164901,-0.0799 0.05495,-0.0017 0.109944,-0.0773 0.164912,-0.07962 0.05495,-0.002 0.109932,-0.07671 0.164903,-0.07904 0.05495,-0.0025 0.109944,-0.07613 0.164909,-0.07904 0.05495,-0.0029 0.109942,-0.07527 0.164907,-0.07847 0.05495,-0.0033 0.109929,-0.0747 0.164907,-0.07819 0.05495,-0.0034 0.109931,-0.07384 0.1649,-0.07788 0.05495,-0.0038 0.109943,-0.07327 0.164908,-0.0776 0.05495,-0.004 0.109943,-0.07239 0.16491,-0.07701 0.05495,-0.0046 0.109931,-0.07181 0.164901,-0.07671 0.05495,-0.005 0.109943,-0.07124 0.164909,-0.07644 0.05495,-0.0055 0.109941,-0.07066 0.164906,-0.07613 0.05495,-0.0058 0.109932,-0.06981 0.164908,-0.07585 0.05495,-0.0058 0.109943,-0.06923 0.1649,-0.07529 0.05495,-0.0064 0.109945,-0.06864 0.164908,-0.07529 0.05495,-0.0066 0.109945,-0.06779 0.164908,-0.0747 0.05495,-0.007 0.109945,-0.06721 0.164902,-0.07442 0.05495,-0.0072 0.109945,-0.06634 0.16484,-0.07414 0.05494,-0.0075 0.10993,-0.06576 0.164894,-0.07385 0.05495,-0.0077 0.109942,-0.06518 0.164913,-0.07326 0.05498,-0.0083 0.109946,-0.06462 0.164906,-0.07326 0.05498,-0.0083 0.109939,-0.06374 0.164909,-0.07268 0.05498,-0.0089 0.109934,-0.06316 0.164903,-0.0724 0.05498,-0.0092 0.109945,-0.0626 0.164907,-0.07211 0.05498,-0.0098 0.109932,-0.06202 0.164902,-0.0721 0.05498,-0.0098 0.109938,-0.06114 0.164906,-0.07124 0.05498,-0.01039 0.109948,-0.06084 0.164909,-0.07125 0.05498,-0.01066 0.109947,-0.06029 0.164908,-0.07096 0.05498,-0.01067 0.109938,-0.05942 0.164902,-0.07067 0.05498,-0.01095 0.109938,-0.05885 0.164909,-0.0701 0.05498,-0.01153 0.109945,-0.05857 0.164913,-0.0701 0.05499,-0.01153 0.109931,-0.05769 0.164901,-0.06952 0.05498,-0.0121 0.109926,-0.0571 0.164902,-0.06951 0.05498,-0.01211 0.109946,-0.05654 0.164909,-0.06895 0.05498,-0.01268 0.109946,-0.05594 0.164908,-0.06893 0.05498,-0.0127 0.109945,-0.05538 0.164907,-0.06837 0.05498,-0.01297 0.109925,-0.05481 0.164901,-0.06808 0.05498,-0.01327 0.10994,-0.05426 0.164915,-0.06779 0.05499,-0.01384 0.109932,-0.05365 0.164902,-0.06779 0.05498,-0.01385 0.109937,-0.05308 0.164893,-0.06721 0.05498,-0.01414 0.109946,-0.05251 0.164922,-0.06693 0.05498,-0.01443 0.109932,-0.05192 0.164902,-0.06663 0.05498,-0.01473 0.109945,-0.05134 0.164914,-0.06634 0.05498,-0.015 0.109926,-0.05107 0.164901,-0.06608 0.05498,-0.01529 0.109947,-0.05047 0.164901,-0.06576 0.05498,-0.01556 0.109948,-0.04991 0.164909,-0.06576 0.05498,-0.01558 0.109946,-0.04931 0.164916,-0.06518 0.05492,-0.01587 0.109923,-0.04876 0.164894,-0.06489 0.05498,-0.01614 0.109946,-0.04844 0.164907,-0.06459 0.05498,-0.01645 0.109862,-0.04789 0.164829,-0.06461 0.05498,-0.01645 0.109949,-0.04729 0.164917,-0.06405 0.05492,-0.01673 0.109919,-0.04674 0.164894,-0.06374 0.05498,-0.017 0.109939,-0.04644 0.164917,-0.06374 0.05498,-0.01702 0.109937,-0.04587 0.164899,-0.06316 0.05498,-0.0173 0.109947,-0.0456 0.164896,-0.06315 0.05498,-0.01758 0.109947,-0.04499 0.164921,-0.0626 0.05498,-0.0179 0.109933,-0.0447 0.164909,-0.06259 0.05498,-0.01788 0.10993,-0.04413 0.164908,-0.06232 0.05498,-0.0179 0.109923,-0.04356 0.164902,-0.06202 0.05498,-0.01817 0.10993,-0.04298 0.164909,-0.06143 0.05498,-0.01846 0.109929,-0.04298 0.164899,-0.06145 0.05499,-0.01874 0.109944,-0.04242 0.164907,-0.06141 0.05498,-0.01874 0.109939,-0.04183 0.164902,-0.06084 0.05498,-0.01874 0.109945,-0.04154 0.164907,-0.06057 0.05499,-0.01903 0.109932,-0.04126 0.164908,-0.06057 0.05498,-0.01903 0.109947,-0.04067 0.164902,-0.06001 0.05499,-0.01932 0.109932,-0.04038 0.164917,-0.06001 0.05498,-0.01932 0.109931,-0.04011 0.164893,-0.05971 0.05498,-0.01962 0.109945,-0.03952 0.164914,-0.05942 0.05498,-0.01961 0.10994,-0.03922 0.164902,-0.05913 0.05498,-0.01961 0.109945,-0.03894 0.164901,-0.05885 0.05498,-0.0199 0.109945,-0.03866 0.164915,-0.05858 0.05507,-0.0202 0.109945,-0.03838 0.164901,-0.05857 0.05507,-0.02021 0.109938,-0.0378 0.164908,-0.05801 0.05507,-0.02047 0.10994,-0.0378 0.1649,-0.05799 0.05507,-0.02047 0.109955,-0.0372 0.164908,-0.0577 0.05508,-0.02047 0.109949,-0.03691 0.164919,-0.05739 0.05508,-0.02047 0.109923,-0.03665 0.164892,-0.0574 0.05507,-0.02047 0.10995,-0.03607 0.16491,-0.0568 0.05508,-0.02076 0.109932,-0.03608 0.164911,-0.0568 0.05508,-0.02078 0.10993,-0.03576 0.164918,-0.05654 0.05498,-0.02077 0.109853,-0.03548 0.164815,-0.05624 0.05507,-0.02076 0.109948,-0.0352 0.164909,-0.05595 0.05508,-0.02077 0.109931,-0.03489 0.164902,-0.05565 0.05508,-0.02104 0.109947,-0.03489 0.16491,-0.05565 0.05508,-0.02104 0.109939,-0.03434 0.164901,-0.05538 0.05508,-0.02104 0.109939,-0.03406 0.16491,-0.0551 0.05508,-0.02104 0.109948,-0.03406 0.164909,-0.05482 0.05508,-0.02105 0.109933,-0.03376 0.164893,-0.05482 0.05508,-0.02104 0.109941,-0.03345 0.164919,-0.05453 0.05508,-0.02105 0.109931,-0.03317 0.16491,-0.05426 0.05508,-0.02104 0.109931,-0.03289 0.164901,-0.05394 0.05498,-0.02104 0.109941,-0.03289 0.164892,-0.05393 0.05508,-0.02078 0.109958,-0.0326 0.16491,-0.05335 0.05508,-0.02104 0.109942,-0.03261 0.165139,-0.05335 0.05526,-0.02104 0.109475,-0.03231 0.164603,-0.05309 0.05516,-0.02105 0.110247,-0.03231 0.165365,-0.05307 0.05438,-0.02077 0.109468,-0.03202 0.164604,-0.05278 0.05516,-0.02077 0.109484,-0.03173 0.164586,-0.05252 0.05534,-0.02078 0.110254,-0.03144 0.165384,-0.05222 0.05438,-0.02078 0.109474,-0.03144 0.164585,-0.0522 0.05534,-0.02047 0.110256,-0.03116 0.16462,-0.05162 0.05534,-0.02078 0.110229,-0.03114 0.165339,-0.05164 0.05516,-0.02047 0.109502,-0.03115 0.164603,-0.05162 0.05534,-0.02047 0.110266,-0.03087 0.165385,-0.05133 0.05447,-0.0202 0.109475,-0.0306 0.164594,-0.05107 0.05516,-0.0202 0.110238,-0.03058 0.164603,-0.05076 0.05516,-0.02021 0.11023,-0.0306 0.165358,-0.05049 0.05526,-0.0202 0.109493,-0.03057 0.164583,-0.0505 0.0553,-0.0199 0.11027,-0.03059 0.1654,-0.05021 0.0544,-0.01989 0.10948,-0.03056 0.16459,-0.05021 0.0552,-0.01962 0.11022,-0.0303 0.16458,-0.04992 0.0552,-0.01961 0.11027,-0.03 0.16538,-0.04962 0.0553,-0.01932 0.10948,-0.03 0.16462,-0.04931 0.0552,-0.01932 0.11023,-0.0303 0.16534,-0.04933 0.0544,-0.01933 0.1095,-0.02999 0.16461,-0.04903 0.0552,-0.01903 0.11024,-0.02999 0.16459,-0.04903 0.0552,-0.01874 0.11026,-0.02999 0.16537,-0.04843 0.0553,-0.01874 0.10949,-0.03001 0.1646,-0.04874 0.0553,-0.01845 0.11026,-0.02971 0.16537,-0.04817 0.0544,-0.01845 0.10948,-0.03 0.1646,-0.04817 0.0552,-0.01817 0.11025,-0.03 0.1646,-0.04788 0.0554,-0.01817 0.11025,-0.03 0.16537,-0.04789 0.0553,-0.01759 0.10949,-0.0297 0.16461,-0.04729 0.0553,-0.01788 0.11023,-0.02999 0.16535,-0.04759 0.0544,-0.01729 0.1095,-0.03 0.16461,-0.04701 0.0553,-0.01729 0.11022,-0.02999 0.16461,-0.04702 0.0552,-0.0173 0.11024,-0.02999 0.16535,-0.047 0.0552,-0.01672 0.10948,-0.03 0.1646,-0.04644 0.0551,-0.01673 0.11025,-0.03029 0.16537,-0.04672 0.0544,-0.01645 0.10945,-0.03 0.16458,-0.04615 0.0552,-0.01615 0.11025,-0.0303 0.1646,-0.04615 0.0553,-0.01587 0.11028,-0.03029 0.16538,-0.04586 0.0552,-0.01588 0.10949,-0.03029 0.1646,-0.04587 0.0553,-0.01557 0.11025,-0.03029 0.16536,-0.04559 0.0546,-0.01528 0.10949,-0.03029 0.16461,-0.04529 0.0553,-0.01529 0.11023,-0.03059 0.16461,-0.0453 0.0551,-0.01499 0.11023,-0.0306 0.16537,-0.04529 0.0553,-0.01443 0.10946,-0.03061 0.16459,-0.0447 0.0552,-0.01443 0.11023,-0.03087 0.16535,-0.0447 0.0544,-0.01415 0.1095,-0.03086 0.1646,-0.0447 0.0553,-0.01384 0.11025,-0.03087 0.1646,-0.04442 0.0552,-0.01355 0.11025,-0.03086 0.16538,-0.04413 0.0552,-0.01326 0.10947,-0.03115 0.16462,-0.04414 0.0551,-0.01297 0.11021,-0.03115 0.16533,-0.04385 0.0544,-0.01269 0.10949,-0.03144 0.1646,-0.04384 0.0554,-0.0124 0.11024,-0.03143 0.1646,-0.04356 0.0552,-0.01211 0.11025,-0.03143 0.16537,-0.04327 0.0552,-0.01181 0.10949,-0.03173 0.16461,-0.04327 0.0552,-0.01153 0.11023,-0.032 0.16534,-0.04327 0.0545,-0.01124 0.10951,-0.03201 0.16463,-0.04269 0.0553,-0.01096 0.11023,-0.03231 0.16459,-0.04298 0.0551,-0.01066 0.11022,-0.03231 0.16537,-0.04242 0.0552,-0.01039 0.10947,-0.03261 0.16459,-0.04269 0.0553,-0.0098 0.11024,-0.0326 0.16535,-0.04213 0.0544,-0.0098 0.10949,-0.03289 0.16462,-0.04213 0.0553,-0.0095 0.11024,-0.03289 0.16462,-0.04212 0.0553,-0.0089 0.11022,-0.03319 0.16534,-0.04185 0.0554,-0.0087 0.1095,-0.03317 0.16462,-0.04154 0.0552,-0.0087 0.11023,-0.03345 0.16533,-0.04154 0.0545,-0.0083 0.10948,-0.03377 0.16461,-0.04155 0.0553,-0.0077 0.10949,-0.03377 0.16462,-0.04126 0.0552,-0.0075 0.11025,-0.03377 0.16538,-0.04094 0.0545,-0.0072 0.10946,-0.03405 0.16458,-0.04093 0.0553,-0.007 0.11019,-0.03434 0.16458,-0.04068 0.0553,-0.0066 0.11022,-0.03463 0.16536,-0.04067 0.0553,-0.0064 0.1095,-0.0349 0.16464,-0.0407 0.0553,-0.0058 0.11019,-0.03491 0.16533,-0.04011 0.0544,-0.0055 0.1095,-0.0352 0.16464,-0.0404 0.0552,-0.0052 0.1102,-0.0352 0.16457,-0.04011 0.0552,-0.0046 0.11022,-0.03546 0.16537,-0.0398 0.0552,-0.0044 0.10948,-0.03576 0.1646,-0.0398 0.0553,-0.004 0.11021,-0.03576 0.16538,-0.0395 0.0544,-0.0039 0.10949,-0.03607 0.16457,-0.0395 0.0552,-0.0034 0.11022,-0.03635 0.16462,-0.03921 0.0552,-0.0033 0.11021,-0.03665 0.16535,-0.03922 0.0553,-0.0029 0.10949,-0.03664 0.16462,-0.03922 0.0553,-0.0022 0.11022,-0.03664 0.16535,-0.03867 0.0544,-0.002 0.10948,-0.0372 0.1646,-0.03893 0.0553,-0.0017 0.11021,-0.0372 0.16461,-0.03866 0.0553,-0.0011 0.11021,-0.0375 0.16536,-0.03837 0.0553,-0.0011 0.10949,-0.03779 0.16459,-0.03838 0.0553,-5.76e-4 0.11022,-0.0381 0.16538,-0.03838 0.0544,-2.9e-4 0.10948,-0.0381 0.16458,-0.0381 0.0552,0 0.11021,-0.03838 0.16463,-0.03779 0.0552,2.9e-4 0.11019,-0.03866 0.16534,-0.0381 0.0552,8.67e-4 0.10949,-0.03866 0.1646,-0.03749 0.0553,0.0011 0.11022,-0.03922 0.16538,-0.03749 0.0543,0.0014 0.10948,-0.03952 0.16459,-0.0375 0.0554,0.0017 0.1102,-0.0395 0.1646,-0.03749 0.0554,0.0022 0.11022,-0.0395 0.16538,-0.03691 0.0553,0.0022 0.10949,-0.04004 0.16459,-0.03715 0.0552,0.0029 0.11022,-0.04016 0.16537,-0.03688 0.0543,0.0034 0.10948,-0.0404 0.16457,-0.03679 0.0552,0.0036 0.11022,-0.04058 0.16461,-0.03664 0.0552,0.004 0.11024,-0.0408 0.16537,-0.03655 0.0552,0.0044 0.10949,-0.041 0.16463,-0.03637 0.0552,0.0046 0.1102,-0.04127 0.16534,-0.0363 0.0543,0.005 0.10948,-0.04143 0.16462,-0.03614 0.0552,0.0053 0.11017,-0.04166 0.16458,-0.03603 0.0554,0.0057 0.11021,-0.0419 0.16538,-0.03593 0.0553,0.006 0.10948,-0.0421 0.16459,-0.03576 0.0553,0.0064 0.11022,-0.04231 0.16534,-0.03566 0.0543,0.0066 0.10951,-0.04252 0.16462,-0.03553 0.0553,0.007 0.11022,-0.04272 0.16462,-0.03542 0.0552,0.0073 0.11019,-0.04292 0.16535,-0.03528 0.0552,0.0076 0.10949,-0.04313 0.16461,-0.03518 0.0552,0.0079 0.11019,-0.04336 0.16535,-0.03509 0.0543,0.0082 0.10949,-0.04354 0.16461,-0.03492 0.0553,0.0087 0.11022,-0.04373 0.16459,-0.03482 0.0553,0.0089 0.11021,-0.04393 0.16537,-0.03468 0.0554,0.0093 0.10949,-0.04413 0.1646,-0.03461 0.0553,0.0095 0.1102,-0.04434 0.16535,-0.03449 0.0544,0.01 0.10949,-0.0445 0.16461,-0.03437 0.0552,0.01027 0.11021,-0.0447 0.16462,-0.03421 0.0551,0.0105 0.11019,-0.04492 0.16534,-0.03413 0.0552,0.01078 0.10949,-0.04509 0.16462,-0.03402 0.0552,0.01111 0.11019,-0.04526 0.16535,-0.0339 0.0543,0.01138 0.10949,-0.04542 0.1646,-0.03376 0.0553,0.01166 0.1102,-0.04565 0.16459,-0.03367 0.0553,0.01195 0.11023,-0.04582 0.1654,-0.03354 0.0552,0.01223 0.10946,-0.04596 0.1646,-0.03345 0.0553,0.01254 0.11021,-0.04613 0.16534,-0.03331 0.0544,0.01282 0.10949,-0.0463 0.16461,-0.03321 0.0553,0.01305 0.10948,-0.04647 0.1646,-0.03312 0.0552,0.01335 0.1102,-0.04663 0.16535,-0.03299 0.0544,0.01362 0.1095,-0.04677 0.1646,-0.03289 0.0552,0.01391 0.11023,-0.04693 0.1646,-0.03276 0.0554,0.01415 0.11023,-0.0471 0.16537,-0.03269 0.0553,0.01442 0.10948,-0.04722 0.16463,-0.03258 0.0551,0.0147 0.11021,-0.04738 0.16537,-0.03245 0.0543,0.01491 0.10944,-0.04752 0.16457,-0.03234 0.0553,0.01515 0.11022,-0.04766 0.16461,-0.03225 0.0553,0.01538 0.1102,-0.04779 0.16536,-0.03214 0.0553,0.01563 0.1095,-0.0479 0.16462,-0.03207 0.0554,0.01587 0.1102,-0.04804 0.16535,-0.03192 0.0544,0.01609 0.10948,-0.04815 0.1646,-0.03181 0.0552,0.01632 0.1102,-0.04827 0.16461,-0.03174 0.0552,0.01656 0.11021,-0.04836 0.16535,-0.03162 0.0553,0.01675 0.1095,-0.04844 0.16461,-0.03151 0.0552,0.01694 0.11021,-0.04861 0.16537,-0.03143 0.0543,0.01715 0.10946,-0.0487 0.16458,-0.03133 0.0553,0.01735 0.11021,-0.04879 0.16462,-0.03121 0.0552,0.01756 0.11022,-0.04887 0.16535,-0.03111 0.0553,0.01773 0.1095,-0.04894 0.1646,-0.03101 0.0551,0.0179 0.11021,-0.04903 0.16537,-0.03093 0.0544,0.01811 0.10949,-0.0491 0.16459,-0.03083 0.0552,0.01829 0.11021,-0.04918 0.16461,-0.03073 0.0552,0.01845 0.11021,-0.04924 0.16538,-0.03063 0.0552,0.01864 0.10948,-0.04929 0.16459,-0.03054 0.0553,0.01876 0.11019,-0.04936 0.16537,-0.03043 0.0545,0.01895 0.10947,-0.04942 0.1646,-0.03032 0.0552,0.01908 0.1102,-0.04947 0.16457,-0.03023 0.0553,0.01924 0.11024,-0.0495 0.16539,-0.03011 0.0552,0.01936 0.1095,-0.04955 0.16461,-0.03007 0.0553,0.01955 0.11021,-0.04956 0.16533,-0.02991 0.0544,0.01961 0.1095,-0.04962 0.16463,-0.02987 0.0552,0.01977 0.1102,-0.04962 0.1646,-0.02972 0.0552,0.01984 0.1102,-0.04966 0.16537,-0.02969 0.0551,0.02 0.10949,-0.04965 0.16459,-0.02953 0.0553,0.02009 0.11019,-0.04969 0.16534,-0.02948 0.0544,0.0202 0.10951,-0.04969 0.16462,-0.02939 0.0552,0.02031 0.11021,-0.04966 0.16461,-0.02927 0.0552,0.02036 0.1102,-0.04965 0.16535,-0.0292 0.0552,0.02044 0.10949,-0.04963 0.16462,-0.02911 0.0553,0.02053 0.1102,-0.04961 0.16533,-0.02902 0.0544,0.02061 0.10951,-0.04958 0.16465,-0.02891 0.0551,0.02063 0.11018,-0.04955 0.16457,-0.02885 0.0552,0.02075 0.11021,-0.0495 0.16537,-0.02874 0.0552,0.02077 0.10949,-0.04947 0.16461,-0.02865 0.0552,0.02084 0.11018,-0.04945 0.16531,-0.02858 0.0544,0.02089 0.10951,-0.04938 0.16464,-0.02846 0.0553,0.02091 0.11022,-0.04933 0.1646,-0.0284 0.0552,0.02094 0.11021,-0.04926 0.16538,-0.02831 0.0553,0.02096 0.10949,-0.04916 0.16459,-0.0282 0.0553,0.02096 0.11021,-0.04912 0.16536,-0.02813 0.0543,0.021 0.10948,-0.04904 0.1646,-0.02801 0.0552,0.02098 0.1102,-0.04894 0.1646,-0.02793 0.0552,0.02099 0.1102,-0.04887 0.16538,-0.02787 0.0552,0.02095 0.10948,-0.04878 0.16459,-0.02781 0.0552,0.021 0.11021,-0.04867 0.16536,-0.0277 0.0544,0.02096 0.1095,-0.04855 0.1646,-0.02761 0.0553,0.02093 0.11021,-0.04843 0.1646,-0.02752 0.0552,0.0209 0.11022,-0.04835 0.16537,-0.02745 0.0553,0.02088 0.10948,-0.0482 0.16459,-0.02733 0.0552,0.02084 0.11021,-0.0481 0.16537,-0.02729 0.0543,0.0208 0.10949,-0.04795 0.1646,-0.02719 0.0553,0.02075 0.10948,-0.04779 0.16462,-0.0271 0.0552,0.02067 0.11019,-0.04767 0.16536,-0.02705 0.0544,0.02062 0.10947,-0.04752 0.16459,-0.02696 0.0552,0.02053 0.11022,-0.04736 0.16459,-0.02688 0.0554,0.02047 0.11022,-0.04718 0.16538,-0.02676 0.0553,0.02038 0.10948,-0.04704 0.16461,-0.02671 0.0552,0.02031 0.1102,-0.04688 0.16536,-0.02665 0.0544,0.02025 0.10946,-0.04668 0.16459,-0.02654 0.0552,0.02013 0.11021,-0.04649 0.16462,-0.02645 0.0552,0.02002 0.11018,-0.04633 0.16534,-0.02642 0.0553,0.01989 0.1095,-0.04613 0.1646,-0.02632 0.0553,0.01979 0.11022,-0.04592 0.16539,-0.02626 0.0543,0.01967 0.10946,-0.04574 0.16458,-0.02616 0.0552,0.01957 0.11021,-0.04549 0.16462,-0.02607 0.0551,0.01945 0.1102,-0.04529 0.16536,-0.026 0.0553,0.0193 0.10948,-0.04504 0.16459,-0.02594 0.0552,0.01915 0.11021,-0.04482 0.16536,-0.02585 0.0543,0.01899 0.1095,-0.04462 0.16458,-0.02576 0.0552,0.01884 0.11022,-0.04439 0.16462,-0.02571 0.0552,0.0187 0.11023,-0.04414 0.16537,-0.02563 0.0554,0.01855 0.10948,-0.04389 0.1646,-0.02551 0.0553,0.01834 0.1102,-0.04367 0.16536,-0.02546 0.0543,0.01817 0.10948,-0.04343 0.1646,-0.02541 0.0552,0.01802 0.11021,-0.04312 0.1646,-0.02529 0.0552,0.01784 0.11023,-0.04291 0.16536,-0.02522 0.0553,0.01762 0.10949,-0.04262 0.16461,-0.02518 0.0554,0.01744 0.11019,-0.04237 0.16534,-0.02509 0.0544,0.01724 0.10951,-0.0421 0.16464,-0.02504 0.0552,0.01704 0.11019,-0.04175 0.16458,-0.02494 0.0553,0.01682 0.1102,-0.04148 0.16538,-0.02486 0.0552,0.01661 0.10948,-0.04123 0.16458,-0.02479 0.0553,0.01643 0.11023,-0.04092 0.16537,-0.02474 0.0543,0.01617 0.10948,-0.04065 0.16461,-0.02466 0.0552,0.01595 0.1102,-0.04033 0.16458,-0.02461 0.0552,0.01572 0.11023,-0.04002 0.16537,-0.02451 0.0552,0.01548 0.10952,-0.03972 0.16462,-0.02446 0.0553,0.01525 0.11021,-0.03938 0.16535,-0.02437 0.0544,0.01503 0.1095,-0.03908 0.16461,-0.02432 0.0552,0.01479 0.11021,-0.03875 0.16463,-0.02424 0.0552,0.01452 0.11019,-0.03844 0.16533,-0.02416 0.0552,0.01428 0.10948,-0.03813 0.1646,-0.0241 0.0553,0.014 0.1102,-0.0378 0.16538,-0.02405 0.0543,0.01375 0.10947,-0.03742 0.16458,-0.02395 0.0552,0.01345 0.11023,-0.03708 0.16461,-0.02392 0.0552,0.0132 0.11022,-0.03675 0.16537,-0.02384 0.0552,0.01291 0.10948,-0.0364 0.1646,-0.02374 0.0553,0.01264 0.1102,-0.03607 0.16535,-0.0237 0.0544,0.01237 0.10948,-0.03571 0.16461,-0.02363 0.0552,0.01209 0.11021,-0.03534 0.16462,-0.02354 0.0552,0.01177 0.11022,-0.03499 0.16535,-0.02351 0.0552,0.01149 0.10945,-0.03463 0.1646,-0.02343 0.0553,0.01122 0.11021,-0.03428 0.16533,-0.02336 0.0544,0.01089 0.1095,-0.0339 0.16462,-0.02327 0.0552,0.01061 0.11021,-0.03351 0.16461,-0.02321 0.0552,0.01027 0.11022,-0.03317 0.16537,-0.02317 0.0552,0.01006 0.10947,-0.03278 0.1646,-0.0231 0.0553,0.0097 0.11022,-0.0324 0.16536,-0.02303 0.0544,0.0095 0.1095,-0.03201 0.16463,-0.02295 0.0551,0.009 0.11017,-0.03165 0.16459,-0.0229 0.0552,0.0087 0.1102,-0.03123 0.16536,-0.02283 0.0552,0.0084 0.10947,-0.03088 0.16457,-0.02275 0.0552,0.0081 0.11023,-0.0305 0.16539,-0.02272 0.0544,0.0077 0.10948,-0.0301 0.16459,-0.02264 0.0553,0.0075 0.11022,-0.02968 0.1646,-0.02259 0.0552,0.0071 0.11022,-0.0293 0.16539,-0.02253 0.0543,0.0067 0.10946,-0.0289 0.16458,-0.02242 0.0553,0.0064 0.11021,-0.02852 0.16461,-0.02241 0.0553,0.0061 0.11021,-0.02813 0.16536,-0.02233 0.0552,0.0058 0.10949,-0.02771 0.16461,-0.0223 0.0552,0.0055 0.11021,-0.02729 0.16536,-0.02222 0.0545,0.0052 0.10947,-0.0269 0.1646,-0.02216 0.0552,0.0048 0.11021,-0.02651 0.16458,-0.0221 0.0554,0.0045 0.11023,-0.02613 0.16538,-0.02204 0.0553,0.0041 0.10948,-0.02568 0.1646,-0.02196 0.0552,0.0037 0.1102,-0.0253 0.16537,-0.02195 0.0544,0.0034 0.10949,-0.02488 0.16459,-0.02183 0.0552,0.003 0.11021,-0.02449 0.16462,-0.0218 0.0552,0.0025 0.1102,-0.02405 0.16535,-0.02172 0.0553,0.0022 0.10948,-0.02367 0.16462,-0.02168 0.0552,0.002 0.11017,-0.02325 0.16534,-0.02161 0.0544,0.0017 0.10949,-0.02283 0.1646,-0.02155 0.0552,0.0011 0.11022,-0.02242 0.1646,-0.02152 0.0553,8.65e-4 0.11023,-0.02201 0.16538,-0.02143 0.0553,5.76e-4 0.10948,-0.02162 0.16461,-0.02137 0.0552,2.3e-4 0.11017,-0.02118 0.16533,-0.02131 0.0544,-1.14e-4 0.10949,-0.0208 0.1646,-0.02128 0.0554,-5.75e-4 0.11023,-0.02036 0.16461,-0.02119 0.0553,-8.66e-4 0.11019,-0.01998 0.16538,-0.02113 0.0553,-0.0011 0.1095,-0.01959 0.16457,-0.02106 0.0552,-0.0013 0.1102,-0.01918 0.16538,-0.02105 0.0544,-0.0017 0.10948,-0.01874 0.16461,-0.02095 0.0552,-0.0022 0.1102,-0.01837 0.16461,-0.02094 0.0552,-0.0025 0.11019,-0.01794 0.16534,-0.02086 0.0553,-0.0029 0.10951,-0.01756 0.1646,-0.02084 0.0552,-0.0034 0.11022,-0.01712 0.16536,-0.02074 0.0544,-0.0036 0.1095,-0.01676 0.16461,-0.0207 0.0552,-0.004 0.11021,-0.01637 0.16463,-0.02063 0.0554,-0.0044 0.1102,-0.01595 0.16533,-0.02059 0.0553,-0.0047 0.10952,-0.01554 0.16461,-0.02053 0.0553,-0.0051 0.11021,-0.01515 0.16537,-0.02047 0.0543,-0.0054 0.10949,-0.01477 0.1646,-0.02041 0.0552,-0.0058 0.1102,-0.0144 0.16459,-0.02039 0.0552,-0.006 0.11023,-0.01396 0.16536,-0.02031 0.0552,-0.0064 0.1095,-0.01362 0.1646,-0.02029 0.0553,-0.0066 0.11022,-0.01319 0.16537,-0.02021 0.0544,-0.007 0.10949,-0.01282 0.1646,-0.02016 0.0554,-0.0073 0.11022,-0.01242 0.16462,-0.02011 0.0552,-0.0076 0.1102,-0.01203 0.16536,-0.02005 0.0554,-0.008 0.10946,-0.01168 0.16458,-0.02002 0.0552,-0.0082 0.11023,-0.0113 0.16538,-0.01992 0.0543,-0.0087 0.10946,-0.01095 0.16459,-0.01989 0.0552,-0.0089 0.11021,-0.01059 0.16461,-0.01984 0.0553,-0.0094 0.11022,-0.01027 0.16537,-0.01979 0.0552,-0.0096 0.1095,-0.01 0.16459,-0.01977 0.0554,-0.01 0.11021,-0.0095 0.16536,-0.0197 0.0544,-0.01027 0.1095,-0.009 0.16461,-0.01961 0.0552,-0.0105 0.11019,-0.0088 0.16462,-0.01961 0.0554,-0.0108 0.1102,-0.0085 0.16533,-0.01953 0.0552,-0.01112 0.10949,-0.0081 0.1646,-0.01951 0.0553,-0.01138 0.11021,-0.0077 0.16538,-0.01946 0.0543,-0.01168 0.10947,-0.0074 0.16461,-0.01938 0.0553,-0.01198 0.11018,-0.007 0.16457,-0.01932 0.0552,-0.01228 0.11024,-0.0067 0.16537,-0.0193 0.0552,-0.01255 0.10951,-0.0064 0.16462,-0.01924 0.0553,-0.01283 0.11021,-0.0061 0.16534,-0.01918 0.0544,-0.0131 0.10952,-0.0058 0.16462,-0.01915 0.0552,-0.01337 0.11022,-0.0055 0.16461,-0.01908 0.0552,-0.01362 0.1102,-0.0052 0.16535,-0.01903 0.0546,-0.01391 0.10948,-0.0049 0.16463,-0.01897 0.0551,-0.01419 0.11018,-0.0046 0.16458,-0.01894 0.0553,-0.01442 0.1102,-0.0043 0.16537,-0.01888 0.0553,-0.0147 0.10949,-0.004 0.16459,-0.01886 0.0552,-0.0149 0.11021,-0.0036 0.16538,-0.01876 0.0544,-0.0152 0.10946,-0.0034 0.1646,-0.01876 0.0552,-0.0154 0.11021,-0.003 0.16458,-0.0187 0.0554,-0.01566 0.11023,-0.0029 0.16539,-0.01867 0.0552,-0.0159 0.10948,-0.0025 0.16461,-0.01862 0.0551,-0.01613 0.11018,-0.0022 0.16532,-0.01857 0.0544,-0.01633 0.10951,-0.002 0.16461,-0.01852 0.0553,-0.01656 0.1102,-0.0017 0.16461,-0.01846 0.0553,-0.01676 0.1102,-0.0013 0.16536,-0.01843 0.0553,-0.01695 0.10949,-0.0011 0.16462,-0.01837 0.0552,-0.01715 0.1102,-8.64e-4 0.16534,-0.01832 0.0543,-0.01739 0.1095,-5.78e-4 0.16462,-0.01829 0.0552,-0.0176 0.11019,-5.77e-4 0.16458,-0.01821 0.0553,-0.01777 0.11021,-2.58e-4 0.16537,-0.0182 0.0553,-0.01796 0.1095,-2.8e-5 0.16462,-0.01815 0.0552,-0.01814 0.11019,1.99e-4 0.16534,-0.01812 0.0544,-0.01832 0.10949,2.89e-4 0.16461,-0.01806 0.0552,-0.0185 0.11021,5.77e-4 0.1646,-0.01803 0.0553,-0.01864 0.11021,8.66e-4 0.16536,-0.01794 0.0554,-0.01882 0.10948,0.0011 0.16461,-0.01794 0.0553,-0.01895 0.1102,0.0011 0.16537,-0.0179 0.0544,-0.01908 0.10946,0.0013 0.16459,-0.01783 0.0553,-0.01924 0.11022,0.0013 0.16461,-0.0178 0.0552,-0.01938 0.1102,0.0017 0.16535,-0.01771 0.0553,-0.01951 0.1095,0.002 0.16462,-0.01771 0.0552,-0.01965 0.1102,0.002 0.16536,-0.01764 0.0544,-0.01977 0.10947,0.0022 0.16458,-0.01758 0.0552,-0.01989 0.11024,0.0022 0.16461,-0.01759 0.0552,-0.01999 0.11022,0.0025 0.16536,-0.01751 0.0553,-0.02011 0.10948,0.0025 0.16461,-0.0175 0.0552,-0.0202 0.1102,0.0029 0.16536,-0.0174 0.0545,-0.02031 0.10947,0.0031 0.16459,-0.01739 0.0552,-0.02038 0.11022,0.0032 0.16462,-0.01736 0.0552,-0.02044 0.11021,0.0033 0.16535,-0.01733 0.0553,-0.0205 0.10949,0.0034 0.16462,-0.01724 0.0552,-0.02062 0.11021,0.0034 0.16536,-0.01724 0.0545,-0.02063 0.10947,0.0035 0.16462,-0.01717 0.0552,-0.02069 0.1102,0.0036 0.16459,-0.01711 0.0552,-0.02077 0.11021,0.0037 0.16534,-0.01709 0.0552,-0.02084 0.10951,0.0039 0.1646,-0.01707 0.0553,-0.02086 0.11023,0.004 0.16538,-0.01699 0.0544,-0.02089 0.1095,0.004 0.16459,-0.01695 0.0554,-0.02093 0.11023,0.004 0.16461,-0.01695 0.0552,-0.02093 0.11022,0.0041 0.16536,-0.01688 0.0552,-0.02096 0.10947,0.0041 0.16462,-0.01684 0.0553,-0.02099 0.11021,0.0043 0.16536,-0.0168 0.0543,-0.02099 0.10947,0.0043 0.16458,-0.0168 0.0553,-0.02099 0.11021,0.0044 0.16461,-0.01673 0.0552,-0.021 0.11021,0.0044 0.16534,-0.01669 0.0553,-0.02095 0.1095,0.0044 0.16462,-0.01665 0.0553,-0.02097 0.11022,0.0044 0.16535,-0.0166 0.0545,-0.02094 0.10949,0.0044 0.16462,-0.01658 0.0552,-0.0209 0.11021,0.0044 0.1646,-0.01654 0.0552,-0.02089 0.11021,0.0044 0.16536,-0.0165 0.0552,-0.02086 0.10948,0.0044 0.16461,-0.01648 0.0553,-0.02081 0.1102,0.0044 0.16536,-0.01643 0.0544,-0.02075 0.10949,0.0044 0.16461,-0.01638 0.0552,-0.02066 0.11017,0.0044 0.16461,-0.01633 0.0552,-0.02062 0.1102,0.0043 0.16532,-0.0163 0.0544,-0.02056 0.10952,0.0043 0.16463,-0.01627 0.0553,-0.02047 0.1102,0.0041 0.16461,-0.01625 0.0552,-0.02039 0.11021,0.0041 0.16536,-0.01618 0.0552,-0.02031 0.10949,0.004 0.16461,-0.01614 0.0552,-0.02022 0.11019,0.004 0.16533,-0.01609 0.0544,-0.02013 0.10949,0.004 0.16461,-0.01607 0.0554,-0.02003 0.11022,0.004 0.16462,-0.01604 0.0553,-0.01991 0.1102,0.0039 0.16537,-0.01601 0.0552,-0.01979 0.10947,0.0037 0.16459,-0.01595 0.0553,-0.01967 0.11021,0.0036 0.16535,-0.01593 0.0544,-0.01956 0.1095,0.0035 0.16461,-0.0159 0.0552,-0.0194 0.1102,0.0034 0.16462,-0.01584 0.0553,-0.0193 0.11019,0.0034 0.16534,-0.01581 0.0552,-0.01915 0.10949,0.0033 0.16461,-0.01577 0.0553,-0.019 0.11019,0.0032 0.16536,-0.01575 0.0545,-0.01882 0.10949,0.003 0.1646,-0.01569 0.0553,-0.0187 0.11021,0.0029 0.16461,-0.01566 0.0552,-0.01851 0.1102,0.0025 0.16533,-0.01563 0.0553,-0.01834 0.1095,0.0025 0.16462,-0.01558 0.0552,-0.01815 0.11021,0.0022 0.16536,-0.01554 0.0543,-0.018 0.10948,0.0022 0.16461,-0.0155 0.0552,-0.01783 0.11022,0.002 0.16461,-0.01548 0.0553,-0.01761 0.1102,0.002 0.16536,-0.01544 0.0553,-0.0174 0.10949,0.0017 0.1646,-0.0154 0.0552,-0.01721 0.11019,0.0017 0.16535,-0.01538 0.0543,-0.01699 0.10951,0.0013 0.16459,-0.01534 0.0552,-0.0168 0.11023,0.0013 0.16463,-0.01529 0.0553,-0.01662 0.11022,0.0011 0.16534,-0.01529 0.0553,-0.01639 0.10949,8.68e-4 0.16463,-0.01521 0.0553,-0.01616 0.11021,8.65e-4 0.16535,-0.01521 0.0544,-0.01595 0.10946,5.77e-4 0.16461,-0.01515 0.0552,-0.01573 0.1102,2.87e-4 0.16459,-0.01514 0.0554,-0.01547 0.11021,1.45e-4 0.16536,-0.0151 0.0553,-0.01525 0.10951,-5.8e-5 0.16459,-0.01506 0.0553,-0.015 0.11023,-2.87e-4 0.16537,-0.01503 0.0544,-0.01477 0.10948,-5.77e-4 0.16463,-0.01499 0.0552,-0.01452 0.1102,-5.78e-4 0.16459,-0.01497 0.0553,-0.01422 0.11019,-8.64e-4 0.16534,-0.01491 0.0553,-0.01401 0.1095,-0.0011 0.16462,-0.01489 0.0552,-0.01372 0.1102,-0.0013 0.16537,-0.01485 0.0543,-0.01343 0.10947,-0.0017 0.16459,-0.01483 0.0552,-0.01317 0.11022,-0.0017 0.16461,-0.0148 0.0552,-0.01288 0.1102,-0.002 0.16534,-0.01475" />
    <text
       xml:space="preserve"
       style="font-style:normal;font-variant:normal;font-weight:normal;font-stretch:normal;font-size:6.35px;font-family:AppleMyungjo;-inkscape-font-specification:'AppleMyungjo, Normal';font-variant-ligatures:normal;font-variant-caps:normal;font-variant-numeric:normal;font-variant-east-asian:normal;white-space:pre;fill:#ffcc00;fill-opacity:1;stroke:none;stroke-width:0.09;stroke-dasharray:none;stroke-opacity:0.784314"
       x="47.153908"
       y="42.330425"
       id="text26803"><tspan
         id="tspan26801"
         style="font-style:normal;font-variant:normal;font-weight:normal;font-stretch:normal;font-size:6.35px;font-family:AppleMyungjo;-inkscape-font-specification:'AppleMyungjo, Normal';font-variant-ligatures:normal;font-variant-caps:normal;font-variant-numeric:normal;font-variant-east-asian:normal;fill:#ffcc00;fill-opacity:1;stroke:none;stroke-width:0.09;stroke-dasharray:none;stroke-opacity:0.784314"
         x="47.153908"
         y="42.330425">Potenziale kepleriano</tspan></text>
    <text
       xml:space="preserve"
       style="font-style:normal;font-variant:normal;font-weight:normal;font-stretch:normal;font-size:6.35px;font-family:AppleMyungjo;-inkscape-font-specification:'AppleMyungjo, Normal';font-variant-ligatures:normal;font-variant-caps:normal;font-variant-numeric:normal;font-variant-east-asian:normal;white-space:pre;fill:#00aad4;fill-opacity:1;stroke:none;stroke-width:0.09;stroke-dasharray:none;stroke-opacity:0.784314"
       x="114.68344"
       y="92.593903"
       id="text26803-9"><tspan
         sodipodi:role="line"
         id="tspan27434"
         x="114.68344"
         y="92.593903">Potenziale efficace</tspan></text>
    <path
       id="path36339"
       style="fill:none;stroke:#00aad4;stroke-width:0.8;stroke-dasharray:none"
       d="m 37.452427,135.59664 c 0.08164,-5.31392 0.163276,-15.04527 0.244808,-15.0649 0.112272,-0.0276 0.224421,-14.10673 0.33671,-14.13372 0.112098,-0.0271 0.224403,-10.698778 0.336523,-10.725563 0.112269,-0.02676 0.224404,-7.993796 0.336523,-8.02043 0.112271,-0.02667 0.224404,-5.845502 0.33669,-5.871935 0.112101,-0.02648 0.224423,-4.139396 0.336523,-4.165668 0.112273,-0.02629 0.224407,-2.785958 0.336713,-2.81203 0.112099,-0.0261 0.224214,-1.714659 0.33652,-1.740531 0.1121,-0.02591 0.224405,-0.869803 0.336506,-0.895465 0.112273,-0.02572 0.224422,-0.206887 0.336709,-0.232396 0.112103,-0.02544 0.224404,0.309439 0.336524,0.284178 0.112102,-0.02534 0.224406,0.707429 0.336524,0.682376 0.112269,-0.02505 0.224402,1.010041 0.33669,0.985235 0.112101,-0.02486 0.224424,1.235616 0.336524,1.211021 0.11227,-0.02467 0.224403,1.398961 0.336521,1.374623 0.112272,-0.02438 0.224406,1.512202 0.336711,1.488073 0.112101,-0.0241 0.224405,1.585178 0.336503,1.56124 0.112274,-0.02391 0.224408,1.625709 0.336714,1.602028 0.1121,-0.02362 0.224404,1.640417 0.336522,1.617003 0.112098,-0.02343 0.224402,1.634511 0.336519,1.611345 0.112273,-0.02315 0.224407,1.612363 0.336696,1.589502 0.112101,-0.02296 0.224423,1.577585 0.33652,1.554924 0.112272,-0.02267 0.224404,1.533034 0.336523,1.510687 0.112272,-0.02238 0.224407,1.480986 0.33671,1.458887 0.112099,-0.0221 0.224407,1.423509 0.336506,1.401666 0.112273,-0.02182 0.224408,1.362087 0.336712,1.34055 0.112099,-0.02163 0.224214,1.298047 0.336519,1.276758 0.112101,-0.02124 0.224406,1.232357 0.336509,1.211372 0.112271,-0.02095 0.224421,1.165965 0.336708,1.145285 0.112099,-0.02076 0.224422,1.099446 0.336522,1.079033 0.112101,-0.02039 0.224406,1.033469 0.336524,1.013342 0.112269,-0.02019 0.224403,0.968343 0.336708,0.948473 0.112101,-0.0198 0.224406,0.904587 0.336507,0.884727 0.112273,-0.0193 0.224407,0.84221 0.33652,0.82287 0.112272,-0.0193 0.224408,0.7811 0.336712,0.76226 0.112102,-0.0188 0.224408,0.72254 0.336507,0.7037 0.112269,-0.0183 0.224418,0.66552 0.336708,0.64719 0.112101,-0.0183 0.224217,0.61053 0.336522,0.59271 0.112103,-0.0178 0.224408,0.55755 0.336523,0.53973 0.11227,-0.0178 0.224406,0.50666 0.33671,0.48934 0.112099,-0.0173 0.224405,0.45777 0.336507,0.44096 0.112097,-0.0169 0.224402,0.41094 0.33652,0.39413 0.112273,-0.0164 0.224406,0.36661 0.336712,0.35031 0.112102,-0.0164 0.224408,0.32335 0.336503,0.30757 0.112273,-0.0158 0.224423,0.2826 0.336524,0.26732 0.112272,-0.0158 0.224406,0.2439 0.336712,0.22863 0.112097,-0.0154 0.224403,0.20673 0.33652,0.19146 0.112273,-0.0149 0.224406,0.1716 0.336712,0.15683 0.112099,-0.0142 0.224198,0.13799 0.336502,0.12373 0.112101,-0.0142 0.224407,0.10594 0.336525,0.0916 0.112273,-0.0137 0.224406,0.0759 0.336712,0.0621 0.112096,-0.0133 0.224402,0.0469 0.336504,0.0335 0.112099,-0.0133 0.224421,0.0188 0.336524,0.006 0.112267,-0.0128 0.224402,-0.007 0.336709,-0.0188 0.0017,-1.9e-4 0.0033,-4e-4 0.005,-6.1e-4 m -0.02482,0.0552 c 0.07527,-0.0118 0.150649,-0.0299 0.225911,-0.041 0.07664,-0.0118 0.153125,-0.0527 0.229622,-0.0637 0.07664,-0.0112 0.153123,-0.0739 0.229752,-0.0846 0.0765,-0.0108 0.153127,-0.0938 0.229623,-0.10412 0.07663,-0.0107 0.153124,-0.11295 0.229752,-0.12273 0.0765,-0.0103 0.152993,-0.13053 0.229625,-0.14032 0.0765,-0.01 0.153122,-0.14765 0.229618,-0.15693 0.07664,-0.01 0.153128,-0.1633 0.229755,-0.1721 0.07651,-0.01 0.153126,-0.17846 0.229622,-0.18726 0.07649,-0.009 0.153126,-0.19263 0.229623,-0.20093 0.07664,-0.008 0.153124,-0.20585 0.229754,-0.21366 0.0765,-0.008 0.153124,-0.21854 0.229621,-0.22587 0.07664,-0.007 0.153126,-0.23028 0.229621,-0.23761 0.07664,-0.007 0.153126,-0.24103 0.229758,-0.24787 0.0765,-0.007 0.153121,-0.25179 0.229619,-0.25815 0.07664,-0.006 0.153124,-0.26159 0.229754,-0.26744 0.0765,-0.006 0.152994,-0.27087 0.229622,-0.27623 0.0765,-0.006 0.153123,-0.27917 0.229621,-0.28455 0.07664,-0.004 0.153127,-0.28699 0.229753,-0.29188 0.0765,-0.004 0.153126,-0.29432 0.229623,-0.29873 0.0765,-0.004 0.153126,-0.30165 0.229623,-0.30555 0.07664,-0.004 0.153124,-0.30804 0.229752,-0.31144 0.0765,-0.004 0.153127,-0.31389 0.229621,-0.31731 0.07664,-0.004 0.153128,-0.31926 0.229623,-0.32219 0.07664,-0.004 0.153127,-0.32415 0.229753,-0.3266 0.07651,-0.004 0.153126,-0.32903 0.229624,-0.33148 0.07664,-0.003 0.153124,-0.33343 0.229752,-0.33491 0.0765,-0.003 0.152994,-0.33734 0.229622,-0.33881 0.07651,-7.6e-4 0.153126,-0.34078 0.229624,-0.34175 0.07664,-7.5e-4 0.153124,-0.34371 0.229753,-0.34468 0.0765,-4.9e-4 0.153125,-0.34673 0.229624,-0.34689 0.0765,-1.9e-4 0.153122,-0.34961 0.22962,-0.34937 0.07664,2.5e-4 0.153124,-0.351957 0.229752,-0.351327 0.0765,5.1e-4 0.153126,-0.35397 0.229622,-0.35293 0.07664,7.6e-4 0.153126,-0.355786 0.229622,-0.354376 0.07664,0.0019 0.153126,-0.357344 0.229753,-0.355525 0.07651,0.0019 0.153126,-0.358616 0.229623,-0.356416 0.07664,0.0019 0.153126,-0.359697 0.229753,-0.357097 0.0765,0.0019 0.152996,-0.360526 0.229625,-0.357592 0.0765,0.0029 0.153124,-0.361154 0.229621,-0.357839 0.07664,0.0038 0.153124,-0.361592 0.229754,-0.357868 0.0765,0.0038 0.153123,-0.361897 0.229621,-0.357783 0.07649,0.0038 0.153124,-0.361944 0.229622,-0.357449 0.07664,0.0048 0.153125,-0.361887 0.229753,-0.35701 0.0765,0.0048 0.153126,-0.361631 0.229622,-0.356363 0.07664,0.0058 0.153123,-0.361259 0.229753,-0.355582 0.0765,0.0058 0.152995,-0.360668 0.229623,-0.35461 0.07651,0.0058 0.153126,-0.359983 0.229622,-0.353581 0.07664,0.0058 0.153126,-0.359145 0.229755,-0.352353 0.07649,0.0066 0.153124,-0.358173 0.229619,-0.350991 0.0765,0.0066 0.153128,-0.357144 0.229625,-0.349571 0.07664,0.0076 0.153125,-0.355925 0.229752,-0.347962 0.07649,0.0076 0.153126,-0.354601 0.229623,-0.346293 0.07664,0.0085 0.153126,-0.353182 0.229621,-0.344533 0.07664,0.0085 0.153125,-0.351667 0.229754,-0.342579 0.0765,0.0085 0.153124,-0.350057 0.229622,-0.340618 0.07664,0.0095 0.153125,-0.348351 0.229755,-0.338578 0.0765,0.0098 0.152993,-0.346532 0.229621,-0.336417 0.07651,0.01019 0.153125,-0.344636 0.229621,-0.33412 0.07664,0.01057 0.153127,-0.342732 0.229754,-0.331816 0.0765,0.01086 0.153126,-0.340684 0.229622,-0.329433 0.0765,0.01124 0.153127,-0.338569 0.229621,-0.326987 0.07664,0.01162 0.153124,-0.336368 0.229754,-0.324394 0.0765,0.01191 0.153126,-0.334121 0.229624,-0.321843 0.07664,0.01229 0.153124,-0.331834 0.22962,-0.319165 0.07664,0.01267 0.153125,-0.329415 0.229753,-0.316422 0.0765,0.01295 0.153128,-0.327024 0.229623,-0.313631 0.07664,0.01334 0.153126,-0.324538 0.229753,-0.310859 0.07651,0.01371 0.152994,-0.321986 0.229624,-0.307954 0.0765,0.0141 0.153125,-0.319413 0.229621,-0.305029 0.07664,0.01438 0.153125,-0.316765 0.229754,-0.302058 0.0765,0.01476 0.153124,-0.314069 0.229622,-0.299009 0.07649,0.01495 0.153125,-0.311393 0.229621,-0.295989 0.07664,0.01533 0.153125,-0.308603 0.229754,-0.292904 0.0765,0.01572 0.153125,-0.305773 0.229622,-0.289731 0.07664,0.01601 0.153124,-0.302981 0.229623,-0.286597 0.07664,0.01629 0.153124,-0.300048 0.229752,-0.283369 0.0765,0.01667 0.153127,-0.297161 0.229624,-0.280148 0.07663,0.01696 0.153125,-0.29418 0.229752,-0.276919 0.0765,0.01733 0.152993,-0.291208 0.229624,-0.273595 0.07649,0.01772 0.153124,-0.28816 0.229621,-0.270271 0.07664,0.018 0.153126,-0.285139 0.229754,-0.266898 0.0765,0.0182 0.153122,-0.282054 0.229621,-0.263564 0.0765,0.01857 0.153126,-0.278929 0.229622,-0.260154 0.07664,0.01876 0.153123,-0.275843 0.229752,-0.256726 0.0765,0.01905 0.153125,-0.272718 0.229626,-0.253296 0.07664,0.01934 0.153123,-0.269546 0.229621,-0.249894 0.07663,0.01971 0.153125,-0.266308 0.229751,-0.246352 0.07651,0.01991 0.153126,-0.263098 0.229623,-0.242894 0.07663,0.02019 0.153126,-0.259859 0.229754,-0.239331 0.0765,0.02048 0.152993,-0.256621 0.229621,-0.235836 0.07651,0.02067 0.153126,-0.253362 0.229623,-0.232339 0.07664,0.02095 0.153126,-0.250028 0.229753,-0.22871 0.07651,0.02134 0.153125,-0.246751 0.229623,-0.225195 0.0765,0.02163 0.153125,-0.24338 0.229621,-0.221623 0.07664,0.02182 0.153125,-0.240008 0.229756,-0.217956 0.0765,0.0221 0.153124,-0.23673 0.22962,-0.214431 0.07664,0.02229 0.153125,-0.233311 0.229622,-0.210774 0.07664,0.02248 0.153125,-0.229929 0.229753,-0.207153 0.07651,0.02277 0.153126,-0.22651 0.229623,-0.203535 0.07663,0.02306 0.153126,-0.22309 0.229753,-0.199856 0.0765,0.02324 0.152994,-0.219671 0.22962,-0.196199 0.0765,0.02343 0.153127,-0.216251 0.229624,-0.192589 0.07664,0.02362 0.153127,-0.212764 0.229755,-0.188913 0.07651,0.02391 0.153124,-0.209306 0.229621,-0.185197 0.0765,0.02401 0.153124,-0.205829 0.229624,-0.181539 0.07663,0.0243 0.153124,-0.202352 0.229753,-0.177862 0.0765,0.02448 0.153123,-0.198838 0.229619,-0.174147 0.07664,0.02467 0.153127,-0.195371 0.229625,-0.17049 0.07664,0.02476 0.153125,-0.191789 0.229751,-0.166765 0.0765,0.02505 0.153125,-0.188283 0.229627,-0.162993 0.07663,0.02525 0.153122,-0.184807 0.229751,-0.159392 0.0765,0.02553 0.152989,-0.181187 0.229619,-0.15562 0.07652,0.02562 0.153128,-0.177672 0.229626,-0.151858 0.07663,0.02581 0.153121,-0.174147 0.22975,-0.14819 0.07649,0.02591 0.153127,-0.170527 0.229626,-0.144465 0.0765,0.0261 0.15312,-0.166966 0.229619,-0.140713 0.07663,0.02629 0.153127,-0.163392 0.229758,-0.136988 0.07648,0.02639 0.15312,-0.159773 0.229619,-0.133235 0.07663,0.02649 0.153127,-0.156201 0.229617,-0.12951 0.07664,0.02668 0.153129,-0.152581 0.229758,-0.125795 0.0765,0.02676 0.153121,-0.148972 0.229619,-0.122033 0.07664,0.02695 0.153128,-0.145351 0.229757,-0.11827 0.07649,0.02705 0.153122,-0.141732 0.229619,-0.114546 0.07652,0.02715 0.153128,-0.138073 0.229626,-0.110783 0.07663,0.02724 0.153121,-0.134454 0.229751,-0.107077 0.07649,0.02743 0.153127,-0.130787 0.229619,-0.103258 0.07664,0.02743 0.153127,-0.127167 0.229626,-0.09954 0.07663,0.02753 0.153127,-0.123499 0.229757,-0.09582 0.0765,0.02772 0.15312,-0.119794 0.229618,-0.09202 0.07663,0.02782 0.153121,-0.116118 0.229751,-0.08831 0.07652,0.02782 0.152996,-0.112449 0.229625,-0.08449 0.0765,0.02791 0.153129,-0.108735 0.229619,-0.08078 0.07664,0.028 0.153128,-0.105057 0.229758,-0.07696 0.0765,0.028 0.153121,-0.101352 0.229626,-0.07325 0.07648,0.0281 0.153114,-0.09769 0.229619,-0.06954 0.07663,0.02819 0.153128,-0.09392 0.229743,-0.06573 0.0765,0.02819 0.153134,-0.09021 0.22964,-0.06192 0.07663,0.02819 0.153113,-0.08659 0.229612,-0.0582 0.07663,0.02829 0.15312,-0.08277 0.229764,-0.05449 0.0765,0.02829 0.153114,-0.07906 0.229611,-0.05067 0.07663,0.02829 0.153122,-0.07535 0.229758,-0.04697 0.07652,0.02839 0.152989,-0.07164 0.229619,-0.04315 0.0765,0.02838 0.153121,-0.06792 0.229619,-0.03944 0.07663,0.02839 0.153121,-0.0642 0.229757,-0.03572 0.0765,0.02838 0.153115,-0.0603 0.229619,-0.03191 0.0765,0.02838 0.153128,-0.05658 0.229612,-0.0281 0.07665,0.02839 0.153142,-0.05277 0.229765,-0.02438 0.07649,0.02839 0.15312,-0.04896 0.229626,-0.02058 0.07663,0.02829 0.15312,-0.04525 0.229618,-0.01686 0.07663,0.02829 0.153121,-0.04144 0.22975,-0.01305 0.0765,0.02829 0.153135,-0.03762 0.229619,-0.0095 0.07665,0.02829 0.153135,-0.03391 0.229764,-0.0058 0.0765,0.02829 0.152983,-0.03011 0.229612,-0.0019 0.07651,0.02819 0.153129,-0.02629 0.229626,0.0019 0.07664,0.02819 0.153122,-0.02248 0.229751,0.0058 0.07652,0.02819 0.153128,-0.01857 0.229626,0.0095 0.07649,0.0281 0.153128,-0.01477 0.229632,0.01324 0.07663,0.02801 0.153122,-0.01096 0.229737,0.01696 0.07652,0.02791 0.153134,-0.0066 0.229633,0.02076 0.07664,0.02792 0.153127,-0.0029 0.229619,0.02457 0.07663,0.02782 0.15312,6e-4 0.22975,0.02829 0.07652,0.02772 0.153128,0.0048 0.229625,0.03201 0.07663,0.02772 0.153128,0.0085 0.229751,0.03582 0.0765,0.02743 0.152989,0.0122 0.229619,0.03953 0.07652,0.02743 0.153128,0.01609 0.229633,0.04335 0.07663,0.02734 0.153121,0.01991 0.229743,0.04715 0.0765,0.02724 0.153135,0.02381 0.229633,0.05087 0.07649,0.02705 0.153128,0.02772 0.229626,0.05477 0.07663,0.02705 0.153106,0.03162 0.22973,0.05849 0.07652,0.02686 0.153141,0.03543 0.229633,0.06221 0.07665,0.02667 0.153127,0.03944 0.229618,0.0661 0.07664,0.02658 0.153128,0.04335 0.229771,0.06982 0.0765,0.02648 0.153114,0.04724 0.229612,0.07354 0.07663,0.02629 0.153121,0.05115 0.229751,0.07735 0.07648,0.0262 0.153003,0.05506 0.229632,0.08116 0.0765,0.026 0.153121,0.05906 0.229612,0.08496 0.07665,0.02591 0.153128,0.06296 0.229751,0.08868 0.0765,0.02572 0.153135,0.06687 0.229633,0.09249 0.07648,0.02552 0.153113,0.07087 0.229612,0.09621 0.07664,0.02544 0.153134,0.07487 0.229764,0.100029 0.07649,0.02515 0.15312,0.07888 0.229612,0.103848 0.07663,0.02486 0.15312,0.08278 0.229619,0.107563 0.07665,0.02476 0.153134,0.08678 0.229756,0.111374 0.07652,0.02457 0.153129,0.09078 0.229626,0.115184 0.07663,0.02438 0.153122,0.09478 0.229758,0.118956 0.0765,0.0242 0.152982,0.09875 0.229626,0.122766 0.07649,0.02401 0.153114,0.102772 0.229605,0.126519 0.07664,0.02372 0.153135,0.106782 0.229757,0.130349 0.07649,0.02353 0.153135,0.110792 0.229619,0.134111 0.0765,0.02333 0.153127,0.114841 0.229633,0.137922 0.07663,0.02315 0.15312,0.11885 0.229751,0.141731 0.07649,0.02296 0.15312,0.122871 0.229618,0.145504 0.07664,0.02267 0.153128,0.126919 0.229622,0.149361 0.0766,0.02238 0.15313,0.130978 0.22976,0.153115 0.0765,0.02209 0.15311,0.135045 0.22961,0.156944 0.0766,0.02191 0.15312,0.139093 0.22976,0.160764 0.0765,0.02172 0.15299,0.143142 0.22963,0.164517 0.0765,0.02143 0.15312,0.147257 0.22962,0.168376 0.0766,0.02124 0.15312,0.151314 0.22973,0.172194 0.0765,0.02086 0.15314,0.155382 0.22964,0.176004 0.0765,0.02067 0.15312,0.159488 0.22962,0.179826 0.0767,0.02029 0.15313,0.163592 0.22977,0.183635 0.0765,0.0201 0.15311,0.167688 0.2296,0.187501 0.0766,0.01971 0.15312,0.171757 0.22977,0.191256 0.0765,0.01944 0.15299,0.175909 0.22962,0.195123 0.0765,0.01915 0.15311,0.180024 0.22961,0.19899 0.0767,0.01896 0.15312,0.184121 0.22974,0.202753 0.0765,0.01867 0.15315,0.188283 0.22964,0.206648 0.0765,0.01839 0.15312,0.192399 0.22962,0.210488 0.0766,0.01801 0.15312,0.196543 0.22974,0.214288 0.0765,0.01781 0.15314,0.200696 0.22964,0.218147 0.0767,0.01752 0.15313,0.204905 0.22963,0.222013 0.0767,0.01706 0.15313,0.209011 0.22976,0.225834 0.0765,0.01686 0.15311,0.213202 0.22961,0.229739 0.0766,0.01648 0.15312,0.217365 0.22976,0.233559 0.0765,0.01609 0.15299,0.221566 0.22962,0.237406 0.0765,0.01582 0.15312,0.225786 0.2296,0.241275 0.0767,0.01553 0.15314,0.229986 0.22976,0.245189 0.0765,0.01514 0.15314,0.23414 0.22963,0.249 0.0765,0.01486 0.15312,0.23835 0.22963,0.252925 0.0767,0.01458 0.15313,0.242541 0.22975,0.256715 0.0765,0.01419 0.15312,0.246809 0.22962,0.260687 0.0767,0.01381 0.15313,0.25101 0.22964,0.264508 0.0766,0.01363 0.15311,0.255258 0.22974,0.268451 0.0765,0.01305 0.15312,0.259477 0.22961,0.272271 0.0766,0.01276 0.15312,0.263726 0.22978,0.276252 0.0765,0.01239 0.15297,0.267965 0.2296,0.280091 0.0765,0.012 0.15312,0.272214 0.22963,0.283959 0.0766,0.01181 0.15313,0.276529 0.22975,0.287922 0.0765,0.01143 0.15313,0.280776 0.22963,0.291826 0.0765,0.01105 0.15314,0.285036 0.22963,0.295695 0.0766,0.01076 0.15311,0.289331 0.22973,0.299647 0.0765,0.01038 0.15313,0.293589 0.22964,0.303562 0.0766,0.01001 0.15312,0.297848 0.22963,0.307478 0.0766,0.0096 0.15311,0.302153 0.22974,0.311393 0.0765,0.0095 0.15311,0.306486 0.22961,0.315345 0.0766,0.0085 0.15313,0.310745 0.22976,0.319251 0.0765,0.0085 0.153,0.315108 0.22963,0.323223 0.0765,0.0076 0.15312,0.319405 0.22961,0.32713 0.0766,0.0076 0.15313,0.323756 0.22974,0.331082 0.0765,0.0076 0.15316,0.328119 0.22965,0.335054 0.0765,0.0066 0.15312,0.332416 0.22963,0.339007 0.0766,0.0058 0.15311,0.336769 0.22973,0.34298 0.0765,0.0058 0.15314,0.341112 0.22962,0.346922 0.0766,0.0058 0.15314,0.345466 0.22963,0.350887 0.0766,0.0058 0.15311,0.349828 0.22976,0.354905 0.0765,0.0058 0.15312,0.354125 0.22961,0.358811 0.0766,0.0048 0.15313,0.358573 0.22976,0.362831 0.0765,0.0048 0.15299,0.362907 0.22962,0.366822 0.0765,0.0038 0.15313,0.367269 0.2296,0.370842 0.0766,0.0038 0.15316,0.371613 0.22977,0.374795 0.0765,0.0029 0.15312,0.376024 0.22963,0.378805 0.0765,0.0019 0.15313,0.380415 0.22961,0.382768 0.0766,0.0019 0.15314,0.384873 0.22976,0.386826 0.0765,0.0019 0.15314,0.389274 0.22963,0.390837 0.0767,0.0019 0.15312,0.393675 0.22963,0.394846 0.0767,7.52e-4 0.15313,0.398066 0.22976,0.398895 0.0765,7.61e-4 0.15311,0.402477 0.2296,0.402858 0.0767,4.47e-4 0.15314,0.406924 0.22977,0.406981 0.0765,0 0.15299,0.411317 0.22962,0.410974 0.0765,-3.91e-4 0.15312,0.415774 0.22962,0.414993 0.0767,-5.14e-4 0.15312,0.420204 0.22974,0.419089 0.0765,-7.62e-4 0.15313,0.424662 0.22963,0.4231 0.0765,-0.0019 0.15312,0.429119 0.22963,0.427214 0.0766,-0.0019 0.15313,0.433511 0.22974,0.431215 0.0765,-0.0019 0.15314,0.438007 0.22962,0.435322 0.0767,-0.0029 0.15313,0.44247 0.22963,0.439384 0.0767,-0.0029 0.15312,0.446961 0.22975,0.443436 0.0766,-0.0038 0.15313,0.45146 0.22963,0.44755 0.0766,-0.004 0.15312,0.455897 0.22973,0.451657 0.0765,-0.005 0.15298,0.46054 0.22962,0.45565 0.0765,-0.005 0.15313,0.46496 0.22962,0.46006 0.0766,-0.006 0.15316,0.46937 0.22975,0.46398 0.0765,-0.006 0.15312,0.47377 0.22963,0.4679 0.0765,-0.006 0.15312,0.47814 0.22963,0.47229 0.0766,-0.006 0.15311,0.48254 0.22974,0.47619 0.0766,-0.006 0.15315,0.48746 0.22963,0.48059 0.0766,-0.007 0.15312,0.49186 0.22963,0.48453 0.0766,-0.007 0.15311,0.49623 0.22976,0.48841 0.0765,-0.008 0.15312,0.50114 0.22961,0.49283 0.0767,-0.008 0.15312,0.50553 0.22976,0.49722 0.0765,-0.009 0.153,0.50993 0.22963,0.50112 0.0765,-0.009 0.15311,0.51434 0.22961,0.50505 0.0766,-0.009 0.15313,0.51922 0.22976,0.50946 0.0765,-0.01 0.15312,0.52361 0.22961,0.51384 0.0766,-0.01 0.15313,0.52801 0.22962,0.51774 0.0767,-0.0103 0.15311,0.53292 0.22976,0.52217 0.0765,-0.0108 0.15312,0.53731 0.22963,0.52605 0.0766,-0.0108 0.1531,0.54172 0.22975,0.53048 0.0765,-0.0112 0.153,0.5461 0.22961,0.53438 0.0765,-0.0112 0.15313,0.55099 0.22963,0.53926 0.0766,-0.0123 0.15312,0.5554 0.22975,0.5427 0.0766,-0.0123 0.15313,0.56029 0.22962,0.54757 0.0765,-0.0131 0.15313,0.5642 0.22962,0.55149 0.0767,-0.0132 0.15313,0.56909 0.22975,0.55539 0.0765,-0.0132 0.15313,0.57399 0.22964,0.55981 0.0767,-0.0137 0.15311,0.57838 0.22961,0.56419 0.0766,-0.0141 0.15312,0.58329 0.22976,0.56862 0.0765,-0.0146 0.15312,0.58765 0.22961,0.57299 0.0766,-0.0153 0.15312,0.59209 0.22977,0.57694 0.0765,-0.0153 0.15298,0.59643 0.22961,0.58081 0.0765,-0.0153 0.15313,0.60136 0.22962,0.58571 0.0766,-0.0156 0.15312,0.60577 0.22975,0.58961 0.0765,-0.0161 0.15314,0.61066 0.22964,0.59403 0.0766,-0.0161 0.15312,0.61555 0.22961,0.59844 0.0767,-0.0166 0.15315,0.61991 0.22977,0.60282 0.0765,-0.0171 0.15311,0.62434 0.22962,0.60723 0.0766,-0.0176 0.15313,0.62872 0.22961,0.61113 0.0767,-0.0177 0.15313,0.63364 0.22975,0.61554 0.0766,-0.018 0.15315,0.63853 0.22963,0.61994 0.0766,-0.0181 0.15312,0.64291 0.22975,0.62435 0.0765,-0.0186 0.15301,0.64731 0.22963,0.62872 0.0765,-0.019 0.15312,0.65221 0.22962,0.63267 0.0767,-0.019 0.15313,0.65709 0.22974,0.63753 0.0765,-0.0195 0.15313,0.6615 0.22964,0.64145 0.0766,-0.0195 0.15313,0.66639 0.2296,0.64633 0.0767,-0.02 0.15316,0.6708 0.22976,0.65025 0.0766,-0.02 0.15314,0.67569 0.22963,0.65467 0.0766,-0.0206 0.15312,0.68006 0.22964,0.65952 0.0766,-0.0209 0.15312,0.68449 0.22973,0.66348 0.0765,-0.0209 0.15313,0.68935 0.22963,0.66784 0.0766,-0.0209 0.1531,0.69425 0.22974,0.67272 0.0765,-0.0221 0.15301,0.69866 0.22964,0.67668 0.0766,-0.0221 0.15312,0.70303 0.2296,0.68103 0.0766,-0.0221 0.15314,0.70793 0.22977,0.68593 0.0765,-0.0224 0.15312,0.71235 0.22961,0.68984 0.0765,-0.0224 0.15313,0.71725 0.22964,0.69476 0.0767,-0.023 0.15311,0.72164 0.22974,0.69865 0.0765,-0.023 0.15314,0.72701 0.22963,0.70355 0.0767,-0.0234 0.15312,0.7314 0.22964,0.70794 0.0766,-0.0234 0.15312,0.73581 0.22974,0.71234 0.0765,-0.024 0.15312,0.7407 0.2296,0.71674 0.0767,-0.0239 0.15316,0.7456 0.22977,0.72116 0.0765,-0.024 0.15299,0.75045 0.22963,0.72601 0.0765,-0.0244 0.15312,0.75489 0.22963,0.73045 0.0767,-0.025 0.15311,0.75927 0.22974,0.73434 0.0765,-0.0244 0.15313,0.76465 0.22962,0.73971 0.0766,-0.025 0.15313,0.76856 0.22963,0.74363 0.0766,-0.025 0.15313,0.77346 0.22974,0.74854 0.0765,-0.0255 0.15312,0.77834 0.22962,0.75291 0.0767,-0.0259 0.15315,0.78274 0.22963,0.75731 0.0267,-0.009 0.0533,0.0839 0.08,0.20769" />
  </g>
  <g
     inkscape:groupmode="layer"
     id="layer2"
     inkscape:label="Livello 2" />
</svg>
