<?xml version="1.0" encoding="UTF-8" standalone="no"?>
<!-- Created with Inkscape (http://www.inkscape.org/) -->

<svg
   width="210mm"
   height="297mm"
   viewBox="0 0 210 297"
   version="1.1"
   id="svg5"
   sodipodi:docname="rotazione.svg"
   inkscape:export-filename="rotazione.pdf"
   inkscape:export-xdpi="96"
   inkscape:export-ydpi="96"
   inkscape:version="1.2.2 (b0a84865, 2022-12-01)"
   xmlns:inkscape="http://www.inkscape.org/namespaces/inkscape"
   xmlns:sodipodi="http://sodipodi.sourceforge.net/DTD/sodipodi-0.dtd"
   xmlns="http://www.w3.org/2000/svg"
   xmlns:svg="http://www.w3.org/2000/svg"
   xmlns:ns4="http://www.iki.fi/pav/software/textext/">
  <sodipodi:namedview
     id="namedview7"
     pagecolor="#ffffff"
     bordercolor="#000000"
     borderopacity="0.25"
     inkscape:showpageshadow="2"
     inkscape:pageopacity="0.0"
     inkscape:pagecheckerboard="0"
     inkscape:deskcolor="#d1d1d1"
     inkscape:document-units="mm"
     showgrid="false"
     inkscape:zoom="1.8943188"
     inkscape:cx="287.43842"
     inkscape:cy="241.77557"
     inkscape:current-layer="layer1" />
  <defs
     id="defs2">
    <marker
       style="overflow:visible"
       id="Arrow1L"
       refX="0"
       refY="0"
       orient="auto-start-reverse"
       inkscape:stockid="Arrow1L"
       markerWidth="8.75"
       markerHeight="5"
       viewBox="0 0 8.75 5"
       inkscape:isstock="true"
       inkscape:collect="always"
       preserveAspectRatio="xMidYMid">
      <path
         style="fill:context-stroke;fill-rule:evenodd;stroke:none;stroke-width:0.5"
         d="M 3.75,0 6.25,2.5 -2.5,0 6.25,-2.5 Z"
         id="arrow1L" />
    </marker>
    <marker
       style="overflow:visible"
       id="Arrow1L-9"
       refX="0"
       refY="0"
       orient="auto-start-reverse"
       inkscape:stockid="Arrow1L"
       markerWidth="8.75"
       markerHeight="5"
       viewBox="0 0 8.75 5"
       inkscape:isstock="true"
       inkscape:collect="always"
       preserveAspectRatio="xMidYMid">
      <path
         style="fill:context-stroke;fill-rule:evenodd;stroke:none"
         d="M 0,0 5,-5 -12.5,0 5,5 Z"
         id="arrow1L-3"
         transform="scale(-0.5)" />
    </marker>
    <marker
       style="overflow:visible"
       id="Arrow1L-9-9"
       refX="0"
       refY="0"
       orient="auto-start-reverse"
       inkscape:stockid="Arrow1L"
       markerWidth="8.75"
       markerHeight="5"
       viewBox="0 0 8.75 5"
       inkscape:isstock="true"
       inkscape:collect="always"
       preserveAspectRatio="xMidYMid">
      <path
         style="fill:context-stroke;fill-rule:evenodd;stroke:none"
         d="M 0,0 5,-5 -12.5,0 5,5 Z"
         id="arrow1L-3-3"
         transform="scale(-0.5)" />
    </marker>
    <marker
       style="overflow:visible"
       id="Arrow1L-9-9-1"
       refX="0"
       refY="0"
       orient="auto-start-reverse"
       inkscape:stockid="Arrow1L"
       markerWidth="8.75"
       markerHeight="5"
       viewBox="0 0 8.75 5"
       inkscape:isstock="true"
       inkscape:collect="always"
       preserveAspectRatio="xMidYMid">
      <path
         style="fill:context-stroke;fill-rule:evenodd;stroke:none"
         d="M 0,0 5,-5 -12.5,0 5,5 Z"
         id="arrow1L-3-3-7"
         transform="scale(-0.5)" />
    </marker>
  </defs>
  <g
     inkscape:label="Livello 1"
     inkscape:groupmode="layer"
     id="layer1">
    <path
       id="path30668-9"
       style="fill:#4d4d4d;fill-rule:evenodd;stroke:#4d4d4d;stroke-width:0.459;stroke-miterlimit:3.9;stroke-dasharray:none;stroke-dashoffset:0;marker-end:url(#Arrow1L-9);paint-order:fill markers stroke"
       d="M 78.384509,30.264004 78.154775,101.86437 Z"
       sodipodi:nodetypes="ccc" />
    <path
       id="path30668-9-8"
       style="fill:#4d4d4d;fill-rule:evenodd;stroke:#4d4d4d;stroke-width:0.459;stroke-miterlimit:3.9;stroke-dasharray:none;stroke-dashoffset:0;marker-end:url(#Arrow1L-9-9);paint-order:fill markers stroke"
       d="M 110.47894,65.940308 52.208957,65.98257 Z"
       sodipodi:nodetypes="ccc" />
    <path
       id="path30668-9-8-2"
       style="fill:#4d4d4d;fill-rule:evenodd;stroke:#4d4d4d;stroke-width:0.459;stroke-miterlimit:3.9;stroke-dasharray:none;stroke-dashoffset:0;marker-end:url(#Arrow1L-9-9-1);paint-order:fill markers stroke"
       d="M 60.098613,80.756264 84.055753,61.536925 Z"
       sodipodi:nodetypes="ccc" />
    <path
       style="fill:none;fill-opacity:1;fill-rule:evenodd;stroke:#0000ff;stroke-width:0.458999;stroke-dasharray:none;paint-order:stroke fill markers"
       d="M 74.892075,35.215913 C 74.00492,51.867574 56.464263,54.425571 56.676588,66.486848 c 0.198459,11.273616 14.285821,10.96032 18.044138,28.611421"
       id="path26666" />
    <path
       style="fill:none;fill-opacity:1;fill-rule:evenodd;stroke:#80b3ff;stroke-width:0.458999;stroke-dasharray:none;paint-order:stroke fill markers"
       d="M 81.43789,35.130375 C 82.32505,51.782036 99.8657,54.340033 99.65338,66.40131 99.45492,77.674926 85.36756,77.36163 81.60924,95.012731"
       id="path1835-9" />
    <path
       style="fill:none;fill-opacity:1;fill-rule:evenodd;stroke:#80b3ff;stroke-width:0.458999;stroke-dasharray:none;paint-order:stroke fill markers"
       d="M 74.892075,35.215909 C 74.00492,51.867568 63.510739,58.891513 64.740084,70.891857 c 0.992259,9.68601 6.317855,6.36425 9.980642,24.206411"
       id="path26381"
       sodipodi:nodetypes="csc" />
    <path
       style="fill:none;fill-opacity:1;fill-rule:evenodd;stroke:#80b3ff;stroke-width:0.458999;stroke-dasharray:none;paint-order:stroke fill markers"
       d="m 77.88908,35.130375 c -0.887155,16.651658 -7.782413,25.213819 -6.553068,37.214163 0.992259,9.68601 2.718932,4.826034 6.381719,22.668196"
       id="path26381-3"
       sodipodi:nodetypes="csc" />
    <path
       id="path2696"
       style="fill:none;fill-rule:evenodd;stroke:#000000;stroke-width:0.458999;marker-start:;marker-mid:url(#Arrow1L);paint-order:stroke fill markers"
       d="m 99.623021,66.984559 c -1.031579,1.969564 -5.20667,3.593219 -10.88249,4.49741 -3.608016,0.574778 -7.822463,0.858828 -12.221355,0.756192 -4.898159,-0.114285 -9.300555,-0.691108 -12.706875,-1.572728 -4.465134,-1.15566 -7.218716,-2.835049 -7.133839,-4.682863"
       sodipodi:nodetypes="csssc" />
    <g
       transform="matrix(0.60974096,0,0,0.56867571,54.388386,46.535466)"
       ns4:version="1.8.2"
       ns4:texconverter="pdflatex"
       ns4:pdfconverter="inkscape"
       ns4:text="$f(z)$"
       ns4:preamble="/Users/pietroscapolo/Library/Application Support/org.inkscape.Inkscape/config/inkscape/extensions/textext/default_packages.tex"
       ns4:scale="1.390234706609977"
       ns4:alignment="middle center"
       ns4:stroke-to-path="0"
       ns4:jacobian_sqrt="0.490444"
       id="g4625"
       style="fill:#0044aa">
      <defs
         id="id-a3fadfb5-5fcc-4918-86f9-845aa768d107">
        <g
           id="id-b3f21ee4-5156-44af-9f10-b589631bd0d3">
          <g
             id="id-0859e36a-3fb8-43ba-b6eb-66e21684d669" />
          <g
             id="id-d572beea-09a8-4c77-b5f7-7220d5c3a974">
            <path
               d="m 3.65625,-3.984375 h 0.859375 c 0.203125,0 0.296875,0 0.296875,-0.203125 0,-0.109375 -0.09375,-0.109375 -0.265625,-0.109375 H 3.71875 L 3.921875,-5.4375 c 0.046875,-0.203125 0.1875,-0.90625 0.25,-1.03125 0.078125,-0.1875 0.25,-0.34375 0.46875,-0.34375 0.03125,0 0.296875,0 0.484375,0.1875 -0.4375,0.03125 -0.546875,0.390625 -0.546875,0.53125 0,0.234375 0.1875,0.359375 0.375,0.359375 C 5.21875,-5.734375 5.5,-5.96875 5.5,-6.34375 c 0,-0.453125 -0.453125,-0.6875 -0.859375,-0.6875 -0.34375,0 -0.96875,0.1875 -1.265625,1.171875 -0.0625,0.203125 -0.09375,0.3125 -0.328125,1.5625 h -0.6875 c -0.203125,0 -0.3125,0 -0.3125,0.1875 0,0.125 0.09375,0.125 0.28125,0.125 h 0.65625 L 2.25,-0.046875 c -0.1875,0.96875 -0.359375,1.875 -0.875,1.875 -0.046875,0 -0.28125,0 -0.484375,-0.1875 C 1.359375,1.609375 1.453125,1.25 1.453125,1.109375 1.453125,0.875 1.265625,0.75 1.078125,0.75 0.8125,0.75 0.53125,0.984375 0.53125,1.359375 c 0,0.4375 0.4375,0.6875 0.84375,0.6875 0.546875,0 0.953125,-0.59375 1.125,-0.96875 0.328125,-0.625 0.546875,-1.828125 0.5625,-1.90625 z m 0,0"
               id="id-c306ea12-f4ef-484c-b8f2-aa8a7d0c563d" />
          </g>
          <g
             id="id-01b4a385-84cb-4a51-979c-585c4f2c4a73">
            <path
               d="m 1.328125,-0.828125 c 0.53125,-0.578125 0.828125,-0.828125 1.1875,-1.140625 0,0 0.609375,-0.53125 0.96875,-0.890625 C 4.4375,-3.78125 4.65625,-4.265625 4.65625,-4.3125 c 0,-0.09375 -0.09375,-0.09375 -0.109375,-0.09375 -0.078125,0 -0.09375,0.015625 -0.15625,0.109375 -0.296875,0.484375 -0.5,0.640625 -0.734375,0.640625 -0.25,0 -0.359375,-0.15625 -0.515625,-0.328125 -0.1875,-0.21875 -0.359375,-0.421875 -0.6875,-0.421875 -0.75,0 -1.203125,0.921875 -1.203125,1.140625 0,0.046875 0.03125,0.109375 0.109375,0.109375 0.09375,0 0.109375,-0.046875 0.140625,-0.109375 0.1875,-0.46875 0.765625,-0.46875 0.84375,-0.46875 0.203125,0 0.390625,0.0625 0.625,0.140625 0.40625,0.15625 0.515625,0.15625 0.765625,0.15625 -0.359375,0.421875 -1.1875,1.140625 -1.375,1.296875 l -0.90625,0.84375 C 0.78125,-0.625 0.421875,-0.0625 0.421875,0.015625 c 0,0.09375 0.109375,0.09375 0.125,0.09375 0.078125,0 0.09375,-0.015625 0.15625,-0.125 0.234375,-0.359375 0.53125,-0.625 0.859375,-0.625 0.21875,0 0.328125,0.09375 0.578125,0.375 0.15625,0.21875 0.34375,0.375 0.625,0.375 1,0 1.578125,-1.265625 1.578125,-1.53125 0,-0.046875 -0.046875,-0.109375 -0.125,-0.109375 -0.09375,0 -0.109375,0.0625 -0.140625,0.140625 C 3.84375,-0.75 3.203125,-0.5625 2.875,-0.5625 c -0.1875,0 -0.375,-0.0625 -0.578125,-0.125 -0.34375,-0.125 -0.5,-0.171875 -0.703125,-0.171875 -0.015625,0 -0.171875,0 -0.265625,0.03125 z m 0,0"
               id="id-affc4d05-cc38-4ccb-985c-07f18f52dbeb" />
          </g>
          <g
             id="id-fb9a1eb3-30d3-4899-870a-1002109a9732" />
          <g
             id="id-addbe22a-6c89-4a98-91a8-469e1229b81c">
            <path
               d="m 3.296875,2.390625 c 0,-0.03125 0,-0.046875 -0.171875,-0.21875 C 1.890625,0.921875 1.5625,-0.96875 1.5625,-2.5 c 0,-1.734375 0.375,-3.46875 1.609375,-4.703125 0.125,-0.125 0.125,-0.140625 0.125,-0.171875 0,-0.078125 -0.03125,-0.109375 -0.09375,-0.109375 -0.109375,0 -1,0.6875 -1.59375,1.953125 -0.5,1.09375 -0.625,2.203125 -0.625,3.03125 0,0.78125 0.109375,1.984375 0.65625,3.125 C 2.25,1.84375 3.09375,2.5 3.203125,2.5 c 0.0625,0 0.09375,-0.03125 0.09375,-0.109375 z m 0,0"
               id="id-e78c2c98-2dc7-42dc-8deb-9d744bbc2bd0" />
          </g>
          <g
             id="id-260d8465-43a7-4fc6-b468-a8e46cd6a98a">
            <path
               d="m 2.875,-2.5 c 0,-0.765625 -0.109375,-1.96875 -0.65625,-3.109375 -0.59375,-1.21875 -1.453125,-1.875 -1.546875,-1.875 -0.0625,0 -0.109375,0.046875 -0.109375,0.109375 0,0.03125 0,0.046875 0.1875,0.234375 0.984375,0.984375 1.546875,2.5625 1.546875,4.640625 0,1.71875 -0.359375,3.46875 -1.59375,4.71875 C 0.5625,2.34375 0.5625,2.359375 0.5625,2.390625 0.5625,2.453125 0.609375,2.5 0.671875,2.5 0.765625,2.5 1.671875,1.8125 2.25,0.546875 2.765625,-0.546875 2.875,-1.65625 2.875,-2.5 Z m 0,0"
               id="id-e33fe734-6518-4a32-8397-f0991c50618d" />
          </g>
        </g>
      </defs>
      <g
         fill="#000000"
         fill-opacity="1"
         id="id-88e03843-730d-416b-8ae9-e590344920a5"
         transform="translate(-149.243,-127.281)"
         style="fill:#0044aa">
        <g
           transform="translate(148.712,134.765)"
           id="g4610"
           style="fill:#0044aa">
          <path
             d="m 3.65625,-3.984375 h 0.859375 c 0.203125,0 0.296875,0 0.296875,-0.203125 0,-0.109375 -0.09375,-0.109375 -0.265625,-0.109375 H 3.71875 L 3.921875,-5.4375 c 0.046875,-0.203125 0.1875,-0.90625 0.25,-1.03125 0.078125,-0.1875 0.25,-0.34375 0.46875,-0.34375 0.03125,0 0.296875,0 0.484375,0.1875 -0.4375,0.03125 -0.546875,0.390625 -0.546875,0.53125 0,0.234375 0.1875,0.359375 0.375,0.359375 C 5.21875,-5.734375 5.5,-5.96875 5.5,-6.34375 c 0,-0.453125 -0.453125,-0.6875 -0.859375,-0.6875 -0.34375,0 -0.96875,0.1875 -1.265625,1.171875 -0.0625,0.203125 -0.09375,0.3125 -0.328125,1.5625 h -0.6875 c -0.203125,0 -0.3125,0 -0.3125,0.1875 0,0.125 0.09375,0.125 0.28125,0.125 h 0.65625 L 2.25,-0.046875 c -0.1875,0.96875 -0.359375,1.875 -0.875,1.875 -0.046875,0 -0.28125,0 -0.484375,-0.1875 C 1.359375,1.609375 1.453125,1.25 1.453125,1.109375 1.453125,0.875 1.265625,0.75 1.078125,0.75 0.8125,0.75 0.53125,0.984375 0.53125,1.359375 c 0,0.4375 0.4375,0.6875 0.84375,0.6875 0.546875,0 0.953125,-0.59375 1.125,-0.96875 0.328125,-0.625 0.546875,-1.828125 0.5625,-1.90625 z m 0,0"
             id="id-77fb8a09-7f10-4cde-b892-5b5fddd19b8b"
             style="fill:#0044aa" />
        </g>
      </g>
      <g
         fill="#000000"
         fill-opacity="1"
         id="id-02f284ac-3f4a-4fcd-b89e-1b4c65527f11"
         transform="translate(-149.243,-127.281)"
         style="fill:#0044aa">
        <g
           transform="translate(154.662,134.765)"
           id="g4614"
           style="fill:#0044aa">
          <path
             d="m 3.296875,2.390625 c 0,-0.03125 0,-0.046875 -0.171875,-0.21875 C 1.890625,0.921875 1.5625,-0.96875 1.5625,-2.5 c 0,-1.734375 0.375,-3.46875 1.609375,-4.703125 0.125,-0.125 0.125,-0.140625 0.125,-0.171875 0,-0.078125 -0.03125,-0.109375 -0.09375,-0.109375 -0.109375,0 -1,0.6875 -1.59375,1.953125 -0.5,1.09375 -0.625,2.203125 -0.625,3.03125 0,0.78125 0.109375,1.984375 0.65625,3.125 C 2.25,1.84375 3.09375,2.5 3.203125,2.5 c 0.0625,0 0.09375,-0.03125 0.09375,-0.109375 z m 0,0"
             id="id-ba8ceedd-af6b-4a74-af24-b846150bc904"
             style="fill:#0044aa" />
        </g>
      </g>
      <g
         fill="#000000"
         fill-opacity="1"
         id="id-07d0d806-8501-44cb-a5f6-a8956f63df5b"
         transform="translate(-149.243,-127.281)"
         style="fill:#0044aa">
        <g
           transform="translate(158.537,134.765)"
           id="g4618"
           style="fill:#0044aa">
          <path
             d="m 1.328125,-0.828125 c 0.53125,-0.578125 0.828125,-0.828125 1.1875,-1.140625 0,0 0.609375,-0.53125 0.96875,-0.890625 C 4.4375,-3.78125 4.65625,-4.265625 4.65625,-4.3125 c 0,-0.09375 -0.09375,-0.09375 -0.109375,-0.09375 -0.078125,0 -0.09375,0.015625 -0.15625,0.109375 -0.296875,0.484375 -0.5,0.640625 -0.734375,0.640625 -0.25,0 -0.359375,-0.15625 -0.515625,-0.328125 -0.1875,-0.21875 -0.359375,-0.421875 -0.6875,-0.421875 -0.75,0 -1.203125,0.921875 -1.203125,1.140625 0,0.046875 0.03125,0.109375 0.109375,0.109375 0.09375,0 0.109375,-0.046875 0.140625,-0.109375 0.1875,-0.46875 0.765625,-0.46875 0.84375,-0.46875 0.203125,0 0.390625,0.0625 0.625,0.140625 0.40625,0.15625 0.515625,0.15625 0.765625,0.15625 -0.359375,0.421875 -1.1875,1.140625 -1.375,1.296875 l -0.90625,0.84375 C 0.78125,-0.625 0.421875,-0.0625 0.421875,0.015625 c 0,0.09375 0.109375,0.09375 0.125,0.09375 0.078125,0 0.09375,-0.015625 0.15625,-0.125 0.234375,-0.359375 0.53125,-0.625 0.859375,-0.625 0.21875,0 0.328125,0.09375 0.578125,0.375 0.15625,0.21875 0.34375,0.375 0.625,0.375 1,0 1.578125,-1.265625 1.578125,-1.53125 0,-0.046875 -0.046875,-0.109375 -0.125,-0.109375 -0.09375,0 -0.109375,0.0625 -0.140625,0.140625 C 3.84375,-0.75 3.203125,-0.5625 2.875,-0.5625 c -0.1875,0 -0.375,-0.0625 -0.578125,-0.125 -0.34375,-0.125 -0.5,-0.171875 -0.703125,-0.171875 -0.015625,0 -0.171875,0 -0.265625,0.03125 z m 0,0"
             id="id-66e89d0d-80df-4135-8c99-1b87ad47be01"
             style="fill:#0044aa" />
        </g>
      </g>
      <g
         fill="#000000"
         fill-opacity="1"
         id="id-b71e709d-b985-4e7a-b251-65c6c201b216"
         transform="translate(-149.243,-127.281)"
         style="fill:#0044aa">
        <g
           transform="translate(163.608,134.765)"
           id="g4622"
           style="fill:#0044aa">
          <path
             d="m 2.875,-2.5 c 0,-0.765625 -0.109375,-1.96875 -0.65625,-3.109375 -0.59375,-1.21875 -1.453125,-1.875 -1.546875,-1.875 -0.0625,0 -0.109375,0.046875 -0.109375,0.109375 0,0.03125 0,0.046875 0.1875,0.234375 0.984375,0.984375 1.546875,2.5625 1.546875,4.640625 0,1.71875 -0.359375,3.46875 -1.59375,4.71875 C 0.5625,2.34375 0.5625,2.359375 0.5625,2.390625 0.5625,2.453125 0.609375,2.5 0.671875,2.5 0.765625,2.5 1.671875,1.8125 2.25,0.546875 2.765625,-0.546875 2.875,-1.65625 2.875,-2.5 Z m 0,0"
             id="id-851f1b78-4bfe-4332-9097-ad6bb3271e41"
             style="fill:#0044aa" />
        </g>
      </g>
    </g>
    <path
       style="fill:none;fill-opacity:1;fill-rule:evenodd;stroke:#80b3ff;stroke-width:0.458999;stroke-dasharray:none;paint-order:stroke fill markers"
       d="m 78.347429,35.130375 c 0.88716,16.651658 7.78242,25.21382 6.55307,37.214164 -0.99226,9.686009 -2.71893,4.826033 -6.38172,22.668195"
       id="path26381-3-5"
       sodipodi:nodetypes="csc" />
    <path
       style="fill:none;fill-opacity:1;fill-rule:evenodd;stroke:#80b3ff;stroke-width:0.458999;stroke-dasharray:none;paint-order:stroke fill markers"
       d="m 81.43789,35.130375 c 0.88716,16.651659 11.38134,23.675604 10.15199,35.675948 -0.99226,9.68601 -6.31785,6.36425 -9.98064,24.206411"
       id="path26381-5"
       sodipodi:nodetypes="csc" />
  </g>
</svg>
