<?xml version="1.0" encoding="UTF-8" standalone="no"?>
<!-- Created with Inkscape (http://www.inkscape.org/) -->

<svg
   width="210mm"
   height="297mm"
   viewBox="0 0 210 297"
   version="1.1"
   id="svg12967"
   sodipodi:docname="toro.svg"
   inkscape:export-filename="toro.pdf"
   inkscape:export-xdpi="96"
   inkscape:export-ydpi="96"
   inkscape:version="1.2.2 (b0a84865, 2022-12-01)"
   xmlns:inkscape="http://www.inkscape.org/namespaces/inkscape"
   xmlns:sodipodi="http://sodipodi.sourceforge.net/DTD/sodipodi-0.dtd"
   xmlns="http://www.w3.org/2000/svg"
   xmlns:svg="http://www.w3.org/2000/svg"
   xmlns:ns10="http://www.iki.fi/pav/software/textext/">
  <sodipodi:namedview
     id="namedview12969"
     pagecolor="#ffffff"
     bordercolor="#000000"
     borderopacity="0.25"
     inkscape:showpageshadow="2"
     inkscape:pageopacity="0.0"
     inkscape:pagecheckerboard="0"
     inkscape:deskcolor="#d1d1d1"
     inkscape:document-units="mm"
     showgrid="false"
     inkscape:zoom="1.8997527"
     inkscape:cx="417.15956"
     inkscape:cy="278.98368"
     inkscape:current-layer="layer1" />
  <defs
     id="defs12964">
    <filter
       x="-0.76251072"
       width="2.5249459"
       y="-1.4891685"
       height="3.9783114"
       inkscape:menu="Morphology"
       inkscape:menu-tooltip="Blurred multiple contours for objects"
       inkscape:label="Contouring Table"
       style="color-interpolation-filters:sRGB"
       id="filter13045">
      <feGaussianBlur
         result="result8"
         stdDeviation="5"
         in="SourceGraphic"
         id="feGaussianBlur13025" />
      <feComposite
         operator="xor"
         in2="SourceGraphic"
         result="result22"
         id="feComposite13027" />
      <feComposite
         k2="1"
         operator="arithmetic"
         result="result20"
         in2="result22"
         in="result22"
         id="feComposite13029"
         k1="0"
         k3="0"
         k4="0" />
      <feComposite
         in2="result22"
         in="result20"
         operator="over"
         result="result6"
         id="feComposite13031" />
      <feOffset
         in="result6"
         result="result21"
         id="feOffset13033" />
      <feDisplacementMap
         in2="result20"
         result="result4"
         scale="100"
         yChannelSelector="A"
         xChannelSelector="A"
         in="result21"
         id="feDisplacementMap13035" />
      <feComposite
         in2="SourceGraphic"
         k1="1"
         operator="arithmetic"
         result="fbSourceGraphic"
         k3="0.5"
         in="result4"
         id="feComposite13037"
         k2="0"
         k4="0" />
      <feComposite
         in2="result4"
         result="result12"
         operator="in"
         in="fbSourceGraphic"
         id="feComposite13039" />
      <feComposite
         in2="SourceGraphic"
         operator="in"
         result="result18"
         id="feComposite13041" />
      <feComposite
         result="fbSourceGraphic"
         in2="SourceGraphic"
         operator="in"
         in="result18"
         id="feComposite13043" />
      <feColorMatrix
         result="fbSourceGraphicAlpha"
         in="fbSourceGraphic"
         values="0 0 0 -1 0 0 0 0 -1 0 0 0 0 -1 0 0 0 0 1 0"
         id="feColorMatrix13047" />
      <feGaussianBlur
         id="feGaussianBlur13049"
         stdDeviation="5"
         result="result8"
         in="fbSourceGraphic" />
      <feComposite
         in2="result8"
         id="feComposite13051"
         operator="xor"
         result="result23" />
      <feComposite
         in2="result8"
         id="feComposite13053"
         k2="1"
         operator="arithmetic"
         result="result17"
         k1="0"
         k3="0"
         k4="0" />
      <feOffset
         id="feOffset13055"
         result="result18"
         in="result17" />
      <feDisplacementMap
         in2="result17"
         id="feDisplacementMap13057"
         in="result18"
         xChannelSelector="A"
         yChannelSelector="A"
         scale="100"
         result="result4" />
      <feComposite
         in2="result4"
         id="feComposite13059"
         result="fbSourceGraphic"
         operator="arithmetic"
         in="result4"
         k1="1"
         k3="1"
         k2="0"
         k4="0" />
      <feComposite
         in2="fbSourceGraphic"
         id="feComposite13061"
         result="result9"
         operator="over" />
      <feComposite
         in2="fbSourceGraphic"
         id="feComposite13063"
         operator="in"
         result="result15" />
      <feComposite
         in2="fbSourceGraphic"
         id="feComposite13065"
         result="fbSourceGraphic"
         operator="in"
         in="result15" />
      <feColorMatrix
         result="fbSourceGraphicAlpha"
         in="fbSourceGraphic"
         values="0 0 0 -1 0 0 0 0 -1 0 0 0 0 -1 0 0 0 0 1 0"
         id="feColorMatrix13067" />
      <feFlood
         id="feFlood13069"
         result="result2"
         flood-color="rgb(255,255,255)"
         in="fbSourceGraphic" />
      <feGaussianBlur
         id="feGaussianBlur13071"
         result="result1"
         in="fbSourceGraphicAlpha"
         stdDeviation="17" />
      <feComposite
         in2="result1"
         id="feComposite13073"
         result="result17"
         operator="in" />
      <feComposite
         in2="result2"
         id="feComposite13075"
         in="result17"
         result="fbSourceGraphic"
         operator="over" />
      <feComponentTransfer
         id="feComponentTransfer13077"
         in="fbSourceGraphic"
         result="result9">
        <feFuncR
           id="feFuncR13079"
           type="table"
           tableValues="0 1 0 1 0 1 0 1 0 1 0 1 0 1 0 1 0 1 1" />
        <feFuncG
           id="feFuncG13081"
           type="table"
           tableValues="0 1 0 1 0 1 0 1 0 1 0 1 0 1 0 1 0 1 1" />
        <feFuncB
           id="feFuncB13083"
           type="table"
           tableValues="0 1 0 1 0 1 0 1 0 1 0 1 0 1 0 1 0 1 1" />
      </feComponentTransfer>
      <feColorMatrix
         id="feColorMatrix13085"
         result="result6"
         values="1 0 0 0 0 0 1 0 0 0 0 0 1 0 0 -0.21 -0.72 -0.07 1 0 "
         in="result9" />
      <feFlood
         id="feFlood13087"
         flood-color="rgb(128,128,128)"
         result="result8" />
      <feComposite
         in2="result6"
         id="feComposite13089"
         result="result12"
         operator="in" />
    </filter>
  </defs>
  <g
     inkscape:label="Livello 1"
     inkscape:groupmode="layer"
     id="layer1">
    <ellipse
       style="fill:none;fill-rule:evenodd;stroke:#000000;stroke-width:0.259;stroke-miterlimit:3.9;stroke-dasharray:none;paint-order:fill markers stroke"
       id="path13091"
       cx="113.0073"
       cy="75.133591"
       rx="42.293335"
       ry="17.187422" />
    <ellipse
       style="fill:none;fill-rule:evenodd;stroke:#d40000;stroke-width:0.259;stroke-miterlimit:3.9;stroke-dasharray:1.03600001,0.259;paint-order:fill markers stroke;stroke-dashoffset:0"
       id="path13091-0"
       cx="112.33199"
       cy="75.133446"
       rx="33.364002"
       ry="11.171183" />
    <path
       style="fill:none;fill-rule:evenodd;stroke:#000000;stroke-width:0.259;stroke-miterlimit:3.9;stroke-dasharray:none;paint-order:fill markers stroke"
       id="path13091-5"
       sodipodi:type="arc"
       sodipodi:cx="112.61024"
       sodipodi:cy="55.010597"
       sodipodi:rx="41.704235"
       sodipodi:ry="24.062391"
       sodipodi:start="0.89549977"
       sodipodi:end="2.2304894"
       sodipodi:arc-type="arc"
       d="M 138.68076,73.791813 A 41.704235,24.062391 0 0 1 87.050781,74.024227"
       sodipodi:open="true" />
    <path
       style="fill:none;fill-rule:evenodd;stroke:#000000;stroke-width:0.259;stroke-miterlimit:3.9;stroke-dasharray:none;paint-order:fill markers stroke"
       id="path13091-5-2"
       sodipodi:type="arc"
       sodipodi:cx="113.68331"
       sodipodi:cy="83.865807"
       sodipodi:rx="31.952423"
       sodipodi:ry="13.62717"
       sodipodi:start="3.85806"
       sodipodi:end="5.5262048"
       sodipodi:arc-type="arc"
       d="m 89.587018,74.916508 a 31.952423,13.62717 0 0 1 23.449092,-4.675075 31.952423,13.62717 0 0 1 23.87383,4.266192"
       sodipodi:open="true" />
    <ellipse
       style="fill:none;fill-rule:evenodd;stroke:#d40000;stroke-width:0.271804;stroke-miterlimit:3.9;stroke-dasharray:1.08722, 0.271804;stroke-dashoffset:0;paint-order:fill markers stroke"
       id="path13161"
       cx="97.166992"
       cy="84.140709"
       rx="2.9337962"
       ry="6.7782969" />
    <g
       transform="matrix(0.490444,0,0,0.490444,146.7713,71.777648)"
       ns10:version="1.8.2"
       ns10:texconverter="pdflatex"
       ns10:pdfconverter="inkscape"
       ns10:text="$\\mathcal{S}^1$"
       ns10:preamble="/Users/pietroscapolo/Library/Application Support/org.inkscape.Inkscape/config/inkscape/extensions/textext/default_packages.tex"
       ns10:scale="1.390234706609977"
       ns10:alignment="middle center"
       ns10:stroke-to-path="0"
       ns10:jacobian_sqrt="0.490444"
       id="g15297"
       style="fill:#d40000">
      <defs
         id="id-fcb0212e-0881-405c-82bc-39c5725b2275">
        <g
           id="id-0de65d03-41ae-4e20-bfe9-222e401e0a7f">
          <g
             id="id-87014f7e-4fbb-4e5d-91ff-169224b8e773" />
          <g
             id="id-b180f216-79fc-4940-a57c-f4a793908884">
            <path
               d="m 1.140625,-2.1875 c 0.125,-0.046875 0.46875,-0.265625 0.46875,-0.40625 0,-0.0625 -0.046875,-0.0625 -0.109375,-0.0625 -0.34375,0 -1.328125,0.421875 -1.328125,1.421875 0,0.71875 0.8125,1.453125 2.03125,1.453125 1.625,0 3.515625,-1.125 3.515625,-2.484375 0,-0.9375 -1,-1.40625 -1.8125,-1.765625 C 3.203125,-4.34375 2.75,-4.75 2.75,-5.328125 2.75,-5.53125 2.84375,-5.921875 3.15625,-6.1875 3.453125,-6.453125 4,-6.484375 4.140625,-6.484375 c 0.109375,0 0.53125,0.015625 0.96875,0.203125 0.1875,0.09375 0.4375,0.203125 0.4375,0.640625 0,0.140625 0,0.1875 -0.03125,0.296875 C 5.5,-5.3125 5.5,-5.28125 5.5,-5.25 c 0,0.078125 0.046875,0.078125 0.09375,0.078125 0.125,0 0.375,-0.109375 0.5625,-0.265625 0.140625,-0.109375 0.25,-0.234375 0.25,-0.625 0,-0.484375 -0.265625,-0.625 -0.53125,-0.75 -0.46875,-0.21875 -0.9375,-0.21875 -1.0625,-0.21875 -1.3125,0 -2.90625,1 -2.90625,2.140625 0,0.828125 0.859375,1.234375 1.34375,1.4375 0.703125,0.328125 1.609375,0.78125 1.609375,1.625 0,0.65625 -0.484375,1.5 -2,1.5 -1.015625,0 -1.828125,-0.65625 -1.828125,-1.34375 0,-0.171875 0.046875,-0.359375 0.109375,-0.515625 z m 0,0"
               id="id-828bf3c3-11ca-482d-9f73-d60650fbd560" />
          </g>
          <g
             id="id-08a169f5-972e-4e16-afbe-16306c4bcc5f" />
          <g
             id="id-79231e83-1442-4896-a76b-bd12f37802ec">
            <path
               d="m 2.328125,-4.4375 c 0,-0.1875 0,-0.1875 -0.203125,-0.1875 -0.453125,0.4375 -1.078125,0.4375 -1.359375,0.4375 v 0.25 c 0.15625,0 0.625,0 1,-0.1875 v 3.546875 c 0,0.234375 0,0.328125 -0.6875,0.328125 H 0.8125 V 0 c 0.125,0 0.984375,-0.03125 1.234375,-0.03125 0.21875,0 1.09375,0.03125 1.25,0.03125 V -0.25 H 3.03125 c -0.703125,0 -0.703125,-0.09375 -0.703125,-0.328125 z m 0,0"
               id="id-6ad39b12-e34a-48ec-b10c-689cd4f85756" />
          </g>
        </g>
      </defs>
      <g
         fill="#000000"
         fill-opacity="1"
         id="id-34c52e3c-cc04-4084-bc67-da9482c03b83"
         transform="translate(-148.884,-126.524)"
         style="fill:#d40000">
        <g
           transform="translate(148.712,134.765)"
           id="g15290"
           style="fill:#d40000">
          <path
             d="m 1.140625,-2.1875 c 0.125,-0.046875 0.46875,-0.265625 0.46875,-0.40625 0,-0.0625 -0.046875,-0.0625 -0.109375,-0.0625 -0.34375,0 -1.328125,0.421875 -1.328125,1.421875 0,0.71875 0.8125,1.453125 2.03125,1.453125 1.625,0 3.515625,-1.125 3.515625,-2.484375 0,-0.9375 -1,-1.40625 -1.8125,-1.765625 C 3.203125,-4.34375 2.75,-4.75 2.75,-5.328125 2.75,-5.53125 2.84375,-5.921875 3.15625,-6.1875 3.453125,-6.453125 4,-6.484375 4.140625,-6.484375 c 0.109375,0 0.53125,0.015625 0.96875,0.203125 0.1875,0.09375 0.4375,0.203125 0.4375,0.640625 0,0.140625 0,0.1875 -0.03125,0.296875 C 5.5,-5.3125 5.5,-5.28125 5.5,-5.25 c 0,0.078125 0.046875,0.078125 0.09375,0.078125 0.125,0 0.375,-0.109375 0.5625,-0.265625 0.140625,-0.109375 0.25,-0.234375 0.25,-0.625 0,-0.484375 -0.265625,-0.625 -0.53125,-0.75 -0.46875,-0.21875 -0.9375,-0.21875 -1.0625,-0.21875 -1.3125,0 -2.90625,1 -2.90625,2.140625 0,0.828125 0.859375,1.234375 1.34375,1.4375 0.703125,0.328125 1.609375,0.78125 1.609375,1.625 0,0.65625 -0.484375,1.5 -2,1.5 -1.015625,0 -1.828125,-0.65625 -1.828125,-1.34375 0,-0.171875 0.046875,-0.359375 0.109375,-0.515625 z m 0,0"
             id="id-7b108918-78dd-4aa4-916b-0fc3d24d350c"
             style="fill:#d40000" />
        </g>
      </g>
      <g
         fill="#000000"
         fill-opacity="1"
         id="id-48159f08-3999-4665-bff2-8daf63393140"
         transform="translate(-148.884,-126.524)"
         style="fill:#d40000">
        <g
           transform="translate(155.492,131.149)"
           id="g15294"
           style="fill:#d40000">
          <path
             d="m 2.328125,-4.4375 c 0,-0.1875 0,-0.1875 -0.203125,-0.1875 -0.453125,0.4375 -1.078125,0.4375 -1.359375,0.4375 v 0.25 c 0.15625,0 0.625,0 1,-0.1875 v 3.546875 c 0,0.234375 0,0.328125 -0.6875,0.328125 H 0.8125 V 0 c 0.125,0 0.984375,-0.03125 1.234375,-0.03125 0.21875,0 1.09375,0.03125 1.25,0.03125 V -0.25 H 3.03125 c -0.703125,0 -0.703125,-0.09375 -0.703125,-0.328125 z m 0,0"
             id="id-b82969e9-9494-41a7-b3fb-534fea187e48"
             style="fill:#d40000" />
        </g>
      </g>
    </g>
    <g
       transform="matrix(0.490444,0,0,0.490444,101.30869,80.145302)"
       ns10:version="1.8.2"
       ns10:texconverter="pdflatex"
       ns10:pdfconverter="inkscape"
       ns10:text="$\\mathcal{S}^2$"
       ns10:preamble="/Users/pietroscapolo/Library/Application Support/org.inkscape.Inkscape/config/inkscape/extensions/textext/default_packages.tex"
       ns10:scale="1.390234706609977"
       ns10:alignment="middle center"
       ns10:stroke-to-path="0"
       ns10:jacobian_sqrt="0.490444"
       id="g15444"
       style="fill:#d40000">
      <defs
         id="id-7b1fa3cc-5d0d-40f6-8e60-477ca1980ed9">
        <g
           id="id-2b979ac3-570b-4ad5-a4d8-e034a1c4f11e">
          <g
             id="id-ce368b66-c9a1-4525-ab9d-ee06a09369a0" />
          <g
             id="id-2e2d6bb4-a2d8-4db7-bc17-cfa1b1cf7327">
            <path
               d="m 1.140625,-2.1875 c 0.125,-0.046875 0.46875,-0.265625 0.46875,-0.40625 0,-0.0625 -0.046875,-0.0625 -0.109375,-0.0625 -0.34375,0 -1.328125,0.421875 -1.328125,1.421875 0,0.71875 0.8125,1.453125 2.03125,1.453125 1.625,0 3.515625,-1.125 3.515625,-2.484375 0,-0.9375 -1,-1.40625 -1.8125,-1.765625 C 3.203125,-4.34375 2.75,-4.75 2.75,-5.328125 2.75,-5.53125 2.84375,-5.921875 3.15625,-6.1875 3.453125,-6.453125 4,-6.484375 4.140625,-6.484375 c 0.109375,0 0.53125,0.015625 0.96875,0.203125 0.1875,0.09375 0.4375,0.203125 0.4375,0.640625 0,0.140625 0,0.1875 -0.03125,0.296875 C 5.5,-5.3125 5.5,-5.28125 5.5,-5.25 c 0,0.078125 0.046875,0.078125 0.09375,0.078125 0.125,0 0.375,-0.109375 0.5625,-0.265625 0.140625,-0.109375 0.25,-0.234375 0.25,-0.625 0,-0.484375 -0.265625,-0.625 -0.53125,-0.75 -0.46875,-0.21875 -0.9375,-0.21875 -1.0625,-0.21875 -1.3125,0 -2.90625,1 -2.90625,2.140625 0,0.828125 0.859375,1.234375 1.34375,1.4375 0.703125,0.328125 1.609375,0.78125 1.609375,1.625 0,0.65625 -0.484375,1.5 -2,1.5 -1.015625,0 -1.828125,-0.65625 -1.828125,-1.34375 0,-0.171875 0.046875,-0.359375 0.109375,-0.515625 z m 0,0"
               id="id-ed4514f5-b921-488d-89cf-1a4077524ba5" />
          </g>
          <g
             id="id-ca764634-5692-4a4e-ace6-10665c9499e1" />
          <g
             id="id-e5ece388-339f-4e52-88d4-0063575684fc">
            <path
               d="M 3.515625,-1.265625 H 3.28125 c -0.015625,0.15625 -0.09375,0.5625 -0.1875,0.625 C 3.046875,-0.59375 2.515625,-0.59375 2.40625,-0.59375 H 1.125 c 0.734375,-0.640625 0.984375,-0.84375 1.390625,-1.171875 0.515625,-0.40625 1,-0.84375 1,-1.5 0,-0.84375 -0.734375,-1.359375 -1.625,-1.359375 -0.859375,0 -1.453125,0.609375 -1.453125,1.25 0,0.34375 0.296875,0.390625 0.375,0.390625 0.15625,0 0.359375,-0.125 0.359375,-0.375 0,-0.125 -0.046875,-0.375 -0.40625,-0.375 C 0.984375,-4.21875 1.453125,-4.375 1.78125,-4.375 c 0.703125,0 1.0625,0.546875 1.0625,1.109375 0,0.609375 -0.4375,1.078125 -0.65625,1.328125 L 0.515625,-0.265625 C 0.4375,-0.203125 0.4375,-0.1875 0.4375,0 h 2.875 z m 0,0"
               id="id-b3325e92-c0d2-4aee-91ad-81a6c6bec0e9" />
          </g>
        </g>
      </defs>
      <g
         fill="#000000"
         fill-opacity="1"
         id="id-2b78a28c-4a35-482d-84cc-0fc6af3041cc"
         transform="translate(-148.884,-126.524)"
         style="fill:#d40000">
        <g
           transform="translate(148.712,134.765)"
           id="g15437"
           style="fill:#d40000">
          <path
             d="m 1.140625,-2.1875 c 0.125,-0.046875 0.46875,-0.265625 0.46875,-0.40625 0,-0.0625 -0.046875,-0.0625 -0.109375,-0.0625 -0.34375,0 -1.328125,0.421875 -1.328125,1.421875 0,0.71875 0.8125,1.453125 2.03125,1.453125 1.625,0 3.515625,-1.125 3.515625,-2.484375 0,-0.9375 -1,-1.40625 -1.8125,-1.765625 C 3.203125,-4.34375 2.75,-4.75 2.75,-5.328125 2.75,-5.53125 2.84375,-5.921875 3.15625,-6.1875 3.453125,-6.453125 4,-6.484375 4.140625,-6.484375 c 0.109375,0 0.53125,0.015625 0.96875,0.203125 0.1875,0.09375 0.4375,0.203125 0.4375,0.640625 0,0.140625 0,0.1875 -0.03125,0.296875 C 5.5,-5.3125 5.5,-5.28125 5.5,-5.25 c 0,0.078125 0.046875,0.078125 0.09375,0.078125 0.125,0 0.375,-0.109375 0.5625,-0.265625 0.140625,-0.109375 0.25,-0.234375 0.25,-0.625 0,-0.484375 -0.265625,-0.625 -0.53125,-0.75 -0.46875,-0.21875 -0.9375,-0.21875 -1.0625,-0.21875 -1.3125,0 -2.90625,1 -2.90625,2.140625 0,0.828125 0.859375,1.234375 1.34375,1.4375 0.703125,0.328125 1.609375,0.78125 1.609375,1.625 0,0.65625 -0.484375,1.5 -2,1.5 -1.015625,0 -1.828125,-0.65625 -1.828125,-1.34375 0,-0.171875 0.046875,-0.359375 0.109375,-0.515625 z m 0,0"
             id="id-5460d6ef-c9b6-4fe0-83d9-cb55081091fb"
             style="fill:#d40000" />
        </g>
      </g>
      <g
         fill="#000000"
         fill-opacity="1"
         id="id-4c7e0ebf-3691-4136-aa5b-a1a1877eeb21"
         transform="translate(-148.884,-126.524)"
         style="fill:#d40000">
        <g
           transform="translate(155.492,131.149)"
           id="g15441"
           style="fill:#d40000">
          <path
             d="M 3.515625,-1.265625 H 3.28125 c -0.015625,0.15625 -0.09375,0.5625 -0.1875,0.625 C 3.046875,-0.59375 2.515625,-0.59375 2.40625,-0.59375 H 1.125 c 0.734375,-0.640625 0.984375,-0.84375 1.390625,-1.171875 0.515625,-0.40625 1,-0.84375 1,-1.5 0,-0.84375 -0.734375,-1.359375 -1.625,-1.359375 -0.859375,0 -1.453125,0.609375 -1.453125,1.25 0,0.34375 0.296875,0.390625 0.375,0.390625 0.15625,0 0.359375,-0.125 0.359375,-0.375 0,-0.125 -0.046875,-0.375 -0.40625,-0.375 C 0.984375,-4.21875 1.453125,-4.375 1.78125,-4.375 c 0.703125,0 1.0625,0.546875 1.0625,1.109375 0,0.609375 -0.4375,1.078125 -0.65625,1.328125 L 0.515625,-0.265625 C 0.4375,-0.203125 0.4375,-0.1875 0.4375,0 h 2.875 z m 0,0"
             id="id-38bff745-1914-40e2-ae2d-1c01f3729f46"
             style="fill:#d40000" />
        </g>
      </g>
    </g>
    <g
       transform="matrix(0.490444,0,0,0.490444,137.14598,53.77492)"
       ns10:version="1.8.2"
       ns10:texconverter="pdflatex"
       ns10:pdfconverter="inkscape"
       ns10:text="$\\Pi^2$"
       ns10:preamble="/Users/pietroscapolo/Library/Application Support/org.inkscape.Inkscape/config/inkscape/extensions/textext/default_packages.tex"
       ns10:scale="1.390234706609977"
       ns10:alignment="middle center"
       ns10:stroke-to-path="0"
       ns10:jacobian_sqrt="0.490444"
       id="g16347">
      <defs
         id="id-e6d4d9cf-5f59-41f0-8d83-0e0071682b9b">
        <g
           id="id-4ca8a05f-d8a8-43bd-939d-357dfdc72057">
          <g
             id="id-26b90bbf-b207-4aa8-88bd-a7a7be2e7dda" />
          <g
             id="id-7eb1c3b2-44b1-4586-b6c7-d78df58b6d73">
            <path
               d="m 6.109375,-6 c 0,-0.359375 0.015625,-0.46875 0.78125,-0.46875 h 0.25 v -0.3125 h -6.8125 v 0.3125 H 0.5625 c 0.765625,0 0.796875,0.109375 0.796875,0.46875 v 5.21875 c 0,0.359375 -0.03125,0.46875 -0.796875,0.46875 H 0.328125 V 0 c 0.34375,-0.03125 1.09375,-0.03125 1.46875,-0.03125 0.375,0 1.125,0 1.46875,0.03125 V -0.3125 H 3.03125 C 2.265625,-0.3125 2.25,-0.421875 2.25,-0.78125 v -5.6875 h 2.96875 v 5.6875 c 0,0.359375 -0.015625,0.46875 -0.78125,0.46875 H 4.203125 V 0 c 0.34375,-0.03125 1.078125,-0.03125 1.453125,-0.03125 0.390625,0 1.125,0 1.484375,0.03125 v -0.3125 h -0.25 c -0.765625,0 -0.78125,-0.109375 -0.78125,-0.46875 z m 0,0"
               id="id-c2be9e13-89a5-42d7-b567-f105a5de52ef" />
          </g>
          <g
             id="id-aaea9c06-3314-4883-abd2-072039a41a39" />
          <g
             id="id-db2d096d-835b-4707-9504-835b311aa9bf">
            <path
               d="M 3.515625,-1.265625 H 3.28125 c -0.015625,0.15625 -0.09375,0.5625 -0.1875,0.625 C 3.046875,-0.59375 2.515625,-0.59375 2.40625,-0.59375 H 1.125 c 0.734375,-0.640625 0.984375,-0.84375 1.390625,-1.171875 0.515625,-0.40625 1,-0.84375 1,-1.5 0,-0.84375 -0.734375,-1.359375 -1.625,-1.359375 -0.859375,0 -1.453125,0.609375 -1.453125,1.25 0,0.34375 0.296875,0.390625 0.375,0.390625 0.15625,0 0.359375,-0.125 0.359375,-0.375 0,-0.125 -0.046875,-0.375 -0.40625,-0.375 C 0.984375,-4.21875 1.453125,-4.375 1.78125,-4.375 c 0.703125,0 1.0625,0.546875 1.0625,1.109375 0,0.609375 -0.4375,1.078125 -0.65625,1.328125 L 0.515625,-0.265625 C 0.4375,-0.203125 0.4375,-0.1875 0.4375,0 h 2.875 z m 0,0"
               id="id-6b9619e4-8017-4d7a-a5b8-f469c7b3aa90" />
          </g>
        </g>
      </defs>
      <g
         fill="#000000"
         fill-opacity="1"
         id="id-405a9e3a-8ec9-4ed3-ab5b-cd569de61868"
         transform="translate(-149.04,-126.524)">
        <g
           transform="translate(148.712,134.765)"
           id="g16340">
          <path
             d="m 6.109375,-6 c 0,-0.359375 0.015625,-0.46875 0.78125,-0.46875 h 0.25 v -0.3125 h -6.8125 v 0.3125 H 0.5625 c 0.765625,0 0.796875,0.109375 0.796875,0.46875 v 5.21875 c 0,0.359375 -0.03125,0.46875 -0.796875,0.46875 H 0.328125 V 0 c 0.34375,-0.03125 1.09375,-0.03125 1.46875,-0.03125 0.375,0 1.125,0 1.46875,0.03125 V -0.3125 H 3.03125 C 2.265625,-0.3125 2.25,-0.421875 2.25,-0.78125 v -5.6875 h 2.96875 v 5.6875 c 0,0.359375 -0.015625,0.46875 -0.78125,0.46875 H 4.203125 V 0 c 0.34375,-0.03125 1.078125,-0.03125 1.453125,-0.03125 0.390625,0 1.125,0 1.484375,0.03125 v -0.3125 h -0.25 c -0.765625,0 -0.78125,-0.109375 -0.78125,-0.46875 z m 0,0"
             id="id-6dbfc2c8-c139-45d9-9d16-94990cb67527" />
        </g>
      </g>
      <g
         fill="#000000"
         fill-opacity="1"
         id="id-fcecce15-0b07-4408-81f5-34f113ba139f"
         transform="translate(-149.04,-126.524)">
        <g
           transform="translate(156.184,131.149)"
           id="g16344">
          <path
             d="M 3.515625,-1.265625 H 3.28125 c -0.015625,0.15625 -0.09375,0.5625 -0.1875,0.625 C 3.046875,-0.59375 2.515625,-0.59375 2.40625,-0.59375 H 1.125 c 0.734375,-0.640625 0.984375,-0.84375 1.390625,-1.171875 0.515625,-0.40625 1,-0.84375 1,-1.5 0,-0.84375 -0.734375,-1.359375 -1.625,-1.359375 -0.859375,0 -1.453125,0.609375 -1.453125,1.25 0,0.34375 0.296875,0.390625 0.375,0.390625 0.15625,0 0.359375,-0.125 0.359375,-0.375 0,-0.125 -0.046875,-0.375 -0.40625,-0.375 C 0.984375,-4.21875 1.453125,-4.375 1.78125,-4.375 c 0.703125,0 1.0625,0.546875 1.0625,1.109375 0,0.609375 -0.4375,1.078125 -0.65625,1.328125 L 0.515625,-0.265625 C 0.4375,-0.203125 0.4375,-0.1875 0.4375,0 h 2.875 z m 0,0"
             id="id-62030d60-d4b4-4d7f-b828-371f9775c5a4" />
        </g>
      </g>
    </g>
  </g>
</svg>
