<?xml version="1.0" encoding="UTF-8" standalone="no"?>
<!-- Created with Inkscape (http://www.inkscape.org/) -->

<svg
   width="210mm"
   height="297mm"
   viewBox="0 0 210 297"
   version="1.1"
   id="svg8"
   inkscape:version="1.2.2 (b0a84865, 2022-12-01)"
   sodipodi:docname="varietà.svg"
   xmlns:inkscape="http://www.inkscape.org/namespaces/inkscape"
   xmlns:sodipodi="http://sodipodi.sourceforge.net/DTD/sodipodi-0.dtd"
   xmlns="http://www.w3.org/2000/svg"
   xmlns:svg="http://www.w3.org/2000/svg"
   xmlns:rdf="http://www.w3.org/1999/02/22-rdf-syntax-ns#"
   xmlns:cc="http://creativecommons.org/ns#"
   xmlns:dc="http://purl.org/dc/elements/1.1/">
  <defs
     id="defs2" />
  <sodipodi:namedview
     id="base"
     pagecolor="#ffffff"
     bordercolor="#666666"
     borderopacity="1.0"
     inkscape:pageopacity="0.0"
     inkscape:pageshadow="2"
     inkscape:zoom="1.1029765"
     inkscape:cx="313.24329"
     inkscape:cy="408.89356"
     inkscape:document-units="mm"
     inkscape:current-layer="layer1"
     showgrid="false"
     inkscape:window-width="1920"
     inkscape:window-height="1001"
     inkscape:window-x="-9"
     inkscape:window-y="-9"
     inkscape:window-maximized="1"
     inkscape:showpageshadow="2"
     inkscape:pagecheckerboard="0"
     inkscape:deskcolor="#d1d1d1" />
  <metadata
     id="metadata5">
    <rdf:RDF>
      <cc:Work
         rdf:about="">
        <dc:format>image/svg+xml</dc:format>
        <dc:type
           rdf:resource="http://purl.org/dc/dcmitype/StillImage" />
      </cc:Work>
    </rdf:RDF>
  </metadata>
  <g
     inkscape:label="Layer 1"
     inkscape:groupmode="layer"
     id="layer1">
    <path
       style="fill:none;stroke:#808080;stroke-width:0.499999;stroke-linejoin:round;stroke-dasharray:0.499999, 1;paint-order:stroke fill markers"
       d="M 33.684063,118.8023 C 40.52279,78.045192 81.382631,63.627085 81.525932,63.740786"
       id="path1587"
       sodipodi:nodetypes="cc" />
    <path
       style="fill:none;stroke:#808080;stroke-width:0.499999;stroke-linejoin:round;stroke-dasharray:0.499999, 1;paint-order:stroke fill markers"
       d="M 38.928991,127.08043 C 38.634486,84.178161 90.065971,59.603858 92.793155,61.142855"
       id="path1587-5"
       sodipodi:nodetypes="cc" />
    <path
       style="fill:none;stroke:#808080;stroke-width:0.499999;stroke-linejoin:round;stroke-dasharray:0.499999, 1;paint-order:stroke fill markers"
       d="M 47.102414,133.50394 C 44.781401,81.046922 103.99004,59.504204 104.12078,59.635907"
       id="path1587-5-8"
       sodipodi:nodetypes="cc" />
    <path
       style="fill:none;stroke:#808080;stroke-width:0.499999;stroke-linejoin:round;stroke-dasharray:0.499999, 1;paint-order:stroke fill markers"
       d="M 55.940475,137.68303 C 56.495249,80.141446 122.8316,54.74794 125.08156,59.55035"
       id="path1587-5-8-1"
       sodipodi:nodetypes="cc" />
    <path
       style="fill:none;stroke:#808080;stroke-width:0.499999;stroke-linejoin:round;stroke-dasharray:0.499999, 1;paint-order:stroke fill markers"
       d="M 67.605872,141.16134 C 68.278657,81.581072 131.45176,53.341744 145.89352,64.465695"
       id="path1587-5-8-1-4"
       sodipodi:nodetypes="cc" />
    <path
       style="fill:none;stroke:#808080;stroke-width:0.499999;stroke-linejoin:round;stroke-dasharray:0.499999, 1;paint-order:stroke fill markers"
       d="M 81.645349,142.20251 C 95.33685,63.993403 155.27642,62.175896 160.62265,74.680585"
       id="path1587-5-8-1-4-7"
       sodipodi:nodetypes="cc" />
    <path
       style="fill:none;stroke:#808080;stroke-width:0.499999;stroke-linejoin:round;stroke-dasharray:0.499999, 1;paint-order:stroke fill markers"
       d="m 93.17723,138.96806 c 12.24546,-60.443566 75.31855,-73.212044 72.4782,-41.769722"
       id="path1587-5-8-1-4-7-1"
       sodipodi:nodetypes="cc" />
    <path
       style="fill:none;stroke:#808080;stroke-width:0.499999;stroke-linejoin:round;stroke-dasharray:0.499999, 1;paint-order:stroke fill markers"
       d="M 96.381797,136.23034 C 94.261791,120.14194 41.923172,92.604633 32.853861,111.52256 m 72.223519,13.49827 C 92.741719,98.232078 52.200852,81.031747 36.862712,97.309788 M 111.82312,115.51593 C 106.01176,91.428243 67.573458,72.835195 47.989797,82.538009 M 117.34889,110.28809 C 115.71135,94.68355 102.4544,73.737679 61.229068,72.48841"
       id="path1587-5-8-1-4-7-1-0"
       sodipodi:nodetypes="cccccccc" />
    <path
       style="fill:none;stroke:#808080;stroke-width:0.499999;stroke-linejoin:round;stroke-dasharray:0.499999, 1;paint-order:stroke fill markers"
       d="m 140.60494,102.37434 c 0.11981,-5.44111 3.04358,-34.287071 -28.58088,-43.22156 m 21.44578,43.53518 C 133.80105,82.596385 121.39368,62.55664 92.793155,61.142855 M 126.13871,104.9934 C 122.22192,83.666469 105.88929,66.159405 77.535669,65.003014 M 158.05227,102.7462 c -0.90364,-16.267829 5.32886,-18.299125 -12.91558,-38.280505 m 4.14601,38.556015 c 2.554,-12.918541 4.6372,-33.484254 -24.20114,-43.47136"
       id="path1587-5-8-1-4-7-1-0-0"
       sodipodi:nodetypes="cccccccccc" />
    <path
       style="display:inline;fill:none;stroke:#000000;stroke-width:1.665;stroke-linecap:butt;stroke-linejoin:miter;stroke-miterlimit:4;stroke-dasharray:none;stroke-opacity:1"
       d="m 33.684063,118.8023 c -5.445758,-18.42396 15.263853,-50.09992 59.109092,-57.659445 43.845235,-7.559524 72.571425,6.803573 73.894345,28.159226 1.32291,21.355659 -21.52155,10.996009 -33.21766,13.385879 -12.95942,2.648 -22.4063,11.6676 -28.39246,22.33287 -5.96609,10.6295 -16.422983,24.84606 -49.136905,12.6622 C 36.608346,130.48304 33.712093,118.81165 33.684063,118.8023 Z"
       id="path826"
       inkscape:connector-curvature="0"
       sodipodi:nodetypes="csssssc"
       inkscape:label="path826" />
  </g>
</svg>
