<?xml version="1.0" encoding="UTF-8" standalone="no"?>
<!-- Created with Inkscape (http://www.inkscape.org/) -->

<svg
   xmlns:dc="http://purl.org/dc/elements/1.1/"
   xmlns:cc="http://creativecommons.org/ns#"
   xmlns:rdf="http://www.w3.org/1999/02/22-rdf-syntax-ns#"
   xmlns:svg="http://www.w3.org/2000/svg"
   xmlns="http://www.w3.org/2000/svg"
   xmlns:sodipodi="http://sodipodi.sourceforge.net/DTD/sodipodi-0.dtd"
   xmlns:inkscape="http://www.inkscape.org/namespaces/inkscape"
   width="89.781944mm"
   height="53.622223mm"
   viewBox="0 0 318.125 190"
   id="svg6238"
   version="1.1"
   inkscape:version="0.91 r13725"
   sodipodi:docname="diagramma.svg">
  <sodipodi:namedview
     id="base"
     pagecolor="#ffffff"
     bordercolor="#666666"
     borderopacity="1.0"
     inkscape:pageopacity="0.0"
     inkscape:pageshadow="2"
     inkscape:zoom="3.959798"
     inkscape:cx="133.66596"
     inkscape:cy="65.246554"
     inkscape:document-units="px"
     inkscape:current-layer="layer1"
     showgrid="false"
     fit-margin-top="0"
     fit-margin-left="0"
     fit-margin-right="0"
     fit-margin-bottom="0"
     inkscape:window-width="1920"
     inkscape:window-height="1021"
     inkscape:window-x="0"
     inkscape:window-y="0"
     inkscape:window-maximized="1" />
  <defs
     id="defs6240">
    <inkscape:path-effect
       is_visible="true"
       id="path-effect6955"
       effect="spiro" />
    <inkscape:path-effect
       is_visible="true"
       id="path-effect6951"
       effect="spiro" />
    <inkscape:path-effect
       is_visible="true"
       id="path-effect6947"
       effect="spiro" />
    <marker
       inkscape:stockid="Arrow1Lend"
       orient="auto"
       refY="0.0"
       refX="0.0"
       id="marker6891"
       style="overflow:visible;"
       inkscape:isstock="true">
      <path
         id="path6893"
         d="M 0.0,0.0 L 5.0,-5.0 L -12.5,0.0 L 5.0,5.0 L 0.0,0.0 z "
         style="fill-rule:evenodd;stroke:#000000;stroke-width:1pt;stroke-opacity:1;fill:#000000;fill-opacity:1"
         transform="scale(0.8) rotate(180) translate(12.5,0)" />
    </marker>
    <marker
       inkscape:isstock="true"
       style="overflow:visible"
       id="marker6863"
       refX="0.0"
       refY="0.0"
       orient="auto"
       inkscape:stockid="Arrow1Lstart">
      <path
         transform="scale(0.8) translate(12.5,0)"
         style="fill-rule:evenodd;stroke:#000000;stroke-width:1pt;stroke-opacity:1;fill:#000000;fill-opacity:1"
         d="M 0.0,0.0 L 5.0,-5.0 L -12.5,0.0 L 5.0,5.0 L 0.0,0.0 z "
         id="path6865" />
    </marker>
    <marker
       inkscape:collect="always"
       inkscape:isstock="true"
       style="overflow:visible;"
       id="Arrow1Lend"
       refX="0.0"
       refY="0.0"
       orient="auto"
       inkscape:stockid="Arrow1Lend">
      <path
         transform="scale(0.8) rotate(180) translate(12.5,0)"
         style="fill-rule:evenodd;stroke:#000000;stroke-width:1pt;stroke-opacity:1;fill:#000000;fill-opacity:1"
         d="M 0.0,0.0 L 5.0,-5.0 L -12.5,0.0 L 5.0,5.0 L 0.0,0.0 z "
         id="path4531" />
    </marker>
    <marker
       inkscape:isstock="true"
       style="overflow:visible"
       id="Arrow1Lstart"
       refX="0.0"
       refY="0.0"
       orient="auto"
       inkscape:stockid="Arrow1Lstart">
      <path
         transform="scale(0.8) translate(12.5,0)"
         style="fill-rule:evenodd;stroke:#000000;stroke-width:1pt;stroke-opacity:1;fill:#000000;fill-opacity:1"
         d="M 0.0,0.0 L 5.0,-5.0 L -12.5,0.0 L 5.0,5.0 L 0.0,0.0 z "
         id="path4528" />
    </marker>
    <inkscape:path-effect
       effect="spiro"
       id="path-effect6803"
       is_visible="true" />
    <inkscape:path-effect
       effect="spiro"
       id="path-effect6799"
       is_visible="true" />
    <clipPath
       id="clipPath">
      <rect
         style="opacity:1;fill:none;fill-opacity:1;stroke:#000000;stroke-width:1.005;stroke-miterlimit:4;stroke-dasharray:none;stroke-dashoffset:0;stroke-opacity:1"
         id="rect6805"
         width="260.11429"
         height="125.76399"
         x="179.29355"
         y="322.83606" />
    </clipPath>
  </defs>
  <metadata
     id="metadata6243">
    <rdf:RDF>
      <cc:Work
         rdf:about="">
        <dc:format>image/svg+xml</dc:format>
        <dc:type
           rdf:resource="http://purl.org/dc/dcmitype/StillImage" />
        <dc:title></dc:title>
      </cc:Work>
    </rdf:RDF>
  </metadata>
  <g
     inkscape:label="Layer 1"
     inkscape:groupmode="layer"
     id="layer1"
     transform="translate(-158.08035,-320.21936)">
    <path
       style="fill:none;fill-rule:evenodd;stroke:#000000;stroke-width:1px;stroke-linecap:butt;stroke-linejoin:miter;stroke-opacity:1;marker-end:url(#Arrow1Lend)"
       d="m 300.7644,502.16971 0,-167.68532"
       id="path6797"
       inkscape:path-effect="#path-effect6799"
       inkscape:original-d="m 300.7644,502.16971 0,-167.68532"
       inkscape:connector-curvature="0" />
    <path
       style="fill:none;fill-rule:evenodd;stroke:#000000;stroke-width:1px;stroke-linecap:butt;stroke-linejoin:miter;stroke-opacity:1;marker-end:url(#marker6891)"
       d="m 186.28542,449.42534 261.62951,0"
       id="path6801"
       inkscape:path-effect="#path-effect6803"
       inkscape:original-d="m 186.28542,449.42534 261.62951,0"
       inkscape:connector-curvature="0" />
    <path
       transform="translate(10,26)"
       inkscape:connector-curvature="0"
       style="opacity:1;fill:none;fill-opacity:1;stroke:#000000;stroke-width:1.005;stroke-miterlimit:4;stroke-dasharray:none;stroke-dashoffset:0;stroke-opacity:1"
       d="m 179.29355,423.44725 260.11429,0 m -148.63674,25.1528 0,-125.76399 M 179.29355,197.07207 c 0.0868,0.17625 0.17358,0.88041 0.26037,1.05624 0.0868,0.17583 0.17359,0.87835 0.26038,1.05377 0.0868,0.17542 0.17358,0.87629 0.26037,1.0513 0.0868,0.17501 0.17359,0.87423 0.26038,1.04883 0.0868,0.1746 0.17358,0.87217 0.26037,1.04636 0.0868,0.17419 0.17359,0.87012 0.26038,1.04389 0.0868,0.17378 0.17358,0.86806 0.26037,1.04142 0.0868,0.17337 0.17359,0.866 0.26038,1.03895 0.0868,0.17296 0.17358,0.86394 0.26037,1.03648 0.0868,0.17254 0.17359,0.86189 0.26038,1.03401 0.0868,0.17213 0.17358,0.85983 0.26037,1.03155 0.0868,0.17171 0.17358,0.85776 0.26038,1.02907 0.0868,0.1713 0.17358,0.8557 0.26037,1.0266 0.0868,0.17089 0.17358,0.85365 0.26038,1.02413 0.0868,0.17048 0.17358,0.85159 0.26037,1.02166 0.0868,0.17007 0.17358,0.84953 0.26037,1.01919 0.0868,0.16966 0.17359,0.84747 0.26038,1.01672 0.0868,0.16925 0.17358,0.84542 0.26037,1.01425 0.0868,0.16884 0.17359,0.84336 0.26038,1.01179 0.0868,0.16842 0.17358,0.84129 0.26037,1.00931 0.0868,0.16801 0.17359,0.83924 0.26038,1.00684 0.0868,0.1676 0.17358,0.83718 0.26037,1.00437 0.0868,0.16719 0.17359,0.83513 0.26038,1.0019 0.0868,0.16678 0.17358,0.83307 0.26037,0.99944 0.0868,0.16636 0.17359,0.831 0.26038,0.99696 0.0868,0.16595 0.17358,0.82895 0.26037,0.99449 0.0868,0.16554 0.17358,0.82689 0.26038,0.99202 0.0868,0.16513 0.17358,0.82483 0.26037,0.98955 0.0868,0.16472 0.17358,0.82278 0.26038,0.98709 0.0868,0.1643 0.17358,0.82071 0.26037,0.98461 0.0868,0.1639 0.17358,0.81866 0.26037,0.98214 0.0868,0.16349 0.17359,0.8166 0.26038,0.97967 0.0868,0.16308 0.17358,0.81455 0.26037,0.97721 0.0868,0.16266 0.17359,0.81248 0.26038,0.97473 0.0868,0.16225 0.17358,0.81043 0.26037,0.97226 0.0868,0.16184 0.17359,0.80837 0.26038,0.9698 0.0868,0.16142 0.17358,0.80631 0.26037,0.96732 0.0868,0.16101 0.17359,0.80425 0.26038,0.96485 0.0868,0.16061 0.17358,0.8022 0.26037,0.96239 0.0868,0.16019 0.17359,0.80013 0.26038,0.95991 0.0868,0.15978 0.17358,0.79808 0.26037,0.95744 0.0868,0.15937 0.17358,0.79602 0.26038,0.95498 0.0868,0.15895 0.17358,0.79396 0.26037,0.9525 0.0868,0.15855 0.17358,0.7919 0.26038,0.95004 0.0868,0.15813 0.17358,0.78984 0.26037,0.94756 0.0868,0.15772 0.17358,0.78778 0.26037,0.94509 0.0868,0.15731 0.17359,0.78573 0.26038,0.94263 0.0868,0.1569 0.17358,0.78366 0.26037,0.94015 0.0868,0.15649 0.17359,0.78161 0.26038,0.93769 0.0868,0.15607 0.17358,0.77955 0.26037,0.93521 0.0868,0.15566 0.17359,0.77749 0.26038,0.93274 0.0868,0.15526 0.17358,0.77544 0.26037,0.93028 0.0868,0.15484 0.17359,0.77338 0.26038,0.9278 0.0868,0.15443 0.17358,0.77132 0.26037,0.92534 0.0868,0.15402 0.17359,0.76926 0.26038,0.92286 0.0868,0.15361 0.17358,0.7672 0.26037,0.9204 0.0868,0.15319 0.17358,0.76514 0.26038,0.91792 0.0868,0.15278 0.17358,0.76309 0.26037,0.91546 0.0868,0.15237 0.17358,0.76103 0.26038,0.91298 0.0868,0.15196 0.17358,0.75897 0.26037,0.91052 0.0868,0.15155 0.17358,0.75691 0.26037,0.90804 0.0868,0.15114 0.17359,0.75486 0.26038,0.90558 0.0868,0.15072 0.17358,0.75279 0.26037,0.9031 0.0868,0.15032 0.17359,0.75074 0.26038,0.90064 0.0868,0.1499 0.17358,0.74868 0.26037,0.89817 0.0868,0.14948 0.17359,0.74662 0.26038,0.89569 0.0868,0.14908 0.17358,0.74456 0.26037,0.89323 0.0868,0.14866 0.17359,0.7425 0.26038,0.89075 0.0868,0.14826 0.17358,0.74045 0.26037,0.88829 0.0868,0.14784 0.17358,0.73839 0.26038,0.88582 0.0868,0.14743 0.17358,0.73632 0.26037,0.88334 0.0868,0.14702 0.17358,0.73427 0.26038,0.88088 0.0868,0.14661 0.17358,0.73221 0.26037,0.8784 0.0868,0.1462 0.17358,0.73016 0.26038,0.87594 0.0868,0.14579 0.17358,0.7281 0.26037,0.87347 0.0868,0.14537 0.17358,0.72603 0.26037,0.87099 0.0868,0.14497 0.17359,0.72398 0.26038,0.86853 0.0868,0.14455 0.17358,0.72192 0.26037,0.86606 0.0868,0.14414 0.17359,0.71986 0.26038,0.86359 0.0868,0.14372 0.17358,0.7178 0.26037,0.86111 0.0868,0.14332 0.17359,0.71575 0.26038,0.85865 0.0868,0.1429 0.17358,0.71369 0.26037,0.85618 0.0868,0.14249 0.17359,0.71163 0.26038,0.8537 0.0868,0.14208 0.17358,0.70957 0.26037,0.85124 0.0868,0.14167 0.17358,0.70751 0.26038,0.84877 0.0868,0.14125 0.17358,0.70545 0.26037,0.8463 0.0868,0.14084 0.17358,0.70339 0.26038,0.84382 0.0868,0.14044 0.17358,0.70134 0.26037,0.84136 0.0868,0.14002 0.17358,0.69928 0.26038,0.83889 0.0868,0.13961 0.17358,0.69722 0.26037,0.83642 0.0868,0.13919 0.17358,0.69516 0.26037,0.83395 0.0868,0.13878 0.17359,0.6931 0.26038,0.83147 0.0868,0.13838 0.17358,0.69105 0.26037,0.82901 0.0868,0.13796 0.17359,0.68899 0.26038,0.82654 0.0868,0.13755 0.17358,0.68693 0.26037,0.82407 0.0868,0.13714 0.17359,0.68487 0.26038,0.8216 0.0868,0.13672 0.17358,0.68281 0.26037,0.81913 0.0868,0.13631 0.17359,0.68075 0.26038,0.81665 0.0868,0.13591 0.17358,0.6787 0.26037,0.81419 0.0868,0.13549 0.17358,0.67664 0.26038,0.81172 0.0868,0.13508 0.17358,0.67458 0.26037,0.80925 0.0868,0.13467 0.17358,0.67252 0.26038,0.80678 0.0868,0.13426 0.17358,0.67046 0.26037,0.80431 0.0868,0.13384 0.17358,0.6684 0.26038,0.80184 0.0868,0.13343 0.17358,0.66634 0.26037,0.79937 0.0868,0.13302 0.17358,0.66429 0.26037,0.7969 0.0868,0.13261 0.17359,0.66223 0.26038,0.79443 0.0868,0.13219 0.17358,0.66017 0.26037,0.79195 0.0868,0.13179 0.17359,0.65812 0.26038,0.78949 0.0868,0.13138 0.17358,0.65606 0.26037,0.78702 0.0868,0.13097 0.17359,0.654 0.26038,0.78455 0.0868,0.13056 0.17358,0.65194 0.26037,0.78208 0.0868,0.13014 0.17359,0.64988 0.26038,0.77961 0.0868,0.12973 0.17358,0.64783 0.26037,0.77714 0.0868,0.12932 0.17358,0.64577 0.26038,0.77467 0.0868,0.12891 0.17358,0.64371 0.26037,0.7722 0.0868,0.1285 0.17358,0.64165 0.26038,0.76973 0.0868,0.12809 0.17358,0.63959 0.26037,0.76726 0.0868,0.12768 0.17358,0.63754 0.26038,0.7648 0.0868,0.12725 0.17358,0.63547 0.26037,0.76232 0.0868,0.12684 0.17358,0.63341 0.26037,0.75985 0.0868,0.12643 0.17359,0.63135 0.26038,0.75738 0.0868,0.12602 0.17358,0.6293 0.26037,0.75491 0.0868,0.12561 0.17359,0.62724 0.26038,0.75244 0.0868,0.1252 0.17358,0.62518 0.26037,0.74997 0.0868,0.12479 0.17359,0.62312 0.26038,0.7475 0.0868,0.12438 0.17358,0.62107 0.26037,0.74503 0.0868,0.12397 0.17359,0.61901 0.26038,0.74256 0.0868,0.12356 0.17358,0.61695 0.26037,0.74009 0.0868,0.12315 0.17358,0.6149 0.26038,0.73763 0.0868,0.12273 0.17358,0.61283 0.26037,0.73515 0.0868,0.12232 0.17358,0.61077 0.26038,0.73268 0.0868,0.12191 0.17358,0.60871 0.26037,0.73021 0.0868,0.1215 0.17358,0.60666 0.26038,0.72774 0.0868,0.12109 0.17358,0.6046 0.26037,0.72527 0.0868,0.12068 0.17358,0.60255 0.26037,0.72281 0.0868,0.12026 0.17359,0.60048 0.26038,0.72033 0.0868,0.11985 0.17358,0.59842 0.26037,0.71786 0.0868,0.11944 0.17359,0.59637 0.26038,0.71539 0.0868,0.11903 0.17358,0.59431 0.26037,0.71293 0.0868,0.11861 0.17359,0.59224 0.26038,0.71045 0.0868,0.1182 0.17358,0.59019 0.26037,0.70798 0.0868,0.11779 0.17359,0.58813 0.26038,0.70551 0.0868,0.11738 0.17358,0.58608 0.26037,0.70305 0.0868,0.11696 0.17358,0.58401 0.26038,0.70057 0.0868,0.11655 0.17358,0.58196 0.26037,0.6981 0.0868,0.11615 0.17358,0.5799 0.26038,0.69563 0.0868,0.11574 0.17358,0.57785 0.26037,0.69317 0.0868,0.11532 0.17358,0.57578 0.26038,0.69069 0.0868,0.11491 0.17358,0.57373 0.26037,0.68822 0.0868,0.1145 0.17358,0.57167 0.26037,0.68576 0.0868,0.11408 0.17359,0.56961 0.26038,0.68328 0.0868,0.11368 0.17358,0.56755 0.26037,0.68081 0.0868,0.11327 0.17359,0.5655 0.26038,0.67835 0.0868,0.11285 0.17358,0.56343 0.26037,0.67587 0.0868,0.11244 0.17359,0.56138 0.26038,0.6734 0.0868,0.11203 0.17358,0.55932 0.26037,0.67094 0.0868,0.11162 0.17359,0.55726 0.26038,0.66846 0.0868,0.11121 0.17358,0.5552 0.26037,0.666 0.0868,0.11079 0.17358,0.55314 0.26038,0.66352 0.0868,0.11038 0.17358,0.55108 0.26037,0.66105 0.0868,0.10997 0.17358,0.54903 0.26038,0.65859 0.0868,0.10956 0.17358,0.54697 0.26037,0.65611 0.0868,0.10915 0.17358,0.54491 0.26038,0.65365 0.0868,0.10873 0.17358,0.54285 0.26037,0.65117 0.0868,0.10833 0.17358,0.5408 0.26037,0.64871 0.0868,0.10791 0.17359,0.53873 0.26038,0.64623 0.0868,0.1075 0.17358,0.53668 0.26037,0.64377 0.0868,0.10708 0.17359,0.53461 0.26038,0.64129 0.0868,0.10668 0.17358,0.53256 0.26037,0.63883 0.0868,0.10626 0.17359,0.5305 0.26038,0.63635 0.0868,0.10585 0.17358,0.52844 0.26037,0.63389 0.0868,0.10544 0.17359,0.52638 0.26038,0.63141 0.0868,0.10503 0.17358,0.52433 0.26037,0.62895 0.0868,0.10462 0.17358,0.52227 0.26038,0.62647 0.0868,0.10421 0.17358,0.52021 0.26037,0.62401 0.0868,0.10379 0.17358,0.51815 0.26038,0.62153 0.0868,0.10339 0.17358,0.5161 0.26037,0.61907 0.0868,0.10297 0.17358,0.51404 0.26037,0.6166 0.0868,0.10256 0.17359,0.51197 0.26038,0.61412 0.0868,0.10215 0.17358,0.50992 0.26037,0.61166 0.0868,0.10173 0.17359,0.50786 0.26038,0.60918 0.0868,0.10133 0.17358,0.50581 0.26037,0.60672 0.0868,0.10091 0.17359,0.50374 0.26038,0.60425 0.0868,0.1005 0.17358,0.50168 0.26037,0.60177 0.0868,0.10009 0.17359,0.49963 0.26038,0.59931 0.0868,0.0997 0.17358,0.49757 0.26037,0.59683 0.0868,0.0993 0.17359,0.49552 0.26038,0.59437 0.0868,0.0989 0.17358,0.49345 0.26037,0.5919 0.0868,0.0984 0.17358,0.49139 0.26038,0.58942 0.0868,0.098 0.17358,0.48934 0.26037,0.58696 0.0868,0.0976 0.17358,0.48728 0.26038,0.58449 0.0868,0.0972 0.17358,0.48522 0.26037,0.58202 0.0868,0.0968 0.17358,0.48316 0.26037,0.57954 0.0868,0.0964 0.17359,0.48111 0.26038,0.57708 0.0868,0.096 0.17358,0.47904 0.26037,0.57461 0.0868,0.0956 0.17359,0.47698 0.26038,0.57213 0.0868,0.0951 0.17358,0.47493 0.26037,0.56967 0.0868,0.0947 0.17359,0.47287 0.26038,0.5672 0.0868,0.0943 0.17358,0.47081 0.26037,0.56473 0.0868,0.0939 0.17359,0.46875 0.26038,0.56225 0.0868,0.0935 0.17358,0.4667 0.26037,0.55979 0.0868,0.0931 0.17359,0.46464 0.26038,0.55732 0.0868,0.0927 0.17358,0.46258 0.26037,0.55485 0.0868,0.0923 0.17358,0.46052 0.26038,0.55238 0.0868,0.0919 0.17358,0.45846 0.26037,0.5499 0.0868,0.0915 0.17358,0.45641 0.26038,0.54744 0.0868,0.091 0.17358,0.45435 0.26037,0.54497 0.0868,0.0906 0.17358,0.45229 0.26037,0.5425 0.0868,0.0902 0.17359,0.45023 0.26038,0.54003 0.0868,0.0898 0.17358,0.44817 0.26037,0.53756 0.0868,0.0894 0.17359,0.44611 0.26038,0.53509 0.0868,0.089 0.17358,0.44405 0.26037,0.53261 0.0868,0.0886 0.17359,0.442 0.26038,0.53015 0.0868,0.0882 0.17358,0.43994 0.26037,0.52768 0.0868,0.0877 0.17359,0.43788 0.26038,0.52521 0.0868,0.0873 0.17358,0.43582 0.26037,0.52274 0.0868,0.0869 0.17359,0.43376 0.26038,0.52027 0.0868,0.0865 0.17358,0.4317 0.26037,0.5178 0.0868,0.0861 0.17358,0.42965 0.26038,0.51533 0.0868,0.0857 0.17358,0.42759 0.26037,0.51286 0.0868,0.0853 0.17358,0.42553 0.26038,0.51039 0.0868,0.0849 0.17358,0.42347 0.26037,0.50792 0.0868,0.0844 0.17358,0.42141 0.26037,0.50545 0.0868,0.084 0.17359,0.41935 0.26038,0.50298 0.0868,0.0836 0.17358,0.41729 0.26037,0.50051 0.0868,0.0832 0.17359,0.41524 0.26038,0.49804 0.0868,0.0828 0.17358,0.41318 0.26037,0.49557 0.0868,0.0824 0.17359,0.41112 0.26038,0.4931 0.0868,0.082 0.17358,0.40906 0.26037,0.49063 0.0868,0.0816 0.17359,0.407 0.26038,0.48816 0.0868,0.0812 0.17358,0.40495 0.26037,0.48569 0.0868,0.0807 0.17359,0.40289 0.26038,0.48322 0.0868,0.0803 0.17358,0.40083 0.26037,0.48075 0.0868,0.0799 0.17358,0.39877 0.26038,0.47828 0.0868,0.0795 0.17358,0.39671 0.26037,0.47581 0.0868,0.0791 0.17358,0.39466 0.26038,0.47334 0.0868,0.0787 0.17358,0.3926 0.26037,0.47087 0.0868,0.0783 0.17358,0.39054 0.26037,0.4684 0.0868,0.0779 0.17359,0.38849 0.26038,0.46593 0.0868,0.0774 0.17358,0.38643 0.26037,0.46347 0.0868,0.077 0.17359,0.38436 0.26038,0.46099 0.0868,0.0766 0.17358,0.3823 0.26037,0.45852 0.0868,0.0762 0.17359,0.38025 0.26038,0.45605 0.0868,0.0758 0.17358,0.37819 0.26037,0.45358 0.0868,0.0754 0.17359,0.37613 0.26038,0.45111 0.0868,0.075 0.17358,0.37408 0.26037,0.44865 0.0868,0.0746 0.17359,0.37201 0.26038,0.44617 0.0868,0.0741 0.17358,0.36996 0.26037,0.4437 0.0868,0.0737 0.17358,0.3679 0.26038,0.44123 0.0868,0.0733 0.17358,0.36584 0.26037,0.43876 0.0868,0.0729 0.17358,0.36379 0.26038,0.4363 0.0868,0.0725 0.17358,0.36172 0.26037,0.43382 0.0868,0.0721 0.17358,0.35966 0.26037,0.43135 0.0868,0.0717 0.17359,0.35761 0.26038,0.42888 0.0868,0.0713 0.17358,0.35555 0.26037,0.42642 0.0868,0.0709 0.17359,0.35349 0.26038,0.42394 0.0868,0.0704 0.17358,0.35143 0.26037,0.42147 0.0868,0.07 0.17359,0.34938 0.26038,0.419 0.0868,0.0696 0.17358,0.34732 0.26037,0.41654 0.0868,0.0692 0.17359,0.34526 0.26038,0.41406 0.0868,0.0688 0.17358,0.3432 0.26037,0.41159 0.0868,0.0684 0.17359,0.34115 0.26038,0.40913 0.0868,0.068 0.17358,0.33908 0.26037,0.40665 0.0868,0.0676 0.17358,0.33702 0.26038,0.40418 0.0868,0.0672 0.17358,0.33497 0.26037,0.40172 0.0868,0.0667 0.17358,0.33291 0.26038,0.39924 0.0868,0.0663 0.17358,0.33085 0.26037,0.39677 0.0868,0.0659 0.17358,0.3288 0.26037,0.39431 0.0868,0.0655 0.17359,0.32673 0.26038,0.39183 0.0868,0.0651 0.17358,0.32468 0.26037,0.38937 0.0868,0.0647 0.17359,0.32261 0.26038,0.38689 0.0868,0.0643 0.17358,0.32056 0.26037,0.38442 0.0868,0.0639 0.17359,0.3185 0.26038,0.38196 0.0868,0.0635 0.17358,0.31644 0.26037,0.37948 0.0868,0.063 0.17359,0.31439 0.26038,0.37702 0.0868,0.0626 0.17358,0.31232 0.26037,0.37454 0.0868,0.0622 0.17359,0.31027 0.26038,0.37208 0.0868,0.0618 0.17358,0.3082 0.26037,0.3696 0.0868,0.0614 0.17358,0.30615 0.26038,0.36713 0.0868,0.061 0.17358,0.3041 0.26037,0.36467 0.0868,0.0606 0.17358,0.30203 0.26038,0.36219 0.0868,0.0602 0.17358,0.29998 0.26037,0.35973 0.0868,0.0597 0.17358,0.29792 0.26037,0.35725 0.0868,0.0593 0.17359,0.29586 0.26038,0.35479 0.0868,0.0589 0.17358,0.2938 0.26037,0.35231 0.0868,0.0585 0.17359,0.29175 0.26038,0.34985 0.0868,0.0581 0.17358,0.28969 0.26037,0.34738 0.0868,0.0577 0.17359,0.28762 0.26038,0.3449 0.0868,0.0573 0.17358,0.28557 0.26037,0.34244 0.0868,0.0569 0.17359,0.28351 0.26038,0.33996 0.0868,0.0565 0.17358,0.28145 0.26037,0.3375 0.0868,0.056 0.17359,0.27939 0.26038,0.33502 0.0868,0.0556 0.17358,0.27734 0.26037,0.33256 0.0868,0.0552 0.17358,0.27528 0.26038,0.33009 0.0868,0.0548 0.17358,0.27321 0.26037,0.32761 0.0868,0.0544 0.17358,0.27116 0.26038,0.32515 0.0868,0.054 0.17358,0.2691 0.26037,0.32267 0.0868,0.0536 0.17358,0.26705 0.26037,0.32021 0.0868,0.0532 0.17359,0.26499 0.26038,0.31774 0.0868,0.0528 0.17358,0.26293 0.26037,0.31526 0.0868,0.0523 0.17359,0.26087 0.26038,0.3128 0.0868,0.0519 0.17358,0.25881 0.26037,0.31033 0.0868,0.0515 0.17359,0.25675 0.26038,0.30785 0.0868,0.0511 0.17358,0.2547 0.26037,0.30539 0.0868,0.0507 0.17359,0.25264 0.26038,0.30292 0.0868,0.0503 0.17358,0.25058 0.26037,0.30045 0.0868,0.0499 0.17359,0.24852 0.26038,0.29797 0.0868,0.0495 0.17358,0.24646 0.26037,0.29551 0.0868,0.049 0.17358,0.2444 0.26038,0.29304 0.0868,0.0486 0.17358,0.24234 0.26037,0.29056 0.0868,0.0482 0.17358,0.24029 0.26038,0.2881 0.0868,0.0478 0.17358,0.23823 0.26037,0.28563 0.0868,0.0474 0.17358,0.23617 0.26037,0.28316 0.0868,0.047 0.17359,0.23411 0.26038,0.28069 0.0868,0.0466 0.17358,0.23205 0.26037,0.27821 0.0868,0.0462 0.17359,0.23 0.26038,0.27575 0.0868,0.0457 0.17358,0.22794 0.26037,0.27328 0.0868,0.0453 0.17359,0.22588 0.26038,0.27081 0.0868,0.0449 0.17358,0.22382 0.26037,0.26834 0.0868,0.0445 0.17359,0.22176 0.26038,0.26586 0.0868,0.0441 0.17358,0.21971 0.26037,0.2634 0.0868,0.0437 0.17359,0.21765 0.26038,0.26093 0.0868,0.0433 0.17358,0.21559 0.26037,0.25846 0.0868,0.0429 0.17358,0.21353 0.26038,0.25599 0.0868,0.0425 0.17358,0.21147 0.26037,0.25352 0.0868,0.042 0.17358,0.20941 0.26038,0.25105 0.0868,0.0416 0.17358,0.20735 0.26037,0.24857 0.0868,0.0412 0.17358,0.2053 0.26037,0.24611 0.0868,0.0408 0.17359,0.20324 0.26038,0.24364 0.0868,0.0404 0.17358,0.20118 0.26037,0.24117 0.0868,0.04 0.17359,0.19912 0.26038,0.2387 0.0868,0.0396 0.17358,0.19706 0.26037,0.23623 0.0868,0.0392 0.17359,0.19501 0.26038,0.23376 0.0868,0.0388 0.17358,0.19295 0.26037,0.23129 0.0868,0.0383 0.17359,0.19089 0.26038,0.22882 0.0868,0.0379 0.17358,0.18883 0.26037,0.22635 0.0868,0.0375 0.17359,0.18677 0.26038,0.22388 0.0868,0.0371 0.17358,0.18471 0.26037,0.22141 0.0868,0.0367 0.17358,0.18265 0.26038,0.21894 0.0868,0.0363 0.17358,0.1806 0.26037,0.21647 0.0868,0.0359 0.17358,0.17854 0.26038,0.214 0.0868,0.0355 0.17358,0.17648 0.26037,0.21153 0.0868,0.035 0.17358,0.17442 0.26037,0.20906 0.0868,0.0346 0.17359,0.17236 0.26038,0.20659 0.0868,0.0342 0.17358,0.17031 0.26037,0.20412 0.0868,0.0338 0.17359,0.16825 0.26038,0.20165 0.0868,0.0334 0.17358,0.16619 0.26037,0.19918 0.0868,0.033 0.17359,0.16413 0.26038,0.19671 0.0868,0.0326 0.17358,0.16208 0.26037,0.19424 0.0868,0.0322 0.17359,0.16002 0.26038,0.19177 0.0868,0.0318 0.17358,0.15796 0.26037,0.18931 0.0868,0.0313 0.17359,0.15589 0.26038,0.18683 0.0868,0.0309 0.17358,0.15384 0.26037,0.18436 0.0868,0.0305 0.17358,0.15178 0.26038,0.18189 0.0868,0.0301 0.17358,0.14972 0.26037,0.17942 0.0868,0.0297 0.17358,0.14767 0.26038,0.17695 0.0868,0.0293 0.17358,0.14561 0.26037,0.17448 0.0868,0.0289 0.17358,0.14355 0.26037,0.17202 0.0868,0.0285 0.17359,0.14149 0.26038,0.16954 0.0868,0.0281 0.17358,0.13943 0.26037,0.16707 0.0868,0.0276 0.17359,0.13737 0.26038,0.1646 0.0868,0.0272 0.17358,0.13532 0.26037,0.16213 0.0868,0.0268 0.17359,0.13326 0.26038,0.15967 0.0868,0.0264 0.17358,0.1312 0.26037,0.15719 0.0868,0.026 0.17359,0.12914 0.26038,0.15472 0.0868,0.0256 0.17358,0.12708 0.26037,0.15225 0.0868,0.0252 0.17359,0.12503 0.26038,0.14979 0.0868,0.0248 0.17358,0.12296 0.26037,0.14731 0.0868,0.0243 0.17358,0.12091 0.26038,0.14484 0.0868,0.0239 0.17358,0.11885 0.26037,0.14237 0.0868,0.0235 0.17358,0.11679 0.26038,0.13991 0.0868,0.0231 0.17358,0.11473 0.26037,0.13743 0.0868,0.0227 0.17358,0.11267 0.26037,0.13496 0.0868,0.0223 0.17359,0.11062 0.26038,0.1325 0.0868,0.0219 0.17358,0.10855 0.26037,0.13002 0.0868,0.0215 0.17359,0.1065 0.26038,0.12755 0.0868,0.0211 0.17358,0.10444 0.26037,0.12509 0.0868,0.0206 0.17359,0.10238 0.26038,0.12261 0.0868,0.0202 0.17358,0.10032 0.26037,0.12014 0.0868,0.0198 0.17359,0.0983 0.26038,0.11768 0.0868,0.0194 0.17358,0.0962 0.26037,0.1152 0.0868,0.019 0.17359,0.0942 0.26038,0.11273 0.0868,0.0186 0.17358,0.0921 0.26037,0.11027 0.0868,0.0182 0.17358,0.09 0.26038,0.10779 0.0868,0.0178 0.17358,0.088 0.26037,0.10533 0.0868,0.0173 0.17358,0.0859 0.26038,0.10285 0.0868,0.0169 0.17358,0.0839 0.26037,0.10038 0.0868,0.0165 0.17358,0.0818 0.26037,0.0979 0.0868,0.0161 0.17359,0.0797 0.26038,0.0954 0.0868,0.0157 0.17358,0.0777 0.26037,0.093 0.0868,0.0153 0.17359,0.0756 0.26038,0.0905 0.0868,0.0149 0.17358,0.0736 0.26037,0.088 0.0868,0.0145 0.17359,0.0715 0.26038,0.0856 0.0868,0.0141 0.17358,0.0695 0.26037,0.0831 0.0868,0.0136 0.17359,0.0674 0.26038,0.0806 0.0868,0.0132 0.17358,0.0653 0.26037,0.0782 0.0868,0.0128 0.17358,0.0633 0.26038,0.0757 0.0868,0.0124 0.17358,0.0612 0.26037,0.0732 0.0868,0.012 0.17358,0.0592 0.26038,0.0707 0.0868,0.0116 0.17358,0.0571 0.26037,0.0683 0.0868,0.0112 0.17358,0.055 0.26038,0.0658 0.0868,0.0108 0.17358,0.053 0.26037,0.0633 0.0868,0.0104 0.17358,0.0509 0.26037,0.0609 0.0868,0.01 0.17359,0.0489 0.26038,0.0584 0.0868,0.01 0.17358,0.0468 0.26037,0.0559 0.0868,0.009 0.17359,0.0448 0.26038,0.0534 0.0868,0.009 0.17358,0.0427 0.26037,0.051 0.0868,0.008 0.17359,0.0406 0.26038,0.0485 0.0868,0.008 0.17358,0.0386 0.26037,0.046 0.0868,0.007 0.17359,0.0365 0.26038,0.0436 0.0868,0.007 0.17358,0.0345 0.26037,0.0411 0.0868,0.007 0.17358,0.0324 0.26038,0.0386 0.0868,0.006 0.17358,0.0303 0.26037,0.0362 0.0868,0.006 0.17358,0.0283 0.26038,0.0337 0.0868,0.005 0.17358,0.0262 0.26037,0.0312 0.0868,0.005 0.17358,0.0242 0.26038,0.0288 0.0868,0.005 0.17358,0.0221 0.26037,0.0263 0.0868,0.004 0.17358,0.0201 0.26037,0.0238 0.0868,0.004 0.17359,0.018 0.26038,0.0213 0.0868,0.003 0.17358,0.0159 0.26037,0.0189 0.0868,0.003 0.17359,0.0139 0.26038,0.0164 0.0868,0.003 0.17358,0.0118 0.26037,0.0139 0.0868,0.002 0.17359,0.01 0.26038,0.0115 0.0868,0.002 0.17358,0.008 0.26037,0.009 0.0868,10e-4 0.17359,0.006 0.26038,0.007 0.0868,8.8e-4 0.17358,0.004 0.26037,0.004 0.0868,4.7e-4 0.17358,0.002 0.26038,0.002 0.0868,6e-5 0.17358,-5.3e-4 0.26037,-8.9e-4 0.0868,-3.5e-4 0.17358,-0.003 0.26038,-0.003 0.0868,-7.6e-4 0.17358,-0.005 0.26037,-0.006 0.0868,-0.001 0.17358,-0.007 0.26038,-0.008 0.0868,-0.002 0.17358,-0.009 0.26037,-0.0108 0.0868,-0.002 0.17358,-0.0108 0.26037,-0.0132 0.0868,-0.002 0.17359,-0.0129 0.26038,-0.0157 0.0868,-0.003 0.17358,-0.0149 0.26037,-0.0182 0.0868,-0.003 0.17359,-0.017 0.26038,-0.0206 0.0868,-0.004 0.17358,-0.019 0.26037,-0.0231 0.0868,-0.004 0.17359,-0.0211 0.26038,-0.0256 0.0868,-0.004 0.17358,-0.0232 0.26037,-0.028 0.0868,-0.005 0.17359,-0.0252 0.26038,-0.0305 0.0868,-0.005 0.17358,-0.0273 0.26037,-0.033 0.0868,-0.006 0.17358,-0.0294 0.26038,-0.0355 0.0868,-0.006 0.17358,-0.0314 0.26037,-0.0379 0.0868,-0.007 0.17358,-0.0335 0.26038,-0.0404 0.0868,-0.007 0.17358,-0.0355 0.26037,-0.0429 0.0868,-0.007 0.17358,-0.0376 0.26038,-0.0453 0.0868,-0.008 0.17358,-0.0396 0.26037,-0.0478 0.0868,-0.008 0.17358,-0.0417 0.26037,-0.0503 0.0868,-0.009 0.17359,-0.0437 0.26038,-0.0527 0.0868,-0.009 0.17358,-0.0458 0.26037,-0.0552 0.0868,-0.009 0.17359,-0.0479 0.26038,-0.0577 0.0868,-0.01 0.17358,-0.0499 0.26037,-0.0602 0.0868,-0.0102 0.17359,-0.052 0.26038,-0.0626 0.0868,-0.0106 0.17358,-0.054 0.26037,-0.0651 0.0868,-0.0111 0.17359,-0.0561 0.26038,-0.0676 0.0868,-0.0115 0.17358,-0.0582 0.26037,-0.07 0.0868,-0.0119 0.17358,-0.0602 0.26038,-0.0725 0.0868,-0.0123 0.17358,-0.0623 0.26037,-0.075 0.0868,-0.0127 0.17358,-0.0643 0.26038,-0.0774 0.0868,-0.0131 0.17358,-0.0664 0.26037,-0.0799 0.0868,-0.0135 0.17358,-0.0684 0.26038,-0.0824 0.0868,-0.0139 0.17358,-0.0705 0.26037,-0.0849 0.0868,-0.0143 0.17358,-0.0726 0.26037,-0.0873 0.0868,-0.0148 0.17359,-0.0746 0.26038,-0.0898 0.0868,-0.0152 0.17358,-0.0767 0.26037,-0.0923 0.0868,-0.0156 0.17359,-0.0787 0.26038,-0.0947 0.0868,-0.016 0.17358,-0.0808 0.26037,-0.0972 0.0868,-0.0164 0.17359,-0.0829 0.26038,-0.0997 0.0868,-0.0168 0.17358,-0.0849 0.26037,-0.10215 0.0868,-0.0172 0.17359,-0.087 0.26038,-0.10461 0.0868,-0.0177 0.17358,-0.089 0.26037,-0.10709 0.0868,-0.0181 0.17358,-0.0911 0.26038,-0.10956 0.0868,-0.0185 0.17358,-0.0931 0.26037,-0.11203 0.0868,-0.0189 0.17358,-0.0952 0.26038,-0.1145 0.0868,-0.0193 0.17358,-0.0973 0.26037,-0.11696 0.0868,-0.0197 0.17358,-0.0993 0.26038,-0.11944 0.0868,-0.0201 0.17358,-0.10139 0.26037,-0.12191 0.0868,-0.0205 0.17358,-0.10344 0.26037,-0.12438 0.0868,-0.0209 0.17359,-0.1055 0.26038,-0.12685 0.0868,-0.0213 0.17358,-0.10755 0.26037,-0.12931 0.0868,-0.0218 0.17359,-0.10962 0.26038,-0.13179 0.0868,-0.0222 0.17358,-0.11168 0.26037,-0.13426 0.0868,-0.0226 0.17359,-0.11373 0.26038,-0.13673 0.0868,-0.023 0.17358,-0.11579 0.26037,-0.13919 0.0868,-0.0234 0.17359,-0.11785 0.26038,-0.14167 0.0868,-0.0238 0.17358,-0.11991 0.26037,-0.14414 0.0868,-0.0242 0.17358,-0.12196 0.26038,-0.1466 0.0868,-0.0246 0.17358,-0.12403 0.26037,-0.14908 0.0868,-0.025 0.17358,-0.12608 0.26038,-0.15155 0.0868,-0.0255 0.17358,-0.12814 0.26037,-0.15401 0.0868,-0.0259 0.17358,-0.1302 0.26038,-0.15649 0.0868,-0.0263 0.17358,-0.13226 0.26037,-0.15896 0.0868,-0.0267 0.17358,-0.13431 0.26037,-0.16142 0.0868,-0.0271 0.17359,-0.13638 0.26038,-0.1639 0.0868,-0.0275 0.17358,-0.13843 0.26037,-0.16637 0.0868,-0.0279 0.17359,-0.14049 0.26038,-0.16883 0.0868,-0.0283 0.17358,-0.14255 0.26037,-0.17131 0.0868,-0.0288 0.17359,-0.1446 0.26038,-0.17377 0.0868,-0.0292 0.17358,-0.14667 0.26037,-0.17625 0.0868,-0.0296 0.17359,-0.14872 0.26038,-0.17871 0.0868,-0.03 0.17358,-0.15079 0.26037,-0.18119 0.0868,-0.0304 0.17358,-0.15284 0.26038,-0.18366 0.0868,-0.0308 0.17358,-0.15489 0.26037,-0.18612 0.0868,-0.0312 0.17358,-0.15696 0.26038,-0.1886 0.0868,-0.0316 0.17358,-0.15901 0.26037,-0.19106 0.0868,-0.032 0.17358,-0.16108 0.26037,-0.19354 0.0868,-0.0325 0.17359,-0.16313 0.26038,-0.196 0.0868,-0.0329 0.17358,-0.16519 0.26037,-0.19848 0.0868,-0.0333 0.17359,-0.16725 0.26038,-0.20094 0.0868,-0.0337 0.17358,-0.16931 0.26037,-0.20342 0.0868,-0.0341 0.17359,-0.17136 0.26038,-0.20588 0.0868,-0.0345 0.17358,-0.17343 0.26037,-0.20836 0.0868,-0.0349 0.17359,-0.17548 0.26038,-0.21082 0.0868,-0.0353 0.17358,-0.17754 0.26037,-0.2133 0.0868,-0.0358 0.17359,-0.17959 0.26038,-0.21576 0.0868,-0.0362 0.17358,-0.18166 0.26037,-0.21823 0.0868,-0.0366 0.17358,-0.18372 0.26038,-0.22071 0.0868,-0.037 0.17358,-0.18577 0.26037,-0.22317 0.0868,-0.0374 0.17358,-0.18783 0.26038,-0.22565 0.0868,-0.0378 0.17358,-0.18989 0.26037,-0.22811 0.0868,-0.0382 0.17358,-0.19195 0.26037,-0.23059 0.0868,-0.0386 0.17359,-0.194 0.26038,-0.23305 0.0868,-0.039 0.17358,-0.19606 0.26037,-0.23552 0.0868,-0.0395 0.17359,-0.19812 0.26038,-0.238 0.0868,-0.0399 0.17358,-0.20018 0.26037,-0.24046 0.0868,-0.0403 0.17359,-0.20224 0.26038,-0.24293 0.0868,-0.0407 0.17358,-0.2043 0.26037,-0.24541 0.0868,-0.0411 0.17359,-0.20635 0.26038,-0.24787 0.0868,-0.0415 0.17358,-0.20841 0.26037,-0.25034 0.0868,-0.0419 0.17359,-0.21047 0.26038,-0.25282 0.0868,-0.0423 0.17358,-0.21253 0.26037,-0.25528 0.0868,-0.0428 0.17358,-0.21459 0.26038,-0.25775 0.0868,-0.0432 0.17358,-0.21665 0.26037,-0.26022 0.0868,-0.0436 0.17358,-0.21871 0.26038,-0.2627 0.0868,-0.044 0.17358,-0.22076 0.26037,-0.26516 0.0868,-0.0444 0.17358,-0.22282 0.26037,-0.26763 0.0868,-0.0448 0.17359,-0.22488 0.26038,-0.27011 0.0868,-0.0452 0.17358,-0.22693 0.26037,-0.27257 0.0868,-0.0456 0.17359,-0.22899 0.26038,-0.27504 0.0868,-0.046 0.17358,-0.23105 0.26037,-0.27751 0.0868,-0.0465 0.17359,-0.23311 0.26038,-0.27998 0.0868,-0.0469 0.17358,-0.23518 0.26037,-0.28246 0.0868,-0.0473 0.17359,-0.23723 0.26038,-0.28492 0.0868,-0.0477 0.17358,-0.23929 0.26037,-0.28739 0.0868,-0.0481 0.17359,-0.24135 0.26038,-0.28986 0.0868,-0.0485 0.17358,-0.24341 0.26037,-0.29233 0.0868,-0.0489 0.17358,-0.24547 0.26038,-0.29481 0.0868,-0.0493 0.17358,-0.24752 0.26037,-0.29727 0.0868,-0.0498 0.17358,-0.24958 0.26038,-0.29974 0.0868,-0.0502 0.17358,-0.25163 0.26037,-0.30221 0.0868,-0.0506 0.17358,-0.25369 0.26037,-0.30468 0.0868,-0.051 0.17359,-0.25575 0.26038,-0.30715 0.0868,-0.0514 0.17358,-0.25781 0.26037,-0.30962 0.0868,-0.0518 0.17359,-0.25987 0.26038,-0.31209 0.0868,-0.0522 0.17358,-0.26193 0.26037,-0.31456 0.0868,-0.0526 0.17359,-0.26399 0.26038,-0.31704 0.0868,-0.053 0.17358,-0.26604 0.26037,-0.3195 0.0868,-0.0534 0.17359,-0.2681 0.26038,-0.32197 0.0868,-0.0539 0.17358,-0.27016 0.26037,-0.32444 0.0868,-0.0543 0.17359,-0.27222 0.26038,-0.32691 0.0868,-0.0547 0.17358,-0.27428 0.26037,-0.32938 0.0868,-0.0551 0.17358,-0.27633 0.26038,-0.33185 0.0868,-0.0555 0.17358,-0.27839 0.26037,-0.33432 0.0868,-0.0559 0.17358,-0.28045 0.26038,-0.33679 0.0868,-0.0563 0.17358,-0.28251 0.26037,-0.33926 0.0868,-0.0568 0.17358,-0.28457 0.26037,-0.34173 0.0868,-0.0572 0.17359,-0.28663 0.26038,-0.3442 0.0868,-0.0576 0.17358,-0.28868 0.26037,-0.34667 0.0868,-0.058 0.17359,-0.29074 0.26038,-0.34914 0.0868,-0.0584 0.17358,-0.2928 0.26037,-0.35161 0.0868,-0.0588 0.17359,-0.29486 0.26038,-0.35408 0.0868,-0.0592 0.17358,-0.29692 0.26037,-0.35655 0.0868,-0.0596 0.17359,-0.29897 0.26038,-0.35902 0.0868,-0.06 0.17358,-0.30103 0.26037,-0.36148 0.0868,-0.0605 0.17359,-0.3031 0.26038,-0.36396 0.0868,-0.0609 0.17358,-0.30516 0.26037,-0.36643 0.0868,-0.0613 0.17358,-0.30721 0.26038,-0.3689 0.0868,-0.0617 0.17358,-0.30927 0.26037,-0.37137 0.0868,-0.0621 0.17358,-0.31133 0.26038,-0.37384 0.0868,-0.0625 0.17358,-0.31338 0.26037,-0.37631 0.0868,-0.0629 0.17358,-0.31544 0.26037,-0.37878 0.0868,-0.0633 0.17359,-0.3175 0.26038,-0.38124 0.0868,-0.0638 0.17358,-0.31956 0.26037,-0.38372 0.0868,-0.0642 0.17359,-0.32162 0.26038,-0.38619 0.0868,-0.0646 0.17358,-0.32368 0.26037,-0.38866 0.0868,-0.065 0.17359,-0.32573 0.26038,-0.39113 0.0868,-0.0654 0.17358,-0.32779 0.26037,-0.3936 0.0868,-0.0658 0.17359,-0.32985 0.26038,-0.39606 0.0868,-0.0662 0.17358,-0.33191 0.26037,-0.39854 0.0868,-0.0666 0.17359,-0.33397 0.26038,-0.40101 0.0868,-0.067 0.17358,-0.33603 0.26037,-0.40348 0.0868,-0.0675 0.17358,-0.33808 0.26038,-0.40594 0.0868,-0.0679 0.17358,-0.34015 0.26037,-0.40842 0.0868,-0.0683 0.17358,-0.3422 0.26038,-0.41089 0.0868,-0.0687 0.17358,-0.34426 0.26037,-0.41336 0.0868,-0.0691 0.17358,-0.34631 0.26037,-0.41582 0.0868,-0.0695 0.17359,-0.34838 0.26038,-0.4183 0.0868,-0.0699 0.17358,-0.35044 0.26037,-0.42077 0.0868,-0.0703 0.17359,-0.35249 0.26038,-0.42324 0.0868,-0.0707 0.17358,-0.35455 0.26037,-0.4257 0.0868,-0.0712 0.17359,-0.35661 0.26038,-0.42818 0.0868,-0.0716 0.17358,-0.35867 0.26037,-0.43065 0.0868,-0.072 0.17359,-0.36072 0.26038,-0.43311 0.0868,-0.0724 0.17358,-0.36279 0.26037,-0.43559 0.0868,-0.0728 0.17359,-0.36484 0.26038,-0.43806 0.0868,-0.0732 0.17358,-0.3669 0.26037,-0.44052 0.0868,-0.0736 0.17358,-0.36896 0.26038,-0.443 0.0868,-0.074 0.17358,-0.37101 0.26037,-0.44546 0.0868,-0.0745 0.17358,-0.37308 0.26038,-0.44794 0.0868,-0.0749 0.17358,-0.37513 0.26037,-0.45041 0.0868,-0.0753 0.17358,-0.37719 0.26037,-0.45287 0.0868,-0.0757 0.17359,-0.37925 0.26038,-0.45535 0.0868,-0.0761 0.17358,-0.38131 0.26037,-0.45781 0.0868,-0.0765 0.17359,-0.38337 0.26038,-0.46029 0.0868,-0.0769 0.17358,-0.38542 0.26037,-0.46276 0.0868,-0.0773 0.17359,-0.38748 0.26038,-0.46522 0.0868,-0.0777 0.17358,-0.38954 0.26037,-0.4677 0.0868,-0.0781 0.17359,-0.39159 0.26038,-0.47016 0.0868,-0.0786 0.17358,-0.39366 0.26037,-0.47264 0.0868,-0.079 0.17359,-0.39571 0.26038,-0.4751 0.0868,-0.0794 0.17358,-0.39778 0.26037,-0.47758 0.0868,-0.0798 0.17358,-0.39983 0.26038,-0.48004 0.0868,-0.0802 0.17358,-0.40189 0.26037,-0.48252 0.0868,-0.0806 0.17358,-0.40395 0.26038,-0.48498 0.0868,-0.081 0.17358,-0.40601 0.26037,-0.48746 0.0868,-0.0814 0.17358,-0.40806 0.26037,-0.48992 0.0868,-0.0819 0.17359,-0.41012 0.26038,-0.4924 0.0868,-0.0823 0.17358,-0.41218 0.26037,-0.49486 0.0868,-0.0827 0.17359,-0.41424 0.26038,-0.49733 0.0868,-0.0831 0.17358,-0.4163 0.26037,-0.49981 0.0868,-0.0835 0.17359,-0.41835 0.26038,-0.50227 0.0868,-0.0839 0.17358,-0.42042 0.26037,-0.50475 0.0868,-0.0843 0.17359,-0.42247 0.26038,-0.50721 0.0868,-0.0847 0.17358,-0.42453 0.26037,-0.50968 0.0868,-0.0852 0.17359,-0.42659 0.26038,-0.51216 0.0868,-0.0856 0.17358,-0.42865 0.26037,-0.51462 0.0868,-0.086 0.17358,-0.43071 0.26038,-0.5171 0.0868,-0.0864 0.17358,-0.43276 0.26037,-0.51956 0.0868,-0.0868 0.17358,-0.43482 0.26038,-0.52203 0.0868,-0.0872 0.17358,-0.43688 0.26037,-0.52451 0.0868,-0.0876 0.17358,-0.43893 0.26037,-0.52697 0.0868,-0.088 0.17359,-0.441 0.26038,-0.52944 0.0868,-0.0884 0.17358,-0.44306 0.26037,-0.53192 0.0868,-0.0889 0.17359,-0.44511 0.26038,-0.53438 0.0868,-0.0893 0.17358,-0.44717 0.26037,-0.53685 0.0868,-0.0897 0.17359,-0.44923 0.26038,-0.53932 0.0868,-0.0901 0.17358,-0.45129 0.26037,-0.5418 0.0868,-0.0905 0.17359,-0.45334 0.26038,-0.54426 0.0868,-0.0909 0.17358,-0.4554 0.26037,-0.54673 0.0868,-0.0913 0.17359,-0.45747 0.26038,-0.5492 0.0868,-0.0917 0.17358,-0.45953 0.26037,-0.55168 0.0868,-0.0922 0.17358,-0.46158 0.26038,-0.55414 0.0868,-0.0926 0.17358,-0.46364 0.26037,-0.55661 0.0868,-0.093 0.17358,-0.4657 0.26038,-0.55908 0.0868,-0.0934 0.17358,-0.46776 0.26037,-0.56156 0.0868,-0.0938 0.17358,-0.46981 0.26037,-0.56402 0.0868,-0.0942 0.17359,-0.47187 0.26038,-0.56649 0.0868,-0.0946 0.17358,-0.47393 0.26037,-0.56896 0.0868,-0.095 0.17359,-0.47599 0.26038,-0.57143 0.0868,-0.0955 0.17358,-0.47805 0.26037,-0.5739 0.0868,-0.0959 0.17359,-0.48011 0.26038,-0.57638 0.0868,-0.0963 0.17358,-0.48216 0.26037,-0.57884 0.0868,-0.0967 0.17359,-0.48422 0.26038,-0.58131 0.0868,-0.0971 0.17358,-0.48628 0.26037,-0.58378 0.0868,-0.0975 0.17359,-0.48834 0.26038,-0.58625 0.0868,-0.0979 0.17358,-0.4904 0.26037,-0.58872 0.0868,-0.0983 0.17358,-0.49246 0.26038,-0.59119 0.0868,-0.0987 0.17358,-0.49451 0.26037,-0.59366 0.0868,-0.0992 0.17358,-0.49657 0.26038,-0.59614 0.0868,-0.0996 0.17358,-0.49862 0.26037,-0.5986 0.0868,-0.1 0.17358,-0.50068 0.26037,-0.60107 0.0868,-0.10038 0.17359,-0.50274 0.26038,-0.60354 0.0868,-0.10079 0.17358,-0.5048 0.26037,-0.60601 0.0868,-0.1012 0.17359,-0.50686 0.26038,-0.60848 0.0868,-0.10162 0.17358,-0.50892 0.26037,-0.61095 0.0868,-0.10203 0.17359,-0.51098 0.26038,-0.61342 0.0868,-0.10244 0.17358,-0.51303 0.26037,-0.61589 0.0868,-0.10285 0.17359,-0.51509 0.26038,-0.61836 0.0868,-0.10326 0.17358,-0.51715 0.26037,-0.62083 0.0868,-0.10368 0.17359,-0.51921 0.26038,-0.6233 0.0868,-0.10409 0.17358,-0.52127 0.26037,-0.62577 0.0868,-0.1045 0.17358,-0.52332 0.26038,-0.62824 0.0868,-0.10491 0.17358,-0.52538 0.26037,-0.63071 0.0868,-0.10532 0.17358,-0.52744 0.26038,-0.63318 0.0868,-0.10573 0.17358,-0.5295 0.26037,-0.63565 0.0868,-0.10614 0.17358,-0.53156 0.26037,-0.63812 0.0868,-0.10655 0.17359,-0.53361 0.26038,-0.64058 0.0868,-0.10697 0.17358,-0.53568 0.26037,-0.64306 0.0868,-0.10739 0.17359,-0.53774 0.26038,-0.64553 0.0868,-0.1078 0.17358,-0.5398 0.26037,-0.648 0.0868,-0.10821 0.17359,-0.54185 0.26038,-0.65047 0.0868,-0.10862 0.17358,-0.54391 0.26037,-0.65294 0.0868,-0.10903 0.17359,-0.54597 0.26038,-0.65541 0.0868,-0.10944 0.17358,-0.54802 0.26037,-0.65788 0.0868,-0.10985 0.17359,-0.55008 0.26038,-0.66034 0.0868,-0.11027 0.17358,-0.55215 0.26037,-0.66282 0.0868,-0.11068 0.17358,-0.5542 0.26038,-0.66529 0.0868,-0.11109 0.17358,-0.55626 0.26037,-0.66776 0.0868,-0.1115 0.17358,-0.55832 0.26038,-0.67023 0.0868,-0.11191 0.17358,-0.56037 0.26037,-0.6727 0.0868,-0.11232 0.17358,-0.56243 0.26037,-0.67516 0.0868,-0.11274 0.17359,-0.5645 0.26038,-0.67764 0.0868,-0.11315 0.17358,-0.56655 0.26037,-0.68011 0.0868,-0.11356 0.17359,-0.56861 0.26038,-0.68258 0.0868,-0.11397 0.17358,-0.57066 0.26037,-0.68504 0.0868,-0.11439 0.17359,-0.57273 0.26038,-0.68752 0.0868,-0.11479 0.17358,-0.57479 0.26037,-0.68999 0.0868,-0.1152 0.17359,-0.57684 0.26038,-0.69246 0.0868,-0.11561 0.17358,-0.5789 0.26037,-0.69492 0.0868,-0.11603 0.17359,-0.58096 0.26038,-0.6974 0.0868,-0.11644 0.17358,-0.58302 0.26037,-0.69987 0.0868,-0.11685 0.17358,-0.58507 0.26038,-0.70234 0.0868,-0.11726 0.17358,-0.58713 0.26037,-0.7048 0.0868,-0.11768 0.17358,-0.58919 0.26038,-0.70728 0.0868,-0.11808 0.17358,-0.59125 0.26037,-0.70975 0.0868,-0.11849 0.17358,-0.5933 0.26037,-0.71221 0.0868,-0.11891 0.17359,-0.59537 0.26038,-0.71469 0.0868,-0.11932 0.17358,-0.59742 0.26037,-0.71716 0.0868,-0.11973 0.17359,-0.59948 0.26038,-0.71962 0.0868,-0.12015 0.17358,-0.60154 0.26037,-0.7221 0.0868,-0.12055 0.17359,-0.6036 0.26038,-0.72456 0.0868,-0.12097 0.17358,-0.60566 0.26037,-0.72704 0.0868,-0.12138 0.17359,-0.60772 0.26038,-0.72951 0.0868,-0.12179 0.17358,-0.60977 0.26037,-0.73197 0.0868,-0.1222 0.17358,-0.61184 0.26038,-0.73445 0.0868,-0.12261 0.17358,-0.61389 0.26037,-0.73691 0.0868,-0.12303 0.17358,-0.61595 0.26038,-0.73939 0.0868,-0.12344 0.17358,-0.61801 0.26037,-0.74186 0.0868,-0.12384 0.17358,-0.62006 0.26038,-0.74432 0.0868,-0.12426 0.17358,-0.62212 0.26037,-0.7468 0.0868,-0.12467 0.17358,-0.62418 0.26037,-0.74926 0.0868,-0.12509 0.17359,-0.62624 0.26038,-0.75174 0.0868,-0.12549 0.17358,-0.6283 0.26037,-0.7542 0.0868,-0.12591 0.17359,-0.63036 0.26038,-0.75668 0.0868,-0.12632 0.17358,-0.63241 0.26037,-0.75914 0.0868,-0.12673 0.17359,-0.63448 0.26038,-0.76162 0.0868,-0.12714 0.17358,-0.63653 0.26037,-0.76408 0.0868,-0.12756 0.17359,-0.63859 0.26038,-0.76656 0.0868,-0.12796 0.17358,-0.64064 0.26037,-0.76902 0.0868,-0.12838 0.17358,-0.64271 0.26038,-0.7715 0.0868,-0.12878 0.17358,-0.64476 0.26037,-0.77396 0.0868,-0.1292 0.17358,-0.64682 0.26038,-0.77643 0.0868,-0.12962 0.17358,-0.64889 0.26037,-0.77891 0.0868,-0.13002 0.17358,-0.65094 0.26038,-0.78137 0.0868,-0.13044 0.17358,-0.653 0.26037,-0.78385 0.0868,-0.13084 0.17358,-0.65505 0.26037,-0.78631 0.0868,-0.13126 0.17359,-0.65711 0.26038,-0.78878 0.0868,-0.13167 0.17358,-0.65918 0.26037,-0.79126 0.0868,-0.13208 0.17359,-0.66123 0.26038,-0.79372 0.0868,-0.1325 0.17358,-0.66329 0.26037,-0.7962 0.0868,-0.1329 0.17359,-0.66534 0.26038,-0.79866 0.0868,-0.13332 0.17358,-0.6674 0.26037,-0.80113 0.0868,-0.13373 0.17359,-0.66947 0.26038,-0.80361 0.0868,-0.13414 0.17358,-0.67152 0.26037,-0.80607 0.0868,-0.13455 0.17358,-0.67358 0.26038,-0.80854 0.0868,-0.13497 0.17358,-0.67564 0.26037,-0.81102 0.0868,-0.13537 0.17358,-0.67769 0.26038,-0.81348 0.0868,-0.13579 0.17358,-0.67975 0.26037,-0.81595 0.0868,-0.1362 0.17358,-0.68181 0.26038,-0.81842 0.0868,-0.13661 0.17358,-0.68388 0.26037,-0.8209 0.0868,-0.13702 0.17358,-0.68593 0.26037,-0.82336 0.0868,-0.13743 0.17359,-0.68799 0.26038,-0.82583 0.0868,-0.13785 0.17358,-0.69005 0.26037,-0.82831 0.0868,-0.13825 0.17359,-0.6921 0.26038,-0.83077 0.0868,-0.13867 0.17358,-0.69416 0.26037,-0.83324 0.0868,-0.13908 0.17359,-0.69622 0.26038,-0.83571 0.0868,-0.13949 0.17358,-0.69828 0.26037,-0.83818 0.0868,-0.13991 0.17359,-0.70034 0.26038,-0.84066 0.0868,-0.14031 0.17358,-0.70239 0.26037,-0.84312 0.0868,-0.14072 0.17358,-0.70445 0.26038,-0.84559 0.0868,-0.14114 0.17358,-0.70651 0.26037,-0.84806 0.0868,-0.14155 0.17358,-0.70857 0.26038,-0.85053 0.0868,-0.14196 0.17358,-0.71063 0.26037,-0.853 0.0868,-0.14238 0.17358,-0.71269 0.26038,-0.85548 0.0868,-0.14278 0.17358,-0.71474 0.26037,-0.85794 0.0868,-0.14319 0.17358,-0.7168 0.26037,-0.86041 0.0868,-0.14361 0.17359,-0.71886 0.26038,-0.86288 0.0868,-0.14402 0.17358,-0.72092 0.26037,-0.86535 0.0868,-0.14443 0.17359,-0.72298 0.26038,-0.86782 0.0868,-0.14485 0.17358,-0.72504 0.26037,-0.87029 0.0868,-0.14526 0.17359,-0.7271 0.26038,-0.87276 0.0868,-0.14567 0.17358,-0.72916 0.26037,-0.87524 0.0868,-0.14607 0.17359,-0.73121 0.26038,-0.8777 0.0868,-0.14649 0.17358,-0.73327 0.26037,-0.88017 0.0868,-0.1469 0.17358,-0.73532 0.26038,-0.88264 0.0868,-0.14731 0.17358,-0.73738 0.26037,-0.88511 0.0868,-0.14772 0.17358,-0.73944 0.26038,-0.88758 0.0868,-0.14813 0.17358,-0.7415 0.26037,-0.89005 0.0868,-0.14855 0.17358,-0.74356 0.26038,-0.89252 0.0868,-0.14896 0.17358,-0.74562 0.26037,-0.89499 0.0868,-0.14937 0.17358,-0.74768 0.26037,-0.89746 0.0868,-0.14978 0.17359,-0.74973 0.26038,-0.89993 0.0868,-0.15019 0.17358,-0.75179 0.26037,-0.9024 0.0868,-0.1506 0.17359,-0.75385 0.26038,-0.90487 0.0868,-0.15102 0.17358,-0.75591 0.26037,-0.90734 0.0868,-0.15143 0.17359,-0.75797 0.26038,-0.90981 0.0868,-0.15184 0.17358,-0.76002 0.26037,-0.91228 0.0868,-0.15225 0.17359,-0.76208 0.26038,-0.91475 0.0868,-0.15266 0.17358,-0.76414 0.26037,-0.91722 0.0868,-0.15307 0.17358,-0.7662 0.26038,-0.91968 0.0868,-0.15349 0.17358,-0.76826 0.26037,-0.92216 0.0868,-0.1539 0.17358,-0.77032 0.26038,-0.92463 0.0868,-0.15431 0.17358,-0.77238 0.26037,-0.9271 0.0868,-0.15472 0.17358,-0.77444 0.26038,-0.92957 0.0868,-0.15513 0.17358,-0.77649 0.26037,-0.93204 0.0868,-0.15555 0.17358,-0.77855 0.26037,-0.93451 0.0868,-0.15596 0.17359,-0.78061 0.26038,-0.93698 0.0868,-0.15637 0.17358,-0.78266 0.26037,-0.93945 0.0868,-0.15678 0.17359,-0.78472 0.26038,-0.94191 0.0868,-0.1572 0.17358,-0.78679 0.26037,-0.94439 0.0868,-0.15761 0.17359,-0.78884 0.26038,-0.94686 0.0868,-0.15802 0.17358,-0.7909 0.26037,-0.94933 0.0868,-0.15843 0.17359,-0.79296 0.26038,-0.9518 0.0868,-0.15884 0.17358,-0.79501 0.26037,-0.95426 0.0868,-0.15925 0.17358,-0.79708 0.26038,-0.95674 0.0868,-0.15966 0.17358,-0.79914 0.26037,-0.95921 0.0868,-0.16007 0.17358,-0.80119 0.26038,-0.96168 0.0868,-0.16048 0.17358,-0.80325 0.26037,-0.96415 0.0868,-0.16089 0.17358,-0.8053 0.26038,-0.96661 0.0868,-0.16131 0.17358,-0.80737 0.26037,-0.96909 0.0868,-0.16172 0.17358,-0.80943 0.26037,-0.97156 0.0868,-0.16213 0.17359,-0.81148 0.26038,-0.97402 0.0868,-0.16255 0.17358,-0.81355 0.26037,-0.9765 0.0868,-0.16296 0.17359,-0.8156 0.26038,-0.97897 0.0868,-0.16337 0.17358,-0.81766 0.26037,-0.98144 0.0868,-0.16377 0.17359,-0.81971 0.26038,-0.9839 0.0868,-0.16419 0.17358,-0.82178 0.26037,-0.98638 0.0868,-0.1646 0.17359,-0.82383 0.26038,-0.98885 0.0868,-0.16501 0.17358,-0.82589 0.26037,-0.99131 0.0868,-0.16543 0.17358,-0.82795 0.26038,-0.99379 0.0868,-0.16584 0.17358,-0.83001 0.26037,-0.99626 0.0868,-0.16624 0.17358,-0.83206 0.26038,-0.99872 0.0868,-0.16666 0.17358,-0.83413 0.26037,-1.0012 0.0868,-0.16707 0.17358,-0.83618 0.26037,-1.00367 0.0868,-0.16748 0.17359,-0.83824 0.26038,-1.00613 0.0868,-0.1679 0.17358,-0.8403 0.26037,-1.00861 0.0868,-0.1683 0.17359,-0.84235 0.26038,-1.01107 0.0868,-0.16872 0.17358,-0.84442 0.26037,-1.01355 0.0868,-0.16913 0.17359,-0.84647 0.26038,-1.01601 0.0868,-0.16955 0.17358,-0.84854 0.26037,-1.01849 0.0868,-0.16995 0.17359,-0.85059 0.26038,-1.02096 0.0868,-0.17036 0.17358,-0.85264 0.26037,-1.02342 0.0868,-0.17078 0.17359,-0.85471 0.26038,-1.0259 0.0868,-0.17119 0.17358,-0.85676 0.26037,-1.02836 0.0868,-0.1716 0.17358,-0.85883 0.26038,-1.03084 0.0868,-0.17201 0.17358,-0.86088 0.26037,-1.0333 0.0868,-0.17243 0.17358,-0.86294 0.26038,-1.03578 0.0868,-0.17283 0.17358,-0.865 0.26037,-1.03824 0.0868,-0.17325 0.17358,-0.86706 0.26037,-1.04072 0.0868,-0.17366 0.17359,-0.86911 0.26038,-1.04318 0.0868,-0.17407 0.17358,-0.87118 0.26037,-1.04566 0.0868,-0.17448 0.17359,-0.87323 0.26038,-1.04812 0.0868,-0.1749 0.17358,-0.87529 0.26037,-1.0506 0.0868,-0.1753 0.17359,-0.87734 0.26038,-1.05306 0.0868,-0.17572 0.17358,-0.87941 0.26037,-1.05554 0.0868,-0.17612 0.17359,-0.88146 0.26038,-1.058 0.0868,-0.17654 0.17358,-0.88352 0.26037,-1.06047 0.0868,-0.17696 0.17359,-0.88558 0.26038,-1.06295 0.0868,-0.17736 0.17358,-0.88764 0.26037,-1.06541 0.0868,-0.17778 0.17358,-0.8897 0.26038,-1.06789 0.0868,-0.17818 0.17358,-0.89175 0.26037,-1.07035 0.0868,-0.1786 0.17358,-0.89381 0.26038,-1.07282 0.0868,-0.17901 0.17358,-0.89588 0.26037,-1.0753 0.0868,-0.17942 0.17358,-0.89793 0.26037,-1.07776 0.0868,-0.17983 0.17359,-0.89999 0.26038,-1.08023 0.0868,-0.18025 0.17358,-0.90205 0.26037,-1.08271 0.0868,-0.18065 0.17359,-0.9041 0.26038,-1.08517 0.0868,-0.18107 0.17358,-0.90616 0.26037,-1.08764 0.0868,-0.18148 0.17359,-0.90823 0.26038,-1.09012 0.0868,-0.18189 0.17358,-0.91028 0.26037,-1.09258 0.0868,-0.1823 0.17359,-0.91234 0.26038,-1.09505 0.0868,-0.18272 0.17358,-0.9144 0.26037,-1.09753 0.0868,-0.18312 0.17359,-0.91645 0.26038,-1.09999 0.0868,-0.18354 0.17358,-0.91851 0.26037,-1.10246 0.0868,-0.18395 0.17358,-0.92057 0.26038,-1.10493 0.0868,-0.18436 0.17358,-0.92263 0.26037,-1.10741 0.0868,-0.18477 0.17358,-0.92468 0.26038,-1.10987 0.0868,-0.18518 0.17358,-0.92674 0.26037,-1.11234 0.0868,-0.1856 0.17358,-0.92881 0.26037,-1.11481 0.0868,-0.18601 0.17359,-0.93087 0.26038,-1.11729 0.0868,-0.18641 0.17358,-0.93292 0.26037,-1.11975 0.0868,-0.18683 0.17359,-0.93498 0.26038,-1.12222 0.0868,-0.18724 0.17358,-0.93704 0.26037,-1.12469 0.0868,-0.18766 0.17359,-0.9391 0.26038,-1.12716 0.0868,-0.18807 0.17358,-0.94116 0.26037,-1.12963 0.0868,-0.18848 0.17359,-0.94322 0.26038,-1.13211 0.0868,-0.18889 0.17358,-0.94527 0.26037,-1.13457 0.0868,-0.1893 0.17359,-0.94733 0.26038,-1.13704 0.0868,-0.18971 0.17358,-0.94939 0.26037,-1.13951 0.0868,-0.19012 0.17358,-0.95145 0.26038,-1.14198 0.0868,-0.19054 0.17358,-0.9535 0.26037,-1.14445 0.0868,-0.19095 0.17358,-0.95556 0.26038,-1.14692 0.0868,-0.19136 0.17358,-0.95762 0.26037,-1.14939 0.0868,-0.19178 0.17358,-0.95968 0.26037,-1.15187 0.0868,-0.19218 0.17359,-0.96173 0.26038,-1.15433 0.0868,-0.19259 0.17358,-0.96379 0.26037,-1.1568 0.0868,-0.193 0.17359,-0.96585 0.26038,-1.15927 0.0868,-0.19342 0.17358,-0.96791 0.26037,-1.16174 0.0868,-0.19383 0.17359,-0.96997 0.26038,-1.16421 0.0868,-0.19424 0.17358,-0.97203 0.26037,-1.16668 0.0868,-0.19465 0.17359,-0.97409 0.26038,-1.16915 0.0868,-0.19506 0.17358,-0.97614 0.26037,-1.17162 0.0868,-0.19548 0.17359,-0.9782 0.26038,-1.17409 0.0868,-0.19589 0.17358,-0.98026 0.26037,-1.17656 0.0868,-0.1963 0.17358,-0.98232 0.26038,-1.17903 0.0868,-0.19671 0.17358,-0.98438 0.26037,-1.1815 0.0868,-0.19712 0.17358,-0.98644 0.26038,-1.18397 0.0868,-0.19753 0.17358,-0.98849 0.26037,-1.18644 0.0868,-0.19794 0.17358,-0.99055 0.26037,-1.18891 0.0868,-0.19836 0.17359,-0.99261 0.26038,-1.19138 0.0868,-0.19877 0.17358,-0.99467 0.26037,-1.19385 0.0868,-0.19918 0.17359,-0.99672 0.26038,-1.19632 0.0868,-0.19959 0.17358,-0.99878 0.26037,-1.19879 0.0868,-0.2 0.17359,-1.00084 0.26038,-1.20125 0.0868,-0.20042 0.17358,-1.00291 0.26037,-1.20373 0.0868,-0.20083 0.17359,-1.00496 0.26038,-1.2062 0.0868,-0.20124 0.17358,-1.00702 0.26037,-1.20867 0.0868,-0.20165 0.17359,-1.00908 0.26038,-1.21114 0.0868,-0.20206 0.17358,-1.01114 0.26037,-1.21361 0.0868,-0.20247 0.17358,-1.01319 0.26038,-1.21608 0.0868,-0.20288 0.17358,-1.01525 0.26037,-1.21855 0.0868,-0.20329 0.17358,-1.01731 0.26038,-1.22101 0.0868,-0.20371 0.17358,-1.01937 0.26037,-1.22349 0.0868,-0.20412 0.17358,-1.02143 0.26037,-1.22596 0.0868,-0.20453 0.17359,-1.02349 0.26038,-1.22843 0.0868,-0.20494 0.17358,-1.02554 0.26037,-1.2309 0.0868,-0.20535 0.17359,-1.0276 0.26038,-1.23337 0.0868,-0.20576 0.17358,-1.02965 0.26037,-1.23583 0.0868,-0.20618 0.17359,-1.03172 0.26038,-1.23831 0.0868,-0.20659 0.17358,-1.03378 0.26037,-1.24078 0.0868,-0.207 0.17359,-1.03583 0.26038,-1.24325 0.0868,-0.20741 0.17358,-1.03789 0.26037,-1.24571 0.0868,-0.20783 0.17359,-1.03995 0.26038,-1.24819 0.0868,-0.20824 0.17358,-1.04201 0.26037,-1.25066 0.0868,-0.20865 0.17358,-1.04407 0.26038,-1.25313 0.0868,-0.20906 0.17358,-1.04612 0.26037,-1.25559 0.0868,-0.20948 0.17358,-1.04819 0.26038,-1.25807 0.0868,-0.20988 0.17358,-1.05024 0.26037,-1.26054 0.0868,-0.21029 0.17358,-1.0523 0.26037,-1.263004 0.0868,-0.210707 0.17359,-1.054359 0.26038,-1.265477 0.0868,-0.211119 0.17358,-1.056417 0.26037,-1.267947 0.0868,-0.21153 0.17359,-1.058475 0.26038,-1.270417 0.0868,-0.211942 0.17358,-1.060533 0.26037,-1.272886 0.0868,-0.212354 0.17359,-1.062591 0.26038,-1.275357 0.0868,-0.212765 0.17358,-1.064649 0.26037,-1.277826 0.0868,-0.213177 0.17359,-1.066708 0.26038,-1.280296 0.0868,-0.213589 0.17358,-1.068766 0.26037,-1.282767 0.0868,-0.214 0.17359,-1.070824 0.26038,-1.285236 0.0868,-0.214412 0.17358,-1.072882 0.26037,-1.287706 0.0868,-0.214823 0.17358,-1.074941 0.26038,-1.290176 0.0868,-0.215235 0.17358,-1.076999 0.26037,-1.292646 0.0868,-0.215646 0.17358,-1.079057 0.26038,-1.295115 0.0868,-0.216059 0.17358,-1.081116 0.26037,-1.297586 0.0868,-0.21647 0.17358,-1.083174 0.26037,-1.300056 0.0868,-0.216881 0.17359,-1.085232 0.26038,-1.302525 0.0868,-0.217293 0.17358,-1.08729 0.26037,-1.304995 0.0868,-0.217706 0.17359,-1.089349 0.26038,-1.307466 0.0868,-0.218117 0.17358,-1.091407 0.26037,-1.309935 0.0868,-0.218528 0.17359,-1.093465 0.26038,-1.312405 0.0868,-0.21894 0.17358,-1.095524 0.26037,-1.314875 0.0868,-0.219352 0.17359,-1.097582 0.26038,-1.317345 0.0868,-0.219764 0.17358,-1.09964 0.26037,-1.319815 0.0868,-0.220175 0.17359,-1.101698 0.26038,-1.322285 0.0868,-0.220587 0.17358,-1.103756 0.26037,-1.324755 0.0868,-0.220998 0.17358,-1.105814 0.26038,-1.327224 0.0868,-0.22141 0.17358,-1.107873 0.26037,-1.329695 0.0868,-0.221821 0.17358,-1.109931 0.26038,-1.332164 0.0868,-0.222233 0.17358,-1.11199 0.26037,-1.334635 0.0868,-0.222644 0.17358,-1.114047 0.26037,-1.337104 0.0868,-0.223056 0.17359,-1.116106 0.26038,-1.339574 0.0868,-0.223468 0.17358,-1.118164 0.26037,-1.342044 0.0868,-0.22388 0.17359,-1.120223 0.26038,-1.344514 0.0868,-0.224292 0.17358,-1.122281 0.26037,-1.346984 0.0868,-0.224703 0.17359,-1.124339 0.26038,-1.349454 0.0868,-0.225115 0.17358,-1.126397 0.26037,-1.351924 0.0868,-0.225526 0.17359,-1.128455 0.26038,-1.354393 0.0868,-0.225938 0.17358,-1.130514 0.26037,-1.356864 0.0868,-0.22635 0.17359,-1.132572 0.26038,-1.359333 0.0868,-0.226762 0.17358,-1.134631 0.26037,-1.361804 0.0868,-0.227173 0.17358,-1.136688 0.26038,-1.364273 0.0868,-0.227585 0.17358,-1.138747 0.26037,-1.366743 0.0868,-0.227996 0.17358,-1.140805 0.26038,-1.369213 0.0868,-0.228408 0.17358,-1.142864 0.26037,-1.371683 0.0868,-0.22882 0.17358,-1.144922 0.26037,-1.374153 0.0868,-0.229231 0.17359,-1.14698 0.26038,-1.376623 0.0868,-0.229643 0.17358,-1.149038 0.26037,-1.379093 0.0868,-0.230054 0.17359,-1.151096 0.26038,-1.381562 0.0868,-0.230467 0.17358,-1.153155 0.26037,-1.384033 0.0868,-0.230878 0.17359,-1.155213 0.26038,-1.386503 0.0868,-0.231289 0.17358,-1.157271 0.26037,-1.388972 0.0868,-0.231701 0.17359,-1.159329 0.26038,-1.391442 0.0868,-0.232113 0.17358,-1.161388 0.26037,-1.393912 0.0868,-0.232525 0.17359,-1.163446 0.26038,-1.396383 0.0868,-0.232936 0.17358,-1.165504 0.26037,-1.398852 0.0868,-0.233348 0.17358,-1.167562 0.26038,-1.401322 0.0868,-0.233759 0.17358,-1.16962 0.26037,-1.403792 0.0868,-0.234171 0.17358,-1.171679 0.26038,-1.406261 0.0868,-0.234583 0.17358,-1.173738 0.26037,-1.408732"
       title="x*x"
       clip-path="url(#clipPath)"
       id="path6821" />
    <path
       inkscape:connector-curvature="0"
       inkscape:original-d="m 211.61843,384.45537 180.81731,0"
       inkscape:path-effect="#path-effect6947"
       id="path6945"
       d="m 211.61843,384.45537 180.81731,0"
       style="fill:none;fill-rule:evenodd;stroke:#000000;stroke-width:1;stroke-linecap:butt;stroke-linejoin:miter;stroke-opacity:1;stroke-miterlimit:4;stroke-dasharray:12,12;stroke-dashoffset:0" />
    <path
       inkscape:connector-curvature="0"
       inkscape:original-d="m 360.67907,384.45537 -0.0631,65.0917"
       inkscape:path-effect="#path-effect6951"
       id="path6949"
       d="m 360.67907,384.45537 -0.0631,65.0917"
       style="fill:none;fill-rule:evenodd;stroke:#000000;stroke-width:1;stroke-linecap:butt;stroke-linejoin:miter;stroke-opacity:1;stroke-miterlimit:4;stroke-dasharray:8,8;stroke-dashoffset:0" />
    <path
       inkscape:connector-curvature="0"
       inkscape:original-d="m 241.07142,384.46043 0,65.13393"
       inkscape:path-effect="#path-effect6955"
       id="path6953"
       d="m 241.07142,384.46043 0,65.13393"
       style="fill:none;fill-rule:evenodd;stroke:#000000;stroke-width:1;stroke-linecap:butt;stroke-linejoin:miter;stroke-opacity:1;stroke-miterlimit:4;stroke-dasharray:8,8;stroke-dashoffset:0" />
    <g
       id="g6983"
       transform="matrix(0.72113455,0,0,0.72113455,249.78042,266.40081)">
      <g
         word-spacing="normal"
         letter-spacing="normal"
         font-size-adjust="none"
         font-stretch="normal"
         font-weight="normal"
         font-variant="normal"
         font-style="normal"
         stroke-miterlimit="10.433"
         xml:space="preserve"
         transform="matrix(0.27142858,0,0,-0.27142858,-47.500001,238.59375)"
         id="content"
         style="font-style:normal;font-variant:normal;font-weight:normal;font-stretch:normal;letter-spacing:normal;word-spacing:normal;text-anchor:start;fill:none;fill-opacity:1;fill-rule:evenodd;stroke:#000000;stroke-linecap:butt;stroke-linejoin:miter;stroke-miterlimit:10.43299961;stroke-dasharray:none;stroke-dashoffset:0;stroke-opacity:1"><path
           id="path6986"
           d="m 487.16,434.04 0.1,0.37 0.05,0.19 0.06,0.17 0.06,0.18 0.07,0.17 0.07,0.17 0.08,0.16 0.08,0.16 0.1,0.16 0.09,0.15 0.11,0.14 0.11,0.14 0.13,0.13 0.13,0.13 0.14,0.13 0.15,0.12 0.17,0.11 0.17,0.11 0.19,0.1 0.19,0.09 0.21,0.09 0.23,0.08 0.23,0.08 0.26,0.07 0.26,0.06 0.28,0.06 0.3,0.04 0.31,0.04 0.33,0.04 0.35,0.02 0.18,0.01 0.19,0.01 c 0.25,0 0.84,0.05 0.84,1 0,0.05 0,0.55 -0.64,0.55 -1.64,0 -3.39,-0.16 -5.08,-0.16 -1.7,0 -3.55,0.16 -5.19,0.16 -0.29,0 -0.89,0 -0.89,-1 0,-0.55 0.5,-0.55 0.89,-0.55 2.85,-0.04 3.39,-1.09 3.39,-2.18 0,-0.16 -0.11,-0.91 -0.15,-1.05 l -4.49,-17.8 c -1.68,-6.67 -7.42,-11 -12.4,-11 -3.38,0 -6.08,2.19 -6.08,6.47 0,0.11 0,1.7 0.55,3.89 l 4.84,19.38 c 0.44,1.79 0.55,2.29 4.19,2.29 1.28,0 1.68,0 1.68,1 0,0.55 -0.54,0.55 -0.7,0.55 -1.39,0 -4.98,-0.16 -6.37,-0.16 -1.44,0 -4.99,0.16 -6.43,0.16 -0.4,0 -0.95,0 -0.95,-1 0,-0.55 0.45,-0.55 1.41,-0.55 0.09,0 1.04,0 1.89,-0.09 0.89,-0.11 1.34,-0.16 1.34,-0.8 0,-0.31 -0.55,-2.39 -0.84,-3.54 l -1.11,-4.38 c -0.44,-1.95 -2.83,-11.36 -3.03,-12.31 -0.35,-1.39 -0.35,-2.14 -0.35,-2.89 0,-6.08 4.53,-9.57 9.77,-9.57 6.26,0 12.45,5.63 14.09,12.21 z"
           inkscape:connector-curvature="0"
           style="fill:#000000;stroke-width:0" /><path
           id="path6988"
           d="m 511.36,393.29 0,0.02 0,0.03 0,0.01 0,0.02 -0.01,0.01 0,0.02 -0.01,0.01 0,0.02 -0.01,0.02 -0.01,0.02 -0.01,0.02 -0.02,0.03 -0.01,0.02 -0.02,0.03 -0.02,0.03 -0.03,0.03 -0.02,0.03 -0.03,0.04 -0.02,0.02 -0.02,0.02 -0.01,0.02 -0.02,0.02 -0.02,0.02 -0.02,0.02 -0.02,0.03 -0.02,0.02 -0.03,0.03 -0.02,0.02 -0.02,0.03 -0.03,0.03 -0.03,0.03 -0.02,0.02 -0.03,0.03 -0.03,0.04 -0.03,0.03 -0.03,0.03 -0.04,0.03 -0.03,0.04 -0.04,0.04 -0.03,0.03 -0.04,0.04 -0.04,0.04 c -6.22,6.28 -7.81,15.69 -7.81,23.31 0,8.67 1.89,17.35 8.01,23.56 0.64,0.61 0.64,0.71 0.64,0.86 0,0.35 -0.18,0.49 -0.48,0.49 -0.5,0 -4.99,-3.38 -7.92,-9.71 -2.55,-5.48 -3.14,-11.01 -3.14,-15.2 0,-3.89 0.54,-9.9 3.28,-15.55 2.98,-6.12 7.28,-9.35 7.78,-9.35 0.3,0 0.48,0.14 0.48,0.5 z"
           inkscape:connector-curvature="0"
           style="fill:#000000;stroke-width:0" /><path
           id="path6990"
           d="m 530.84,420.29 0.03,0.13 0.03,0.14 0.04,0.17 0.05,0.18 0.05,0.19 0.06,0.21 0.07,0.21 0.07,0.23 0.08,0.23 0.09,0.24 0.09,0.25 0.11,0.24 0.11,0.25 0.12,0.25 0.13,0.25 0.13,0.25 0.15,0.24 0.16,0.24 0.16,0.23 0.18,0.22 0.19,0.22 0.2,0.2 0.21,0.19 0.22,0.17 0.23,0.17 0.24,0.14 0.13,0.06 0.13,0.06 0.13,0.06 0.14,0.05 0.14,0.05 0.14,0.04 0.15,0.03 0.14,0.03 0.16,0.02 0.15,0.02 0.16,0.01 0.16,0 c 0.25,0 1.44,0 2.49,-0.64 -1.39,-0.25 -2.39,-1.5 -2.39,-2.69 0,-0.79 0.54,-1.75 1.89,-1.75 1.09,0 2.69,0.89 2.69,2.89 0,2.6 -2.94,3.28 -4.63,3.28 -2.89,0 -4.64,-2.64 -5.23,-3.78 -1.25,3.28 -3.94,3.78 -5.38,3.78 -5.19,0 -8.03,-6.42 -8.03,-7.67 0,-0.5 0.5,-0.5 0.61,-0.5 0.39,0 0.55,0.11 0.64,0.55 1.69,5.28 4.98,6.53 6.67,6.53 0.95,0 2.69,-0.44 2.69,-3.33 0,-1.54 -0.84,-4.89 -2.69,-11.86 -0.8,-3.09 -2.53,-5.18 -4.73,-5.18 -0.3,0 -1.44,0 -2.49,0.65 1.25,0.24 2.35,1.28 2.35,2.69 0,1.34 -1.1,1.73 -1.85,1.73 -1.5,0 -2.75,-1.29 -2.75,-2.89 0,-2.28 2.5,-3.28 4.69,-3.28 3.3,0 5.08,3.49 5.23,3.78 0.6,-1.84 2.4,-3.78 5.38,-3.78 5.14,0 7.98,6.42 7.98,7.67 0,0.5 -0.45,0.5 -0.61,0.5 -0.43,0 -0.54,-0.2 -0.64,-0.54 -1.64,-5.33 -5.03,-6.53 -6.62,-6.53 -1.95,0 -2.75,1.59 -2.75,3.29 0,1.1 0.3,2.19 0.86,4.38 z"
           inkscape:connector-curvature="0"
           style="fill:#000000;stroke-width:0" /><path
           id="path6992"
           d="m 557.02,417.69 0,0.37 0,0.39 -0.01,0.39 -0.02,0.41 -0.04,0.84 -0.06,0.88 -0.08,0.92 -0.1,0.95 -0.14,0.97 -0.16,1 -0.2,1.03 -0.23,1.03 -0.27,1.05 -0.3,1.06 -0.35,1.07 -0.39,1.06 -0.22,0.54 -0.22,0.53 -0.24,0.53 -0.25,0.53 c -2.98,6.12 -7.26,9.36 -7.76,9.36 -0.3,0 -0.5,-0.19 -0.5,-0.49 0,-0.15 0,-0.25 0.93,-1.15 4.89,-4.92 7.74,-12.85 7.74,-23.27 0,-8.51 -1.85,-17.28 -8.03,-23.56 -0.64,-0.59 -0.64,-0.7 -0.64,-0.84 0,-0.3 0.2,-0.5 0.5,-0.5 0.5,0 4.97,3.39 7.92,9.71 2.53,5.47 3.12,11 3.12,15.19 z"
           inkscape:connector-curvature="0"
           style="fill:#000000;stroke-width:0" /><path
           id="path6994"
           d="m 610.22,421.54 0.14,0 0.15,0 0.14,0 0.07,0.01 0.08,0 0.07,0.01 0.07,0.01 0.07,0.01 0.07,0.01 0.07,0.01 0.06,0.02 0.07,0.02 0.06,0.02 0.06,0.02 0.06,0.03 0.06,0.03 0.05,0.04 0.05,0.03 0.05,0.05 0.04,0.04 0.04,0.05 0.02,0.03 0.02,0.02 0.01,0.03 0.02,0.03 0.01,0.03 0.01,0.04 0.02,0.03 0.01,0.03 0.01,0.04 0.01,0.04 0,0.04 0.01,0.04 0,0.04 0.01,0.04 0,0.04 0,0.05 c 0,1 -0.95,1 -1.64,1 l -29.84,0 c -0.71,0 -1.65,0 -1.65,-1 0,-0.98 0.94,-0.98 1.69,-0.98 z"
           inkscape:connector-curvature="0"
           style="fill:#000000;stroke-width:0" /><path
           id="path6996"
           d="m 610.27,411.86 0.07,0 0.06,0 0.14,0 0.14,0.01 0.07,0 0.07,0.01 0.07,0.01 0.06,0 0.07,0.01 0.07,0.02 0.07,0.01 0.06,0.02 0.07,0.02 0.06,0.02 0.06,0.02 0.05,0.03 0.06,0.03 0.05,0.04 0.05,0.04 0.05,0.04 0.04,0.04 0.02,0.03 0.02,0.02 0.02,0.03 0.02,0.03 0.01,0.03 0.02,0.03 0.01,0.03 0.01,0.03 0.02,0.04 0.01,0.03 0.01,0.04 0.01,0.04 0,0.04 0.01,0.04 0,0.04 0.01,0.04 0,0.05 0,0.04 c 0,1 -0.95,1 -1.69,1 l -29.75,0 c -0.75,0 -1.69,0 -1.69,-1 0,-1 0.94,-1 1.65,-1 z"
           inkscape:connector-curvature="0"
           style="fill:#000000;stroke-width:0" /><path
           id="path6998"
           d="m 645.47,448.06 0,0.01 0,0 0,0 0,0.01 0,0 0.01,0.01 0,0.01 0,0 0,0.01 0,0.01 0.01,0.01 0,0.02 0.01,0.02 0.01,0.02 0,0.02 0.01,0.02 0,0.02 0.01,0.03 0,0.02 0.02,0.05 0.01,0.04 0,0.03 0.01,0.02 0,0.02 0.01,0.02 0,0.02 0.01,0.02 0,0.02 0,0.01 0.01,0.01 0,0.01 0,0 0,0.01 0,0 0,0.01 0,0 0,0.01 0,0 0,0 0,0.01 0,0 c 0,0.19 -0.13,0.5 -0.56,0.5 -0.69,0 -3.57,-0.28 -4.45,-0.36 -0.28,-0.03 -0.77,-0.06 -0.77,-0.8 0,-0.48 0.49,-0.48 0.91,-0.48 1.67,0 1.67,-0.25 1.67,-0.53 0,-0.24 -0.08,-0.46 -0.14,-0.77 l -4.92,-19.72 c -0.17,-0.62 -0.17,-0.68 -0.17,-0.76 0,-0.52 0.42,-1.11 1.18,-1.11 0.94,0 1.4,0.69 1.62,1.45 0.06,0.14 1.56,6.28 1.7,6.77 2.47,-0.25 4.45,-1.05 4.45,-2.86 0,-0.17 0,-0.35 -0.06,-0.69 -0.14,-0.53 -0.14,-0.7 -0.14,-1.09 0,-2.47 2.01,-3.58 3.68,-3.58 3.4,0 4.44,5.3 4.44,5.33 0,0.45 -0.45,0.45 -0.56,0.45 -0.48,0 -0.53,-0.17 -0.7,-0.84 -0.41,-1.5 -1.36,-3.97 -3.06,-3.97 -0.94,0 -1.22,0.87 -1.22,1.81 0,0.59 0,0.66 0.2,1.56 0.05,0.11 0.19,0.7 0.19,1.1 0,3.09 -4.19,3.57 -5.66,3.68 1.02,0.63 2.3,1.78 2.89,2.3 1.78,1.67 3.53,3.31 5.47,3.31 0.42,0 0.88,-0.11 1.16,-0.45 -1.5,-0.25 -1.82,-1.42 -1.82,-1.95 0,-0.77 0.6,-1.29 1.39,-1.29 0.96,0 1.99,0.77 1.99,2.22 0,1.16 -0.83,2.44 -2.67,2.44 -1.99,0 -3.8,-1.42 -5.58,-3.06 -1.47,-1.39 -2.61,-2.47 -4.05,-3.06 z"
           inkscape:connector-curvature="0"
           style="fill:#000000;stroke-width:0" /><path
           id="path7000"
           d="m 665.19,428.61 -0.04,-0.11 -0.04,-0.12 -0.04,-0.12 -0.05,-0.12 -0.05,-0.12 -0.06,-0.13 -0.06,-0.13 -0.07,-0.12 -0.07,-0.13 -0.08,-0.13 -0.08,-0.13 -0.08,-0.12 -0.09,-0.13 -0.09,-0.12 -0.1,-0.12 -0.1,-0.12 -0.11,-0.12 -0.11,-0.11 -0.11,-0.1 -0.12,-0.1 -0.12,-0.1 -0.13,-0.09 -0.13,-0.08 -0.13,-0.08 -0.14,-0.07 -0.14,-0.06 -0.15,-0.05 -0.14,-0.05 -0.16,-0.04 -0.15,-0.02 -0.16,-0.02 -0.17,0 c -0.11,0 -1.15,0 -1.89,0.48 1.44,0.45 1.53,1.72 1.53,1.92 0,0.77 -0.59,1.3 -1.39,1.3 -0.97,0 -1.98,-0.84 -1.98,-2.14 0,-1.73 1.95,-2.53 3.65,-2.53 1.61,0 3.04,1 3.91,2.47 0.83,-1.85 2.75,-2.47 4.14,-2.47 4.02,0 6.14,4.34 6.14,5.33 0,0.45 -0.45,0.45 -0.56,0.45 -0.49,0 -0.52,-0.17 -0.66,-0.59 -0.73,-2.41 -2.83,-4.22 -4.78,-4.22 -1.39,0 -2.12,0.93 -2.12,2.26 0,0.91 0.84,4.08 1.81,7.96 0.7,2.67 2.26,3.54 3.42,3.54 0.06,0 1.14,0 1.88,-0.48 -1.11,-0.31 -1.54,-1.3 -1.54,-1.92 0,-0.77 0.6,-1.29 1.4,-1.29 0.81,0 1.95,0.66 1.95,2.13 0,1.95 -2.24,2.53 -3.63,2.53 -1.73,0 -3.14,-1.14 -3.9,-2.47 -0.63,1.44 -2.22,2.47 -4.18,2.47 -3.9,0 -6.14,-4.28 -6.14,-5.33 0,-0.45 0.5,-0.45 0.6,-0.45 0.45,0 0.48,0.14 0.67,0.59 0.86,2.72 3.06,4.22 4.77,4.22 1.15,0 2.09,-0.62 2.09,-2.29 0,-0.71 -0.42,-2.44 -0.73,-3.63 z"
           inkscape:connector-curvature="0"
           style="fill:#000000;stroke-width:0" /><path
           id="path7002"
           d="m 693.75,444.73 -1.05,0 c -0.08,-0.48 -0.32,-2.01 -0.72,-2.26 -0.2,-0.16 -2.29,-0.16 -2.67,-0.16 l -4.87,0 c 1.64,1.22 3.48,2.61 4.98,3.61 2.24,1.55 4.33,3 4.33,5.64 0,3.19 -3.02,4.96 -6.58,4.96 -3.36,0 -5.83,-1.96 -5.83,-4.4 0,-1.29 1.1,-1.51 1.46,-1.51 0.67,0 1.47,0.45 1.47,1.47 0,0.89 -0.66,1.39 -1.43,1.47 0.69,1.12 2.14,1.87 3.82,1.87 2.4,0 4.42,-1.45 4.42,-3.89 0,-2.09 -1.44,-3.69 -3.36,-5.31 l -6.08,-5.16 c -0.25,-0.22 -0.26,-0.22 -0.3,-0.39 l 0,-0.75 11.58,0 z"
           inkscape:connector-curvature="0"
           style="fill:#000000;stroke-width:0" /><polyline
           id="polyline7004"
           points="635,417 699.08,417 699.08,419.04 635,419.04 "
           style="fill:#000000;fill-rule:nonzero;stroke-width:0" /><path
           id="path7006"
           d="m 674.35,394.42 -1.18,0 c -0.1,-0.76 -0.45,-2.83 -0.91,-3.17 -0.26,-0.2 -2.95,-0.2 -3.44,-0.2 l -6.42,0 c 3.66,3.23 4.88,4.2 6.97,5.84 2.58,2.06 4.98,4.22 4.98,7.53 0,4.22 -3.68,6.8 -8.15,6.8 -4.31,0 -7.25,-3.03 -7.25,-6.24 0,-1.78 1.5,-1.95 1.86,-1.95 0.83,0 1.84,0.59 1.84,1.85 0,0.62 -0.25,1.84 -2.06,1.84 1.08,2.47 3.45,3.23 5.09,3.23 3.49,0 5.3,-2.7 5.3,-5.53 0,-3.03 -2.16,-5.44 -3.28,-6.69 l -8.39,-8.29 c -0.36,-0.32 -0.36,-0.39 -0.36,-1.36 l 14.36,0 z"
           inkscape:connector-curvature="0"
           style="fill:#000000;stroke-width:0" /></g>    </g>
    <g
       id="g7084"
       transform="matrix(0.93043712,0,0,0.93043712,271.81271,345.78883)">
      <g
         id="g7086"
         transform="matrix(0.27142858,0,0,-0.27142858,-47.500001,238.59375)"
         xml:space="preserve"
         stroke-miterlimit="10.433"
         font-style="normal"
         font-variant="normal"
         font-weight="normal"
         font-stretch="normal"
         font-size-adjust="none"
         letter-spacing="normal"
         word-spacing="normal"
         style="font-style:normal;font-variant:normal;font-weight:normal;font-stretch:normal;letter-spacing:normal;word-spacing:normal;text-anchor:start;fill:none;fill-opacity:1;fill-rule:evenodd;stroke:#000000;stroke-linecap:butt;stroke-linejoin:miter;stroke-miterlimit:10.43299961;stroke-dasharray:none;stroke-dashoffset:0;stroke-opacity:1"><path
           d="m 478.63,371.82 -10.7,37.38 -6.93,-8.13 0.8,-0.75 3.39,3.98 11.45,-39.95 c 1.65,0 1.69,0 2.1,1.2 l 27.34,86.49 c 0.25,0.75 0.25,0.95 0.25,1 0,0.55 -0.39,1 -0.98,1 -0.75,0 -0.96,-0.66 -1.16,-1.3 z"
           id="path7088"
           inkscape:connector-curvature="0"
           style="fill:#000000;stroke-width:0" /><polyline
           points="505,452 568,452 568,454.04 505,454.04 "
           id="polyline7090"
           style="fill:#000000;fill-rule:nonzero;stroke-width:0" /><path
           d="m 528.91,419.74 -1.18,0 c -0.1,-0.76 -0.46,-2.83 -0.91,-3.17 -0.27,-0.2 -2.95,-0.2 -3.44,-0.2 l -6.42,0 c 3.66,3.23 4.88,4.2 6.97,5.84 2.58,2.06 4.98,4.22 4.98,7.53 0,4.22 -3.68,6.8 -8.15,6.8 -4.31,0 -7.25,-3.03 -7.25,-6.24 0,-1.78 1.5,-1.95 1.86,-1.95 0.83,0 1.84,0.6 1.84,1.85 0,0.62 -0.25,1.84 -2.06,1.84 1.08,2.47 3.45,3.23 5.09,3.23 3.49,0 5.3,-2.7 5.3,-5.53 0,-3.03 -2.16,-5.44 -3.28,-6.69 l -8.39,-8.29 c -0.36,-0.31 -0.36,-0.39 -0.36,-1.36 l 14.36,0 z"
           id="path7092"
           inkscape:connector-curvature="0"
           style="fill:#000000;stroke-width:0" /><path
           d="m 558.71,421.45 0.01,0.02 0.01,0.02 0.01,0.02 0.01,0.02 0.01,0.02 0.01,0.01 0.01,0.02 0,0.02 0.01,0.02 0.01,0.02 0.01,0.03 0.02,0.03 0.01,0.03 0.01,0.03 0.01,0.02 0.01,0.03 0.01,0.02 0,0.03 0.01,0.02 0.01,0.02 0,0.02 0.01,0.01 0,0.02 0.01,0.01 0,0.02 0,0.01 0,0.01 0.01,0.01 0,0.01 0,0.01 0,0.01 0,0.01 0,0 0,0.01 0,0 0,0.01 0,0 c 0,0.22 -0.14,0.5 -0.59,0.5 -0.08,0 -0.25,0 -0.39,-0.14 -0.07,-0.08 -0.11,-0.11 -0.52,-1.02 -2.27,-5.01 -4.05,-6.76 -9.73,-6.76 l -5.93,0 c -1.07,0 -1.11,0.05 -1.11,0.36 0,0.03 0,0.2 0.14,0.72 l 2.33,9.34 3.91,0 c 2.75,0 3.17,-0.45 3.17,-1.61 0,-0.37 -0.11,-0.97 -0.25,-1.56 -0.09,-0.31 -0.09,-0.35 -0.09,-0.42 0,-0.07 0.03,-0.49 0.59,-0.49 0.49,0 0.52,0.17 0.66,0.77 l 1.92,7.64 c 0.09,0.4 0.09,0.48 0.09,0.51 0,0.35 -0.26,0.49 -0.59,0.49 -0.45,0 -0.49,-0.17 -0.69,-0.91 -0.73,-2.72 -1.78,-3.17 -4.73,-3.17 l -3.67,0 2.09,8.3 c 0.28,1.08 0.31,1.18 1.78,1.18 l 5.67,0 c 4.58,0 5.72,-0.93 5.72,-4.04 0,-0.91 -0.14,-1.96 -0.14,-2.13 0,-0.28 0.11,-0.59 0.59,-0.59 0.54,0 0.57,0.31 0.63,0.91 l 0.62,6.06 c 0.11,1.04 -0.12,1.04 -1,1.04 l -19.17,0 c -0.69,0 -1.11,0 -1.11,-0.76 0,-0.49 0.38,-0.49 1.16,-0.49 0.55,0 0.69,0 1.31,-0.07 0.7,-0.07 0.77,-0.13 0.77,-0.49 0,-0.23 -0.1,-0.59 -0.14,-0.76 l -4.57,-18.22 c -0.34,-1.36 -0.37,-1.61 -3.09,-1.61 -0.62,0 -1.05,0 -1.05,-0.77 0,-0.48 0.43,-0.48 1.05,-0.48 l 19.69,0 c 0.86,0 0.9,0 1.19,0.62 z"
           id="path7094"
           inkscape:connector-curvature="0"
           style="fill:#000000;stroke-width:0" /><polyline
           points="511,405 562.12,405 562.12,407.04 511,407.04 "
           id="polyline7096"
           style="fill:#000000;fill-rule:nonzero;stroke-width:0" /><path
           d="m 536.75,399.7 0,0 0,0.01 0,0 0,0.01 0,0 0.01,0.01 0,0 0,0.01 0,0.01 0.01,0 0,0.02 0.01,0.02 0,0.02 0.01,0.02 0,0.02 0.01,0.02 0,0.02 0.01,0.02 0.01,0.03 0.01,0.04 0.01,0.05 0.01,0.02 0,0.03 0.01,0.02 0,0.02 0.01,0.02 0,0.02 0,0.01 0.01,0.02 0,0.01 0,0 0,0.01 0,0.01 0,0 0,0.01 0.01,0 0,0.01 0,0 0,0 0,0 0,0.01 c 0,0.18 -0.14,0.5 -0.57,0.5 -0.68,0 -3.57,-0.29 -4.45,-0.36 -0.28,-0.03 -0.77,-0.07 -0.77,-0.8 0,-0.48 0.49,-0.48 0.91,-0.48 1.67,0 1.67,-0.25 1.67,-0.54 0,-0.23 -0.08,-0.45 -0.14,-0.76 l -4.92,-19.72 c -0.17,-0.63 -0.17,-0.69 -0.17,-0.77 0,-0.51 0.42,-1.11 1.19,-1.11 0.93,0 1.39,0.69 1.61,1.46 0.06,0.14 1.56,6.28 1.7,6.76 2.47,-0.25 4.45,-1.04 4.45,-2.86 0,-0.17 0,-0.34 -0.06,-0.68 -0.14,-0.53 -0.14,-0.71 -0.14,-1.1 0,-2.47 2.02,-3.58 3.69,-3.58 3.39,0 4.43,5.3 4.43,5.33 0,0.46 -0.45,0.46 -0.56,0.46 -0.48,0 -0.53,-0.18 -0.7,-0.85 -0.41,-1.5 -1.36,-3.97 -3.06,-3.97 -0.94,0 -1.22,0.88 -1.22,1.82 0,0.59 0,0.65 0.2,1.56 0.05,0.11 0.19,0.7 0.19,1.09 0,3.1 -4.19,3.58 -5.66,3.69 1.02,0.62 2.3,1.78 2.89,2.3 1.78,1.67 3.53,3.31 5.47,3.31 0.42,0 0.88,-0.11 1.16,-0.45 -1.5,-0.25 -1.81,-1.43 -1.81,-1.96 0,-0.76 0.59,-1.28 1.38,-1.28 0.96,0 1.99,0.77 1.99,2.22 0,1.16 -0.83,2.44 -2.67,2.44 -1.99,0 -3.8,-1.42 -5.58,-3.06 -1.47,-1.4 -2.61,-2.47 -4.05,-3.07 z"
           id="path7098"
           inkscape:connector-curvature="0"
           style="fill:#000000;stroke-width:0" /></g>    </g>
    <g
       id="g7192"
       transform="matrix(0.92422395,0,0,0.92422395,139.67351,345.61164)">
      <g
         word-spacing="normal"
         letter-spacing="normal"
         font-size-adjust="none"
         font-stretch="normal"
         font-weight="normal"
         font-variant="normal"
         font-style="normal"
         stroke-miterlimit="10.433"
         xml:space="preserve"
         transform="matrix(0.27142858,0,0,-0.27142858,-47.500001,238.59375)"
         id="g7194"
         style="font-style:normal;font-variant:normal;font-weight:normal;font-stretch:normal;letter-spacing:normal;word-spacing:normal;text-anchor:start;fill:none;fill-opacity:1;fill-rule:evenodd;stroke:#000000;stroke-linecap:butt;stroke-linejoin:miter;stroke-miterlimit:10.43299961;stroke-dasharray:none;stroke-dashoffset:0;stroke-opacity:1"><path
           id="path7196"
           d="m 488.35,405.29 0.16,0 0.16,0 0.15,0.01 0.08,0 0.08,0.01 0.07,0.01 0.08,0 0.07,0.01 0.07,0.02 0.07,0.01 0.07,0.02 0.07,0.02 0.06,0.02 0.06,0.02 0.06,0.03 0.05,0.03 0.06,0.04 0.05,0.04 0.04,0.04 0.04,0.04 0.04,0.05 0.02,0.03 0.02,0.03 0.01,0.03 0.02,0.03 0.01,0.03 0.02,0.03 0.01,0.04 0.01,0.03 0.01,0.04 0,0.04 0.01,0.04 0.01,0.04 0,0.04 0.01,0.04 0,0.05 0,0.04 c 0,1 -0.91,1 -1.75,1 l -26.96,0 c -0.84,0 -1.73,0 -1.73,-1 0,-1 0.89,-1 1.73,-1 z"
           inkscape:connector-curvature="0"
           style="fill:#000000;stroke-width:0" /><path
           id="path7198"
           d="m 517.39,371.82 -10.7,37.38 -6.92,-8.13 0.79,-0.75 3.39,3.98 11.46,-39.95 c 1.64,0 1.68,0 2.09,1.2 l 27.34,86.49 c 0.25,0.75 0.25,0.95 0.25,1 0,0.55 -0.39,1 -0.98,1 -0.75,0 -0.95,-0.66 -1.16,-1.3 z"
           inkscape:connector-curvature="0"
           style="fill:#000000;stroke-width:0" /><polyline
           id="polyline7200"
           points="544,452 607,452 607,454.04 544,454.04 "
           style="fill:#000000;fill-rule:nonzero;stroke-width:0" /><path
           id="path7202"
           d="m 567.67,419.74 -1.19,0 c -0.09,-0.76 -0.45,-2.83 -0.9,-3.17 -0.27,-0.2 -2.96,-0.2 -3.44,-0.2 l -6.42,0 c 3.66,3.23 4.87,4.2 6.97,5.84 2.58,2.06 4.98,4.22 4.98,7.53 0,4.22 -3.69,6.8 -8.15,6.8 -4.32,0 -7.25,-3.03 -7.25,-6.24 0,-1.78 1.5,-1.95 1.85,-1.95 0.83,0 1.85,0.6 1.85,1.85 0,0.62 -0.25,1.84 -2.06,1.84 1.07,2.47 3.45,3.23 5.09,3.23 3.48,0 5.3,-2.7 5.3,-5.53 0,-3.03 -2.16,-5.44 -3.28,-6.69 l -8.4,-8.29 c -0.35,-0.31 -0.35,-0.39 -0.35,-1.36 l 14.35,0 z"
           inkscape:connector-curvature="0"
           style="fill:#000000;stroke-width:0" /><path
           id="path7204"
           d="m 597.47,421.45 0.01,0.02 0.01,0.02 0.01,0.02 0.01,0.02 0.01,0.02 0,0.01 0.01,0.02 0.01,0.02 0.01,0.02 0.01,0.02 0.01,0.03 0.01,0.03 0.02,0.03 0.01,0.03 0.01,0.02 0.01,0.03 0,0.02 0.01,0.03 0.01,0.02 0.01,0.02 0,0.02 0.01,0.01 0,0.02 0,0.01 0.01,0.02 0,0.01 0,0.01 0,0.01 0,0.01 0.01,0.01 0,0.01 0,0.01 0,0 0,0.01 0,0 0,0.01 0,0 c 0,0.22 -0.14,0.5 -0.6,0.5 -0.07,0 -0.25,0 -0.39,-0.14 -0.06,-0.08 -0.11,-0.11 -0.51,-1.02 -2.27,-5.01 -4.05,-6.76 -9.74,-6.76 l -5.92,0 c -1.08,0 -1.11,0.05 -1.11,0.36 0,0.03 0,0.2 0.14,0.72 l 2.33,9.34 3.91,0 c 2.75,0 3.17,-0.45 3.17,-1.61 0,-0.37 -0.11,-0.97 -0.25,-1.56 -0.1,-0.31 -0.1,-0.35 -0.1,-0.42 0,-0.07 0.04,-0.49 0.6,-0.49 0.48,0 0.51,0.17 0.66,0.77 l 1.92,7.64 c 0.09,0.4 0.09,0.48 0.09,0.51 0,0.35 -0.27,0.49 -0.59,0.49 -0.46,0 -0.49,-0.17 -0.69,-0.91 -0.73,-2.72 -1.78,-3.17 -4.73,-3.17 l -3.68,0 2.1,8.3 c 0.28,1.08 0.31,1.18 1.78,1.18 l 5.67,0 c 4.58,0 5.72,-0.93 5.72,-4.04 0,-0.91 -0.14,-1.96 -0.14,-2.13 0,-0.28 0.11,-0.59 0.59,-0.59 0.53,0 0.56,0.31 0.63,0.91 l 0.62,6.06 c 0.11,1.04 -0.12,1.04 -1,1.04 l -19.17,0 c -0.69,0 -1.11,0 -1.11,-0.76 0,-0.49 0.38,-0.49 1.16,-0.49 0.54,0 0.68,0 1.31,-0.07 0.7,-0.07 0.76,-0.13 0.76,-0.49 0,-0.23 -0.09,-0.59 -0.14,-0.76 l -4.56,-18.22 c -0.34,-1.36 -0.37,-1.61 -3.09,-1.61 -0.63,0 -1.05,0 -1.05,-0.77 0,-0.48 0.42,-0.48 1.05,-0.48 l 19.69,0 c 0.86,0 0.9,0 1.18,0.62 z"
           inkscape:connector-curvature="0"
           style="fill:#000000;stroke-width:0" /><polyline
           id="polyline7206"
           points="550,405 601.12,405 601.12,407.04 550,407.04 "
           style="fill:#000000;fill-rule:nonzero;stroke-width:0" /><path
           id="path7208"
           d="m 575.51,399.7 0,0 0,0.01 0,0 0,0.01 0.01,0 0,0.01 0,0 0,0.01 0.01,0.01 0,0 0,0.02 0.01,0.02 0,0.02 0.01,0.02 0,0.02 0.01,0.02 0.01,0.02 0,0.02 0.01,0.03 0.01,0.04 0.01,0.05 0.01,0.02 0,0.03 0.01,0.02 0,0.02 0.01,0.02 0,0.02 0,0.01 0.01,0.02 0,0.01 0,0 0,0.01 0,0.01 0,0 0.01,0.01 0,0 0,0.01 0,0 0,0 0,0 0,0.01 c 0,0.18 -0.14,0.5 -0.56,0.5 -0.69,0 -3.58,-0.29 -4.46,-0.36 -0.28,-0.03 -0.76,-0.07 -0.76,-0.8 0,-0.48 0.48,-0.48 0.9,-0.48 1.68,0 1.68,-0.25 1.68,-0.54 0,-0.23 -0.08,-0.45 -0.15,-0.76 l -4.92,-19.72 c -0.17,-0.63 -0.17,-0.69 -0.17,-0.77 0,-0.51 0.42,-1.11 1.19,-1.11 0.94,0 1.39,0.69 1.61,1.46 0.06,0.14 1.56,6.28 1.7,6.76 2.47,-0.25 4.45,-1.04 4.45,-2.86 0,-0.17 0,-0.34 -0.06,-0.68 -0.14,-0.53 -0.14,-0.71 -0.14,-1.1 0,-2.47 2.02,-3.58 3.69,-3.58 3.39,0 4.44,5.3 4.44,5.33 0,0.46 -0.46,0.46 -0.57,0.46 -0.48,0 -0.53,-0.18 -0.7,-0.85 -0.41,-1.5 -1.36,-3.97 -3.06,-3.97 -0.94,0 -1.22,0.88 -1.22,1.82 0,0.59 0,0.65 0.2,1.56 0.05,0.11 0.19,0.7 0.19,1.09 0,3.1 -4.19,3.58 -5.66,3.69 1.02,0.62 2.3,1.78 2.89,2.3 1.79,1.67 3.54,3.31 5.47,3.31 0.42,0 0.88,-0.11 1.16,-0.45 -1.5,-0.25 -1.81,-1.43 -1.81,-1.96 0,-0.76 0.59,-1.28 1.39,-1.28 0.95,0 1.98,0.77 1.98,2.22 0,1.16 -0.83,2.44 -2.67,2.44 -1.98,0 -3.8,-1.42 -5.58,-3.06 -1.47,-1.4 -2.61,-2.47 -4.05,-3.07 z"
           inkscape:connector-curvature="0"
           style="fill:#000000;stroke-width:0" /></g>    </g>
    <g
       transform="translate(120.71323,258.09398)"
       id="g7320">
      <g
         style="font-style:normal;font-variant:normal;font-weight:normal;font-stretch:normal;letter-spacing:normal;word-spacing:normal;text-anchor:start;fill:none;fill-opacity:1;fill-rule:evenodd;stroke:#000000;stroke-linecap:butt;stroke-linejoin:miter;stroke-miterlimit:10.43299961;stroke-dasharray:none;stroke-dashoffset:0;stroke-opacity:1"
         id="g7322"
         transform="matrix(0.27142858,0,0,-0.27142858,-47.500001,238.59375)"
         xml:space="preserve"
         stroke-miterlimit="10.433"
         font-style="normal"
         font-variant="normal"
         font-weight="normal"
         font-stretch="normal"
         font-size-adjust="none"
         letter-spacing="normal"
         word-spacing="normal"><path
           style="fill:#000000;stroke-width:0"
           inkscape:connector-curvature="0"
           d="m 490.8,417.81 0.01,0.02 0.01,0.03 0.02,0.05 0.02,0.05 0.02,0.05 0.02,0.05 0.02,0.05 0.02,0.05 0.01,0.05 0.01,0.03 0.01,0.02 0.01,0.02 0.01,0.03 0,0.02 0.01,0.02 0.01,0.02 0,0.02 0.01,0.02 0,0.02 0.01,0.01 0,0.02 0,0.02 0,0.01 0,0.01 0.01,0.01 c 0,0.05 0,0.55 -0.6,0.55 -0.45,0 -0.55,-0.3 -0.64,-0.61 -3.25,-7.38 -5.08,-10.7 -13.61,-10.7 l -7.26,0 c -0.71,0 -0.8,0 -1.1,0.04 -0.5,0.05 -0.65,0.1 -0.65,0.5 0,0.14 0,0.25 0.25,1.14 l 3.39,13.61 4.93,0 c 4.24,0 4.24,-1.04 4.24,-2.29 0,-0.35 0,-0.96 -0.36,-2.44 -0.09,-0.25 -0.14,-0.41 -0.14,-0.55 0,-0.25 0.19,-0.55 0.64,-0.55 0.41,0 0.55,0.25 0.75,0.99 l 2.84,11.67 c 0,0.3 -0.25,0.55 -0.61,0.55 -0.43,0 -0.54,-0.3 -0.68,-0.91 -1.05,-3.78 -1.96,-4.92 -6.54,-4.92 l -4.68,0 3,12 c 0.43,1.75 0.5,1.94 2.68,1.94 l 7.02,0 c 6.08,0 7.58,-1.44 7.58,-5.53 0,-1.19 0,-1.29 -0.2,-2.64 0,-0.3 -0.05,-0.65 -0.05,-0.9 0,-0.25 0.15,-0.59 0.59,-0.59 0.56,0 0.61,0.3 0.71,1.25 l 1,8.61 c 0.14,1.34 -0.1,1.34 -1.35,1.34 l -25.15,0 c -1,0 -1.5,0 -1.5,-1 0,-0.54 0.45,-0.54 1.39,-0.54 1.84,0 3.23,0 3.23,-0.89 0,-0.21 0,-0.3 -0.25,-1.21 l -6.56,-26.34 c -0.5,-1.95 -0.61,-2.34 -4.55,-2.34 -0.84,0 -1.39,0 -1.39,-0.96 0,-0.59 0.45,-0.59 1.39,-0.59 l 25.86,0 c 1.16,0 1.2,0.05 1.55,0.84 z"
           id="path7324" /></g>    </g>
    <g
       id="g7448"
       transform="translate(345.69201,331.32762)">
      <g
         word-spacing="normal"
         letter-spacing="normal"
         font-size-adjust="none"
         font-stretch="normal"
         font-weight="normal"
         font-variant="normal"
         font-style="normal"
         stroke-miterlimit="10.433"
         xml:space="preserve"
         transform="matrix(0.27142858,0,0,-0.27142858,-47.500001,238.59375)"
         id="g7450"
         style="font-style:normal;font-variant:normal;font-weight:normal;font-stretch:normal;letter-spacing:normal;word-spacing:normal;text-anchor:start;fill:none;fill-opacity:1;fill-rule:evenodd;stroke:#000000;stroke-linecap:butt;stroke-linejoin:miter;stroke-miterlimit:10.43299961;stroke-dasharray:none;stroke-dashoffset:0;stroke-opacity:1"><path
           id="path7452"
           d="m 472.16,421.25 0.03,0.13 0.04,0.15 0.04,0.16 0.04,0.18 0.06,0.19 0.06,0.21 0.06,0.22 0.07,0.22 0.08,0.23 0.09,0.24 0.1,0.25 0.1,0.24 0.11,0.25 0.12,0.25 0.13,0.25 0.14,0.25 0.15,0.24 0.15,0.24 0.17,0.23 0.18,0.22 0.18,0.22 0.2,0.2 0.21,0.19 0.22,0.18 0.23,0.16 0.25,0.14 0.12,0.07 0.13,0.06 0.14,0.05 0.13,0.05 0.14,0.05 0.14,0.04 0.15,0.03 0.15,0.03 0.15,0.02 0.16,0.02 0.16,0.01 0.16,0 c 0.25,0 1.44,0 2.48,-0.64 -1.39,-0.25 -2.39,-1.5 -2.39,-2.69 0,-0.79 0.55,-1.75 1.89,-1.75 1.1,0 2.69,0.89 2.69,2.89 0,2.6 -2.94,3.28 -4.63,3.28 -2.89,0 -4.64,-2.64 -5.23,-3.78 -1.25,3.28 -3.94,3.78 -5.37,3.78 -5.19,0 -8.04,-6.42 -8.04,-7.67 0,-0.5 0.5,-0.5 0.61,-0.5 0.39,0 0.55,0.11 0.64,0.55 1.69,5.28 4.99,6.53 6.68,6.53 0.95,0 2.68,-0.44 2.68,-3.33 0,-1.54 -0.84,-4.89 -2.68,-11.86 -0.8,-3.09 -2.54,-5.18 -4.74,-5.18 -0.3,0 -1.44,0 -2.48,0.65 1.25,0.24 2.34,1.28 2.34,2.69 0,1.34 -1.09,1.73 -1.84,1.73 -1.5,0 -2.75,-1.29 -2.75,-2.89 0,-2.28 2.5,-3.28 4.68,-3.28 3.3,0 5.08,3.49 5.24,3.78 0.59,-1.84 2.39,-3.78 5.37,-3.78 5.14,0 7.99,6.42 7.99,7.67 0,0.5 -0.45,0.5 -0.61,0.5 -0.44,0 -0.55,-0.2 -0.64,-0.54 -1.64,-5.33 -5.03,-6.53 -6.63,-6.53 -1.95,0 -2.75,1.59 -2.75,3.29 0,1.1 0.3,2.19 0.86,4.38 z"
           inkscape:connector-curvature="0"
           style="fill:#000000;stroke-width:0" /></g>    </g>
  </g>
</svg>
