<?xml version="1.0" encoding="UTF-8" standalone="no"?>
<!-- Created with Inkscape (http://www.inkscape.org/) -->

<svg
   xmlns:dc="http://purl.org/dc/elements/1.1/"
   xmlns:cc="http://creativecommons.org/ns#"
   xmlns:rdf="http://www.w3.org/1999/02/22-rdf-syntax-ns#"
   xmlns:svg="http://www.w3.org/2000/svg"
   xmlns="http://www.w3.org/2000/svg"
   xmlns:xlink="http://www.w3.org/1999/xlink"
   xmlns:sodipodi="http://sodipodi.sourceforge.net/DTD/sodipodi-0.dtd"
   xmlns:inkscape="http://www.inkscape.org/namespaces/inkscape"
   width="297.39166mm"
   height="165.98195mm"
   viewBox="0 0 1053.75 588.12501"
   id="svg8452"
   version="1.1"
   inkscape:version="0.91 r13725"
   sodipodi:docname="Nodo_instabile.svg">
  <sodipodi:namedview
     id="base"
     pagecolor="#ffffff"
     bordercolor="#666666"
     borderopacity="1.0"
     inkscape:pageopacity="0.0"
     inkscape:pageshadow="2"
     inkscape:zoom="1.4"
     inkscape:cx="365.63386"
     inkscape:cy="364.25138"
     inkscape:document-units="px"
     inkscape:current-layer="layer1"
     showgrid="false"
     fit-margin-top="0"
     fit-margin-left="0"
     fit-margin-right="0"
     fit-margin-bottom="0"
     inkscape:window-width="1920"
     inkscape:window-height="1021"
     inkscape:window-x="0"
     inkscape:window-y="0"
     inkscape:window-maximized="1" />
  <defs
     id="defs8454">
    <marker
       inkscape:stockid="Arrow1Lend"
       orient="auto"
       refY="0.0"
       refX="0.0"
       id="marker12101"
       style="overflow:visible;"
       inkscape:isstock="true">
      <path
         id="path12103"
         d="M 0.0,0.0 L 5.0,-5.0 L -12.5,0.0 L 5.0,5.0 L 0.0,0.0 z "
         style="fill-rule:evenodd;stroke:#000000;stroke-width:1pt;stroke-opacity:1;fill:#000000;fill-opacity:1"
         transform="scale(0.8) rotate(180) translate(12.5,0)" />
    </marker>
    <marker
       inkscape:stockid="Arrow1Lstart"
       orient="auto"
       refY="0.0"
       refX="0.0"
       id="marker12023"
       style="overflow:visible"
       inkscape:isstock="true">
      <path
         id="path12025"
         d="M 0.0,0.0 L 5.0,-5.0 L -12.5,0.0 L 5.0,5.0 L 0.0,0.0 z "
         style="fill-rule:evenodd;stroke:#000000;stroke-width:1pt;stroke-opacity:1;fill:#000000;fill-opacity:1"
         transform="scale(0.8) translate(12.5,0)" />
    </marker>
    <marker
       inkscape:stockid="Arrow1Lend"
       orient="auto"
       refY="0.0"
       refX="0.0"
       id="marker11963"
       style="overflow:visible;"
       inkscape:isstock="true">
      <path
         id="path11965"
         d="M 0.0,0.0 L 5.0,-5.0 L -12.5,0.0 L 5.0,5.0 L 0.0,0.0 z "
         style="fill-rule:evenodd;stroke:#000000;stroke-width:1pt;stroke-opacity:1;fill:#000000;fill-opacity:1"
         transform="scale(0.8) rotate(180) translate(12.5,0)" />
    </marker>
    <marker
       inkscape:stockid="Arrow1Lend"
       orient="auto"
       refY="0.0"
       refX="0.0"
       id="marker11905"
       style="overflow:visible;"
       inkscape:isstock="true">
      <path
         id="path11907"
         d="M 0.0,0.0 L 5.0,-5.0 L -12.5,0.0 L 5.0,5.0 L 0.0,0.0 z "
         style="fill-rule:evenodd;stroke:#000000;stroke-width:1pt;stroke-opacity:1;fill:#000000;fill-opacity:1"
         transform="scale(0.8) rotate(180) translate(12.5,0)" />
    </marker>
    <marker
       inkscape:stockid="Arrow1Lend"
       orient="auto"
       refY="0.0"
       refX="0.0"
       id="marker11849"
       style="overflow:visible;"
       inkscape:isstock="true">
      <path
         id="path11851"
         d="M 0.0,0.0 L 5.0,-5.0 L -12.5,0.0 L 5.0,5.0 L 0.0,0.0 z "
         style="fill-rule:evenodd;stroke:#000000;stroke-width:1pt;stroke-opacity:1;fill:#000000;fill-opacity:1"
         transform="scale(0.8) rotate(180) translate(12.5,0)" />
    </marker>
    <marker
       inkscape:isstock="true"
       style="overflow:visible;"
       id="marker11787"
       refX="0.0"
       refY="0.0"
       orient="auto"
       inkscape:stockid="Arrow1Lend">
      <path
         transform="scale(0.8) rotate(180) translate(12.5,0)"
         style="fill-rule:evenodd;stroke:#000000;stroke-width:1pt;stroke-opacity:1;fill:#000000;fill-opacity:1"
         d="M 0.0,0.0 L 5.0,-5.0 L -12.5,0.0 L 5.0,5.0 L 0.0,0.0 z "
         id="path11789" />
    </marker>
    <marker
       inkscape:stockid="Arrow1Lstart"
       orient="auto"
       refY="0.0"
       refX="0.0"
       id="marker11731"
       style="overflow:visible"
       inkscape:isstock="true">
      <path
         id="path11733"
         d="M 0.0,0.0 L 5.0,-5.0 L -12.5,0.0 L 5.0,5.0 L 0.0,0.0 z "
         style="fill-rule:evenodd;stroke:#000000;stroke-width:1pt;stroke-opacity:1;fill:#000000;fill-opacity:1"
         transform="scale(0.8) translate(12.5,0)" />
    </marker>
    <marker
       inkscape:stockid="Arrow1Lstart"
       orient="auto"
       refY="0.0"
       refX="0.0"
       id="marker11663"
       style="overflow:visible"
       inkscape:isstock="true">
      <path
         id="path11665"
         d="M 0.0,0.0 L 5.0,-5.0 L -12.5,0.0 L 5.0,5.0 L 0.0,0.0 z "
         style="fill-rule:evenodd;stroke:#000000;stroke-width:1pt;stroke-opacity:1;fill:#000000;fill-opacity:1"
         transform="scale(0.8) translate(12.5,0)" />
    </marker>
    <marker
       inkscape:stockid="Arrow1Lend"
       orient="auto"
       refY="0.0"
       refX="0.0"
       id="marker11607"
       style="overflow:visible;"
       inkscape:isstock="true"
       inkscape:collect="always">
      <path
         id="path11609"
         d="M 0.0,0.0 L 5.0,-5.0 L -12.5,0.0 L 5.0,5.0 L 0.0,0.0 z "
         style="fill-rule:evenodd;stroke:#000000;stroke-width:1pt;stroke-opacity:1;fill:#000000;fill-opacity:1"
         transform="scale(0.8) rotate(180) translate(12.5,0)" />
    </marker>
    <marker
       inkscape:stockid="Arrow1Lend"
       orient="auto"
       refY="0.0"
       refX="0.0"
       id="Arrow1Lend"
       style="overflow:visible;"
       inkscape:isstock="true">
      <path
         id="path4302"
         d="M 0.0,0.0 L 5.0,-5.0 L -12.5,0.0 L 5.0,5.0 L 0.0,0.0 z "
         style="fill-rule:evenodd;stroke:#000000;stroke-width:1pt;stroke-opacity:1;fill:#000000;fill-opacity:1"
         transform="scale(0.8) rotate(180) translate(12.5,0)" />
    </marker>
    <marker
       inkscape:isstock="true"
       style="overflow:visible;"
       id="marker11535"
       refX="0.0"
       refY="0.0"
       orient="auto"
       inkscape:stockid="Arrow1Lend"
       inkscape:collect="always">
      <path
         transform="scale(0.8) rotate(180) translate(12.5,0)"
         style="fill-rule:evenodd;stroke:#000000;stroke-width:1pt;stroke-opacity:1;fill:#000000;fill-opacity:1"
         d="M 0.0,0.0 L 5.0,-5.0 L -12.5,0.0 L 5.0,5.0 L 0.0,0.0 z "
         id="path11537" />
    </marker>
    <marker
       inkscape:isstock="true"
       style="overflow:visible"
       id="marker10258"
       refX="0.0"
       refY="0.0"
       orient="auto"
       inkscape:stockid="Arrow1Lstart">
      <path
         transform="scale(0.8) translate(12.5,0)"
         style="fill-rule:evenodd;stroke:#000000;stroke-width:1pt;stroke-opacity:1;fill:#000000;fill-opacity:1"
         d="M 0.0,0.0 L 5.0,-5.0 L -12.5,0.0 L 5.0,5.0 L 0.0,0.0 z "
         id="path10260" />
    </marker>
    <marker
       inkscape:isstock="true"
       style="overflow:visible"
       id="marker9686"
       refX="0.0"
       refY="0.0"
       orient="auto"
       inkscape:stockid="Arrow1Lstart">
      <path
         transform="scale(0.8) translate(12.5,0)"
         style="fill-rule:evenodd;stroke:#000000;stroke-width:1pt;stroke-opacity:1;fill:#000000;fill-opacity:1"
         d="M 0.0,0.0 L 5.0,-5.0 L -12.5,0.0 L 5.0,5.0 L 0.0,0.0 z "
         id="path9688" />
    </marker>
    <marker
       inkscape:stockid="Arrow1Lstart"
       orient="auto"
       refY="0.0"
       refX="0.0"
       id="marker9452"
       style="overflow:visible"
       inkscape:isstock="true">
      <path
         id="path9454"
         d="M 0.0,0.0 L 5.0,-5.0 L -12.5,0.0 L 5.0,5.0 L 0.0,0.0 z "
         style="fill-rule:evenodd;stroke:#000000;stroke-width:1pt;stroke-opacity:1;fill:#000000;fill-opacity:1"
         transform="scale(0.8) translate(12.5,0)" />
    </marker>
    <marker
       inkscape:stockid="Arrow1Lstart"
       orient="auto"
       refY="0.0"
       refX="0.0"
       id="marker9342"
       style="overflow:visible"
       inkscape:isstock="true">
      <path
         id="path9344"
         d="M 0.0,0.0 L 5.0,-5.0 L -12.5,0.0 L 5.0,5.0 L 0.0,0.0 z "
         style="fill-rule:evenodd;stroke:#000000;stroke-width:1pt;stroke-opacity:1;fill:#000000;fill-opacity:1"
         transform="scale(0.8) translate(12.5,0)" />
    </marker>
    <marker
       inkscape:stockid="Arrow1Lstart"
       orient="auto"
       refY="0.0"
       refX="0.0"
       id="Arrow1Lstart"
       style="overflow:visible"
       inkscape:isstock="true">
      <path
         id="path4299"
         d="M 0.0,0.0 L 5.0,-5.0 L -12.5,0.0 L 5.0,5.0 L 0.0,0.0 z "
         style="fill-rule:evenodd;stroke:#000000;stroke-width:1pt;stroke-opacity:1;fill:#000000;fill-opacity:1"
         transform="scale(0.8) translate(12.5,0)" />
    </marker>
    <marker
       inkscape:stockid="Arrow1Lend"
       orient="auto"
       refY="0.0"
       refX="0.0"
       id="marker9258"
       style="overflow:visible;"
       inkscape:isstock="true"
       inkscape:collect="always">
      <path
         id="path9260"
         d="M 0.0,0.0 L 5.0,-5.0 L -12.5,0.0 L 5.0,5.0 L 0.0,0.0 z "
         style="fill-rule:evenodd;stroke:#000000;stroke-width:1pt;stroke-opacity:1;fill:#000000;fill-opacity:1"
         transform="scale(0.8) rotate(180) translate(12.5,0)" />
    </marker>
    <marker
       inkscape:stockid="Arrow1Lend"
       orient="auto"
       refY="0.0"
       refX="0.0"
       id="marker9218"
       style="overflow:visible;"
       inkscape:isstock="true">
      <path
         id="path9220"
         d="M 0.0,0.0 L 5.0,-5.0 L -12.5,0.0 L 5.0,5.0 L 0.0,0.0 z "
         style="fill-rule:evenodd;stroke:#000000;stroke-width:1pt;stroke-opacity:1;fill:#000000;fill-opacity:1"
         transform="scale(0.8) rotate(180) translate(12.5,0)" />
    </marker>
    <linearGradient
       inkscape:collect="always"
       id="linearGradient9204">
      <stop
         style="stop-color:#000000;stop-opacity:1;"
         offset="0"
         id="stop9206" />
      <stop
         style="stop-color:#000000;stop-opacity:0;"
         offset="1"
         id="stop9208" />
    </linearGradient>
    <linearGradient
       inkscape:collect="always"
       id="linearGradient9196">
      <stop
         style="stop-color:#000000;stop-opacity:1;"
         offset="0"
         id="stop9198" />
      <stop
         style="stop-color:#000000;stop-opacity:0;"
         offset="1"
         id="stop9200" />
    </linearGradient>
    <linearGradient
       inkscape:collect="always"
       id="linearGradient9188">
      <stop
         style="stop-color:#000000;stop-opacity:1;"
         offset="0"
         id="stop9190" />
      <stop
         style="stop-color:#000000;stop-opacity:0;"
         offset="1"
         id="stop9192" />
    </linearGradient>
    <linearGradient
       inkscape:collect="always"
       id="linearGradient9180">
      <stop
         style="stop-color:#000000;stop-opacity:1;"
         offset="0"
         id="stop9182" />
      <stop
         style="stop-color:#000000;stop-opacity:0;"
         offset="1"
         id="stop9184" />
    </linearGradient>
    <linearGradient
       inkscape:collect="always"
       id="linearGradient9172">
      <stop
         style="stop-color:#000000;stop-opacity:1;"
         offset="0"
         id="stop9174" />
      <stop
         style="stop-color:#000000;stop-opacity:0;"
         offset="1"
         id="stop9176" />
    </linearGradient>
    <linearGradient
       inkscape:collect="always"
       id="linearGradient9156">
      <stop
         style="stop-color:#000000;stop-opacity:1;"
         offset="0"
         id="stop9158" />
      <stop
         style="stop-color:#000000;stop-opacity:0;"
         offset="1"
         id="stop9160" />
    </linearGradient>
    <linearGradient
       inkscape:collect="always"
       id="linearGradient9148">
      <stop
         style="stop-color:#000000;stop-opacity:1;"
         offset="0"
         id="stop9150" />
      <stop
         style="stop-color:#000000;stop-opacity:0;"
         offset="1"
         id="stop9152" />
    </linearGradient>
    <linearGradient
       inkscape:collect="always"
       id="linearGradient9140">
      <stop
         style="stop-color:#000000;stop-opacity:1;"
         offset="0"
         id="stop9142" />
      <stop
         style="stop-color:#000000;stop-opacity:0;"
         offset="1"
         id="stop9144" />
    </linearGradient>
    <linearGradient
       inkscape:collect="always"
       id="linearGradient9132">
      <stop
         style="stop-color:#000000;stop-opacity:1;"
         offset="0"
         id="stop9134" />
      <stop
         style="stop-color:#000000;stop-opacity:0;"
         offset="1"
         id="stop9136" />
    </linearGradient>
    <marker
       inkscape:isstock="true"
       style="overflow:visible;"
       id="marker9093"
       refX="0.0"
       refY="0.0"
       orient="auto"
       inkscape:stockid="Arrow1Lend"
       inkscape:collect="always">
      <path
         transform="scale(0.8) rotate(180) translate(12.5,0)"
         style="fill-rule:evenodd;stroke:#000000;stroke-width:1pt;stroke-opacity:1;fill:#000000;fill-opacity:1"
         d="M 0.0,0.0 L 5.0,-5.0 L -12.5,0.0 L 5.0,5.0 L 0.0,0.0 z "
         id="path9095" />
    </marker>
    <inkscape:path-effect
       is_visible="true"
       id="path-effect9065"
       effect="spiro" />
    <inkscape:path-effect
       effect="spiro"
       id="path-effect9061"
       is_visible="true" />
    <inkscape:path-effect
       is_visible="true"
       id="path-effect9057"
       effect="spiro" />
    <inkscape:path-effect
       is_visible="true"
       id="path-effect9053"
       effect="spiro" />
    <inkscape:path-effect
       effect="spiro"
       id="path-effect9049"
       is_visible="true" />
    <inkscape:path-effect
       is_visible="true"
       id="path-effect9045"
       effect="spiro" />
    <inkscape:path-effect
       effect="spiro"
       id="path-effect9041"
       is_visible="true" />
    <inkscape:path-effect
       is_visible="true"
       id="path-effect9037"
       effect="spiro" />
    <inkscape:path-effect
       effect="spiro"
       id="path-effect9033"
       is_visible="true" />
    <inkscape:path-effect
       effect="spiro"
       id="path-effect9025"
       is_visible="true" />
    <inkscape:path-effect
       effect="spiro"
       id="path-effect9021"
       is_visible="true" />
    <inkscape:path-effect
       effect="spiro"
       id="path-effect9017"
       is_visible="true" />
    <inkscape:path-effect
       effect="spiro"
       id="path-effect9013"
       is_visible="true" />
    <linearGradient
       inkscape:collect="always"
       xlink:href="#linearGradient9132"
       id="linearGradient9138"
       x1="300.14146"
       y1="573.25846"
       x2="555.22464"
       y2="573.25846"
       gradientUnits="userSpaceOnUse" />
    <linearGradient
       inkscape:collect="always"
       xlink:href="#linearGradient9140"
       id="linearGradient9146"
       x1="298.43352"
       y1="563.93433"
       x2="455.76797"
       y2="563.93433"
       gradientUnits="userSpaceOnUse" />
    <linearGradient
       inkscape:collect="always"
       xlink:href="#linearGradient9148"
       id="linearGradient9154"
       x1="315.38401"
       y1="621.14508"
       x2="727.18513"
       y2="621.14508"
       gradientUnits="userSpaceOnUse" />
    <linearGradient
       inkscape:collect="always"
       xlink:href="#linearGradient9156"
       id="linearGradient9162"
       x1="315.28012"
       y1="626.51342"
       x2="732.54329"
       y2="626.51342"
       gradientUnits="userSpaceOnUse" />
    <linearGradient
       inkscape:collect="always"
       xlink:href="#linearGradient9172"
       id="linearGradient9178"
       x1="296.03343"
       y1="846.33194"
       x2="311.30984"
       y2="973.61121"
       gradientUnits="userSpaceOnUse" />
    <linearGradient
       inkscape:collect="always"
       xlink:href="#linearGradient9180"
       id="linearGradient9186"
       x1="225.85984"
       y1="840.24383"
       x2="247.53027"
       y2="963.98755"
       gradientUnits="userSpaceOnUse" />
    <linearGradient
       inkscape:collect="always"
       xlink:href="#linearGradient9188"
       id="linearGradient9194"
       x1="220.57817"
       y1="833.05319"
       x2="239.64456"
       y2="943.66486"
       gradientUnits="userSpaceOnUse" />
    <linearGradient
       inkscape:collect="always"
       xlink:href="#linearGradient9196"
       id="linearGradient9202"
       x1="284.23325"
       y1="713.84216"
       x2="86.824059"
       y2="778.99701"
       gradientUnits="userSpaceOnUse" />
    <linearGradient
       inkscape:collect="always"
       xlink:href="#linearGradient9204"
       id="linearGradient9210"
       x1="266.41574"
       y1="707.646"
       x2="90.261871"
       y2="771.28564"
       gradientUnits="userSpaceOnUse" />
  </defs>
  <metadata
     id="metadata8457">
    <rdf:RDF>
      <cc:Work
         rdf:about="">
        <dc:format>image/svg+xml</dc:format>
        <dc:type
           rdf:resource="http://purl.org/dc/dcmitype/StillImage" />
        <dc:title></dc:title>
      </cc:Work>
    </rdf:RDF>
  </metadata>
  <g
     inkscape:label="Layer 1"
     inkscape:groupmode="layer"
     id="layer1"
     transform="translate(201.16072,-409.72827)">
    <path
       style="fill:none;fill-rule:evenodd;stroke:#000000;stroke-width:3;stroke-linecap:butt;stroke-linejoin:miter;stroke-opacity:1;stroke-miterlimit:4;stroke-dasharray:none;marker-end:url(#marker9258)"
       d="m 315.02723,985.73144 0,-552.55344"
       id="path9011"
       inkscape:path-effect="#path-effect9013"
       inkscape:original-d="m 315.02723,985.73144 0,-552.55344"
       inkscape:connector-curvature="0" />
    <path
       style="fill:none;fill-rule:evenodd;stroke:#000000;stroke-width:3;stroke-linecap:butt;stroke-linejoin:miter;stroke-opacity:1;stroke-miterlimit:4;stroke-dasharray:none;marker-end:url(#marker9093)"
       d="m -87.855423,709.95979 844.611533,0"
       id="path9015"
       inkscape:path-effect="#path-effect9017"
       inkscape:original-d="m -87.855423,709.95979 844.611533,0"
       inkscape:connector-curvature="0" />
    <path
       style="fill:none;fill-rule:evenodd;stroke:#000000;stroke-width:0.8661266;stroke-linecap:butt;stroke-linejoin:miter;stroke-miterlimit:4;stroke-dasharray:6.92901272, 6.92901272;stroke-dashoffset:0;stroke-opacity:1"
       d="M 72.3936,884.9948 594.72083,507.90429"
       id="path9019"
       inkscape:path-effect="#path-effect9021"
       inkscape:original-d="M 72.3936,884.9948 594.72083,507.90429"
       inkscape:connector-curvature="0" />
    <path
       style="fill:none;fill-rule:evenodd;stroke:#000000;stroke-width:1;stroke-linecap:butt;stroke-linejoin:miter;stroke-miterlimit:4;stroke-dasharray:6, 6;stroke-dashoffset:0;stroke-opacity:1"
       d="M 560.69497,905.55058 70.273865,516.31806"
       id="path9023"
       inkscape:path-effect="#path-effect9025"
       inkscape:original-d="m 560.69497,905.55058 c 0,0 -400.51753,-323.57261 -490.421105,-389.23252"
       inkscape:connector-curvature="0"
       sodipodi:nodetypes="cc" />
    <path
       style="fill:none;fill-rule:evenodd;stroke:url(#linearGradient9146);stroke-width:1px;stroke-linecap:butt;stroke-linejoin:miter;stroke-opacity:1;marker-mid:url(#Arrow1Lend)"
       d="m 314.86607,709.77291 c -2.9576,-2.07634 -5.79164,-4.32866 -8.48215,-6.74107 -21.37163,-19.16263 -32.74123,-48.26039 -32.54464,-76.96429 0.18105,-26.43601 9.48714,-52.07458 21.86018,-75.43701 33.28478,-62.84742 90.23168,-112.79692 156.88183,-137.60483"
       id="path9031"
       inkscape:path-effect="#path-effect9033"
       inkscape:original-d="m 314.86607,709.77291 c 0,0 -5.04465,-4.01786 -8.48215,-6.74107 -3.4375,-2.72321 -36.47321,-34.82143 -32.54464,-76.96429 3.92858,-42.14285 -15.51546,9.4158 21.86018,-75.43701 37.37565,-84.85282 156.88183,-137.60483 156.88183,-137.60483"
       inkscape:connector-curvature="0"
       sodipodi:nodetypes="csssc" />
    <path
       inkscape:connector-curvature="0"
       inkscape:original-d="m 314.86607,709.77291 c 0,0 -1.76165,-0.9874 -5.19915,-3.71061 -3.4375,-2.72321 -1024.31399,-6012.8637 11.53621,-94.42531 81.25009,464.23091 3.89717,46.32968 41.27281,-38.52313 37.37565,-84.85282 192.46252,-136.40033 192.46252,-136.40033"
       inkscape:path-effect="#path-effect9037"
       id="path9035"
       d="m 314.86607,709.77291 c -1.82975,-1.0933 -3.57044,-2.33562 -5.19915,-3.71061 -6.77332,-5.71816 -11.48802,-13.70048 -13.79187,-22.26013 -2.30384,-8.55965 -2.26063,-17.66831 -0.45248,-26.34621 3.61631,-17.35579 13.99882,-32.57164 25.78056,-45.81897 12.51855,-14.07581 26.80595,-26.45861 41.27281,-38.52313 60.45082,-50.41246 124.86899,-96.06633 192.46252,-136.40033"
       style="fill:none;fill-rule:evenodd;stroke:url(#linearGradient9138);stroke-width:1px;stroke-linecap:butt;stroke-linejoin:miter;stroke-opacity:1;marker-mid:url(#marker11535)"
       sodipodi:nodetypes="csssc" />
    <path
       style="fill:none;fill-rule:evenodd;stroke:url(#linearGradient9210);stroke-width:1px;stroke-linecap:butt;stroke-linejoin:miter;stroke-opacity:1;marker-mid:url(#marker11607)"
       d="m 314.74313,709.89666 c -1.8316,-1.22325 -3.59273,-2.552 -5.27174,-3.97748 -1.57183,-1.33448 -3.07421,-2.75559 -4.73509,-3.97747 -5.57542,-4.10174 -12.66063,-5.72744 -19.5814,-5.83941 -6.92077,-0.11197 -13.77741,1.18206 -20.58761,2.41931 -6.84285,1.24318 -13.69654,2.43433 -20.50328,3.86204 -30.78918,6.45799 -60.36004,17.69797 -89.3985,29.7995 -14.64527,6.10329 -29.20062,12.44029 -43.43656,19.44544 -22.659011,11.14993 -44.487997,23.98618 -65.24681,38.36754"
       id="path9039"
       inkscape:path-effect="#path-effect9041"
       inkscape:original-d="m 314.74313,709.89666 c -5.27174,-3.97748 -3.54975,-2.60617 -5.27174,-3.97748 -1.61248,-1.28411 -2.82997,-3.19035 -4.73509,-3.97747 -12.41983,-5.13136 -26.74811,-4.10006 -40.16901,-3.4201 -6.94571,0.3519 -13.77175,2.11473 -20.50328,3.86204 -30.40387,7.89194 -45.96194,10.35406 -89.3985,29.7995 0,0 -29.33831,12.17285 -43.43656,19.44544 -22.422909,11.56687 -46.67538,26.22468 -65.24681,38.36754"
       inkscape:connector-curvature="0"
       sodipodi:nodetypes="caaaasac" />
    <path
       sodipodi:nodetypes="caaaasac"
       inkscape:connector-curvature="0"
       inkscape:original-d="m 314.74313,709.89666 c -5.27174,-3.97748 -3.27473,-3.05138 -5.27174,-3.97748 -3.03373,-1.40688 -6.45186,-1.95017 -9.78585,-2.2097 -11.90707,-0.9269 -23.97089,0.41352 -35.7496,2.38827 -8.31867,1.39467 -16.40804,3.9957 -24.41762,6.63996 -27.80323,9.1789 -38.38579,12.50064 -81.82235,31.94608 0,0 -30.53068,13.42618 -45.3306,21.08694 -19.326494,10.0038 -38.089082,20.29003 -56.660512,32.43289"
       inkscape:path-effect="#path-effect9045"
       id="path9043"
       d="m 314.74313,709.89666 c -1.46408,-1.66411 -3.26968,-3.02642 -5.27174,-3.97748 -3.03717,-1.44279 -6.43622,-1.91641 -9.78585,-2.2097 -11.93938,-1.0454 -24.00909,-0.0205 -35.7496,2.38827 -8.26668,1.69605 -16.379,4.07187 -24.41762,6.63996 -27.9036,8.91434 -55.00413,20.16222 -81.82235,31.94608 -15.25897,6.70476 -30.4447,13.59027 -45.3306,21.08694 -19.445713,9.79303 -38.368399,20.62451 -56.660512,32.43289"
       style="fill:none;fill-rule:evenodd;stroke:url(#linearGradient9202);stroke-width:1px;stroke-linecap:butt;stroke-linejoin:miter;stroke-opacity:1;marker-mid:url(#marker9218)" />
    <path
       style="fill:none;fill-rule:evenodd;stroke:url(#linearGradient9186);stroke-width:1px;stroke-linecap:butt;stroke-linejoin:miter;stroke-opacity:1;marker-mid:url(#marker11787)"
       d="m 315.50074,710.11763 4.04061,3.5671 c 3.75305,3.49448 7.00568,7.5256 9.62802,11.93243 3.84657,6.46414 6.30437,13.65992 8.25453,20.92477 3.49629,13.0246 5.44293,26.45854 5.8876,39.93692 1.45455,44.0893 -13.75596,88.52965 -41.92133,122.481 l -53.033,59.34645"
       id="path9047"
       inkscape:path-effect="#path-effect9049"
       inkscape:original-d="m 315.50074,710.11763 4.04061,3.5671 c 0,0 4.32472,4.35628 9.62802,11.93243 5.3033,7.57614 4.97154,6.53009 8.25453,20.92477 3.283,14.39467 6.39268,17.9661 5.8876,39.93692 0.82034,33.21168 -32.16059,90.85696 -41.92133,122.481 -110.06894,151.79435 -17.94805,39.8755 -53.033,59.34645"
       inkscape:connector-curvature="0"
       sodipodi:nodetypes="ccssccc" />
    <path
       sodipodi:nodetypes="ccscccc"
       inkscape:connector-curvature="0"
       inkscape:original-d="m 315.50074,710.11763 c 1.34687,1.18903 -10.99766,40.29271 4.04061,3.5671 0,0 18.1571,26.69957 26.47937,30.7323 22.8958,11.09463 21.7325,47.20168 25.01549,61.59636 -0.82297,25.59682 6.52551,37.80249 -2.92956,76.30486 -2.27284,11.86929 -27.44,62.20922 -27.44,62.20922 -10.95346,20.70353 2.11329,29.77404 -25.70197,31.89595"
       inkscape:path-effect="#path-effect9053"
       id="path9051"
       d="m 315.50074,710.11763 4.04061,3.5671 c 10.04184,9.10682 18.9574,19.45433 26.47937,30.7323 12.38072,18.56287 20.94765,39.65747 25.01549,61.59636 4.20795,25.28209 3.20445,51.41983 -2.92956,76.30486 -5.45051,22.11215 -14.91659,43.18767 -27.44,62.20922 -7.52001,11.42198 -16.14003,22.11937 -25.70197,31.89595"
       style="fill:none;fill-rule:evenodd;stroke:url(#linearGradient9178);stroke-width:1px;stroke-linecap:butt;stroke-linejoin:miter;stroke-opacity:1;marker-mid:url(#marker12101)" />
    <path
       sodipodi:nodetypes="ccsccccc"
       inkscape:connector-curvature="0"
       inkscape:original-d="m 315.50074,710.11763 4.04061,3.5671 c 0,0 2.05188,9.78585 7.35518,17.362 5.3033,7.57614 15.33276,21.11533 1.436,26.1018 -57.16428,25.28796 -9.12313,5.52442 -20.88143,66.95851 -2.27285,11.86929 -22.22337,42.93148 -22.22337,42.93148 -79.08184,126.79875 100.57941,-956.814599 -46.97208,58.58884 -3.32105,23.16212 -29.54698,31.8198 -29.54698,31.8198"
       inkscape:path-effect="#path-effect9057"
       id="path9055"
       d="m 315.50074,710.11763 4.04061,3.5671 c 3.27153,5.39239 5.75749,11.26052 7.35518,17.362 2.22226,8.48666 2.71387,17.42258 1.436,26.1018 -4.7659,22.9265 -11.77037,45.38708 -20.88143,66.95851 -6.27709,14.86169 -13.56286,29.32019 -22.22337,42.93148 -13.45457,21.14588 -30.09605,40.05851 -46.97208,58.58884 -9.74612,10.70151 -19.59573,21.30877 -29.54698,31.8198"
       style="fill:none;fill-rule:evenodd;stroke:url(#linearGradient9194);stroke-width:1px;stroke-linecap:butt;stroke-linejoin:miter;stroke-opacity:1;marker-mid:url(#marker11849)" />
    <path
       style="fill:none;fill-rule:evenodd;stroke:url(#linearGradient9162);stroke-width:1px;stroke-linecap:butt;stroke-linejoin:miter;stroke-opacity:1;marker-mid:url(#marker11905)"
       d="m 315.625,710.35327 c 2.07856,1.9801 4.28426,3.82158 6.51785,5.625 l 12.05357,9.73214 c 17.81294,12.4645 38.82468,20.31675 60.44644,22.58929 39.35035,4.13589 78.39871,-9.97372 113.61682,-28.00815 41.86967,-21.44055 80.48938,-48.60111 119.50874,-74.87383 47.83462,-32.20825 96.48205,-63.20933 145.88038,-92.96378"
       id="path9059"
       inkscape:path-effect="#path-effect9061"
       inkscape:original-d="m 315.625,710.35327 c 0,0 -5.53572,-4.10714 6.51785,5.625 l 12.05357,9.73214 c 0,0 48.66072,24.64286 60.44644,22.58929 11.78571,-2.05357 43.41122,-6.28987 113.61682,-28.00815 70.2056,-21.71828 79.10264,-43.5591 119.50874,-74.87383 40.4061,-31.31473 108.50474,-65.18458 145.88038,-92.96378"
       inkscape:connector-curvature="0"
       sodipodi:nodetypes="cscsssc" />
    <path
       inkscape:connector-curvature="0"
       inkscape:original-d="m 315.87754,709.97446 c 0,0 -8.48757,1.77266 6.51785,5.625 l 13.31626,3.41869 c 0,0 25.48296,6.15809 37.26868,4.10452 11.78571,-2.05357 18.06088,-3.31389 88.26648,-25.03217 70.2056,-21.71828 91.11551,-45.64377 131.52161,-76.9585 40.4061,-31.31473 96.71903,-74.47029 134.09467,-102.24949"
       inkscape:path-effect="#path-effect9065"
       id="path9063"
       d="m 315.87754,709.97446 c 0.24569,1.51272 1.10842,2.90375 2.31761,3.84531 1.20919,0.94156 2.71584,1.3986 4.20024,1.77969 l 13.31626,3.41869 c 12.16718,3.12369 24.72817,4.83476 37.26868,4.10452 30.70689,-1.78807 60.25318,-12.3292 88.26648,-25.03217 46.32203,-21.00529 89.63309,-48.1088 131.52161,-76.9585 46.31114,-31.89567 91.07903,-66.03195 134.09467,-102.24949"
       style="fill:none;fill-rule:evenodd;stroke:url(#linearGradient9154);stroke-width:1px;stroke-linecap:butt;stroke-linejoin:miter;stroke-opacity:1;marker-mid:url(#marker11963)"
       sodipodi:nodetypes="cscsssc" />
    <g
       id="g10573"
       transform="translate(441.43666,289.91378)">
      <g
         id="content"
         transform="matrix(0.8401786,0,0,-0.8401786,-147.03125,790.31248)"
         xml:space="preserve"
         stroke-miterlimit="10.433"
         font-style="normal"
         font-variant="normal"
         font-weight="normal"
         font-stretch="normal"
         font-size-adjust="none"
         letter-spacing="normal"
         word-spacing="normal"
         style="font-style:normal;font-variant:normal;font-weight:normal;font-stretch:normal;letter-spacing:normal;word-spacing:normal;text-anchor:start;fill:none;fill-opacity:1;fill-rule:evenodd;stroke:#000000;stroke-linecap:butt;stroke-linejoin:miter;stroke-miterlimit:10.43299961;stroke-dasharray:none;stroke-dashoffset:0;stroke-opacity:1"><path
           d="m 472.16,421.25 0.03,0.13 0.04,0.15 0.04,0.16 0.04,0.18 0.06,0.19 0.06,0.21 0.06,0.22 0.07,0.22 0.08,0.23 0.09,0.24 0.1,0.25 0.1,0.24 0.11,0.25 0.12,0.25 0.13,0.25 0.14,0.25 0.15,0.24 0.15,0.24 0.17,0.23 0.18,0.22 0.18,0.22 0.2,0.2 0.21,0.19 0.22,0.18 0.23,0.16 0.25,0.14 0.12,0.07 0.13,0.06 0.14,0.05 0.13,0.05 0.14,0.05 0.14,0.04 0.15,0.03 0.15,0.03 0.15,0.02 0.16,0.02 0.16,0.01 0.16,0 c 0.25,0 1.44,0 2.48,-0.64 -1.39,-0.25 -2.39,-1.5 -2.39,-2.69 0,-0.79 0.55,-1.75 1.89,-1.75 1.1,0 2.69,0.89 2.69,2.89 0,2.6 -2.94,3.28 -4.63,3.28 -2.89,0 -4.64,-2.64 -5.23,-3.78 -1.25,3.28 -3.94,3.78 -5.37,3.78 -5.19,0 -8.04,-6.42 -8.04,-7.67 0,-0.5 0.5,-0.5 0.61,-0.5 0.39,0 0.55,0.11 0.64,0.55 1.69,5.28 4.99,6.53 6.68,6.53 0.95,0 2.68,-0.44 2.68,-3.33 0,-1.54 -0.84,-4.89 -2.68,-11.86 -0.8,-3.09 -2.54,-5.18 -4.74,-5.18 -0.3,0 -1.44,0 -2.48,0.65 1.25,0.24 2.34,1.28 2.34,2.69 0,1.34 -1.09,1.73 -1.84,1.73 -1.5,0 -2.75,-1.29 -2.75,-2.89 0,-2.28 2.5,-3.28 4.68,-3.28 3.3,0 5.08,3.49 5.24,3.78 0.59,-1.84 2.39,-3.78 5.37,-3.78 5.14,0 7.99,6.42 7.99,7.67 0,0.5 -0.45,0.5 -0.61,0.5 -0.44,0 -0.55,-0.2 -0.64,-0.54 -1.64,-5.33 -5.03,-6.53 -6.63,-6.53 -1.95,0 -2.75,1.59 -2.75,3.29 0,1.1 0.3,2.19 0.86,4.38 z"
           id="path10576"
           inkscape:connector-curvature="0"
           style="fill:#000000;stroke-width:0" /></g>    </g>
    <g
       id="g10772"
       transform="translate(38.385802,60.609153)">
      <g
         word-spacing="normal"
         letter-spacing="normal"
         font-size-adjust="none"
         font-stretch="normal"
         font-weight="normal"
         font-variant="normal"
         font-style="normal"
         stroke-miterlimit="10.433"
         xml:space="preserve"
         transform="matrix(0.8401786,0,0,-0.8401786,-147.03125,790.31248)"
         id="g10774"
         style="font-style:normal;font-variant:normal;font-weight:normal;font-stretch:normal;letter-spacing:normal;word-spacing:normal;text-anchor:start;fill:none;fill-opacity:1;fill-rule:evenodd;stroke:#000000;stroke-linecap:butt;stroke-linejoin:miter;stroke-miterlimit:10.43299961;stroke-dasharray:none;stroke-dashoffset:0;stroke-opacity:1"><path
           id="path10776"
           d="m 473.84,436.89 0,0.12 -0.01,0.13 -0.02,0.12 -0.02,0.13 -0.03,0.12 -0.03,0.12 -0.04,0.12 -0.05,0.12 -0.05,0.11 -0.06,0.11 -0.06,0.11 -0.07,0.11 -0.07,0.11 -0.08,0.1 -0.08,0.1 -0.08,0.09 -0.09,0.09 -0.1,0.09 -0.1,0.08 -0.1,0.08 -0.11,0.07 -0.11,0.07 -0.11,0.06 -0.12,0.05 -0.12,0.05 -0.13,0.05 -0.12,0.04 -0.13,0.03 -0.14,0.02 -0.13,0.02 -0.14,0.01 -0.14,0.01 c -1.68,0 -2.68,-1.39 -2.68,-2.64 0,-1.35 1.14,-2.64 2.64,-2.64 1.68,0 2.68,1.39 2.68,2.64 z"
           inkscape:connector-curvature="0"
           style="fill:#000000;stroke-width:0" /><path
           id="path10778"
           d="m 472.16,421.25 0.03,0.13 0.03,0.15 0.04,0.16 0.05,0.18 0.05,0.19 0.06,0.21 0.07,0.22 0.07,0.22 0.08,0.23 0.09,0.24 0.09,0.25 0.11,0.24 0.11,0.25 0.12,0.25 0.13,0.25 0.13,0.25 0.15,0.24 0.16,0.24 0.16,0.23 0.18,0.22 0.19,0.22 0.2,0.2 0.21,0.19 0.22,0.18 0.23,0.16 0.24,0.14 0.13,0.07 0.13,0.06 0.13,0.05 0.14,0.05 0.14,0.05 0.14,0.04 0.15,0.03 0.15,0.03 0.15,0.02 0.15,0.02 0.16,0.01 0.16,0 c 0.25,0 1.44,0 2.49,-0.64 -1.39,-0.25 -2.39,-1.5 -2.39,-2.69 0,-0.79 0.54,-1.75 1.89,-1.75 1.09,0 2.69,0.89 2.69,2.89 0,2.6 -2.94,3.28 -4.63,3.28 -2.89,0 -4.64,-2.64 -5.23,-3.78 -1.25,3.28 -3.94,3.78 -5.38,3.78 -5.19,0 -8.03,-6.42 -8.03,-7.67 0,-0.5 0.5,-0.5 0.61,-0.5 0.39,0 0.55,0.11 0.64,0.55 1.69,5.28 4.98,6.53 6.67,6.53 0.96,0 2.69,-0.44 2.69,-3.33 0,-1.54 -0.84,-4.89 -2.69,-11.86 -0.8,-3.09 -2.53,-5.18 -4.73,-5.18 -0.3,0 -1.44,0 -2.49,0.65 1.25,0.24 2.35,1.28 2.35,2.69 0,1.34 -1.1,1.73 -1.85,1.73 -1.5,0 -2.75,-1.29 -2.75,-2.89 0,-2.28 2.5,-3.28 4.69,-3.28 3.3,0 5.08,3.49 5.24,3.78 0.59,-1.84 2.39,-3.78 5.37,-3.78 5.14,0 7.98,6.42 7.98,7.67 0,0.5 -0.45,0.5 -0.61,0.5 -0.43,0 -0.54,-0.2 -0.64,-0.54 -1.64,-5.33 -5.03,-6.53 -6.62,-6.53 -1.95,0 -2.75,1.59 -2.75,3.29 0,1.1 0.3,2.19 0.86,4.38 z"
           inkscape:connector-curvature="0"
           style="fill:#000000;stroke-width:0" /></g>    </g>
    <g
       id="g10982"
       transform="matrix(0.66167316,0,0,0.66167316,300.34652,589.80751)">
      <g
         id="g10984"
         transform="matrix(0.8401786,0,0,-0.8401786,-147.03125,790.31248)"
         xml:space="preserve"
         stroke-miterlimit="10.433"
         font-style="normal"
         font-variant="normal"
         font-weight="normal"
         font-stretch="normal"
         font-size-adjust="none"
         letter-spacing="normal"
         word-spacing="normal"
         style="font-style:normal;font-variant:normal;font-weight:normal;font-stretch:normal;letter-spacing:normal;word-spacing:normal;text-anchor:start;fill:none;fill-opacity:1;fill-rule:evenodd;stroke:#000000;stroke-linecap:butt;stroke-linejoin:miter;stroke-miterlimit:10.43299961;stroke-dasharray:none;stroke-dashoffset:0;stroke-opacity:1"><path
           d="m 472,394.25 0,0.02 0,0.03 0,0.01 0,0.02 0,0.01 -0.01,0.02 0,0.01 -0.01,0.02 -0.01,0.02 -0.01,0.02 -0.01,0.02 -0.02,0.03 -0.01,0.02 -0.02,0.03 -0.02,0.03 -0.03,0.03 -0.02,0.03 -0.03,0.04 -0.02,0.02 -0.01,0.02 -0.02,0.02 -0.02,0.02 -0.02,0.02 -0.02,0.03 -0.02,0.02 -0.02,0.02 -0.02,0.03 -0.03,0.02 -0.02,0.03 -0.03,0.03 -0.03,0.03 -0.02,0.03 -0.03,0.03 -0.03,0.03 -0.03,0.03 -0.03,0.03 -0.04,0.04 -0.03,0.03 -0.04,0.04 -0.03,0.03 -0.04,0.04 -0.04,0.04 c -6.22,6.28 -7.81,15.69 -7.81,23.31 0,8.67 1.89,17.35 8.01,23.56 0.64,0.61 0.64,0.71 0.64,0.86 0,0.35 -0.18,0.49 -0.48,0.49 -0.5,0 -4.98,-3.38 -7.92,-9.7 -2.55,-5.49 -3.14,-11.02 -3.14,-15.21 0,-3.89 0.54,-9.9 3.28,-15.54 2.98,-6.13 7.28,-9.36 7.78,-9.36 0.3,0 0.48,0.14 0.48,0.5 z"
           id="path10986"
           inkscape:connector-curvature="0"
           style="fill:#000000;stroke-width:0" /><path
           d="m 495.21,417.65 13.91,0 c 0.68,0 1.64,0 1.64,1 0,1 -0.96,1 -1.64,1 l -13.91,0 0,13.96 c 0,0.68 0,1.64 -1,1.64 -0.98,0 -0.98,-0.96 -0.98,-1.64 l 0,-13.96 -13.96,0 c -0.7,0 -1.64,0 -1.64,-1 0,-1 0.94,-1 1.64,-1 l 13.96,0 0,-13.94 c 0,-0.7 0,-1.65 0.98,-1.65 1,0 1,0.95 1,1.65 z"
           id="path10988"
           inkscape:connector-curvature="0"
           style="fill:#000000;stroke-width:0" /><path
           d="m 527.98,418.65 0,0.37 0,0.39 -0.01,0.39 -0.01,0.41 -0.04,0.84 -0.06,0.88 -0.09,0.92 -0.1,0.95 -0.14,0.97 -0.16,1.01 -0.2,1.02 -0.23,1.03 -0.26,1.05 -0.31,1.06 -0.35,1.07 -0.39,1.07 -0.21,0.53 -0.23,0.53 -0.24,0.53 -0.25,0.53 c -2.98,6.12 -7.26,9.36 -7.76,9.36 -0.3,0 -0.5,-0.19 -0.5,-0.49 0,-0.15 0,-0.25 0.94,-1.15 4.89,-4.92 7.73,-12.85 7.73,-23.27 0,-8.51 -1.84,-17.28 -8.03,-23.56 -0.64,-0.59 -0.64,-0.7 -0.64,-0.84 0,-0.3 0.2,-0.5 0.5,-0.5 0.5,0 4.97,3.39 7.92,9.71 2.53,5.47 3.12,11 3.12,15.19 z"
           id="path10990"
           inkscape:connector-curvature="0"
           style="fill:#000000;stroke-width:0" /></g>    </g>
    <g
       id="g11204"
       transform="matrix(0.63793214,0,0,0.63793214,434.66653,263.34198)">
      <g
         word-spacing="normal"
         letter-spacing="normal"
         font-size-adjust="none"
         font-stretch="normal"
         font-weight="normal"
         font-variant="normal"
         font-style="normal"
         stroke-miterlimit="10.433"
         xml:space="preserve"
         transform="matrix(0.8401786,0,0,-0.8401786,-147.03125,790.31248)"
         id="g11206"
         style="font-style:normal;font-variant:normal;font-weight:normal;font-stretch:normal;letter-spacing:normal;word-spacing:normal;text-anchor:start;fill:none;fill-opacity:1;fill-rule:evenodd;stroke:#000000;stroke-linecap:butt;stroke-linejoin:miter;stroke-miterlimit:10.43299961;stroke-dasharray:none;stroke-dashoffset:0;stroke-opacity:1"><path
           id="path11208"
           d="m 472,394.25 0,0.02 0,0.03 0,0.01 0,0.02 0,0.01 -0.01,0.02 0,0.01 -0.01,0.02 -0.01,0.02 -0.01,0.02 -0.01,0.02 -0.02,0.03 -0.01,0.02 -0.02,0.03 -0.02,0.03 -0.03,0.03 -0.02,0.03 -0.03,0.04 -0.02,0.02 -0.01,0.02 -0.02,0.02 -0.02,0.02 -0.02,0.02 -0.02,0.03 -0.02,0.02 -0.02,0.02 -0.02,0.03 -0.03,0.02 -0.02,0.03 -0.03,0.03 -0.03,0.03 -0.02,0.03 -0.03,0.03 -0.03,0.03 -0.03,0.03 -0.03,0.03 -0.04,0.04 -0.03,0.03 -0.04,0.04 -0.03,0.03 -0.04,0.04 -0.04,0.04 c -6.22,6.28 -7.81,15.69 -7.81,23.31 0,8.67 1.89,17.35 8.01,23.56 0.64,0.61 0.64,0.71 0.64,0.86 0,0.35 -0.18,0.49 -0.48,0.49 -0.5,0 -4.98,-3.38 -7.92,-9.7 -2.55,-5.49 -3.14,-11.02 -3.14,-15.21 0,-3.89 0.54,-9.9 3.28,-15.54 2.98,-6.13 7.28,-9.36 7.78,-9.36 0.3,0 0.48,0.14 0.48,0.5 z"
           inkscape:connector-curvature="0"
           style="fill:#000000;stroke-width:0" /><path
           id="path11210"
           d="m 507.66,417.65 0.16,0 0.16,0 0.16,0.01 0.08,0 0.07,0.01 0.08,0 0.07,0.01 0.08,0.01 0.07,0.01 0.07,0.02 0.07,0.02 0.06,0.02 0.07,0.02 0.06,0.02 0.05,0.03 0.06,0.03 0.05,0.04 0.05,0.03 0.05,0.05 0.04,0.04 0.04,0.05 0.02,0.03 0.01,0.03 0.02,0.03 0.01,0.03 0.02,0.03 0.01,0.03 0.01,0.04 0.01,0.03 0.01,0.04 0.01,0.04 0.01,0.04 0,0.04 0.01,0.04 0,0.04 0,0.05 0,0.04 c 0,1 -0.9,1 -1.75,1 l -26.95,0 c -0.84,0 -1.73,0 -1.73,-1 0,-1 0.89,-1 1.73,-1 z"
           inkscape:connector-curvature="0"
           style="fill:#000000;stroke-width:0" /><path
           id="path11212"
           d="m 527.98,418.65 0,0.37 0,0.39 -0.01,0.39 -0.01,0.41 -0.04,0.84 -0.06,0.88 -0.09,0.92 -0.1,0.95 -0.14,0.97 -0.16,1.01 -0.2,1.02 -0.23,1.03 -0.26,1.05 -0.31,1.06 -0.35,1.07 -0.39,1.07 -0.21,0.53 -0.23,0.53 -0.24,0.53 -0.25,0.53 c -2.98,6.12 -7.26,9.36 -7.76,9.36 -0.3,0 -0.5,-0.19 -0.5,-0.49 0,-0.15 0,-0.25 0.94,-1.15 4.89,-4.92 7.73,-12.85 7.73,-23.27 0,-8.51 -1.84,-17.28 -8.03,-23.56 -0.64,-0.59 -0.64,-0.7 -0.64,-0.84 0,-0.3 0.2,-0.5 0.5,-0.5 0.5,0 4.97,3.39 7.92,9.71 2.53,5.47 3.12,11 3.12,15.19 z"
           inkscape:connector-curvature="0"
           style="fill:#000000;stroke-width:0" /></g>    </g>
  </g>
</svg>
