<?xml version="1.0" encoding="UTF-8" standalone="no"?>
<!-- Created with Inkscape (http://www.inkscape.org/) -->

<svg
   xmlns:dc="http://purl.org/dc/elements/1.1/"
   xmlns:cc="http://creativecommons.org/ns#"
   xmlns:rdf="http://www.w3.org/1999/02/22-rdf-syntax-ns#"
   xmlns:svg="http://www.w3.org/2000/svg"
   xmlns="http://www.w3.org/2000/svg"
   xmlns:xlink="http://www.w3.org/1999/xlink"
   xmlns:sodipodi="http://sodipodi.sourceforge.net/DTD/sodipodi-0.dtd"
   xmlns:inkscape="http://www.inkscape.org/namespaces/inkscape"
   id="svg2"
   version="1.1"
   inkscape:version="0.91 r13725"
   width="2202.5"
   height="1503.75"
   viewBox="0 0 2202.5 1503.75"
   sodipodi:docname="portata.svg">
  <sodipodi:namedview
     pagecolor="#ffffff"
     bordercolor="#666666"
     borderopacity="1"
     objecttolerance="10"
     gridtolerance="10"
     guidetolerance="10"
     inkscape:pageopacity="0"
     inkscape:pageshadow="2"
     inkscape:window-width="1920"
     inkscape:window-height="1021"
     id="namedview4"
     showgrid="false"
     inkscape:zoom="0.44389613"
     inkscape:cx="883.06502"
     inkscape:cy="454.06577"
     inkscape:window-x="0"
     inkscape:window-y="0"
     inkscape:window-maximized="1"
     inkscape:current-layer="svg2" />
  <metadata
     id="metadata8">
    <rdf:RDF>
      <cc:Work
         rdf:about="">
        <dc:format>image/svg+xml</dc:format>
        <dc:type
           rdf:resource="http://purl.org/dc/dcmitype/StillImage" />
        <dc:title />
      </cc:Work>
    </rdf:RDF>
  </metadata>
  <defs
     id="defs6">
    <marker
       inkscape:stockid="Arrow1Lend"
       orient="auto"
       refY="0.0"
       refX="0.0"
       id="marker4619"
       style="overflow:visible;"
       inkscape:isstock="true">
      <path
         id="path4621"
         d="M 0.0,0.0 L 5.0,-5.0 L -12.5,0.0 L 5.0,5.0 L 0.0,0.0 z "
         style="fill-rule:evenodd;stroke:#000000;stroke-width:1pt;stroke-opacity:1;fill:#000000;fill-opacity:1"
         transform="scale(0.8) rotate(180) translate(12.5,0)" />
    </marker>
    <marker
       inkscape:stockid="Arrow1Lend"
       orient="auto"
       refY="0.0"
       refX="0.0"
       id="marker4589"
       style="overflow:visible;"
       inkscape:isstock="true">
      <path
         id="path4591"
         d="M 0.0,0.0 L 5.0,-5.0 L -12.5,0.0 L 5.0,5.0 L 0.0,0.0 z "
         style="fill-rule:evenodd;stroke:#000000;stroke-width:1pt;stroke-opacity:1;fill:#000000;fill-opacity:1"
         transform="scale(0.8) rotate(180) translate(12.5,0)" />
    </marker>
    <linearGradient
       id="linearGradient4557"
       inkscape:collect="always">
      <stop
         id="stop4559"
         offset="0"
         style="stop-color:#b81818;stop-opacity:1;" />
      <stop
         id="stop4561"
         offset="1"
         style="stop-color:#b81818;stop-opacity:0;" />
    </linearGradient>
    <marker
       inkscape:collect="always"
       inkscape:isstock="true"
       style="overflow:visible;"
       id="marker4508"
       refX="0.0"
       refY="0.0"
       orient="auto"
       inkscape:stockid="Arrow1Lend">
      <path
         transform="scale(0.8) rotate(180) translate(12.5,0)"
         style="fill-rule:evenodd;stroke:#000000;stroke-width:1pt;stroke-opacity:1;fill:#000000;fill-opacity:1"
         d="M 0.0,0.0 L 5.0,-5.0 L -12.5,0.0 L 5.0,5.0 L 0.0,0.0 z "
         id="path4510" />
    </marker>
    <marker
       inkscape:collect="always"
       inkscape:isstock="true"
       style="overflow:visible;"
       id="Arrow1Lend"
       refX="0.0"
       refY="0.0"
       orient="auto"
       inkscape:stockid="Arrow1Lend">
      <path
         transform="scale(0.8) rotate(180) translate(12.5,0)"
         style="fill-rule:evenodd;stroke:#000000;stroke-width:1pt;stroke-opacity:1;fill:#000000;fill-opacity:1"
         d="M 0.0,0.0 L 5.0,-5.0 L -12.5,0.0 L 5.0,5.0 L 0.0,0.0 z "
         id="path4241" />
    </marker>
    <clipPath
       id="clipPath">
      <rect
         style="opacity:1;fill:none;fill-opacity:1;stroke:#000000;stroke-width:1;stroke-miterlimit:4;stroke-dasharray:12, 12;stroke-dashoffset:0;stroke-opacity:1"
         id="rect4138"
         width="1928.379"
         height="1144.4119"
         x="128.40842"
         y="170.10466" />
    </clipPath>
    <linearGradient
       gradientUnits="userSpaceOnUse"
       y2="841.43292"
       x2="247.05292"
       y1="879.73016"
       x1="1093.3507"
       id="linearGradient4563"
       xlink:href="#linearGradient4557"
       inkscape:collect="always" />
    <filter
       height="1.0618545"
       y="-0.030927272"
       width="1.0735568"
       x="-0.036778379"
       id="filter4577"
       style="color-interpolation-filters:sRGB"
       inkscape:collect="always">
      <feGaussianBlur
         id="feGaussianBlur4579"
         stdDeviation="14.050585"
         inkscape:collect="always" />
    </filter>
  </defs>
  <path
     style="opacity:1;fill:none;fill-opacity:1;stroke:#000000;stroke-width:1;stroke-miterlimit:4;stroke-dasharray:none;stroke-dashoffset:0;stroke-opacity:1"
     d="M 128.40842 856.7518 l 1928.379 0 M 1092.59792 1314.51656 l 0 -1144.4119 M 128.40842 2230.04608 C 129.051856436 2228.82415205 129.695292873 2226.68455987 130.338729309 2225.46751962 C 130.982165746 2224.25047938 131.625602182 2222.10846049 132.269038619 2220.89629815 C 132.912475055 2219.68413582 133.555911491 2217.53970981 134.199347928 2216.33241559 C 134.842784364 2215.12512137 135.486220801 2212.97830783 136.129657237 2211.77587193 C 136.773093674 2210.57343604 137.41653011 2208.42425455 138.059966547 2207.22666718 C 138.703402983 2206.02907981 139.346839419 2203.87754998 139.990275856 2202.68480134 C 140.633712292 2201.4920527 141.277148729 2199.3381941 141.920585165 2198.1502744 C 142.564021602 2196.9623547 143.207458038 2194.80618693 143.850894474 2193.62308637 C 144.494330911 2192.43998581 145.137767347 2190.28152846 145.781203784 2189.10323725 C 146.42464022 2187.92494604 147.068076657 2185.76421869 147.711513093 2184.59072703 C 148.35494953 2183.41723537 148.998385966 2181.25425763 149.641822402 2180.08555572 C 150.285258839 2178.91685382 150.928695275 2176.75164526 151.572131712 2175.58772332 C 152.215568148 2174.42380138 152.859004585 2172.2563816 153.502441021 2171.09722982 C 154.145877457 2169.93807805 154.789313894 2167.76846664 155.43275033 2166.61407523 C 156.076186767 2165.45968383 156.719623203 2163.28790038 157.36305964 2162.13825955 C 158.006496076 2160.98861872 158.649932513 2158.81468282 159.293368949 2157.66978277 C 159.936805385 2156.52488273 160.580241822 2154.34881396 161.223678258 2153.2086449 C 161.867114695 2152.06847584 162.510551131 2149.8902938 163.153987568 2148.75484594 C 163.797424004 2147.61939807 164.44086044 2145.43912235 165.084296877 2144.30838588 C 165.727733313 2143.17764941 166.37116975 2140.9952996 167.014606186 2139.86926473 C 167.658042623 2138.74322986 168.301479059 2136.55882555 168.944915495 2135.43748249 C 169.588351932 2134.31613943 170.231788368 2132.1297002 170.875224805 2131.01303915 C 171.518661241 2129.8963781 172.162097678 2127.70792355 172.805534114 2126.59593472 C 173.448970551 2125.48394589 174.092406987 2123.2934956 174.735843423 2122.18616919 C 175.37927986 2121.07884279 176.022716296 2118.88641636 176.666152733 2117.78374258 C 177.309589169 2116.68106879 177.953025606 2114.48668582 178.596462042 2113.38865487 C 179.239898478 2112.29062392 179.883334915 2110.09430398 180.526771351 2109.00090606 C 181.170207788 2107.90750815 181.813644224 2105.70927084 182.457080661 2104.62049617 C 183.100517097 2103.53172149 183.743953534 2101.3315864 184.38738997 2100.24742517 C 185.030826406 2099.16326395 185.674262843 2096.96125066 186.317699279 2095.88169309 C 186.961135716 2094.80213552 187.604572152 2092.59826363 188.248008589 2091.52329991 C 188.891445025 2090.4483362 189.534881461 2088.2426253 190.178317898 2087.17224564 C 190.821754334 2086.10186599 191.465190771 2083.89433567 192.108627207 2082.82853028 C 192.752063644 2081.76272489 193.39550008 2079.55339474 194.038936517 2078.49215382 C 194.682372953 2077.4309129 195.325809389 2075.21980251 195.969245826 2074.16311627 C 196.612682262 2073.10643003 197.256118699 2070.89355898 197.899555135 2069.84141763 C 198.542991572 2068.78927627 199.186428008 2066.57466416 199.829864444 2065.52705789 C 200.473300881 2064.47945162 201.116737317 2062.26311804 201.760173754 2061.22003706 C 202.40361019 2060.17695608 203.047046627 2057.95892061 203.690483063 2056.92035513 C 204.333919499 2055.88178965 204.977355936 2053.6620719 205.620792372 2052.62801211 C 206.264228809 2051.59395233 206.907665245 2049.37257188 207.551101682 2048.343008 C 208.194538118 2047.31344413 208.837974555 2045.09042056 209.481410991 2044.0653428 C 210.124847427 2043.04026504 210.768283864 2040.81561795 211.4117203 2039.7950165 C 212.055156737 2038.77441506 212.698593173 2036.54816403 213.34202961 2035.53202911 C 213.985466046 2034.51589419 214.628902482 2032.28805882 215.272338919 2031.27638062 C 215.915775355 2030.26470243 216.559211792 2028.03530231 217.202648228 2027.02807105 C 217.846084665 2026.02083978 218.489521101 2023.7898945 219.132957538 2022.78710038 C 219.776393974 2021.78430625 220.41983041 2019.5518354 221.063266847 2018.55346861 C 221.706703283 2017.55510182 222.35013972 2015.32112499 222.993576156 2014.32717575 C 223.637012593 2013.33322651 224.280449029 2011.09776329 224.923885465 2010.1082218 C 225.567321902 2009.11868031 226.210758338 2006.88175029 226.854194775 2005.89660676 C 227.497631211 2004.91146323 228.141067648 2002.67308599 228.784504084 2001.69233062 C 229.427940521 2000.71157525 230.071376957 1998.47177039 230.714813393 1997.49539339 C 231.35824983 1996.51901638 232.001686266 1994.27780349 232.645122703 1993.30579506 C 233.288559139 1992.33378663 233.931995576 1990.0911853 234.575432012 1989.12353564 C 235.218868448 1988.15588599 235.862304885 1985.91191581 236.505741321 1984.94861513 C 237.149177758 1983.98531446 237.792614194 1981.73999501 238.436050631 1980.78103353 C 239.079487067 1979.82207204 239.722923504 1977.57542292 240.36635994 1976.62079083 C 241.009796376 1975.66615873 241.653232813 1973.41819954 242.296669249 1972.46788704 C 242.940105686 1971.51757454 243.583542122 1969.26832485 244.226978559 1968.32232215 C 244.870414995 1967.37631946 245.513851431 1965.12579886 246.157287868 1964.18409617 C 246.800724304 1963.24239348 247.444160741 1960.99062158 248.087597177 1960.0532091 C 248.731033614 1959.11579662 249.37447005 1956.862793 250.017906486 1955.92966094 C 250.661342923 1954.99652888 251.304779359 1952.74231312 251.948215796 1951.81345168 C 252.591652232 1950.88459024 253.235088669 1948.62918194 253.878525105 1947.70458133 C 254.521961542 1946.77998071 255.165397978 1944.52339946 255.808834414 1943.60304988 C 256.452270851 1942.6827003 257.095707287 1940.42496569 257.739143724 1939.50885734 C 258.38258016 1938.592749 259.026016597 1936.33388061 259.669453033 1935.42200371 C 260.312889469 1934.51012681 260.956325906 1932.25014424 261.599762342 1931.34248898 C 262.243198779 1930.43483373 262.886635215 1928.17375657 263.530071652 1927.27031317 C 264.173508088 1926.36686976 264.816944525 1924.1047176 265.460380961 1923.20547625 C 266.103817397 1922.30623491 266.747253834 1920.04302733 267.39069027 1919.14797825 C 268.034126707 1918.25292916 268.677563143 1915.98868577 269.32099958 1915.09781915 C 269.964436016 1914.20695253 270.607872452 1911.94169291 271.251308889 1911.05499896 C 271.894745325 1910.16830501 272.538181762 1907.90204874 273.181618198 1907.01951767 C 273.825054635 1906.1369866 274.468491071 1903.86975328 275.111927508 1902.99137529 C 275.755363944 1902.1129973 276.39880038 1899.84480652 277.042236817 1898.97057182 C 277.685673253 1898.09633712 278.32910969 1895.82720847 278.972546126 1894.95710726 C 279.615982563 1894.08700604 280.259418999 1891.81695911 280.902855435 1890.9509816 C 281.546291872 1890.08500408 282.189728308 1887.81405846 282.833164745 1886.95219484 C 283.476601181 1886.09033123 284.120037618 1883.8185065 284.763474054 1882.960747 C 285.40691049 1882.10298749 286.050346927 1879.83030325 286.693783363 1878.97663806 C 287.3372198 1878.12297286 287.980656236 1875.8494487 288.624092673 1874.99986803 C 289.267529109 1874.15028735 289.910965546 1871.87594286 290.554401982 1871.0304369 C 291.197838418 1870.18493094 291.841274855 1867.90978571 292.484711291 1867.06834468 C 293.128147728 1866.22690365 293.771584164 1863.95097727 294.415020601 1863.11359137 C 295.058457037 1862.27620547 295.701893473 1859.99951752 296.34532991 1859.16617696 C 296.988766346 1858.3328364 297.632202783 1856.05540648 298.275639219 1855.22610146 C 298.919075656 1854.39679644 299.562512092 1852.11864414 300.205948529 1851.29336487 C 300.849384965 1850.4680856 301.492821401 1848.18923051 302.136257838 1847.36796718 C 302.779694274 1846.54670386 303.423130711 1844.26716557 304.066567147 1843.44990841 C 304.710003584 1842.63265124 305.35344002 1840.35244934 305.996876456 1839.53918853 C 306.640312893 1838.72592773 307.283749329 1836.4450818 307.927185766 1835.63580757 C 308.570622202 1834.82653333 309.214058639 1832.54506297 309.857495075 1831.73976551 C 310.500931512 1830.93446804 311.144367948 1828.65239284 311.787804384 1827.85106235 C 312.431240821 1827.04973186 313.074677257 1824.76707142 313.718113694 1823.96969811 C 314.36155013 1823.1723248 315.004986567 1820.88909869 315.648423003 1820.09567277 C 316.291859439 1819.30224685 316.935295876 1817.01847466 317.578732312 1816.22898633 C 318.222168749 1815.43949801 318.865605185 1813.15519934 319.509041622 1812.36963881 C 320.152478058 1811.58407828 320.795914494 1809.29927272 321.439350931 1808.51763019 C 322.082787367 1807.73598766 322.726223804 1805.4506948 323.36966024 1804.67296048 C 324.013096677 1803.89522615 324.656533113 1801.60946558 325.29996955 1800.83562967 C 325.943405986 1800.06179376 326.586842422 1797.77558507 327.230278859 1797.00563777 C 327.873715295 1796.23569047 328.517151732 1793.94905325 329.160588168 1793.18298478 C 329.804024605 1792.4169163 330.447461041 1790.12987014 331.090897477 1789.36767069 C 331.734333914 1788.60547124 332.37777035 1786.31803573 333.021206787 1785.55969551 C 333.664643223 1784.80135529 334.30807966 1782.51355002 334.951516096 1781.75905924 C 335.594952533 1781.00456846 336.238388969 1778.71641301 336.881825405 1777.96576187 C 337.525261842 1777.21511073 338.168698278 1774.9266247 338.812134715 1774.17980341 C 339.455571151 1773.43298212 340.099007588 1771.1441851 340.742444024 1770.40118386 C 341.38588046 1769.65818262 342.029316897 1767.36909419 342.672753333 1766.62990321 C 343.31618977 1765.89071222 343.959626206 1763.60135199 344.603062643 1762.86596147 C 345.246499079 1762.13057095 345.889935516 1759.84095849 346.533371952 1759.10935864 C 347.176808388 1758.37775878 347.820244825 1756.08791369 348.463681261 1755.36009471 C 349.107117698 1754.63227572 349.750554134 1752.3422176 350.393990571 1751.61816969 C 351.037427007 1750.89412178 351.680863443 1748.6038702 352.32429988 1747.88358358 C 352.967736316 1747.16329695 353.611172753 1744.87287151 354.254609189 1744.15633637 C 354.898045626 1743.43980123 355.541482062 1741.14922152 356.184918498 1740.43642807 C 356.828354935 1739.72363462 357.471791371 1737.43292023 358.115227808 1736.72385867 C 358.758664244 1736.01479712 359.402100681 1733.72396764 360.045537117 1733.01862819 C 360.688973554 1732.31328874 361.33240999 1730.02236375 361.975846426 1729.32073661 C 362.619282863 1728.61910946 363.262719299 1726.32810857 363.906155736 1725.63018393 C 364.549592172 1724.9322593 365.193028609 1722.64120208 365.836465045 1721.94697017 C 366.479901481 1721.25273825 367.123337918 1718.9616443 367.766774354 1718.27109531 C 368.410210791 1717.58054631 369.053647227 1715.28943522 369.697083664 1714.60255935 C 370.3405201 1713.91568348 370.983956537 1711.62457484 371.627392973 1710.94136231 C 372.270829409 1710.25814977 372.914265846 1707.96706317 373.557702282 1707.28750416 C 374.201138719 1706.60794516 374.844575155 1704.31690019 375.488011592 1703.64098493 C 376.131448028 1702.96506967 376.774884464 1700.67408592 377.418320901 1700.0018046 C 378.061757337 1699.32952329 378.705193774 1697.03862034 379.34863021 1696.36996318 C 379.992066647 1695.70130602 380.635503083 1693.41050347 381.27893952 1692.74546067 C 381.922375956 1692.08041786 382.565812392 1689.78973531 383.209248829 1689.12829706 C 383.852685265 1688.46685882 384.496121702 1686.17631584 385.139558138 1685.51847236 C 385.782994575 1684.86062888 386.426431011 1682.57024507 387.069867447 1681.91598657 C 387.713303884 1681.26172806 388.35674032 1678.97152301 389.000176757 1678.32083968 C 389.643613193 1677.67015635 390.28704963 1675.38014965 390.930486066 1674.7330317 C 391.573922503 1674.08591375 392.217358939 1671.79612499 392.860795375 1671.15256262 C 393.504231812 1670.50900026 394.147668248 1668.21944903 394.791104685 1667.57943246 C 395.434541121 1666.93941588 396.077977558 1664.65012177 396.721413994 1664.01364119 C 397.36485043 1663.37716062 398.008286867 1661.08814321 398.651723303 1660.45518884 C 399.29515974 1659.82223447 399.938596176 1657.53351336 400.582032613 1656.90407539 C 401.225469049 1656.27463743 401.868905485 1653.98623221 402.512341922 1653.36030085 C 403.155778358 1652.7343695 403.799214795 1650.44629976 404.442651231 1649.82386522 C 405.086087668 1649.20143068 405.729524104 1646.91371601 406.372960541 1646.29476849 C 407.016396977 1645.67582097 407.659833413 1643.38848096 408.30326985 1642.77301067 C 408.946706286 1642.15754038 409.590142723 1639.87059461 410.233579159 1639.25859175 C 410.877015596 1638.64658889 411.520452032 1636.36005697 412.163888468 1635.75151175 C 412.807324905 1635.14296652 413.450761341 1632.85686803 414.094197778 1632.25177064 C 414.737634214 1631.64667326 415.381070651 1629.36102779 416.024507087 1628.75936845 C 416.667943524 1628.15770911 417.31137996 1625.87253625 417.954816396 1625.27430516 C 418.598252833 1624.67607408 419.241689269 1622.39139341 419.885125706 1621.79658078 C 420.528562142 1621.20176815 421.171998579 1618.91759927 421.815435015 1618.32619531 C 422.458871451 1617.73479134 423.102307888 1615.45115384 423.745744324 1614.86314874 C 424.389180761 1614.27514364 425.032617197 1611.99205711 425.676053634 1611.40744108 C 426.31949007 1610.82282505 426.962926507 1608.54030907 427.606362943 1607.95907232 C 428.249799379 1607.37783557 428.893235816 1605.09590974 429.536672252 1604.51804247 C 430.180108689 1603.9401752 430.823545125 1601.65885912 431.466981562 1601.08435153 C 432.110417998 1600.50984395 432.753854434 1598.22915719 433.397290871 1597.6579995 C 434.040727307 1597.0868418 434.684163744 1594.80680397 435.32760018 1594.23898637 C 435.971036617 1593.67116877 436.614473053 1591.39179944 437.257909489 1590.82731215 C 437.901345926 1590.26282485 438.544782362 1587.98414362 439.188218799 1587.42297683 C 439.831655235 1586.86181004 440.475091672 1584.5838365 441.118528108 1584.02598042 C 441.761964545 1583.46812435 442.405400981 1581.19087808 443.048837417 1580.63632292 C 443.692273854 1580.08176776 444.33571029 1577.80526837 444.979146727 1577.25400433 C 445.622583163 1576.70274029 446.2660196 1574.42700735 446.909456036 1573.87902464 C 447.552892472 1573.33104192 448.196328909 1571.05609504 448.839765345 1570.51138386 C 449.483201782 1569.96667267 450.126638218 1567.69253143 450.770074655 1567.15108198 C 451.413511091 1566.60963253 452.056947528 1564.33631652 452.700383964 1563.79811901 C 453.3438204 1563.25992151 453.987256837 1560.98745031 454.630693273 1560.45249495 C 455.27412971 1559.91753959 455.917566146 1557.6459328 456.561002583 1557.1142098 C 457.204439019 1556.58248679 457.847875455 1554.311764 458.491311892 1553.78326355 C 459.134748328 1553.25476309 459.778184765 1550.9849439 460.421621201 1550.4596562 C 461.065057638 1549.93436851 461.708494074 1547.66547249 462.351930511 1547.14338777 C 462.995366947 1546.62130304 463.638803383 1544.35334979 464.28223982 1543.83445824 C 464.925676256 1543.31556669 465.569112693 1541.0485758 466.212549129 1540.53286762 C 466.855985566 1540.01715944 467.499422002 1537.7511505 468.142858438 1537.2386159 C 468.786294875 1536.72608131 469.429731311 1534.4610739 470.073167748 1533.95170309 C 470.716604184 1533.44233228 471.360040621 1531.17834601 472.003477057 1530.67212919 C 472.646913493 1530.16591237 473.29034993 1527.90296682 473.933786366 1527.3998942 C 474.577222803 1526.89682157 475.220659239 1524.63493633 475.864095676 1524.13499811 C 476.507532112 1523.63505989 477.150968549 1521.37425454 477.794404985 1520.87744092 C 478.437841421 1520.38062731 479.081277858 1518.12092145 479.724714294 1517.62722265 C 480.368150731 1517.13352385 481.011587167 1514.87493707 481.655023604 1514.38434328 C 482.29846004 1513.89374949 482.941896476 1511.63630138 483.585332913 1511.14880282 C 484.228769349 1510.66130425 484.872205786 1508.4050144 485.515642222 1507.92060126 C 486.159078659 1507.43618812 486.802515095 1505.18107612 487.445951532 1504.69973861 C 488.089387968 1504.2184011 488.732824404 1501.96448654 489.376260841 1501.48621487 C 490.019697277 1501.0079432 490.663133714 1498.75524567 491.30657015 1498.28003003 C 491.950006587 1497.8048144 492.593443023 1495.55335349 493.236879459 1495.08118411 C 493.880315896 1494.60901472 494.523752332 1492.35881002 495.167188769 1491.88967708 C 495.810625205 1491.42054415 496.454061642 1489.17161524 497.097498078 1488.70550897 C 497.740934515 1488.23940269 498.384370951 1485.99176917 499.027807387 1485.52867976 C 499.671243824 1485.06559034 500.31468026 1482.8192718 500.958116697 1482.35918945 C 501.601553133 1481.8991071 502.24498957 1479.65412314 502.888426006 1479.19703806 C 503.531862442 1478.73995298 504.175298879 1476.49632317 504.818735315 1476.04222557 C 505.462171752 1475.58812797 506.105608188 1473.34587191 506.749044625 1472.89475199 C 507.392481061 1472.44363206 508.035917497 1470.20276935 508.679353934 1469.75461731 C 509.32279037 1469.30646527 509.966226807 1467.06701548 510.609663243 1466.62182154 C 511.25309968 1466.1766276 511.896536116 1463.93861033 512.539972553 1463.49636468 C 513.183408989 1463.05411903 513.826845425 1460.81755387 514.470281862 1460.37824672 C 515.113718298 1459.93893957 515.757154735 1457.70384611 516.400591171 1457.26746767 C 517.044027608 1456.83108923 517.687464044 1454.59748706 518.33090048 1454.16402753 C 518.974336917 1453.730568 519.617773353 1451.49847671 520.26120979 1451.06792629 C 520.904646226 1450.63737588 521.548082663 1448.40681505 522.191519099 1447.97916396 C 522.834955536 1447.55151287 523.478391972 1445.32250211 524.121828408 1444.89774054 C 524.765264845 1444.47297897 525.408701281 1442.24553786 526.052137718 1441.82365602 C 526.695574154 1441.40177419 527.339010591 1439.17592231 527.982447027 1438.75691041 C 528.625883463 1438.33789851 529.2693199 1436.11365547 529.912756336 1435.69750371 C 530.556192773 1435.28135195 531.199629209 1433.05873733 531.843065646 1432.64543591 C 532.486502082 1432.2321345 533.129938519 1430.01116788 533.773374955 1429.60070702 C 534.416811391 1429.19024616 535.060247828 1426.97094714 535.703684264 1426.56331704 C 536.347120701 1426.15568694 536.990557137 1423.93807511 537.633993574 1423.53326596 C 538.27743001 1423.12845682 538.920866446 1420.91255177 539.564302883 1420.51055379 C 540.207739319 1420.10855582 540.851175756 1417.89437714 541.494612192 1417.49518053 C 542.138048629 1417.09598392 542.781485065 1414.8835512 543.424921502 1414.48714617 C 544.068357938 1414.09074114 544.711794374 1411.88007397 545.355230811 1411.48645072 C 545.998667247 1411.09282747 546.642103684 1408.88394544 547.28554012 1408.49309418 C 547.928976557 1408.10224292 548.572412993 1405.89516561 549.215849429 1405.50707654 C 549.859285866 1405.11898747 550.502722302 1402.91373449 551.146158739 1402.52839781 C 551.789595175 1402.14306114 552.433031612 1399.93965206 553.076468048 1399.55705799 C 553.719904484 1399.17446391 554.363340921 1396.97291834 555.006777357 1396.59305707 C 555.650213794 1396.2131958 556.29365023 1394.01353332 556.937086667 1393.63639506 C 557.580523103 1393.2592568 558.22395954 1391.061497 558.867395976 1390.68707196 C 559.510832412 1390.31264692 560.154268849 1388.11680938 560.797705285 1387.74508776 C 561.441141722 1387.37336614 562.084578158 1385.17947046 562.728014595 1384.81044247 C 563.371451031 1384.44141448 564.014887467 1382.24948025 564.658323904 1381.88313609 C 565.30176034 1381.51679192 565.945196777 1379.32683874 566.588633213 1378.96316861 C 567.23206965 1378.59949848 567.875506086 1376.41154593 568.518942523 1376.05054004 C 569.162378959 1375.68953415 569.805815395 1373.50360182 570.449251832 1373.14525038 C 571.092688268 1372.78689894 571.736124705 1370.60300641 572.379561141 1370.24729962 C 573.022997578 1369.89159283 573.666434014 1367.7097597 574.30987045 1367.35668777 C 574.953306887 1367.00361583 575.596743323 1364.8238617 576.24017976 1364.47341482 C 576.883616196 1364.12296795 577.527052633 1361.94531239 578.170489069 1361.59748079 C 578.813925506 1361.24964918 579.457361942 1359.07411179 580.100798378 1358.72888566 C 580.744234815 1358.38365952 581.387671251 1356.21025989 582.031107688 1355.86762943 C 582.674544124 1355.52499897 583.317980561 1353.35375669 583.961416997 1353.01371211 C 584.604853433 1352.67366754 585.24828987 1350.5046022 585.891726306 1350.1671337 C 586.535162743 1349.82966521 587.178599179 1347.6627964 587.822035616 1347.3278942 C 588.465472052 1346.992992 589.108908488 1344.82833931 589.752344925 1344.4959936 C 590.395781361 1344.1636479 591.039217798 1342.00123091 591.682654234 1341.67143191 C 592.326090671 1341.34163291 592.969527107 1339.18147122 593.612963544 1338.85420913 C 594.25639998 1338.52694703 594.899836416 1336.36906024 595.543272853 1336.04432525 C 596.186709289 1335.71959026 596.830145726 1333.56399795 597.473582162 1333.24178028 C 598.117018599 1332.91956261 598.760455035 1330.76628436 599.403891471 1330.44657421 C 600.047327908 1330.12686406 600.690764344 1327.97591948 601.334200781 1327.65870706 C 601.977637217 1327.34149463 602.621073654 1325.1929033 603.26451009 1324.8781788 C 603.907946527 1324.56345431 604.551382963 1322.41723582 605.194819399 1322.10498946 C 605.838255836 1321.7927431 606.481692272 1319.64891704 607.125128709 1319.33913902 C 607.768565145 1319.02936101 608.412001582 1316.88794696 609.055438018 1316.58062749 C 609.698874454 1316.27330802 610.342310891 1314.13432559 610.985747327 1313.82945487 C 611.629183764 1313.52458415 612.2726202 1311.38805291 612.916056637 1311.08562115 C 613.559493073 1310.78318939 614.20292951 1308.64912894 614.846365946 1308.34912634 C 615.489802382 1308.04912373 616.133238819 1305.91755367 616.776675255 1305.61997043 C 617.420111692 1305.3223872 618.063548128 1303.1933271 618.706984565 1302.89815343 C 619.350421001 1302.60297977 619.993857437 1300.47644923 620.637293874 1300.18367534 C 621.28073031 1299.89090145 621.924166747 1297.76692007 622.567603183 1297.47653616 C 623.21103962 1297.18615225 623.854476056 1295.0647396 624.497912492 1294.77673588 C 625.141348929 1294.48873216 625.784785365 1292.36990784 626.428221802 1292.08427451 C 627.071658238 1291.79864118 627.715094675 1289.68242478 628.358531111 1289.39915204 C 629.001967548 1289.11587931 629.645403984 1287.00229042 630.28884042 1286.72136849 C 630.932276857 1286.44044655 631.575713293 1284.32950476 632.21914973 1284.05092383 C 632.862586166 1283.77234291 633.506022603 1281.66406781 634.149459039 1281.38781809 C 634.792895475 1281.11156837 635.436331912 1279.00597955 636.079768348 1278.73205125 C 636.723204785 1278.45812295 637.366641221 1276.35524 638.010077658 1276.08362332 C 638.653514094 1275.81200664 639.296950531 1273.71184915 639.940386967 1273.44253429 C 640.583823403 1273.17321944 641.22725984 1271.075807 641.870696276 1270.80878418 C 642.514132713 1270.54176135 643.157569149 1268.44711355 643.801005586 1268.18237296 C 644.444442022 1267.91763238 645.087878458 1265.82576881 645.731314895 1265.56330066 C 646.374751331 1265.30083251 647.018187768 1263.21177276 647.661624204 1262.95156726 C 648.305060641 1262.69136176 648.948497077 1260.60512542 649.591933514 1260.34717277 C 650.23536995 1260.08922012 650.878806386 1258.00582678 651.522242823 1257.75011718 C 652.165679259 1257.49440759 652.809115696 1255.41387684 653.452552132 1255.1604005 C 654.095988569 1254.90692417 654.739425005 1252.8292756 655.382861441 1252.57802273 C 656.026297878 1252.32676986 656.669734314 1250.25202306 657.313170751 1250.00298387 C 657.956607187 1249.75394467 658.600043624 1247.68211923 659.24348006 1247.43528391 C 659.886916496 1247.18844859 660.530352933 1245.1195641 661.173789369 1244.87492286 C 661.817225806 1244.63028162 662.460662242 1242.56435767 663.104098679 1242.32190071 C 663.747535115 1242.07944376 664.390971552 1240.01649994 665.034407988 1239.77621747 C 665.677844424 1239.53593501 666.321280861 1237.47599091 666.964717297 1237.23787314 C 667.608153734 1236.99975537 668.25159017 1234.94283058 668.895026607 1234.70686771 C 669.538463043 1234.47090485 670.181899479 1232.41701896 670.825335916 1232.1832012 C 671.468772352 1231.94938343 672.112208789 1229.89855603 672.755645225 1229.66687358 C 673.399081662 1229.43519113 674.042518098 1227.38744181 674.685954535 1227.15788488 C 675.329390971 1226.92832794 675.972827407 1224.88367629 676.616263844 1224.65623508 C 677.25970028 1224.42879387 677.903136717 1222.38725947 678.546573153 1222.16192419 C 679.19000959 1221.9365889 679.833446026 1219.89819136 680.476882462 1219.6749522 C 681.120318899 1219.45171304 681.763755335 1217.41647194 682.407191772 1217.19531912 C 683.050628208 1216.9741663 683.694064645 1214.94210123 684.337501081 1214.72302495 C 684.980937518 1214.50394867 685.624373954 1212.47507922 686.26781039 1212.25806968 C 686.911246827 1212.04106015 687.554683263 1210.01540591 688.1981197 1209.80045332 C 688.841556136 1209.58550074 689.484992573 1207.5630813 690.128429009 1207.35017587 C 690.771865445 1207.13727044 691.415301882 1205.11810539 692.058738318 1204.90723733 C 692.702174755 1204.69636926 693.345611191 1202.68047819 693.989047628 1202.47163769 C 694.632484064 1202.26279719 695.275920501 1200.25019968 695.919356937 1200.04337695 C 696.562793373 1199.83655422 697.20622981 1197.82726988 697.849666246 1197.62245513 C 698.493102683 1197.41764037 699.136539119 1195.41168878 699.779975556 1195.20887221 C 700.423411992 1195.00605563 701.066848428 1193.00345638 701.710284865 1192.8026282 C 702.353721301 1192.60180001 702.997157738 1190.60257269 703.640594174 1190.40372309 C 704.284030611 1190.20487349 704.927467047 1188.20903769 705.570903483 1188.01215689 C 706.21433992 1187.81527609 706.857776356 1185.8228514 707.501212793 1185.6279296 C 708.144649229 1185.4330078 708.788085666 1183.44401381 709.431522102 1183.25104121 C 710.074958539 1183.05806862 710.718394975 1181.07252492 711.361831411 1180.88149173 C 712.005267848 1180.69045855 712.648704284 1178.70838473 713.292140721 1178.51928116 C 713.935577157 1178.33017759 714.579013594 1176.35159324 715.22245003 1176.16440949 C 715.865886466 1175.97722574 716.509322903 1174.00215045 717.152759339 1173.81687673 C 717.796195776 1173.63160301 718.439632212 1171.66005637 719.083068649 1171.47668288 C 719.726505085 1171.29330939 720.369941522 1169.32531099 721.013377958 1169.14382793 C 721.656814394 1168.96234488 722.300250831 1166.99791431 722.943687267 1166.81831189 C 723.587123704 1166.63870948 724.23056014 1164.67786633 724.873996577 1164.50013476 C 725.517433013 1164.32240319 726.160869449 1162.36516705 726.804305886 1162.18929653 C 727.447742322 1162.01342602 728.091178759 1160.05981648 728.734615195 1159.88579721 C 729.378051632 1159.71177795 730.021488068 1157.7618146 730.664924505 1157.5896368 C 731.308360941 1157.417459 731.951797377 1155.47116143 732.595233814 1155.30081529 C 733.23867025 1155.13046916 733.882106687 1153.18785696 734.525543123 1153.01933269 C 735.16897956 1152.85080843 735.812415996 1150.91190119 736.455852432 1150.745189 C 737.099288869 1150.57847681 737.742725305 1148.64329412 738.386161742 1148.47838421 C 739.029598178 1148.31347431 739.673034615 1146.38203576 740.316471051 1146.21891833 C 740.959907487 1146.05580091 741.603343924 1144.12812609 742.24678036 1143.96679136 C 742.890216797 1143.80545663 743.533653233 1141.88156513 744.17708967 1141.72200329 C 744.820526106 1141.56244146 745.463962543 1139.64235287 746.107398979 1139.48455413 C 746.750835415 1139.3267554 747.394271852 1137.41048931 748.037708288 1137.25444388 C 748.681144725 1137.09839845 749.324581161 1135.18597445 749.968017598 1135.03167253 C 750.611454034 1134.87737061 751.25489047 1132.9688083 751.898326907 1132.81624009 C 752.541763343 1132.66367189 753.18519978 1130.75899084 753.828636216 1130.60814656 C 754.472072653 1130.45730228 755.115509089 1128.55652209 755.758945526 1128.40739193 C 756.402381962 1128.25826177 757.045818398 1126.36140204 757.689254835 1126.21397621 C 758.332691271 1126.06655038 758.976127708 1124.17363069 759.619564144 1124.0278994 C 760.263000581 1123.88216811 760.906437017 1121.99320804 761.549873453 1121.84916149 C 762.19330989 1121.70511494 762.836746326 1119.8201341 763.480182763 1119.67776249 C 764.123619199 1119.53539089 764.767055636 1117.65440885 765.410492072 1117.5137024 C 766.053928509 1117.37299594 766.697364945 1115.49603231 767.340801381 1115.35698121 C 767.984237818 1115.21793011 768.627674254 1113.34500447 769.271110691 1113.20759893 C 769.914547127 1113.07019339 770.557983564 1111.20132533 771.20142 1111.06555556 C 771.844856436 1110.92978578 772.488292873 1109.06499489 773.131729309 1108.93085109 C 773.775165746 1108.79670729 774.418602182 1106.93601315 775.062038619 1106.80348553 C 775.705475055 1106.6709579 776.348911491 1104.81438012 776.992347928 1104.68345887 C 777.635784364 1104.55253763 778.279220801 1102.70009579 778.922657237 1102.57077113 C 779.566093674 1102.44144647 780.20953011 1100.59316016 780.852966547 1100.46542229 C 781.496402983 1100.33768442 782.139839419 1098.49357323 782.783275856 1098.36741235 C 783.426712292 1098.24125148 784.070148729 1096.401335 784.713585165 1096.27674132 C 785.357021602 1096.15214765 786.000458038 1094.31644547 786.643894474 1094.1934092 C 787.287330911 1094.07037294 787.930767347 1092.23890465 788.574203784 1092.11741599 C 789.21764022 1091.99592733 789.861076657 1090.16871252 790.504513093 1090.04876168 C 791.14794953 1089.92881084 791.791385966 1088.1058691 792.434822402 1087.98744628 C 793.078258839 1087.86902346 793.721695275 1086.05037438 794.365131712 1085.93346979 C 795.008568148 1085.81656519 795.652004585 1084.00222836 796.295441021 1083.8868322 C 796.938877457 1083.77143603 797.582313894 1081.96143105 798.22575033 1081.84753352 C 798.869186767 1081.73363599 799.512623203 1079.92798243 800.15605964 1079.81557374 C 800.799496076 1079.70316505 801.442932513 1077.90188252 802.086368949 1077.79095288 C 802.729805385 1077.68002323 803.373241822 1075.88313131 804.016678258 1075.77367091 C 804.660114695 1075.66421052 805.303551131 1073.8717288 805.946987568 1073.76372786 C 806.590424004 1073.65572692 807.23386044 1071.86767499 807.877296877 1071.76112371 C 808.520733313 1071.65457244 809.16416975 1069.87096988 809.807606186 1069.76585847 C 810.451042623 1069.66074706 811.094479059 1067.88161348 811.737915495 1067.77793214 C 812.381351932 1067.6742508 813.024788368 1065.89960577 813.668224805 1065.79734471 C 814.311661241 1065.69508364 814.955097678 1063.92494677 815.598534114 1063.82409619 C 816.241970551 1063.7232456 816.885406987 1061.95763647 817.528843423 1061.85818657 C 818.17227986 1061.75873667 818.815716296 1059.99767487 819.459152733 1059.89961586 C 820.102589169 1059.80155686 820.746025606 1058.04506198 821.389462042 1057.94838406 C 822.032898478 1057.85170615 822.676334915 1056.09979778 823.319771351 1056.00449117 C 823.963207788 1055.90918456 824.606644224 1054.16188229 825.250080661 1054.06793718 C 825.893517097 1053.97399207 826.536953534 1052.23131549 827.18038997 1052.1387221 C 827.823826406 1052.0461287 828.467262843 1050.3080974 829.110699279 1050.21684592 C 829.754135716 1050.12559444 830.397572152 1048.39222801 831.041008589 1048.30230866 C 831.684445025 1048.2123893 832.327881461 1046.48370733 832.971317898 1046.39511029 C 833.614754334 1046.30651326 834.258190771 1044.58253534 834.901627207 1044.49525084 C 835.545063644 1044.40796633 836.18850008 1042.68871206 836.831936517 1042.60273029 C 837.475372953 1042.51674852 838.118809389 1040.80223748 838.762245826 1040.71754865 C 839.405682262 1040.63285982 840.049118699 1038.9231116 840.692555135 1038.83970591 C 841.335991572 1038.75630023 841.979428008 1037.05133442 842.622864444 1036.96920209 C 843.266300881 1036.88706975 843.909737317 1035.18690594 844.553173754 1035.10603716 C 845.19661019 1035.02516839 845.840046627 1033.32982616 846.483483063 1033.25021115 C 847.126919499 1033.17059613 847.770355936 1031.48009509 848.413792372 1031.40172404 C 849.057228809 1031.32335299 849.700665245 1029.63771272 850.344101682 1029.56057584 C 850.987538118 1029.48343896 851.630974555 1027.80267905 852.274410991 1027.72676654 C 852.917847427 1027.65085404 853.561283864 1025.97499408 854.2047203 1025.90029615 C 854.848156737 1025.82559823 855.491593173 1024.15465781 856.13502961 1024.08116467 C 856.778466046 1024.00767153 857.421902482 1022.34167024 858.065338919 1022.2693721 C 858.708775355 1022.19707395 859.352211792 1020.53603138 859.995648228 1020.46491843 C 860.639084665 1020.39380548 861.282521101 1018.73774122 861.925957538 1018.66780367 C 862.569393974 1018.59786611 863.21283041 1016.94679976 863.856266847 1016.87802781 C 864.499703283 1016.80925586 865.14313972 1015.163207 865.786576156 1015.09559086 C 866.430012593 1015.02797473 867.073449029 1013.38696294 867.716885465 1013.32049282 C 868.360321902 1013.2540227 869.003758338 1011.61806758 869.647194775 1011.55273368 C 870.290631211 1011.48739978 870.934067648 1009.85652093 871.577504084 1009.79231345 C 872.220940521 1009.72810598 872.864376957 1008.10232298 873.507813393 1008.03923213 C 874.15124983 1007.97614129 874.794686266 1006.35547373 875.438122703 1006.29348972 C 876.081559139 1006.23150571 876.724995576 1004.61597318 877.368432012 1004.55508621 C 878.011868448 1004.49419924 878.655304885 1002.88382133 879.298741321 1002.82402161 C 879.942177758 1002.76422188 880.585614194 1001.15901818 881.229050631 1001.10029591 C 881.872487067 1001.04157364 882.515923504 999.441563738 883.15935994 999.38390912 C 883.802796376 999.326254503 884.446232813 997.731457995 885.089669249 997.674861238 C 885.733105686 997.618264481 886.376542122 996.028700953 887.019978559 995.973152262 C 887.663414995 995.917603571 888.306851431 994.333292614 888.950287868 994.278782193 C 889.593724304 994.224271772 890.237160741 992.645232976 890.880597177 992.59175103 C 891.524033614 992.538269085 892.16747005 990.964522039 892.810906486 990.912058774 C 893.454342923 990.859595509 894.097779359 989.291159805 894.741215796 989.239705425 C 895.384652232 989.188251046 896.028088669 987.625146272 896.671525105 987.574690982 C 897.314961542 987.524235693 897.958397978 985.96648144 898.601834414 985.917015446 C 899.245270851 985.867549453 899.888707287 984.31516531 900.532143724 984.266678817 C 901.17558016 984.218192324 901.819016597 982.671197882 902.462453033 982.623681094 C 903.105889469 982.576164306 903.749325906 981.034579156 904.392762342 980.988022278 C 905.036198779 980.9414654 905.679635215 979.405309131 906.323071652 979.359702369 C 906.966508088 979.314095606 907.609944525 977.783387808 908.253380961 977.738721366 C 908.896817397 977.694054924 909.540253834 976.168815186 910.18369027 976.12507927 C 910.827126707 976.081343353 911.470563143 974.561591266 912.11399958 974.51877608 C 912.757436016 974.475960894 913.400872452 972.961716048 914.044308889 972.919811797 C 914.687745325 972.877907546 915.331181762 971.369189531 915.974618198 971.328186421 C 916.618054635 971.28718331 917.261491071 969.784011716 917.904927508 969.743899951 C 918.548363944 969.703788186 919.19180038 968.206182603 919.835236817 968.166952388 C 920.478673253 968.127722173 921.12210969 966.635702191 921.765546126 966.597343731 C 922.408982563 966.558985272 923.052418999 965.072570481 923.695855435 965.035073982 C 924.339291872 964.997577483 924.982728308 963.516787472 925.626164745 963.480143139 C 926.269601181 963.443498805 926.913037618 961.968353165 927.556474054 961.932551202 C 928.19991049 961.896749239 928.843346927 960.42726756 929.486783363 960.392298172 C 930.1302198 960.357328784 930.773656236 958.893530657 931.417092673 958.859384049 C 932.060529109 958.825237441 932.703965546 957.367142455 933.347401982 957.333808832 C 933.990838418 957.30047521 934.634274855 955.848102954 935.277711291 955.815572522 C 935.921147728 955.78304209 936.564584164 954.336412156 937.208020601 954.304675119 C 937.851457037 954.272938082 938.494893473 952.832070059 939.13832991 952.801116622 C 939.781766346 952.770163186 940.425202783 951.335076663 941.068639219 951.304897032 C 941.712075656 951.274717401 942.355512092 949.84543197 942.998948529 949.816016349 C 943.642384965 949.786600728 944.285821401 948.363135978 944.929257838 948.334474572 C 945.572694274 948.305813166 946.216130711 946.888188687 946.859567147 946.860271702 C 947.503003584 946.832354716 948.14644002 945.420590098 948.789876456 945.393407738 C 949.433312893 945.366225378 950.076749329 943.960340211 950.720185766 943.933882681 C 951.363622202 943.907425151 952.007058639 942.507439025 952.650495075 942.481696531 C 953.293931512 942.455954036 953.937367948 941.061886542 954.580804384 941.036849287 C 955.224240821 941.011812033 955.867677257 939.623682759 956.511113694 939.59934095 C 957.15455013 939.574999141 957.797986567 938.192827679 958.441423003 938.16917152 C 959.084859439 938.145515361 959.728295876 936.7693213 960.371732312 936.746340996 C 961.015168749 936.723360693 961.658605185 935.353163622 962.302041622 935.330849379 C 962.945478058 935.308535136 963.588914494 933.944354647 964.232350931 933.922696669 C 964.875787367 933.901038691 965.519223804 932.542894372 966.16266024 932.521882865 C 966.806096677 932.500871357 967.449533113 931.1487828 968.09296955 931.128407968 C 968.736405986 931.108033135 969.379842422 929.762019929 970.023278859 929.742271977 C 970.666715295 929.722524025 971.310151732 928.38260576 971.953588168 928.363474893 C 972.597024605 928.344344026 973.240461041 927.010540292 973.883897477 926.992016716 C 974.527333914 926.973493139 975.17077035 925.645823527 975.814206787 925.627897445 C 976.457643223 925.609971364 977.10107966 924.288455462 977.744516096 924.271117081 C 978.387952533 924.2537787 979.031388969 922.9384361 979.674825405 922.921675624 C 980.318261842 922.904915148 980.961698278 921.595765439 981.605134715 921.579573073 C 982.248571151 921.563380707 982.892007588 920.260443479 983.535444024 920.244809429 C 984.17888046 920.229175378 984.822316897 918.932470222 985.465753333 918.917384691 C 986.10918977 918.902299161 986.752626206 917.611845666 987.396062643 917.597298861 C 988.039499079 917.582752055 988.682935516 916.298569811 989.326371952 916.284551936 C 989.969808388 916.270534061 990.613244825 914.992642658 991.256681261 914.979143919 C 991.900117698 914.965645179 992.543554134 913.694064207 993.186990571 913.681074808 C 993.830427007 913.668085408 994.473863443 912.402834458 995.11729988 912.390344603 C 995.760736316 912.377854749 996.404172753 911.11895341 997.047609189 911.106953306 C 997.691045626 911.094953202 998.334482062 909.842421064 998.977918498 909.830900915 C 999.621354935 909.819380766 1000.26479137 908.573237419 1000.90822781 908.56218743 C 1001.55166424 908.551137442 1002.19510068 907.311402476 1002.83853712 907.300812852 C 1003.48197355 907.290223229 1004.12540999 906.056916235 1004.76884643 906.046777181 C 1005.41228286 906.036638128 1006.0557193 904.809778695 1006.69915574 904.800080417 C 1007.34259217 904.790382139 1007.98602861 903.569989857 1008.62946505 903.560722559 C 1009.27290148 903.551455261 1009.91633792 902.337549721 1010.55977435 902.328703608 C 1011.20321079 902.319857495 1011.84664723 901.112458286 1012.49008366 901.104023563 C 1013.1335201 901.09558884 1013.77695654 899.894715553 1014.42039297 899.886682425 C 1015.06382941 899.878649298 1015.70726585 898.684321521 1016.35070228 898.676680194 C 1016.99413872 898.669038866 1017.63757516 897.481276191 1018.28101159 897.474016869 C 1018.92444803 897.466757547 1019.56788446 896.285579563 1020.2113209 896.278692451 C 1020.85475734 896.271805339 1021.49819377 895.097231637 1022.14163021 895.09070694 C 1022.78506665 895.084182243 1023.42850308 893.916232412 1024.07193952 893.910060335 C 1024.71537596 893.903888258 1025.35881239 892.742581888 1026.00224883 892.736752637 C 1026.64568527 892.730923385 1027.2891217 891.576280067 1027.93255814 891.570783845 C 1028.57599457 891.565287624 1029.21943101 890.417326947 1029.86286745 890.41215396 C 1030.50630388 890.406980974 1031.14974032 889.265722528 1031.79317676 889.260862982 C 1032.43661319 889.256003436 1033.08004963 888.121466811 1033.72348607 888.11691091 C 1034.3669225 888.112355009 1035.01035894 886.984559796 1035.65379538 886.980297745 C 1036.29723181 886.976035694 1036.94066825 885.855001483 1037.58410468 885.851023487 C 1038.22754112 885.847045491 1038.87097756 884.732791871 1039.51441399 884.729088135 C 1040.15785043 884.725384399 1040.80128687 883.617930961 1041.4447233 883.61449169 C 1042.08815974 883.611052419 1042.73159618 882.510418752 1043.37503261 882.507234152 C 1044.01846905 882.504049551 1044.66190549 881.410255245 1045.30534192 881.40731552 C 1045.94877836 881.404375794 1046.59221479 880.31744044 1047.23565123 880.314735795 C 1047.87908767 880.312031149 1048.5225241 879.231974336 1049.16596054 879.229494976 C 1049.80939698 879.227015616 1050.45283341 878.153856934 1051.09626985 878.151593064 C 1051.73970629 878.149329194 1052.38314272 877.083088234 1053.02657916 877.081030059 C 1053.6700156 877.078971884 1054.31345203 876.019668235 1054.95688847 876.01780596 C 1055.6003249 876.015943685 1056.24376134 874.963596938 1056.88719778 874.961920768 C 1057.53063421 874.960244598 1058.17407065 873.914874343 1058.81750709 873.913374483 C 1059.46094352 873.911874623 1060.10437996 872.873500449 1060.7478164 872.872167104 C 1061.39125283 872.870833759 1062.03468927 871.839475257 1062.67812571 871.838298632 C 1063.32156214 871.837122007 1063.96499858 870.812798766 1064.60843502 870.811769066 C 1065.25187145 870.810739367 1065.89530789 869.793470977 1066.53874432 869.792578408 C 1067.18218076 869.791685838 1067.8256172 868.78149189 1068.46905363 868.780726655 C 1069.11249007 868.779961421 1069.75592651 867.776861504 1070.39936294 867.77621381 C 1071.04279938 867.775566115 1071.68623582 866.77957982 1072.32967225 866.779039871 C 1072.97310869 866.778499921 1073.61654513 865.789646838 1074.25998156 865.789204839 C 1074.903418 865.788762839 1075.54685443 864.807062557 1076.19029087 864.806708713 C 1076.83372731 864.806354868 1077.47716374 863.831826978 1078.12060018 863.831551494 C 1078.76403662 863.831276009 1079.40747305 862.863940101 1080.05090949 862.863733181 C 1080.69434593 862.863526262 1081.33778236 861.903401925 1081.9812188 861.903253776 C 1082.62465524 861.903105626 1083.26809167 860.950212451 1083.91152811 860.950113277 C 1084.55496454 860.950014102 1085.19840098 860.004371678 1085.84183742 860.004311684 C 1086.48527385 860.00425169 1087.12871029 859.065879608 1087.77214673 859.065848998 C 1088.41558316 859.065818389 1089.0590196 858.134736238 1089.70245604 858.134725219 C 1090.34589247 858.1347142 1090.98932891 857.210941571 1091.63276535 857.210940346 C 1092.27620178 857.210939122 1092.91963822 856.294495605 1093.56307465 856.29449438 C 1094.20651109 856.294493156 1094.84994753 855.38539834 1095.49338396 855.385387321 C 1096.1368204 855.385376302 1096.78025684 854.483649778 1097.42369327 854.483619168 C 1098.06712971 854.483588559 1098.71056615 853.589249917 1099.35400258 853.589189922 C 1099.99743902 853.589129928 1100.64087546 852.702198757 1101.28431189 852.702099583 C 1101.92774833 852.702000408 1102.57118476 851.822496299 1103.2146212 851.82234815 C 1103.85805764 851.822200001 1104.50149407 850.950142543 1105.14493051 850.949935624 C 1105.78836695 850.949728704 1106.43180338 850.085137489 1107.07523982 850.084862004 C 1107.71867626 850.08458652 1108.36211269 849.227481136 1109.00554913 849.227127291 C 1109.64898557 849.226773447 1110.292422 848.377173485 1110.93585844 848.376731485 C 1111.57929487 848.376289486 1112.22273131 847.534214535 1112.86616775 847.533674586 C 1113.50960418 847.533134636 1114.15304062 846.698604287 1114.79647706 846.697956593 C 1115.43991349 846.697308898 1116.08334993 845.870342741 1116.72678637 845.869577506 C 1117.3702228 845.868812272 1118.01365924 845.049429896 1118.65709568 845.048537327 C 1119.30053211 845.047644757 1119.94396855 844.235865753 1120.58740498 844.234836053 C 1121.23084142 844.233806354 1121.87427786 843.429650312 1122.51771429 843.428473687 C 1123.16115073 843.427297062 1123.80458717 842.630783572 1124.4480236 842.629450227 C 1125.09146004 842.628116882 1125.73489648 841.839265534 1126.37833291 841.837765674 C 1127.02176935 841.836265814 1127.66520579 841.055096197 1128.30864222 841.053420027 C 1128.95207866 841.051743857 1129.5955151 840.278275563 1130.23895153 840.276413288 C 1130.88238797 840.274551012 1131.5258244 839.508803629 1132.16926084 839.506745454 C 1132.81269728 839.504687279 1133.45613371 838.746680398 1134.09957015 838.744416528 C 1134.74300659 838.742152657 1135.38644302 837.991905868 1136.02987946 837.989426508 C 1136.6733159 837.986947147 1137.31675233 837.24448004 1137.96018877 837.241775394 C 1138.60362521 837.239070749 1139.24706164 836.504402913 1139.89049808 836.501463187 C 1140.53393451 836.498523462 1141.17737095 835.771674488 1141.82080739 835.768489887 C 1142.46424382 835.765305287 1143.10768026 835.046294765 1143.7511167 835.042855494 C 1144.39455313 835.039416223 1145.03798957 834.328263743 1145.68142601 834.324560007 C 1146.32486244 834.320856271 1146.96829888 833.617581423 1147.61173532 833.613603427 C 1148.25517175 833.609625431 1148.89860819 832.914247804 1149.54204462 832.909985753 C 1150.18548106 832.905723702 1150.8289175 832.218262888 1151.47235393 832.213706986 C 1152.11579037 832.209151085 1152.75922681 831.529626672 1153.40266324 831.524767126 C 1154.04609968 831.51990758 1154.68953612 830.848339159 1155.33297255 830.843166172 C 1155.97640899 830.837993186 1156.61984543 830.174400347 1157.26328186 830.168904125 C 1157.9067183 830.163407904 1158.55015473 829.507810237 1159.19359117 829.501980985 C 1159.83702761 829.496151733 1160.48046404 828.848568828 1161.12390048 828.842396751 C 1161.76733692 828.836224674 1162.41077335 828.196676121 1163.05420979 828.190151424 C 1163.69764623 828.183626727 1164.34108266 827.552132116 1164.9845191 827.545245004 C 1165.62795554 827.538357891 1166.27139197 826.914936812 1166.91482841 826.90767749 C 1167.55826484 826.900418167 1168.20170128 826.28509021 1168.84513772 826.277448882 C 1169.48857415 826.269807555 1170.13201059 825.662592309 1170.77544703 825.654559182 C 1171.41888346 825.646526054 1172.0623199 825.047443111 1172.70575634 825.039008388 C 1173.34919277 825.030573665 1173.99262921 824.439642613 1174.63606565 824.430796501 C 1175.27950208 824.421950388 1175.92293852 823.839190818 1176.56637495 823.82992352 C 1177.20981139 823.820656222 1177.85324783 823.246087724 1178.49668426 823.236389446 C 1179.1401207 823.226691168 1179.78355714 822.660333332 1180.42699357 822.650194278 C 1181.07043001 822.640055225 1181.71386645 822.081927641 1182.35730288 822.071338018 C 1183.00073932 822.060748394 1183.64417576 821.510870652 1184.28761219 821.499820664 C 1184.93104863 821.488770675 1185.57448507 820.947162365 1186.2179215 820.935642216 C 1186.86135794 820.924122067 1187.50479437 820.390802779 1188.14823081 820.378802675 C 1188.79166725 820.366802571 1189.43510368 819.841791895 1190.07854012 819.829302041 C 1190.72197656 819.816812187 1191.36541299 819.300129713 1192.00884943 819.287140313 C 1192.65228587 819.274150914 1193.2957223 818.765816232 1193.93915874 818.752317492 C 1194.58259518 818.738818753 1195.22603161 818.238851453 1195.86946805 818.224833578 C 1196.51290448 818.210815703 1197.15634092 817.719235375 1197.79977736 817.70468857 C 1198.44321379 817.690141765 1199.08665023 817.206967999 1199.73008667 817.191882469 C 1200.3735231 817.176796939 1201.01695954 816.702049325 1201.66039598 816.686415275 C 1202.30383241 816.670781224 1202.94726885 816.204479353 1203.59070529 816.188286987 C 1204.23414172 816.172094621 1204.87757816 815.714258082 1205.52101459 815.697497606 C 1206.16445103 815.68073713 1206.80788747 815.231385512 1207.4513239 815.214047131 C 1208.09476034 815.19670875 1208.73819678 814.755861645 1209.38163321 814.737935563 C 1210.02506965 814.720009482 1210.66850609 814.287686479 1211.31194252 814.269162902 C 1211.95537896 814.250639325 1212.5988154 813.826860014 1213.24225183 813.807729147 C 1213.88568827 813.78859828 1214.5291247 813.373382252 1215.17256114 813.353634299 C 1215.81599758 813.333886347 1216.45943401 812.92725319 1217.10287045 812.906878358 C 1217.74630689 812.886503526 1218.38974332 812.488472831 1219.03317976 812.467461323 C 1219.6766162 812.446449816 1220.32005263 812.057041173 1220.96348907 812.035383195 C 1221.60692551 812.013725217 1222.25036194 811.632958217 1222.89379838 811.610643974 C 1223.53723481 811.588329731 1224.18067125 811.216223962 1224.82410769 811.193243659 C 1225.46754412 811.170263355 1226.11098056 810.806838409 1226.754417 810.783182251 C 1227.39785343 810.759526092 1228.04128987 810.404801558 1228.68472631 810.380459749 C 1229.32816274 810.35611794 1229.97159918 810.010113408 1230.61503562 809.985076154 C 1231.25847205 809.9600389 1231.90190849 809.62277396 1232.54534492 809.597031466 C 1233.18878136 809.571288971 1233.8322178 809.242783214 1234.47565423 809.216325684 C 1235.11909067 809.189868154 1235.76252711 808.870141169 1236.40596354 808.842958809 C 1237.04939998 808.815776449 1237.69283642 808.504847826 1238.33627285 808.476930841 C 1238.97970929 808.449013855 1239.62314573 808.146903185 1240.26658216 808.118241779 C 1240.9100186 808.089580373 1241.55345504 807.796307245 1242.19689147 807.766891624 C 1242.84032791 807.737476003 1243.48376434 807.453060007 1244.12720078 807.422880375 C 1244.77063722 807.392700744 1245.41407365 807.11716147 1246.05751009 807.086208034 C 1246.70094653 807.055254597 1247.34438296 806.788611635 1247.9878194 806.756874598 C 1248.63125584 806.725137562 1249.27469227 806.467410502 1249.91812871 806.43488007 C 1250.56156515 806.402349638 1251.20500158 806.15355807 1251.84843802 806.120224448 C 1252.49187445 806.086890825 1253.13531089 805.84705434 1253.77874733 805.812907733 C 1254.42218376 805.778761125 1255.0656202 805.547899312 1255.70905664 805.512929924 C 1256.35249307 805.477960536 1256.99592951 805.256092985 1257.63936595 805.220291022 C 1258.28280238 805.184489058 1258.92623882 804.97163536 1259.56967526 804.934991026 C 1260.21311169 804.898346693 1260.85654813 804.694526437 1261.49998456 804.657029938 C 1262.143421 804.619533439 1262.78685744 804.424766215 1263.43029387 804.386407756 C 1264.07373031 804.348049296 1264.71716675 804.162354695 1265.36060318 804.12312448 C 1266.00403962 804.083894265 1266.64747606 803.907291876 1267.29091249 803.867180111 C 1267.93434893 803.827068346 1268.57778537 803.659577759 1269.2212218 803.618574649 C 1269.86465824 803.577571538 1270.50809467 803.419212344 1271.15153111 803.377308093 C 1271.79496755 803.335403842 1272.43840398 803.186195631 1273.08184042 803.143380444 C 1273.72527686 803.100565258 1274.36871329 802.960527619 1275.01214973 802.916791702 C 1275.65558617 802.873055785 1276.2990226 802.742208308 1276.94245904 802.697541866 C 1277.58589548 802.652875424 1278.22933191 802.5312377 1278.87276835 802.485630937 C 1279.51620478 802.440024175 1280.15964122 802.327615792 1280.80307766 802.281058915 C 1281.44651409 802.234502037 1282.08995053 802.131342587 1282.73338697 802.083825799 C 1283.3768234 802.036309011 1284.02025984 801.942418083 1284.66369628 801.89393159 C 1285.30713271 801.845445096 1285.95056915 801.760842281 1286.59400559 801.711376287 C 1287.23744202 801.661910293 1287.88087846 801.586615181 1288.52431489 801.536159891 C 1289.16775133 801.485704602 1289.81118777 801.419736782 1290.4546242 801.368282402 C 1291.09806064 801.316828023 1291.74149708 801.260207084 1292.38493351 801.207743819 C 1293.02836995 801.155280555 1293.67180639 801.108026089 1294.31524282 801.054544144 C 1294.95867926 801.001062198 1295.6021157 800.963193795 1296.24555213 800.908683374 C 1296.88898857 800.854172953 1297.53242501 800.825710203 1298.17586144 800.770161511 C 1298.81929788 800.71461282 1299.46273431 800.695575312 1300.10617075 800.638978555 C 1300.74960719 800.582381799 1301.39304362 800.572789123 1302.03648006 800.515134506 C 1302.6799165 800.457479889 1303.32335293 800.457351636 1303.96678937 800.398629363 C 1304.61022581 800.339907091 1305.25366224 800.34926285 1305.89709868 800.289463127 C 1306.54053512 800.229663404 1307.18397155 800.248522766 1307.82740799 800.187635797 C 1308.47084442 800.126748829 1309.11428086 800.155131383 1309.7577173 800.093147374 C 1310.40115373 800.031163366 1311.04459017 800.069088702 1311.68802661 800.005997858 C 1312.33146304 799.942907014 1312.97489948 799.990394723 1313.61833592 799.926187248 C 1314.26177235 799.861979774 1314.90520879 799.919049446 1315.54864523 799.853715545 C 1316.19208166 799.788381645 1316.8355181 799.85505287 1317.47895453 799.788582749 C 1318.12239097 799.722112629 1318.76582741 799.798404995 1319.40926384 799.730788859 C 1320.05270028 799.663172723 1320.69613672 799.749105823 1321.33957315 799.680333876 C 1321.98300959 799.61156193 1322.62644603 799.707155352 1323.26988246 799.6372178 C 1323.9133189 799.567280248 1324.55675534 799.672553582 1325.20019177 799.60144063 C 1325.84362821 799.530327678 1326.48706464 799.645300514 1327.13050108 799.573002367 C 1327.77393752 799.500704219 1328.41737395 799.625396148 1329.06081039 799.55190301 C 1329.70424683 799.478409872 1330.34768326 799.612840484 1330.9911197 799.53814256 C 1331.63455614 799.463444636 1332.27799257 799.607633521 1332.92142901 799.531721017 C 1333.56486545 799.455808513 1334.20830188 799.60977526 1334.85173832 799.53263838 C 1335.49517475 799.455501501 1336.13861119 799.6192657 1336.78204763 799.54089465 C 1337.42548406 799.4625236 1338.0689205 799.636104842 1338.71235694 799.556489827 C 1339.35579337 799.476874811 1339.99922981 799.660292686 1340.64266625 799.57942391 C 1341.28610268 799.498555134 1341.92953912 799.691829232 1342.57297556 799.6096969 C 1343.21641199 799.527564568 1343.85984843 799.730714479 1344.50328486 799.647308796 C 1345.1467213 799.563903114 1345.79015774 799.776948427 1346.43359417 799.692259599 C 1347.07703061 799.607570772 1347.72046705 799.830531077 1348.36390348 799.744549309 C 1349.00733992 799.658567541 1349.65077636 799.891462429 1350.29421279 799.804177926 C 1350.93764923 799.716893422 1351.58108567 799.959742483 1352.2245221 799.871145449 C 1352.86795854 799.782548415 1353.51139497 800.035371238 1354.15483141 799.945451878 C 1354.79826785 799.855532519 1355.44170428 800.118348695 1356.08514072 800.027097215 C 1356.72857716 799.935845734 1357.37201359 800.208674853 1358.01545003 800.116081458 C 1358.65888647 800.023488062 1359.3023229 800.306349714 1359.94575934 800.212404607 C 1360.58919578 800.118459501 1361.23263221 800.411373275 1361.87606865 800.316066663 C 1362.51950509 800.220760052 1363.16294152 800.523745539 1363.80637796 800.427067626 C 1364.44981439 800.330389714 1365.09325083 800.643466504 1365.73668727 800.545407496 C 1366.3801237 800.447348488 1367.02356014 800.77053617 1367.66699658 800.671086272 C 1368.31043301 800.571636373 1368.95386945 800.904954539 1369.59730589 800.804103955 C 1370.24074232 800.703253371 1370.88417876 801.046721609 1371.5276152 800.944460544 C 1372.17105163 800.842199479 1372.81448807 801.19583738 1373.4579245 801.09215604 C 1374.10136094 800.9884747 1374.74479738 801.352301853 1375.38823381 801.247190443 C 1376.03167025 801.142079032 1376.67510669 801.516115028 1377.31854312 801.409563752 C 1377.96197956 801.303012476 1378.605416 801.687276905 1379.24885243 801.579275968 C 1379.89228887 801.471275031 1380.53572531 801.865787483 1381.17916174 801.75632709 C 1381.82259818 801.646866698 1382.46603461 802.051646763 1383.10947105 801.94071712 C 1383.75290749 801.829787477 1384.39634392 802.244854744 1385.03978036 802.132446055 C 1385.6832168 802.020037367 1386.32665323 802.445411427 1386.97008967 802.331513898 C 1387.61352611 802.217616369 1388.25696254 802.653316812 1388.90039898 802.537920647 C 1389.54383542 802.422524482 1390.18727185 802.868570898 1390.83070829 802.751666303 C 1391.47414472 802.634761707 1392.11758116 803.091173686 1392.7610176 802.972750865 C 1393.40445403 802.854328044 1394.04789047 803.321125176 1394.69132691 803.201174334 C 1395.33476334 803.081223493 1395.97819978 803.558425367 1396.62163622 803.43693671 C 1397.26507265 803.315448053 1397.90850909 803.80307426 1398.55194553 803.680037992 C 1399.19538196 803.557001724 1399.8388184 804.055071854 1400.48225483 803.930478181 C 1401.12569127 803.805884508 1401.76912771 804.31441815 1402.41256414 804.188257276 C 1403.05600058 804.062096402 1403.69943702 804.581113148 1404.34287345 804.453375279 C 1404.98630989 804.325637409 1405.62974633 804.855156848 1406.27318276 804.725832187 C 1406.9166192 804.596507527 1407.56005564 805.136549249 1408.20349207 805.005628003 C 1408.84692851 804.874706757 1409.49036494 805.425290351 1410.13380138 805.292762725 C 1410.77723782 805.160235098 1411.42067425 805.721380156 1412.06411069 805.587236354 C 1412.70754713 805.453092551 1413.35098356 806.024818662 1413.99442 805.889048889 C 1414.63785644 805.753279116 1415.28129287 806.335605869 1415.92472931 806.198200331 C 1416.56816575 806.060794792 1417.21160218 806.653741778 1417.85503862 806.514690679 C 1418.49847506 806.37563958 1419.14191149 806.979226389 1419.78534793 806.838519935 C 1420.42878436 806.69781348 1421.0722208 807.312059702 1421.71565724 807.169688097 C 1422.35909367 807.027316491 1423.00253011 807.652241716 1423.64596655 807.508195165 C 1424.28940298 807.364148614 1424.93283942 807.999772432 1425.57627586 807.85404114 C 1426.21971229 807.708309849 1426.86314873 808.354651849 1427.50658517 808.207226022 C 1428.1500216 808.059800195 1428.79345804 808.716879968 1429.43689447 808.56774981 C 1430.08033091 808.418619652 1430.72376735 809.086456789 1431.36720378 808.935612505 C 1432.01064022 808.784768222 1432.65407666 809.463382311 1433.29751309 809.310814107 C 1433.94094953 809.158245903 1434.58438597 809.847656535 1435.2278224 809.693354615 C 1435.87125884 809.539052695 1436.51469528 810.239279461 1437.15813171 810.08323403 C 1437.80156815 809.9271886 1438.44500458 810.638251088 1439.08844102 810.480452352 C 1439.73187746 810.322653616 1440.37531389 811.044571417 1441.01875033 810.88500958 C 1441.66218677 810.725447743 1442.3056232 811.458240448 1442.94905964 811.296905715 C 1443.59249608 811.135570982 1444.23593251 811.87925818 1444.87936895 811.716140757 C 1445.52280539 811.553023333 1446.16624182 812.307624614 1446.80967826 812.142714705 C 1447.45311469 811.977804796 1448.09655113 812.743339749 1448.73998757 812.576627559 C 1449.383424 812.40991537 1450.02686044 813.186403586 1450.67029688 813.017879321 C 1451.31373331 812.849355055 1451.95716975 813.636816125 1452.60060619 813.466469989 C 1453.24404262 813.296123853 1453.88747906 814.094577366 1454.5309155 813.922399564 C 1455.17435193 813.750221761 1455.81778837 814.559687308 1456.4612248 814.385668045 C 1457.10466124 814.211648782 1457.74809768 815.032145951 1458.39153411 814.856275433 C 1459.03497055 814.680404914 1459.67840699 815.511953297 1460.32184342 815.334221727 C 1460.96527986 815.156490158 1461.6087163 815.999109343 1462.25215273 815.819506929 C 1462.89558917 815.639904514 1463.53902561 816.493614092 1464.18246204 816.312131036 C 1464.82589848 816.130647981 1465.46933491 816.995467542 1466.11277135 816.812094051 C 1466.75620779 816.628720559 1467.39964422 817.504669694 1468.04308066 817.319395972 C 1468.6865171 817.13412225 1469.32995353 818.021220548 1469.97338997 817.8340368 C 1470.61682641 817.646853052 1471.26026284 818.545120103 1471.90369928 818.356016534 C 1472.54713572 818.166912965 1473.19057215 819.076368359 1473.83400859 818.885335175 C 1474.47744503 818.694301991 1475.12088146 819.614965318 1475.7643179 819.421992723 C 1476.40775433 819.229020127 1477.05119077 820.160910978 1477.69462721 819.965989177 C 1478.33806364 819.771067376 1478.98150008 820.71420534 1479.62493652 820.517324538 C 1480.26837295 820.320443736 1480.91180939 821.274848403 1481.55524583 821.075998805 C 1482.19868226 820.877149208 1482.8421187 821.842840168 1483.48555514 821.64201198 C 1484.12899157 821.441183791 1484.77242801 822.418180634 1485.41586444 822.21536406 C 1486.05930088 822.012547486 1486.70273732 823.000869803 1487.34617375 822.796055048 C 1487.98961019 822.591240293 1488.63304663 823.590907673 1489.27648306 823.384084942 C 1489.9199195 823.177262211 1490.56335594 824.188294244 1491.20679237 823.979453743 C 1491.85022881 823.770613241 1492.49366525 824.793029517 1493.13710168 824.58216145 C 1493.78053812 824.371293383 1494.42397455 825.405113492 1495.06741099 825.192208064 C 1495.71084743 824.979302636 1496.35428386 826.024546168 1496.9977203 825.809593585 C 1497.64115674 825.594641001 1498.28459317 826.651327546 1498.92802961 826.434318012 C 1499.57146605 826.217308477 1500.21490248 827.285457626 1500.85833892 827.066381346 C 1501.50177536 826.847305065 1502.14521179 827.926936407 1502.78864823 827.705783586 C 1503.43208466 827.484630765 1504.0755211 828.57576389 1504.71895754 828.352524733 C 1505.36239397 828.129285576 1506.00583041 829.231940075 1506.64926685 829.006604787 C 1507.29270328 828.781269499 1507.93613972 829.895464961 1508.57957616 829.668023748 C 1509.22301259 829.440582534 1509.86644903 830.566338549 1510.50988547 830.336781615 C 1511.1533219 830.10722468 1511.79675834 831.244560839 1512.44019477 831.012878388 C 1513.08363121 830.781195938 1513.72706765 831.93013183 1514.37050408 831.696314069 C 1515.01394052 831.462496307 1515.65737696 832.623051523 1516.30081339 832.387088656 C 1516.94424983 832.151125788 1517.58768627 833.323319917 1518.2311227 833.085202149 C 1518.87455914 832.847084381 1519.51799558 834.030937013 1520.16143201 833.790654549 C 1520.80486845 833.550372086 1521.44830488 834.745902811 1522.09174132 834.503445856 C 1522.73517776 834.260988902 1523.37861419 835.46821731 1524.02205063 835.22357607 C 1524.66548707 834.978934829 1525.3089235 836.197880511 1525.95235994 835.95104519 C 1526.59579638 835.704209869 1527.23923281 836.934892414 1527.88266925 836.685853217 C 1528.52610569 836.436814019 1529.16954212 837.679253018 1529.81297856 837.42800015 C 1530.45641499 837.176747282 1531.09985143 838.430962324 1531.74328787 838.17748599 C 1532.3867243 837.924009656 1533.03016074 839.190020332 1533.67359718 838.934310737 C 1534.31703361 838.678601142 1534.96047005 839.956427041 1535.60390649 839.69847439 C 1536.24734292 839.440521739 1536.89077936 840.730182452 1537.5342158 840.46997695 C 1538.17765223 840.209771448 1538.82108867 841.511286564 1539.46452511 841.248818417 C 1540.10796154 840.986350269 1540.75139798 842.299739378 1541.39483441 842.03499879 C 1542.03827085 841.770258201 1542.68170729 843.095540894 1543.32514372 842.82851807 C 1543.96858016 842.561495245 1544.6120166 843.898691111 1545.25545303 843.629376256 C 1545.89888947 843.360061401 1546.54232591 844.70919003 1547.18576234 844.437573349 C 1547.82919878 844.165956668 1548.47263522 845.527037651 1549.11607165 845.253109349 C 1549.75950809 844.979181047 1550.40294452 846.352233973 1551.04638096 846.075984255 C 1551.6898174 845.799734537 1552.33325383 847.184778997 1552.97669027 846.906198068 C 1553.62012671 846.627617139 1554.26356314 848.024672723 1554.90699958 847.743750788 C 1555.55043602 847.462828853 1556.19387245 848.87191515 1556.83730889 848.588642414 C 1557.48074533 848.305369679 1558.12418176 849.726506279 1558.7676182 849.440872947 C 1559.41105463 849.155239616 1560.05449107 850.588446109 1560.69792751 850.300442387 C 1561.34136394 850.012438664 1561.98480038 851.457734641 1562.62823682 851.167350733 C 1563.27167325 850.876966824 1563.91510969 852.334371875 1564.55854613 852.041597986 C 1565.20198256 851.748824096 1565.845419 853.218357811 1566.48885544 852.923184145 C 1567.13229187 852.62801048 1567.77572831 854.109692448 1568.41916474 853.812109211 C 1569.06260118 853.514525975 1569.70603762 855.008375786 1570.34947405 854.708373184 C 1570.99291049 854.408370582 1571.63634693 855.914407827 1572.27978336 855.611976063 C 1572.9232198 855.3095443 1573.56665624 856.827788569 1574.21009267 856.522917849 C 1574.85352911 856.21804713 1575.49696555 857.748518012 1576.14040198 857.441198542 C 1576.78383842 857.133879072 1577.42727485 858.676596157 1578.07071129 858.366818141 C 1578.71414773 858.057040125 1579.35758416 859.612023004 1580.0010206 859.299776647 C 1580.64445704 858.98753029 1581.28789347 860.554798553 1581.93132991 860.24007406 C 1582.57476635 859.925349567 1583.21820278 861.504922803 1583.86163922 861.187710379 C 1584.50507566 860.870497955 1585.14851209 862.462395755 1585.79194853 862.142685605 C 1586.43538496 861.822975455 1587.0788214 863.427217408 1587.72225784 863.104999737 C 1588.36569427 862.782782066 1589.00913071 864.399387763 1589.65256715 864.074652776 C 1590.29600358 863.749917789 1590.93944002 865.37890682 1591.58287646 865.051644722 C 1592.22631289 864.724382624 1592.86974933 866.365774578 1593.51318577 866.035975574 C 1594.1566222 865.70617657 1594.80005864 867.359991038 1595.44349508 867.027645333 C 1596.08693151 866.695299628 1596.73036795 868.3615562 1597.37380438 868.026653999 C 1598.01724082 867.691751798 1598.66067726 869.370470063 1599.30411369 869.033001571 C 1599.94755013 868.695533079 1600.59098657 870.386732628 1601.234423 870.04668805 C 1601.87785944 869.706643472 1602.52129588 871.410343894 1603.16473231 871.067713435 C 1603.80816875 870.725082976 1604.45160519 872.441303863 1605.09504162 872.096077727 C 1605.73847806 871.750851592 1606.38191449 873.479612532 1607.02535093 873.131780926 C 1607.66878737 872.78394932 1608.3122238 874.525269904 1608.95566024 874.174823032 C 1609.59909668 873.82437616 1610.24253311 875.578275977 1610.88596955 875.225204044 C 1611.52940599 874.872132111 1612.17284242 876.638630752 1612.81627886 876.282923962 C 1613.4597153 875.927217173 1614.10315173 877.706334228 1614.74658817 877.347982788 C 1615.3900246 876.989631347 1616.03346104 878.781386406 1616.67689748 878.42038052 C 1617.32033391 878.059374633 1617.96377035 879.863787286 1618.60720679 879.500117158 C 1619.25064322 879.136447031 1619.89407966 880.953536867 1620.5375161 880.587192703 C 1621.18095253 880.22084854 1621.82438897 882.05063515 1622.46782541 881.681607155 C 1623.11126184 881.312579161 1623.75469828 883.155082134 1624.39813471 882.783360514 C 1625.04157115 882.411638893 1625.68500759 884.26687782 1626.32844402 883.892452779 C 1626.97188046 883.518027737 1627.6153169 885.386022208 1628.25875333 885.008883951 C 1628.90218977 884.631745693 1629.54562621 886.512515298 1630.18906264 886.132654029 C 1630.83249908 885.75279276 1631.47593552 887.646357089 1632.11937195 887.263763014 C 1632.76280839 886.881168939 1633.40624482 888.787547582 1634.04968126 888.402210906 C 1634.6931177 888.01687423 1635.33655413 889.936086776 1635.97999057 889.547997704 C 1636.62342701 889.159908632 1637.26686344 891.091974672 1637.91029988 890.701123409 C 1638.55373632 890.310272146 1639.19717275 892.25521127 1639.84060919 891.86158802 C 1640.48404563 891.467964771 1641.12748206 893.425796569 1641.7709185 893.029391539 C 1642.41435493 892.632986508 1643.05779137 894.60373057 1643.70122781 894.204533963 C 1644.34466424 893.805337357 1644.98810068 895.789013272 1645.63153712 895.387015295 C 1646.27497355 894.985017318 1646.91840999 896.981644677 1647.56184643 896.576835533 C 1648.20528286 896.17202639 1648.8487193 898.181624782 1649.49215574 897.773994678 C 1650.13559217 897.366364573 1650.77902861 899.38895359 1651.42246505 898.978492729 C 1652.06590148 898.568031868 1652.70933792 900.603631099 1653.35277435 900.190329687 C 1653.99621079 899.777028275 1654.63964723 901.82565731 1655.28308366 901.409505552 C 1655.9265201 900.993353794 1656.56995654 903.055032222 1657.21339297 902.636020323 C 1657.85682941 902.217008424 1658.50026585 904.291755836 1659.14370228 903.869874001 C 1659.78713872 903.447992166 1660.43057516 905.535828152 1661.07401159 905.111066585 C 1661.71744803 904.686305019 1662.36088446 906.787249169 1663.0043209 906.359598077 C 1663.64775734 905.931946984 1664.29119377 908.046018888 1664.93463021 907.615468474 C 1665.57806665 907.184918061 1666.22150308 909.312137309 1666.86493952 908.878677779 C 1667.50837596 908.445218249 1668.15181239 910.585604431 1668.79524883 910.14922599 C 1669.43868527 909.712847549 1670.0821217 911.866420255 1670.72555814 911.427113108 C 1671.36899457 910.987805961 1672.01243101 913.15458478 1672.65586745 912.712339132 C 1673.29930388 912.270093484 1673.94274032 914.450098007 1674.58617676 914.004904063 C 1675.22961319 913.559710119 1675.87304963 915.752959936 1676.51648607 915.304807901 C 1677.1599225 914.856655865 1677.80335894 917.063170567 1678.44679538 916.612050645 C 1679.09023181 916.160930723 1679.73366825 918.380729899 1680.37710468 917.926632296 C 1681.02054112 917.472534693 1681.66397756 919.705637932 1682.30741399 919.248552853 C 1682.95085043 918.791467774 1683.59428687 921.037894668 1684.2377233 920.577812317 C 1684.88115974 920.117729967 1685.52459618 922.377500105 1686.16803261 921.914410688 C 1686.81146905 921.451321272 1687.45490549 923.724454243 1688.09834192 923.258347966 C 1688.74177836 922.792241688 1689.38521479 925.078757083 1690.02865123 924.60962415 C 1690.67208767 924.140491216 1691.3155241 926.440408625 1691.95896054 925.96823924 C 1692.60239698 925.496069855 1693.24583341 927.809408869 1693.88926985 927.334193238 C 1694.53270629 926.858977606 1695.17614272 929.185757814 1695.81957916 928.707486142 C 1696.4630156 928.229214469 1697.10645203 930.569455461 1697.74988847 930.088117952 C 1698.3933249 929.606780444 1699.03676134 931.960501809 1699.68019778 931.476088669 C 1700.32363421 930.99167553 1700.96707065 933.358896859 1701.61050709 932.871398293 C 1702.25394352 932.383899727 1702.89737996 934.764640611 1703.5408164 934.274046824 C 1704.18425283 933.783453037 1704.82768927 936.177733064 1705.47112571 935.684034261 C 1706.11456214 935.190335457 1706.75799858 937.598174219 1707.40143502 937.101360605 C 1708.04487145 936.60454699 1708.68830789 939.025964076 1709.33174432 938.526025855 C 1709.97518076 938.026087634 1710.6186172 940.461102634 1711.26205363 939.958030012 C 1711.90549007 939.45495739 1712.54892651 941.903589894 1713.19236294 941.397373076 C 1713.83579938 940.891156257 1714.47923582 943.353425856 1715.12267225 942.844055046 C 1715.76610869 942.334684236 1716.40954513 944.810610519 1717.05298156 944.298075923 C 1717.696418 943.785541327 1718.33985443 946.275143884 1718.98329087 945.759435707 C 1719.62672731 945.243727529 1720.27016374 947.74702595 1720.91360018 947.228134397 C 1721.55703662 946.709242843 1722.20047305 949.226256718 1722.84390949 948.704171994 C 1723.48734593 948.182087269 1724.13078236 950.712836188 1724.7742188 950.187548497 C 1725.41765524 949.662260806 1726.06109167 952.206764359 1726.70452811 951.678263907 C 1727.34796454 951.149763455 1727.99140098 953.708041232 1728.63483742 953.176318224 C 1729.27827385 952.644595216 1729.92171029 955.216666807 1730.56514673 954.681711447 C 1731.20858316 954.146756088 1731.8520196 956.732641083 1732.49545604 956.194443577 C 1733.13889247 955.656246071 1733.78232891 958.255964061 1734.42576535 957.714514614 C 1735.06920178 957.173065167 1735.71263822 959.786635741 1736.35607465 959.241924557 C 1736.99951109 958.697213374 1737.64294753 961.324656122 1738.28638396 960.776673407 C 1738.9298204 960.228690692 1739.57325684 962.870025205 1740.21669327 962.318761164 C 1740.86012971 961.767497123 1741.50356615 964.422742989 1742.14700258 963.868187827 C 1742.79043902 963.313632664 1743.43387546 965.982809475 1744.07731189 965.424953397 C 1744.72074833 964.867097318 1745.36418476 967.550224663 1746.0076212 966.989057873 C 1746.65105764 966.427891083 1747.29449407 969.124988552 1747.93793051 968.560501256 C 1748.58136695 967.99601396 1749.22480338 970.707101143 1749.86823982 970.139283546 C 1750.51167626 969.571465948 1751.15511269 972.296562436 1751.79854913 971.725404742 C 1752.44198557 971.154247048 1753.085422 973.89337243 1753.72885844 973.318864845 C 1754.37229487 972.74435726 1755.01573131 975.497531126 1755.65916775 974.919663855 C 1756.30260418 974.341796583 1756.94604062 977.109038524 1757.58947706 976.527801771 C 1758.23291349 975.946565018 1758.87634993 978.727894623 1759.51978637 978.143278594 C 1760.1632228 977.558662565 1760.80665924 980.354099424 1761.45009568 979.766094324 C 1762.09353211 979.178089223 1762.73696855 981.987652926 1763.38040498 981.39624896 C 1764.02384142 980.804844993 1764.66727786 983.628555131 1765.31071429 983.033742502 C 1765.95415073 982.438929874 1766.59758717 985.276806036 1767.2410236 984.678574952 C 1767.88446004 984.080343867 1768.52789648 986.932405644 1769.17133291 986.330746308 C 1769.81476935 985.729086972 1770.45820579 988.595353953 1771.10164222 987.990256571 C 1771.74507866 987.385159188 1772.3885151 990.265650964 1773.03195153 989.65710574 C 1773.67538797 989.048560516 1774.3188244 991.943296676 1774.96226084 991.331293816 C 1775.60569728 990.719290956 1776.24913371 993.62829109 1776.89257015 993.012820799 C 1777.53600659 992.397350507 1778.17944302 995.320634205 1778.82287946 994.701686688 C 1779.4663159 994.08273917 1780.10975233 997.020326023 1780.75318877 996.397891484 C 1781.39662521 995.775456945 1782.04006164 998.727366542 1782.68349808 998.101435186 C 1783.32693451 997.475503831 1783.97037095 1000.44175576 1784.61380739 999.812317795 C 1785.25724382 999.182879829 1785.90068026 1002.16349368 1786.5441167 1001.53053931 C 1787.18755313 1000.89758494 1787.83098957 1003.89258031 1788.47442601 1003.25609973 C 1789.11786244 1002.61961916 1789.76129888 1005.62901563 1790.40473532 1004.98899906 C 1791.04817175 1004.34898249 1791.69160819 1007.37279966 1792.33504462 1006.7292373 C 1792.97848106 1006.08567494 1793.6219175 1009.12393239 1794.26535393 1008.47681444 C 1794.90879037 1007.82969649 1795.55222681 1010.88241382 1796.19566324 1010.23173049 C 1796.83909968 1009.58104716 1797.48253612 1012.64824395 1798.12597255 1011.99398544 C 1798.76940899 1011.33972694 1799.41284543 1014.42142279 1800.05628186 1013.76357931 C 1800.6997183 1013.10573583 1801.34315473 1016.20195032 1801.98659117 1015.54051208 C 1802.63002761 1014.87907383 1803.27346404 1017.98982656 1803.91690048 1017.32478375 C 1804.56033692 1016.65974095 1805.20377335 1019.7850515 1805.84720979 1019.11639433 C 1806.49064623 1018.44773717 1807.13408266 1021.58762514 1807.7775191 1020.91534382 C 1808.42095554 1020.24306251 1809.06439197 1023.39754748 1809.70782841 1022.72163222 C 1810.35126484 1022.04571696 1810.99470128 1025.21481852 1811.63813772 1024.53525952 C 1812.28157415 1023.85570052 1812.92501059 1027.03943827 1813.56844703 1026.35622573 C 1814.21188346 1025.67301319 1814.8553199 1028.87140671 1815.49875634 1028.18453084 C 1816.14219277 1027.49765497 1816.78562921 1030.71072386 1817.42906565 1030.02017487 C 1818.07250208 1029.32962587 1818.71593852 1032.55738971 1819.35937495 1031.86315779 C 1820.00281139 1031.16892588 1820.64624783 1034.41140426 1821.28968426 1033.71347963 C 1821.9331207 1033.015555 1822.57655714 1036.27276752 1823.21999357 1035.57114037 C 1823.86343001 1034.86951323 1824.50686645 1038.14147947 1825.15030288 1037.43614002 C 1825.79373932 1036.73080057 1826.43717576 1040.01754013 1827.08061219 1039.30847857 C 1827.72404863 1038.59941702 1828.36748507 1041.90094949 1829.0109215 1041.18815604 C 1829.65435794 1040.47536259 1830.29779437 1043.79170755 1830.94123081 1043.0751724 C 1831.58466725 1042.35863726 1832.22810368 1045.68981431 1832.87154012 1044.96952768 C 1833.51497656 1044.24924105 1834.15841299 1047.59526977 1834.80184943 1046.87122186 C 1835.44528587 1046.14717395 1836.0887223 1049.50807394 1836.73215874 1048.78025495 C 1837.37559518 1048.05243596 1838.01903161 1051.4282268 1838.66246805 1050.69662694 C 1839.30590448 1049.96502709 1839.94934092 1053.35572837 1840.59277736 1052.62033785 C 1841.23621379 1051.88494732 1841.87965023 1055.29057864 1842.52308667 1054.55138765 C 1843.1665231 1053.81219667 1843.80995954 1057.23277761 1844.45339598 1056.48977637 C 1845.09683241 1055.74677513 1845.74026885 1059.18232528 1846.38370529 1058.43550399 C 1847.02714172 1057.6886827 1847.67057816 1061.13922166 1848.31401459 1060.38857052 C 1848.95745103 1059.63791938 1849.60088747 1063.10346673 1850.2443239 1062.34897595 C 1850.88776034 1061.59448517 1851.53119678 1065.07506051 1852.17463321 1064.31672029 C 1852.81806965 1063.55838008 1853.46150609 1067.05400299 1854.10494252 1066.29180354 C 1854.74837896 1065.52960409 1855.3918154 1069.04029417 1856.03525183 1068.2742257 C 1856.67868827 1067.50815722 1857.3221247 1071.03393406 1857.96556114 1070.26398676 C 1858.60899758 1069.49403946 1859.25243401 1073.03492264 1859.89587045 1072.26108673 C 1860.53930689 1071.48725081 1861.18274332 1075.04325993 1861.82617976 1074.2655256 C 1862.4696162 1073.48779128 1863.11305263 1077.05894591 1863.75648907 1076.27730338 C 1864.39992551 1075.49566085 1865.04336194 1079.0819806 1865.68679838 1078.29642007 C 1866.33023481 1077.51085954 1866.97367125 1081.11236399 1867.61710769 1080.32287566 C 1868.26054412 1079.53338733 1868.90398056 1083.15009609 1869.547417 1082.35667017 C 1870.19085343 1081.56324424 1870.83428987 1085.19517688 1871.47772631 1084.39780357 C 1872.12116274 1083.60043027 1872.76459918 1087.24760638 1873.40803562 1086.44627589 C 1874.05147205 1085.6449454 1874.69490849 1089.30738457 1875.33834492 1088.50208711 C 1875.98178136 1087.69678964 1876.6252178 1091.37451147 1877.26865423 1090.56523724 C 1877.91209067 1089.755963 1878.55552711 1093.44898707 1879.19896354 1092.63572627 C 1879.84239998 1091.82246547 1880.48583642 1095.53081138 1881.12927285 1094.71355421 C 1881.77270929 1093.89629705 1882.41614573 1097.61998438 1883.05958216 1096.79872106 C 1883.7030186 1095.97745774 1884.34645504 1099.71650609 1884.98989147 1098.89122681 C 1885.63332791 1098.06594754 1886.27676434 1101.82037649 1886.92020078 1100.99107147 C 1887.56363722 1100.16176645 1888.20707365 1103.9315956 1888.85051009 1103.09825504 C 1889.49394653 1102.26491448 1890.13738296 1106.05016341 1890.7808194 1105.21277751 C 1891.42425584 1104.37539162 1892.06769227 1108.17607993 1892.71112871 1107.3346389 C 1893.35456515 1106.49319787 1893.99800158 1110.30934514 1894.64143802 1109.46383918 C 1895.28487445 1108.61833323 1895.92831089 1112.44995905 1896.57174733 1111.60037838 C 1897.21518376 1110.7507977 1897.8586202 1114.59792167 1898.50205664 1113.74425648 C 1899.14549307 1112.89059128 1899.78892951 1116.75323299 1900.43236595 1115.89547348 C 1901.07580238 1115.03771398 1901.71923882 1118.91589301 1902.36267526 1118.0540294 C 1903.00611169 1117.19216579 1903.64954813 1121.08590173 1904.29298456 1120.21992422 C 1904.936421 1119.3539467 1905.57985744 1123.26325916 1906.22329387 1122.39315795 C 1906.86673031 1121.52305673 1907.51016675 1125.44796528 1908.15360318 1124.57373058 C 1908.79703962 1123.69949588 1909.44047606 1127.64002011 1910.08391249 1126.76164212 C 1910.72734893 1125.88326413 1911.37078537 1129.83942364 1912.0142218 1128.95689257 C 1912.65765824 1128.0743615 1913.30109467 1132.04617587 1913.94453111 1131.15948192 C 1914.58796755 1130.27278797 1915.23140398 1134.2602768 1915.87484042 1133.36941018 C 1916.51827686 1132.47854356 1917.16171329 1136.48172643 1917.80514973 1135.58667735 C 1918.44858617 1134.69162826 1919.0920226 1138.71052477 1919.73545904 1137.81128342 C 1920.37889548 1136.91204207 1921.02233191 1140.94667181 1921.66576835 1140.0432284 C 1922.30920478 1139.139785 1922.95264122 1143.19016754 1923.59607766 1142.28251229 C 1924.23951409 1141.37485703 1924.88295053 1145.44101198 1925.52638697 1144.52913508 C 1926.1698234 1143.61725818 1926.81325984 1147.69920513 1927.45669628 1146.78309678 C 1928.10013271 1145.86698844 1928.74356915 1149.96474697 1929.38700559 1149.04439739 C 1930.03044202 1148.12404781 1930.67387846 1152.23763751 1931.31731489 1151.3130369 C 1931.96075133 1150.38843629 1932.60418777 1154.51787676 1933.2476242 1153.58901532 C 1933.89106064 1152.66015388 1934.53449708 1156.80546471 1935.17793351 1155.87233265 C 1935.82136995 1154.93920059 1936.46480639 1159.10040136 1937.10824282 1158.16298888 C 1937.75167926 1157.2255764 1938.3951157 1161.40268671 1939.03855213 1160.46098402 C 1939.68198857 1159.51928133 1940.32542501 1163.71232076 1940.96886144 1162.76631807 C 1941.61229788 1161.82031537 1942.25573431 1166.02930352 1942.89917075 1165.07899102 C 1943.54260719 1164.12867852 1944.18604362 1168.35363498 1944.82948006 1167.39900288 C 1945.4729165 1166.44437079 1946.11635293 1170.68531513 1946.75978937 1169.72635365 C 1947.40322581 1168.76739216 1948.04666224 1173.02434399 1948.69009868 1172.06104332 C 1949.33353512 1171.09774265 1949.97697155 1175.37072155 1950.62040799 1174.4030719 C 1951.26384442 1173.43542225 1951.90728086 1177.72444782 1952.5507173 1176.75243939 C 1953.19415373 1175.78043096 1953.83759017 1180.08552278 1954.48102661 1179.10914578 C 1955.12446304 1178.13276878 1955.76789948 1182.45394645 1956.41133592 1181.47319108 C 1957.05477235 1180.49243571 1957.69820879 1184.82971882 1958.34164523 1183.84457529 C 1958.98508166 1182.85943175 1959.6285181 1187.21283989 1960.27195453 1186.2232984 C 1960.91539097 1185.23375691 1961.55882741 1189.60330966 1962.20226384 1188.60936042 C 1962.84570028 1187.61541118 1963.48913672 1192.00112813 1964.13257315 1191.00276134 C 1964.77600959 1190.00439456 1965.41944603 1194.4062953 1966.06288246 1193.40350118 C 1966.7063189 1192.40070705 1967.34975534 1196.81881118 1967.99319177 1195.81157992 C 1968.63662821 1194.80434865 1969.28006464 1199.23867576 1969.92350108 1198.22699756 C 1970.56693752 1197.21531936 1971.21037395 1201.66588904 1971.85381039 1200.64975411 C 1972.49724683 1199.63361919 1973.14068326 1204.10045102 1973.7841197 1203.07984957 C 1974.42755614 1202.05924813 1975.07099257 1206.5423617 1975.71442901 1205.51728394 C 1976.35786545 1204.49220618 1977.00130188 1208.99162109 1977.64473832 1207.96205721 C 1978.28817475 1206.93249334 1978.93161119 1211.44822917 1979.57504763 1210.41416939 C 1980.21848406 1209.38010961 1980.8619205 1213.91218596 1981.50535694 1212.87362048 C 1982.14879337 1211.83505499 1982.79222981 1216.38349145 1983.43566625 1215.34041047 C 1984.07910268 1214.29732949 1984.72253912 1218.86214564 1985.36597556 1217.81453937 C 1986.00941199 1216.7669331 1986.65284843 1221.34814853 1987.29628486 1220.29600717 C 1987.9397213 1219.24386582 1988.58315774 1223.84150013 1989.22659417 1222.78481389 C 1989.87003061 1221.72812765 1990.51346705 1226.34220042 1991.15690348 1225.28095951 C 1991.80033992 1224.21971859 1992.44377636 1228.85024942 1993.08721279 1227.78444403 C 1993.73064923 1226.71863864 1994.37408567 1231.36564712 1995.0175221 1230.29526746 C 1995.66095854 1229.22488781 1996.30439497 1233.88839352 1996.94783141 1232.8134298 C 1997.59126785 1231.73846609 1998.23470428 1236.41848862 1998.87814072 1235.33893105 C 1999.52157716 1234.25937347 2000.16501359 1238.95593243 2000.80845003 1237.8717712 C 2001.45188647 1236.78760998 2002.0953229 1241.50072493 2002.73875934 1240.41195026 C 2003.38219578 1239.32317559 2004.02563221 1244.05286614 2004.66906865 1242.95946822 C 2005.31250509 1241.86607031 2005.95594152 1246.61235605 2006.59937796 1245.5143251 C 2007.24281439 1244.41629415 2007.88625083 1249.17919466 2008.52968727 1248.07652088 C 2009.1731237 1246.97384709 2009.81656014 1251.75338197 2010.45999658 1250.64605556 C 2011.10343301 1249.53872915 2011.74686945 1254.33491798 2012.39030589 1253.22292915 C 2013.03374232 1252.11094032 2013.67717876 1256.9238027 2014.3206152 1255.80714165 C 2014.96405163 1254.6904806 2015.60748807 1259.52003612 2016.2509245 1258.39869306 C 2016.89436094 1257.27735 2017.53779738 1262.12361824 2018.18123381 1260.99758337 C 2018.82467025 1259.8715485 2019.46810669 1264.73454906 2020.11154312 1263.60381259 C 2020.75497956 1262.47307612 2021.398416 1267.35282858 2022.04185243 1266.21738071 C 2022.68528887 1265.08193285 2023.32872531 1269.9784568 2023.97216174 1268.83828774 C 2024.61559818 1267.69811869 2025.25903461 1272.61143373 2025.90247105 1271.46653368 C 2026.54590749 1270.32163364 2027.18934392 1275.25175935 2027.83278036 1274.10211853 C 2028.4762168 1272.9524777 2029.11965323 1277.89943368 2029.76308967 1276.74504228 C 2030.40652611 1275.59065088 2031.04996254 1280.55445671 2031.69339898 1279.39530494 C 2032.33683542 1278.23615316 2032.98027185 1283.21682844 2033.62370829 1282.0529065 C 2034.26714472 1280.88898456 2034.91058116 1285.88654888 2035.5540176 1284.71784697 C 2036.19745403 1283.54914507 2036.84089047 1288.56361801 2037.48432691 1287.39012635 C 2038.12776334 1286.21663469 2038.77119978 1291.24803585 2039.41463622 1290.06974464 C 2040.05807265 1288.89145343 2040.70150909 1293.93980239 2041.34494553 1292.75670183 C 2041.98838196 1291.57360127 2042.6318184 1296.63891763 2043.27525483 1295.45099793 C 2043.91869127 1294.26307823 2044.56212771 1299.34538157 2045.20556414 1298.15263293 C 2045.84900058 1296.95988429 2046.49243702 1302.05919421 2047.13587345 1300.86160684 C 2047.77930989 1299.66401947 2048.42274633 1304.78035556 2049.06618276 1303.57791966 C 2049.7096192 1302.37548376 2050.35305564 1307.50886561 2050.99649207 1306.30157139 C 2051.63992851 1305.09427717 2052.28336494 1310.24472435 2052.92680138 1309.03256202 C 2053.57023782 1307.82039968 2054.21367425 1312.9879318 2054.85711069 1311.77089156 C 2055.50054713 1310.55385131 2056.14398356 1315.73848795 2056.78742 1314.51656"
     title="x*(1-x)"
     clip-path="url(#clipPath)"
     id="path4221" />
  <path
     inkscape:connector-curvature="0"
     id="path4230"
     d="m 1092.598,1310.011 0,-1173.69803"
     style="fill:none;fill-rule:evenodd;stroke:#000000;stroke-width:3;stroke-linecap:butt;stroke-linejoin:miter;stroke-opacity:1;stroke-miterlimit:4;stroke-dasharray:none;marker-end:url(#marker4508)" />
  <path
     inkscape:connector-curvature="0"
     id="path4232"
     d="m 130.6612,854.44401 1917.1152,0"
     style="fill:none;fill-rule:evenodd;stroke:#000000;stroke-width:3;stroke-linecap:butt;stroke-linejoin:miter;stroke-miterlimit:4;stroke-dasharray:none;stroke-opacity:1;marker-end:url(#Arrow1Lend)" />
  <rect
     y="224.17137"
     x="177.96956"
     height="1090.3452"
     width="916.88116"
     id="rect4547"
     style="opacity:1;fill:url(#linearGradient4563);fill-opacity:1;stroke:#000000;stroke-width:3;stroke-miterlimit:4;stroke-dasharray:none;stroke-dashoffset:0;stroke-opacity:1;filter:url(#filter4577)" />
  <path
     inkscape:connector-curvature="0"
     id="path4581"
     d="m 1168.4329,853.82415 176.0216,0"
     style="fill:none;fill-rule:evenodd;stroke:#000000;stroke-width:3;stroke-linecap:butt;stroke-linejoin:miter;stroke-opacity:1;stroke-miterlimit:4;stroke-dasharray:none;marker-end:url(#marker4589)" />
  <path
     inkscape:connector-curvature="0"
     id="path4611"
     d="m 1924.2903,855.01006 -241.3328,0"
     style="fill:none;fill-rule:evenodd;stroke:#000000;stroke-width:3;stroke-linecap:butt;stroke-linejoin:miter;stroke-miterlimit:4;stroke-dasharray:none;stroke-opacity:1;marker-end:url(#marker4619)" />
  <g
     id="g4687"
     transform="translate(939.40896,180.22234)">
    <g
       word-spacing="normal"
       letter-spacing="normal"
       font-size-adjust="none"
       font-stretch="normal"
       font-weight="normal"
       font-variant="normal"
       font-style="normal"
       stroke-miterlimit="10.433"
       xml:space="preserve"
       transform="matrix(2.1482143,0,0,-2.1482143,-375.9375,1651.875)"
       id="content"
       style="font-style:normal;font-variant:normal;font-weight:normal;font-stretch:normal;letter-spacing:normal;word-spacing:normal;text-anchor:start;fill:none;fill-opacity:1;fill-rule:evenodd;stroke:#000000;stroke-linecap:butt;stroke-linejoin:miter;stroke-miterlimit:10.43299961;stroke-dasharray:none;stroke-dashoffset:0;stroke-opacity:1"><path
         id="path4690"
         d="m 470.16,438.09 0,0.05 0,0.06 0,0.05 0,0.05 0,0.05 0,0.05 0,0.04 0,0.05 0,0.04 0,0.04 -0.01,0.04 0,0.04 0,0.04 0,0.03 0,0.04 -0.01,0.03 -0.01,0.07 0,0.06 -0.02,0.05 -0.01,0.05 -0.02,0.05 -0.02,0.04 -0.02,0.04 -0.02,0.03 -0.03,0.03 -0.03,0.03 -0.04,0.03 -0.04,0.02 -0.04,0.02 -0.03,0.01 -0.02,0.01 -0.03,0 -0.02,0.01 -0.03,0.01 -0.03,0 -0.03,0.01 -0.03,0 -0.04,0.01 -0.03,0 -0.04,0 -0.03,0.01 -0.04,0 -0.04,0 -0.05,0 -0.04,0 -0.04,0 -0.05,0.01 -0.05,0 -0.05,0 -0.05,0 -0.05,0 c -3.09,-3.19 -7.47,-3.19 -9.06,-3.19 l 0,-1.55 c 1,0 3.93,0 6.51,1.3 l 0,-25.81 c 0,-1.8 -0.14,-2.39 -4.62,-2.39 l -1.6,0 0,-1.55 c 1.75,0.16 6.08,0.16 8.07,0.16 2,0 6.32,0 8.07,-0.16 l 0,1.55 -1.59,0 c -4.48,0 -4.64,0.54 -4.64,2.39 z"
         inkscape:connector-curvature="0"
         style="fill:#000000;stroke-width:0" /></g>  </g>
</svg>
