<?xml version="1.0" encoding="UTF-8" standalone="no"?>
<!-- Created with Inkscape (http://www.inkscape.org/) -->

<svg
   xmlns:dc="http://purl.org/dc/elements/1.1/"
   xmlns:cc="http://creativecommons.org/ns#"
   xmlns:rdf="http://www.w3.org/1999/02/22-rdf-syntax-ns#"
   xmlns:svg="http://www.w3.org/2000/svg"
   xmlns="http://www.w3.org/2000/svg"
   xmlns:sodipodi="http://sodipodi.sourceforge.net/DTD/sodipodi-0.dtd"
   xmlns:inkscape="http://www.inkscape.org/namespaces/inkscape"
   width="394.40555mm"
   height="161.74861mm"
   viewBox="0 0 1397.5 573.125"
   id="svg8661"
   version="1.1"
   inkscape:version="0.91 r13725"
   sodipodi:docname="prop.svg">
  <sodipodi:namedview
     id="base"
     pagecolor="#ffffff"
     bordercolor="#666666"
     borderopacity="1.0"
     inkscape:pageopacity="0.0"
     inkscape:pageshadow="2"
     inkscape:zoom="0.7"
     inkscape:cx="534.70801"
     inkscape:cy="358.93781"
     inkscape:document-units="px"
     inkscape:current-layer="layer1"
     showgrid="false"
     fit-margin-top="0"
     fit-margin-left="0"
     fit-margin-right="0"
     fit-margin-bottom="0"
     inkscape:window-width="1920"
     inkscape:window-height="1021"
     inkscape:window-x="0"
     inkscape:window-y="0"
     inkscape:window-maximized="1" />
  <defs
     id="defs8663">
    <marker
       inkscape:stockid="Arrow1Lend"
       orient="auto"
       refY="0.0"
       refX="0.0"
       id="Arrow1Lend"
       style="overflow:visible;"
       inkscape:isstock="true">
      <path
         id="path4159"
         d="M 0.0,0.0 L 5.0,-5.0 L -12.5,0.0 L 5.0,5.0 L 0.0,0.0 z "
         style="fill-rule:evenodd;stroke:#000000;stroke-width:1pt;stroke-opacity:1;fill:#000000;fill-opacity:1"
         transform="scale(0.8) rotate(180) translate(12.5,0)" />
    </marker>
    <inkscape:path-effect
       effect="spiro"
       id="path-effect9222"
       is_visible="true" />
  </defs>
  <metadata
     id="metadata8666">
    <rdf:RDF>
      <cc:Work
         rdf:about="">
        <dc:format>image/svg+xml</dc:format>
        <dc:type
           rdf:resource="http://purl.org/dc/dcmitype/StillImage" />
        <dc:title></dc:title>
      </cc:Work>
    </rdf:RDF>
  </metadata>
  <g
     inkscape:label="Layer 1"
     inkscape:groupmode="layer"
     id="layer1"
     transform="translate(370.17856,-60.085419)">
    <path
       style="fill:none;fill-rule:evenodd;stroke:#000000;stroke-width:3;stroke-linecap:butt;stroke-linejoin:miter;stroke-opacity:1;stroke-miterlimit:4;stroke-dasharray:none;marker-mid:url(#Arrow1Lend)"
       d="m -310.17856,444.63899 c 62.52422,-75.77367 152.06427,-128.77727 248.57143,-147.14286 110.638227,-21.05478 224.81683,2.48301 332.85714,34.28572 102.29894,30.11268 204.79395,68.09365 311.42857,67.14286 123.4308,-1.10055 245.31638,-57.76666 325.71426,-151.42858"
       id="path9220"
       inkscape:path-effect="#path-effect9222"
       inkscape:original-d="m -310.17856,444.63899 c 0,0 125.71429,-124.28571 248.57143,-147.14286 122.85714,-22.85714 41.42857,-25.71428 332.85714,34.28572 291.42857,60 100,20 311.42857,67.14286 211.42856,47.14285 325.71426,-151.42858 325.71426,-151.42858"
       inkscape:connector-curvature="0" />
    <g
       transform="translate(-538.57143,-218.57143)"
       id="g9254">
      <g
         style="font-style:normal;font-variant:normal;font-weight:normal;font-stretch:normal;letter-spacing:normal;word-spacing:normal;text-anchor:start;fill:none;fill-opacity:1;fill-rule:evenodd;stroke:#000000;stroke-linecap:butt;stroke-linejoin:miter;stroke-miterlimit:10.43299961;stroke-dasharray:none;stroke-dashoffset:0;stroke-opacity:1"
         id="content"
         transform="matrix(0.81874999,0,0,-0.81874999,-143.28125,1048.125)"
         xml:space="preserve"
         stroke-miterlimit="10.433"
         font-style="normal"
         font-variant="normal"
         font-weight="normal"
         font-stretch="normal"
         font-size-adjust="none"
         letter-spacing="normal"
         word-spacing="normal"><path
           style="fill:#000000;stroke-width:0"
           inkscape:connector-curvature="0"
           d="m 475.39,412.92 0.72,0.07 0.71,0.09 0.69,0.11 0.67,0.14 0.66,0.15 0.64,0.18 0.63,0.2 0.61,0.21 0.59,0.23 0.58,0.26 0.55,0.26 0.54,0.29 0.51,0.3 0.5,0.31 0.47,0.33 0.45,0.34 0.43,0.36 0.41,0.37 0.38,0.37 0.36,0.4 0.33,0.4 0.31,0.41 0.28,0.42 0.25,0.42 0.23,0.44 0.19,0.44 0.17,0.45 0.14,0.45 0.11,0.46 0.08,0.47 0.05,0.46 0.01,0.47 c 0,5.19 -5.67,9.72 -13.25,10.32 l 0,-1.1 c 6.88,-0.79 8.29,-5.37 8.29,-9.17 0,-2.98 -0.75,-8.31 -8.29,-9.2 l 0,18.37 0,1.1 0,2.79 c 0,1.69 0,2.39 4.74,2.39 l 1.64,0 0,1.55 c -1.78,-0.16 -6.38,-0.16 -8.41,-0.16 -2.04,0 -6.68,0 -8.48,0.16 l 0,-1.55 1.66,0 c 4.73,0 4.73,-0.65 4.73,-2.39 l 0,-2.79 0,-1.14 0,-18.29 c -7.08,0.94 -7.98,6.04 -7.98,9.11 0,2.6 0.5,8.18 7.98,9.18 l 0,1.14 c -7.63,-0.74 -12.95,-5.33 -12.95,-10.27 0,-5.12 5.51,-9.56 12.95,-10.31 l 0,-2.78 c 0,-1.71 0,-2.39 -4.73,-2.39 l -1.66,0 0,-1.55 c 1.8,0.16 6.39,0.16 8.42,0.16 2.05,0 6.69,0 8.47,-0.16 l 0,1.55 -1.64,0 c -4.74,0 -4.74,0.64 -4.74,2.39 z"
           id="path9257" /><path
           style="fill:#000000;stroke-width:0"
           inkscape:connector-curvature="0"
           d="m 509.5,435.31 0,0.71 -0.02,0.68 -0.03,0.66 -0.04,0.64 -0.06,0.62 -0.07,0.59 -0.1,0.58 -0.1,0.56 -0.13,0.55 -0.15,0.52 -0.17,0.52 -0.19,0.5 -0.21,0.49 -0.24,0.48 -0.26,0.47 -0.14,0.23 -0.15,0.23 c -1.08,1.61 -3.23,3 -6.03,3 -8.08,0 -8.08,-9.52 -8.08,-12.03 0,-2.5 0,-11.81 8.08,-11.81 l 0,0.98 c -1.59,0 -3.72,0.94 -4.42,3.8 -0.49,2.04 -0.49,4.9 -0.49,7.48 0,2.55 0,5.2 0.52,7.11 0.73,2.75 2.97,3.49 4.39,3.49 1.89,0 3.7,-1.15 4.33,-3.18 0.56,-1.87 0.59,-4.39 0.59,-7.42 0,-2.58 0,-5.15 -0.45,-7.34 -0.7,-3.17 -3.06,-3.94 -4.47,-3.94 l 0,0 0,-0.98 c 8.09,0 8.09,9.31 8.09,11.81 z"
           id="path9259" /><path
           style="fill:#000000;stroke-width:0"
           inkscape:connector-curvature="0"
           d="m 530.32,394.25 0,0.02 0,0.03 0,0.01 0,0.02 0,0.01 -0.01,0.02 0,0.01 -0.01,0.02 -0.01,0.02 -0.01,0.02 -0.01,0.02 -0.02,0.03 -0.01,0.02 -0.02,0.03 -0.02,0.03 -0.03,0.03 -0.02,0.03 -0.03,0.04 -0.02,0.02 -0.01,0.02 -0.02,0.02 -0.02,0.02 -0.02,0.02 -0.02,0.03 -0.02,0.02 -0.02,0.02 -0.02,0.03 -0.03,0.02 -0.02,0.03 -0.03,0.03 -0.03,0.03 -0.02,0.03 -0.03,0.03 -0.03,0.03 -0.03,0.03 -0.03,0.03 -0.04,0.04 -0.03,0.03 -0.04,0.04 -0.03,0.03 -0.04,0.04 -0.04,0.04 c -6.22,6.28 -7.81,15.69 -7.81,23.31 0,8.67 1.89,17.35 8.01,23.56 0.64,0.61 0.64,0.71 0.64,0.86 0,0.35 -0.18,0.49 -0.48,0.49 -0.5,0 -4.99,-3.38 -7.92,-9.7 -2.55,-5.49 -3.14,-11.02 -3.14,-15.21 0,-3.89 0.54,-9.9 3.28,-15.54 2.98,-6.13 7.28,-9.36 7.78,-9.36 0.3,0 0.48,0.14 0.48,0.5 z"
           id="path9261" /><path
           style="fill:#000000;stroke-width:0"
           inkscape:connector-curvature="0"
           d="m 540.83,421.45 -0.5,-0.34 -0.47,-0.35 -0.45,-0.35 -0.42,-0.35 -0.4,-0.36 -0.38,-0.36 -0.36,-0.36 -0.34,-0.37 -0.31,-0.36 -0.3,-0.37 -0.27,-0.36 -0.26,-0.36 -0.24,-0.36 -0.22,-0.36 -0.2,-0.35 -0.19,-0.35 -0.17,-0.34 -0.15,-0.34 -0.14,-0.33 -0.13,-0.32 -0.11,-0.32 -0.1,-0.3 -0.09,-0.3 -0.08,-0.28 -0.06,-0.28 -0.06,-0.26 -0.04,-0.25 -0.04,-0.24 -0.02,-0.22 -0.02,-0.21 -0.01,-0.19 0,-0.17 c 0,-2.39 1.34,-3.8 1.45,-3.94 1.59,-1.66 2.05,-1.84 5.78,-3.25 l 6.02,-2.33 c 0.75,-0.36 1.75,-0.7 1.75,-2.16 0,-1.14 -0.89,-2.64 -2.44,-2.64 -2.19,0 -3.84,1.21 -4.39,1.61 -0.3,0.19 -0.35,0.24 -0.55,0.24 -0.39,0 -0.5,-0.35 -0.5,-0.55 0,-0.59 2.64,-2.39 5.44,-2.39 3.09,0 5.17,2.89 5.17,5.34 0,2.39 -1.84,3.29 -2.39,3.54 -0.69,0.25 -2.39,0.89 -3.03,1.14 -1,0.4 -2,0.79 -3.05,1.15 l -2.98,1.19 c -2.24,0.91 -3.74,2.34 -3.74,4.44 0,2.04 1.94,6.37 6.13,8.47 1.84,-0.66 3.34,-0.66 4.39,-0.66 1.48,0 4.62,0 4.62,1.55 0,1.25 -2.14,1.34 -4.07,1.34 l -0.05,-1.09 c 1.73,0 1.94,-0.05 2.83,-0.3 -0.39,-0.2 -0.89,-0.39 -3.19,-0.39 -1.14,0 -1.59,0 -2.48,0.39 l 0,0 c 1.14,0.3 2.23,0.3 2.84,0.3 l 0.05,1.09 c -0.91,0 -2.35,0 -4.19,-0.59 -1.3,1.29 -1.5,2.93 -1.5,3.89 0,2.78 1.8,6.62 5.53,8.47 0.91,-1.1 2.05,-1.1 3.19,-1.1 l 0.06,1.1 c -0.95,0 -1.55,0 -2.09,0.45 l 0,0 c 0.79,0.25 1.84,0.25 2.39,0.25 1.68,0 1.89,-0.06 2.78,-0.31 -0.39,-0.14 -0.89,-0.39 -3.08,-0.39 l -0.06,-1.1 c 1.25,0 4.44,0 4.44,1.55 0,1.3 -2.19,1.34 -4.15,1.34 -0.64,0 -1.84,0 -3.12,-0.25 -0.16,0.44 -0.25,0.8 -0.25,1.64 0,0.71 0.25,1.75 0.25,1.85 0,0.39 -0.25,0.64 -0.61,0.64 -0.89,0 -0.89,-2.28 -0.89,-2.44 0,-1 0.3,-1.73 0.34,-1.94 -5.33,-1.5 -8.72,-5.48 -8.72,-9.31 0,-1.84 0.91,-3.94 3.24,-5.28 z"
           id="path9263" /><path
           style="fill:#000000;stroke-width:0"
           inkscape:connector-curvature="0"
           d="m 571.67,418.65 0,0.37 -0.01,0.39 -0.01,0.39 -0.01,0.41 -0.04,0.84 -0.06,0.88 -0.08,0.92 -0.11,0.95 -0.13,0.97 -0.17,1.01 -0.19,1.02 -0.23,1.03 -0.27,1.05 -0.31,1.06 -0.34,1.07 -0.4,1.07 -0.21,0.53 -0.23,0.53 -0.23,0.53 -0.25,0.53 c -2.99,6.12 -7.27,9.36 -7.77,9.36 -0.3,0 -0.5,-0.19 -0.5,-0.49 0,-0.15 0,-0.25 0.94,-1.15 4.89,-4.92 7.73,-12.85 7.73,-23.27 0,-8.51 -1.84,-17.28 -8.03,-23.56 -0.64,-0.59 -0.64,-0.7 -0.64,-0.84 0,-0.3 0.2,-0.5 0.5,-0.5 0.5,0 4.97,3.39 7.92,9.71 2.53,5.47 3.13,11 3.13,15.19 z"
           id="path9265" /><path
           style="fill:#000000;stroke-width:0"
           inkscape:connector-curvature="0"
           d="m 624.75,422.5 0.14,0 0.14,0 0.14,0 0.08,0.01 0.07,0 0.07,0.01 0.07,0.01 0.07,0.01 0.07,0.01 0.07,0.01 0.07,0.02 0.06,0.02 0.07,0.02 0.06,0.02 0.05,0.03 0.06,0.03 0.05,0.04 0.05,0.03 0.05,0.05 0.04,0.04 0.04,0.05 0.02,0.03 0.02,0.03 0.02,0.02 0.01,0.03 0.02,0.03 0.01,0.04 0.01,0.03 0.01,0.04 0.01,0.03 0.01,0.04 0.01,0.04 0,0.04 0.01,0.04 0,0.04 0,0.04 0,0.05 c 0,1 -0.95,1 -1.64,1 l -29.84,0 c -0.7,0 -1.64,0 -1.64,-1 0,-0.98 0.94,-0.98 1.69,-0.98 z"
           id="path9267" /><path
           style="fill:#000000;stroke-width:0"
           inkscape:connector-curvature="0"
           d="m 624.79,412.82 0.07,0 0.06,0 0.14,0.01 0.14,0 0.07,0 0.07,0.01 0.07,0.01 0.07,0 0.07,0.01 0.06,0.02 0.07,0.01 0.07,0.02 0.06,0.02 0.06,0.02 0.06,0.02 0.06,0.03 0.05,0.03 0.06,0.04 0.05,0.04 0.04,0.04 0.04,0.05 0.02,0.02 0.02,0.03 0.02,0.02 0.02,0.03 0.02,0.03 0.01,0.03 0.02,0.03 0.01,0.03 0.01,0.04 0.01,0.03 0.01,0.04 0.01,0.04 0.01,0.04 0,0.04 0.01,0.04 0,0.04 0,0.05 0,0.04 c 0,1 -0.95,1 -1.68,1 l -29.75,0 c -0.75,0 -1.69,0 -1.69,-1 0,-1 0.94,-1 1.64,-1 z"
           id="path9269" /><path
           style="fill:#000000;stroke-width:0"
           inkscape:connector-curvature="0"
           d="m 650.74,421.45 -0.5,-0.34 -0.47,-0.35 -0.45,-0.35 -0.42,-0.35 -0.4,-0.36 -0.38,-0.36 -0.36,-0.36 -0.33,-0.37 -0.32,-0.36 -0.29,-0.37 -0.28,-0.36 -0.25,-0.36 -0.24,-0.36 -0.22,-0.36 -0.21,-0.35 -0.18,-0.35 -0.17,-0.34 -0.16,-0.34 -0.14,-0.33 -0.13,-0.32 -0.11,-0.32 -0.1,-0.3 -0.09,-0.3 -0.07,-0.28 -0.07,-0.28 -0.05,-0.26 -0.05,-0.25 -0.03,-0.24 -0.03,-0.22 -0.02,-0.21 -0.01,-0.19 0,-0.17 c 0,-2.39 1.34,-3.8 1.45,-3.94 1.6,-1.66 2.05,-1.84 5.79,-3.25 l 6.01,-2.33 c 0.75,-0.36 1.75,-0.7 1.75,-2.16 0,-1.14 -0.89,-2.64 -2.44,-2.64 -2.18,0 -3.84,1.21 -4.39,1.61 -0.29,0.19 -0.34,0.24 -0.54,0.24 -0.39,0 -0.5,-0.35 -0.5,-0.55 0,-0.59 2.64,-2.39 5.43,-2.39 3.1,0 5.18,2.89 5.18,5.34 0,2.39 -1.85,3.29 -2.4,3.54 -0.68,0.25 -2.39,0.89 -3.03,1.14 -1,0.4 -2,0.79 -3.04,1.15 l -2.99,1.19 c -2.23,0.91 -3.73,2.34 -3.73,4.44 0,2.04 1.94,6.37 6.12,8.47 1.85,-0.66 3.35,-0.66 4.39,-0.66 1.49,0 4.63,0 4.63,1.55 0,1.25 -2.14,1.34 -4.08,1.34 l -0.05,-1.09 c 1.74,0 1.94,-0.05 2.83,-0.3 -0.39,-0.2 -0.89,-0.39 -3.19,-0.39 -1.14,0 -1.59,0 -2.48,0.39 l 0,0 c 1.14,0.3 2.23,0.3 2.84,0.3 l 0.05,1.09 c -0.91,0 -2.34,0 -4.19,-0.59 -1.29,1.29 -1.5,2.93 -1.5,3.89 0,2.78 1.8,6.62 5.53,8.47 0.91,-1.1 2.05,-1.1 3.19,-1.1 l 0.06,1.1 c -0.95,0 -1.54,0 -2.09,0.45 l 0,0 c 0.8,0.25 1.84,0.25 2.39,0.25 1.69,0 1.89,-0.06 2.78,-0.31 -0.39,-0.14 -0.89,-0.39 -3.08,-0.39 l -0.06,-1.1 c 1.25,0 4.44,0 4.44,1.55 0,1.3 -2.19,1.34 -4.14,1.34 -0.64,0 -1.85,0 -3.13,-0.25 -0.15,0.44 -0.25,0.8 -0.25,1.64 0,0.71 0.25,1.75 0.25,1.85 0,0.39 -0.25,0.64 -0.61,0.64 -0.89,0 -0.89,-2.28 -0.89,-2.44 0,-1 0.3,-1.73 0.35,-1.94 -5.33,-1.5 -8.72,-5.48 -8.72,-9.31 0,-1.84 0.9,-3.94 3.23,-5.28 z"
           id="path9271" /></g>    </g>
    <g
       transform="translate(6,-524.28571)"
       id="g9311">
      <g
         style="font-style:normal;font-variant:normal;font-weight:normal;font-stretch:normal;letter-spacing:normal;word-spacing:normal;text-anchor:start;fill:none;fill-opacity:1;fill-rule:evenodd;stroke:#000000;stroke-linecap:butt;stroke-linejoin:miter;stroke-miterlimit:10.43299961;stroke-dasharray:none;stroke-dashoffset:0;stroke-opacity:1"
         word-spacing="normal"
         letter-spacing="normal"
         font-size-adjust="none"
         font-stretch="normal"
         font-weight="normal"
         font-variant="normal"
         font-style="normal"
         stroke-miterlimit="10.433"
         xml:space="preserve"
         transform="matrix(0.81874999,0,0,-0.81874999,-143.28125,1048.125)"
         id="g9313"><path
           style="fill:#000000;stroke-width:0"
           inkscape:connector-curvature="0"
           id="path9315"
           d="m 475.39,412.92 0.72,0.07 0.71,0.09 0.69,0.11 0.67,0.14 0.66,0.15 0.64,0.18 0.63,0.2 0.61,0.21 0.59,0.23 0.58,0.26 0.55,0.26 0.54,0.29 0.51,0.3 0.5,0.31 0.47,0.33 0.45,0.34 0.43,0.36 0.41,0.37 0.38,0.37 0.36,0.4 0.33,0.4 0.31,0.41 0.28,0.42 0.25,0.42 0.23,0.44 0.19,0.44 0.17,0.45 0.14,0.45 0.11,0.46 0.08,0.47 0.05,0.46 0.01,0.47 c 0,5.19 -5.67,9.72 -13.25,10.32 l 0,-1.1 c 6.88,-0.79 8.29,-5.37 8.29,-9.17 0,-2.98 -0.75,-8.31 -8.29,-9.2 l 0,18.37 0,1.1 0,2.79 c 0,1.69 0,2.39 4.74,2.39 l 1.64,0 0,1.55 c -1.78,-0.16 -6.38,-0.16 -8.41,-0.16 -2.04,0 -6.68,0 -8.48,0.16 l 0,-1.55 1.66,0 c 4.73,0 4.73,-0.65 4.73,-2.39 l 0,-2.79 0,-1.14 0,-18.29 c -7.08,0.94 -7.98,6.04 -7.98,9.11 0,2.6 0.5,8.18 7.98,9.18 l 0,1.14 c -7.63,-0.74 -12.95,-5.33 -12.95,-10.27 0,-5.12 5.51,-9.56 12.95,-10.31 l 0,-2.78 c 0,-1.71 0,-2.39 -4.73,-2.39 l -1.66,0 0,-1.55 c 1.8,0.16 6.39,0.16 8.42,0.16 2.05,0 6.69,0 8.47,-0.16 l 0,1.55 -1.64,0 c -4.74,0 -4.74,0.64 -4.74,2.39 z" /><path
           style="fill:#000000;stroke-width:0"
           inkscape:connector-curvature="0"
           id="path9317"
           d="m 500.1,437.96 3.54,0 c 0.66,0 1.11,0 1.11,0.77 0,0.48 -0.45,0.48 -1.03,0.48 l -3.31,0 1.28,5.16 c 0.03,0.17 0.11,0.34 0.11,0.49 0,0.64 -0.48,1.12 -1.19,1.12 -0.87,0 -1.39,-0.59 -1.64,-1.5 -0.23,-0.87 0.22,0.8 -1.33,-5.27 l -3.54,0 c -0.66,0 -1.11,0 -1.11,-0.76 0,-0.49 0.4,-0.49 1.05,-0.49 l 3.29,0 -2.04,-8.21 c -0.22,-0.88 -0.54,-2.13 -0.54,-2.58 0,-2.06 1.75,-3.31 3.74,-3.31 3.87,0 6.06,4.87 6.06,5.32 0,0.46 -0.45,0.46 -0.56,0.46 -0.41,0 -0.45,-0.08 -0.72,-0.66 -0.98,-2.2 -2.77,-4.16 -4.67,-4.16 -0.74,0 -1.22,0.46 -1.22,1.71 0,0.36 0.14,1.09 0.2,1.43 z" /><path
           style="fill:#000000;stroke-width:0"
           inkscape:connector-curvature="0"
           id="path9319"
           d="m 522.66,432.07 10.66,0 c 0.45,0 1.28,0 1.28,0.85 0,0.86 -0.8,0.86 -1.28,0.86 l -10.66,0 0,10.7 c 0,0.45 0,1.28 -0.84,1.28 -0.88,0 -0.88,-0.8 -0.88,-1.28 l 0,-10.7 -10.69,0 c -0.45,0 -1.29,0 -1.29,-0.83 0,-0.88 0.79,-0.88 1.29,-0.88 l 10.69,0 0,-10.7 c 0,-0.45 0,-1.28 0.84,-1.28 0.88,0 0.88,0.8 0.88,1.28 z" /><path
           style="fill:#000000;stroke-width:0"
           inkscape:connector-curvature="0"
           id="path9321"
           d="m 548.02,447.34 0,0 0.01,0.01 0,0 0,0.01 0,0 0,0.01 0.01,0 0,0.01 0,0.01 0,0 0.01,0.02 0,0.02 0.01,0.02 0,0.02 0.01,0.02 0.01,0.02 0,0.02 0.01,0.02 0,0.03 0.02,0.04 0.01,0.05 0,0.02 0.01,0.03 0,0.02 0.01,0.02 0,0.02 0.01,0.02 0,0.01 0,0.02 0.01,0.01 0,0 0,0.01 0,0.01 0,0 0,0.01 0,0 0,0.01 0,0 0,0 0,0.01 0,0 c 0,0.18 -0.14,0.5 -0.56,0.5 -0.69,0 -3.58,-0.28 -4.45,-0.36 -0.28,-0.03 -0.77,-0.07 -0.77,-0.8 0,-0.48 0.49,-0.48 0.91,-0.48 1.67,0 1.67,-0.25 1.67,-0.54 0,-0.23 -0.08,-0.45 -0.14,-0.76 l -4.92,-19.72 c -0.17,-0.62 -0.17,-0.69 -0.17,-0.77 0,-0.51 0.42,-1.1 1.18,-1.1 0.39,0 1.05,0.17 1.44,0.9 0.1,0.2 0.41,1.45 0.58,2.19 l 0.81,3.11 c 0.1,0.51 0.46,1.84 0.55,2.36 0.36,1.33 0.36,1.36 1.05,2.48 1.12,1.71 2.86,3.69 5.57,3.69 1.96,0 2.07,-1.61 2.07,-2.44 0,-2.09 -1.5,-5.95 -2.07,-7.42 -0.37,-0.98 -0.51,-1.3 -0.51,-1.89 0,-1.84 1.53,-2.98 3.3,-2.98 3.5,0 5.03,4.79 5.03,5.32 0,0.46 -0.46,0.46 -0.57,0.46 -0.48,0 -0.53,-0.21 -0.65,-0.6 -0.81,-2.78 -2.35,-4.22 -3.71,-4.22 -0.73,0 -0.87,0.49 -0.87,1.22 0,0.8 0.19,1.25 0.81,2.83 0.41,1.08 1.85,4.77 1.85,6.72 0,0.56 0,2.03 -1.3,3.03 -0.59,0.45 -1.59,0.94 -3.24,0.94 -2.54,0 -4.39,-1.39 -5.67,-2.89 z" /><path
           style="fill:#000000;stroke-width:0"
           inkscape:connector-curvature="0"
           id="path9323"
           d="m 579.41,394.25 0,0.02 -0.01,0.03 0,0.01 0,0.02 0,0.01 -0.01,0.02 0,0.01 -0.01,0.02 -0.01,0.02 -0.01,0.02 -0.01,0.02 -0.01,0.03 -0.02,0.02 -0.02,0.03 -0.02,0.03 -0.02,0.03 -0.03,0.03 -0.03,0.04 -0.02,0.02 -0.01,0.02 -0.02,0.02 -0.02,0.02 -0.02,0.02 -0.02,0.03 -0.02,0.02 -0.02,0.02 -0.02,0.03 -0.03,0.02 -0.02,0.03 -0.03,0.03 -0.02,0.03 -0.03,0.03 -0.03,0.03 -0.03,0.03 -0.03,0.03 -0.03,0.03 -0.03,0.04 -0.04,0.03 -0.03,0.04 -0.04,0.03 -0.04,0.04 -0.04,0.04 c -6.22,6.28 -7.81,15.69 -7.81,23.31 0,8.67 1.89,17.35 8.02,23.56 0.64,0.61 0.64,0.71 0.64,0.86 0,0.35 -0.19,0.49 -0.49,0.49 -0.5,0 -4.98,-3.38 -7.92,-9.7 -2.55,-5.49 -3.14,-11.02 -3.14,-15.21 0,-3.89 0.55,-9.9 3.28,-15.54 2.98,-6.13 7.28,-9.36 7.78,-9.36 0.3,0 0.49,0.14 0.49,0.5 z" /><path
           style="fill:#000000;stroke-width:0"
           inkscape:connector-curvature="0"
           id="path9325"
           d="m 589.91,421.45 -0.5,-0.34 -0.47,-0.35 -0.45,-0.35 -0.42,-0.35 -0.4,-0.36 -0.38,-0.36 -0.36,-0.36 -0.33,-0.37 -0.32,-0.36 -0.29,-0.37 -0.28,-0.36 -0.26,-0.36 -0.23,-0.36 -0.22,-0.36 -0.21,-0.35 -0.18,-0.35 -0.18,-0.34 -0.15,-0.34 -0.14,-0.33 -0.13,-0.32 -0.11,-0.32 -0.1,-0.3 -0.09,-0.3 -0.08,-0.28 -0.06,-0.28 -0.05,-0.26 -0.05,-0.25 -0.03,-0.24 -0.03,-0.22 -0.02,-0.21 -0.01,-0.19 0,-0.17 c 0,-2.39 1.34,-3.8 1.45,-3.94 1.6,-1.66 2.05,-1.84 5.78,-3.25 l 6.02,-2.33 c 0.75,-0.36 1.75,-0.7 1.75,-2.16 0,-1.14 -0.89,-2.64 -2.44,-2.64 -2.19,0 -3.84,1.21 -4.39,1.61 -0.3,0.19 -0.34,0.24 -0.55,0.24 -0.39,0 -0.5,-0.35 -0.5,-0.55 0,-0.59 2.65,-2.39 5.44,-2.39 3.09,0 5.17,2.89 5.17,5.34 0,2.39 -1.84,3.29 -2.39,3.54 -0.69,0.25 -2.39,0.89 -3.03,1.14 -1,0.4 -2,0.79 -3.04,1.15 l -2.99,1.19 c -2.23,0.91 -3.73,2.34 -3.73,4.44 0,2.04 1.93,6.37 6.12,8.47 1.85,-0.66 3.35,-0.66 4.39,-0.66 1.49,0 4.63,0 4.63,1.55 0,1.25 -2.14,1.34 -4.08,1.34 l -0.05,-1.09 c 1.74,0 1.94,-0.05 2.83,-0.3 -0.39,-0.2 -0.89,-0.39 -3.19,-0.39 -1.14,0 -1.59,0 -2.48,0.39 l 0,0 c 1.14,0.3 2.23,0.3 2.84,0.3 l 0.05,1.09 c -0.91,0 -2.34,0 -4.19,-0.59 -1.3,1.29 -1.5,2.93 -1.5,3.89 0,2.78 1.8,6.62 5.53,8.47 0.91,-1.1 2.05,-1.1 3.19,-1.1 l 0.06,1.1 c -0.95,0 -1.55,0 -2.09,0.45 l 0,0 c 0.79,0.25 1.84,0.25 2.39,0.25 1.69,0 1.89,-0.06 2.78,-0.31 -0.39,-0.14 -0.89,-0.39 -3.08,-0.39 l -0.06,-1.1 c 1.25,0 4.44,0 4.44,1.55 0,1.3 -2.19,1.34 -4.14,1.34 -0.64,0 -1.85,0 -3.13,-0.25 -0.16,0.44 -0.25,0.8 -0.25,1.64 0,0.71 0.25,1.75 0.25,1.85 0,0.39 -0.25,0.64 -0.61,0.64 -0.89,0 -0.89,-2.28 -0.89,-2.44 0,-1 0.3,-1.73 0.34,-1.94 -5.32,-1.5 -8.71,-5.48 -8.71,-9.31 0,-1.84 0.9,-3.94 3.23,-5.28 z" /><path
           style="fill:#000000;stroke-width:0"
           inkscape:connector-curvature="0"
           id="path9327"
           d="m 620.75,418.65 -0.01,0.37 0,0.39 -0.01,0.39 -0.01,0.41 -0.04,0.84 -0.06,0.88 -0.08,0.92 -0.11,0.95 -0.14,0.97 -0.16,1.01 -0.2,1.02 -0.23,1.03 -0.26,1.05 -0.31,1.06 -0.35,1.07 -0.39,1.07 -0.21,0.53 -0.23,0.53 -0.24,0.53 -0.24,0.53 c -2.99,6.12 -7.27,9.36 -7.77,9.36 -0.3,0 -0.5,-0.19 -0.5,-0.49 0,-0.15 0,-0.25 0.94,-1.15 4.89,-4.92 7.73,-12.85 7.73,-23.27 0,-8.51 -1.84,-17.28 -8.03,-23.56 -0.64,-0.59 -0.64,-0.7 -0.64,-0.84 0,-0.3 0.2,-0.5 0.5,-0.5 0.5,0 4.97,3.39 7.92,9.71 2.53,5.47 3.13,11 3.13,15.19 z" /><path
           style="fill:#000000;stroke-width:0"
           inkscape:connector-curvature="0"
           id="path9329"
           d="m 673.83,422.5 0.14,0 0.14,0 0.15,0 0.07,0.01 0.07,0 0.07,0.01 0.08,0.01 0.07,0.01 0.07,0.01 0.06,0.01 0.07,0.02 0.06,0.02 0.07,0.02 0.06,0.02 0.06,0.03 0.05,0.03 0.06,0.04 0.05,0.03 0.04,0.05 0.05,0.04 0.04,0.05 0.01,0.03 0.02,0.03 0.02,0.02 0.01,0.03 0.02,0.03 0.01,0.04 0.01,0.03 0.01,0.04 0.01,0.03 0.01,0.04 0.01,0.04 0.01,0.04 0,0.04 0,0.04 0.01,0.04 0,0.05 c 0,1 -0.96,1 -1.64,1 l -29.85,0 c -0.7,0 -1.64,0 -1.64,-1 0,-0.98 0.94,-0.98 1.69,-0.98 z" /><path
           style="fill:#000000;stroke-width:0"
           inkscape:connector-curvature="0"
           id="path9331"
           d="m 673.88,412.82 0.06,0 0.07,0 0.13,0.01 0.14,0 0.07,0 0.07,0.01 0.07,0.01 0.07,0 0.07,0.01 0.07,0.02 0.06,0.01 0.07,0.02 0.06,0.02 0.06,0.02 0.06,0.02 0.06,0.03 0.06,0.03 0.05,0.04 0.05,0.04 0.04,0.04 0.05,0.05 0.02,0.02 0.02,0.03 0.01,0.02 0.02,0.03 0.02,0.03 0.01,0.03 0.02,0.03 0.01,0.03 0.01,0.04 0.01,0.03 0.01,0.04 0.01,0.04 0.01,0.04 0.01,0.04 0,0.04 0,0.04 0.01,0.05 0,0.04 c 0,1 -0.96,1 -1.69,1 l -29.75,0 c -0.75,0 -1.69,0 -1.69,-1 0,-1 0.94,-1 1.64,-1 z" /><path
           style="fill:#000000;stroke-width:0"
           inkscape:connector-curvature="0"
           id="path9333"
           d="m 712.15,412.92 0.71,0.07 0.71,0.09 0.69,0.11 0.67,0.14 0.66,0.15 0.64,0.18 0.63,0.2 0.61,0.21 0.59,0.23 0.58,0.26 0.55,0.26 0.54,0.29 0.51,0.3 0.5,0.31 0.47,0.33 0.45,0.34 0.43,0.36 0.41,0.37 0.38,0.37 0.36,0.4 0.33,0.4 0.31,0.41 0.28,0.42 0.25,0.42 0.23,0.44 0.19,0.44 0.17,0.45 0.14,0.45 0.11,0.46 0.08,0.47 0.05,0.46 0.02,0.47 c 0,5.19 -5.68,9.72 -13.25,10.32 l 0,-1.1 c 6.87,-0.79 8.28,-5.37 8.28,-9.17 0,-2.98 -0.75,-8.31 -8.28,-9.2 l 0,18.37 0,1.1 0,2.79 c 0,1.69 0,2.39 4.73,2.39 l 1.64,0 0,1.55 c -1.78,-0.16 -6.37,-0.16 -8.41,-0.16 -2.04,0 -6.68,0 -8.48,0.16 l 0,-1.55 1.65,0 c 4.74,0 4.74,-0.65 4.74,-2.39 l 0,-2.79 0,-1.14 0,-18.29 c -7.08,0.94 -7.99,6.04 -7.99,9.11 0,2.6 0.5,8.18 7.99,9.18 l 0,1.14 c -7.62,-0.74 -12.95,-5.33 -12.95,-10.27 0,-5.12 5.51,-9.56 12.95,-10.31 l 0,-2.78 c 0,-1.71 0,-2.39 -4.74,-2.39 l -1.65,0 0,-1.55 c 1.8,0.16 6.39,0.16 8.42,0.16 2.05,0 6.69,0 8.47,-0.16 l 0,1.55 -1.64,0 c -4.73,0 -4.73,0.64 -4.73,2.39 z" /><path
           style="fill:#000000;stroke-width:0"
           inkscape:connector-curvature="0"
           id="path9335"
           d="m 739.19,447.34 0,0 0,0.01 0,0 0,0.01 0.01,0 0,0.01 0,0 0,0.01 0.01,0.01 0,0 0,0.02 0.01,0.02 0,0.02 0.01,0.02 0,0.02 0.01,0.02 0.01,0.02 0,0.02 0.01,0.03 0.01,0.04 0.01,0.05 0.01,0.02 0,0.03 0.01,0.02 0,0.02 0.01,0.02 0,0.02 0,0.01 0.01,0.02 0,0.01 0,0 0,0.01 0,0.01 0,0 0.01,0.01 0,0 0,0.01 0,0 0,0 0,0.01 0,0 c 0,0.18 -0.14,0.5 -0.56,0.5 -0.69,0 -3.58,-0.28 -4.46,-0.36 -0.28,-0.03 -0.76,-0.07 -0.76,-0.8 0,-0.48 0.48,-0.48 0.9,-0.48 1.67,0 1.67,-0.25 1.67,-0.54 0,-0.23 -0.07,-0.45 -0.14,-0.76 l -4.92,-19.72 c -0.17,-0.62 -0.17,-0.69 -0.17,-0.77 0,-0.51 0.42,-1.1 1.19,-1.1 0.39,0 1.04,0.17 1.44,0.9 0.09,0.2 0.4,1.45 0.57,2.19 l 0.82,3.11 c 0.09,0.51 0.45,1.84 0.54,2.36 0.36,1.33 0.36,1.36 1.05,2.48 1.12,1.71 2.86,3.69 5.58,3.69 1.95,0 2.06,-1.61 2.06,-2.44 0,-2.09 -1.5,-5.95 -2.06,-7.42 -0.38,-0.98 -0.52,-1.3 -0.52,-1.89 0,-1.84 1.53,-2.98 3.3,-2.98 3.5,0 5.03,4.79 5.03,5.32 0,0.46 -0.45,0.46 -0.56,0.46 -0.49,0 -0.53,-0.21 -0.66,-0.6 -0.81,-2.78 -2.34,-4.22 -3.7,-4.22 -0.74,0 -0.88,0.49 -0.88,1.22 0,0.8 0.19,1.25 0.82,2.83 0.4,1.08 1.84,4.77 1.84,6.72 0,0.56 0,2.03 -1.3,3.03 -0.59,0.45 -1.59,0.94 -3.23,0.94 -2.55,0 -4.39,-1.39 -5.67,-2.89 z" /><path
           style="fill:#000000;stroke-width:0"
           inkscape:connector-curvature="0"
           id="path9337"
           d="m 767.7,432.07 10.65,0 c 0.46,0 1.29,0 1.29,0.85 0,0.86 -0.8,0.86 -1.29,0.86 l -10.65,0 0,10.7 c 0,0.45 0,1.28 -0.85,1.28 -0.87,0 -0.87,-0.8 -0.87,-1.28 l 0,-10.7 -10.69,0 c -0.45,0 -1.29,0 -1.29,-0.83 0,-0.88 0.79,-0.88 1.29,-0.88 l 10.69,0 0,-10.7 c 0,-0.45 0,-1.28 0.84,-1.28 0.88,0 0.88,0.8 0.88,1.28 z" /><path
           style="fill:#000000;stroke-width:0"
           inkscape:connector-curvature="0"
           id="path9339"
           d="m 790.73,437.96 3.55,0 c 0.66,0 1.11,0 1.11,0.77 0,0.48 -0.45,0.48 -1.03,0.48 l -3.31,0 1.28,5.16 c 0.03,0.17 0.11,0.34 0.11,0.49 0,0.64 -0.49,1.12 -1.19,1.12 -0.87,0 -1.39,-0.59 -1.64,-1.5 -0.23,-0.87 0.22,0.8 -1.33,-5.27 l -3.55,0 c -0.65,0 -1.11,0 -1.11,-0.76 0,-0.49 0.41,-0.49 1.05,-0.49 l 3.3,0 -2.05,-8.21 c -0.22,-0.88 -0.53,-2.13 -0.53,-2.58 0,-2.06 1.75,-3.31 3.73,-3.31 3.88,0 6.07,4.87 6.07,5.32 0,0.46 -0.46,0.46 -0.57,0.46 -0.4,0 -0.45,-0.08 -0.71,-0.66 -0.99,-2.2 -2.77,-4.16 -4.68,-4.16 -0.73,0 -1.21,0.46 -1.21,1.71 0,0.36 0.14,1.09 0.2,1.43 z" /><path
           style="fill:#000000;stroke-width:0"
           inkscape:connector-curvature="0"
           id="path9341"
           d="m 816.16,394.25 0,0.02 0,0.03 0,0.01 0,0.02 0,0.01 -0.01,0.02 0,0.01 -0.01,0.02 -0.01,0.02 -0.01,0.02 -0.01,0.02 -0.02,0.03 -0.01,0.02 -0.02,0.03 -0.02,0.03 -0.03,0.03 -0.02,0.03 -0.03,0.04 -0.02,0.02 -0.01,0.02 -0.02,0.02 -0.02,0.02 -0.02,0.02 -0.02,0.03 -0.02,0.02 -0.02,0.02 -0.02,0.03 -0.03,0.02 -0.02,0.03 -0.03,0.03 -0.03,0.03 -0.02,0.03 -0.03,0.03 -0.03,0.03 -0.03,0.03 -0.03,0.03 -0.04,0.04 -0.03,0.03 -0.04,0.04 -0.03,0.03 -0.04,0.04 -0.04,0.04 c -6.22,6.28 -7.81,15.69 -7.81,23.31 0,8.67 1.89,17.35 8.01,23.56 0.64,0.61 0.64,0.71 0.64,0.86 0,0.35 -0.18,0.49 -0.48,0.49 -0.5,0 -4.98,-3.38 -7.92,-9.7 -2.55,-5.49 -3.14,-11.02 -3.14,-15.21 0,-3.89 0.54,-9.9 3.28,-15.54 2.98,-6.13 7.28,-9.36 7.78,-9.36 0.3,0 0.48,0.14 0.48,0.5 z" /><path
           style="fill:#000000;stroke-width:0"
           inkscape:connector-curvature="0"
           id="path9343"
           d="m 826.67,421.45 -0.5,-0.34 -0.47,-0.35 -0.45,-0.35 -0.42,-0.35 -0.41,-0.36 -0.37,-0.36 -0.36,-0.36 -0.34,-0.37 -0.31,-0.36 -0.3,-0.37 -0.27,-0.36 -0.26,-0.36 -0.24,-0.36 -0.22,-0.36 -0.2,-0.35 -0.19,-0.35 -0.17,-0.34 -0.15,-0.34 -0.14,-0.33 -0.13,-0.32 -0.11,-0.32 -0.1,-0.3 -0.09,-0.3 -0.08,-0.28 -0.06,-0.28 -0.06,-0.26 -0.04,-0.25 -0.04,-0.24 -0.02,-0.22 -0.02,-0.21 -0.01,-0.19 0,-0.17 c 0,-2.39 1.34,-3.8 1.45,-3.94 1.59,-1.66 2.05,-1.84 5.78,-3.25 l 6.02,-2.33 c 0.75,-0.36 1.75,-0.7 1.75,-2.16 0,-1.14 -0.89,-2.64 -2.44,-2.64 -2.19,0 -3.85,1.21 -4.39,1.61 -0.3,0.19 -0.34,0.24 -0.55,0.24 -0.39,0 -0.5,-0.35 -0.5,-0.55 0,-0.59 2.64,-2.39 5.44,-2.39 3.09,0 5.17,2.89 5.17,5.34 0,2.39 -1.84,3.29 -2.39,3.54 -0.69,0.25 -2.39,0.89 -3.03,1.14 -1,0.4 -2,0.79 -3.05,1.15 l -2.98,1.19 c -2.24,0.91 -3.74,2.34 -3.74,4.44 0,2.04 1.94,6.37 6.13,8.47 1.84,-0.66 3.34,-0.66 4.39,-0.66 1.48,0 4.62,0 4.62,1.55 0,1.25 -2.14,1.34 -4.07,1.34 l -0.05,-1.09 c 1.73,0 1.94,-0.05 2.83,-0.3 -0.39,-0.2 -0.89,-0.39 -3.19,-0.39 -1.14,0 -1.59,0 -2.49,0.39 l 0,0 c 1.15,0.3 2.24,0.3 2.85,0.3 l 0.05,1.09 c -0.91,0 -2.35,0 -4.19,-0.59 -1.3,1.29 -1.5,2.93 -1.5,3.89 0,2.78 1.79,6.62 5.53,8.47 0.91,-1.1 2.05,-1.1 3.19,-1.1 l 0.06,1.1 c -0.95,0 -1.55,0 -2.09,0.45 l 0,0 c 0.79,0.25 1.84,0.25 2.39,0.25 1.68,0 1.89,-0.06 2.78,-0.31 -0.39,-0.14 -0.89,-0.39 -3.08,-0.39 l -0.06,-1.1 c 1.25,0 4.44,0 4.44,1.55 0,1.3 -2.19,1.34 -4.15,1.34 -0.64,0 -1.84,0 -3.12,-0.25 -0.16,0.44 -0.25,0.8 -0.25,1.64 0,0.71 0.25,1.75 0.25,1.85 0,0.39 -0.25,0.64 -0.61,0.64 -0.89,0 -0.89,-2.28 -0.89,-2.44 0,-1 0.3,-1.73 0.34,-1.94 -5.32,-1.5 -8.72,-5.48 -8.72,-9.31 0,-1.84 0.91,-3.94 3.24,-5.28 z" /><path
           style="fill:#000000;stroke-width:0"
           inkscape:connector-curvature="0"
           id="path9345"
           d="m 857.51,418.65 0,0.37 -0.01,0.39 -0.01,0.39 -0.01,0.41 -0.04,0.84 -0.06,0.88 -0.08,0.92 -0.11,0.95 -0.13,0.97 -0.17,1.01 -0.19,1.02 -0.23,1.03 -0.27,1.05 -0.31,1.06 -0.34,1.07 -0.4,1.07 -0.21,0.53 -0.23,0.53 -0.23,0.53 -0.25,0.53 c -2.99,6.12 -7.27,9.36 -7.77,9.36 -0.3,0 -0.5,-0.19 -0.5,-0.49 0,-0.15 0,-0.25 0.94,-1.15 4.89,-4.92 7.73,-12.85 7.73,-23.27 0,-8.51 -1.84,-17.28 -8.03,-23.56 -0.64,-0.59 -0.64,-0.7 -0.64,-0.84 0,-0.3 0.2,-0.5 0.5,-0.5 0.5,0 4.97,3.39 7.92,9.71 2.53,5.47 3.13,11 3.13,15.19 z" /><path
           style="fill:#000000;stroke-width:0"
           inkscape:connector-curvature="0"
           id="path9347"
           d="m 910.59,422.5 0.14,0 0.14,0 0.14,0 0.08,0.01 0.07,0 0.07,0.01 0.07,0.01 0.07,0.01 0.07,0.01 0.07,0.01 0.07,0.02 0.06,0.02 0.06,0.02 0.07,0.02 0.05,0.03 0.06,0.03 0.05,0.04 0.05,0.03 0.05,0.05 0.04,0.04 0.04,0.05 0.02,0.03 0.02,0.03 0.01,0.02 0.02,0.03 0.01,0.03 0.02,0.04 0.01,0.03 0.01,0.04 0.01,0.03 0.01,0.04 0.01,0.04 0,0.04 0.01,0.04 0,0.04 0,0.04 0,0.05 c 0,1 -0.95,1 -1.64,1 l -29.84,0 c -0.7,0 -1.64,0 -1.64,-1 0,-0.98 0.94,-0.98 1.69,-0.98 z" /><path
           style="fill:#000000;stroke-width:0"
           inkscape:connector-curvature="0"
           id="path9349"
           d="m 910.63,412.82 0.07,0 0.06,0 0.14,0.01 0.14,0 0.07,0 0.07,0.01 0.07,0.01 0.07,0 0.07,0.01 0.06,0.02 0.07,0.01 0.07,0.02 0.06,0.02 0.06,0.02 0.06,0.02 0.06,0.03 0.05,0.03 0.06,0.04 0.04,0.04 0.05,0.04 0.04,0.05 0.02,0.02 0.02,0.03 0.02,0.02 0.02,0.03 0.02,0.03 0.01,0.03 0.01,0.03 0.02,0.03 0.01,0.04 0.01,0.03 0.01,0.04 0.01,0.04 0.01,0.04 0,0.04 0.01,0.04 0,0.04 0,0.05 0,0.04 c 0,1 -0.95,1 -1.68,1 l -29.75,0 c -0.75,0 -1.69,0 -1.69,-1 0,-1 0.94,-1 1.64,-1 z" /><path
           style="fill:#000000;stroke-width:0"
           inkscape:connector-curvature="0"
           id="path9351"
           d="m 948.78,412.92 0.72,0.07 0.71,0.09 0.69,0.11 0.67,0.14 0.66,0.15 0.64,0.18 0.63,0.2 0.61,0.21 0.59,0.23 0.58,0.26 0.55,0.26 0.54,0.29 0.52,0.3 0.49,0.31 0.47,0.33 0.45,0.34 0.43,0.36 0.41,0.37 0.38,0.37 0.36,0.4 0.33,0.4 0.31,0.41 0.28,0.42 0.25,0.42 0.23,0.44 0.19,0.44 0.17,0.45 0.14,0.45 0.11,0.46 0.08,0.47 0.05,0.46 0.01,0.47 c 0,5.19 -5.67,9.72 -13.25,10.32 l 0,-1.1 c 6.88,-0.79 8.29,-5.37 8.29,-9.17 0,-2.98 -0.75,-8.31 -8.29,-9.2 l 0,18.37 0,1.1 0,2.79 c 0,1.69 0,2.39 4.74,2.39 l 1.64,0 0,1.55 c -1.78,-0.16 -6.38,-0.16 -8.41,-0.16 -2.04,0 -6.68,0 -8.48,0.16 l 0,-1.55 1.66,0 c 4.73,0 4.73,-0.65 4.73,-2.39 l 0,-2.79 0,-1.14 0,-18.29 c -7.08,0.94 -7.98,6.04 -7.98,9.11 0,2.6 0.5,8.18 7.98,9.18 l 0,1.14 c -7.63,-0.74 -12.95,-5.33 -12.95,-10.27 0,-5.12 5.51,-9.56 12.95,-10.31 l 0,-2.78 c 0,-1.71 0,-2.39 -4.73,-2.39 l -1.66,0 0,-1.55 c 1.8,0.16 6.39,0.16 8.42,0.16 2.05,0 6.69,0 8.47,-0.16 l 0,1.55 -1.64,0 c -4.74,0 -4.74,0.64 -4.74,2.39 z" /><path
           style="fill:#000000;stroke-width:0"
           inkscape:connector-curvature="0"
           id="path9353"
           d="m 973.5,437.96 3.55,0 c 0.65,0 1.11,0 1.11,0.77 0,0.48 -0.46,0.48 -1.04,0.48 l -3.31,0 1.28,5.16 c 0.03,0.17 0.11,0.34 0.11,0.49 0,0.64 -0.48,1.12 -1.18,1.12 -0.88,0 -1.4,-0.59 -1.64,-1.5 -0.24,-0.87 0.21,0.8 -1.33,-5.27 l -3.55,0 c -0.66,0 -1.11,0 -1.11,-0.76 0,-0.49 0.41,-0.49 1.05,-0.49 l 3.29,0 -2.04,-8.21 c -0.22,-0.88 -0.53,-2.13 -0.53,-2.58 0,-2.06 1.75,-3.31 3.73,-3.31 3.88,0 6.06,4.87 6.06,5.32 0,0.46 -0.45,0.46 -0.56,0.46 -0.41,0 -0.45,-0.08 -0.72,-0.66 -0.98,-2.2 -2.76,-4.16 -4.67,-4.16 -0.73,0 -1.22,0.46 -1.22,1.71 0,0.36 0.14,1.09 0.2,1.43 z" /><path
           style="fill:#000000;stroke-width:0"
           inkscape:connector-curvature="0"
           id="path9355"
           d="m 998.93,394.25 0,0.02 -0.01,0.03 0,0.01 0,0.02 0,0.01 -0.01,0.02 0,0.01 -0.01,0.02 -0.01,0.02 -0.01,0.02 -0.01,0.02 -0.01,0.03 -0.02,0.02 -0.02,0.03 -0.02,0.03 -0.02,0.03 -0.03,0.03 -0.03,0.04 -0.02,0.02 -0.01,0.02 -0.02,0.02 -0.02,0.02 -0.02,0.02 -0.02,0.03 -0.02,0.02 -0.02,0.02 -0.02,0.03 -0.03,0.02 -0.02,0.03 -0.03,0.03 -0.02,0.03 -0.03,0.03 -0.03,0.03 -0.03,0.03 -0.03,0.03 -0.03,0.03 -0.04,0.04 -0.03,0.03 -0.03,0.04 -0.04,0.03 -0.04,0.04 -0.04,0.04 c -6.22,6.28 -7.81,15.69 -7.81,23.31 0,8.67 1.89,17.35 8.01,23.56 0.65,0.61 0.65,0.71 0.65,0.86 0,0.35 -0.19,0.49 -0.49,0.49 -0.5,0 -4.98,-3.38 -7.92,-9.7 -2.55,-5.49 -3.14,-11.02 -3.14,-15.21 0,-3.89 0.55,-9.9 3.28,-15.54 2.99,-6.13 7.28,-9.36 7.78,-9.36 0.3,0 0.49,0.14 0.49,0.5 z" /><path
           style="fill:#000000;stroke-width:0"
           inkscape:connector-curvature="0"
           id="path9357"
           d="m 1021.6,412.92 0.7,0.07 0.8,0.09 0.6,0.11 0.7,0.14 0.7,0.15 0.6,0.18 0.6,0.2 0.7,0.21 0.5,0.23 0.6,0.26 0.6,0.26 0.5,0.29 0.5,0.3 0.5,0.31 0.5,0.33 0.4,0.34 0.5,0.36 0.4,0.37 0.4,0.37 0.3,0.4 0.4,0.4 0.3,0.41 0.2,0.42 0.3,0.42 0.2,0.44 0.2,0.44 0.2,0.45 0.1,0.45 0.1,0.46 0.1,0.47 0.1,0.46 0,0.47 c 0,5.19 -5.7,9.72 -13.3,10.32 l 0,-1.1 c 6.9,-0.79 8.3,-5.37 8.3,-9.17 0,-2.98 -0.7,-8.31 -8.3,-9.2 l 0,18.37 0,1.1 0,2.79 c 0,1.69 0,2.39 4.8,2.39 l 1.6,0 0,1.55 c -1.8,-0.16 -6.4,-0.16 -8.4,-0.16 -2.1,0 -6.7,0 -8.5,0.16 l 0,-1.55 1.7,0 c 4.7,0 4.7,-0.65 4.7,-2.39 l 0,-2.79 0,-1.14 0,-18.29 c -7.1,0.94 -8,6.04 -8,9.11 0,2.6 0.5,8.18 8,9.18 l 0,1.14 c -7.6,-0.74 -13,-5.33 -13,-10.27 0,-5.12 5.6,-9.56 13,-10.31 l 0,-2.78 c 0,-1.71 0,-2.39 -4.7,-2.39 l -1.7,0 0,-1.55 c 1.8,0.16 6.4,0.16 8.4,0.16 2.1,0 6.7,0 8.5,-0.16 l 0,1.55 -1.6,0 c -4.8,0 -4.8,0.64 -4.8,2.39 z" /><path
           style="fill:#000000;stroke-width:0"
           inkscape:connector-curvature="0"
           id="path9359"
           d="m 1048.7,447.34 0,0 0,0.01 0,0 0,0.01 0,0 0,0.01 0,0 0,0.01 0,0.01 0,0 0,0.02 0,0.02 0,0.02 0,0.02 0,0.02 0,0.02 0,0.02 0,0.02 0,0.03 0.1,0.04 0,0.05 0,0.02 0,0.03 0,0.02 0,0.02 0,0.02 0,0.02 0,0.01 0,0.02 0,0.01 0,0 0,0.01 0,0.01 0,0 0,0.01 0,0 0,0.01 0,0 0,0 0,0.01 0,0 c 0,0.18 -0.1,0.5 -0.6,0.5 -0.6,0 -3.5,-0.28 -4.4,-0.36 -0.3,-0.03 -0.8,-0.07 -0.8,-0.8 0,-0.48 0.5,-0.48 0.9,-0.48 1.7,0 1.7,-0.25 1.7,-0.54 0,-0.23 -0.1,-0.45 -0.1,-0.76 l -5,-19.72 c -0.1,-0.62 -0.1,-0.69 -0.1,-0.77 0,-0.51 0.4,-1.1 1.2,-1.1 0.3,0 1,0.17 1.4,0.9 0.1,0.2 0.4,1.45 0.6,2.19 l 0.8,3.11 c 0.1,0.51 0.4,1.84 0.5,2.36 0.4,1.33 0.4,1.36 1.1,2.48 1.1,1.71 2.8,3.69 5.6,3.69 1.9,0 2,-1.61 2,-2.44 0,-2.09 -1.5,-5.95 -2,-7.42 -0.4,-0.98 -0.6,-1.3 -0.6,-1.89 0,-1.84 1.6,-2.98 3.3,-2.98 3.5,0 5.1,4.79 5.1,5.32 0,0.46 -0.5,0.46 -0.6,0.46 -0.5,0 -0.5,-0.21 -0.6,-0.6 -0.9,-2.78 -2.4,-4.22 -3.8,-4.22 -0.7,0 -0.8,0.49 -0.8,1.22 0,0.8 0.2,1.25 0.8,2.83 0.4,1.08 1.8,4.77 1.8,6.72 0,0.56 0,2.03 -1.3,3.03 -0.6,0.45 -1.6,0.94 -3.2,0.94 -2.5,0 -4.4,-1.39 -5.7,-2.89 z" /><path
           style="fill:#000000;stroke-width:0"
           inkscape:connector-curvature="0"
           id="path9361"
           d="m 1080,394.25 0,0.02 0,0.03 0,0.01 0,0.02 0,0.01 0,0.02 0,0.01 0,0.02 0,0.02 0,0.02 0,0.02 0,0.03 0,0.02 -0.1,0.03 0,0.03 0,0.03 0,0.03 -0.1,0.04 0,0.02 0,0.02 0,0.02 0,0.02 -0.1,0.02 0,0.03 0,0.02 0,0.02 0,0.03 -0.1,0.02 0,0.03 0,0.03 0,0.03 -0.1,0.03 0,0.03 0,0.03 -0.1,0.03 0,0.03 0,0.04 -0.1,0.03 0,0.04 0,0.03 -0.1,0.04 0,0.04 c -6.2,6.28 -7.8,15.69 -7.8,23.31 0,8.67 1.9,17.35 8,23.56 0.6,0.61 0.6,0.71 0.6,0.86 0,0.35 -0.1,0.49 -0.4,0.49 -0.5,0 -5,-3.38 -8,-9.7 -2.5,-5.49 -3.1,-11.02 -3.1,-15.21 0,-3.89 0.5,-9.9 3.3,-15.54 3,-6.13 7.3,-9.36 7.8,-9.36 0.3,0 0.4,0.14 0.4,0.5 z" /><path
           style="fill:#000000;stroke-width:0"
           inkscape:connector-curvature="0"
           id="path9363"
           d="m 1090.6,421.45 -0.5,-0.34 -0.5,-0.35 -0.5,-0.35 -0.4,-0.35 -0.4,-0.36 -0.4,-0.36 -0.3,-0.36 -0.4,-0.37 -0.3,-0.36 -0.3,-0.37 -0.3,-0.36 -0.2,-0.36 -0.2,-0.36 -0.3,-0.36 -0.2,-0.35 -0.2,-0.35 -0.1,-0.34 -0.2,-0.34 -0.1,-0.33 -0.1,-0.32 -0.2,-0.32 -0.1,-0.3 0,-0.3 -0.1,-0.28 -0.1,-0.28 0,-0.26 -0.1,-0.25 0,-0.24 0,-0.22 -0.1,-0.21 0,-0.19 0,-0.17 c 0,-2.39 1.4,-3.8 1.5,-3.94 1.6,-1.66 2,-1.84 5.7,-3.25 l 6.1,-2.33 c 0.7,-0.36 1.7,-0.7 1.7,-2.16 0,-1.14 -0.9,-2.64 -2.4,-2.64 -2.2,0 -3.9,1.21 -4.4,1.61 -0.3,0.19 -0.4,0.24 -0.6,0.24 -0.4,0 -0.5,-0.35 -0.5,-0.55 0,-0.59 2.7,-2.39 5.5,-2.39 3.1,0 5.2,2.89 5.2,5.34 0,2.39 -1.9,3.29 -2.4,3.54 -0.7,0.25 -2.4,0.89 -3.1,1.14 -1,0.4 -2,0.79 -3,1.15 l -3,1.19 c -2.2,0.91 -3.7,2.34 -3.7,4.44 0,2.04 1.9,6.37 6.1,8.47 1.8,-0.66 3.3,-0.66 4.4,-0.66 1.5,0 4.6,0 4.6,1.55 0,1.25 -2.1,1.34 -4.1,1.34 l 0,-1.09 c 1.7,0 1.9,-0.05 2.8,-0.3 -0.4,-0.2 -0.9,-0.39 -3.2,-0.39 -1.1,0 -1.6,0 -2.5,0.39 l 0,0 c 1.2,0.3 2.3,0.3 2.9,0.3 l 0,1.09 c -0.9,0 -2.3,0 -4.2,-0.59 -1.3,1.29 -1.5,2.93 -1.5,3.89 0,2.78 1.8,6.62 5.6,8.47 0.9,-1.1 2,-1.1 3.2,-1.1 l 0,1.1 c -0.9,0 -1.5,0 -2.1,0.45 l 0,0 c 0.8,0.25 1.9,0.25 2.4,0.25 1.7,0 1.9,-0.06 2.8,-0.31 -0.4,-0.14 -0.9,-0.39 -3.1,-0.39 l 0,-1.1 c 1.2,0 4.4,0 4.4,1.55 0,1.3 -2.2,1.34 -4.2,1.34 -0.6,0 -1.8,0 -3.1,-0.25 -0.1,0.44 -0.2,0.8 -0.2,1.64 0,0.71 0.2,1.75 0.2,1.85 0,0.39 -0.2,0.64 -0.6,0.64 -0.9,0 -0.9,-2.28 -0.9,-2.44 0,-1 0.3,-1.73 0.4,-1.94 -5.4,-1.5 -8.8,-5.48 -8.8,-9.31 0,-1.84 1,-3.94 3.3,-5.28 z" /><path
           style="fill:#000000;stroke-width:0"
           inkscape:connector-curvature="0"
           id="path9365"
           d="m 1121.4,418.65 0,0.37 0,0.39 0,0.39 0,0.41 -0.1,0.84 0,0.88 -0.1,0.92 -0.1,0.95 -0.2,0.97 -0.1,1.01 -0.2,1.02 -0.3,1.03 -0.2,1.05 -0.3,1.06 -0.4,1.07 -0.4,1.07 -0.2,0.53 -0.2,0.53 -0.2,0.53 -0.3,0.53 c -3,6.12 -7.3,9.36 -7.8,9.36 -0.3,0 -0.5,-0.19 -0.5,-0.49 0,-0.15 0,-0.25 1,-1.15 4.9,-4.92 7.7,-12.85 7.7,-23.27 0,-8.51 -1.8,-17.28 -8,-23.56 -0.7,-0.59 -0.7,-0.7 -0.7,-0.84 0,-0.3 0.2,-0.5 0.5,-0.5 0.5,0 5,3.39 8,9.71 2.5,5.47 3.1,11 3.1,15.19 z" /><path
           style="fill:#000000;stroke-width:0"
           inkscape:connector-curvature="0"
           id="path9367"
           d="m 1140.7,418.65 0,0.37 0,0.39 0,0.39 0,0.41 -0.1,0.84 0,0.88 -0.1,0.92 -0.1,0.95 -0.1,0.97 -0.2,1.01 -0.2,1.02 -0.2,1.03 -0.3,1.05 -0.3,1.06 -0.4,1.07 -0.4,1.07 -0.2,0.53 -0.2,0.53 -0.2,0.53 -0.3,0.53 c -3,6.12 -7.2,9.36 -7.7,9.36 -0.3,0 -0.5,-0.19 -0.5,-0.49 0,-0.15 0,-0.25 0.9,-1.15 4.9,-4.92 7.7,-12.85 7.7,-23.27 0,-8.51 -1.8,-17.28 -8,-23.56 -0.6,-0.59 -0.6,-0.7 -0.6,-0.84 0,-0.3 0.2,-0.5 0.5,-0.5 0.5,0 4.9,3.39 7.9,9.71 2.5,5.47 3.1,11 3.1,15.19 z" /><path
           style="fill:#000000;stroke-width:0"
           inkscape:connector-curvature="0"
           id="path9369"
           d="m 1193.8,422.5 0.1,0 0.2,0 0.1,0 0.1,0.01 0.1,0 0,0.01 0.1,0.01 0.1,0.01 0,0.01 0.1,0.01 0.1,0.02 0,0.02 0.1,0.02 0.1,0.02 0,0.03 0.1,0.03 0,0.04 0.1,0.03 0,0.05 0.1,0.04 0,0.05 0,0.03 0,0.03 0.1,0.02 0,0.03 0,0.03 0,0.04 0,0.03 0,0.04 0,0.03 0,0.04 0.1,0.04 0,0.04 0,0.04 0,0.04 0,0.04 0,0.05 c 0,1 -1,1 -1.7,1 l -29.8,0 c -0.7,0 -1.7,0 -1.7,-1 0,-0.98 1,-0.98 1.7,-0.98 z" /><path
           style="fill:#000000;stroke-width:0"
           inkscape:connector-curvature="0"
           id="path9371"
           d="m 1193.8,412.82 0.1,0 0.1,0 0.1,0.01 0.1,0 0.1,0 0.1,0.01 0,0.01 0.1,0 0.1,0.01 0.1,0.02 0,0.01 0.1,0.02 0,0.02 0.1,0.02 0.1,0.02 0,0.03 0.1,0.03 0,0.04 0.1,0.04 0,0.04 0.1,0.05 0,0.02 0,0.03 0,0.02 0,0.03 0.1,0.03 0,0.03 0,0.03 0,0.03 0,0.04 0,0.03 0,0.04 0,0.04 0.1,0.04 0,0.04 0,0.04 0,0.04 0,0.05 0,0.04 c 0,1 -1,1 -1.7,1 l -29.8,0 c -0.7,0 -1.7,0 -1.7,-1 0,-1 1,-1 1.7,-1 z" /><path
           style="fill:#000000;stroke-width:0"
           inkscape:connector-curvature="0"
           id="path9373"
           d="m 1232,412.92 0.7,0.07 0.7,0.09 0.7,0.11 0.7,0.14 0.6,0.15 0.7,0.18 0.6,0.2 0.6,0.21 0.6,0.23 0.6,0.26 0.5,0.26 0.6,0.29 0.5,0.3 0.5,0.31 0.4,0.33 0.5,0.34 0.4,0.36 0.4,0.37 0.4,0.37 0.4,0.4 0.3,0.4 0.3,0.41 0.3,0.42 0.2,0.42 0.3,0.44 0.2,0.44 0.1,0.45 0.2,0.45 0.1,0.46 0.1,0.47 0,0.46 0,0.47 c 0,5.19 -5.6,9.72 -13.2,10.32 l 0,-1.1 c 6.9,-0.79 8.3,-5.37 8.3,-9.17 0,-2.98 -0.8,-8.31 -8.3,-9.2 l 0,18.37 0,1.1 0,2.79 c 0,1.69 0,2.39 4.7,2.39 l 1.7,0 0,1.55 c -1.8,-0.16 -6.4,-0.16 -8.5,-0.16 -2,0 -6.6,0 -8.4,0.16 l 0,-1.55 1.6,0 c 4.8,0 4.8,-0.65 4.8,-2.39 l 0,-2.79 0,-1.14 0,-18.29 c -7.1,0.94 -8,6.04 -8,9.11 0,2.6 0.5,8.18 8,9.18 l 0,1.14 c -7.7,-0.74 -13,-5.33 -13,-10.27 0,-5.12 5.5,-9.56 13,-10.31 l 0,-2.78 c 0,-1.71 0,-2.39 -4.8,-2.39 l -1.6,0 0,-1.55 c 1.8,0.16 6.4,0.16 8.4,0.16 2,0 6.7,0 8.5,-0.16 l 0,1.55 -1.7,0 c -4.7,0 -4.7,0.64 -4.7,2.39 z" /><path
           style="fill:#000000;stroke-width:0"
           inkscape:connector-curvature="0"
           id="path9375"
           d="m 1259,447.34 0,0 0,0.01 0,0 0,0.01 0,0 0,0.01 0,0 0,0.01 0,0.01 0,0 0.1,0.02 0,0.02 0,0.02 0,0.02 0,0.02 0,0.02 0,0.02 0,0.02 0,0.03 0,0.04 0,0.05 0,0.02 0,0.03 0,0.02 0,0.02 0,0.02 0.1,0.02 0,0.01 0,0.02 0,0.01 0,0 0,0.01 0,0.01 0,0 0,0.01 0,0 0,0.01 0,0 0,0 0,0.01 0,0 c 0,0.18 -0.2,0.5 -0.6,0.5 -0.7,0 -3.6,-0.28 -4.4,-0.36 -0.3,-0.03 -0.8,-0.07 -0.8,-0.8 0,-0.48 0.5,-0.48 0.9,-0.48 1.7,0 1.7,-0.25 1.7,-0.54 0,-0.23 -0.1,-0.45 -0.2,-0.76 l -4.9,-19.72 c -0.2,-0.62 -0.2,-0.69 -0.2,-0.77 0,-0.51 0.5,-1.1 1.2,-1.1 0.4,0 1.1,0.17 1.5,0.9 0,0.2 0.4,1.45 0.5,2.19 l 0.9,3.11 c 0,0.51 0.4,1.84 0.5,2.36 0.4,1.33 0.4,1.36 1,2.48 1.2,1.71 2.9,3.69 5.6,3.69 2,0 2.1,-1.61 2.1,-2.44 0,-2.09 -1.5,-5.95 -2.1,-7.42 -0.4,-0.98 -0.5,-1.3 -0.5,-1.89 0,-1.84 1.5,-2.98 3.3,-2.98 3.5,0 5,4.79 5,5.32 0,0.46 -0.4,0.46 -0.5,0.46 -0.5,0 -0.6,-0.21 -0.7,-0.6 -0.8,-2.78 -2.3,-4.22 -3.7,-4.22 -0.7,0 -0.9,0.49 -0.9,1.22 0,0.8 0.2,1.25 0.9,2.83 0.4,1.08 1.8,4.77 1.8,6.72 0,0.56 0,2.03 -1.3,3.03 -0.6,0.45 -1.6,0.94 -3.2,0.94 -2.6,0 -4.4,-1.39 -5.7,-2.89 z" /><path
           style="fill:#000000;stroke-width:0"
           inkscape:connector-curvature="0"
           id="path9377"
           d="m 1290.4,394.25 0,0.02 0,0.03 0,0.01 0,0.02 0,0.01 0,0.02 0,0.01 0,0.02 0,0.02 0,0.02 0,0.02 -0.1,0.03 0,0.02 0,0.03 0,0.03 0,0.03 -0.1,0.03 0,0.04 0,0.02 0,0.02 0,0.02 -0.1,0.02 0,0.02 0,0.03 0,0.02 0,0.02 -0.1,0.03 0,0.02 0,0.03 0,0.03 -0.1,0.03 0,0.03 0,0.03 -0.1,0.03 0,0.03 0,0.03 -0.1,0.04 0,0.03 0,0.04 -0.1,0.03 0,0.04 0,0.04 c -6.3,6.28 -7.8,15.69 -7.8,23.31 0,8.67 1.8,17.35 8,23.56 0.6,0.61 0.6,0.71 0.6,0.86 0,0.35 -0.2,0.49 -0.5,0.49 -0.5,0 -5,-3.38 -7.9,-9.7 -2.6,-5.49 -3.1,-11.02 -3.1,-15.21 0,-3.89 0.5,-9.9 3.2,-15.54 3,-6.13 7.3,-9.36 7.8,-9.36 0.3,0 0.5,0.14 0.5,0.5 z" /><path
           style="fill:#000000;stroke-width:0"
           inkscape:connector-curvature="0"
           id="path9379"
           d="m 1313.1,412.92 0.7,0.07 0.7,0.09 0.7,0.11 0.7,0.14 0.7,0.15 0.6,0.18 0.6,0.2 0.6,0.21 0.6,0.23 0.6,0.26 0.6,0.26 0.5,0.29 0.5,0.3 0.5,0.31 0.5,0.33 0.4,0.34 0.5,0.36 0.4,0.37 0.3,0.37 0.4,0.4 0.3,0.4 0.3,0.41 0.3,0.42 0.3,0.42 0.2,0.44 0.2,0.44 0.2,0.45 0.1,0.45 0.1,0.46 0.1,0.47 0,0.46 0.1,0.47 c 0,5.19 -5.7,9.72 -13.3,10.32 l 0,-1.1 c 6.9,-0.79 8.3,-5.37 8.3,-9.17 0,-2.98 -0.8,-8.31 -8.3,-9.2 l 0,18.37 0,1.1 0,2.79 c 0,1.69 0,2.39 4.7,2.39 l 1.7,0 0,1.55 c -1.8,-0.16 -6.4,-0.16 -8.4,-0.16 -2.1,0 -6.7,0 -8.5,0.16 l 0,-1.55 1.6,0 c 4.8,0 4.8,-0.65 4.8,-2.39 l 0,-2.79 0,-1.14 0,-18.29 c -7.1,0.94 -8,6.04 -8,9.11 0,2.6 0.5,8.18 8,9.18 l 0,1.14 c -7.6,-0.74 -13,-5.33 -13,-10.27 0,-5.12 5.6,-9.56 13,-10.31 l 0,-2.78 c 0,-1.71 0,-2.39 -4.8,-2.39 l -1.6,0 0,-1.55 c 1.8,0.16 6.4,0.16 8.4,0.16 2.1,0 6.7,0 8.5,-0.16 l 0,1.55 -1.7,0 c -4.7,0 -4.7,0.64 -4.7,2.39 z" /><path
           style="fill:#000000;stroke-width:0"
           inkscape:connector-curvature="0"
           id="path9381"
           d="m 1337.8,437.96 3.6,0 c 0.6,0 1.1,0 1.1,0.77 0,0.48 -0.5,0.48 -1.1,0.48 l -3.3,0 1.3,5.16 c 0,0.17 0.1,0.34 0.1,0.49 0,0.64 -0.5,1.12 -1.2,1.12 -0.8,0 -1.4,-0.59 -1.6,-1.5 -0.2,-0.87 0.2,0.8 -1.3,-5.27 l -3.6,0 c -0.6,0 -1.1,0 -1.1,-0.76 0,-0.49 0.4,-0.49 1.1,-0.49 l 3.3,0 -2.1,-8.21 c -0.2,-0.88 -0.5,-2.13 -0.5,-2.58 0,-2.06 1.7,-3.31 3.7,-3.31 3.9,0 6.1,4.87 6.1,5.32 0,0.46 -0.5,0.46 -0.6,0.46 -0.4,0 -0.5,-0.08 -0.7,-0.66 -1,-2.2 -2.8,-4.16 -4.7,-4.16 -0.7,0 -1.2,0.46 -1.2,1.71 0,0.36 0.1,1.09 0.2,1.43 z" /><path
           style="fill:#000000;stroke-width:0"
           inkscape:connector-curvature="0"
           id="path9383"
           d="m 1363.4,394.25 0,0.02 0,0.03 0,0.01 0,0.02 0,0.01 -0.1,0.02 0,0.01 0,0.02 0,0.02 0,0.02 0,0.02 0,0.03 0,0.02 0,0.03 -0.1,0.03 0,0.03 0,0.03 0,0.04 -0.1,0.02 0,0.02 0,0.02 0,0.02 0,0.02 -0.1,0.03 0,0.02 0,0.02 0,0.03 0,0.02 -0.1,0.03 0,0.03 0,0.03 0,0.03 -0.1,0.03 0,0.03 0,0.03 -0.1,0.03 0,0.04 0,0.03 -0.1,0.04 0,0.03 0,0.04 -0.1,0.04 c -6.2,6.28 -7.8,15.69 -7.8,23.31 0,8.67 1.9,17.35 8,23.56 0.7,0.61 0.7,0.71 0.7,0.86 0,0.35 -0.2,0.49 -0.5,0.49 -0.5,0 -5,-3.38 -7.9,-9.7 -2.6,-5.49 -3.2,-11.02 -3.2,-15.21 0,-3.89 0.6,-9.9 3.3,-15.54 3,-6.13 7.3,-9.36 7.8,-9.36 0.3,0 0.5,0.14 0.5,0.5 z" /><path
           style="fill:#000000;stroke-width:0"
           inkscape:connector-curvature="0"
           id="path9385"
           d="m 1373.9,421.45 -0.5,-0.34 -0.5,-0.35 -0.4,-0.35 -0.5,-0.35 -0.4,-0.36 -0.4,-0.36 -0.3,-0.36 -0.3,-0.37 -0.4,-0.36 -0.3,-0.37 -0.2,-0.36 -0.3,-0.36 -0.2,-0.36 -0.2,-0.36 -0.2,-0.35 -0.2,-0.35 -0.2,-0.34 -0.2,-0.34 -0.1,-0.33 -0.1,-0.32 -0.1,-0.32 -0.1,-0.3 -0.1,-0.3 -0.1,-0.28 -0.1,-0.28 0,-0.26 -0.1,-0.25 0,-0.24 0,-0.22 0,-0.21 -0.1,-0.19 0,-0.17 c 0,-2.39 1.4,-3.8 1.5,-3.94 1.6,-1.66 2,-1.84 5.8,-3.25 l 6,-2.33 c 0.7,-0.36 1.7,-0.7 1.7,-2.16 0,-1.14 -0.9,-2.64 -2.4,-2.64 -2.2,0 -3.8,1.21 -4.4,1.61 -0.3,0.19 -0.3,0.24 -0.5,0.24 -0.4,0 -0.5,-0.35 -0.5,-0.55 0,-0.59 2.6,-2.39 5.4,-2.39 3.1,0 5.2,2.89 5.2,5.34 0,2.39 -1.9,3.29 -2.4,3.54 -0.7,0.25 -2.4,0.89 -3,1.14 -1,0.4 -2,0.79 -3.1,1.15 l -3,1.19 c -2.2,0.91 -3.7,2.34 -3.7,4.44 0,2.04 1.9,6.37 6.1,8.47 1.8,-0.66 3.3,-0.66 4.4,-0.66 1.5,0 4.6,0 4.6,1.55 0,1.25 -2.1,1.34 -4.1,1.34 l 0,-1.09 c 1.7,0 1.9,-0.05 2.8,-0.3 -0.4,-0.2 -0.9,-0.39 -3.2,-0.39 -1.1,0 -1.6,0 -2.4,0.39 l 0,0 c 1.1,0.3 2.2,0.3 2.8,0.3 l 0,1.09 c -0.9,0 -2.3,0 -4.1,-0.59 -1.3,1.29 -1.5,2.93 -1.5,3.89 0,2.78 1.8,6.62 5.5,8.47 0.9,-1.1 2,-1.1 3.2,-1.1 l 0,1.1 c -0.9,0 -1.5,0 -2.1,0.45 l 0,0 c 0.8,0.25 1.9,0.25 2.4,0.25 1.7,0 1.9,-0.06 2.8,-0.31 -0.4,-0.14 -0.9,-0.39 -3.1,-0.39 l 0,-1.1 c 1.2,0 4.4,0 4.4,1.55 0,1.3 -2.2,1.34 -4.1,1.34 -0.7,0 -1.9,0 -3.1,-0.25 -0.2,0.44 -0.3,0.8 -0.3,1.64 0,0.71 0.3,1.75 0.3,1.85 0,0.39 -0.3,0.64 -0.7,0.64 -0.8,0 -0.8,-2.28 -0.8,-2.44 0,-1 0.2,-1.73 0.3,-1.94 -5.3,-1.5 -8.7,-5.48 -8.7,-9.31 0,-1.84 0.9,-3.94 3.2,-5.28 z" /><path
           style="fill:#000000;stroke-width:0"
           inkscape:connector-curvature="0"
           id="path9387"
           d="m 1404.7,418.65 0,0.37 0,0.39 0,0.39 0,0.41 -0.1,0.84 0,0.88 -0.1,0.92 -0.1,0.95 -0.1,0.97 -0.2,1.01 -0.2,1.02 -0.2,1.03 -0.3,1.05 -0.3,1.06 -0.4,1.07 -0.3,1.07 -0.3,0.53 -0.2,0.53 -0.2,0.53 -0.3,0.53 c -3,6.12 -7.2,9.36 -7.7,9.36 -0.3,0 -0.5,-0.19 -0.5,-0.49 0,-0.15 0,-0.25 0.9,-1.15 4.9,-4.92 7.7,-12.85 7.7,-23.27 0,-8.51 -1.8,-17.28 -8,-23.56 -0.6,-0.59 -0.6,-0.7 -0.6,-0.84 0,-0.3 0.2,-0.5 0.5,-0.5 0.5,0 4.9,3.39 7.9,9.71 2.5,5.47 3.1,11 3.1,15.19 z" /><path
           style="fill:#000000;stroke-width:0"
           inkscape:connector-curvature="0"
           id="path9389"
           d="m 1424,418.65 0,0.37 0,0.39 0,0.39 0,0.41 0,0.84 -0.1,0.88 -0.1,0.92 -0.1,0.95 -0.1,0.97 -0.2,1.01 -0.2,1.02 -0.2,1.03 -0.3,1.05 -0.3,1.06 -0.3,1.07 -0.4,1.07 -0.2,0.53 -0.3,0.53 -0.2,0.53 -0.3,0.53 c -2.9,6.12 -7.2,9.36 -7.7,9.36 -0.3,0 -0.5,-0.19 -0.5,-0.49 0,-0.15 0,-0.25 0.9,-1.15 4.9,-4.92 7.8,-12.85 7.8,-23.27 0,-8.51 -1.9,-17.28 -8.1,-23.56 -0.6,-0.59 -0.6,-0.7 -0.6,-0.84 0,-0.3 0.2,-0.5 0.5,-0.5 0.5,0 4.9,3.39 7.9,9.71 2.5,5.47 3.1,11 3.1,15.19 z" /></g>    </g>
    <g
       transform="translate(136.57143,-275.14286)"
       id="g9509">
      <g
         style="font-style:normal;font-variant:normal;font-weight:normal;font-stretch:normal;letter-spacing:normal;word-spacing:normal;text-anchor:start;fill:none;fill-opacity:1;fill-rule:evenodd;stroke:#000000;stroke-linecap:butt;stroke-linejoin:miter;stroke-miterlimit:10.43299961;stroke-dasharray:none;stroke-dashoffset:0;stroke-opacity:1"
         id="g9511"
         transform="matrix(0.81874999,0,0,-0.81874999,-143.28125,1048.125)"
         xml:space="preserve"
         stroke-miterlimit="10.433"
         font-style="normal"
         font-variant="normal"
         font-weight="normal"
         font-stretch="normal"
         font-size-adjust="none"
         letter-spacing="normal"
         word-spacing="normal"><path
           style="fill:#000000;stroke-width:0"
           inkscape:connector-curvature="0"
           d="m 475.39,412.92 0.72,0.07 0.71,0.09 0.69,0.11 0.67,0.14 0.66,0.15 0.64,0.18 0.63,0.2 0.61,0.21 0.59,0.23 0.58,0.26 0.55,0.26 0.54,0.29 0.51,0.3 0.5,0.31 0.47,0.33 0.45,0.34 0.43,0.36 0.41,0.37 0.38,0.37 0.36,0.4 0.33,0.4 0.31,0.41 0.28,0.42 0.25,0.42 0.23,0.44 0.19,0.44 0.17,0.45 0.14,0.45 0.11,0.46 0.08,0.47 0.05,0.46 0.01,0.47 c 0,5.19 -5.67,9.72 -13.25,10.32 l 0,-1.1 c 6.88,-0.79 8.29,-5.37 8.29,-9.17 0,-2.98 -0.75,-8.31 -8.29,-9.2 l 0,18.37 0,1.1 0,2.79 c 0,1.69 0,2.39 4.74,2.39 l 1.64,0 0,1.55 c -1.78,-0.16 -6.38,-0.16 -8.41,-0.16 -2.04,0 -6.68,0 -8.48,0.16 l 0,-1.55 1.66,0 c 4.73,0 4.73,-0.65 4.73,-2.39 l 0,-2.79 0,-1.14 0,-18.29 c -7.08,0.94 -7.98,6.04 -7.98,9.11 0,2.6 0.5,8.18 7.98,9.18 l 0,1.14 c -7.63,-0.74 -12.95,-5.33 -12.95,-10.27 0,-5.12 5.51,-9.56 12.95,-10.31 l 0,-2.78 c 0,-1.71 0,-2.39 -4.73,-2.39 l -1.66,0 0,-1.55 c 1.8,0.16 6.39,0.16 8.42,0.16 2.05,0 6.69,0 8.47,-0.16 l 0,1.55 -1.64,0 c -4.74,0 -4.74,0.64 -4.74,2.39 z"
           id="path9513" /><path
           style="fill:#000000;stroke-width:0"
           inkscape:connector-curvature="0"
           d="m 502.43,447.34 0,0 0,0.01 0,0 0,0.01 0,0 0.01,0.01 0,0 0,0.01 0,0.01 0.01,0 0,0.02 0.01,0.02 0,0.02 0.01,0.02 0,0.02 0.01,0.02 0,0.02 0.01,0.02 0.01,0.03 0.01,0.04 0.01,0.05 0,0.02 0.01,0.03 0,0.02 0.01,0.02 0,0.02 0.01,0.02 0,0.01 0.01,0.02 0,0.01 0,0 0,0.01 0,0.01 0,0 0,0.01 0,0 0,0.01 0.01,0 0,0 0,0.01 0,0 c 0,0.18 -0.14,0.5 -0.57,0.5 -0.68,0 -3.57,-0.28 -4.45,-0.36 -0.28,-0.03 -0.76,-0.07 -0.76,-0.8 0,-0.48 0.48,-0.48 0.9,-0.48 1.67,0 1.67,-0.25 1.67,-0.54 0,-0.23 -0.07,-0.45 -0.14,-0.76 l -4.92,-19.72 c -0.17,-0.62 -0.17,-0.69 -0.17,-0.77 0,-0.51 0.42,-1.1 1.19,-1.1 0.39,0 1.04,0.17 1.43,0.9 0.1,0.2 0.41,1.45 0.58,2.19 l 0.81,3.11 c 0.1,0.51 0.46,1.84 0.55,2.36 0.36,1.33 0.36,1.36 1.05,2.48 1.12,1.71 2.86,3.69 5.58,3.69 1.95,0 2.06,-1.61 2.06,-2.44 0,-2.09 -1.5,-5.95 -2.06,-7.42 -0.38,-0.98 -0.52,-1.3 -0.52,-1.89 0,-1.84 1.53,-2.98 3.3,-2.98 3.5,0 5.03,4.79 5.03,5.32 0,0.46 -0.45,0.46 -0.56,0.46 -0.49,0 -0.54,-0.21 -0.66,-0.6 -0.81,-2.78 -2.34,-4.22 -3.7,-4.22 -0.74,0 -0.88,0.49 -0.88,1.22 0,0.8 0.19,1.25 0.81,2.83 0.41,1.08 1.85,4.77 1.85,6.72 0,0.56 0,2.03 -1.3,3.03 -0.59,0.45 -1.59,0.94 -3.23,0.94 -2.55,0 -4.39,-1.39 -5.67,-2.89 z"
           id="path9515" /><path
           style="fill:#000000;stroke-width:0"
           inkscape:connector-curvature="0"
           d="m 533.8,394.25 0,0.02 0,0.03 0,0.01 0,0.02 0,0.01 -0.01,0.02 0,0.01 -0.01,0.02 -0.01,0.02 -0.01,0.02 -0.01,0.02 -0.02,0.03 -0.01,0.02 -0.02,0.03 -0.02,0.03 -0.03,0.03 -0.02,0.03 -0.03,0.04 -0.02,0.02 -0.01,0.02 -0.02,0.02 -0.02,0.02 -0.02,0.02 -0.02,0.03 -0.02,0.02 -0.02,0.02 -0.02,0.03 -0.03,0.02 -0.02,0.03 -0.03,0.03 -0.02,0.03 -0.03,0.03 -0.03,0.03 -0.03,0.03 -0.03,0.03 -0.03,0.03 -0.04,0.04 -0.03,0.03 -0.04,0.04 -0.03,0.03 -0.04,0.04 -0.04,0.04 c -6.22,6.28 -7.81,15.69 -7.81,23.31 0,8.67 1.89,17.35 8.01,23.56 0.64,0.61 0.64,0.71 0.64,0.86 0,0.35 -0.18,0.49 -0.48,0.49 -0.5,0 -4.98,-3.38 -7.92,-9.7 -2.55,-5.49 -3.14,-11.02 -3.14,-15.21 0,-3.89 0.54,-9.9 3.28,-15.54 2.98,-6.13 7.28,-9.36 7.78,-9.36 0.3,0 0.48,0.14 0.48,0.5 z"
           id="path9517" /><path
           style="fill:#000000;stroke-width:0"
           inkscape:connector-curvature="0"
           d="m 544.31,421.45 -0.5,-0.34 -0.47,-0.35 -0.45,-0.35 -0.42,-0.35 -0.4,-0.36 -0.38,-0.36 -0.36,-0.36 -0.34,-0.37 -0.31,-0.36 -0.3,-0.37 -0.27,-0.36 -0.26,-0.36 -0.24,-0.36 -0.22,-0.36 -0.2,-0.35 -0.19,-0.35 -0.17,-0.34 -0.15,-0.34 -0.14,-0.33 -0.13,-0.32 -0.11,-0.32 -0.1,-0.3 -0.09,-0.3 -0.08,-0.28 -0.06,-0.28 -0.06,-0.26 -0.04,-0.25 -0.04,-0.24 -0.02,-0.22 -0.02,-0.21 -0.01,-0.19 0,-0.17 c 0,-2.39 1.34,-3.8 1.45,-3.94 1.59,-1.66 2.05,-1.84 5.78,-3.25 l 6.02,-2.33 c 0.75,-0.36 1.75,-0.7 1.75,-2.16 0,-1.14 -0.89,-2.64 -2.44,-2.64 -2.19,0 -3.84,1.21 -4.39,1.61 -0.3,0.19 -0.35,0.24 -0.55,0.24 -0.39,0 -0.5,-0.35 -0.5,-0.55 0,-0.59 2.64,-2.39 5.44,-2.39 3.09,0 5.17,2.89 5.17,5.34 0,2.39 -1.84,3.29 -2.39,3.54 -0.69,0.25 -2.39,0.89 -3.03,1.14 -1,0.4 -2,0.79 -3.05,1.15 l -2.98,1.19 c -2.24,0.91 -3.74,2.34 -3.74,4.44 0,2.04 1.94,6.37 6.13,8.47 1.84,-0.66 3.34,-0.66 4.39,-0.66 1.48,0 4.63,0 4.63,1.55 0,1.25 -2.15,1.34 -4.08,1.34 l -0.05,-1.09 c 1.73,0 1.94,-0.05 2.83,-0.3 -0.39,-0.2 -0.89,-0.39 -3.19,-0.39 -1.14,0 -1.59,0 -2.48,0.39 l 0,0 c 1.14,0.3 2.23,0.3 2.84,0.3 l 0.05,1.09 c -0.91,0 -2.35,0 -4.19,-0.59 -1.3,1.29 -1.5,2.93 -1.5,3.89 0,2.78 1.8,6.62 5.53,8.47 0.91,-1.1 2.05,-1.1 3.19,-1.1 l 0.06,1.1 c -0.95,0 -1.55,0 -2.09,0.45 l 0,0 c 0.79,0.25 1.84,0.25 2.39,0.25 1.69,0 1.89,-0.06 2.78,-0.31 -0.39,-0.14 -0.89,-0.39 -3.08,-0.39 l -0.06,-1.1 c 1.25,0 4.43,0 4.43,1.55 0,1.3 -2.18,1.34 -4.13,1.34 -0.65,0 -1.85,0 -3.13,-0.25 -0.16,0.44 -0.25,0.8 -0.25,1.64 0,0.71 0.25,1.75 0.25,1.85 0,0.39 -0.25,0.64 -0.61,0.64 -0.89,0 -0.89,-2.28 -0.89,-2.44 0,-1 0.3,-1.73 0.34,-1.94 -5.33,-1.5 -8.71,-5.48 -8.71,-9.31 0,-1.84 0.9,-3.94 3.23,-5.28 z"
           id="path9519" /><path
           style="fill:#000000;stroke-width:0"
           inkscape:connector-curvature="0"
           d="m 575.15,418.65 0,0.37 -0.01,0.39 -0.01,0.39 -0.01,0.41 -0.04,0.84 -0.06,0.88 -0.08,0.92 -0.11,0.95 -0.13,0.97 -0.17,1.01 -0.19,1.02 -0.23,1.03 -0.27,1.05 -0.31,1.06 -0.34,1.07 -0.4,1.07 -0.21,0.53 -0.23,0.53 -0.23,0.53 -0.25,0.53 c -2.99,6.12 -7.27,9.36 -7.77,9.36 -0.3,0 -0.5,-0.19 -0.5,-0.49 0,-0.15 0,-0.25 0.94,-1.15 4.89,-4.92 7.73,-12.85 7.73,-23.27 0,-8.51 -1.84,-17.28 -8.03,-23.56 -0.64,-0.59 -0.64,-0.7 -0.64,-0.84 0,-0.3 0.2,-0.5 0.5,-0.5 0.5,0 4.97,3.39 7.92,9.71 2.53,5.47 3.13,11 3.13,15.19 z"
           id="path9521" /></g>    </g>
    <g
       id="g9655"
       transform="translate(-205.42857,-349.14286)">
      <g
         word-spacing="normal"
         letter-spacing="normal"
         font-size-adjust="none"
         font-stretch="normal"
         font-weight="normal"
         font-variant="normal"
         font-style="normal"
         stroke-miterlimit="10.433"
         xml:space="preserve"
         transform="matrix(0.81874999,0,0,-0.81874999,-143.28125,1048.125)"
         id="g9657"
         style="font-style:normal;font-variant:normal;font-weight:normal;font-stretch:normal;letter-spacing:normal;word-spacing:normal;text-anchor:start;fill:none;fill-opacity:1;fill-rule:evenodd;stroke:#000000;stroke-linecap:butt;stroke-linejoin:miter;stroke-miterlimit:10.43299961;stroke-dasharray:none;stroke-dashoffset:0;stroke-opacity:1"><path
           id="path9659"
           d="m 475.39,412.92 0.72,0.07 0.71,0.09 0.69,0.11 0.67,0.14 0.66,0.15 0.64,0.18 0.63,0.2 0.61,0.21 0.59,0.23 0.58,0.26 0.55,0.26 0.54,0.29 0.51,0.3 0.5,0.31 0.47,0.33 0.45,0.34 0.43,0.36 0.41,0.37 0.38,0.37 0.36,0.4 0.33,0.4 0.31,0.41 0.28,0.42 0.25,0.42 0.23,0.44 0.19,0.44 0.17,0.45 0.14,0.45 0.11,0.46 0.08,0.47 0.05,0.46 0.01,0.47 c 0,5.19 -5.67,9.72 -13.25,10.32 l 0,-1.1 c 6.88,-0.79 8.29,-5.37 8.29,-9.17 0,-2.98 -0.75,-8.31 -8.29,-9.2 l 0,18.37 0,1.1 0,2.79 c 0,1.69 0,2.39 4.74,2.39 l 1.64,0 0,1.55 c -1.78,-0.16 -6.38,-0.16 -8.41,-0.16 -2.04,0 -6.68,0 -8.48,0.16 l 0,-1.55 1.66,0 c 4.73,0 4.73,-0.65 4.73,-2.39 l 0,-2.79 0,-1.14 0,-18.29 c -7.08,0.94 -7.98,6.04 -7.98,9.11 0,2.6 0.5,8.18 7.98,9.18 l 0,1.14 c -7.63,-0.74 -12.95,-5.33 -12.95,-10.27 0,-5.12 5.51,-9.56 12.95,-10.31 l 0,-2.78 c 0,-1.71 0,-2.39 -4.73,-2.39 l -1.66,0 0,-1.55 c 1.8,0.16 6.39,0.16 8.42,0.16 2.05,0 6.69,0 8.47,-0.16 l 0,1.55 -1.64,0 c -4.74,0 -4.74,0.64 -4.74,2.39 z"
           inkscape:connector-curvature="0"
           style="fill:#000000;stroke-width:0" /><path
           id="path9661"
           d="m 500.1,437.96 3.54,0 c 0.66,0 1.11,0 1.11,0.77 0,0.48 -0.45,0.48 -1.03,0.48 l -3.31,0 1.28,5.16 c 0.03,0.17 0.11,0.34 0.11,0.49 0,0.64 -0.48,1.12 -1.19,1.12 -0.87,0 -1.39,-0.59 -1.64,-1.5 -0.23,-0.87 0.22,0.8 -1.33,-5.27 l -3.54,0 c -0.66,0 -1.11,0 -1.11,-0.76 0,-0.49 0.4,-0.49 1.05,-0.49 l 3.29,0 -2.04,-8.21 c -0.22,-0.88 -0.54,-2.13 -0.54,-2.58 0,-2.06 1.75,-3.31 3.74,-3.31 3.87,0 6.06,4.87 6.06,5.32 0,0.46 -0.45,0.46 -0.56,0.46 -0.41,0 -0.45,-0.08 -0.72,-0.66 -0.98,-2.2 -2.77,-4.16 -4.67,-4.16 -0.74,0 -1.22,0.46 -1.22,1.71 0,0.36 0.14,1.09 0.2,1.43 z"
           inkscape:connector-curvature="0"
           style="fill:#000000;stroke-width:0" /><path
           id="path9663"
           d="m 525.52,394.25 0,0.02 0,0.03 0,0.01 0,0.02 -0.01,0.01 0,0.02 -0.01,0.01 0,0.02 -0.01,0.02 -0.01,0.02 -0.01,0.02 -0.02,0.03 -0.01,0.02 -0.02,0.03 -0.02,0.03 -0.03,0.03 -0.02,0.03 -0.03,0.04 -0.02,0.02 -0.02,0.02 -0.01,0.02 -0.02,0.02 -0.02,0.02 -0.02,0.03 -0.02,0.02 -0.02,0.02 -0.03,0.03 -0.02,0.02 -0.02,0.03 -0.03,0.03 -0.03,0.03 -0.02,0.03 -0.03,0.03 -0.03,0.03 -0.03,0.03 -0.03,0.03 -0.04,0.04 -0.03,0.03 -0.04,0.04 -0.03,0.03 -0.04,0.04 -0.04,0.04 c -6.22,6.28 -7.81,15.69 -7.81,23.31 0,8.67 1.89,17.35 8.01,23.56 0.64,0.61 0.64,0.71 0.64,0.86 0,0.35 -0.18,0.49 -0.48,0.49 -0.5,0 -4.99,-3.38 -7.92,-9.7 -2.55,-5.49 -3.14,-11.02 -3.14,-15.21 0,-3.89 0.54,-9.9 3.28,-15.54 2.98,-6.13 7.28,-9.36 7.78,-9.36 0.3,0 0.48,0.14 0.48,0.5 z"
           inkscape:connector-curvature="0"
           style="fill:#000000;stroke-width:0" /><path
           id="path9665"
           d="m 536.03,421.45 -0.5,-0.34 -0.47,-0.35 -0.45,-0.35 -0.42,-0.35 -0.41,-0.36 -0.37,-0.36 -0.36,-0.36 -0.34,-0.37 -0.31,-0.36 -0.3,-0.37 -0.27,-0.36 -0.26,-0.36 -0.24,-0.36 -0.22,-0.36 -0.2,-0.35 -0.19,-0.35 -0.17,-0.34 -0.15,-0.34 -0.14,-0.33 -0.13,-0.32 -0.11,-0.32 -0.1,-0.3 -0.09,-0.3 -0.08,-0.28 -0.06,-0.28 -0.06,-0.26 -0.04,-0.25 -0.04,-0.24 -0.02,-0.22 -0.02,-0.21 -0.01,-0.19 0,-0.17 c 0,-2.39 1.34,-3.8 1.45,-3.94 1.59,-1.66 2.05,-1.84 5.78,-3.25 l 6.02,-2.33 c 0.75,-0.36 1.75,-0.7 1.75,-2.16 0,-1.14 -0.9,-2.64 -2.44,-2.64 -2.19,0 -3.84,1.21 -4.39,1.61 -0.3,0.19 -0.35,0.24 -0.55,0.24 -0.39,0 -0.5,-0.35 -0.5,-0.55 0,-0.59 2.64,-2.39 5.44,-2.39 3.09,0 5.17,2.89 5.17,5.34 0,2.39 -1.84,3.29 -2.39,3.54 -0.69,0.25 -2.39,0.89 -3.03,1.14 -1,0.4 -2,0.79 -3.05,1.15 l -2.98,1.19 c -2.24,0.91 -3.74,2.34 -3.74,4.44 0,2.04 1.94,6.37 6.13,8.47 1.84,-0.66 3.34,-0.66 4.39,-0.66 1.48,0 4.62,0 4.62,1.55 0,1.25 -2.14,1.34 -4.08,1.34 l -0.04,-1.09 c 1.73,0 1.94,-0.05 2.83,-0.3 -0.39,-0.2 -0.89,-0.39 -3.19,-0.39 -1.14,0 -1.6,0 -2.48,0.39 l 0,0 c 1.13,0.3 2.23,0.3 2.84,0.3 l 0.04,1.09 c -0.9,0 -2.34,0 -4.18,-0.59 -1.3,1.29 -1.5,2.93 -1.5,3.89 0,2.78 1.8,6.62 5.53,8.47 0.9,-1.1 2.05,-1.1 3.19,-1.1 l 0.06,1.1 c -0.95,0 -1.55,0 -2.1,0.45 l 0,0 c 0.8,0.25 1.85,0.25 2.4,0.25 1.68,0 1.89,-0.06 2.78,-0.31 -0.39,-0.14 -0.89,-0.39 -3.08,-0.39 l -0.06,-1.1 c 1.25,0 4.43,0 4.43,1.55 0,1.3 -2.18,1.34 -4.14,1.34 -0.64,0 -1.84,0 -3.12,-0.25 -0.16,0.44 -0.25,0.8 -0.25,1.64 0,0.71 0.25,1.75 0.25,1.85 0,0.39 -0.25,0.64 -0.61,0.64 -0.89,0 -0.89,-2.28 -0.89,-2.44 0,-1 0.29,-1.73 0.34,-1.94 -5.33,-1.5 -8.72,-5.48 -8.72,-9.31 0,-1.84 0.91,-3.94 3.24,-5.28 z"
           inkscape:connector-curvature="0"
           style="fill:#000000;stroke-width:0" /><path
           id="path9667"
           d="m 566.87,418.65 0,0.37 -0.01,0.39 -0.01,0.39 -0.01,0.41 -0.04,0.84 -0.06,0.88 -0.08,0.92 -0.11,0.95 -0.13,0.97 -0.17,1.01 -0.19,1.02 -0.23,1.03 -0.27,1.05 -0.31,1.06 -0.35,1.07 -0.39,1.07 -0.21,0.53 -0.23,0.53 -0.23,0.53 -0.25,0.53 c -2.99,6.12 -7.27,9.36 -7.77,9.36 -0.3,0 -0.5,-0.19 -0.5,-0.49 0,-0.15 0,-0.25 0.94,-1.15 4.89,-4.92 7.73,-12.85 7.73,-23.27 0,-8.51 -1.84,-17.28 -8.03,-23.56 -0.64,-0.59 -0.64,-0.7 -0.64,-0.84 0,-0.3 0.2,-0.5 0.5,-0.5 0.5,0 4.97,3.39 7.92,9.71 2.53,5.47 3.13,11 3.13,15.19 z"
           inkscape:connector-curvature="0"
           style="fill:#000000;stroke-width:0" /></g>    </g>
    <circle
       style="fill:#000000;fill-opacity:1;fill-rule:evenodd;stroke:#000000;stroke-width:1px;stroke-linecap:butt;stroke-linejoin:miter;stroke-opacity:1"
       id="path9741"
       cx="-297.32141"
       cy="431.78183"
       r="27.142857" />
    <circle
       r="27.142857"
       cy="291.78183"
       cx="45.535732"
       id="circle9743"
       style="fill:#000000;fill-opacity:1;fill-rule:evenodd;stroke:#000000;stroke-width:1px;stroke-linecap:butt;stroke-linejoin:miter;stroke-opacity:1" />
    <circle
       style="fill:#000000;fill-opacity:1;fill-rule:evenodd;stroke:#000000;stroke-width:1px;stroke-linecap:butt;stroke-linejoin:miter;stroke-opacity:1"
       id="circle9745"
       cx="376.96429"
       cy="363.21042"
       r="27.142857" />
    <circle
       r="27.142857"
       cy="257.49612"
       cx="902.67859"
       id="circle9747"
       style="fill:#000000;fill-opacity:1;fill-rule:evenodd;stroke:#000000;stroke-width:1px;stroke-linecap:butt;stroke-linejoin:miter;stroke-opacity:1" />
  </g>
</svg>
