<?xml version="1.0" encoding="UTF-8" standalone="no"?>
<!-- Created with Inkscape (http://www.inkscape.org/) -->

<svg
   xmlns:dc="http://purl.org/dc/elements/1.1/"
   xmlns:cc="http://creativecommons.org/ns#"
   xmlns:rdf="http://www.w3.org/1999/02/22-rdf-syntax-ns#"
   xmlns:svg="http://www.w3.org/2000/svg"
   xmlns="http://www.w3.org/2000/svg"
   xmlns:sodipodi="http://sodipodi.sourceforge.net/DTD/sodipodi-0.dtd"
   xmlns:inkscape="http://www.inkscape.org/namespaces/inkscape"
   sodipodi:docname="graficofunzione.svg"
   viewBox="0 0 511.64651 282.4935"
   height="282.4935"
   width="511.64651"
   inkscape:version="0.91 r13725"
   version="1.1"
   id="svg2">
  <sodipodi:namedview
     inkscape:current-layer="svg2"
     inkscape:window-maximized="1"
     inkscape:window-y="0"
     inkscape:window-x="0"
     inkscape:cy="149.81576"
     inkscape:cx="249.47005"
     inkscape:zoom="1.8637872"
     showgrid="false"
     id="namedview4"
     inkscape:window-height="1021"
     inkscape:window-width="1920"
     inkscape:pageshadow="2"
     inkscape:pageopacity="0"
     guidetolerance="10"
     gridtolerance="10"
     objecttolerance="10"
     borderopacity="1"
     bordercolor="#666666"
     pagecolor="#ffffff"
     fit-margin-top="0"
     fit-margin-left="0"
     fit-margin-right="0"
     fit-margin-bottom="0" />
  <metadata
     id="metadata8">
    <rdf:RDF>
      <cc:Work
         rdf:about="">
        <dc:format>image/svg+xml</dc:format>
        <dc:type
           rdf:resource="http://purl.org/dc/dcmitype/StillImage" />
        <dc:title></dc:title>
      </cc:Work>
    </rdf:RDF>
  </metadata>
  <defs
     id="defs6">
    <marker
       inkscape:stockid="Arrow1Lend"
       orient="auto"
       refY="0"
       refX="0"
       id="marker5368"
       style="overflow:visible"
       inkscape:isstock="true">
      <path
         id="path5370"
         d="M 0,0 5,-5 -12.5,0 5,5 0,0 Z"
         style="fill:#000000;fill-opacity:1;fill-rule:evenodd;stroke:#000000;stroke-width:1pt;stroke-opacity:1"
         transform="matrix(-0.8,0,0,-0.8,-10,0)"
         inkscape:connector-curvature="0" />
    </marker>
    <marker
       inkscape:isstock="true"
       style="overflow:visible"
       id="marker5274"
       refX="0"
       refY="0"
       orient="auto"
       inkscape:stockid="Arrow1Lend"
       inkscape:collect="always">
      <path
         transform="matrix(-0.8,0,0,-0.8,-10,0)"
         style="fill:#000000;fill-opacity:1;fill-rule:evenodd;stroke:#000000;stroke-width:1pt;stroke-opacity:1"
         d="M 0,0 5,-5 -12.5,0 5,5 0,0 Z"
         id="path5276"
         inkscape:connector-curvature="0" />
    </marker>
    <marker
       inkscape:stockid="Arrow1Lend"
       orient="auto"
       refY="0"
       refX="0"
       id="marker5146"
       style="overflow:visible"
       inkscape:isstock="true">
      <path
         id="path5148"
         d="M 0,0 5,-5 -12.5,0 5,5 0,0 Z"
         style="fill:#000000;fill-opacity:1;fill-rule:evenodd;stroke:#000000;stroke-width:1pt;stroke-opacity:1"
         transform="matrix(-0.8,0,0,-0.8,-10,0)"
         inkscape:connector-curvature="0" />
    </marker>
    <marker
       inkscape:isstock="true"
       style="overflow:visible"
       id="marker5068"
       refX="0"
       refY="0"
       orient="auto"
       inkscape:stockid="Arrow1Lend">
      <path
         transform="matrix(-0.8,0,0,-0.8,-10,0)"
         style="fill:#000000;fill-opacity:1;fill-rule:evenodd;stroke:#000000;stroke-width:1pt;stroke-opacity:1"
         d="M 0,0 5,-5 -12.5,0 5,5 0,0 Z"
         id="path5070"
         inkscape:connector-curvature="0" />
    </marker>
    <marker
       inkscape:stockid="Arrow1Lend"
       orient="auto"
       refY="0"
       refX="0"
       id="marker4944"
       style="overflow:visible"
       inkscape:isstock="true">
      <path
         id="path4946"
         d="M 0,0 5,-5 -12.5,0 5,5 0,0 Z"
         style="fill:#000000;fill-opacity:1;fill-rule:evenodd;stroke:#000000;stroke-width:1pt;stroke-opacity:1"
         transform="matrix(-0.8,0,0,-0.8,-10,0)"
         inkscape:connector-curvature="0" />
    </marker>
    <marker
       inkscape:isstock="true"
       style="overflow:visible"
       id="marker4840"
       refX="0"
       refY="0"
       orient="auto"
       inkscape:stockid="Arrow1Lend"
       inkscape:collect="always">
      <path
         transform="matrix(-0.8,0,0,-0.8,-10,0)"
         style="fill:#000000;fill-opacity:1;fill-rule:evenodd;stroke:#000000;stroke-width:1pt;stroke-opacity:1"
         d="M 0,0 5,-5 -12.5,0 5,5 0,0 Z"
         id="path4842"
         inkscape:connector-curvature="0" />
    </marker>
    <marker
       inkscape:stockid="Arrow1Lend"
       orient="auto"
       refY="0"
       refX="0"
       id="marker4774"
       style="overflow:visible"
       inkscape:isstock="true"
       inkscape:collect="always">
      <path
         id="path4776"
         d="M 0,0 5,-5 -12.5,0 5,5 0,0 Z"
         style="fill:#000000;fill-opacity:1;fill-rule:evenodd;stroke:#000000;stroke-width:1pt;stroke-opacity:1"
         transform="matrix(-0.8,0,0,-0.8,-10,0)"
         inkscape:connector-curvature="0" />
    </marker>
    <marker
       inkscape:isstock="true"
       style="overflow:visible"
       id="marker4515"
       refX="0"
       refY="0"
       orient="auto"
       inkscape:stockid="Arrow1Lend"
       inkscape:collect="always">
      <path
         transform="matrix(-0.8,0,0,-0.8,-10,0)"
         style="fill:#000000;fill-opacity:1;fill-rule:evenodd;stroke:#000000;stroke-width:1pt;stroke-opacity:1"
         d="M 0,0 5,-5 -12.5,0 5,5 0,0 Z"
         id="path4517"
         inkscape:connector-curvature="0" />
    </marker>
    <marker
       inkscape:stockid="Arrow1Lend"
       orient="auto"
       refY="0"
       refX="0"
       id="Arrow1Lend"
       style="overflow:visible"
       inkscape:isstock="true"
       inkscape:collect="always">
      <path
         id="path4248"
         d="M 0,0 5,-5 -12.5,0 5,5 0,0 Z"
         style="fill:#000000;fill-opacity:1;fill-rule:evenodd;stroke:#000000;stroke-width:1pt;stroke-opacity:1"
         transform="matrix(-0.8,0,0,-0.8,-10,0)"
         inkscape:connector-curvature="0" />
    </marker>
    <clipPath
       id="clipPath">
      <rect
         style="opacity:1;fill:none;fill-opacity:1;stroke:#000000;stroke-width:1;stroke-miterlimit:4;stroke-dasharray:12, 12;stroke-dashoffset:0;stroke-opacity:1"
         id="rect4142"
         width="2537.3767"
         height="1028.9122"
         x="39.456814"
         y="163.27254" />
    </clipPath>
  </defs>
  <path
     id="path4229"
     title="cos(x)"
     d="m 1.00238,142.30799 486.7605,0 m -243.38025,132.97705 0,-265.9540988 M 1.00238,67.499184 C 1.164796,-34.729419 1.327212,170.48312 1.489628,68.663434 1.652044,-33.156255 1.81446,171.28178 1.976875,69.870187 2.139291,-31.541408 2.301707,172.12306 2.464123,71.118745 2.626539,-29.885575 2.788955,173.00625 2.951371,72.408388 3.113787,-28.189476 3.276203,173.9306 3.438619,73.738372 3.601035,-26.453856 3.763451,174.89534 3.925866,75.107929 4.088282,-24.679482 4.250698,175.89968 4.413114,76.516269 4.57553,-22.867145 4.737946,176.94282 4.900362,77.96258 5.062778,-21.017657 5.225194,178.0239 5.38761,79.446025 c 0.162416,-98.577878 0.324832,99.696065 0.487247,1.519725 0.162416,-98.176339 0.324832,99.33075 0.487248,1.555127 0.162416,-97.775619 0.324832,98.965353 0.487248,1.589632 0.162416,-97.375719 0.324832,98.599861 0.487248,1.62322 0.162416,-96.97664 0.324832,98.234251 0.487247,1.655869 0.162416,-96.578378 0.324832,97.868502 0.487248,1.687565 0.162416,-96.1809371 0.324832,97.502597 0.487248,1.718285 0.162416,-95.7843147 0.324832,97.136532 0.487248,1.748015 0.162416,-95.3885125 0.324832,96.770267 0.487247,1.776735 0.162416,-94.99352946 0.324832,96.403792 0.487248,1.80443 0.162416,-94.5993659 0.324832,96.037102 0.487248,1.831081 0.162416,-94.2060191 0.324832,95.670181 0.487248,1.85668 0.162416,-93.813494 0.324832,95.303001 0.487247,1.881211 0.162416,-93.4217938 0.324832,94.93555 0.487248,1.90464 0.162416,-93.030903 0.324832,94.56783 0.487248,1.92699 0.162416,-92.640841 0.324832,94.19981 0.487248,1.94821 0.162416,-92.25159 0.324832,93.83149 0.487247,1.96832 0.162416,-91.863165 0.324832,93.46285 0.487248,1.98729 0.162416,-91.475561 0.324832,93.09387 0.487248,2.00511 0.162416,-91.088775 0.324832,92.72457 0.487248,2.02177 0.162416,-90.702806 0.324832,92.35491 0.487247,2.03726 0.162416,-90.317648 0.324832,91.98491 0.487248,2.05159 0.162416,-89.933319 0.324832,91.61454 0.487248,2.06473 0.162416,-89.549812 0.324832,91.24379 0.487248,2.07667 0.162416,-89.167119 0.324832,90.87267 0.487247,2.08742 0.162416,-88.785248 0.324832,90.50116 0.487248,2.09696 0.162416,-88.404195 0.324832,90.12926 0.487248,2.1053 0.162416,-88.023968 0.324832,89.75696 0.487248,2.11241 0.162416,-87.644554 0.324831,89.38426 0.487247,2.11831 0.162416,-87.265961 0.324832,89.01116 0.487248,2.12298 0.162416,-86.888182 0.324832,88.63766 0.487248,2.12644 0.162416,-86.511233 0.324832,88.26375 0.487248,2.12865 0.162416,-86.135089 0.324831,87.88943 0.487247,2.12966 0.162416,-85.759781 0.324832,87.51469 0.487248,2.12941 0.162416,-85.385276 0.324832,87.13956 0.487248,2.12796 0.162416,-85.011605 0.324832,86.76401 0.487248,2.12526 0.162416,-84.638744 0.324831,86.38805 0.487247,2.12135 0.162416,-84.266711 0.324832,86.01169 0.487248,2.1162 0.162416,-83.89549 0.324832,85.63493 0.487248,2.10984 0.162416,-83.525092 0.324832,85.25777 0.487248,2.10226 0.162416,-83.155515 0.324831,84.88021 0.487247,2.09346 0.162416,-82.786751 0.324832,84.50227 0.487248,2.08346 0.162416,-82.418811 0.324832,84.12394 0.487248,2.07225 0.162416,-82.051684 0.324832,83.74525 0.487248,2.05986 0.162416,-81.685389 0.324831,83.36617 0.487247,2.04626 0.162416,-81.319902 0.324832,82.98674 0.487248,2.0315 0.162416,-80.955246 0.324832,82.60694 0.487248,2.01555 0.162416,-80.591403 0.324832,82.22681 0.487248,1.99844 0.162416,-80.228376 0.324831,81.84635 0.487247,1.98018 0.162416,-79.866169 0.324832,81.46557 0.487248,1.96078 0.162416,-79.504781 0.324832,81.08447 0.487248,1.94025 0.162416,-79.14422 0.324832,80.70306 0.487248,1.91859 0.162416,-78.78447 0.324831,80.32138 0.487247,1.89583 0.162416,-78.42554 0.324832,79.93942 0.487248,1.87198 0.162416,-78.06744 0.324832,79.55719 0.487248,1.84704 0.162416,-77.71016 0.324832,79.17472 0.487248,1.82103 0.162416,-77.35368 0.324831,78.79202 0.487247,1.79399 0.162416,-76.99804 0.324832,78.4091 0.487248,1.7659 0.162416,-76.64321 0.324832,78.02598 0.487248,1.73678 0.162416,-76.28919 0.324832,77.64269 0.487248,1.70668 0.162416,-75.936 0.324831,77.25922 0.487247,1.67559 0.162416,-75.58364 0.324832,76.87561 0.487248,1.64352 0.162416,-75.23208 0.324832,76.49187 0.487248,1.61052 0.162416,-74.88136 0.324832,76.10801 0.487248,1.57657 0.162416,-74.53144 0.324831,75.72407 0.487247,1.54172 0.162416,-74.18234 0.324832,75.34006 0.487248,1.50599 0.162416,-73.83408 0.324832,74.95599 0.487248,1.46937 0.162416,-73.48662 0.324832,74.57191 0.487248,1.43192 0.162415,-73.13998 0.324831,74.18781 0.487247,1.39364 0.162416,-72.79417 0.324832,73.80373 0.487248,1.35455 0.162416,-72.44917 0.324832,73.41968 0.487248,1.31468 0.162416,-72.105 0.324832,73.0357 0.487248,1.27405 0.162415,-71.76164 0.324831,72.6518 0.487247,1.2327 0.162416,-71.41911 0.324832,72.268 0.487248,1.19061 0.162416,-71.07739 0.324832,71.88434 0.487248,1.14786 0.162416,-70.73649 0.324832,71.50084 0.487248,1.10443 0.162415,-70.39641 0.324831,71.11752 0.487247,1.06037 0.162416,-70.05716 0.324832,70.7344 0.487248,1.01569 0.162416,-69.71871 0.324832,70.35153 0.487248,0.97044 0.162416,-69.38109 0.324832,69.9689 0.487248,0.92461 0.162415,-69.04428 0.324831,69.58658 0.487247,0.87827 0.162416,-68.70831 0.324832,69.20455 0.487248,0.8314 0.162416,-68.37314 0.324832,68.82287 0.487248,0.78407 0.162416,-68.03881 0.324832,68.44155 0.487248,0.73627 0.162415,-67.70528 0.324831,68.06063 0.487247,0.68805 0.162416,-67.37258 0.324832,67.68013 0.487248,0.63944 0.162416,-67.04069 0.324832,67.30009 0.487248,0.59046 0.162416,-66.70963 0.324832,66.92051 0.487248,0.54113 0.162415,-66.37938 0.324831,66.54145 0.487247,0.4915 0.162416,-66.04996 0.324832,66.16292 0.487248,0.44157 0.162416,-65.72135 0.324832,65.78497 0.487248,0.3914 0.162416,-65.39356 0.324832,65.4076 0.487248,0.341 0.162415,-65.0666 0.324831,65.03085 0.487247,0.2904 0.162416,-64.74045 0.324832,64.65476 0.487248,0.23964 0.162416,-64.41512 0.324832,64.27935 0.487248,0.18873 0.162416,-64.09061 0.324832,63.90465 0.487248,0.13772 0.162415,-63.76692 0.324831,63.53069 0.487247,0.0866 0.162416,-63.44405 0.324832,63.15749 0.487248,0.0355 0.162416,-63.122 0.324832,62.78509 0.487248,-0.0157 0.162416,-62.80077 0.324832,62.41353 0.487248,-0.0668 0.162415,-62.48035 0.324831,62.04283 0.487247,-0.11794 0.162416,-62.16077 0.324832,61.673 0.487248,-0.16899 0.162416,-61.84199 0.324832,61.3041 0.487248,-0.21994 0.162416,-61.52404 0.324832,60.93615 0.487247,-0.27076 0.162416,-61.20691 0.324832,60.56916 0.487248,-0.32143 0.162416,-60.89059 0.324832,60.20319 0.487248,-0.37191 0.162416,-60.5751 0.324832,59.83825 0.487248,-0.42217 0.162416,-60.26043 0.324832,59.47437 0.487247,-0.4722 0.162416,-59.94657 0.324832,59.11158 0.487248,-0.52195 0.162416,-59.63353 0.324832,58.74992 0.487248,-0.57139 0.162416,-59.32132 0.324832,58.3894 0.487248,-0.62052 0.162416,-59.00991 0.324832,58.03007 0.487247,-0.66927 0.162416,-58.69934 0.324832,57.67193 0.487248,-0.71765 0.162416,-58.38958 0.324832,57.31503 0.487248,-0.76561 0.162416,-58.08064 0.324832,56.95939 0.487248,-0.81313 0.162416,-57.77252 0.324832,56.60505 0.487247,-0.86017 0.162416,-57.46522 0.324832,56.25201 0.487248,-0.90673 0.162416,-57.15874 0.324832,55.90032 0.487248,-0.95276 0.162416,-56.85308 0.324832,55.55 0.487248,-0.99824 0.162416,-56.54824 0.324832,55.20108 0.487247,-1.04314 0.162416,-56.24422 0.324832,54.85357 0.487248,-1.08744 0.162416,-55.94102 0.324832,54.50751 0.487248,-1.13112 0.162416,-55.63863 0.324832,54.16293 0.487248,-1.17414 0.162416,-55.33706 0.324832,53.81984 0.487247,-1.21648 0.162416,-55.03632 0.324832,53.47828 0.487248,-1.25812 0.162416,-54.7364 0.324832,53.13825 0.487248,-1.29904 0.162416,-54.43729 0.324832,52.79981 0.487248,-1.3392 0.162416,-54.139 0.324832,52.46294 0.487247,-1.37859 0.162416,-53.84154 0.324832,52.12769 0.487248,-1.4172 0.162416,-53.54489 0.324832,51.7941 0.487248,-1.45497 0.162416,-53.24906 0.324832,51.46215 0.487248,-1.49191 0.162416,-52.95405 0.324832,51.13188 0.487247,-1.52799 0.162416,-52.65987 0.324832,50.80332 0.487248,-1.56318 0.162416,-52.3665 0.324832,50.47647 0.487248,-1.59748 0.162416,-52.07395 0.324832,50.15136 0.487248,-1.63085 0.162416,-51.78222 0.324832,49.82802 0.487247,-1.66329 0.162416,-51.49131 0.324832,49.50646 0.487248,-1.69475 0.162416,-51.20122 0.324832,49.18669 0.487248,-1.72525 0.162416,-50.91194 0.324832,48.86875 0.487248,-1.75475 0.162416,-50.62349 0.324831,48.55263 0.487247,-1.78323 0.162416,-50.33585 0.324832,48.23836 0.487248,-1.81068 0.162416,-50.04905 0.324832,47.92595 0.487248,-1.8371 0.162416,-49.76305 0.324832,47.61543 0.487248,-1.86244 0.162416,-49.47788 0.324831,47.3068 0.487247,-1.88673 0.162416,-49.19352 0.324832,47.00008 0.487248,-1.90991 0.162416,-48.90998 0.324832,46.69528 0.487248,-1.93199 0.162416,-48.62727 0.324832,46.39241 0.487248,-1.95296 0.162416,-48.34537 0.324831,46.09149 0.487247,-1.97281 0.162416,-48.06429 0.324832,45.79253 0.487248,-1.9915 0.162416,-47.78404 0.324832,45.49553 0.487248,-2.00907 0.162416,-47.5046 0.324832,45.20053 0.487248,-2.02546 0.162416,-47.22598 0.324831,44.9075 0.487247,-2.04068 0.162416,-46.94818 0.324832,44.61647 0.487248,-2.05473 0.162416,-46.6712 0.324832,44.32745 0.487248,-2.0676 0.162416,-46.39504 0.324832,44.04044 0.487248,-2.07926 0.162416,-46.1197 0.324831,43.75545 0.487247,-2.08973 0.162416,-45.84518 0.324832,43.47248 0.487248,-2.099 0.162416,-45.57148 0.324832,43.19155 0.487248,-2.10705 0.162416,-45.29859 0.324832,42.91265 0.487248,-2.11388 0.162416,-45.02653 0.324831,42.63579 0.487247,-2.1195 0.162416,-44.75529 0.32483,42.36098 0.48725,-2.12389 0.16241,-44.48486 0.32483,42.0882 0.48725,-2.12706 0.16241,-44.21526 0.32483,41.81748 0.48724,-2.12899 0.16242,-43.946481 0.32484,41.5488 0.48725,-2.12971 0.16242,-43.678511 0.32483,41.28217 0.48725,-2.12919 0.16242,-43.411365 0.32483,41.01759 0.48725,-2.12744 0.16241,-43.14504 0.32483,40.75506 0.48724,-2.12447 0.16242,-42.879529 0.32484,40.49458 0.48725,-2.12026 0.16242,-42.614846 0.32483,40.23613 0.48725,-2.11484 0.16242,-42.350977 0.32483,39.97973 0.48725,-2.1082 0.16241,-42.087922 0.32483,39.72537 0.48725,-2.10033 0.16241,-41.825695 0.32483,39.47303 0.48724,-2.09126 0.16242,-41.564282 0.32484,39.22272 0.48725,-2.08097 0.16242,-41.303698 0.32483,38.97443 0.48725,-2.0695 0.16241,-41.043921 0.32483,38.72816 0.48725,-2.05681 0.16241,-40.784977 0.32483,38.48388 0.48724,-2.04296 0.16242,-40.526838 0.32484,38.24162 0.48725,-2.02791 0.16242,-40.269526 0.32483,38.00134 0.48725,-2.0117 0.16242,-40.013031 0.32483,37.76304 0.48725,-1.99432 0.16241,-39.757361 0.32483,37.52671 0.48725,-1.9758 0.16241,-39.502505 0.32483,37.29234 0.48724,-1.95613 0.16242,-39.248473 0.32483,37.05992 0.48725,-1.93534 0.16242,-38.995257 0.32483,36.82943 0.48725,-1.91343 0.16241,-38.742859 0.32483,36.60087 0.48725,-1.89041 0.16241,-38.491284 0.32483,36.37422 0.48724,-1.866301 0.16242,-38.240532 0.32484,36.149461 0.48725,-1.84113 0.16242,-37.990586 0.32483,35.926601 0.48725,-1.814872 0.16242,-37.741472 0.32483,35.705593 0.48725,-1.787582 0.16241,-37.493174 0.32483,35.486435 0.48725,-1.759257 0.16241,-37.245694 0.32483,35.269122 0.48724,-1.729916 0.16242,-36.999035 0.32483,35.053618 0.48725,-1.699577 0.16242,-36.753195 0.32483,34.839915 0.48725,-1.668258 0.16241,-36.508174 0.32483,34.628003 0.48725,-1.635975 0.16241,-36.263972 0.32483,34.417848 0.48724,-1.602748 0.162421,-36.020591 0.324841,34.209436 0.487251,-1.568596 0.16242,-35.778029 0.32483,34.002752 0.48725,-1.533539 0.16242,-35.536286 0.32483,33.797771 0.48725,-1.497597 0.16241,-35.295363 0.32483,33.594468 0.48724,-1.460791 0.16242,-35.055259 0.32484,33.392839 0.48725,-1.423141 0.16242,-34.815975 0.32483,33.19284 0.48725,-1.38467 0.16242,-34.57751 0.32483,32.99446 0.48725,-1.345401 0.16241,-34.339864 0.32483,32.797681 0.48725,-1.305354 0.16241,-34.103038 0.32483,32.602475 0.48724,-1.264554 0.16242,-33.867032 0.32484,32.408819 0.48725,-1.223025 0.16242,-33.631845 0.32483,32.216684 0.48725,-1.18079 0.16241,-33.397477 0.32483,32.026053 0.48725,-1.137872 0.16241,-33.16393 0.32483,31.836905 0.48724,-1.094299 0.16242,-32.931201 0.32484,31.649194 0.48725,-1.050094 0.16242,-32.699292 0.32483,31.462919 0.48725,-1.005283 0.16242,-32.468202 0.32483,31.27804 0.48725,-0.959891 0.16241,-32.237932 0.32483,31.094534 0.48725,-0.913947 0.16241,-32.008481 0.32483,30.912377 0.48724,-0.867473 0.16242,-31.77985 0.32484,30.731538 0.48725,-0.8205 0.16242,-31.552038 0.32483,30.551992 0.48725,-0.773053 0.16241,-31.325046 0.32483,30.373712 0.48725,-0.725161 0.16241,-31.098872 0.32483,30.196671 0.48724,-0.676848 0.16242,-30.873519 0.32484,30.020839 0.48725,-0.628146 0.16242,-30.648986 0.32483,29.846189 0.48725,-0.579082 0.16242,-30.425271 0.32483,29.672693 0.48725,-0.529683 0.16241,-30.202376 0.32483,29.500323 0.48725,-0.479978 0.16241,-29.9803 0.32483,29.329048 0.48724,-0.429996 0.16242,-29.759044 0.32483,29.158841 0.48725,-0.379767 0.16242,-29.538608 0.32483,28.989673 0.48725,-0.329317 0.16241,-29.318991 0.32483,28.821514 0.48725,-0.278679 0.16241,-29.100193 0.32483,28.654336 0.48724,-0.227879 0.16242,-28.882215 0.32484,28.488109 0.48725,-0.176947 0.16242,-28.665056 0.32483,28.322802 0.48725,-0.125914 0.16242,-28.448717 0.32483,28.158389 0.48725,-0.07481 0.16241,-28.233197 0.32483,27.994838 0.48724,-0.02366 0.16242,-28.018496 0.32484,27.832121 0.48725,0.02751 0.16242,-27.804616 0.32483,27.670206 0.48725,0.07865 0.16242,-27.591555 0.32483,27.509065 0.48725,0.129753 0.16241,-27.379312 0.32483,27.34867 0.48725,0.18078 0.16241,-27.16789 0.32483,27.18899 0.48724,0.231703 0.16242,-26.957287 0.32484,27.029995 0.48725,0.282491 0.16242,-26.747503 0.32483,26.871657 0.48725,0.333118 0.16242,-26.53854 0.32483,26.713945 0.48725,0.38355 0.16241,-26.330394 0.32483,26.556833 0.48724,0.433763 0.16242,-26.123069 0.32484,26.400289 0.48725,0.483725 0.16242,-25.916564 0.32483,26.244285 0.48725,0.533407 0.16242,-25.710877 0.32483,26.088793 0.48725,0.582782 0.16241,-25.506011 0.32483,25.933785 0.48725,0.631821 0.16241,-25.301964 0.32483,25.77923 0.48724,0.680494 0.16242,-25.098736 0.32484,25.625103 0.48725,0.728776 0.16242,-24.896328 0.32483,25.471374 0.48725,0.776636 0.16241,-24.694739 0.32483,25.318017 0.48725,0.824048 0.16241,-24.493969 0.32483,25.165004 0.48724,0.870985 0.16242,-24.29402 0.32484,25.012308 0.48725,0.917419 0.16242,-24.094889 0.32483,24.859901 0.48725,0.963323 0.16242,-23.896578 0.32483,24.707759 0.48725,1.008672 0.16241,-23.699086 0.32483,24.555853 0.48725,1.053439 0.16241,-23.502414 0.32483,24.404158 0.48724,1.097597 0.16242,-23.306562 0.32483,24.25265 0.48725,1.141122 0.16242,-23.111529 0.32483,24.101303 0.48725,1.183988 0.16241,-22.917314 0.32483,23.950093 0.48725,1.226172 0.16241,-22.72392 0.32483,23.798993 0.48724,1.267647 0.16242,-22.531346 0.32484,23.647982 0.48725,1.308392 0.16242,-22.339591 0.32483,23.497034 0.48725,1.348379 0.16242,-22.148654 0.32483,23.34613 0.48725,1.387591 0.16241,-21.958538 0.32483,23.195239 0.48725,1.426 0.16241,-21.769241 0.32483,23.04435 0.48724,1.463588 0.16242,-21.580765 0.32483,22.893432 0.48725,1.500329 0.16242,-21.393106 0.32483,22.742473 0.48725,1.536206 0.16241,-21.206268 0.32483,22.591447 0.48725,1.571195 0.16241,-21.020249 0.32483,22.440332 0.48724,1.605278 0.16242,-20.835049 0.32484,22.289104 0.48725,1.638435 0.16242,-20.650669 0.32483,22.137759 0.48725,1.670646 0.16242,-20.467109 0.32483,21.986263 0.48725,1.701892 0.16241,-20.284367 0.32483,21.834601 0.48724,1.732157 0.16242,-20.102446 0.32484,21.682764 0.48725,1.761422 0.16242,-19.921344 0.32483,21.530732 0.48725,1.789669 0.16242,-19.74106 0.32483,21.378483 0.48725,1.816882 0.16241,-19.561594 0.32483,21.226011 0.48725,1.84306 0.16241,-19.382958 0.32483,21.073281 0.48724,1.868151 0.16242,-19.205129 0.32484,20.92031 0.48725,1.89218 0.16242,-19.028124 0.32483,20.76705 0.48725,1.91511 0.16242,-18.851935 0.32483,20.61352 0.48725,1.93695 0.16241,-18.676578 0.32483,20.45967 0.48724,1.95765 0.16242,-18.502031 0.32484,20.30553 0.48725,1.97723 0.16242,-18.328303 0.32483,20.15106 0.48725,1.99567 0.16242,-18.155396 0.32483,19.99626 0.48725,2.01295 0.16241,-17.983301 0.32483,19.84112 0.48725,2.02909 0.16241,-17.812041 0.32483,19.68562 0.48724,2.04403 0.16242,-17.64158 0.32484,19.52977 0.48725,2.05782 0.16242,-17.47196 0.32483,19.37354 0.48725,2.07039 0.16241,-17.30314 0.32483,19.21695 0.48725,2.0818 0.16241,-17.13516 0.32483,19.05996 0.48724,2.09198 0.16242,-16.96799 0.32484,18.9026 0.48725,2.10096 0.16242,-16.80163 0.32483,18.74484 0.48725,2.10874 0.16242,-16.6361 0.32483,18.58668 0.48725,2.11529 0.16241,-16.47139 0.32483,18.42812 0.48725,2.12062 0.16241,-16.30749 0.32483,18.26915 0.48724,2.12473 0.16242,-16.14442 0.32483,18.10979 0.48725,2.12762 0.16242,-15.98217 0.32483,17.95 0.48725,2.12927 0.16241,-15.82073 0.32483,17.78981 0.48725,2.1297 0.16241,-15.66012 0.32483,17.62921 0.48724,2.12889 0.16242,-15.50032 0.32484,17.46821 0.48725,2.12686 0.16242,-15.34134 0.32483,17.30679 0.48725,2.12361 0.16242,-15.18319 0.32483,17.14497 0.48725,2.11912 0.16241,-15.02585 0.32483,16.98274 0.48725,2.11341 0.16241,-14.86933 0.32483,16.82011 0.48724,2.10648 0.16242,-14.71363 0.32483,16.6571 0.48725,2.09834 0.16242,-14.55875 0.32483,16.49368 0.48725,2.08899 0.16241,-14.40469 0.32483,16.32988 0.48725,2.07843 0.16241,-14.25145 0.32483,16.1657 0.48724,2.06667 0.16242,-14.09903 0.32484,16.00115 0.48725,2.05372 0.16242,-13.94743 0.32483,15.83622 0.48725,2.03958 0.16242,-13.79665 0.32483,15.67095 0.48725,2.02426 0.16241,-13.64668 0.32483,15.50533 0.48724,2.00779 0.16242,-13.49755 0.32484,15.33936 0.48725,1.99014 0.16242,-13.34922 0.32483,15.17307 0.48725,1.97135 0.16242,-13.20171 0.32483,15.00646 0.48725,1.95143 0.16241,-13.05503 0.32483,14.83953 0.48725,1.93037 0.16241,-12.90917 0.32483,14.67232 0.48724,1.9082 0.16242,-12.76412 0.32484,14.50483 0.48725,1.88494 0.16242,-12.6199 0.32483,14.33706 0.48725,1.86057 0.16241,-12.47648 0.32483,14.16905 0.48725,1.83515 0.16241,-12.3339 0.32483,14.00079 0.48724,1.80866 0.16242,-12.19213 0.32484,13.83231 0.48725,1.78112 0.16242,-12.05118 0.32483,13.66362 0.48725,1.75257 0.16242,-11.91106 0.32483,13.49473 0.48725,1.72299 0.16241,-11.77175 0.32483,13.32567 0.48725,1.69242 0.16241,-11.63326 0.32483,13.15646 0.48724,1.66088 0.16242,-11.49559 0.32484,12.98711 0.48725,1.62837 0.16242,-11.35873 0.32483,12.81764 0.48725,1.59494 0.16241,-11.22271 0.32483,12.64806 0.48725,1.56057 0.16241,-11.08749 0.32483,12.4784 0.48724,1.5253 0.16242,-10.95309 0.32484,12.30869 0.48725,1.48917 0.16242,-10.81953 0.32483,12.13893 0.48725,1.45216 0.16242,-10.68677 0.32483,11.96915 0.48725,1.41432 0.16241,-10.55484 0.32483,11.79938 0.48725,1.37566 0.16241,-10.42373 0.32483,11.62963 0.48724,1.33621 0.16242,-10.29343 0.32483,11.45993 0.48725,1.29598 0.16242,-10.16395 0.32483,11.29031 0.48725,1.25502 0.16241,-10.03529 0.32483,11.12078 0.48725,1.21332 0.16241,-9.90746 0.32483,10.95137 0.48724,1.17093 0.16242,-9.78044 0.32484,10.7821 0.48725,1.12785 0.16242,-9.65424 0.32483,10.613 0.48725,1.08414 0.16242,-9.52887 0.32483,10.44409 0.48725,1.03978 0.16241,-9.4043 0.32483,10.27541 0.48724,0.99484 0.16242,-9.28056 0.32484,10.10696 0.48725,0.94932 0.16242,-9.15765 0.32483,9.93879 0.48725,0.90325 0.16242,-9.03555 0.32483,9.77092 0.48725,0.85665 0.16241,-8.91426 0.32483,9.60338 0.48725,0.80957 0.16241,-8.7938 0.32483,9.43618 0.48724,0.76202 0.16242,-8.67416 0.32484,9.26937 0.48725,0.71403 0.16242,-8.55534 0.32483,9.10296 0.48725,0.66562 0.16242,-8.43733 0.32483,8.93698 0.48725,0.61683 0.16241,-8.32015 0.32483,8.77148 0.48724,0.56769 0.16242,-8.20378 0.32484,8.60646 0.48725,0.51822 0.16242,-8.08824 0.32483,8.44196 0.48725,0.46845 0.16242,-7.97352 0.32483,8.27801 0.48725,0.4184 0.16241,-7.85961 0.32483,8.11464 0.48725,0.36812 0.16241,-7.74652 0.32483,7.95188 0.48724,0.31763 0.16242,-7.63426 0.32484,7.78975 0.48725,0.26694 0.16242,-7.52281 0.32483,7.6283 0.48725,0.21612 0.16241,-7.41218 0.32483,7.46753 0.48725,0.16515 0.16241,-7.30237 0.32483,7.30749 0.48724,0.11411 0.16242,-7.19339 0.32484,7.14819 0.48725,0.063 0.16242,-7.08521 0.32483,6.98969 0.48725,0.0118 0.16242,-6.97786 0.32483,6.832 0.48725,-0.0393 0.16241,-6.87133 0.32483,6.67515 0.48725,-0.0905 0.16241,-6.76563 0.32483,6.51917 0.48724,-0.14156 0.16242,-6.66073 0.32483,6.36409 0.48725,-0.19257 0.16242,-6.55665 0.32483,6.20995 0.48725,-0.24346 0.16241,-6.4534 0.32483,6.05676 0.48725,-0.29421 0.16241,-6.35097 0.32483,5.90456 0.48724,-0.34479 0.16242,-6.24936 0.32484,5.75338 0.48725,-0.39518 0.16242,-6.14857 0.32483,5.60325 0.48725,-0.44534 0.16242,-6.04859 0.32483,5.45419 0.48725,-0.49524 0.16241,-5.94943 0.32483,5.30625 0.48725,-0.54485 0.16241,-5.8511 0.32483,5.15943 0.48724,-0.59415 0.16242,-5.75358 0.32483,5.01377 0.48725,-0.64311 0.16242,-5.65688 0.32483,4.86931 0.48725,-0.69169 0.16241,-5.56101 0.32483,4.72607 0.48725,-0.73988 0.16241,-5.46595 0.32483,4.58407 0.48724,-0.78764 0.16242,-5.37171 0.32484,4.44334 0.48725,-0.83494 0.16242,-5.27829 0.32483,4.30392 0.48725,-0.88177 0.16242,-5.18569 0.32483,4.16583 0.48725,-0.92808 0.16241,-5.09391 0.32483,4.02909 0.48724,-0.97386 0.16242,-5.00295 0.32484,3.89373 0.48725,-1.01907 0.16242,-4.91281 0.32483,3.75978 0.48725,-1.06371 0.16242,-4.82348 0.32483,3.62727 0.48725,-1.10772 0.16241,-4.73498 0.32483,3.49621 0.48725,-1.15109 0.16241,-4.6473 0.32483,3.36664 0.48724,-1.1938 0.16242,-4.56044 0.32484,3.23857 0.48725,-1.23583 0.16242,-4.47439 0.32483,3.11204 0.48725,-1.27713 0.16242,-4.38917 0.32483,2.98706 0.48725,-1.3177 0.16241,-4.30477 0.32483,2.86366 0.48724,-1.35752 0.16242,-4.22118 0.32484,2.74187 0.48725,-1.39654 0.16242,-4.13841 0.32483,2.6217 0.48725,-1.43477 0.16242,-4.05646 0.32483,2.50318 0.48725,-1.47216 0.16241,-3.97533 0.32483,2.38633 0.48725,-1.5087 0.16241,-3.89503 0.32483,2.27117 0.48724,-1.54437 0.16242,-3.81554 0.32484,2.15771 0.48725,-1.57916 0.16242,-3.73687 0.32483,2.046 0.48725,-1.61303 0.16241,-3.65902 0.32483,1.93603 0.48725,-1.64596 0.16241,-3.582 0.32483,1.82782 0.48724,-1.67796 0.16242,-3.50578 0.32484,1.72141 0.48725,-1.70898 0.16242,-3.43039 0.32483,1.61681 0.48725,-1.73901 0.16242,-3.35582 0.32483,1.51402 0.48725,-1.76804 0.16241,-3.28207 0.32483,1.41308 0.48725,-1.79606 0.16241,-3.20913 0.32483,1.31399 0.48724,-1.82303 0.16242,-3.13702 0.32483,1.21678 0.48725,-1.84895 0.16242,-3.06573 0.32483,1.12145 0.48725,-1.8738 0.16241,-2.99526 0.32483,1.02801 0.48725,-1.89758 0.16241,-2.9256 0.32483,0.9365 0.48724,-1.92026 0.16242,-2.85677 0.32484,0.84692 0.48725,-1.94183 0.16242,-2.78875 0.32483,0.75927 0.48725,-1.96228 0.16242,-2.72155 0.32483,0.67358 0.48725,-1.9816 0.16241,-2.65517 0.32483,0.58985 0.48725,-1.99977 0.16241,-2.58961 0.32483,0.50809 0.48724,-2.01679 0.16242,-2.52488 0.32483,0.42832 0.48725,-2.03264 0.16242,-2.46096 0.32483,0.35054 0.48725,-2.04733 0.16241,-2.39786 0.32483,0.27476 0.48725,-2.06082 0.16241,-2.33559 0.32483,0.20098 0.48724,-2.07314 0.16242,-2.27413 0.32484,0.12922 0.48725,-2.08426 0.16242,-2.21348 0.32483,0.0595 0.48725,-2.09416 0.16242,-2.15367 0.32483,-0.008 0.48725,-2.10287 0.16241,-2.09466 0.32483,-0.0739 0.48724,-2.11036 0.16242,-2.03648 0.32484,-0.13752 0.48725,-2.11664 0.16242,-1.97911 0.32483,-0.19911 0.48725,-2.12168 0.16242,-1.92257 0.32483,-0.25866 0.48725,-2.12551 0.16241,-1.86684 0.32483,-0.31616 0.48725,-2.1281 0.16241,-1.81195 0.32483,-0.37162 0.48724,-2.12948 0.16242,-1.75786 0.32484,-0.42503 0.48725,-2.12962 0.16242,-1.7046 0.32483,-0.47639 0.48725,-2.12854 0.16241,-1.65214 0.32483,-0.52569 0.48725,-2.12621 0.16241,-1.60053 0.32483,-0.57297 0.48724,-2.12268 0.16242,-1.54971 0.32484,-0.61818 0.48725,-2.11791 0.16242,-1.49972 0.32483,-0.66136 0.48725,-2.11192 0.16242,-1.45055 0.32483,-0.7025 0.48725,-2.10471 0.16241,-1.40221 0.32483,-0.7416 0.48725,-2.09628 0.16241,-1.35468 0.32483,-0.77868 0.48724,-2.08665 0.16242,-1.30798 0.32484,-0.81374 0.48725,-2.07582 0.16242,-1.26208 0.32483,-0.84677 0.48725,-2.06378 0.16241,-1.21701 0.32483,-0.87779 0.48725,-2.05055 0.16241,-1.17276 0.32483,-0.90682 0.48724,-2.03615 0.16242,-1.12933 0.32484,-0.93384 0.48725,-2.02056 0.16242,-1.08671 0.32483,-0.95888 0.48725,-2.0038 0.16242,-1.04493 0.32483,-0.98195 0.48725,-1.9859 0.16241,-1.00395 0.32483,-1.00305 0.48725,-1.96685 0.16241,-0.9638 0.32483,-1.0222 0.48724,-1.94666 0.16242,-0.92446 0.32483,-1.0394 0.48725,-1.92534 0.16242,-0.88595 0.32483,-1.05467 0.48725,-1.90292 0.16241,-0.84825 0.32483,-1.06803 0.48725,-1.879401 0.16241,-0.81138 0.32483,-1.07948 0.48724,-1.8548 0.16242,-0.77531 0.32484,-1.08903 0.48725,-1.829112 0.16242,-0.740081 0.32483,-1.096721 0.48725,-1.802384 0.16242,-0.705664 0.32483,-1.102546 0.48725,-1.774612 0.16241,-0.672065 0.32483,-1.106527 0.48724,-1.745814 0.16242,-0.639287 0.32484,-1.108683 0.48725,-1.71601 0.16242,-0.607328 0.32483,-1.109028 0.48725,-1.685216 0.16242,-0.576187 0.32483,-1.10758 0.48725,-1.653448 0.16241,-0.545867 0.32483,-1.10436 0.48725,-1.620726 0.16241,-0.516367 0.32483,-1.099385 0.48724,-1.58707 0.16242,-0.487685 0.32484,-1.092673 0.48725,-1.552497 0.16242,-0.459823 0.32483,-1.084246 0.48725,-1.517027 0.16242,-0.432781 0.32483,-1.074126 0.48725,-1.480684 0.16241,-0.406558 0.32483,-1.06233 0.48724,-1.443485 0.16242,-0.381154 0.32484,-1.048882 0.48725,-1.405452 0.16242,-0.356571 0.32483,-1.033804 0.48725,-1.36661 0.16242,-0.332806 0.32483,-1.017116 0.48725,-1.326977 0.16241,-0.309861 0.32483,-0.998845 0.48725,-1.28658 0.16241,-0.287736 0.32483,-0.979011 0.48724,-1.24544 0.16242,-0.26643 0.32484,-0.957639 0.48725,-1.203581 0.16242,-0.245943 0.32483,-0.934752 0.48725,-1.161028 0.16241,-0.226275 0.32483,-0.910376 0.48725,-1.117803 0.16241,-0.207428 0.32483,-0.884536 0.48724,-1.073936 0.16242,-0.189399 0.32484,-0.857256 0.48725,-1.029446 0.16242,-0.172191 0.32483,-0.828563 0.48725,-0.984364 0.16242,-0.155801 0.32483,-0.798482 0.48725,-0.938713 0.16241,-0.140231 0.32483,-0.76704 0.48725,-0.892521 0.16241,-0.125481 0.32483,-0.734263 0.48724,-0.845813 0.16242,-0.11155 0.32483,-0.700179 0.48725,-0.798617 0.16242,-0.09844 0.32483,-0.664814 0.48725,-0.750961 0.16241,-0.08615 0.32483,-0.628196 0.48725,-0.70287 0.16241,-0.07467 0.32483,-0.590354 0.48724,-0.654375 0.16242,-0.06402 0.32484,-0.551315 0.48725,-0.605502 0.16242,-0.05419 0.32483,-0.511105 0.48725,-0.556279 0.16242,-0.04517 0.32483,-0.469756 0.48725,-0.506735 0.16241,-0.03698 0.32483,-0.427295 0.48725,-0.456898 0.16241,-0.0296 0.32483,-0.383751 0.48724,-0.406799 0.16242,-0.02305 0.32483,-0.339153 0.48725,-0.356464 0.16242,-0.01731 0.32483,-0.293529 0.48725,-0.305923 0.16241,-0.01239 0.32483,-0.24691 0.48725,-0.255207 0.16241,-0.0083 0.32483,-0.199323 0.48724,-0.204342 0.16242,-0.005 0.32484,-0.150799 0.48725,-0.15336 0.16242,-0.0026 0.32483,-0.101367 0.48725,-0.102289 0.16242,-9.22e-4 0.32483,-0.05106 0.48725,-0.05116 0.16241,-1.02e-4 0.32483,1.02e-4 0.48724,0 0.16242,-1.02e-4 0.32484,0.05208 0.48725,0.05116 0.16242,-9.22e-4 0.32483,0.10485 0.48725,0.102289 0.16242,-0.0026 0.32483,0.158379 0.48725,0.15336 0.16241,-0.005 0.32483,0.212639 0.48725,0.204342 0.16241,-0.0083 0.32483,0.267601 0.48724,0.255207 0.16242,-0.01239 0.32484,0.323234 0.48725,0.305923 0.16242,-0.01731 0.32483,0.379512 0.48725,0.356464 0.16242,-0.02305 0.32483,0.436402 0.48725,0.406799 0.16241,-0.0296 0.32483,0.493877 0.48724,0.456898 0.16242,-0.03698 0.32484,0.551909 0.48725,0.506735 0.16242,-0.04517 0.32483,0.610466 0.48725,0.556279 0.16242,-0.05419 0.32483,0.669523 0.48725,0.605502 0.16241,-0.06402 0.32483,0.729049 0.48725,0.654375 0.16241,-0.07467 0.32483,0.789017 0.48724,0.70287 0.16242,-0.08615 0.32484,0.849399 0.48725,0.750961 0.16242,-0.09844 0.32483,0.910167 0.48725,0.798617 0.16241,-0.11155 0.32483,0.971294 0.48725,0.845813 0.16241,-0.125481 0.32483,1.032752 0.48724,0.892521 0.16242,-0.140231 0.32484,1.094514 0.48725,0.938713 0.16242,-0.155801 0.32483,1.156554 0.48725,0.984364 0.16242,-0.172191 0.32483,1.218846 0.48725,1.029446 0.16241,-0.189399 0.32483,1.281363 0.48725,1.073936 0.16241,-0.207428 0.32483,1.344079 0.48724,1.117803 0.16242,-0.226275 0.32483,1.40697 0.48725,1.161028 0.16242,-0.245943 0.32483,1.47001 0.48725,1.203581 0.16241,-0.26643 0.32483,1.533175 0.48725,1.24544 0.16241,-0.287736 0.32483,1.596441 0.48724,1.28658 0.16242,-0.309861 0.32484,1.659783 0.48725,1.326977 0.16242,-0.332806 0.32483,1.72318 0.48725,1.36661 0.16242,-0.356571 0.32483,1.786607 0.48725,1.405452 0.16241,-0.381154 0.32483,1.850043 0.48725,1.443485 0.16241,-0.406558 0.32483,1.913465 0.48724,1.480684 0.16242,-0.432781 0.32483,1.976851 0.48725,1.517027 0.16242,-0.459823 0.32483,2.040182 0.48725,1.552497 0.16241,-0.487685 0.32483,2.103436 0.48725,1.58707 0.16241,-0.516367 0.32483,2.166594 0.48724,1.620726 0.16242,-0.545867 0.32484,2.229636 0.48725,1.653448 0.16242,-0.576187 0.32483,2.292543 0.48725,1.685216 0.16242,-0.607328 0.32483,2.355297 0.48725,1.71601 0.16241,-0.639287 0.32483,2.41788 0.48724,1.745814 0.16242,-0.672065 0.32484,2.480275 0.48725,1.774612 0.16242,-0.705664 0.32483,2.542466 0.48725,1.802384 0.16242,-0.740081 0.32483,2.604432 0.48725,1.829112 0.16241,-0.77531 0.32483,2.666171 0.48725,1.8548 0.16241,-0.81138 0.32483,2.727651 0.48724,1.879401 0.16242,-0.84825 0.32484,2.78886 0.48725,1.90292 0.16242,-0.88595 0.32483,2.8498 0.48725,1.92534 0.16241,-0.92446 0.32483,2.91046 0.48725,1.94666 0.16241,-0.9638 0.32483,2.9708 0.48724,1.96685 0.16242,-1.00395 0.32484,3.03082 0.48725,1.9859 0.16242,-1.04493 0.32483,3.09052 0.48725,2.0038 0.16242,-1.08671 0.32483,3.14989 0.48725,2.02056 0.16241,-1.12933 0.32483,3.20891 0.48725,2.03615 0.16241,-1.17276 0.32483,3.26756 0.48724,2.05055 0.16242,-1.21701 0.32484,3.32586 0.48725,2.06378 0.16242,-1.26208 0.32483,3.38379 0.48725,2.07582 0.16241,-1.30798 0.32483,3.44133 0.48725,2.08665 0.16241,-1.35468 0.32483,3.49849 0.48724,2.09628 0.16242,-1.40221 0.32484,3.55527 0.48725,2.10471 0.16242,-1.45055 0.32483,3.61165 0.48725,2.11192 0.16242,-1.49972 0.32483,3.66762 0.48725,2.11791 0.16241,-1.54971 0.32483,3.7232 0.48725,2.12268 0.16241,-1.60053 0.32483,3.77836 0.48724,2.12621 0.16242,-1.65214 0.32483,3.83313 0.48725,2.12854 0.16242,-1.7046 0.32483,3.88748 0.48725,2.12962 0.16241,-1.75786 0.32483,3.94142 0.48725,2.12948 0.16241,-1.81195 0.32483,3.99495 0.48724,2.1281 0.16242,-1.86684 0.32484,4.04808 0.48725,2.12551 0.16242,-1.92257 0.32483,4.1008 0.48725,2.12168 0.16242,-1.97911 0.32483,4.15311 0.48725,2.11664 0.16241,-2.03648 0.32483,4.20502 0.48724,2.11036 0.16242,-2.09466 0.32484,4.25653 0.48725,2.10287 0.16242,-2.15367 0.32483,4.30764 0.48725,2.09416 0.16242,-2.21348 0.32483,4.35838 0.48725,2.08426 0.16241,-2.27413 0.32483,4.40872 0.48725,2.07314 0.16241,-2.33559 0.32483,4.45869 0.48724,2.06082 0.16242,-2.39786 0.32484,4.50829 0.48725,2.04733 0.16242,-2.46096 0.32483,4.55752 0.48725,2.03264 0.16242,-2.52488 0.32483,4.60641 0.48725,2.01679 0.16241,-2.58961 0.32483,4.65495 0.48724,1.99977 0.16242,-2.65517 0.32484,4.70315 0.48725,1.9816 0.16242,-2.72155 0.32483,4.75103 0.48725,1.96228 0.16242,-2.78875 0.32483,4.79859 0.48725,1.94183 0.16241,-2.85677 0.32483,4.84585 0.48725,1.92026 0.16241,-2.9256 0.32483,4.89283 0.48724,1.89758 0.16242,-2.99526 0.32484,4.93953 0.48725,1.8738 0.16242,-3.06573 0.32483,4.98597 0.48725,1.84895 0.16241,-3.13702 0.32483,5.03217 0.48725,1.82303 0.16241,-3.20913 0.32483,5.07812 0.48724,1.79606 0.16242,-3.28207 0.32484,5.12386 0.48725,1.76804 0.16242,-3.35582 0.32483,5.1694 0.48725,1.73901 0.16242,-3.43039 0.32483,5.21476 0.48725,1.70898 0.16241,-3.50578 0.32483,5.25995 0.48725,1.67796 0.16241,-3.582 0.32483,5.30499 0.48724,1.64596 0.16242,-3.65902 0.32483,5.3499 0.48725,1.61303 0.16242,-3.73687 0.32483,5.3947 0.48725,1.57916 0.16241,-3.81554 0.32483,5.4394 0.48725,1.54437 0.16241,-3.89503 0.32483,5.48404 0.48724,1.5087 0.16242,-3.97533 0.32484,5.52863 0.48725,1.47216 0.16242,-4.05646 0.32483,5.57318 0.48725,1.43477 0.16242,-4.13841 0.32483,5.61772 0.48725,1.39654 0.16241,-4.22118 0.32483,5.66228 0.48725,1.35752 0.16241,-4.30477 0.32483,5.70687 0.48724,1.3177 0.16242,-4.38917 0.32483,5.75153 0.48725,1.27713 0.16242,-4.47439 0.32483,5.79627 0.48725,1.23583 0.16241,-4.56044 0.32483,5.8411 0.48725,1.1938 0.16241,-4.6473 0.32483,5.88608 0.48724,1.15109 0.16242,-4.73498 0.32484,5.93121 0.48725,1.10772 0.16242,-4.82348 0.32483,5.97651 0.48725,1.06371 0.16242,-4.91281 0.32483,6.02202 0.48725,1.01907 0.16241,-5.00295 0.32483,6.06777 0.48724,0.97386 0.16242,-5.09391 0.32484,6.11377 0.48725,0.92808 0.16242,-5.18569 0.32483,6.16005 0.48725,0.88177 0.16242,-5.27829 0.32483,6.20665 0.48725,0.83494 0.16241,-5.37171 0.32483,6.25359 0.48725,0.78764 0.16241,-5.46595 0.32483,6.30088 0.48724,0.73988 0.16242,-5.56101 0.32484,6.34857 0.48725,0.69169 0.16242,-5.65688 0.32483,6.39669 0.48725,0.64311 0.16242,-5.75358 0.32483,6.44525 0.48725,0.59415 0.16241,-5.8511 0.32483,6.49428 0.48724,0.54485 0.16242,-5.94943 0.32484,6.54383 0.48725,0.49524 0.16242,-6.04859 0.32483,6.5939 0.48725,0.44534 0.16242,-6.14857 0.32483,6.64453 0.48725,0.39518 0.16241,-6.24936 0.32483,6.69576 0.48725,0.34479 0.16241,-6.35097 0.32483,6.74762 0.48724,0.29421 0.16242,-6.4534 0.32484,6.80012 0.48725,0.24346 0.16242,-6.55665 0.32483,6.8533 0.48725,0.19257 0.16241,-6.66073 0.32483,6.90718 0.48725,0.14156 0.16241,-6.76563 0.32483,6.9618 0.48724,0.0905 0.16242,-6.87133 0.32484,7.01719 0.48725,0.0393 0.16242,-6.97786 0.32483,7.07338 0.48725,-0.0118 0.16242,-7.08521 0.32483,7.1304 0.48725,-0.063 0.16241,-7.19339 0.32483,7.18827 0.48725,-0.11411 0.16241,-7.30237 0.32483,7.24703 0.48724,-0.16515 0.16242,-7.41218 0.32483,7.30669 0.48725,-0.21612 0.16242,-7.52281 0.32483,7.36731 0.48725,-0.26694 0.16241,-7.63426 0.32483,7.42889 0.48725,-0.31763 0.16241,-7.74652 0.32483,7.49149 0.48724,-0.36812 0.16242,-7.85961 0.32484,7.55511 0.48725,-0.4184 0.16242,-7.97352 0.32483,7.61979 0.48725,-0.46845 0.16242,-8.08824 0.32483,7.68557 0.48725,-0.51822 0.16241,-8.20378 0.32483,7.75246 0.48725,-0.56769 0.16241,-8.32015 0.32483,7.82051 0.48724,-0.61683 0.16242,-8.43733 0.32483,7.88972 0.48725,-0.66562 0.16242,-8.55534 0.32483,7.96013 0.48725,-0.71403 0.16241,-8.67416 0.32483,8.03179 0.48725,-0.76202 0.16241,-8.7938 0.32483,8.1047 0.48724,-0.80957 0.16242,-8.91426 0.32484,8.17889 0.48725,-0.85665 0.16242,-9.03555 0.32483,8.25439 0.48725,-0.90325 0.16242,-9.15765 0.32483,8.33125 0.48725,-0.94932 0.16241,-9.28056 0.32483,8.40947 0.48724,-0.99484 0.16242,-9.4043 0.32484,8.48908 0.48725,-1.03978 0.16242,-9.52887 0.32483,8.57011 0.48725,-1.08414 0.16242,-9.65424 0.32483,8.65259 0.48725,-1.12785 0.16241,-9.78044 0.32483,8.73653 0.48725,-1.17093 0.16241,-9.90746 0.32483,8.82197 0.48724,-1.21332 0.16242,-10.03529 0.32484,8.90893 0.48725,-1.25502 0.16242,-10.16395 0.32483,8.99744 0.48725,-1.29598 0.16241,-10.29343 0.32483,9.08751 0.48725,-1.33621 0.16241,-10.42373 0.32483,9.17917 0.48724,-1.37566 0.16242,-10.55484 0.32484,9.27245 0.48725,-1.41432 0.16242,-10.68677 0.32483,9.36736 0.48725,-1.45216 0.16242,-10.81953 0.32483,9.46393 0.48725,-1.48917 0.16241,-10.95309 0.32483,9.56219 0.48725,-1.5253 0.16241,-11.08749 0.32483,9.66213 0.48724,-1.56057 0.16242,-11.22271 0.32484,9.7638 0.48725,-1.59494 0.16242,-11.35873 0.32483,9.86721 0.48725,-1.62837 0.16241,-11.49559 0.32483,9.97237 0.48725,-1.66088 0.16241,-11.63326 0.32483,10.07932 0.48724,-1.69242 0.16242,-11.77175 0.32484,10.18806 0.48725,-1.72299 0.16242,-11.91106 0.32483,10.29862 0.48725,-1.75257 0.16242,-12.05118 0.32483,10.41101 0.48725,-1.78112 0.16241,-12.19213 0.32483,10.52524 0.48725,-1.80866 0.16241,-12.3339 0.32483,10.64134 0.48724,-1.83515 0.16242,-12.47648 0.32483,10.75932 0.48725,-1.86057 0.16242,-12.6199 0.32483,10.87918 0.48725,-1.88494 0.16241,-12.76412 0.32483,11.00096 0.48725,-1.9082 0.16241,-12.90917 0.32483,11.12466 0.48724,-1.93037 0.16242,-13.05503 0.32484,11.25029 0.48725,-1.95143 0.16242,-13.20171 0.32483,11.37787 0.48725,-1.97135 0.16242,-13.34922 0.32483,11.5074 0.48725,-1.99014 0.16241,-13.49755 0.32483,11.6389 0.48724,-2.00779 0.16242,-13.64668 0.32484,11.77238 0.48725,-2.02426 0.16242,-13.79665 0.32483,11.90785 0.48725,-2.03958 0.16242,-13.94743 0.32483,12.04531 0.48725,-2.05372 0.16241,-14.09903 0.32483,12.18478 0.48725,-2.06667 0.16241,-14.25145 0.32483,12.32626 0.48724,-2.07843 0.16242,-14.40469 0.32484,12.46977 0.48725,-2.08899 0.16242,-14.55875 0.32483,12.61529 0.48725,-2.09834 0.16242,-14.71363 0.32483,12.76285 0.48725,-2.10648 0.16241,-14.86933 0.32483,12.91244 0.48724,-2.11341 0.16242,-15.02585 0.32484,13.06406 0.48725,-2.11912 0.16242,-15.18319 0.32483,13.21774 0.48725,-2.12361 0.16242,-15.34134 0.32483,13.37346 0.48725,-2.12686 0.16241,-15.50032 0.32483,13.53122 0.48725,-2.12889 0.16241,-15.66012 0.32483,13.69103 0.48724,-2.1297 0.16242,-15.82073 0.32484,13.8529 0.48725,-2.12927 0.16242,-15.98217 0.32483,14.0168 0.48725,-2.12762 0.16241,-16.14442 0.32483,14.18277 0.48725,-2.12473 0.16241,-16.30749 0.32483,14.35077 0.48724,-2.12062 0.16242,-16.47139 0.32484,14.52081 0.48725,-2.11529 0.16242,-16.6361 0.32483,14.6929 0.48725,-2.10874 0.16242,-16.80163 0.32483,14.86702 0.48725,-2.10096 0.16241,-16.96799 0.32483,15.04317 0.48725,-2.09198 0.16241,-17.13516 0.32483,15.22135 0.48724,-2.0818 0.16242,-17.30314 0.32483,15.40156 0.48725,-2.07039 0.16242,-17.47196 0.32483,15.58377 0.48725,-2.05782 0.16241,-17.64158 0.32483,15.768 0.48725,-2.04403 0.16241,-17.812041 0.32483,15.95422 0.48724,-2.02909 0.16242,-17.983301 0.32484,16.14244 0.48725,-2.01295 0.16242,-18.155396 0.32483,16.33263 0.48725,-1.99567 0.16242,-18.328303 0.32483,16.52479 0.48725,-1.97723 0.16241,-18.502031 0.32483,16.71892 0.48725,-1.95765 0.16241,-18.676578 0.32483,16.91499 0.48724,-1.93695 0.16242,-18.851935 0.32483,17.11302 0.48725,-1.91511 0.16242,-19.028124 0.32483,17.31295 0.48725,-1.89218 0.16241,-19.205129 0.32483,17.5148 0.48725,-1.868151 0.16241,-19.382958 0.32483,17.718541 0.48724,-1.84306 0.16242,-19.561594 0.32484,17.924181 0.48725,-1.816882 0.16242,-19.74106 0.32483,18.131673 0.48725,-1.789669 0.16242,-19.921344 0.32483,18.341022 0.48725,-1.761422 0.16241,-20.102446 0.32483,18.552214 0.48724,-1.732157 0.16242,-20.284367 0.32484,18.765221 0.48725,-1.701892 0.16242,-20.467109 0.32483,18.980023 0.48725,-1.670646 0.16242,-20.650669 0.32483,19.196619 0.48725,-1.638435 0.16241,-20.835049 0.32483,19.414974 0.48725,-1.605278 0.16241,-21.020249 0.32483,19.635072 0.48724,-1.571195 0.16242,-21.206268 0.32484,19.856897 0.48725,-1.536206 0.16242,-21.393106 0.32483,20.080433 0.48725,-1.500329 0.16242,-21.580765 0.32483,20.305651 0.48725,-1.463588 0.16241,-21.769241 0.32483,20.532539 0.48724,-1.426 0.16242,-21.958538 0.32484,20.761064 0.48725,-1.387591 0.16242,-22.148654 0.32483,20.991211 0.48725,-1.348379 0.16242,-22.339591 0.32483,21.222954 0.48725,-1.308392 0.16241,-22.531346 0.32483,21.456274 0.48725,-1.267647 0.16241,-22.72392 0.32483,21.691143 0.48724,-1.226172 0.16242,-22.917314 0.32484,21.92754 0.48725,-1.183988 0.16242,-23.111529 0.32483,22.165439 0.48725,-1.141122 0.16241,-23.306562 0.32483,22.404817 0.48725,-1.097597 0.16241,-23.502414 0.32483,22.645648 0.48724,-1.053439 0.16242,-23.699086 0.32484,22.887906 0.48725,-1.008672 0.16242,-23.896578 0.32483,23.131566 0.48725,-0.963323 0.16242,-24.094889 0.32483,23.3766 0.48725,-0.917419 0.16241,-24.29402 0.32483,23.622984 0.48725,-0.870985 0.16241,-24.493969 0.32483,23.87069 0.48724,-0.824048 0.16242,-24.694739 0.32483,24.119691 0.48725,-0.776636 0.16242,-24.896328 0.32483,24.36996 0.48725,-0.728776 0.16241,-25.098736 0.32483,24.62147 0.48725,-0.680494 0.16241,-25.301964 0.32483,24.87419 0.48724,-0.631821 0.16242,-25.506011 0.32484,25.128096 0.48725,-0.582782 0.16242,-25.710877 0.32483,25.383157 0.48725,-0.533407 0.16242,-25.916564 0.32483,25.639345 0.48725,-0.483725 0.16241,-26.123069 0.32483,25.896632 0.48725,-0.433763 0.16241,-26.330394 0.32483,26.154989 0.48724,-0.38355 0.16242,-26.53854 0.32483,26.414386 0.48725,-0.333118 0.16242,-26.747503 0.32483,26.674796 0.48725,-0.282491 0.16241,-26.957287 0.32483,26.936187 0.48725,-0.231703 0.16241,-27.16789 0.32483,27.198532 0.48724,-0.18078 0.16242,-27.379312 0.32484,27.461801 0.48725,-0.129753 0.16242,-27.591555 0.32483,27.725964 0.48725,-0.07865 0.16242,-27.804616 0.32483,27.990992 0.48725,-0.02751 0.16241,-28.018496 0.32483,28.256856 0.48724,0.02366 0.16242,-28.233197 0.32484,28.523524 0.48725,0.07481 0.16242,-28.448717 0.32483,28.79097 0.48725,0.125914 0.16242,-28.665056 0.32483,29.059162 0.48725,0.176947 0.16241,-28.882215 0.32483,29.328072 0.48725,0.227879 0.16241,-29.100193 0.32483,29.597669 0.48724,0.278679 0.16242,-29.318991 0.32484,29.867925 0.48725,0.329317 0.16242,-29.538608 0.32483,30.138811 0.48725,0.379767 0.16241,-29.759044 0.32483,30.410297 0.48725,0.429996 0.16241,-29.9803 0.32483,30.682354 0.48724,0.479978 0.16242,-30.202376 0.32484,30.954954 0.48725,0.529683 0.16242,-30.425271 0.32483,31.228067 0.48725,0.579082 0.16242,-30.648986 0.32483,31.501665 0.48725,0.628146 0.16241,-30.873519 0.32483,31.775721 0.48725,0.676848 0.16241,-31.098872 0.32483,32.050206 0.48724,0.725161 0.16242,-31.325046 0.32484,32.325091 0.48725,0.773053 0.16242,-31.552038 0.32483,32.60035 0.48725,0.8205 0.16241,-31.77985 0.32483,32.875954 0.48725,0.867473 0.16241,-32.008481 0.32483,33.151878 0.48724,0.913947 0.16242,-32.237932 0.32484,33.428093 0.48725,0.959891 0.16242,-32.468202 0.32483,33.704571 0.48725,1.005283 0.16242,-32.699292 0.32483,33.981298 0.48725,1.050094 0.16241,-32.931201 0.32483,34.258224 0.48725,1.094299 0.16241,-33.16393 0.32483,34.535346 0.48724,1.137872 0.16242,-33.397477 0.32483,34.812634 0.48725,1.18079 0.16242,-33.631845 0.32483,35.090054 0.48725,1.223025 0.16241,-33.867032 0.32483,35.367589 0.48725,1.264554 0.16241,-34.103038 0.32483,35.645215 0.48724,1.305354 0.16242,-34.339864 0.32484,35.922911 0.48725,1.345401 0.16242,-34.57751 0.32483,36.20065 0.48725,1.38467 0.16242,-34.815975 0.32483,36.4784 0.48725,1.423141 0.16241,-35.055259 0.32483,36.756159 0.48724,1.460791 0.16242,-35.295363 0.32484,37.033888 0.48725,1.497597 0.16242,-35.536286 0.32483,37.311571 0.48725,1.533539 0.16242,-35.778029 0.32483,37.589192 0.48725,1.568596 0.16241,-36.020591 0.32483,37.866726 0.48725,1.602748 0.16241,-36.263972 0.32483,38.144148 0.48724,1.635975 0.16242,-36.508174 0.32484,38.421453 0.48725,1.668258 0.16242,-36.753195 0.32483,38.698615 0.48725,1.699577 0.16242,-36.999035 0.32483,38.975608 0.48725,1.729916 0.16241,-37.245694 0.32483,39.252432 0.48724,1.759257 0.16242,-37.493174 0.32484,39.529055 0.48725,1.787582 0.16242,-37.741472 0.32483,39.805463 0.48725,1.814872 0.16242,-37.990586 0.32483,40.081651 0.48725,1.84113 0.16241,-38.240532 0.32483,40.357581 0.48725,1.866301 0.16241,-38.491284 0.32483,40.63327 0.48724,1.89041 0.16242,-38.742859 0.32484,40.90869 0.48725,1.91343 0.16242,-38.995257 0.32483,41.18381 0.48725,1.93534 0.16241,-39.248473 0.32483,41.45864 0.48725,1.95613 0.16241,-39.502505 0.32483,41.73316 0.48724,1.9758 0.16242,-39.757361 0.32484,42.00736 0.48725,1.99432 0.16242,-40.013031 0.32483,42.28123 0.48725,2.0117 0.16242,-40.269526 0.32483,42.55475 0.48725,2.02791 0.16241,-40.526838 0.32483,42.82793 0.48725,2.04296 0.16241,-40.784977 0.32483,43.10074 0.48724,2.05681 0.16242,-41.043921 0.32483,43.37319 0.48725,2.0695 0.16242,-41.303698 0.32483,43.64526 0.48725,2.08097 0.16241,-41.564282 0.32483,43.91696 0.48725,2.09126 0.16241,-41.825695 0.32483,44.18826 0.48724,2.10033 0.16242,-42.087922 0.32484,44.45917 0.48725,2.1082 0.16242,-42.350977 0.32483,44.72968 0.48725,2.11484 0.16242,-42.614846 0.32483,44.99979 0.48725,2.12026 0.16241,-42.879529 0.32483,45.2695 0.48725,2.12447 0.16241,-43.14504 0.32483,45.5388 0.48724,2.12744 0.16242,-43.411365 0.32483,45.8077 0.48725,2.12919 0.16242,-43.678511 0.32483,46.07618 0.48725,2.12971 0.16241,-43.946481 0.32483,46.34425 0.48725,2.12899 0.16241,-44.21526 0.32483,46.61193 0.48724,2.12706 0.16242,-44.48486 0.32484,46.87918 0.48725,2.12389 0.16242,-44.75529 0.32483,47.14603 0.48725,2.1195 0.16242,-45.02653 0.32483,47.41248 0.48725,2.11388 0.16241,-45.29859 0.32483,47.67853 0.48724,2.10705 0.16242,-45.57148 0.32484,47.94418 0.48725,2.099 0.16242,-45.84518 0.32483,48.20943 0.48725,2.08973 0.16242,-46.1197 0.32483,48.47431 0.48725,2.07926 0.16241,-46.39504 0.32483,48.7388 0.48725,2.0676 0.16241,-46.6712 0.32483,49.00291 0.48724,2.05473 0.16242,-46.94818 0.32484,49.26667 0.48725,2.04068 0.16242,-47.22598 0.32483,49.53006 0.48725,2.02546 0.16242,-47.5046 0.32483,49.7931 0.48725,2.00907 0.16241,-47.78404 0.32483,50.0558 0.48724,1.9915 0.16242,-48.06429 0.32484,50.31818 0.48725,1.97281 0.16242,-48.34537 0.32483,50.58023 0.48725,1.95296 0.16242,-48.62727 0.32483,50.84198 0.48725,1.93199 0.16241,-48.90998 0.32483,51.10344 0.48725,1.90991 0.16241,-49.19352 0.32483,51.3646 0.48724,1.88673 0.16242,-49.47788 0.32484,51.62549 0.48725,1.86244 0.16242,-49.76305 0.32483,51.88614 0.48725,1.8371 0.16241,-50.04905 0.32483,52.14654 0.48725,1.81068 0.16241,-50.33585 0.32483,52.40673 0.48724,1.78323 0.16242,-50.62349 0.32484,52.66669 0.48725,1.75475 0.16242,-50.91194 0.32483,52.92646 0.48725,1.72525 0.16242,-51.20122 0.32483,53.18606 0.48725,1.69475 0.16241,-51.49131 0.32483,53.4455 0.48725,1.66329 0.16241,-51.78222 0.32483,53.7048 0.48724,1.63085 0.16242,-52.07395 0.32483,53.96398 0.48725,1.59748 0.16242,-52.3665 0.32483,54.22305 0.48725,1.56318 0.16241,-52.65987 0.32483,54.48205 0.48725,1.52799 0.16241,-52.95405 0.32483,54.74098 0.48724,1.49191 0.16242,-53.24906 0.32484,54.99986 0.48725,1.45497 0.16242,-53.54489 0.32483,55.25873 0.48725,1.4172 0.16242,-53.84154 0.32483,55.5176 0.48725,1.37859 0.16241,-54.139 0.32483,55.77649 0.48725,1.3392 0.16241,-54.43729 0.32483,56.03544 0.48724,1.29904 0.16242,-54.7364 0.32483,56.29444 0.48725,1.25812 0.16242,-55.03632 0.32483,56.55355 0.48725,1.21648 0.16241,-55.33706 0.32483,56.81277 0.48725,1.17414 0.16241,-55.63863 0.32483,57.07213 0.48724,1.13112 0.16242,-55.94102 0.32484,57.33166 0.48725,1.08744 0.16242,-56.24422 0.32483,57.59138 0.48725,1.04314 0.16242,-56.54824 0.32483,57.85132 0.48725,0.99824 0.16241,-56.85308 0.32483,58.1115 0.48724,0.95276 0.16242,-57.15874 0.32484,58.37195 0.48725,0.90673 0.16242,-57.46522 0.32483,58.63269 0.48725,0.86017 0.16242,-57.77252 0.32483,58.89377 0.48725,0.81313 0.16241,-58.08064 0.32483,59.15519 0.48725,0.76561 0.16241,-58.38958 0.32483,59.41699 0.48724,0.71765 0.16242,-58.69934 0.32484,59.67919 0.48725,0.66927 0.16242,-59.00991 0.32483,59.94183 0.48725,0.62052 0.16241,-59.32132 0.32483,60.20492 0.48725,0.57139 0.16241,-59.63353 0.32483,60.46852 0.48724,0.52195 0.16242,-59.94657 0.32484,60.73262 0.48725,0.4722 0.16242,-60.26043 0.32483,60.99727 0.48725,0.42217 0.16242,-60.5751 0.32483,61.2625 0.48725,0.37191 0.16241,-60.89059 0.32483,61.52834 0.48725,0.32143 0.16241,-61.20691 0.32483,61.7948 0.48724,0.27076 0.16242,-61.52404 0.32484,62.06193 0.48725,0.21994 0.16242,-61.84199 0.32483,62.32976 0.48725,0.16899 0.16241,-62.16077 0.32483,62.5983 0.48725,0.11794 0.16241,-62.48035 0.32483,62.8676 0.48724,0.0668 0.16242,-62.80077 0.32484,63.13768 0.48725,0.0157 0.16242,-63.122 0.32483,63.40857 0.48725,-0.0355 0.16242,-63.44405 0.32483,63.6803 0.48725,-0.0866 0.16241,-63.76692 0.32483,63.9529 0.48725,-0.13772 0.16241,-64.09061 0.32483,64.22639 0.48724,-0.18873 0.16242,-64.41512 0.32483,64.50081 0.48725,-0.23964 0.16242,-64.74045 0.32483,64.7762 0.48725,-0.2904 0.16241,-65.0666 0.32483,65.05257 0.48725,-0.341 0.16241,-65.39356 0.32483,65.32995 0.48724,-0.3914 0.16242,-65.72135 0.32484,65.60838 0.48725,-0.44157 0.16242,-66.04996 0.32483,65.88788 0.48725,-0.4915 0.16242,-66.37938 0.32483,66.1685 0.48725,-0.54113 0.16241,-66.70963 0.32483,66.45023 0.48724,-0.59046 0.16242,-67.04069 0.32484,66.73314 0.48725,-0.63944 0.16242,-67.37258 0.32483,67.01723 0.48725,-0.68805 0.16242,-67.70528 0.32483,67.30253 0.48725,-0.73627 0.16241,-68.03881 0.32483,67.58908 0.48725,-0.78407 0.16241,-68.37314 0.32483,67.87691 0.48724,-0.8314 0.16242,-68.70831 0.32484,68.16602 0.48725,-0.87827 0.16242,-69.04428 0.32483,68.45648 0.48725,-0.92461 0.16242,-69.38109 0.32483,68.74827 0.48725,-0.97044 0.16241,-69.71871 0.32483,69.04146 0.48724,-1.01569 0.16242,-70.05716 0.32484,69.33604 0.48725,-1.06037 0.16242,-70.39641 0.32483,69.63205 0.48725,-1.10443 0.16242,-70.73649 0.32483,69.92953 0.48725,-1.14786 0.16241,-71.07739 0.32483,70.22849 0.48725,-1.19061 0.16241,-71.41911 0.32483,70.52895 0.48724,-1.2327 0.16242,-71.76164 0.32484,70.83095 0.48725,-1.27405 0.16242,-72.105 0.32483,71.1345 0.48725,-1.31468 0.16241,-72.44917 0.32483,71.43962 0.48725,-1.35455 0.16241,-72.79417 0.32483,71.74635 0.48724,-1.39364 0.16242,-73.13998 0.32484,72.0547 0.48725,-1.43192 0.16242,-73.48662 0.32483,72.3647 0.48725,-1.46937 0.16242,-73.83408 0.32483,72.67636 0.48725,-1.50599 0.16241,-74.18234 0.32483,72.98972 0.48725,-1.54172 0.16241,-74.53144 0.32483,73.30478 0.48724,-1.57657 0.16242,-74.88136 0.32483,73.62157 0.48725,-1.61052 0.16242,-75.23208 0.32483,73.94011 0.48725,-1.64352 0.16241,-75.58364 0.32483,74.26042 0.48725,-1.67559 0.16241,-75.936 0.32483,74.58252 0.48724,-1.70668 0.16242,-76.28919 0.32484,74.90642 0.48725,-1.73678 0.16242,-76.64321 0.32483,75.23213 0.48725,-1.7659 0.16242,-76.99804 0.32483,75.5597 0.48725,-1.79399 0.16241,-77.35368 0.32483,75.88912 0.48725,-1.82103 0.16241,-77.71016 0.32483,76.2204 0.48724,-1.84704 0.16242,-78.06744 0.32483,76.55357 0.48725,-1.87198 0.16242,-78.42554 0.32483,76.88864 0.48725,-1.89583 0.16241,-78.78447 0.32483,77.22563 0.48725,-1.91859 0.16241,-79.14422 0.32483,77.56454 0.48724,-1.94025 0.16242,-79.504781 0.32484,77.90539 0.48725,-1.96078 0.16242,-79.866169 0.32483,78.24819 0.48725,-1.98018 0.16242,-80.228376 0.32483,78.59295 0.48725,-1.99844 0.16241,-80.591403 0.32483,78.93969 0.48724,-2.01555 0.16242,-80.955246 0.32484,79.28841 0.48725,-2.0315 0.16242,-81.319902 0.32483,79.63913 0.48725,-2.04626 0.16242,-81.685389 0.32483,79.99183 0.48725,-2.05986 0.16241,-82.051684 0.32483,80.34656 0.48725,-2.07225 0.16241,-82.418811 0.32483,80.70329 0.48724,-2.08346 0.16242,-82.786751 0.32484,81.06205 0.48725,-2.09346 0.16242,-83.155515 0.32483,81.42283 0.48725,-2.10226 0.16242,-83.525092 0.32483,81.78565 0.48725,-2.10984 0.16241,-83.89549 0.32483,82.1505 0.48724,-2.1162 0.16242,-84.266711 0.32484,82.5174 0.48725,-2.12135 0.16242,-84.638744 0.32483,82.88634 0.48725,-2.12526 0.16242,-85.011605 0.32483,83.25732 0.48725,-2.12796 0.16241,-85.385276 0.32483,83.63036 0.48725,-2.12941 0.16241,-85.759781 0.32483,84.00544 0.48724,-2.12966 0.16242,-86.135089 0.32484,84.38257 0.48725,-2.12865 0.16242,-86.511233 0.32483,84.76174 0.48725,-2.12644 0.16241,-86.888182 0.32483,85.14297 0.48725,-2.12298 0.16241,-87.265961 0.32483,85.52624 0.48724,-2.11831 0.16242,-87.644554 0.32484,85.91155 0.48725,-2.11241 0.16242,-88.023968 0.32483,86.2989 0.48725,-2.1053 0.16242,-88.404195 0.32483,86.68829 0.48725,-2.09696 0.16241,-88.785248 0.32483,87.0797 0.48725,-2.08742 0.16241,-89.167119 0.32483,87.47314 0.48724,-2.07667 0.16242,-89.549812 0.32483,87.86859 0.48725,-2.06473 0.16242,-89.933319 0.32483,88.26606 0.48725,-2.05159 0.16241,-90.317648 0.32483,88.66554 0.48725,-2.03726 0.16241,-90.702806 0.32483,89.06699 0.48724,-2.02177 0.16242,-91.088775 0.32484,89.47045 0.48725,-2.00511 0.16242,-91.475561 0.32483,89.87588 0.48725,-1.98729 0.16242,-91.863165 0.32483,90.28328 0.48725,-1.96832 0.16241,-92.25159 0.32483,90.69263 0.48725,-1.94821 0.16241,-92.640841 0.32483,91.10392 0.48724,-1.92699 0.16242,-93.030903 0.32483,91.51715 0.48725,-1.90464 0.16242,-93.4217938 0.32483,91.93229 0.48725,-1.881211 0.16241,-93.813494 0.32483,92.349341 0.48725,-1.85668 0.16241,-94.2060191 0.32483,92.768281 0.48724,-1.831081 0.16242,-94.5993659 0.32484,93.189102 0.48725,-1.80443 0.16242,-94.99352946 0.32483,93.611782 0.48725,-1.776735 0.16242,-95.3885125 0.32483,94.036297 0.48725,-1.748015 0.16241,-95.7843147 0.32483,94.462652 0.48724,-1.718285 0.16242,-96.1809371 0.32484,94.890817 0.48725,-1.687565 0.16242,-96.578378 0.32483,95.320772 0.48725,-1.655869 0.16242,-96.97664 0.32483,95.752501 0.48725,-1.62322 0.16241,-97.375719 0.32483,96.185991 0.48725,-1.589632 0.16241,-97.775619 0.32483,96.621213 0.48724,-1.555127 0.16242,-98.176339 0.32484,97.05815 0.48725,-1.519725 0.16242,-98.577878 0.32483,97.496795 0.48725,-1.483445 0.16241,-98.980237 0.32483,97.9371 0.48725,-1.446311 0.16241,-99.383414 0.32483,98.379071 0.48724,-1.40834 0.16242,-99.787411 0.32484,98.822671 0.48725,-1.369557 0.16242,-100.192228 0.32483,99.267878 0.48725,-1.329984 0.16242,-100.597864 0.32483,99.714672 0.48725,-1.289643 0.16241,-101.00432 0.32483,100.163035 0.48725,-1.248558 0.16241,-101.411595 0.32483,100.612933 0.48724,-1.206753 0.16242,-101.819689 0.32484,101.064356 0.48725,-1.16425"
     style="opacity:1;fill:none;fill-opacity:1;stroke:#000000;stroke-width:1;stroke-miterlimit:4;stroke-dasharray:none;stroke-dashoffset:0;stroke-opacity:1;marker-mid:"
     inkscape:connector-curvature="0" />
  <path
     style="fill:none;fill-rule:evenodd;stroke:#000000;stroke-width:2;stroke-linecap:butt;stroke-linejoin:miter;stroke-miterlimit:4;stroke-dasharray:none;stroke-opacity:1;marker-end:url(#Arrow1Lend);marker-mid:"
     d="m 0,142.30799 508.00647,0"
     id="path4237"
     inkscape:connector-curvature="0" />
  <path
     style="fill:none;fill-rule:evenodd;stroke:#000000;stroke-width:2;stroke-linecap:butt;stroke-linejoin:miter;stroke-miterlimit:4;stroke-dasharray:none;stroke-opacity:1;marker-end:url(#marker4515);marker-start:"
     d="m 244.57233,282.4935 0,-278.8534451"
     id="path4239"
     inkscape:connector-curvature="0" />
  <circle
     style="fill:#000000;fill-opacity:1;fill-rule:evenodd;stroke:#000000;stroke-width:1px;stroke-linecap:butt;stroke-linejoin:miter;stroke-opacity:1;marker-start:"
     id="path4656"
     cx="275.3031"
     cy="141.73891"
     r="6.8290639" />
  <circle
     r="6.8290639"
     cy="141.73891"
     cx="402.77896"
     id="circle4658"
     style="fill:#000000;fill-opacity:1;fill-rule:evenodd;stroke:#000000;stroke-width:1px;stroke-linecap:butt;stroke-linejoin:miter;stroke-opacity:1;marker-start:" />
  <circle
     style="fill:#ffffff;fill-opacity:1;fill-rule:evenodd;stroke:#000000;stroke-width:1px;stroke-linecap:butt;stroke-linejoin:miter;stroke-opacity:1;marker-start:"
     id="circle4660"
     cx="340.77896"
     cy="141.73891"
     r="6.8290639" />
  <circle
     r="6.8290639"
     cy="141.73891"
     cx="213.46213"
     id="circle4662"
     style="fill:#ffffff;fill-opacity:1;fill-rule:evenodd;stroke:#000000;stroke-width:1px;stroke-linecap:butt;stroke-linejoin:miter;stroke-opacity:1;marker-start:" />
  <circle
     style="fill:#000000;fill-opacity:1;fill-rule:evenodd;stroke:#000000;stroke-width:1px;stroke-linecap:butt;stroke-linejoin:miter;stroke-opacity:1;marker-start:"
     id="circle4664"
     cx="149.7242"
     cy="141.73891"
     r="6.8290639" />
  <circle
     r="6.8290639"
     cy="141.73891"
     cx="85.60688"
     id="circle4666"
     style="fill:#ffffff;fill-opacity:1;fill-rule:evenodd;stroke:#000000;stroke-width:1px;stroke-linecap:butt;stroke-linejoin:miter;stroke-opacity:1;marker-start:" />
  <g
     id="g4687"
     transform="matrix(0.34055616,0,0,0.34055616,285.52745,-274.08466)">
    <g
       id="content"
       transform="matrix(2.0196429,0,0,-2.0196429,-353.4375,2121.5625)"
       xml:space="preserve"
       stroke-miterlimit="10.433"
       font-style="normal"
       font-variant="normal"
       font-weight="normal"
       font-stretch="normal"
       font-size-adjust="none"
       letter-spacing="normal"
       word-spacing="normal"
       style="font-style:normal;font-variant:normal;font-weight:normal;font-stretch:normal;letter-spacing:normal;word-spacing:normal;text-anchor:start;fill:none;fill-opacity:1;fill-rule:evenodd;stroke:#000000;stroke-linecap:butt;stroke-linejoin:miter;stroke-miterlimit:10.43299961;stroke-dasharray:none;stroke-dashoffset:0;stroke-opacity:1"><path
         d="m 472.16,421.25 0.03,0.13 0.04,0.15 0.04,0.16 0.04,0.18 0.06,0.19 0.06,0.21 0.06,0.22 0.07,0.22 0.08,0.23 0.09,0.24 0.1,0.25 0.1,0.24 0.11,0.25 0.12,0.25 0.13,0.25 0.14,0.25 0.15,0.24 0.15,0.24 0.17,0.23 0.18,0.22 0.18,0.22 0.2,0.2 0.21,0.19 0.22,0.18 0.23,0.16 0.25,0.14 0.12,0.07 0.13,0.06 0.14,0.05 0.13,0.05 0.14,0.05 0.14,0.04 0.15,0.03 0.15,0.03 0.15,0.02 0.16,0.02 0.16,0.01 0.16,0 c 0.25,0 1.44,0 2.48,-0.64 -1.39,-0.25 -2.39,-1.5 -2.39,-2.69 0,-0.79 0.55,-1.75 1.89,-1.75 1.1,0 2.69,0.89 2.69,2.89 0,2.6 -2.94,3.28 -4.63,3.28 -2.89,0 -4.64,-2.64 -5.23,-3.78 -1.25,3.28 -3.94,3.78 -5.37,3.78 -5.19,0 -8.04,-6.42 -8.04,-7.67 0,-0.5 0.5,-0.5 0.61,-0.5 0.39,0 0.55,0.11 0.64,0.55 1.69,5.28 4.99,6.53 6.68,6.53 0.95,0 2.68,-0.44 2.68,-3.33 0,-1.54 -0.84,-4.89 -2.68,-11.86 -0.8,-3.09 -2.54,-5.18 -4.74,-5.18 -0.3,0 -1.44,0 -2.48,0.65 1.25,0.24 2.34,1.28 2.34,2.69 0,1.34 -1.09,1.73 -1.84,1.73 -1.5,0 -2.75,-1.29 -2.75,-2.89 0,-2.28 2.5,-3.28 4.68,-3.28 3.3,0 5.08,3.49 5.24,3.78 0.59,-1.84 2.39,-3.78 5.37,-3.78 5.14,0 7.99,6.42 7.99,7.67 0,0.5 -0.45,0.5 -0.61,0.5 -0.44,0 -0.55,-0.2 -0.64,-0.54 -1.64,-5.33 -5.03,-6.53 -6.63,-6.53 -1.95,0 -2.75,1.59 -2.75,3.29 0,1.1 0.3,2.19 0.86,4.38 z"
         id="path4690"
         inkscape:connector-curvature="0"
         style="fill:#000000;stroke-width:0" /></g>  </g>
  <g
     id="g4734"
     transform="matrix(0.35701713,0,0,0.35701713,59.373655,-423.74863)">
    <g
       word-spacing="normal"
       letter-spacing="normal"
       font-size-adjust="none"
       font-stretch="normal"
       font-weight="normal"
       font-variant="normal"
       font-style="normal"
       stroke-miterlimit="10.433"
       xml:space="preserve"
       transform="matrix(2.0196429,0,0,-2.0196429,-353.4375,2121.5625)"
       id="g4736"
       style="font-style:normal;font-variant:normal;font-weight:normal;font-stretch:normal;letter-spacing:normal;word-spacing:normal;text-anchor:start;fill:none;fill-opacity:1;fill-rule:evenodd;stroke:#000000;stroke-linecap:butt;stroke-linejoin:miter;stroke-miterlimit:10.43299961;stroke-dasharray:none;stroke-dashoffset:0;stroke-opacity:1"><path
         id="path4738"
         d="m 473.84,436.89 0,0.12 -0.01,0.13 -0.02,0.12 -0.02,0.13 -0.03,0.12 -0.03,0.12 -0.04,0.12 -0.05,0.12 -0.05,0.11 -0.06,0.11 -0.06,0.11 -0.07,0.11 -0.07,0.11 -0.08,0.1 -0.08,0.1 -0.08,0.09 -0.09,0.09 -0.1,0.09 -0.1,0.08 -0.1,0.08 -0.11,0.07 -0.11,0.07 -0.11,0.06 -0.12,0.05 -0.12,0.05 -0.13,0.05 -0.12,0.04 -0.13,0.03 -0.14,0.02 -0.13,0.02 -0.14,0.01 -0.14,0.01 c -1.68,0 -2.68,-1.39 -2.68,-2.64 0,-1.35 1.14,-2.64 2.64,-2.64 1.68,0 2.68,1.39 2.68,2.64 z"
         inkscape:connector-curvature="0"
         style="fill:#000000;stroke-width:0" /><path
         id="path4740"
         d="m 472.16,421.25 0.03,0.13 0.03,0.15 0.04,0.16 0.05,0.18 0.05,0.19 0.06,0.21 0.07,0.22 0.07,0.22 0.08,0.23 0.09,0.24 0.09,0.25 0.11,0.24 0.11,0.25 0.12,0.25 0.13,0.25 0.13,0.25 0.15,0.24 0.16,0.24 0.16,0.23 0.18,0.22 0.19,0.22 0.2,0.2 0.21,0.19 0.22,0.18 0.23,0.16 0.24,0.14 0.13,0.07 0.13,0.06 0.13,0.05 0.14,0.05 0.14,0.05 0.14,0.04 0.15,0.03 0.15,0.03 0.15,0.02 0.15,0.02 0.16,0.01 0.16,0 c 0.25,0 1.44,0 2.49,-0.64 -1.39,-0.25 -2.39,-1.5 -2.39,-2.69 0,-0.79 0.54,-1.75 1.89,-1.75 1.09,0 2.69,0.89 2.69,2.89 0,2.6 -2.94,3.28 -4.63,3.28 -2.89,0 -4.64,-2.64 -5.23,-3.78 -1.25,3.28 -3.94,3.78 -5.38,3.78 -5.19,0 -8.03,-6.42 -8.03,-7.67 0,-0.5 0.5,-0.5 0.61,-0.5 0.39,0 0.55,0.11 0.64,0.55 1.69,5.28 4.98,6.53 6.67,6.53 0.96,0 2.69,-0.44 2.69,-3.33 0,-1.54 -0.84,-4.89 -2.69,-11.86 -0.8,-3.09 -2.53,-5.18 -4.73,-5.18 -0.3,0 -1.44,0 -2.49,0.65 1.25,0.24 2.35,1.28 2.35,2.69 0,1.34 -1.1,1.73 -1.85,1.73 -1.5,0 -2.75,-1.29 -2.75,-2.89 0,-2.28 2.5,-3.28 4.69,-3.28 3.3,0 5.08,3.49 5.24,3.78 0.59,-1.84 2.39,-3.78 5.37,-3.78 5.14,0 7.98,6.42 7.98,7.67 0,0.5 -0.45,0.5 -0.61,0.5 -0.43,0 -0.54,-0.2 -0.64,-0.54 -1.64,-5.33 -5.03,-6.53 -6.62,-6.53 -1.95,0 -2.75,1.59 -2.75,3.29 0,1.1 0.3,2.19 0.86,4.38 z"
         inkscape:connector-curvature="0"
         style="fill:#000000;stroke-width:0" /></g>  </g>
  <path
     style="fill:none;fill-rule:evenodd;stroke:#000000;stroke-width:1px;stroke-linecap:butt;stroke-linejoin:miter;stroke-opacity:1;marker-end:url(#marker4774);marker-start:"
     d="m 316.2775,142.53168 -26.55747,0"
     id="path4766"
     inkscape:connector-curvature="0" />
  <path
     inkscape:connector-curvature="0"
     id="path4838"
     d="m 235.9,142.53168 26.55747,0"
     style="fill:none;fill-rule:evenodd;stroke:#000000;stroke-width:1px;stroke-linecap:butt;stroke-linejoin:miter;stroke-opacity:1;marker-end:url(#marker4840);marker-start:" />
  <path
     style="fill:none;fill-rule:evenodd;stroke:#000000;stroke-width:1px;stroke-linecap:butt;stroke-linejoin:miter;stroke-opacity:1;marker-end:url(#marker4944);marker-start:"
     d="m 353.93922,142.53168 26.55747,0"
     id="path4942"
     inkscape:connector-curvature="0" />
  <path
     inkscape:connector-curvature="0"
     id="path5066"
     d="m 446.65719,142.53168 -26.55747,0"
     style="fill:none;fill-rule:evenodd;stroke:#000000;stroke-width:1px;stroke-linecap:butt;stroke-linejoin:miter;stroke-opacity:1;marker-end:url(#marker5068);marker-start:" />
  <path
     style="fill:none;fill-rule:evenodd;stroke:#000000;stroke-width:1px;stroke-linecap:butt;stroke-linejoin:miter;stroke-opacity:1;marker-end:url(#marker5146);marker-start:"
     d="m 108.73956,142.53168 26.55747,0"
     id="path5144"
     inkscape:connector-curvature="0" />
  <path
     inkscape:connector-curvature="0"
     id="path5272"
     d="m 199.8479,142.53168 -26.55747,0"
     style="fill:none;fill-rule:evenodd;stroke:#000000;stroke-width:1px;stroke-linecap:butt;stroke-linejoin:miter;stroke-opacity:1;marker-end:url(#marker5274);marker-start:" />
  <path
     style="fill:none;fill-rule:evenodd;stroke:#000000;stroke-width:1px;stroke-linecap:butt;stroke-linejoin:miter;stroke-opacity:1;marker-end:url(#marker5368);marker-start:"
     d="m 68.395126,142.53168 -26.55747,0"
     id="path5366"
     inkscape:connector-curvature="0" />
</svg>
