<?xml version="1.0" encoding="UTF-8" standalone="no"?>
<!-- Created with Inkscape (http://www.inkscape.org/) -->

<svg
   xmlns:dc="http://purl.org/dc/elements/1.1/"
   xmlns:cc="http://creativecommons.org/ns#"
   xmlns:rdf="http://www.w3.org/1999/02/22-rdf-syntax-ns#"
   xmlns:svg="http://www.w3.org/2000/svg"
   xmlns="http://www.w3.org/2000/svg"
   xmlns:sodipodi="http://sodipodi.sourceforge.net/DTD/sodipodi-0.dtd"
   xmlns:inkscape="http://www.inkscape.org/namespaces/inkscape"
   inkscape:version="0.91 r13725"
   version="1.1"
   id="svg2"
   viewBox="0 0 564.37497 424.37501"
   height="119.76806mm"
   width="159.27916mm"
   sodipodi:docname="sovrasmorzato.svg">
  <sodipodi:namedview
     inkscape:window-maximized="1"
     inkscape:window-y="0"
     inkscape:window-x="0"
     inkscape:window-height="1021"
     inkscape:window-width="1920"
     fit-margin-bottom="0"
     fit-margin-right="0"
     fit-margin-left="0"
     fit-margin-top="0"
     showgrid="false"
     inkscape:current-layer="layer1"
     inkscape:document-units="px"
     inkscape:cy="254.45381"
     inkscape:cx="315.01813"
     inkscape:zoom="0.98994949"
     inkscape:pageshadow="2"
     inkscape:pageopacity="0.0"
     borderopacity="1.0"
     bordercolor="#666666"
     pagecolor="#ffffff"
     id="base" />
  <defs
     id="defs4">
    <marker
       inkscape:stockid="Arrow1Lstart"
       orient="auto"
       refY="0.0"
       refX="0.0"
       id="marker4628"
       style="overflow:visible"
       inkscape:isstock="true">
      <path
         id="path4630"
         d="M 0.0,0.0 L 5.0,-5.0 L -12.5,0.0 L 5.0,5.0 L 0.0,0.0 z "
         style="fill-rule:evenodd;stroke:#000000;stroke-width:1pt;stroke-opacity:1;fill:#000000;fill-opacity:1"
         transform="scale(0.8) translate(12.5,0)" />
    </marker>
    <marker
       inkscape:stockid="Arrow1Lend"
       orient="auto"
       refY="0.0"
       refX="0.0"
       id="marker4606"
       style="overflow:visible;"
       inkscape:isstock="true">
      <path
         id="path4608"
         d="M 0.0,0.0 L 5.0,-5.0 L -12.5,0.0 L 5.0,5.0 L 0.0,0.0 z "
         style="fill-rule:evenodd;stroke:#000000;stroke-width:1pt;stroke-opacity:1;fill:#000000;fill-opacity:1"
         transform="scale(0.8) rotate(180) translate(12.5,0)" />
    </marker>
    <marker
       inkscape:stockid="Arrow1Lend"
       orient="auto"
       refY="0.0"
       refX="0.0"
       id="Arrow1Lend"
       style="overflow:visible;"
       inkscape:isstock="true">
      <path
         id="path4325"
         d="M 0.0,0.0 L 5.0,-5.0 L -12.5,0.0 L 5.0,5.0 L 0.0,0.0 z "
         style="fill-rule:evenodd;stroke:#000000;stroke-width:1pt;stroke-opacity:1;fill:#000000;fill-opacity:1"
         transform="scale(0.8) rotate(180) translate(12.5,0)" />
    </marker>
    <marker
       inkscape:stockid="Arrow1Lstart"
       orient="auto"
       refY="0.0"
       refX="0.0"
       id="Arrow1Lstart"
       style="overflow:visible"
       inkscape:isstock="true">
      <path
         id="path4322"
         d="M 0.0,0.0 L 5.0,-5.0 L -12.5,0.0 L 5.0,5.0 L 0.0,0.0 z "
         style="fill-rule:evenodd;stroke:#000000;stroke-width:1pt;stroke-opacity:1;fill:#000000;fill-opacity:1"
         transform="scale(0.8) translate(12.5,0)" />
    </marker>
    <inkscape:path-effect
       effect="spiro"
       id="path-effect4316"
       is_visible="true" />
    <inkscape:path-effect
       effect="spiro"
       id="path-effect4312"
       is_visible="true" />
  </defs>
  <metadata
     id="metadata7">
    <rdf:RDF>
      <cc:Work
         rdf:about="">
        <dc:format>image/svg+xml</dc:format>
        <dc:type
           rdf:resource="http://purl.org/dc/dcmitype/StillImage" />
        <dc:title></dc:title>
      </cc:Work>
    </rdf:RDF>
  </metadata>
  <g
     inkscape:label="Layer 1"
     inkscape:groupmode="layer"
     id="layer1"
     transform="translate(541.47321,-320.17471)">
    <path
       id="path4303"
       title="pow(2.7,-x)"
       d="m -402.57978,530.90245 569.72601,0 m -569.72601,207.58635 0,-415.1727 m 0,103.79318 c 0.1901,0 0.3802,0.41251 0.5703,0.41196 0.1901,-5.6e-4 0.38019,0.41144 0.57029,0.41033 0.1901,-0.001 0.3802,0.41036 0.5703,0.4087 0.1901,-0.002 0.3802,0.4093 0.5703,0.40708 0.19009,-0.002 0.38019,0.40823 0.57029,0.40546 0.1901,-0.003 0.3802,0.40718 0.5703,0.40385 0.1901,-0.003 0.3802,0.40613 0.57029,0.40225 0.1901,-0.004 0.3802,0.40509 0.5703,0.40066 0.1901,-0.004 0.3802,0.40405 0.5703,0.39906 0.1901,-0.005 0.38019,0.40303 0.57029,0.39748 0.1901,-0.006 0.3802,0.402 0.5703,0.3959 0.1901,-0.006 0.3802,0.40099 0.5703,0.39433 0.19009,-0.007 0.38019,0.39998 0.57029,0.39277 0.1901,-0.007 0.3802,0.39897 0.5703,0.3912 0.1901,-0.008 0.3802,0.39798 0.57029,0.38966 0.1901,-0.008 0.3802,0.39698 0.5703,0.3881 0.1901,-0.009 0.3802,0.396 0.5703,0.38657 0.1901,-0.009 0.38019,0.39502 0.57029,0.38503 0.1901,-0.01 0.3802,0.39405 0.5703,0.38351 0.1901,-0.0105 0.3802,0.39307 0.5703,0.38198 0.19009,-0.0111 0.38019,0.39211 0.57029,0.38046 0.1901,-0.0116 0.3802,0.39116 0.5703,0.37896 0.1901,-0.0122 0.3802,0.39021 0.5703,0.37745 0.19009,-0.0128 0.38019,0.38927 0.57029,0.37596 0.1901,-0.0133 0.3802,0.38832 0.5703,0.37446 0.1901,-0.0139 0.3802,0.38739 0.57029,0.37297 0.1901,-0.0144 0.3802,0.38647 0.5703,0.3715 0.1901,-0.015 0.3802,0.38555 0.5703,0.37002 0.1901,-0.0155 0.38019,0.38463 0.57029,0.36855 0.1901,-0.0161 0.3802,0.38373 0.5703,0.36709 0.1901,-0.0166 0.3802,0.38282 0.5703,0.36563 0.19009,-0.0172 0.38019,0.38193 0.57029,0.36418 0.1901,-0.0177 0.3802,0.38104 0.5703,0.36273 0.1901,-0.0183 0.3802,0.38016 0.57029,0.3613 0.1901,-0.0189 0.3802,0.37927 0.5703,0.35986 0.1901,-0.0194 0.3802,0.3784 0.5703,0.35843 0.1901,-0.02 0.38019,0.37754 0.57029,0.35701 0.1901,-0.0205 0.3802,0.37668 0.5703,0.3556 0.1901,-0.0211 0.3802,0.37581 0.5703,0.35418 0.19009,-0.0216 0.38019,0.37496 0.57029,0.35278 0.1901,-0.0222 0.3802,0.37411 0.5703,0.35137 0.1901,-0.0227 0.3802,0.37328 0.57029,0.34998 0.1901,-0.0233 0.3802,0.37245 0.5703,0.3486 0.1901,-0.0239 0.3802,0.37161 0.5703,0.3472 0.1901,-0.0244 0.3802,0.37079 0.57029,0.34583 0.1901,-0.025 0.3802,0.36998 0.5703,0.34446 0.1901,-0.0255 0.3802,0.36916 0.5703,0.34309 0.1901,-0.0261 0.38019,0.36836 0.57029,0.34173 0.1901,-0.0266 0.3802,0.36755 0.5703,0.34037 0.1901,-0.0272 0.3802,0.36676 0.5703,0.33903 0.19009,-0.0277 0.38019,0.36596 0.57029,0.33767 0.1901,-0.0283 0.3802,0.36518 0.5703,0.33634 0.1901,-0.0288 0.3802,0.3644 0.57029,0.335 0.1901,-0.0294 0.3802,0.36362 0.5703,0.33367 0.1901,-0.0299 0.3802,0.36285 0.5703,0.33235 0.1901,-0.0305 0.38019,0.36209 0.57029,0.33102 0.1901,-0.0311 0.3802,0.36133 0.5703,0.32972 0.1901,-0.0316 0.3802,0.36057 0.5703,0.3284 0.19009,-0.0322 0.38019,0.35983 0.57029,0.32711 0.1901,-0.0327 0.3802,0.35908 0.5703,0.3258 0.1901,-0.0333 0.3802,0.35834 0.57029,0.32451 0.1901,-0.0338 0.3802,0.35761 0.5703,0.32322 0.1901,-0.0344 0.3802,0.35688 0.5703,0.32194 0.1901,-0.0349 0.38019,0.35616 0.57029,0.32066 0.1901,-0.0355 0.3802,0.35544 0.5703,0.31939 0.1901,-0.036 0.3802,0.35473 0.5703,0.31812 0.19009,-0.0366 0.38019,0.35402 0.57029,0.31686 0.1901,-0.0372 0.3802,0.35332 0.5703,0.3156 0.1901,-0.0377 0.3802,0.35262 0.5703,0.31435 0.19009,-0.0383 0.38019,0.35193 0.57029,0.3131 0.1901,-0.0388 0.3802,0.35124 0.5703,0.31186 0.1901,-0.0394 0.3802,0.35055 0.57029,0.31062 0.1901,-0.0399 0.3802,0.34988 0.5703,0.30938 0.1901,-0.0405 0.3802,0.34921 0.5703,0.30816 0.1901,-0.041 0.38019,0.34854 0.57029,0.30694 0.1901,-0.0416 0.3802,0.34787 0.5703,0.30572 0.1901,-0.0422 0.3802,0.34721 0.5703,0.3045 0.19009,-0.0427 0.38019,0.34656 0.57029,0.3033 0.1901,-0.0433 0.3802,0.34591 0.5703,0.30209 0.1901,-0.0438 0.3802,0.34527 0.57029,0.30089 0.1901,-0.0444 0.3802,0.34463 0.5703,0.2997 0.1901,-0.0449 0.3802,0.34399 0.5703,0.29851 0.1901,-0.0455 0.38019,0.34336 0.57029,0.29732 0.1901,-0.046 0.3802,0.34274 0.5703,0.29615 0.1901,-0.0466 0.3802,0.34211 0.5703,0.29497 0.19009,-0.0471 0.38019,0.3415 0.57029,0.2938 0.1901,-0.0477 0.3802,0.34088 0.5703,0.29263 0.1901,-0.0483 0.3802,0.34028 0.57029,0.29147 0.1901,-0.0488 0.3802,0.33968 0.5703,0.29031 0.1901,-0.0494 0.3802,0.33908 0.5703,0.28916 0.1901,-0.0499 0.3802,0.33849 0.57029,0.28802 0.1901,-0.0505 0.3802,0.3379 0.5703,0.28687 0.1901,-0.051 0.3802,0.33731 0.5703,0.28573 0.1901,-0.0516 0.38019,0.33674 0.57029,0.2846 0.1901,-0.0521 0.3802,0.33616 0.5703,0.28346 0.1901,-0.0527 0.3802,0.3356 0.5703,0.28235 0.19009,-0.0532 0.38019,0.33502 0.57029,0.28122 0.1901,-0.0538 0.3802,0.33446 0.5703,0.28011 0.1901,-0.0544 0.3802,0.3339 0.57029,0.27899 0.1901,-0.0549 0.3802,0.33335 0.5703,0.27789 0.1901,-0.0555 0.3802,0.3328 0.5703,0.27678 0.1901,-0.056 0.38019,0.33226 0.57029,0.27569 0.1901,-0.0566 0.3802,0.33172 0.5703,0.27459 0.1901,-0.0571 0.3802,0.33119 0.5703,0.2735 0.19009,-0.0577 0.38019,0.33066 0.57029,0.27242 0.1901,-0.0583 0.3802,0.33013 0.5703,0.27133 0.1901,-0.0588 0.3802,0.32961 0.57029,0.27026 0.1901,-0.0593 0.3802,0.32909 0.5703,0.26918 0.1901,-0.0599 0.3802,0.32858 0.5703,0.26812 0.1901,-0.0605 0.38019,0.32807 0.57029,0.26705 0.1901,-0.061 0.3802,0.32756 0.5703,0.26599 0.1901,-0.0616 0.3802,0.32706 0.5703,0.26494 0.1901,-0.0621 0.38019,0.32656 0.57029,0.26389 0.1901,-0.0627 0.3802,0.32607 0.5703,0.26283 0.1901,-0.0632 0.3802,0.32559 0.5703,0.2618 0.19009,-0.0638 0.38019,0.3251 0.57029,0.26075 0.1901,-0.0643 0.3802,0.32462 0.5703,0.25972 0.1901,-0.0649 0.3802,0.32415 0.57029,0.25869 0.1901,-0.0654 0.3802,0.32367 0.5703,0.25767 0.1901,-0.066 0.3802,0.3232 0.5703,0.25664 0.1901,-0.0666 0.38019,0.32273 0.57029,0.25562 0.1901,-0.0671 0.3802,0.32228 0.5703,0.25461 0.1901,-0.0677 0.3802,0.32182 0.5703,0.25359 0.19009,-0.0682 0.38019,0.32137 0.57029,0.25259 0.1901,-0.0688 0.3802,0.32092 0.5703,0.25159 0.1901,-0.0693 0.3802,0.32048 0.57029,0.25059 0.1901,-0.0699 0.3802,0.32004 0.5703,0.24959 0.1901,-0.0704 0.3802,0.3196 0.5703,0.24861 0.1901,-0.071 0.38019,0.31916 0.57029,0.24761 0.1901,-0.0716 0.3802,0.31874 0.5703,0.24664 0.1901,-0.0721 0.3802,0.31831 0.5703,0.24565 0.19009,-0.0727 0.38019,0.3179 0.57029,0.24468 0.1901,-0.0732 0.3802,0.31748 0.5703,0.24371 0.1901,-0.0738 0.3802,0.31707 0.5703,0.24274 0.19009,-0.0743 0.38019,0.31666 0.57029,0.24178 0.1901,-0.0749 0.3802,0.31625 0.5703,0.24082 0.1901,-0.0754 0.3802,0.31585 0.57029,0.23986 0.1901,-0.076 0.3802,0.31546 0.5703,0.23891 0.1901,-0.0765 0.3802,0.31506 0.5703,0.23796 0.1901,-0.0771 0.38019,0.31468 0.57029,0.23702 0.1901,-0.0777 0.3802,0.31429 0.5703,0.23608 0.1901,-0.0782 0.3802,0.3139 0.5703,0.23514 0.19009,-0.0788 0.38019,0.31352 0.57029,0.23421 0.1901,-0.0793 0.3802,0.31315 0.5703,0.23327 0.1901,-0.0799 0.3802,0.31278 0.57029,0.23235 0.1901,-0.0804 0.3802,0.31241 0.5703,0.23143 0.1901,-0.081 0.3802,0.31205 0.5703,0.23051 0.1901,-0.0815 0.38019,0.31169 0.57029,0.2296 0.1901,-0.0821 0.3802,0.31133 0.5703,0.22868 0.1901,-0.0826 0.3802,0.31098 0.5703,0.22778 0.19009,-0.0832 0.38019,0.31063 0.57029,0.22687 0.1901,-0.0838 0.3802,0.31028 0.5703,0.22597 0.1901,-0.0843 0.3802,0.30994 0.57029,0.22508 0.1901,-0.0849 0.3802,0.3096 0.5703,0.22418 0.1901,-0.0854 0.3802,0.30927 0.5703,0.22329 0.1901,-0.086 0.3802,0.30894 0.57029,0.22241 0.1901,-0.0865 0.3802,0.30861 0.5703,0.22152 0.1901,-0.0871 0.3802,0.30828 0.5703,0.22065 0.1901,-0.0876 0.38019,0.30796 0.57029,0.21976 0.1901,-0.0882 0.3802,0.30765 0.5703,0.2189 0.1901,-0.0888 0.3802,0.30733 0.5703,0.21803 0.19009,-0.0893 0.38019,0.30702 0.57029,0.21716 0.1901,-0.0899 0.3802,0.30671 0.5703,0.2163 0.1901,-0.0904 0.3802,0.30641 0.57029,0.21544 0.1901,-0.091 0.3802,0.30611 0.5703,0.21459 0.1901,-0.0915 0.3802,0.30581 0.5703,0.21373 0.1901,-0.0921 0.38019,0.30552 0.57029,0.21289 0.1901,-0.0926 0.3802,0.30522 0.5703,0.21204 0.1901,-0.0932 0.3802,0.30494 0.5703,0.2112 0.19009,-0.0937 0.38019,0.30465 0.57029,0.21036 0.1901,-0.0943 0.3802,0.30437 0.5703,0.20952 0.1901,-0.0948 0.3802,0.3041 0.57029,0.2087 0.1901,-0.0954 0.3802,0.30382 0.5703,0.20786 0.1901,-0.0959 0.3802,0.30356 0.5703,0.20705 0.1901,-0.0965 0.38019,0.30328 0.57029,0.20622 0.1901,-0.0971 0.3802,0.30302 0.5703,0.2054 0.1901,-0.0976 0.3802,0.30276 0.5703,0.20458 0.19009,-0.0982 0.38019,0.30251 0.57029,0.20378 0.1901,-0.0987 0.3802,0.30225 0.5703,0.20296 0.1901,-0.0993 0.3802,0.302 0.5703,0.20216 0.19009,-0.0998 0.38019,0.30175 0.57029,0.20136 0.1901,-0.1004 0.3802,0.3015 0.5703,0.20055 0.1901,-0.10095 0.3802,0.30127 0.57029,0.19977 0.1901,-0.10151 0.3802,0.30102 0.5703,0.19896 0.1901,-0.10205 0.3802,0.3008 0.5703,0.19818 0.1901,-0.10261 0.38019,0.30057 0.57029,0.1974 0.1901,-0.10317 0.3802,0.30033 0.5703,0.19661 0.1901,-0.10373 0.3802,0.3001 0.5703,0.19582 0.19009,-0.10427 0.38019,0.29989 0.57029,0.19506 0.1901,-0.10484 0.3802,0.29966 0.5703,0.19427 0.1901,-0.10539 0.3802,0.29945 0.57029,0.19351 0.1901,-0.10594 0.3802,0.29923 0.5703,0.19274 0.1901,-0.1065 0.3802,0.29902 0.5703,0.19197 0.1901,-0.10705 0.38019,0.29882 0.57029,0.19121 0.1901,-0.10761 0.3802,0.29861 0.5703,0.19045 0.1901,-0.10816 0.3802,0.29842 0.5703,0.1897 0.19009,-0.10872 0.38019,0.29821 0.57029,0.18894 0.1901,-0.10927 0.3802,0.29802 0.5703,0.1882 0.1901,-0.10983 0.3802,0.29782 0.57029,0.18744 0.1901,-0.11038 0.3802,0.29764 0.5703,0.18671 0.1901,-0.11094 0.3802,0.29745 0.5703,0.18596 0.1901,-0.11149 0.3802,0.29726 0.57029,0.18522 0.1901,-0.11204 0.3802,0.29709 0.5703,0.18449 0.1901,-0.1126 0.3802,0.29691 0.5703,0.18375 0.1901,-0.11315 0.38019,0.29674 0.57029,0.18303 0.1901,-0.11371 0.3802,0.29656 0.5703,0.1823 0.1901,-0.11426 0.3802,0.29639 0.5703,0.18158 0.19009,-0.11482 0.38019,0.29623 0.57029,0.18085 0.1901,-0.11537 0.3802,0.29607 0.5703,0.18014 0.1901,-0.11593 0.3802,0.29591 0.57029,0.17942 0.1901,-0.11648 0.3802,0.29575 0.5703,0.17872 0.1901,-0.11704 0.3802,0.29559 0.5703,0.178 0.1901,-0.11759 0.38019,0.29544 0.57029,0.17729 0.1901,-0.11814 0.3802,0.29529 0.5703,0.17659 0.1901,-0.1187 0.3802,0.29515 0.5703,0.17589 0.19009,-0.11925 0.38019,0.29501 0.57029,0.1752 0.1901,-0.11981 0.3802,0.29486 0.5703,0.17449 0.1901,-0.12036 0.3802,0.29473 0.57029,0.17381 0.1901,-0.12092 0.3802,0.29459 0.5703,0.17311 0.1901,-0.12147 0.3802,0.29446 0.5703,0.17243 0.1901,-0.12203 0.38019,0.29433 0.57029,0.17174 0.1901,-0.12258 0.3802,0.2942 0.5703,0.17106 0.1901,-0.12313 0.3802,0.29408 0.5703,0.17039 0.1901,-0.1237 0.38019,0.29395 0.57029,0.1697 0.1901,-0.12424 0.3802,0.29384 0.5703,0.16904 0.1901,-0.12481 0.3802,0.29371 0.5703,0.16836 0.19009,-0.12536 0.38019,0.2936 0.57029,0.16769 0.1901,-0.12591 0.3802,0.29349 0.5703,0.16703 0.1901,-0.12647 0.3802,0.29338 0.57029,0.16636 0.1901,-0.12702 0.3802,0.29328 0.5703,0.16571 0.1901,-0.12758 0.3802,0.29317 0.5703,0.16505 0.1901,-0.12813 0.38019,0.29307 0.57029,0.16439 0.1901,-0.12869 0.3802,0.29297 0.5703,0.16374 0.1901,-0.12924 0.3802,0.29288 0.5703,0.16309 0.19009,-0.1298 0.38019,0.29279 0.57029,0.16244 0.1901,-0.13035 0.3802,0.2927 0.5703,0.1618 0.1901,-0.13091 0.3802,0.29261 0.57029,0.16115 0.1901,-0.13146 0.3802,0.29253 0.5703,0.16052 0.1901,-0.13202 0.3802,0.29244 0.5703,0.15987 0.1901,-0.13256 0.38019,0.29237 0.57029,0.15925 0.1901,-0.13312 0.3802,0.29229 0.5703,0.15861 0.1901,-0.13368 0.3802,0.29221 0.5703,0.15798 0.19009,-0.13423 0.38019,0.29214 0.57029,0.15736 0.1901,-0.13479 0.3802,0.29207 0.5703,0.15673 0.1901,-0.13534 0.3802,0.292 0.5703,0.15611 0.19009,-0.1359 0.38019,0.29194 0.57029,0.15549 0.1901,-0.13645 0.3802,0.29187 0.5703,0.15487 0.1901,-0.13701 0.3802,0.29181 0.57029,0.15426 0.1901,-0.13756 0.3802,0.29175 0.5703,0.15364 0.1901,-0.13811 0.3802,0.2917 0.5703,0.15304 0.1901,-0.13867 0.38019,0.29165 0.57029,0.15242 0.1901,-0.13922 0.3802,0.2916 0.5703,0.15183 0.1901,-0.13978 0.3802,0.29155 0.5703,0.15122 0.19009,-0.14034 0.38019,0.2915 0.57029,0.15062 0.1901,-0.14089 0.3802,0.29146 0.5703,0.15002 0.1901,-0.14144 0.3802,0.29142 0.57029,0.14942 0.1901,-0.14199 0.3802,0.29139 0.5703,0.14884 0.1901,-0.14255 0.3802,0.29135 0.5703,0.14824 0.1901,-0.14311 0.38019,0.29131 0.57029,0.14765 0.1901,-0.14366 0.3802,0.29129 0.5703,0.14707 0.1901,-0.14421 0.3802,0.29126 0.5703,0.14649 0.19009,-0.14477 0.38019,0.29122 0.57029,0.1459 0.1901,-0.14532 0.3802,0.2912 0.5703,0.14532 0.1901,-0.14587 0.3802,0.29119 0.57029,0.14475 0.1901,-0.14643 0.3802,0.29116 0.5703,0.14417 0.1901,-0.14698 0.3802,0.29115 0.5703,0.14361 0.1901,-0.14755 0.3802,0.29112 0.57029,0.14303 0.1901,-0.1481 0.3802,0.29111 0.5703,0.14246 0.1901,-0.14865 0.3802,0.2911 0.5703,0.1419 0.1901,-0.14921 0.38019,0.29109 0.57029,0.14133 0.1901,-0.14976 0.3802,0.29109 0.5703,0.14077 0.1901,-0.15031 0.3802,0.29109 0.5703,0.14022 0.19009,-0.15087 0.38019,0.29108 0.57029,0.13966 0.1901,-0.15143 0.3802,0.29108 0.5703,0.1391 0.1901,-0.15198 0.3802,0.29109 0.57029,0.13855 0.1901,-0.15253 0.3802,0.29109 0.5703,0.138 0.1901,-0.15309 0.3802,0.2911 0.5703,0.13746 0.1901,-0.15365 0.38019,0.2911 0.57029,0.13691 0.1901,-0.1542 0.3802,0.29111 0.5703,0.13636 0.1901,-0.15475 0.3802,0.29113 0.5703,0.13582 0.19009,-0.1553 0.38019,0.29115 0.57029,0.13529 0.1901,-0.15586 0.3802,0.29116 0.5703,0.13475 0.1901,-0.15642 0.3802,0.29118 0.57029,0.13421 0.1901,-0.15697 0.3802,0.29121 0.5703,0.13368 0.1901,-0.15753 0.3802,0.29123 0.5703,0.13315 0.1901,-0.15808 0.38019,0.29126 0.57029,0.13262 0.1901,-0.15864 0.3802,0.29129 0.5703,0.13209 0.1901,-0.15919 0.3802,0.29132 0.5703,0.13157 0.19009,-0.15974 0.38019,0.29135 0.57029,0.13105 0.1901,-0.1603 0.3802,0.29139 0.5703,0.13053 0.1901,-0.16085 0.3802,0.29142 0.5703,0.13001 0.19009,-0.16141 0.38019,0.29146 0.57029,0.12949 0.1901,-0.16196 0.3802,0.2915 0.5703,0.12898 0.1901,-0.16251 0.3802,0.29155 0.57029,0.12847 0.1901,-0.16307 0.3802,0.29159 0.5703,0.12796 0.1901,-0.16363 0.3802,0.29163 0.5703,0.12745 0.1901,-0.16418 0.38019,0.29168 0.57029,0.12695 0.1901,-0.16474 0.3802,0.29173 0.5703,0.12644 0.1901,-0.1653 0.3802,0.29178 0.5703,0.12593 0.19009,-0.16584 0.38019,0.29184 0.57029,0.12544 0.1901,-0.1664 0.3802,0.2919 0.5703,0.12494 0.1901,-0.16695 0.3802,0.29196 0.57029,0.12445 0.1901,-0.16751 0.3802,0.29202 0.5703,0.12395 0.1901,-0.16807 0.3802,0.29208 0.5703,0.12346 0.1901,-0.16862 0.38019,0.29214 0.57029,0.12297 0.1901,-0.16918 0.3802,0.29221 0.5703,0.12248 0.1901,-0.16973 0.3802,0.29228 0.5703,0.12199 0.19009,-0.17028 0.38019,0.29235 0.57029,0.12151 0.1901,-0.17083 0.3802,0.29243 0.5703,0.12103 0.1901,-0.17139 0.3802,0.2925 0.57029,0.12055 0.1901,-0.17195 0.3802,0.29257 0.5703,0.12007 0.1901,-0.1725 0.3802,0.29265 0.5703,0.11959 0.1901,-0.17305 0.3802,0.29273 0.57029,0.11912 0.1901,-0.17361 0.3802,0.29281 0.5703,0.11865 0.1901,-0.17417 0.3802,0.29289 0.5703,0.11817 0.1901,-0.17472 0.38019,0.29298 0.57029,0.11771 0.1901,-0.17528 0.3802,0.29307 0.5703,0.11724 0.1901,-0.17584 0.3802,0.29315 0.5703,0.11677 0.19009,-0.17639 0.38019,0.29325 0.57029,0.11631 0.1901,-0.17694 0.3802,0.29334 0.5703,0.11585 0.1901,-0.1775 0.3802,0.29343 0.57029,0.11538 0.1901,-0.17805 0.3802,0.29354 0.5703,0.11493 0.1901,-0.1786 0.3802,0.29364 0.5703,0.11448 0.1901,-0.17916 0.38019,0.29373 0.57029,0.11402 0.1901,-0.17972 0.3802,0.29383 0.5703,0.11357 0.1901,-0.18027 0.3802,0.29393 0.5703,0.11311 0.19009,-0.18082 0.38019,0.29405 0.57029,0.11267 0.1901,-0.18138 0.3802,0.29415 0.5703,0.11222 0.1901,-0.18193 0.3802,0.29426 0.57029,0.11177 0.1901,-0.18248 0.3802,0.29438 0.5703,0.11133 0.1901,-0.18304 0.3802,0.29449 0.5703,0.11089 0.1901,-0.18359 0.38019,0.2946 0.57029,0.11045 0.1901,-0.18415 0.3802,0.29472 0.5703,0.11001 0.1901,-0.1847 0.3802,0.29484 0.5703,0.10958 0.1901,-0.18526 0.38019,0.29495 0.57029,0.10914 0.1901,-0.18582 0.3802,0.29507 0.5703,0.1087 0.1901,-0.18637 0.3802,0.2952 0.5703,0.10828 0.19009,-0.18693 0.38019,0.29532 0.57029,0.10784 0.1901,-0.18748 0.3802,0.29545 0.5703,0.10742 0.1901,-0.18804 0.3802,0.29558 0.57029,0.10699 0.1901,-0.18859 0.3802,0.29571 0.5703,0.10656 0.1901,-0.18914 0.3802,0.29585 0.5703,0.10615 0.1901,-0.1897 0.38019,0.29597 0.57029,0.10572 0.1901,-0.19025 0.3802,0.29611 0.5703,0.1053 0.1901,-0.19081 0.3802,0.29625 0.5703,0.10488 0.19009,-0.19136 0.38019,0.29639 0.57029,0.10447 0.1901,-0.19191 0.3802,0.29653 0.5703,0.10406 0.1901,-0.19248 0.3802,0.29666 0.57029,0.10363 0.1901,-0.19302 0.3802,0.29681 0.5703,0.10323 0.1901,-0.19358 0.3802,0.29696 0.5703,0.10282 0.1901,-0.19413 0.38019,0.2971 0.57029,0.10241 0.1901,-0.19469 0.3802,0.29725 0.5703,0.10201 0.1901,-0.19525 0.3802,0.2974 0.5703,0.1016 0.19009,-0.1958 0.38019,0.29755 0.57029,0.10119 0.1901,-0.19635 0.3802,0.29771 0.5703,0.1008 0.1901,-0.19691 0.3802,0.29786 0.5703,0.10039 0.19009,-0.19746 0.38019,0.29802 0.57029,0.1 0.1901,-0.19802 0.3802,0.29817 0.5703,0.0996 0.1901,-0.19858 0.3802,0.29833 0.57029,0.0992 0.1901,-0.19913 0.3802,0.29849 0.5703,0.0988 0.1901,-0.19968 0.3802,0.29866 0.5703,0.0984 0.1901,-0.20024 0.38019,0.29882 0.57029,0.098 0.1901,-0.2008 0.3802,0.29898 0.5703,0.0976 0.1901,-0.20134 0.3802,0.29916 0.5703,0.0972 0.19009,-0.2019 0.38019,0.29932 0.57029,0.0969 0.1901,-0.20246 0.3802,0.29949 0.5703,0.0965 0.1901,-0.20301 0.3802,0.29966 0.57029,0.0961 0.1901,-0.20357 0.3802,0.29983 0.5703,0.0957 0.1901,-0.20412 0.3802,0.30001 0.5703,0.0953 0.1901,-0.20468 0.38019,0.30018 0.57029,0.095 0.1901,-0.20523 0.3802,0.30036 0.5703,0.0946 0.1901,-0.20579 0.3802,0.30054 0.5703,0.0942 0.19009,-0.20634 0.38019,0.30073 0.57029,0.0938 0.1901,-0.20689 0.3802,0.30091 0.5703,0.0935 0.1901,-0.20745 0.3802,0.30109 0.57029,0.0931 0.1901,-0.208 0.3802,0.30127 0.5703,0.0927 0.1901,-0.20856 0.3802,0.30146 0.5703,0.0924 0.1901,-0.20911 0.3802,0.30165 0.57029,0.092 0.1901,-0.20966 0.3802,0.30184 0.5703,0.0916 0.1901,-0.21022 0.3802,0.30203 0.5703,0.0913 0.1901,-0.21078 0.38019,0.30222 0.57029,0.0909 0.1901,-0.21133 0.3802,0.30242 0.5703,0.0905 0.1901,-0.21188 0.3802,0.30261 0.5703,0.0902 0.19009,-0.21244 0.38019,0.30281 0.57029,0.0898 0.1901,-0.213 0.3802,0.30301 0.5703,0.0895 0.1901,-0.21355 0.3802,0.3032 0.57029,0.0891 0.1901,-0.2141 0.3802,0.30341 0.5703,0.0888 0.1901,-0.21466 0.3802,0.30361 0.5703,0.0884 0.1901,-0.21522 0.38019,0.30381 0.57029,0.088 0.1901,-0.21576 0.3802,0.30402 0.5703,0.0877 0.1901,-0.21632 0.3802,0.30423 0.5703,0.0873 0.19009,-0.21688 0.38019,0.30443 0.57029,0.087 0.1901,-0.21743 0.3802,0.30465 0.5703,0.0867 0.1901,-0.21799 0.3802,0.30485 0.57029,0.0863 0.1901,-0.21854 0.3802,0.30507 0.5703,0.086 0.1901,-0.21909 0.3802,0.30528 0.5703,0.0856 0.1901,-0.21965 0.38019,0.3055 0.57029,0.0853 0.1901,-0.2202 0.3802,0.30571 0.5703,0.0849 0.1901,-0.22076 0.3802,0.30593 0.5703,0.0846 0.19009,-0.22132 0.38019,0.30614 0.57029,0.0843 0.1901,-0.22186 0.3802,0.30637 0.5703,0.084 0.1901,-0.22243 0.3802,0.30659 0.5703,0.0836 0.19009,-0.22298 0.38019,0.30681 0.57029,0.0833 0.1901,-0.22354 0.3802,0.30703 0.5703,0.0829 0.1901,-0.22408 0.3802,0.30727 0.57029,0.0826 0.1901,-0.22464 0.3802,0.30749 0.5703,0.0823 0.1901,-0.22519 0.3802,0.30772 0.5703,0.082 0.1901,-0.22575 0.38019,0.30794 0.57029,0.0816 0.1901,-0.22631 0.3802,0.30817 0.5703,0.0813 0.1901,-0.22686 0.3802,0.30841 0.5703,0.081 0.19009,-0.22741 0.38019,0.30864 0.57029,0.0807 0.1901,-0.22797 0.3802,0.30888 0.5703,0.0804 0.1901,-0.22852 0.3802,0.30911 0.57029,0.08 0.1901,-0.22908 0.3802,0.30934 0.5703,0.0797 0.1901,-0.22964 0.3802,0.30959 0.5703,0.0794 0.1901,-0.23019 0.38019,0.30982 0.57029,0.0791 0.1901,-0.23075 0.3802,0.31007 0.5703,0.0788 0.1901,-0.2313 0.3802,0.31031 0.5703,0.0785 0.19009,-0.23185 0.38019,0.31055 0.57029,0.0781 0.1901,-0.23241 0.3802,0.31079 0.5703,0.0778 0.1901,-0.23296 0.3802,0.31104 0.57029,0.0775 0.1901,-0.23352 0.3802,0.31129 0.5703,0.0772 0.1901,-0.23407 0.3802,0.31154 0.5703,0.0769 0.1901,-0.23462 0.3802,0.31179 0.57029,0.0766 0.1901,-0.23518 0.3802,0.31204 0.5703,0.0763 0.1901,-0.23573 0.3802,0.31229 0.5703,0.076 0.1901,-0.23629 0.38019,0.31254 0.57029,0.0757 0.1901,-0.23685 0.3802,0.31279 0.5703,0.0754 0.1901,-0.2374 0.3802,0.31306 0.5703,0.0751 0.19009,-0.23795 0.38019,0.31331 0.57029,0.0748 0.1901,-0.23851 0.3802,0.31357 0.5703,0.0745 0.1901,-0.23906 0.3802,0.31383 0.57029,0.0742 0.1901,-0.23962 0.3802,0.31409 0.5703,0.0739 0.1901,-0.24017 0.3802,0.31435 0.5703,0.0736 0.1901,-0.24073 0.38019,0.31461 0.57029,0.0733 0.1901,-0.24128 0.3802,0.31487 0.5703,0.073 0.1901,-0.24183 0.3802,0.31514 0.5703,0.0728 0.19009,-0.24239 0.38019,0.3154 0.57029,0.0725 0.1901,-0.24295 0.3802,0.31567 0.5703,0.0722 0.1901,-0.2435 0.3802,0.31594 0.57029,0.0719 0.1901,-0.24406 0.3802,0.31621 0.5703,0.0716 0.1901,-0.24461 0.3802,0.31648 0.5703,0.0713 0.1901,-0.24516 0.38019,0.31675 0.57029,0.071 0.1901,-0.24572 0.3802,0.31702 0.5703,0.0707 0.1901,-0.24627 0.3802,0.3173 0.5703,0.0705 0.1901,-0.24683 0.38019,0.31757 0.57029,0.0702 0.1901,-0.24739 0.3802,0.31784 0.5703,0.0699 0.1901,-0.24794 0.3802,0.31812 0.5703,0.0696 0.19009,-0.2485 0.38019,0.3184 0.57029,0.0693 0.1901,-0.24904 0.3802,0.31869 0.5703,0.0691 0.1901,-0.2496 0.3802,0.31897 0.57029,0.0688 0.1901,-0.25016 0.3802,0.31924 0.5703,0.0685 0.1901,-0.25071 0.3802,0.31953 0.5703,0.0683 0.1901,-0.25126 0.38019,0.31982 0.57029,0.068 0.1901,-0.25182 0.3802,0.3201 0.5703,0.0677 0.1901,-0.25237 0.3802,0.32039 0.5703,0.0675 0.19009,-0.25294 0.38019,0.32066 0.57029,0.0672 0.1901,-0.25349 0.3802,0.32096 0.5703,0.0669 0.1901,-0.25404 0.3802,0.32124 0.57029,0.0667 0.1901,-0.2546 0.3802,0.32153 0.5703,0.0664 0.1901,-0.25514 0.3802,0.32183 0.5703,0.0661 0.1901,-0.25571 0.38019,0.32212 0.57029,0.0659 0.1901,-0.25626 0.3802,0.32241 0.5703,0.0656 0.1901,-0.25681 0.3802,0.32271 0.5703,0.0653 0.19009,-0.25737 0.38019,0.323 0.57029,0.0651 0.1901,-0.25792 0.3802,0.3233 0.5703,0.0648 0.1901,-0.25848 0.3802,0.3236 0.5703,0.0646 0.19009,-0.25903 0.38019,0.3239 0.57029,0.0643 0.1901,-0.25958 0.3802,0.3242 0.5703,0.064 0.1901,-0.26014 0.3802,0.3245 0.57029,0.0638 0.1901,-0.26069 0.3802,0.3248 0.5703,0.0635 0.1901,-0.26125 0.3802,0.3251 0.5703,0.0633 0.1901,-0.2618 0.38019,0.3254 0.57029,0.063 0.1901,-0.26236 0.3802,0.32571 0.5703,0.0628 0.1901,-0.26292 0.3802,0.32601 0.5703,0.0625 0.19009,-0.26347 0.38019,0.32632 0.57029,0.0623 0.1901,-0.26402 0.3802,0.32663 0.5703,0.062 0.1901,-0.26458 0.3802,0.32693 0.57029,0.0618 0.1901,-0.26513 0.3802,0.32724 0.5703,0.0616 0.1901,-0.26568 0.3802,0.32756 0.5703,0.0613 0.1901,-0.26625 0.38019,0.32786 0.57029,0.0611 0.1901,-0.26679 0.3802,0.32818 0.5703,0.0608 0.1901,-0.26735 0.3802,0.32849 0.5703,0.0606 0.19009,-0.2679 0.38019,0.32881 0.57029,0.0603 0.1901,-0.26846 0.3802,0.32912 0.5703,0.0601 0.1901,-0.26902 0.3802,0.32944 0.57029,0.0599 0.1901,-0.26957 0.3802,0.32975 0.5703,0.0596 0.1901,-0.27012 0.3802,0.33008 0.5703,0.0594 0.1901,-0.27068 0.3802,0.3304 0.57029,0.0592 0.1901,-0.27123 0.3802,0.33071 0.5703,0.0589 0.1901,-0.27179 0.3802,0.33103 0.5703,0.0587 0.1901,-0.27235 0.38019,0.33135 0.57029,0.0584 0.1901,-0.2729 0.3802,0.33168 0.5703,0.0582 0.1901,-0.27345 0.3802,0.332 0.5703,0.058 0.19009,-0.274 0.38019,0.33233 0.57029,0.0578 0.1901,-0.27456 0.3802,0.33265 0.5703,0.0575 0.1901,-0.27512 0.3802,0.33297 0.57029,0.0573 0.1901,-0.27567 0.3802,0.3333 0.5703,0.0571 0.1901,-0.27622 0.3802,0.33363 0.5703,0.0568 0.1901,-0.27678 0.38019,0.33396 0.57029,0.0566 0.1901,-0.27734 0.3802,0.33429 0.5703,0.0564 0.1901,-0.2779 0.3802,0.33462 0.5703,0.0562 0.19009,-0.27845 0.38019,0.33495 0.57029,0.0559 0.1901,-0.279 0.3802,0.33529 0.5703,0.0557 0.1901,-0.27955 0.3802,0.33562 0.57029,0.0555 0.1901,-0.28011 0.3802,0.33595 0.5703,0.0553 0.1901,-0.28067 0.3802,0.33629 0.5703,0.0551 0.1901,-0.28122 0.38019,0.33662 0.57029,0.0548 0.1901,-0.28178 0.3802,0.33696 0.5703,0.0546 0.1901,-0.28233 0.3802,0.3373 0.5703,0.0544 0.19009,-0.28289 0.38019,0.33763 0.57029,0.0542 0.1901,-0.28343 0.3802,0.33798 0.5703,0.054 0.1901,-0.28399 0.3802,0.33832 0.5703,0.0538 0.19009,-0.28455 0.38019,0.33866 0.57029,0.0536 0.1901,-0.28511 0.3802,0.339 0.5703,0.0533 0.1901,-0.28566 0.3802,0.33934 0.57029,0.0531 0.1901,-0.28621 0.3802,0.33969 0.5703,0.0529 0.1901,-0.28676 0.3802,0.34004 0.5703,0.0527 0.1901,-0.28732 0.38019,0.34037 0.57029,0.0525 0.1901,-0.28788 0.3802,0.34072 0.5703,0.0523 0.1901,-0.28843 0.3802,0.34107 0.5703,0.0521 0.19009,-0.28899 0.38019,0.34142 0.57029,0.0519 0.1901,-0.28954 0.3802,0.34177 0.5703,0.0517 0.1901,-0.29009 0.3802,0.34212 0.57029,0.0515 0.1901,-0.29065 0.3802,0.34247 0.5703,0.0513 0.1901,-0.29121 0.3802,0.34281 0.5703,0.0511 0.1901,-0.29176 0.38019,0.34317 0.57029,0.0509 0.1901,-0.29231 0.3802,0.34353 0.5703,0.0507 0.1901,-0.29287 0.3802,0.34388 0.5703,0.0505 0.19009,-0.29343 0.38019,0.34423 0.57029,0.0503 0.1901,-0.29397 0.380202,0.34459 0.570302,0.0501 0.1901,-0.29453 0.3802,0.34494 0.57029,0.0498 0.1901,-0.29508 0.3802,0.3453 0.5703,0.0497 0.1901,-0.29564 0.3802,0.34566 0.5703,0.0495 0.1901,-0.2962 0.3802,0.34601 0.57029,0.0493 0.1901,-0.29675 0.3802,0.34638 0.5703,0.0491 0.1901,-0.2973 0.3802,0.34674 0.5703,0.0489 0.1901,-0.29786 0.38019,0.34709 0.57029,0.0487 0.1901,-0.29842 0.3802,0.34745 0.5703,0.0485 0.1901,-0.29897 0.3802,0.34781 0.5703,0.0483 0.19009,-0.29952 0.38019,0.34818 0.57029,0.0481 0.1901,-0.30008 0.3802,0.34854 0.5703,0.0479 0.1901,-0.30063 0.3802,0.34891 0.57029,0.0477 0.1901,-0.30119 0.3802,0.34928 0.5703,0.0475 0.1901,-0.30174 0.3802,0.34965 0.5703,0.0473 0.1901,-0.3023 0.38019,0.35001 0.57029,0.0472 0.1901,-0.30285 0.3802,0.35037 0.5703,0.047 0.1901,-0.30341 0.3802,0.35074 0.5703,0.0468 0.19009,-0.30396 0.38019,0.35111 0.57029,0.0466 0.1901,-0.30452 0.3802,0.35148 0.5703,0.0464 0.1901,-0.30507 0.3802,0.35185 0.57029,0.0462 0.1901,-0.30563 0.3802,0.35222 0.5703,0.046 0.1901,-0.30618 0.3802,0.3526 0.5703,0.0459 0.1901,-0.30674 0.38019,0.35296 0.57029,0.0457 0.1901,-0.30729 0.3802,0.35334 0.5703,0.0455 0.1901,-0.30784 0.3802,0.35372 0.5703,0.0453 0.1901,-0.3084 0.38019,0.35409 0.57029,0.0451 0.1901,-0.30895 0.3802,0.35447 0.5703,0.045 0.1901,-0.30951 0.3802,0.35484 0.5703,0.0448 0.19009,-0.31006 0.38019,0.35522 0.57029,0.0446 0.1901,-0.31061 0.3802,0.3556 0.5703,0.0444 0.1901,-0.31117 0.3802,0.35598 0.57029,0.0443 0.1901,-0.31173 0.3802,0.35635 0.5703,0.0441 0.1901,-0.31228 0.3802,0.35674 0.5703,0.0439 0.1901,-0.31283 0.38019,0.35712 0.57029,0.0437 0.1901,-0.31339 0.3802,0.35749 0.5703,0.0436 0.1901,-0.31395 0.3802,0.35788 0.5703,0.0434 0.19009,-0.3145 0.38019,0.35826 0.57029,0.0432 0.1901,-0.31505 0.3802,0.35865 0.5703,0.043 0.1901,-0.31561 0.3802,0.35903 0.57029,0.0429 0.1901,-0.31616 0.3802,0.35941 0.5703,0.0427 0.1901,-0.31672 0.3802,0.35979 0.5703,0.0425 0.1901,-0.31727 0.38019,0.36018 0.57029,0.0424 0.1901,-0.31783 0.3802,0.36057 0.5703,0.0422 0.1901,-0.31838 0.3802,0.36096 0.5703,0.042 0.19009,-0.31893 0.38019,0.36135 0.57029,0.0419 0.1901,-0.31949 0.3802,0.36173 0.5703,0.0417 0.1901,-0.32004 0.3802,0.36213 0.5703,0.0415 0.19009,-0.3206 0.38019,0.36251 0.57029,0.0413 0.1901,-0.32115 0.3802,0.36291 0.5703,0.0412 0.1901,-0.32171 0.3802,0.36329 0.57029,0.041 0.1901,-0.32226 0.3802,0.36369 0.5703,0.0409 0.1901,-0.32282 0.3802,0.36408 0.5703,0.0407 0.1901,-0.32338 0.38019,0.36447 0.57029,0.0405 0.1901,-0.32393 0.3802,0.36486 0.5703,0.0404 0.1901,-0.32448 0.3802,0.36526 0.5703,0.0402 0.19009,-0.32504 0.38019,0.36566 0.57029,0.0401 0.1901,-0.32559 0.3802,0.36605 0.5703,0.0399 0.1901,-0.32615 0.3802,0.36644 0.57029,0.0397 0.1901,-0.3267 0.3802,0.36684 0.5703,0.0396 0.1901,-0.32726 0.3802,0.36724 0.5703,0.0394 0.1901,-0.32781 0.38019,0.36764 0.57029,0.0393 0.1901,-0.32837 0.3802,0.36804 0.5703,0.0391 0.1901,-0.32892 0.3802,0.36843 0.5703,0.039 0.19009,-0.32948 0.38019,0.36884 0.57029,0.0388 0.1901,-0.33003 0.3802,0.36923 0.5703,0.0387 0.1901,-0.33059 0.3802,0.36964 0.57029,0.0385 0.1901,-0.33114 0.3802,0.37004 0.5703,0.0383 0.1901,-0.3317 0.3802,0.37044 0.5703,0.0382 0.1901,-0.33225 0.3802,0.37085 0.57029,0.038 0.1901,-0.3328 0.3802,0.37125 0.5703,0.0379 0.1901,-0.33336 0.3802,0.37165 0.5703,0.0377 0.1901,-0.33391 0.38019,0.37206 0.57029,0.0376 0.1901,-0.33447 0.3802,0.37247 0.5703,0.0374 0.1901,-0.33502 0.3802,0.37287 0.5703,0.0373 0.19009,-0.33558 0.38019,0.37327 0.57029,0.0371 0.1901,-0.33613 0.3802,0.37369 0.5703,0.037 0.1901,-0.33668 0.3802,0.37409 0.57029,0.0369 0.1901,-0.33724 0.3802,0.37451 0.5703,0.0367 0.1901,-0.3378 0.3802,0.37491 0.5703,0.0366 0.1901,-0.33835 0.38019,0.37532 0.57029,0.0364 0.1901,-0.3389 0.3802,0.37573 0.5703,0.0363 0.1901,-0.33945 0.3802,0.37615 0.5703,0.0361 0.19009,-0.34001 0.38019,0.37655 0.57029,0.036 0.1901,-0.34056 0.3802,0.37697 0.5703,0.0358 0.1901,-0.34112 0.3802,0.37738 0.57029,0.0357 0.1901,-0.34168 0.3802,0.37779 0.5703,0.0356 0.1901,-0.34223 0.3802,0.3782 0.5703,0.0354 0.1901,-0.34278 0.38019,0.37862 0.57029,0.0353 0.1901,-0.34334 0.3802,0.37903 0.5703,0.0351 0.1901,-0.34389 0.3802,0.37945 0.5703,0.035 0.19009,-0.34445 0.38019,0.37986 0.57029,0.0349 0.1901,-0.345 0.3802,0.38028 0.5703,0.0347 0.1901,-0.34556 0.3802,0.3807 0.5703,0.0346 0.19009,-0.34611 0.38019,0.38111 0.57029,0.0344 0.1901,-0.34667 0.3802,0.38153 0.5703,0.0343 0.1901,-0.34723 0.3802,0.38195 0.57029,0.0342 0.1901,-0.34778 0.3802,0.38237 0.5703,0.034 0.1901,-0.34833 0.3802,0.38279 0.5703,0.0339 0.1901,-0.34889 0.38019,0.38321 0.57029,0.0338 0.1901,-0.34945 0.3802,0.38363 0.5703,0.0336 0.1901,-0.35 0.3802,0.38405 0.5703,0.0335 0.19009,-0.35056 0.38019,0.38447 0.57029,0.0334 0.1901,-0.35111 0.3802,0.38489 0.5703,0.0332 0.1901,-0.35166 0.3802,0.38532 0.57029,0.0331 0.1901,-0.35222 0.3802,0.38574 0.5703,0.033 0.1901,-0.35277 0.3802,0.38616 0.5703,0.0328 0.1901,-0.35333 0.38019,0.38659 0.57029,0.0327 0.1901,-0.35388 0.3802,0.38702 0.5703,0.0326 0.1901,-0.35443 0.3802,0.38744 0.5703,0.0325 0.19009,-0.35499 0.38019,0.38786 0.57029,0.0323 0.1901,-0.35555 0.3802,0.38829 0.5703,0.0322 0.1901,-0.3561 0.3802,0.38872 0.57029,0.0321 0.1901,-0.35665 0.3802,0.38915 0.5703,0.0319 0.1901,-0.35721 0.3802,0.38957 0.5703,0.0318 0.1901,-0.35776 0.3802,0.39 0.57029,0.0317 0.1901,-0.35832 0.3802,0.39043 0.5703,0.0316 0.1901,-0.35887 0.3802,0.39086 0.5703,0.0314 0.1901,-0.35943 0.38019,0.39129 0.57029,0.0313 0.1901,-0.35998 0.3802,0.39172 0.5703,0.0312 0.1901,-0.36054 0.3802,0.39215 0.5703,0.0311 0.19009,-0.36109 0.38019,0.39258 0.57029,0.0309 0.1901,-0.36165 0.3802,0.39301 0.5703,0.0308 0.1901,-0.3622 0.3802,0.39345 0.57029,0.0307 0.1901,-0.36275 0.3802,0.39388 0.5703,0.0306 0.1901,-0.36331 0.3802,0.39431 0.5703,0.0304 0.1901,-0.36387 0.38019,0.39474 0.57029,0.0303 0.1901,-0.36442 0.3802,0.39519 0.5703,0.0302 0.1901,-0.36497 0.3802,0.39562 0.5703,0.0301 0.19009,-0.36553 0.38019,0.39605 0.57029,0.03 0.1901,-0.36609 0.3802,0.39648 0.5703,0.0298 0.1901,-0.36664 0.3802,0.39693 0.57029,0.0297 0.1901,-0.36719 0.3802,0.39736 0.5703,0.0296 0.1901,-0.36774 0.3802,0.3978 0.5703,0.0295 0.1901,-0.3683 0.38019,0.39823 0.57029,0.0294 0.1901,-0.36886 0.3802,0.39867 0.5703,0.0293 0.1901,-0.36941 0.3802,0.39911 0.5703,0.0291 0.1901,-0.36997 0.38019,0.39955 0.57029,0.029 0.1901,-0.37052 0.3802,0.39999 0.5703,0.0289 0.1901,-0.37107 0.3802,0.40043 0.5703,0.0288 0.19009,-0.37163 0.38019,0.40087 0.57029,0.0287 0.1901,-0.37219 0.3802,0.40131 0.5703,0.0286 0.1901,-0.37274 0.3802,0.40175 0.57029,0.0285 0.1901,-0.37329 0.3802,0.4022 0.5703,0.0284 0.1901,-0.37385 0.3802,0.40263 0.5703,0.0282 0.1901,-0.3744 0.38019,0.40308 0.57029,0.0281 0.1901,-0.37496 0.3802,0.40352 0.5703,0.028 0.1901,-0.37551 0.3802,0.40396 0.5703,0.0279 0.19009,-0.37607 0.38019,0.4044 0.57029,0.0278 0.1901,-0.37662 0.3802,0.40486 0.5703,0.0277 0.1901,-0.37718 0.3802,0.4053 0.57029,0.0276 0.1901,-0.37773 0.3802,0.40575 0.5703,0.0275 0.1901,-0.37829 0.3802,0.40619 0.5703,0.0274 0.1901,-0.37884 0.38019,0.40663 0.57029,0.0272 0.1901,-0.3794 0.3802,0.40708 0.5703,0.0271 0.1901,-0.37995 0.3802,0.40753 0.5703,0.027 0.19009,-0.3805 0.38019,0.40798 0.57029,0.0269 0.1901,-0.38106 0.3802,0.40842 0.5703,0.0268 0.1901,-0.38162 0.3801996,0.40887 0.5702996,0.0267 0.19009,-0.38217 0.38019,0.40932 0.57029,0.0266 0.1901,-0.38273 0.3802,0.40977 0.5703,0.0265 0.1901,-0.38328 0.3802,0.41022 0.57029,0.0264 0.1901,-0.38383 0.3802,0.41067 0.5703,0.0263 0.1901,-0.38439 0.3802,0.41112 0.5703,0.0262 0.1901,-0.38494 0.38019,0.41157 0.57029,0.0261 0.1901,-0.3855 0.3802,0.41202 0.5703,0.026 0.1901,-0.38606 0.3802,0.41247 0.5703,0.0259 0.19009,-0.3866 0.38019,0.41293 0.57029,0.0258 0.1901,-0.38716 0.3802,0.41337 0.5703,0.0257 0.1901,-0.38772 0.3802,0.41383 0.57029,0.0256 0.1901,-0.38827 0.3802,0.41428 0.5703,0.0255 0.1901,-0.38883 0.3802,0.41473 0.5703,0.0254 0.1901,-0.38938 0.38019,0.4152 0.57029,0.0253 0.1901,-0.38993 0.3802,0.41565 0.5703,0.0252 0.19010003,-0.39049 0.38020003,0.4161 0.57030003,0.025 0.19009,-0.39104 0.38019,0.41656 0.57029,0.025 0.1901,-0.3916 0.3802,0.41701 0.5703,0.0249 0.1901,-0.39215 0.3802,0.41747 0.57028997,0.0248 0.1901,-0.39271 0.3802,0.41792 0.5703,0.0247 0.1901,-0.39326 0.3802,0.41838 0.5703,0.0246 0.1901,-0.39381 0.3802,0.41884 0.57029,0.0245 0.1901,-0.39437 0.3802,0.4193 0.5703,0.0244 0.1901,-0.39493 0.3802,0.41975 0.5703,0.0243 0.1901,-0.39548 0.38019,0.42021 0.57029,0.0242 0.1901,-0.39604 0.3802,0.42067 0.5703,0.0241 0.1901,-0.3966 0.3802,0.42113 0.5703,0.024 0.19009,-0.39715 0.38019,0.42159 0.57029,0.0239 0.1901,-0.3977 0.3802,0.42205 0.5703,0.0238 0.1901,-0.39825 0.3802,0.42251 0.57029,0.0237 0.1901,-0.39881 0.3802,0.42297 0.5703,0.0236 0.1901,-0.39937 0.3802,0.42343 0.5703,0.0235 0.1901,-0.39992 0.38019,0.42389 0.57029,0.0234 0.1901,-0.40047 0.3802,0.42435 0.5703,0.0233 0.1901,-0.40102 0.3802004,0.42482 0.5703004,0.0232 0.19009,-0.40159 0.38019,0.42528 0.57029,0.0231 0.1901,-0.40214 0.3802,0.42574 0.5703,0.0231 0.1901,-0.40269 0.3802,0.4262 0.57029,0.0229 0.1901,-0.40324 0.3802,0.42667 0.5703,0.0229 0.1901,-0.4038 0.3802,0.42713 0.5703,0.0228 0.1901,-0.40436 0.38019,0.42759 0.57029,0.0227 0.1901,-0.40491 0.3802,0.42806 0.5703,0.0226 0.1901,-0.40547 0.3802,0.42852 0.5703,0.0225 0.19009,-0.40602 0.38019,0.42899 0.57029,0.0224 0.1901,-0.40658 0.3802,0.42946 0.5703,0.0223 0.1901,-0.40713 0.3802,0.42992 0.5703,0.0222 0.19009,-0.40768 0.38019,0.43039 0.57029,0.0222 0.1901,-0.40824 0.3802,0.43085 0.5703,0.0221 0.1901,-0.4088 0.3802,0.43132 0.57029,0.022 0.1901,-0.40935 0.3802,0.43179 0.5703,0.0219 0.1901,-0.4099 0.3802,0.43226 0.5703,0.0218 0.1901,-0.41046 0.38019,0.43273 0.57029,0.0217 0.1901,-0.41102 0.3802,0.43319 0.5703,0.0216 0.1901,-0.41156 0.3802,0.43367 0.5703,0.0215 0.19009,-0.41213 0.38019,0.43413 0.57029,0.0215 0.1901,-0.41267 0.3802,0.4346 0.5703,0.0214 0.1901,-0.41323 0.3802,0.43508 0.57029,0.0213 0.1901,-0.41379 0.3802,0.43554 0.5703,0.0212 0.1901,-0.41434 0.3802,0.43602 0.5703,0.0211 0.1901,-0.41489 0.38019,0.43648 0.57029,0.021 0.1901,-0.41544 0.3802,0.43696 0.5703,0.021 0.1901,-0.41601 0.3802,0.43742 0.5703,0.0209 0.19009,-0.41656 0.38019,0.4379 0.57029,0.0208 0.1901,-0.41712 0.3802,0.43837 0.5703,0.0207 0.1901,-0.41767 0.3802,0.43884 0.57029,0.0206 0.1901,-0.41822 0.3802,0.43932 0.5703,0.0205 0.1901,-0.41878 0.3802,0.43979 0.5703,0.0205 0.1901,-0.41934 0.3802,0.44026 0.57029,0.0204 0.1901,-0.41989 0.3802,0.44074 0.5703,0.0203 0.1901,-0.42045 0.3802,0.44121 0.5703,0.0202 0.1901,-0.421 0.38019,0.44168 0.57029,0.0201 0.1901,-0.42155 0.3802,0.44216 0.5703,0.0201 0.1901,-0.42211 0.3802,0.44263 0.5703,0.02 0.19009,-0.42266 0.38019,0.44311 0.57029,0.0199 0.1901,-0.42322 0.3802,0.44358 0.5703,0.0198 0.1901,-0.42377 0.3802,0.44407 0.57029,0.0197 0.1901,-0.42432 0.3802,0.44454 0.5703,0.0197 0.1901,-0.42488 0.3802,0.44501 0.5703,0.0196 0.1901,-0.42543 0.38019,0.44549 0.57029,0.0195 0.1901,-0.42598 0.3802,0.44597 0.5703,0.0194 0.1901,-0.42654 0.3802,0.44645 0.5703,0.0194 0.19009,-0.4271 0.38019,0.44692 0.57029,0.0193 0.1901,-0.42765 0.3802,0.4474 0.5703,0.0192 0.1901,-0.42821 0.3802,0.44788 0.57029,0.0191 0.1901,-0.42877 0.3802,0.44836 0.5703,0.019 0.1901,-0.42932 0.3802,0.44884 0.5703,0.019 0.1901,-0.42987 0.38019,0.44932 0.57029,0.0189 0.1901,-0.43042 0.3802,0.4498 0.5703,0.0188 0.1901,-0.43098 0.3802,0.45028 0.5703,0.0187 0.1901,-0.43153 0.38019,0.45076 0.57029,0.0187 0.1901,-0.43209 0.3802,0.45124 0.5703,0.0186 0.1901,-0.43264 0.3802,0.45172 0.5703,0.0185 0.19009,-0.4332 0.38019,0.4522 0.57029,0.0184 0.1901,-0.43375 0.3802,0.45268 0.570298,0.0184 0.190099,-0.43431 0.380197,0.45316 0.570296,0.0183 0.190099,-0.43487 0.380198,0.45364 0.570296,0.0182 0.190099,-0.43542 0.380198,0.45412 0.570297,0.0181 0.190099,-0.43597 0.380197,0.45461 0.570296,0.0181 0.190099,-0.43653 0.380198,0.45509 0.570296,0.018 0.190099,-0.43708 0.380198,0.45558 0.570297,0.0179 0.190098,-0.43764 0.380197,0.45606 0.570296,0.0179 0.190099,-0.43819 0.380198,0.45654 0.570296,0.0178 0.190099,-0.43875 0.380198,0.45703 0.570297,0.0177 0.190098,-0.4393 0.380197,0.45752 0.570296,0.0177 0.190099,-0.43985 0.380197,0.458 0.570296,0.0176 0.190099,-0.44041 0.380198,0.45848 0.570297,0.0175 0.190098,-0.44097 0.380197,0.45896 0.570296,0.0175 0.190099,-0.44152 0.380197,0.45945 0.570296,0.0174 0.190099,-0.44207 0.380198,0.45994 0.570296,0.0173 0.190099,-0.44262 0.380198,0.46043 0.570297,0.0172 0.190099,-0.44319 0.380197,0.46091 0.570296,0.0172 0.190099,-0.44374 0.380198,0.4614 0.570296,0.0171 0.190099,-0.44429 0.380198,0.46189 0.570297,0.017 0.190098,-0.44485 0.380197,0.46237 0.570296,0.017 0.190099,-0.4454 0.380198,0.46286 0.570296,0.0169 0.190099,-0.44596 0.380198,0.46335 0.570297,0.0168 0.190098,-0.44652 0.380197,0.46383 0.570296,0.0168 0.190099,-0.44706 0.380197,0.46433 0.570296,0.0167 0.190099,-0.44762 0.380198,0.46481 0.570296,0.0166 0.190099,-0.44818 0.380198,0.4653 0.570297,0.0166 0.190099,-0.44873 0.380197,0.46579 0.570296,0.0165 0.190099,-0.44928 0.380198,0.46628 0.570296,0.0164 0.190099,-0.44984 0.380198,0.46677 0.570297,0.0164 0.190098,-0.45039 0.380197,0.46726 0.570296,0.0163 0.190099,-0.45095 0.380198,0.46775 0.570296,0.0162 0.190099,-0.4515 0.380198,0.46824 0.570297,0.0162 0.190098,-0.45206 0.380197,0.46873 0.570296,0.0161 0.190099,-0.45261 0.380197,0.46922 0.570296,0.0161 0.190099,-0.45316 0.380198,0.46971 0.570297,0.016 0.190098,-0.45372 0.380197,0.4702 0.570296,0.0159 0.190099,-0.45427 0.380197,0.4707 0.570296,0.0159 0.190099,-0.45483 0.380198,0.47119 0.570296,0.0158 0.190099,-0.45539 0.380198,0.47168 0.570297,0.0157 0.190099,-0.45594 0.380197,0.47217 0.570296,0.0157 0.190099,-0.4565 0.380198,0.47266 0.570296,0.0156 0.190099,-0.45705 0.380198,0.47315 0.570297,0.0155 0.190098,-0.4576 0.380197,0.47365 0.570296,0.0155 0.190099,-0.45816 0.380198,0.47414 0.570296,0.0154 0.190099,-0.45871 0.380198,0.47464 0.570297,0.0154 0.190098,-0.45927 0.380197,0.47512 0.570296,0.0153 0.190099,-0.45982 0.380197,0.47562 0.570296,0.0152 0.190099,-0.46038 0.380198,0.47611 0.570297,0.0152 0.190098,-0.46093 0.380197,0.47661 0.570296,0.0151 0.190099,-0.46149 0.380197,0.4771 0.570296,0.0151 0.190099,-0.46204 0.380198,0.4776 0.570296,0.015 0.190099,-0.46259 0.380198,0.4781 0.570297,0.0149 0.190099,-0.46315 0.380197,0.47859 0.570296,0.0149 0.190099,-0.46371 0.380198,0.47908 0.570296,0.0148 0.190099,-0.46426 0.380198,0.47958 0.570297,0.0148 0.190098,-0.46481 0.380197,0.48008 0.570296,0.0147 0.190099,-0.46537 0.380198,0.48057 0.570296,0.0147 0.190099,-0.46593 0.380198,0.48107 0.570297,0.0146 0.190098,-0.46648 0.380197,0.48156 0.570296,0.0145 0.190099,-0.46704 0.380197,0.48206 0.570296,0.0145 0.190099,-0.46759 0.380198,0.48256 0.570297,0.0144 0.190098,-0.46815 0.380197,0.48305 0.570296,0.0144 0.190099,-0.4687 0.380197,0.48355 0.570296,0.0143 0.190099,-0.46926 0.380198,0.48405 0.570296,0.0142 0.190099,-0.46981 0.380198,0.48455 0.570297,0.0142 0.190099,-0.47036 0.380197,0.48505 0.570296,0.0141 0.190099,-0.47091 0.380198,0.48555 0.570296,0.0141 0.190099,-0.47147 0.380198,0.48605 0.570297,0.014 0.190098,-0.47203 0.380197,0.48654 0.570296,0.014 0.190099,-0.47258 0.380198,0.48705 0.570296,0.0139 0.190099,-0.47313 0.380198,0.48755 0.570297,0.0139 0.190098,-0.47369 0.380197,0.48804 0.570296,0.0138 0.190099,-0.47425 0.380197,0.48854 0.570296,0.0137 0.190099,-0.4748 0.380198,0.48904 0.570297,0.0137 0.190098,-0.47536 0.380197,0.48954 0.570296,0.0136 0.190099,-0.4759 0.380197,0.49005 0.570296,0.0136 0.190099,-0.47647 0.380198,0.49054 0.570296,0.0135 0.190099,-0.47702 0.380198,0.49105 0.570297,0.0135 0.190098,-0.47758 0.380197,0.49154 0.570296,0.0134 0.190099,-0.47813 0.380198,0.49205 0.570296,0.0134 0.190099,-0.47868 0.380198,0.49255 0.570297,0.0133 0.190098,-0.47924 0.380197,0.49305 0.570296,0.0133 0.190099,-0.47979 0.380197,0.49355 0.570296,0.0132 0.190099,-0.48035 0.380198,0.49405 0.570297,0.0131 0.190098,-0.4809 0.380197,0.49456 0.570296,0.0131 0.190099,-0.48146 0.380197,0.49506 0.570296,0.013 0.190099,-0.48201 0.380198,0.49556 0.570296,0.013 0.190099,-0.48257 0.380198,0.49607 0.570297,0.013 0.190099,-0.48312 0.380197,0.49657 0.570296,0.0129 0.190099,-0.48367 0.380198,0.49708 0.570296,0.0128 0.190099,-0.48423 0.380198,0.49758 0.570297,0.0128 0.190098,-0.48478 0.380197,0.49809 0.570296,0.0128 0.190099,-0.48534 0.380198,0.49858 0.570296,0.0127 0.190099,-0.48589 0.380198,0.49909 0.570297,0.0126 0.190098,-0.48644 0.380197,0.4996 0.570296,0.0126 0.190099,-0.48701 0.380197,0.5001 0.570296,0.0125 0.190099,-0.48756 0.380198,0.5006 0.570297,0.0125 0.190098,-0.48811 0.380197,0.50111 0.570296,0.0124 0.190102,-0.48866 0.380192,0.50162 0.570292,0.0124 0.1901,-0.48922 0.3802,0.50212 0.5703,0.0123 0.1901,-0.48977 0.3802,0.50263 0.5703,0.0123 0.1901,-0.49033 0.38019,0.50313 0.57029,0.0122 0.1901,-0.49089 0.3802,0.50363 0.5703,0.0122 0.1901,-0.49143 0.3802,0.50415 0.5703,0.0122 0.19009,-0.49199 0.38019,0.50466 0.57029,0.0121 0.1901,-0.49255 0.3802,0.50515 0.5703,0.0121 0.1901,-0.4931 0.3802,0.50566 0.57029,0.012 0.1901,-0.49366 0.3802,0.50617 0.5703,0.012 0.1901,-0.49421 0.3802,0.50668 0.5703,0.0119 0.1901,-0.49477 0.38019,0.50718 0.57029,0.0119 0.1901,-0.49532 0.3802,0.50769 0.5703,0.0118 0.1901,-0.49588 0.3802,0.5082 0.5703,0.0118 0.19009,-0.49643 0.38019,0.50871 0.57029,0.0117 0.1901,-0.49699 0.3802,0.50921 0.5703,0.0117 0.1901,-0.49754 0.3802,0.50973 0.57029,0.0116 0.1901,-0.49809 0.3802,0.51024 0.5703,0.0116 0.1901,-0.49865 0.3802,0.51074 0.5703,0.0115 0.1901,-0.49921 0.38019,0.51125 0.57029,0.0115 0.1901,-0.49976 0.3802,0.51176 0.5703,0.0114 0.1901,-0.50031 0.3802,0.51227 0.5703,0.0114 0.19009,-0.50086 0.38019,0.51278 0.57029,0.0114 0.1901,-0.50142 0.3802,0.51329 0.5703,0.0113 0.1901,-0.50198 0.3802,0.5138 0.5703,0.0113 0.19009,-0.50254 0.38019,0.51431 0.57029,0.0112 0.1901,-0.50309 0.3802,0.51482 0.5703,0.0112 0.1901,-0.50364 0.3802,0.51533 0.57029,0.0111 0.1901,-0.5042 0.3802,0.51584 0.5703,0.0111 0.1901,-0.50475 0.3802,0.51635 0.5703,0.011 0.1901,-0.50531 0.38019,0.51686 0.57029,0.011 0.1901,-0.50586 0.3802,0.51737 0.5703,0.0109 0.1901,-0.50641 0.3802,0.51789 0.5703,0.0109 0.19009,-0.50697 0.38019,0.51839 0.57029,0.0109 0.1901,-0.50753 0.3802,0.5189 0.5703,0.0108 0.1901,-0.50808 0.3802,0.51942 0.57029,0.0108 0.1901,-0.50864 0.3802,0.51993 0.5703,0.0107 0.1901,-0.50919 0.3802,0.52044 0.5703,0.0107 0.1901,-0.50975 0.38019,0.52095 0.57029,0.0106 0.1901,-0.5103 0.3802,0.52147 0.5703,0.0106 0.1901,-0.51085 0.3802,0.52198 0.5703,0.0106 0.19009,-0.51141 0.38019,0.52249 0.57029,0.0105 0.1901,-0.51197 0.3802,0.523 0.5703,0.0105 0.1901,-0.51251 0.3802,0.52352 0.57029,0.0104 0.1901,-0.51307 0.3802,0.52403 0.5703,0.0104 0.1901,-0.51362 0.3802,0.52455 0.5703,0.0104 0.1901,-0.51419 0.38019,0.52505 0.57029,0.0103 0.1901,-0.51474 0.3802,0.52557 0.5703,0.0103 0.1901,-0.51529 0.3802,0.52608 0.5703,0.0102 0.1901,-0.51585 0.38019,0.5266 0.57029,0.0102 0.1901,-0.5164 0.3802,0.52711 0.5703,0.0102 0.1901,-0.51696 0.3802,0.52763 0.5703,0.0101 0.19009,-0.51751 0.38019,0.52814 0.57029,0.0101 0.1901,-0.51807 0.3802,0.52865 0.5703,0.01 0.1901,-0.51862 0.3802,0.52918 0.57029,0.01 0.1901,-0.51917 0.3802,0.52969 0.5703,0.01 0.1901,-0.51973 0.3802,0.5302 0.5703,0.01 0.1901,-0.52028 0.38019,0.53072 0.57029,0.01 0.1901,-0.52084 0.3802,0.53123 0.5703,0.01 0.1901,-0.52139 0.3802,0.53175 0.5703,0.01 0.19009,-0.52194 0.38019,0.53227 0.57029,0.01 0.1901,-0.5225 0.3802,0.53278 0.5703,0.01 0.1901,-0.52306 0.3802,0.5333 0.57029,0.01 0.1901,-0.52361 0.3802,0.53381 0.5703,0.01 0.1901,-0.52416 0.3802,0.53433 0.5703,0.01 0.1901,-0.52472 0.38019,0.53485 0.57029,0.01 0.1901,-0.52527 0.3802,0.53537 0.5703,0.01 0.1901,-0.52583 0.3802,0.53587 0.5703,0.009 0.19009,-0.52638 0.38019,0.5364 0.57029,0.009 0.1901,-0.52694 0.3802,0.53691 0.5703,0.009 0.1901,-0.5275 0.3802,0.53743 0.5703,0.009 0.19009,-0.52805 0.38019,0.53795 0.57029,0.009 0.1901,-0.52861 0.3802,0.53846 0.5703,0.009 0.1901,-0.52915 0.3802,0.53899 0.57029,0.009 0.1901,-0.52971 0.3802,0.53951 0.5703,0.009 0.1901,-0.53027 0.3802,0.54002 0.5703,0.009 0.1901,-0.53083 0.38019,0.54053 0.57029,0.009 0.1901,-0.53138 0.3802,0.54105 0.5703,0.009 0.1901,-0.53193 0.3802,0.54158 0.5703,0.009 0.19009,-0.53249 0.38019,0.54209 0.57029,0.009 0.1901,-0.53304 0.3802,0.54261 0.5703,0.009 0.1901,-0.5336 0.3802,0.54313 0.57029,0.009 0.1901,-0.53415 0.3802,0.54365 0.5703,0.009 0.1901,-0.5347 0.3802,0.54417 0.5703,0.009 0.1901,-0.53525 0.38019,0.54469 0.57029,0.009 0.1901,-0.53582 0.3802,0.54521 0.5703,0.009 0.1901,-0.53637 0.3802,0.54572 0.5703,0.009 0.19009,-0.53692 0.38019,0.54625 0.57029,0.009 0.1901,-0.53748 0.3802,0.54677 0.5703,0.009 0.1901,-0.53803 0.3802,0.54729 0.57029,0.009 0.1901,-0.53858 0.3802,0.54781 0.5703,0.009 0.1901,-0.53914 0.3802,0.54833 0.5703,0.009 0.1901,-0.5397 0.3802,0.54885 0.57029,0.009 0.1901,-0.54026 0.3802,0.54936 0.5703,0.009 0.1901,-0.54081 0.3802,0.54989 0.5703,0.009 0.1901,-0.54136 0.38019,0.55041 0.57029,0.008 0.1901,-0.54191 0.3802,0.55093 0.5703,0.008 0.1901,-0.54247 0.3802,0.55145 0.5703,0.008 0.19009,-0.54303 0.38019,0.55197 0.57029,0.008 0.1901,-0.54358 0.3802,0.5525 0.5703,0.008 0.1901,-0.54413 0.3802,0.55302 0.57029,0.008 0.1901,-0.54469 0.3802,0.55354 0.5703,0.008 0.1901,-0.54524 0.3802,0.55406 0.5703,0.008 0.1901,-0.54579 0.38019,0.55458 0.57029,0.008 0.1901,-0.54635 0.3802,0.55511 0.5703,0.008 0.1901,-0.54691 0.3802,0.55562 0.5703,0.008 0.19009,-0.54746 0.38019,0.55615 0.57029,0.008 0.1901,-0.54801 0.3802,0.55667 0.5703,0.008 0.1901,-0.54857 0.3802,0.55719 0.57029,0.008 0.1901,-0.54913 0.3802,0.55771 0.5703,0.008 0.1901,-0.54968 0.3802,0.55824 0.5703,0.008 0.1901,-0.55023 0.38019,0.55876 0.57029,0.008 0.1901,-0.55079 0.3802,0.55929 0.5703,0.008 0.1901,-0.55134 0.3802,0.55981 0.5703,0.008 0.1901,-0.5519 0.38019,0.56033 0.57029,0.008 0.1901,-0.55246 0.3802,0.56085 0.5703,0.008 0.1901,-0.55301 0.3802,0.56138 0.5703,0.008 0.19009,-0.55357 0.38019,0.5619 0.57029,0.008"
       style="opacity:1;fill:#ffffff;fill-opacity:1;stroke:#000000;stroke-width:2;stroke-miterlimit:4;stroke-dasharray:2, 2;stroke-dashoffset:0;stroke-opacity:1"
       inkscape:connector-curvature="0" />
    <path
       style="fill:none;fill-rule:evenodd;stroke:#000000;stroke-width:3;stroke-linecap:butt;stroke-linejoin:miter;stroke-miterlimit:4;stroke-dasharray:none;stroke-opacity:1;marker-end:url(#Arrow1Lend)"
       d="m -403.08231,737.49895 0,-412.14224"
       id="path4310"
       inkscape:path-effect="#path-effect4312"
       inkscape:original-d="m -403.08231,737.49895 c 0,-412.14224 0,-412.14224 0,-412.14224"
       inkscape:connector-curvature="0" />
    <path
       style="fill:none;fill-rule:evenodd;stroke:#000000;stroke-width:3;stroke-linecap:butt;stroke-linejoin:miter;stroke-opacity:1;stroke-miterlimit:4;stroke-dasharray:none;marker-start:url(#marker4628)"
       d="m 18.09822,531.69257 -548.57143,0"
       id="path4314"
       inkscape:path-effect="#path-effect4316"
       inkscape:original-d="m 18.09822,531.69257 -548.57143,0"
       inkscape:connector-curvature="0" />
    <g
       id="g4670"
       transform="translate(-209.9899,383.89858)">
      <g
         id="content"
         transform="matrix(0.60625002,0,0,-0.60625002,-106.09375,423.28123)"
         xml:space="preserve"
         stroke-miterlimit="10.433"
         font-style="normal"
         font-variant="normal"
         font-weight="normal"
         font-stretch="normal"
         font-size-adjust="none"
         letter-spacing="normal"
         word-spacing="normal"
         style="font-style:normal;font-variant:normal;font-weight:normal;font-stretch:normal;letter-spacing:normal;word-spacing:normal;text-anchor:start;fill:none;fill-opacity:1;fill-rule:evenodd;stroke:#000000;stroke-linecap:butt;stroke-linejoin:miter;stroke-miterlimit:10.43299961;stroke-dasharray:none;stroke-dashoffset:0;stroke-opacity:1"><path
           d="m 464.14,426.12 7.13,0 0,1.55 -7.13,0 0,9.17 -1.25,0 c -0.04,-4.08 -1.54,-9.42 -6.42,-9.61 l 0,-1.11 4.24,0 0,-13.75 c 0,-6.12 4.62,-6.72 6.42,-6.72 3.53,0 4.94,3.53 4.94,6.72 l 0,2.84 -1.25,0 0,-2.73 c 0,-3.69 -1.5,-5.58 -3.35,-5.58 -3.33,0 -3.33,4.53 -3.33,5.38 z"
           id="path4673"
           inkscape:connector-curvature="0"
           style="fill:#000000;stroke-width:0" /></g>    </g>
    <g
       id="g4715"
       transform="translate(-597.12199,215.16249)">
      <g
         word-spacing="normal"
         letter-spacing="normal"
         font-size-adjust="none"
         font-stretch="normal"
         font-weight="normal"
         font-variant="normal"
         font-style="normal"
         stroke-miterlimit="10.433"
         xml:space="preserve"
         transform="matrix(0.60625002,0,0,-0.60625002,-106.09375,423.28123)"
         id="g4717"
         style="font-style:normal;font-variant:normal;font-weight:normal;font-stretch:normal;letter-spacing:normal;word-spacing:normal;text-anchor:start;fill:none;fill-opacity:1;fill-rule:evenodd;stroke:#000000;stroke-linecap:butt;stroke-linejoin:miter;stroke-miterlimit:10.43299961;stroke-dasharray:none;stroke-dashoffset:0;stroke-opacity:1"><path
           id="path4719"
           d="m 469.82,417.9 0.28,0.36 0.29,0.37 0.3,0.38 0.31,0.39 0.61,0.78 0.31,0.38 0.3,0.39 0.3,0.37 0.3,0.37 0.29,0.35 0.28,0.34 0.14,0.16 0.13,0.16 0.13,0.16 0.13,0.15 0.12,0.14 0.12,0.14 0.12,0.13 0.11,0.12 c 1.55,1.78 3.6,2.53 5.94,2.58 l 0,1.55 c -1.29,-0.1 -2.79,-0.14 -4.09,-0.14 -1.49,0 -4.13,0.09 -4.78,0.14 l 0,-1.55 c 1.04,-0.09 1.45,-0.73 1.45,-1.53 0,-0.8 -0.5,-1.45 -0.75,-1.75 l -3.09,-3.89 -3.88,5.03 c -0.45,0.5 -0.45,0.61 -0.45,0.91 0,0.75 0.75,1.18 1.73,1.23 l 0,1.55 c -1.28,-0.05 -4.58,-0.14 -5.37,-0.14 -1.05,0 -3.39,0.04 -4.74,0.14 l 0,-1.55 c 3.49,0 3.55,-0.05 5.88,-3.03 l 4.94,-6.42 -4.69,-5.94 c -2.39,-2.89 -5.33,-2.98 -6.38,-2.98 l 0,-1.55 c 1.3,0.09 2.85,0.16 4.14,0.16 1.44,0 3.54,-0.11 4.74,-0.16 l 0,1.55 c -1.1,0.14 -1.45,0.79 -1.45,1.54 0,1.1 1.45,2.74 4.48,6.33 l 3.8,-4.98 c 0.39,-0.55 1.04,-1.35 1.04,-1.64 0,-0.46 -0.45,-1.21 -1.79,-1.25 l 0,-1.55 c 1.48,0.05 4.28,0.16 5.37,0.16 1.35,0 3.3,-0.07 4.78,-0.16 l 0,1.55 c -2.68,0 -3.58,0.09 -4.73,1.54 z"
           inkscape:connector-curvature="0"
           style="fill:#000000;stroke-width:0" /></g>    </g>
  </g>
</svg>
