<?xml version="1.0" encoding="UTF-8" standalone="no"?>
<!-- Created with Inkscape (http://www.inkscape.org/) -->

<svg
   xmlns:dc="http://purl.org/dc/elements/1.1/"
   xmlns:cc="http://creativecommons.org/ns#"
   xmlns:rdf="http://www.w3.org/1999/02/22-rdf-syntax-ns#"
   xmlns:svg="http://www.w3.org/2000/svg"
   xmlns="http://www.w3.org/2000/svg"
   xmlns:sodipodi="http://sodipodi.sourceforge.net/DTD/sodipodi-0.dtd"
   xmlns:inkscape="http://www.inkscape.org/namespaces/inkscape"
   sodipodi:docname="uovo.svg"
   inkscape:version="0.91 r13725"
   version="1.1"
   id="svg7533"
   viewBox="0 0 1109.375 1191.25"
   height="336.19724mm"
   width="313.09027mm">
  <sodipodi:namedview
     inkscape:window-maximized="1"
     inkscape:window-y="0"
     inkscape:window-x="0"
     inkscape:window-height="1021"
     inkscape:window-width="1920"
     fit-margin-bottom="0"
     fit-margin-right="0"
     fit-margin-left="0"
     fit-margin-top="0"
     showgrid="false"
     inkscape:current-layer="layer1"
     inkscape:document-units="px"
     inkscape:cy="562.10888"
     inkscape:cx="55.426463"
     inkscape:zoom="0.49497475"
     inkscape:pageshadow="2"
     inkscape:pageopacity="0.0"
     borderopacity="1.0"
     bordercolor="#666666"
     pagecolor="#ffffff"
     id="base" />
  <defs
     id="defs7535">
    <inkscape:path-effect
       is_visible="true"
       id="path-effect9106"
       effect="spiro" />
    <inkscape:path-effect
       is_visible="true"
       id="path-effect9102"
       effect="spiro" />
    <inkscape:path-effect
       effect="spiro"
       id="path-effect9098"
       is_visible="true" />
    <inkscape:path-effect
       effect="spiro"
       id="path-effect9094"
       is_visible="true" />
    <inkscape:path-effect
       effect="spiro"
       id="path-effect9090"
       is_visible="true" />
    <inkscape:path-effect
       effect="spiro"
       id="path-effect9086"
       is_visible="true" />
    <inkscape:path-effect
       effect="powerstroke"
       id="path-effect9082"
       is_visible="true"
       offset_points="0,0.5"
       sort_points="true"
       interpolator_type="CubicBezierJohan"
       interpolator_beta="0.2"
       start_linecap_type="zerowidth"
       linejoin_type="round"
       miter_limit="4"
       end_linecap_type="zerowidth"
       cusp_linecap_type="round" />
    <inkscape:path-effect
       is_visible="true"
       id="path-effect9078"
       effect="spiro" />
    <inkscape:path-effect
       effect="spiro"
       id="path-effect9074"
       is_visible="true" />
    <inkscape:path-effect
       is_visible="true"
       id="path-effect9070"
       effect="spiro" />
    <inkscape:path-effect
       effect="spiro"
       id="path-effect9066"
       is_visible="true" />
    <marker
       inkscape:isstock="true"
       style="overflow:visible;"
       id="marker8418"
       refX="0.0"
       refY="0.0"
       orient="auto"
       inkscape:stockid="Arrow1Lend">
      <path
         transform="scale(0.8) rotate(180) translate(12.5,0)"
         style="fill-rule:evenodd;stroke:#000000;stroke-width:1pt;stroke-opacity:1;fill:#000000;fill-opacity:1"
         d="M 0.0,0.0 L 5.0,-5.0 L -12.5,0.0 L 5.0,5.0 L 0.0,0.0 z "
         id="path8420" />
    </marker>
    <inkscape:path-effect
       is_visible="true"
       id="path-effect8416"
       effect="spiro" />
    <inkscape:path-effect
       is_visible="true"
       id="path-effect8412"
       effect="spiro" />
    <inkscape:path-effect
       effect="spiro"
       id="path-effect8378"
       is_visible="true" />
    <inkscape:path-effect
       effect="powerstroke"
       id="path-effect8374"
       is_visible="true"
       offset_points="0,0.5"
       sort_points="true"
       interpolator_type="CubicBezierJohan"
       interpolator_beta="0.2"
       start_linecap_type="zerowidth"
       linejoin_type="round"
       miter_limit="4"
       end_linecap_type="zerowidth"
       cusp_linecap_type="round" />
    <marker
       inkscape:isstock="true"
       style="overflow:visible;"
       id="marker8344"
       refX="0.0"
       refY="0.0"
       orient="auto"
       inkscape:stockid="Arrow1Lend">
      <path
         transform="scale(0.8) rotate(180) translate(12.5,0)"
         style="fill-rule:evenodd;stroke:#000000;stroke-width:1pt;stroke-opacity:1;fill:#000000;fill-opacity:1"
         d="M 0.0,0.0 L 5.0,-5.0 L -12.5,0.0 L 5.0,5.0 L 0.0,0.0 z "
         id="path8346" />
    </marker>
    <inkscape:path-effect
       effect="spiro"
       id="path-effect8324"
       is_visible="true" />
    <inkscape:path-effect
       effect="spiro"
       id="path-effect8284"
       is_visible="true" />
    <marker
       inkscape:stockid="Arrow1Lstart"
       orient="auto"
       refY="0.0"
       refX="0.0"
       id="marker8234"
       style="overflow:visible"
       inkscape:isstock="true">
      <path
         id="path8236"
         d="M 0.0,0.0 L 5.0,-5.0 L -12.5,0.0 L 5.0,5.0 L 0.0,0.0 z "
         style="fill-rule:evenodd;stroke:#000000;stroke-width:1pt;stroke-opacity:1;fill:#000000;fill-opacity:1"
         transform="scale(0.8) translate(12.5,0)" />
    </marker>
    <marker
       inkscape:stockid="Arrow1Lstart"
       orient="auto"
       refY="0.0"
       refX="0.0"
       id="marker8200"
       style="overflow:visible"
       inkscape:isstock="true">
      <path
         id="path8202"
         d="M 0.0,0.0 L 5.0,-5.0 L -12.5,0.0 L 5.0,5.0 L 0.0,0.0 z "
         style="fill-rule:evenodd;stroke:#000000;stroke-width:1pt;stroke-opacity:1;fill:#000000;fill-opacity:1"
         transform="scale(0.8) translate(12.5,0)" />
    </marker>
    <marker
       inkscape:stockid="Arrow1Lstart"
       orient="auto"
       refY="0.0"
       refX="0.0"
       id="Arrow1Lstart"
       style="overflow:visible"
       inkscape:isstock="true">
      <path
         id="path4528"
         d="M 0.0,0.0 L 5.0,-5.0 L -12.5,0.0 L 5.0,5.0 L 0.0,0.0 z "
         style="fill-rule:evenodd;stroke:none;stroke-width:1pt;stroke-opacity:1;fill:#000000;fill-opacity:1"
         transform="scale(0.8) translate(12.5,0)" />
    </marker>
    <marker
       inkscape:stockid="Arrow1Lend"
       orient="auto"
       refY="0.0"
       refX="0.0"
       id="Arrow1Lend"
       style="overflow:visible;"
       inkscape:isstock="true"
       inkscape:collect="always">
      <path
         id="path4531"
         d="M 0.0,0.0 L 5.0,-5.0 L -12.5,0.0 L 5.0,5.0 L 0.0,0.0 z "
         style="fill-rule:evenodd;stroke:#000000;stroke-width:1pt;stroke-opacity:1;fill:#000000;fill-opacity:1"
         transform="scale(0.8) rotate(180) translate(12.5,0)" />
    </marker>
    <inkscape:path-effect
       cusp_linecap_type="round"
       end_linecap_type="zerowidth"
       miter_limit="4"
       linejoin_type="round"
       start_linecap_type="zerowidth"
       interpolator_beta="0.2"
       interpolator_type="CubicBezierJohan"
       sort_points="true"
       offset_points="0,0.5"
       is_visible="true"
       id="path-effect8117"
       effect="powerstroke" />
    <inkscape:path-effect
       cusp_linecap_type="round"
       end_linecap_type="zerowidth"
       miter_limit="4"
       linejoin_type="round"
       start_linecap_type="zerowidth"
       interpolator_beta="0.2"
       interpolator_type="CubicBezierJohan"
       sort_points="true"
       offset_points="0,0.5"
       is_visible="true"
       id="path-effect8113"
       effect="powerstroke" />
    <clipPath
       id="clipPath">
      <rect
         y="-762.46271"
         x="-657.13849"
         height="420.22345"
         width="965.70581"
         id="rect8119"
         style="opacity:1;fill:none;fill-opacity:1;stroke:#000000;stroke-width:1;stroke-miterlimit:4;stroke-dasharray:8, 8;stroke-dashoffset:0;stroke-opacity:1" />
    </clipPath>
  </defs>
  <metadata
     id="metadata7538">
    <rdf:RDF>
      <cc:Work
         rdf:about="">
        <dc:format>image/svg+xml</dc:format>
        <dc:type
           rdf:resource="http://purl.org/dc/dcmitype/StillImage" />
        <dc:title></dc:title>
      </cc:Work>
    </rdf:RDF>
  </metadata>
  <g
     transform="translate(697.54462,771.83423)"
     id="layer1"
     inkscape:groupmode="layer"
     inkscape:label="Layer 1">
    <path
       id="path8158"
       clip-path="url(#clipPath)"
       title="2*(2.7**(-x)-1)**2"
       d="m -657.13849,-355.79486 965.70581,0 m -772.56465,13.5556 0,-420.22345 m -193.14116,-376.84559 c 0.32222,0.2262 0.64445,12.0682 0.96667,12.2932 0.32223,0.225 0.64445,11.9118 0.96667,12.1357 0.32223,0.2239 0.64445,11.7572 0.96668,11.9799 0.32222,0.2228 0.64445,11.6044 0.96667,11.826 0.32222,0.2217 0.64445,11.4533 0.96667,11.6738 0.32223,0.2204 0.64445,11.3037 0.96667,11.5231 0.32223,0.2193 0.64445,11.1559 0.96668,11.3741 0.32222,0.2182 0.64445,11.0098 0.96667,11.2269 0.32222,0.2171 0.64445,10.8652 0.96667,11.0812 0.32223,0.2159 0.64445,10.7223 0.96667,10.9371 0.32223,0.2148 0.64445,10.581 0.96668,10.7947 0.32222,0.2137 0.64445,10.4412 0.96667,10.6538 0.32222,0.2126 0.64445,10.30304 0.96667,10.51447 0.32223,0.21144 0.64445,10.16641 0.96667,10.37672 0.32223,0.21031 0.64445,10.0313 0.96668,10.24048 0.32222,0.20917 0.64445,9.89771 0.96667,10.10575 0.32222,0.20804 0.64445,9.76562 0.96667,9.97253 0.32223,0.20691 0.64445,9.635 0.96667,9.84078 0.32223,0.20578 0.64445,9.50586 0.96668,9.71051 0.32222,0.20464 0.64445,9.37816 0.96667,9.58168 0.32222,0.20351 0.64445,9.25191 0.96667,9.45429 0.32223,0.20239 0.64445,9.12708 0.96667,9.32833 0.32223,0.20126 0.64445,9.00366 0.96668,9.20378 0.32222,0.20012 0.64445,8.88162 0.96667,9.0806 0.32222,0.19899 0.64445,8.76097 0.96667,8.95882 0.32223,0.19786 0.64445,8.64167 0.96667,8.83839 0.32223,0.19673 0.64445,8.52373 0.96668,8.71932 0.32222,0.19559 0.64445,8.40712 0.96667,8.60158 0.32222,0.19446 0.64445,8.29183 0.96667,8.48516 0.32223,0.19332 0.64445,8.17784 0.96667,8.37004 0.32223,0.1922 0.64445,8.06516 0.96668,8.25622 0.32222,0.19107 0.64445,7.95376 0.96667,8.14369 0.32222,0.18993 0.64445,7.84361 0.96667,8.03241 0.32223,0.1888 0.64445,7.73472 0.96667,7.92239 0.32223,0.18767 0.64445,7.62708 0.96668,7.81361 0.32222,0.18654 0.64445,7.52066 0.96667,7.70606 0.32222,0.18541 0.64445,7.41545 0.96667,7.59972 0.32223,0.18428 0.64445,7.31144 0.96667,7.49458 0.32223,0.18315 0.64445,7.20863 0.96668,7.39064 0.32222,0.18201 0.64445,7.10698 0.96667,7.28786 0.32222,0.18087 0.64445,7.0065 0.96667,7.18625 0.32223,0.17974 0.64445,6.90718 0.96667,7.08579 0.32223,0.17861 0.64445,6.80899 0.96668,6.98647 0.32222,0.17749 0.64445,6.71194 0.96667,6.88829 0.32222,0.17635 0.64445,6.61599 0.96667,6.79121 0.32223,0.17522 0.64445,6.52115 0.96667,6.69524 0.32223,0.17408 0.64445,6.4274 0.96668,6.60035 0.32222,0.17296 0.64444,6.33474 0.96667,6.50656 0.32222,0.17183 0.64445,6.24315 0.96667,6.41384 0.32223,0.17069 0.64445,6.1526 0.96667,6.32216 0.32223,0.16955 0.64445,6.06311 0.96668,6.23153 0.32222,0.16843 0.64444,5.97466 0.96667,6.14195 0.32222,0.1673 0.64445,5.88722 0.96667,6.05339 0.32223,0.16616 0.64445,5.8008 0.96667,5.96583 0.32223,0.16503 0.64445,5.71539 0.96668,5.87929 0.32222,0.1639 0.64444,5.63097 0.96667,5.79373 0.32222,0.16277 0.64445,5.54753 0.96667,5.70917 0.32223,0.16163 0.64445,5.46506 0.96667,5.62556 0.32223,0.16051 0.64445,5.38356 0.96668,5.54293 0.32222,0.15937 0.64444,5.303 0.96667,5.46124 0.32222,0.15824 0.64445,5.22339 0.96667,5.38049 0.32223,0.15711 0.64445,5.14471 0.96667,5.30069 0.32223,0.15597 0.64445,5.06694 0.96668,5.22178 0.32222,0.15485 0.64444,4.9901 0.96667,5.14381 0.32222,0.15371 0.64445,4.91415 0.96667,5.06673 0.32223,0.15258 0.64445,4.83909 0.96667,4.99054 0.32223,0.15145 0.64445,4.76493 0.96668,4.91524 0.32222,0.15032 0.64444,4.69163 0.96667,4.84081 0.32222,0.14918 0.64445,4.61919 0.96667,4.76724 0.32223,0.14806 0.64445,4.54762 0.96667,4.69454 0.32223,0.14692 0.64445,4.47688 0.96668,4.62267 0.32222,0.14578 0.64444,4.40698 0.96667,4.55164 0.32222,0.14465 0.64445,4.33792 0.96667,4.48144 0.32223,0.14352 0.64445,4.26967 0.96667,4.41206 0.32223,0.14239 0.64445,4.20223 0.96668,4.34349 0.32222,0.14127 0.64444,4.1356 0.96667,4.27573 0.32222,0.14013 0.64445,4.06975 0.96667,4.20875 0.32223,0.139 0.64445,4.0047 0.96667,4.14256 0.32223,0.13787 0.64445,3.94042 0.96668,4.07715 0.32222,0.13674 0.64444,3.87691 0.96667,4.01251 0.32222,0.1356 0.64445,3.81415 0.96667,3.94862 0.32223,0.13447 0.64445,3.75215 0.96667,3.88549 0.32223,0.13334 0.64445,3.69089 0.96668,3.8231 0.32222,0.1322 0.64444,3.63037 0.96667,3.76145 0.32222,0.13107 0.64445,3.57058 0.96667,3.70052 0.32223,0.12994 0.64445,3.51151 0.96667,3.64032 0.32223,0.12881 0.64445,3.45315 0.96668,3.58083 0.32222,0.12768 0.64444,3.3955 0.96667,3.52204 0.32222,0.12655 0.64445,3.33854 0.96667,3.46396 0.32223,0.12541 0.64445,3.28227 0.96667,3.40655 0.32223,0.12429 0.64445,3.22669 0.96668,3.34984 0.32222,0.12315 0.64444,3.17178 0.96667,3.2938 0.32222,0.12202 0.64445,3.11754 0.96667,3.23843 0.32223,0.12088 0.64445,3.06395 0.96667,3.18371 0.32223,0.11975 0.64445,3.01103 0.96668,3.12965 0.32222,0.11862 0.64444,2.95875 0.96667,3.07624 0.32222,0.11749 0.64445,2.90711 0.96667,3.02347 0.32222,0.11636 0.64445,2.85611 0.96667,2.97133 0.32223,0.11523 0.64445,2.80572 0.96668,2.91982 0.32222,0.11409 0.64444,2.75596 0.96667,2.86892 0.32222,0.11297 0.64445,2.70681 0.96667,2.81864 0.32222,0.11184 0.64445,2.65827 0.96667,2.76897 0.32223,0.1107 0.64445,2.61032 0.96668,2.71989 0.32222,0.10957 0.64444,2.56297 0.96667,2.67141 0.32222,0.10843 0.64445,2.51621 0.96667,2.62351 0.32222,0.1073 0.64445,2.47003 0.96667,2.5762 0.32223,0.10617 0.64445,2.42441 0.96668,2.52945 0.32222,0.10504 0.64444,2.37937 0.96667,2.48328 0.32222,0.10391 0.64445,2.33489 0.96667,2.43767 0.32222,0.10278 0.64445,2.29097 0.96667,2.39261 0.32223,0.10164 0.64445,2.24759 0.96668,2.34811 0.32222,0.10051 0.64444,2.20476 0.96667,2.30414 0.32222,0.0994 0.64445,2.16246 0.96667,2.26071 0.32222,0.0983 0.64445,2.12071 0.96667,2.21782 0.32223,0.0971 0.64445,2.07947 0.96668,2.17546 0.32222,0.096 0.64444,2.03875 0.96667,2.1336 0.32222,0.0949 0.64445,1.99856 0.96667,2.09228 0.32222,0.0937 0.64445,1.95886 0.96667,2.05145 0.32223,0.0926 0.64445,1.91967 0.96668,2.01113 0.32222,0.0915 0.64444,1.88099 0.96667,1.97131 0.32222,0.0903 0.64445,1.84279 0.96667,1.93198 0.32222,0.0892 0.64445,1.80508 0.96667,1.89314 0.32223,0.0881 0.64445,1.76786 0.96668,1.85479 0.32222,0.0869 0.64444,1.7311 0.96667,1.81689 0.32222,0.0858 0.64445,1.69483 0.96667,1.77949 0.32222,0.0847 0.64445,1.65901 0.96667,1.74255 0.32223,0.0835 0.64445,1.62366 0.96668,1.70606 0.32222,0.0824 0.64444,1.58877 0.96667,1.67004 0.32222,0.0813 0.64445,1.55432 0.96667,1.63446 0.32222,0.0801 0.64445,1.52032 0.96667,1.59933 0.32223,0.079 0.64445,1.48677 0.96668,1.56464 0.32222,0.0779 0.64444,1.45366 0.96667,1.5304 0.32222,0.0767 0.64445,1.42097 0.96667,1.49658 0.32222,0.0756 0.64445,1.3887 0.96667,1.46318 0.32223,0.0745 0.64445,1.35687 0.96668,1.43022 0.32222,0.0734 0.64444,1.32545 0.96667,1.39766 0.32222,0.0722 0.64445,1.29445 0.96667,1.36553 0.32222,0.0711 0.64445,1.26385 0.96667,1.3338 0.32223,0.07 0.64445,1.23366 0.96668,1.30248 0.32222,0.0688 0.64444,1.20386 0.96667,1.27155 0.32222,0.0677 0.64445,1.17446 0.96667,1.24102 0.32222,0.0666 0.64445,1.14546 0.96667,1.21088 0.32223,0.0654 0.64445,1.11684 0.96667,1.18113 0.32223,0.0643 0.64445,1.08861 0.96668,1.15177 0.32222,0.0632 0.64445,1.06074 0.96667,1.12277 0.32222,0.062 0.64445,1.03326 0.96667,1.09415 0.32223,0.0609 0.64445,1.00615 0.96667,1.06591 0.32223,0.0598 0.64445,0.9794 0.96668,1.03803 0.32222,0.0586 0.64445,0.95301 0.96667,1.01051 0.32222,0.0575 0.64445,0.92697 0.96667,0.98334 0.32223,0.0564 0.64445,0.9013 0.96667,0.95654 0.32223,0.0552 0.64445,0.87598 0.96668,0.93008 0.32222,0.0541 0.64445,0.851 0.96667,0.90397 0.32222,0.053 0.64445,0.82636 0.96667,0.8782 0.32223,0.0518 0.64445,0.80206 0.96667,0.85277 0.32223,0.0507 0.64445,0.7781 0.96668,0.82767 0.32222,0.0496 0.64445,0.75447 0.96667,0.80291 0.32222,0.0485 0.64445,0.73116 0.96667,0.77847 0.32223,0.0473 0.64445,0.70817 0.96667,0.75435 0.32223,0.0462 0.64445,0.68551 0.96668,0.73056 0.32222,0.045 0.64445,0.66317 0.96667,0.70708 0.32222,0.0439 0.64445,0.64113 0.96667,0.68392 0.32223,0.0428 0.64445,0.6194 0.96667,0.66106 0.32223,0.0417 0.64445,0.59799 0.96668,0.63851 0.32222,0.0405 0.64445,0.57687 0.96667,0.61626 0.32222,0.0394 0.64445,0.55605 0.96667,0.59431 0.32223,0.0383 0.64445,0.53553 0.96667,0.57266 0.32223,0.0371 0.64445,0.51531 0.96668,0.5513 0.32222,0.036 0.64445,0.49536 0.96667,0.53023 0.32222,0.0349 0.64445,0.47571 0.96667,0.50944 0.32223,0.0337 0.64445,0.45634 0.96667,0.48894 0.32223,0.0326 0.64445,0.43725 0.96668,0.46872 0.32222,0.0315 0.64445,0.41843 0.96667,0.44876 0.32222,0.0303 0.64445,0.3999 0.96667,0.4291 0.32223,0.0292 0.64445,0.38162 0.96667,0.40969 0.32223,0.0281 0.64445,0.36362 0.96668,0.39056 0.32222,0.0269 0.64445,0.34588 0.96667,0.37168 0.32222,0.0258 0.64445,0.3284 0.96667,0.35308 0.32223,0.0247 0.64445,0.31117 0.96667,0.33472 0.32223,0.0235 0.64445,0.29421 0.96668,0.31662 0.32222,0.0224 0.64445,0.2775 0.96667,0.29878 0.32222,0.0213 0.64445,0.26103 0.96667,0.28118 0.32223,0.0202 0.64445,0.24482 0.96667,0.26383 0.32223,0.019 0.64445,0.22884 0.96668,0.24673 0.32222,0.0179 0.64445,0.21311 0.96667,0.22986 0.32222,0.0168 0.64445,0.19762 0.96667,0.21324 0.32223,0.0156 0.64445,0.18236 0.96667,0.19685 0.32223,0.0145 0.64445,0.16733 0.96668,0.18069 0.32222,0.0134 0.64445,0.15254 0.96667,0.16476 0.32222,0.0122 0.64445,0.13797 0.96667,0.14907 0.32223,0.0111 0.64445,0.12363 0.96667,0.13359 0.32223,0.01 0.64445,0.10951 0.96668,0.11834 0.32222,0.009 0.64444,0.0956 0.96667,0.1033 0.32222,0.008 0.64445,0.0819 0.96667,0.0885 0.32223,0.007 0.64445,0.0685 0.96667,0.0739 0.32223,0.005 0.64445,0.0552 0.96668,0.0595 0.32222,0.004 0.64444,0.0422 0.96667,0.0453 0.32222,0.003 0.64445,0.0293 0.96667,0.0314 0.32223,0.002 0.64445,0.0167 0.96667,0.0176 0.32223,9.1e-4 0.64445,0.004 0.96668,0.004 0.32222,-2.3e-4 0.64444,-0.008 0.96667,-0.009 0.32222,-0.001 0.64445,-0.02 0.96667,-0.0225 0.32223,-0.002 0.64445,-0.0318 0.96667,-0.0354 0.32223,-0.004 0.64445,-0.0435 0.96668,-0.0482 0.32222,-0.005 0.64444,-0.0549 0.96667,-0.0608 0.32222,-0.006 0.64445,-0.0662 0.96667,-0.0732 0.32223,-0.007 0.64445,-0.0773 0.96667,-0.0854 0.32223,-0.008 0.64445,-0.0881 0.96668,-0.0974 0.32222,-0.009 0.64444,-0.0988 0.96667,-0.10926 0.32222,-0.0104 0.64445,-0.10937 0.96667,-0.12091 0.32223,-0.0115 0.64445,-0.11972 0.96667,-0.1324 0.32223,-0.0127 0.64445,-0.12988 0.96668,-0.14369 0.32222,-0.0138 0.64444,-0.13988 0.96667,-0.15482 0.32222,-0.0149 0.64445,-0.14971 0.96667,-0.16578 0.32223,-0.0161 0.64445,-0.15936 0.96667,-0.17656 0.32223,-0.0172 0.64445,-0.16884 0.96668,-0.18718 0.32222,-0.0183 0.64444,-0.17816 0.96667,-0.19763 0.32222,-0.0195 0.64445,-0.18731 0.96667,-0.20791 0.32223,-0.0206 0.64445,-0.19631 0.96667,-0.21804 0.32223,-0.0217 0.64445,-0.20514 0.96668,-0.228 0.32222,-0.0229 0.64444,-0.21381 0.96667,-0.23781 0.32222,-0.024 0.64445,-0.22232 0.96667,-0.24745 0.32223,-0.0251 0.64445,-0.23068 0.96667,-0.25694 0.32223,-0.0263 0.64445,-0.23889 0.96668,-0.26629 0.32222,-0.0274 0.64444,-0.24694 0.96667,-0.27547 0.32222,-0.0285 0.64445,-0.25485 0.96667,-0.28451 0.32223,-0.0297 0.64445,-0.26261 0.96667,-0.2934 0.32223,-0.0308 0.64445,-0.27022 0.96668,-0.30214 0.32222,-0.0319 0.64444,-0.2777 0.96667,-0.31075 0.32222,-0.0331 0.64445,-0.28502 0.96667,-0.3192 0.32223,-0.0342 0.64445,-0.2922 0.96667,-0.32752 0.32223,-0.0353 0.64445,-0.29925 0.96668,-0.3357 0.32222,-0.0364 0.64444,-0.30616 0.96667,-0.34373 0.32222,-0.0376 0.64445,-0.31294 0.96667,-0.35165 0.32223,-0.0387 0.64445,-0.31957 0.96667,-0.35941 0.32223,-0.0398 0.64445,-0.32607 0.96668,-0.36705 0.32222,-0.041 0.64444,-0.33245 0.96667,-0.37455 0.32222,-0.0421 0.64445,-0.3387 0.96667,-0.38194 0.32222,-0.0432 0.64445,-0.34481 0.96667,-0.38918 0.32223,-0.0444 0.64445,-0.3508 0.96668,-0.3963 0.32222,-0.0455 0.64444,-0.35667 0.96667,-0.4033 0.32222,-0.0466 0.64445,-0.36241 0.96667,-0.41018 0.32222,-0.0478 0.64445,-0.36803 0.96667,-0.41693 0.32223,-0.0489 0.64445,-0.37353 0.96668,-0.42356 0.32222,-0.05 0.64444,-0.37891 0.96667,-0.43007 0.32222,-0.0512 0.64445,-0.38418 0.96667,-0.43647 0.32222,-0.0523 0.64445,-0.38932 0.96667,-0.44275 0.32223,-0.0534 0.64445,-0.39436 0.96668,-0.44891 0.32222,-0.0546 0.64444,-0.39928 0.96667,-0.45497 0.32222,-0.0557 0.64445,-0.40408 0.96667,-0.4609 0.32222,-0.0568 0.64445,-0.40878 0.96667,-0.46673 0.32223,-0.058 0.64445,-0.41337 0.96668,-0.47246 0.32222,-0.0591 0.64444,-0.41785 0.96667,-0.47806 0.32222,-0.0602 0.64445,-0.42222 0.96667,-0.48357 0.32222,-0.0614 0.64445,-0.42649 0.96667,-0.48897 0.32223,-0.0625 0.64445,-0.43066 0.96668,-0.49427 0.32222,-0.0636 0.64444,-0.43472 0.96667,-0.49946 0.32222,-0.0648 0.64445,-0.43868 0.96667,-0.50455 0.32222,-0.0659 0.64445,-0.44254 0.96667,-0.50955 0.32223,-0.067 0.64445,-0.4463 0.96668,-0.51444 0.32222,-0.0681 0.64444,-0.44996 0.96667,-0.51923 0.32222,-0.0693 0.64445,-0.45353 0.96667,-0.52394 0.32222,-0.0704 0.64445,-0.457 0.96667,-0.52853 0.32223,-0.0715 0.64445,-0.46038 0.96668,-0.53305 0.32222,-0.0727 0.64444,-0.46366 0.96667,-0.53746 0.32222,-0.0738 0.64445,-0.46686 0.96667,-0.54179 0.32222,-0.0749 0.64445,-0.46996 0.96667,-0.54603 0.32223,-0.0761 0.64445,-0.47297 0.96668,-0.55016 0.32222,-0.0772 0.64444,-0.4759 0.96667,-0.55423 0.32222,-0.0783 0.64445,-0.47873 0.96667,-0.55819 0.32222,-0.0795 0.64445,-0.48149 0.96667,-0.56208 0.32223,-0.0806 0.64445,-0.48415 0.96668,-0.56588 0.32222,-0.0817 0.64444,-0.48673 0.96667,-0.56959 0.32222,-0.0828 0.64445,-0.48923 0.96667,-0.57322 0.32222,-0.084 0.64445,-0.49165 0.96667,-0.57677 0.32223,-0.0851 0.64445,-0.49399 0.96668,-0.58024 0.32222,-0.0863 0.64444,-0.49625 0.96667,-0.58363 0.32222,-0.0874 0.64445,-0.49842 0.96667,-0.58694 0.32222,-0.0885 0.64445,-0.50052 0.96667,-0.59017 0.32223,-0.0896 0.64445,-0.50255 0.96668,-0.59332 0.32222,-0.0908 0.64444,-0.5045 0.96667,-0.59641 0.32222,-0.0919 0.64445,-0.50637 0.96667,-0.59941 0.32222,-0.093 0.64445,-0.50817 0.96667,-0.60234 0.32223,-0.0942 0.64445,-0.50989 0.96668,-0.6052 0.32222,-0.0953 0.64444,-0.51155 0.96667,-0.60799 0.32222,-0.0964 0.64445,-0.51313 0.96667,-0.6107 0.32222,-0.0976 0.64445,-0.51464 0.96667,-0.61334 0.32223,-0.0987 0.64445,-0.51609 0.96667,-0.61592 0.32223,-0.0998 0.64445,-0.51746 0.96668,-0.61843 0.32222,-0.10096 0.64445,-0.51877 0.96667,-0.62086 0.32222,-0.1021 0.64445,-0.52002 0.96667,-0.62324 0.32223,-0.10323 0.64445,-0.52119 0.96667,-0.62555 0.32223,-0.10436 0.64445,-0.5223 0.96668,-0.62779 0.32222,-0.1055 0.64445,-0.52335 0.96667,-0.62997 0.32222,-0.10663 0.64445,-0.52433 0.96667,-0.63209 0.32223,-0.10775 0.64445,-0.52524 0.96667,-0.63413 0.32223,-0.10889 0.64445,-0.52611 0.96668,-0.63613 0.32222,-0.11002 0.64445,-0.52691 0.96667,-0.63806 0.32222,-0.11115 0.64445,-0.52765 0.96667,-0.63993 0.32223,-0.11229 0.64445,-0.52833 0.96667,-0.64174 0.32223,-0.11342 0.64445,-0.52895 0.96668,-0.6435 0.32222,-0.11455 0.64445,-0.52951 0.96667,-0.64519 0.32222,-0.11568 0.64445,-0.53002 0.96667,-0.64683 0.32223,-0.11682 0.64445,-0.53048 0.96667,-0.64842 0.32223,-0.11794 0.64445,-0.53087 0.96668,-0.64994 0.32222,-0.11908 0.64445,-0.53121 0.96667,-0.65142 0.32222,-0.12021 0.64445,-0.5315 0.96667,-0.65283 0.32223,-0.12134 0.64445,-0.53174 0.96667,-0.65421 0.32223,-0.12247 0.64445,-0.53191 0.96668,-0.65552 0.32222,-0.1236 0.64445,-0.53204 0.96667,-0.65678 0.32222,-0.12473 0.64445,-0.53212 0.96667,-0.65799 0.32223,-0.12586 0.64445,-0.53215 0.96667,-0.65915 0.32223,-0.127 0.64445,-0.53214 0.96668,-0.66027 0.32222,-0.12813 0.64445,-0.53206 0.96667,-0.66133 0.32222,-0.12926 0.64445,-0.53195 0.96667,-0.66234 0.32223,-0.1304 0.64445,-0.53179 0.96667,-0.66331 0.32223,-0.13153 0.64445,-0.53158 0.96668,-0.66424 0.32222,-0.13265 0.64445,-0.53131 0.96667,-0.6651 0.32222,-0.13379 0.64445,-0.53102 0.96667,-0.66594 0.32223,-0.13492 0.64445,-0.53066 0.96667,-0.66672 0.32223,-0.13605 0.64445,-0.53027 0.96668,-0.66746 0.32222,-0.13718 0.64445,-0.52984 0.96667,-0.66815 0.32222,-0.13832 0.64445,-0.52936 0.96667,-0.66881 0.32223,-0.13945 0.64445,-0.52884 0.96667,-0.66942 0.32223,-0.14058 0.64445,-0.52828 0.96668,-0.66999 0.32222,-0.14171 0.64445,-0.52767 0.96667,-0.67051 0.32222,-0.14285 0.64445,-0.52703 0.96667,-0.67101 0.32223,-0.14397 0.64445,-0.52633 0.96667,-0.67144 0.32223,-0.14511 0.64445,-0.52562 0.96668,-0.67186 0.32222,-0.14624 0.64445,-0.52485 0.96667,-0.67222 0.32222,-0.14737 0.64445,-0.52405 0.96667,-0.67255 0.32223,-0.14851 0.64445,-0.52321 0.96667,-0.67285 0.32223,-0.14963 0.64445,-0.52232 0.96668,-0.67309 0.32222,-0.15077 0.64444,-0.52142 0.96667,-0.67332 0.32222,-0.1519 0.64445,-0.52046 0.96667,-0.6735 0.32223,-0.15303 0.64445,-0.51947 0.96667,-0.67364 0.32223,-0.15416 0.64445,-0.51845 0.96668,-0.67375 0.32222,-0.1553 0.64444,-0.5174 0.96667,-0.67383 0.32222,-0.15643 0.64445,-0.51631 0.96667,-0.67387 0.32223,-0.15756 0.64445,-0.51518 0.96667,-0.67387 0.32223,-0.1587 0.64445,-0.51403 0.96668,-0.67386 0.32222,-0.15982 0.64444,-0.51283 0.96667,-0.67379 0.32222,-0.16096 0.64445,-0.51162 0.96667,-0.6737 0.32223,-0.16209 0.64445,-0.51037 0.96667,-0.67359 0.32223,-0.16321 0.64445,-0.50907 0.96668,-0.67342 0.32222,-0.16435 0.64444,-0.50776 0.96667,-0.67325 0.32222,-0.16548 0.64445,-0.50641 0.96667,-0.67303 0.32223,-0.16661 0.64445,-0.50504 0.96667,-0.67278 0.32223,-0.16775 0.64445,-0.50364 0.96668,-0.67252 0.32222,-0.16887 0.64444,-0.50219 0.96667,-0.67221 0.32222,-0.17001 0.64445,-0.50073 0.96667,-0.67187 0.32223,-0.17115 0.64445,-0.49925 0.96667,-0.67152 0.32223,-0.17228 0.64445,-0.49773 0.96668,-0.67114 0.32222,-0.1734 0.64444,-0.49618 0.96667,-0.67072 0.32222,-0.17453 0.64445,-0.4946 0.96667,-0.67027 0.32223,-0.17567 0.64445,-0.49301 0.96667,-0.66982 0.32223,-0.1768 0.64445,-0.49138 0.96668,-0.66931 0.32222,-0.17794 0.64444,-0.48974 0.96667,-0.6688 0.32222,-0.17907 0.64445,-0.48806 0.96667,-0.66826 0.32223,-0.1802 0.64445,-0.48636 0.96667,-0.66769 0.32223,-0.18133 0.64445,-0.48463 0.96668,-0.66709 0.32222,-0.18247 0.64444,-0.48289 0.96667,-0.66648 0.32222,-0.1836 0.64445,-0.48112 0.96667,-0.66584 0.32223,-0.18473 0.64445,-0.47932 0.96667,-0.66518 0.32223,-0.18585 0.64445,-0.47749 0.96668,-0.66448 0.32222,-0.18699 0.64444,-0.47566 0.96667,-0.66378 0.32222,-0.18812 0.64445,-0.4738 0.96667,-0.66305 0.32223,-0.18926 0.64445,-0.47191 0.96667,-0.6623 0.32223,-0.19038 0.64445,-0.47001 0.96668,-0.66152 0.32222,-0.19152 0.64444,-0.46808 0.96667,-0.66073 0.32222,-0.19265 0.64445,-0.46613 0.96667,-0.65991 0.32223,-0.19378 0.64445,-0.46417 0.96667,-0.65908 0.32223,-0.19491 0.64445,-0.46218 0.96668,-0.65822 0.32222,-0.19605 0.64444,-0.46017 0.96667,-0.65735 0.32222,-0.19717 0.64445,-0.45814 0.96667,-0.65645 0.32223,-0.19831 0.64445,-0.4561 0.96667,-0.65554 0.32223,-0.19944 0.64445,-0.45403 0.96668,-0.6546 0.32222,-0.20057 0.64444,-0.45195 0.96667,-0.65365 0.32222,-0.20171 0.64445,-0.44986 0.96667,-0.65269 0.32223,-0.20284 0.64445,-0.44773 0.96667,-0.6517 0.32223,-0.20397 0.64445,-0.4456 0.96668,-0.6507 0.32222,-0.2051 0.64444,-0.44344 0.96667,-0.64967 0.32222,-0.20623 0.64445,-0.44128 0.96667,-0.64864 0.32222,-0.20736 0.64445,-0.43909 0.96667,-0.64758 0.32223,-0.2085 0.64445,-0.43689 0.96668,-0.64652 0.32222,-0.20963 0.64444,-0.43467 0.96667,-0.64543 0.32222,-0.21076 0.64445,-0.43243 0.96667,-0.64432 0.32222,-0.21189 0.64445,-0.43019 0.96667,-0.64321 0.32223,-0.21303 0.64445,-0.42793 0.96668,-0.64208 0.32222,-0.21416 0.64444,-0.42565 0.96667,-0.64093 0.32222,-0.21529 0.64445,-0.42335 0.96667,-0.63977 0.32222,-0.21642 0.64445,-0.42105 0.96667,-0.6386 0.32223,-0.21755 0.64445,-0.41872 0.96668,-0.6374 0.32222,-0.21869 0.64444,-0.41639 0.96667,-0.63621 0.32222,-0.21981 0.64445,-0.41404 0.96667,-0.63498 0.32222,-0.22095 0.64445,-0.41168 0.96667,-0.63376 0.32223,-0.22208 0.64445,-0.4093 0.96668,-0.63251 0.32222,-0.22321 0.64444,-0.40692 0.96667,-0.63126 0.32222,-0.22435 0.64445,-0.40452 0.96667,-0.63 0.32222,-0.22547 0.64445,-0.4021 0.96667,-0.62871 0.32223,-0.2266 0.64445,-0.39968 0.96668,-0.62742 0.32222,-0.22774 0.64444,-0.39725 0.96667,-0.62612 0.32222,-0.22887 0.64445,-0.3948 0.96667,-0.6248 0.32222,-0.23 0.64445,-0.39235 0.96667,-0.62348 0.32223,-0.23113 0.64445,-0.38988 0.96668,-0.62214 0.32222,-0.23227 0.64444,-0.3874 0.96667,-0.6208 0.32222,-0.23339 0.64445,-0.3849 0.96667,-0.61943 0.32222,-0.23453 0.64445,-0.38241 0.96667,-0.61807 0.32223,-0.23566 0.64445,-0.3799 0.96668,-0.61669 0.32222,-0.23679 0.64444,-0.37738 0.96667,-0.6153 0.32222,-0.23793 0.64445,-0.37485 0.96667,-0.61391 0.32222,-0.23905 0.64445,-0.3723 0.96667,-0.61249 0.32223,-0.24019 0.64445,-0.36976 0.96668,-0.61108 0.32222,-0.24132 0.64444,-0.36721 0.96667,-0.60966 0.32222,-0.24245 0.64445,-0.36463 0.96667,-0.60822 0.32222,-0.24358 0.64445,-0.36206 0.96667,-0.60678 0.32223,-0.24471 0.64445,-0.35948 0.96668,-0.60532 0.32222,-0.24585 0.64444,-0.35689 0.96667,-0.60387 0.32222,-0.24698 0.64445,-0.35429 0.96667,-0.6024 0.32222,-0.24811 0.64445,-0.35168 0.96667,-0.60092 0.32223,-0.24925 0.64445,-0.34907 0.96668,-0.59945 0.32222,-0.25037 0.64444,-0.34644 0.96667,-0.59795 0.32222,-0.2515 0.64445,-0.34381 0.96667,-0.59645 0.32222,-0.25264 0.64445,-0.34118 0.96667,-0.59495 0.32223,-0.25377 0.64445,-0.33853 0.96668,-0.59344 0.32222,-0.2549 0.64444,-0.33588 0.96667,-0.59191 0.32222,-0.25604 0.64445,-0.33323 0.96667,-0.5904 0.32222,-0.25716 0.64445,-0.33056 0.96667,-0.58886 0.32223,-0.2583 0.64445,-0.32789 0.96667,-0.58732 0.32223,-0.25944 0.64445,-0.32522 0.96668,-0.58579 0.32222,-0.26056 0.64445,-0.32253 0.96667,-0.58423 0.32222,-0.26169 0.64445,-0.31985 0.96667,-0.58267 0.32223,-0.26283 0.64445,-0.31716 0.96667,-0.58112 0.32223,-0.26396 0.64445,-0.31446 0.96668,-0.57955 0.32222,-0.26509 0.64445,-0.31175 0.96667,-0.57798 0.32222,-0.26622 0.64445,-0.30904 0.96667,-0.5764 0.32223,-0.26735 0.64445,-0.30633 0.96667,-0.57482 0.32223,-0.26848 0.64445,-0.30361 0.96668,-0.57323 0.32222,-0.26962 0.64445,-0.30089 0.96667,-0.57164 0.32222,-0.27075 0.64445,-0.29817 0.96667,-0.57005 0.32223,-0.27188 0.64445,-0.29543 0.96667,-0.56845 0.32223,-0.27301 0.64445,-0.2927 0.96668,-0.56684 0.32222,-0.27415 0.64445,-0.28996 0.96667,-0.56524 0.32222,-0.27527 0.64445,-0.28721 0.96667,-0.56362 0.32223,-0.27641 0.64445,-0.28447 0.96667,-0.56201 0.32223,-0.27754 0.64445,-0.28171 0.96668,-0.56038 0.32222,-0.27868 0.64445,-0.27896 0.96667,-0.55877 0.32222,-0.2798 0.64445,-0.2762 0.96667,-0.55714 0.32223,-0.28093 0.64445,-0.27344 0.96667,-0.55551 0.32223,-0.28207 0.64445,-0.27067 0.96668,-0.55387 0.32222,-0.2832 0.64445,-0.26791 0.96667,-0.55225 0.32222,-0.28433 0.64445,-0.26513 0.96667,-0.5506 0.32223,-0.28546 0.64445,-0.26236 0.96667,-0.54896 0.32223,-0.28659 0.64445,-0.25959 0.96668,-0.54732 0.32222,-0.28772 0.64445,-0.25681 0.96667,-0.54567 0.32222,-0.28886 0.64445,-0.25403 0.96667,-0.54402 0.32223,-0.28999 0.64445,-0.25124 0.96667,-0.54237 0.32223,-0.29112 0.64445,-0.24846 0.96668,-0.54071 0.32222,-0.29226 0.64445,-0.24568 0.96667,-0.53907 0.32222,-0.29338 0.64445,-0.24288 0.96667,-0.5374 0.32223,-0.29452 0.64445,-0.24009 0.96667,-0.53575 0.32223,-0.29565 0.64445,-0.2373 0.96668,-0.53408 0.32222,-0.29678 0.64445,-0.23451 0.96667,-0.53242 0.32222,-0.29792 0.64445,-0.23171 0.96667,-0.53076 0.32223,-0.29905 0.64445,-0.22891 0.96667,-0.52909 0.32223,-0.30018 0.64445,-0.22612 0.96668,-0.52743 0.32222,-0.30131 0.64445,-0.22331 0.96667,-0.52576 0.32222,-0.30244 0.64445,-0.22051 0.96667,-0.52408 0.32223,-0.30358 0.64445,-0.21772 0.96667,-0.52242 0.32223,-0.30471 0.64445,-0.21491 0.96668,-0.52075 0.32222,-0.30584 0.64445,-0.21211 0.96667,-0.51908 0.32222,-0.30697 0.64445,-0.2093 0.96667,-0.5174 0.32223,-0.3081 0.64445,-0.2065 0.96667,-0.51573 0.32223,-0.30923 0.64445,-0.20369 0.96668,-0.51406 0.32222,-0.31036 0.64445,-0.20088 0.96667,-0.51238 0.32222,-0.3115 0.64445,-0.19808 0.96667,-0.51071 0.32223,-0.31263 0.64445,-0.19527 0.96667,-0.50903 0.32223,-0.31376 0.64445,-0.19247 0.96668,-0.50736 0.32222,-0.31489 0.64444,-0.18966 0.96667,-0.50568 0.32222,-0.31603 0.64445,-0.18685 0.96667,-0.50401 0.32223,-0.31716 0.64445,-0.18405 0.96667,-0.50234 0.32223,-0.31828 0.64445,-0.18123 0.96668,-0.50065 0.32222,-0.31943 0.64444,-0.17844 0.96667,-0.49899 0.32222,-0.32055 0.64445,-0.17562 0.96667,-0.49731 0.32223,-0.32168 0.64445,-0.17282 0.96667,-0.49564 0.32223,-0.32281 0.64445,-0.17001 0.96668,-0.49396 0.32222,-0.32395 0.64444,-0.16721 0.96667,-0.49229 0.32222,-0.32508 0.64445,-0.1644 0.96667,-0.49062 0.32223,-0.32621 0.64445,-0.1616 0.96667,-0.48894 0.32223,-0.32735 0.64445,-0.1588 0.96668,-0.48728 0.32222,-0.32847 0.64444,-0.156 0.96667,-0.4856 0.32222,-0.32961 0.64445,-0.1532 0.96667,-0.48394 0.32223,-0.33074 0.64445,-0.1504 0.96667,-0.48227 0.32223,-0.33187 0.64445,-0.1476 0.96668,-0.4806 0.32222,-0.333 0.64444,-0.1448 0.96667,-0.47893 0.32222,-0.33414 0.64445,-0.14201 0.96667,-0.47728 0.32223,-0.33526 0.64445,-0.1392 0.96667,-0.4756 0.32223,-0.3364 0.64445,-0.13642 0.96668,-0.47395 0.32222,-0.33753 0.64444,-0.13362 0.96667,-0.47228 0.32222,-0.33866 0.64445,-0.13083 0.96667,-0.47062 0.32223,-0.3398 0.64445,-0.12804 0.96667,-0.46897 0.32223,-0.34093 0.64445,-0.12525 0.96668,-0.46731 0.32222,-0.34206 0.64444,-0.12246 0.96667,-0.46565 0.32222,-0.3432 0.64445,-0.11968 0.96667,-0.46401 0.32223,-0.34432 0.64445,-0.11689 0.96667,-0.46235 0.32223,-0.34545 0.64445,-0.11411 0.96668,-0.4607 0.32222,-0.34658 0.64444,-0.11133 0.96667,-0.45905 0.32222,-0.34772 0.64445,-0.10855 0.96667,-0.4574 0.32223,-0.34886 0.64445,-0.10578 0.96667,-0.45577 0.32223,-0.34998 0.64445,-0.103 0.96668,-0.45412 0.32222,-0.35111 0.64444,-0.10023 0.96667,-0.45248 0.32222,-0.35224 0.64445,-0.0975 0.96667,-0.45084 0.32223,-0.35338 0.64445,-0.0947 0.96667,-0.4492 0.32223,-0.35451 0.64445,-0.0919 0.96668,-0.44758 0.32222,-0.35564 0.64444,-0.0892 0.96667,-0.44594 0.32222,-0.35677 0.64445,-0.0864 0.96667,-0.44431 0.32223,-0.3579 0.64445,-0.0836 0.96667,-0.44268 0.32223,-0.35904 0.64445,-0.0809 0.96668,-0.44106 0.32222,-0.36017 0.64444,-0.0781 0.96667,-0.43944 0.32222,-0.3613 0.64445,-0.0754 0.96667,-0.43782 0.32223,-0.36243 0.64445,-0.0726 0.96667,-0.4362 0.32223,-0.36356 0.64445,-0.0699 0.96668,-0.43458 0.32222,-0.3647 0.64444,-0.0671 0.96667,-0.43298 0.32222,-0.36582 0.64445,-0.0644 0.96667,-0.43136 0.32222,-0.36696 0.64445,-0.0617 0.96667,-0.42976 0.32223,-0.36809 0.64445,-0.0589 0.96668,-0.42815 0.32222,-0.36923 0.64444,-0.0562 0.96667,-0.42655 0.32222,-0.37036 0.64445,-0.0535 0.96667,-0.42496 0.32222,-0.37148 0.64445,-0.0507 0.96667,-0.42335 0.32223,-0.37262 0.64445,-0.048 0.96668,-0.42177 0.32222,-0.37375 0.64444,-0.0453 0.96667,-0.42017 0.32222,-0.37489 0.64445,-0.0426 0.96667,-0.41859 0.32222,-0.37602 0.64445,-0.0399 0.96667,-0.417 0.32223,-0.37715 0.64445,-0.0371 0.96668,-0.41543 0.32222,-0.37828 0.64444,-0.0344 0.96667,-0.41384 0.32222,-0.37941 0.64445,-0.0317 0.96667,-0.41227 0.32222,-0.38054 0.64445,-0.029 0.96667,-0.4107 0.32223,-0.38167 0.64445,-0.0263 0.96668,-0.40913 0.32222,-0.3828 0.64444,-0.0236 0.96667,-0.40756 0.32222,-0.38394 0.64445,-0.0209 0.96667,-0.406 0.32222,-0.38507 0.64445,-0.0182 0.96667,-0.40444 0.32223,-0.3862 0.64445,-0.0155 0.96668,-0.40288 0.32222,-0.38734 0.64444,-0.0129 0.96667,-0.40134 0.32222,-0.38846 0.64445,-0.0102 0.96667,-0.39978 0.32222,-0.3896 0.64445,-0.008 0.96667,-0.39824 0.32223,-0.39073 0.64445,-0.005 0.96668,-0.39669 0.32222,-0.39186 0.64444,-0.002 0.96667,-0.39515 0.32222,-0.393 0.64445,5e-4 0.96667,-0.39362 0.32222,-0.39413 0.64445,0.003 0.96667,-0.39209 0.32223,-0.39525 0.64445,0.006 0.96668,-0.39055 0.32222,-0.39639 0.64444,0.008 0.96667,-0.38903 0.32222,-0.39752 0.64445,0.0111 0.96667,-0.38751 0.32222,-0.39866 0.64445,0.0138 0.96667,-0.38599 0.32223,-0.39979 0.64445,0.0164 0.96668,-0.38448 0.32222,-0.40091 0.64444,0.0191 0.96667,-0.38296 0.32222,-0.40205 0.64445,0.0217 0.96667,-0.38145 0.32222,-0.40318 0.64445,0.0244 0.96667,-0.37995 0.32223,-0.40432 0.64445,0.027 0.96668,-0.37845 0.32222,-0.40545 0.64444,0.0296 0.96667,-0.37696 0.32222,-0.40657 0.64445,0.0322 0.96667,-0.37546 0.32222,-0.40771 0.64445,0.0349 0.96667,-0.37397 0.32223,-0.40884 0.64445,0.0375 0.96668,-0.37248 0.32222,-0.40997 0.64444,0.0401 0.96667,-0.371 0.32222,-0.41111 0.64445,0.0427 0.96667,-0.36952 0.32222,-0.41224 0.64445,0.0453 0.96667,-0.36805 0.32223,-0.41337 0.64445,0.0479 0.96668,-0.36658 0.32222,-0.4145 0.64444,0.0505 0.96667,-0.36511 0.32222,-0.41563 0.64445,0.0531 0.96667,-0.36365 0.32222,-0.41676 0.64445,0.0557 0.96667,-0.36218 0.32223,-0.4179 0.64445,0.0583 0.96668,-0.36073 0.32222,-0.41903 0.64444,0.0609 0.96667,-0.35928 0.32222,-0.42016 0.64445,0.0635 0.96667,-0.35783 0.32222,-0.42129 0.64445,0.066 0.96667,-0.35639 0.32223,-0.42242 0.64445,0.0686 0.96667,-0.35495 0.32223,-0.42355 0.64445,0.0712 0.96668,-0.35351 0.32222,-0.42468 0.64445,0.0737 0.96667,-0.35207 0.32222,-0.42582 0.644448,0.0763 0.966672,-0.35065 0.322225,-0.42695 0.644449,0.0788 0.966673,-0.34923 0.322224,-0.42808 0.644448,0.0814 0.966672,-0.3478 0.322225,-0.42922 0.644449,0.084 0.966673,-0.34639 0.322224,-0.43035 0.644448,0.0865 0.966672,-0.34497 0.322224,-0.43148 0.644449,0.089 0.966673,-0.34357 0.322224,-0.43261 0.644448,0.0916 0.966672,-0.34216 0.322224,-0.43374 0.644449,0.0941 0.966673,-0.34076 0.322224,-0.43488 0.644448,0.0966 0.966672,-0.33937 0.322224,-0.436 0.644449,0.0992 0.966673,-0.33797 0.322224,-0.43714 0.644448,0.10169 0.966672,-0.33658 0.322224,-0.43827 0.644449,0.1042 0.966673,-0.3352 0.322224,-0.4394 0.644448,0.10672 0.966672,-0.33382 0.322224,-0.44053 0.644449,0.10923 0.966673,-0.33244 0.322224,-0.44166 0.644448,0.11173 0.966672,-0.33107 0.322224,-0.4428 0.644448,0.11423 0.966673,-0.3297 0.322224,-0.44393 0.644448,0.11673 0.966672,-0.32833 0.322224,-0.44507 0.644448,0.11921 0.966673,-0.32698 0.322224,-0.44619 0.644448,0.1217 0.966672,-0.32562 0.322224,-0.44733 0.644448,0.12419 0.966673,-0.32427 0.322224,-0.44846 0.644448,0.12667 0.966672,-0.32292 0.322224,-0.44959 0.644448,0.12914 0.966673,-0.32158 0.322224,-0.45072 0.644448,0.13162 0.966672,-0.32023 0.322224,-0.45186 0.644448,0.13408 0.966672,-0.31891 0.322225,-0.45298 0.644449,0.13655 0.966673,-0.31757 0.322224,-0.45411 0.644448,0.13901 0.966672,-0.31624 0.322225,-0.45525 0.644449,0.14146 0.966673,-0.31492 0.322224,-0.45638 0.644448,0.14391 0.966672,-0.3136 0.322225,-0.45751 0.644449,0.14636 0.966673,-0.31229 0.322224,-0.45864 0.644448,0.14881 0.966672,-0.31097 0.322225,-0.45978 0.644449,0.15124 0.966673,-0.30967 0.322224,-0.46091 0.644448,0.15367 0.966672,-0.30837 0.322225,-0.46204 0.644449,0.15611 0.966673,-0.30706 0.322224,-0.46318 0.644448,0.15853 0.966672,-0.30578 0.322224,-0.4643 0.644449,0.16095 0.966673,-0.30448 0.322224,-0.46544 0.644448,0.16337 0.966672,-0.3032 0.322224,-0.46657 0.644449,0.16578 0.966673,-0.30192 0.322224,-0.4677 0.644448,0.16819 0.966672,-0.30064 0.322224,-0.46883 0.644449,0.1706 0.966673,-0.29936 0.322224,-0.46997 0.644448,0.173 0.966672,-0.2981 0.322224,-0.47109 0.644449,0.1754 0.966673,-0.29683 0.322224,-0.47223 0.644448,0.17779 0.966672,-0.29557 0.322224,-0.47336 0.644448,0.18017 0.966673,-0.29432 0.322224,-0.47449 0.644448,0.18256 0.966672,-0.29306 0.322224,-0.47562 0.644448,0.18494 0.966673,-0.29181 0.322224,-0.47676 0.644448,0.18732 0.966672,-0.29057 0.322224,-0.47789 0.644448,0.18969 0.966673,-0.28933 0.322224,-0.47902 0.644448,0.19206 0.966672,-0.28809 0.322224,-0.48015 0.644448,0.19442 0.966673,-0.28687 0.322224,-0.48128 0.644448,0.19678 0.966672,-0.28563 0.322224,-0.48241 0.644448,0.19913 0.966673,-0.28441 0.322224,-0.48355 0.644448,0.20148 0.966672,-0.28319 0.322224,-0.48468 0.644448,0.20383 0.966672,-0.28198 0.322225,-0.48581 0.644449,0.20618 0.966673,-0.28077 0.322224,-0.48694 0.644448,0.20852 0.966672,-0.27955 0.322225,-0.48808 0.644449,0.21084 0.966673,-0.27836 0.322224,-0.48921 0.644448,0.21318 0.966672,-0.27716 0.322225,-0.49034 0.644449,0.21551 0.966673,-0.27596 0.322224,-0.49147 0.644448,0.21782 0.966672,-0.27478 0.322225,-0.4926 0.644449,0.22015 0.966673,-0.27358 0.322224,-0.49374 0.644448,0.22245 0.966672,-0.27241 0.322225,-0.49486 0.644449,0.22477 0.966673,-0.27123 0.322224,-0.49599 0.644448,0.22708 0.966672,-0.27005 0.322224,-0.49713 0.644449,0.22937 0.966673,-0.26889 0.322224,-0.49826 0.644448,0.23168 0.966672,-0.26772 0.322224,-0.49939 0.644449,0.23397 0.966673,-0.26655 0.322224,-0.50053 0.644448,0.23625 0.966672,-0.26541 0.322224,-0.50165 0.644449,0.23854 0.966673,-0.26424 0.322224,-0.50279 0.644448,0.24082 0.966672,-0.2631 0.322224,-0.50392 0.644449,0.2431 0.966673,-0.26196 0.322224,-0.50505 0.644448,0.24537 0.966672,-0.26081 0.322224,-0.50618 0.644448,0.24764 0.966673,-0.25968 0.322224,-0.50731 0.644448,0.24991 0.966672,-0.25854 0.322224,-0.50845 0.644448,0.25216 0.966673,-0.25742 0.322224,-0.50958 0.644448,0.25442 0.966672,-0.25629 0.322224,-0.51071 0.644448,0.25667 0.966673,-0.25517 0.322224,-0.51184 0.644448,0.25892 0.966672,-0.25405 0.322224,-0.51298 0.644448,0.26116 0.966673,-0.25295 0.322224,-0.5141 0.644448,0.26341 0.966672,-0.25183 0.322224,-0.51524 0.644448,0.26564 0.966673,-0.25073 0.322224,-0.51637 0.644448,0.26787 0.966672,-0.24963 0.322224,-0.5175 0.644448,0.2701 0.966672,-0.24853 0.322225,-0.51864 0.644449,0.27232 0.966673,-0.24745 0.322224,-0.51976 0.644448,0.27455 0.966672,-0.24635 0.322225,-0.5209 0.644449,0.27676 0.966673,-0.24527 0.322224,-0.52203 0.644448,0.27897 0.966672,-0.24419 0.322225,-0.52316 0.644449,0.28118 0.966673,-0.24311 0.322224,-0.5243 0.644448,0.28338 0.966672,-0.24205 0.322225,-0.52542 0.644449,0.28559 0.966673,-0.24097 0.322224,-0.52656 0.644448,0.28778 0.966672,-0.23991 0.322224,-0.52769 0.644449,0.28997 0.966673,-0.23885 0.322224,-0.52882 0.644448,0.29216 0.966672,-0.2378 0.322224,-0.52995 0.644449,0.29435 0.966673,-0.23674 0.322224,-0.53108 0.6444481,0.29652 0.9666723,-0.23569 0.3222241,-0.53222 0.6444483,0.2987 0.9666724,-0.23465 0.3222242,-0.53335 0.6444484,0.30087 0.9666725,-0.23361 0.3222242,-0.53448 0.6444483,0.30304 0.9666725,-0.23258 0.3222242,-0.53561 0.6444483,0.30521 0.9666725,-0.23154 0.3222242,-0.53674 0.6444483,0.30736 0.9666725,-0.23051 0.3222241,-0.53788 0.6444483,0.30952 0.9666725,-0.22949 0.3222241,-0.53901 0.6444483,0.31167 0.9666724,-0.22847 0.3222242,-0.54014 0.6444484,0.31382 0.9666725,-0.22745 0.3222242,-0.54127 0.6444483,0.31597 0.96667251,-0.22644 0.32222416,-0.5424 0.64444832,0.31811 0.96667248,-0.22543 0.32222416,-0.54353 0.64444832,0.32025 0.96667251,-0.22442 0.3222241,-0.54467 0.6444483,0.32237 0.9666725,-0.22343 0.3222241,-0.5458 0.6444483,0.32451 0.9666724,-0.22242 0.3222242,-0.54693 0.6444484,0.32663 0.9666725,-0.22144 0.3222242,-0.54806 0.6444483,0.32876 0.9666725,-0.22044 0.3222242,-0.54919 0.6444483,0.33087 0.9666725,-0.21946 0.3222241,-0.55032 0.6444483,0.33299 0.9666725,-0.21847 0.3222241,-0.55146 0.6444483,0.33509 0.9666724,-0.2175 0.3222242,-0.55259 0.6444484,0.3372 0.9666725,-0.21652 0.3222242,-0.55373 0.6444484,0.3393 0.9666725,-0.21555 0.3222241,-0.55486 0.6444481,0.3414 0.9666721,-0.21459 0.322225,-0.55599 0.644449,0.3435 0.966673,-0.21362 0.322224,-0.55712 0.644448,0.34558 0.966672,-0.21267 0.322225,-0.55825 0.644449,0.34768 0.966673,-0.21171 0.322224,-0.55938 0.644448,0.34976 0.966672,-0.21075 0.322224,-0.56052 0.644449,0.35184 0.966673,-0.20981 0.322224,-0.56165 0.644448,0.35391 0.966672,-0.20887 0.322224,-0.56277 0.644449,0.35599 0.966673,-0.20792 0.322224,-0.56391 0.644448,0.35806 0.966672,-0.20699 0.322224,-0.56504 0.644449,0.36012 0.966673,-0.20605 0.322224,-0.56618 0.644448,0.36218 0.966672,-0.20513 0.322224,-0.5673 0.644449,0.36424 0.966673,-0.2042 0.322224,-0.56843 0.644448,0.3663 0.966672,-0.20327 0.322224,-0.56957 0.644449,0.36834 0.966673,-0.20236 0.322224,-0.57071 0.644448,0.37039 0.966672,-0.20145 0.322224,-0.57183 0.644448,0.37243 0.966673,-0.20053 0.322224,-0.57297 0.644448,0.37447 0.966672,-0.19963 0.322224,-0.5741 0.644448,0.37651 0.966673,-0.19872 0.322224,-0.57523 0.644448,0.37854 0.966672,-0.19782 0.322224,-0.57637 0.644448,0.38056 0.966673,-0.19693 0.322224,-0.57749 0.644448,0.38259 0.966672,-0.19604 0.322224,-0.57862 0.644448,0.38462 0.966673,-0.19514 0.322224,-0.57976 0.644448,0.38663 0.966672,-0.19426 0.322224,-0.58089 0.644448,0.38864 0.966672,-0.19338 0.322225,-0.58202 0.644449,0.39066 0.966673,-0.19249 0.322224,-0.58316 0.644448,0.39266 0.966672,-0.19163 0.322225,-0.58428 0.644449,0.39467 0.966673,-0.19075 0.322224,-0.58542 0.644448,0.39666 0.966672,-0.18989 0.322225,-0.58654 0.644449,0.39866 0.966673,-0.18902 0.322224,-0.58768 0.644448,0.40066 0.966672,-0.18816 0.322225,-0.58881 0.644449,0.40265 0.966673,-0.1873 0.322224,-0.58994 0.644448,0.40463 0.966672,-0.18645 0.322225,-0.59107 0.644449,0.40661 0.966673,-0.18559 0.322224,-0.59221 0.644448,0.40858 0.966672,-0.18476 0.322224,-0.59334 0.644449,0.41057 0.966673,-0.1839 0.322224,-0.59448 0.644448,0.41253 0.966672,-0.18307 0.322224,-0.59561 0.644449,0.4145 0.966673,-0.18224 0.322224,-0.59673 0.644448,0.41647 0.966672,-0.18139 0.322224,-0.59787 0.644449,0.41843 0.966673,-0.18057 0.322224,-0.599 0.644448,0.42038 0.966672,-0.17975 0.322224,-0.60013 0.644449,0.42234 0.966673,-0.17892 0.322224,-0.60126 0.644448,0.42429 0.966672,-0.1781 0.322224,-0.60239 0.644448,0.42624 0.966673,-0.17729 0.322224,-0.60352 0.644448,0.42819 0.966672,-0.17647 0.322224,-0.60466 0.644448,0.43013 0.966673,-0.17566 0.322224,-0.60579 0.644448,0.43206 0.966672,-0.17486 0.322224,-0.60692 0.644448,0.434 0.966673,-0.17406 0.322224,-0.60805 0.644448,0.43593 0.966672,-0.17325 0.322224,-0.60919 0.644448,0.43785 0.966673,-0.17246 0.322224,-0.61032 0.644448,0.43978 0.966672,-0.17167 0.322224,-0.61145 0.644448,0.4417 0.966673,-0.17088 0.322224,-0.61258 0.644448,0.44362 0.966672,-0.1701 0.322224,-0.61371 0.644448,0.44554 0.966672,-0.16931 0.322225,-0.61484 0.644449,0.44745 0.966673,-0.16853 0.322224,-0.61598 0.644448,0.44935 0.966672,-0.16775 0.322225,-0.61711 0.644449,0.45125 0.966673,-0.16699 0.322224,-0.61824 0.644448,0.45316 0.966672,-0.16621 0.322225,-0.61937 0.644449,0.45506 0.966673,-0.16545 0.322224,-0.6205 0.644448,0.45695 0.966672,-0.16468 0.322225,-0.62164 0.644449,0.45884 0.966673,-0.16393 0.322224,-0.62277 0.644448,0.46074 0.966672,-0.16317 0.322225,-0.6239 0.644449,0.46262 0.966673,-0.16241 0.322224,-0.62503 0.644448,0.4645 0.966672,-0.16166 0.322224,-0.62617 0.644449,0.46638 0.966673,-0.16092 0.322224,-0.6273 0.644448,0.46825 0.966672,-0.16017 0.322224,-0.62843 0.644449,0.47012 0.966673,-0.15944 0.322224,-0.62956 0.644448,0.472 0.966672,-0.15869 0.322224,-0.63069 0.644449,0.47386 0.966673,-0.15796 0.322224,-0.63183 0.644448,0.47572 0.966672,-0.15723 0.322224,-0.63296 0.644449,0.47759 0.966673,-0.1565 0.322224,-0.63409 0.644448,0.47944 0.966672,-0.15578 0.322224,-0.63522 0.644448,0.4813 0.966673,-0.15505 0.322224,-0.63635 0.644448,0.48315 0.966672,-0.15434 0.322224,-0.63748 0.644448,0.485 0.966673,-0.15362 0.322224,-0.63861 0.644448,0.48685 0.966672,-0.1529 0.322224,-0.63975 0.644448,0.48868 0.966673,-0.1522 0.322224,-0.64088 0.644448,0.49052 0.966672,-0.15149 0.322224,-0.64201 0.644448,0.49236 0.966673,-0.15078 0.322224,-0.64315 0.644448,0.49419 0.966672,-0.15009 0.322224,-0.64427 0.644448,0.49602 0.966673,-0.14939 0.322224,-0.6454 0.644448,0.49785 0.966672,-0.14869 0.322224,-0.64654 0.644448,0.49967 0.966672,-0.148 0.322225,-0.64767 0.644449,0.50149 0.966673,-0.14731 0.322224,-0.6488 0.644448,0.50331 0.966672,-0.14663 0.322225,-0.64993 0.644449,0.50512 0.966673,-0.14594 0.322224,-0.65107 0.644448,0.50693 0.966672,-0.14527 0.322225,-0.65219 0.644449,0.50875 0.966673,-0.14458 0.322224,-0.65333 0.644448,0.51055 0.966672,-0.14392 0.322225,-0.65446 0.644449,0.51235 0.966673,-0.14324 0.322224,-0.65559 0.644448,0.51415 0.966672,-0.14257 0.322224,-0.65673 0.644449,0.51595 0.966673,-0.14191 0.322224,-0.65786 0.644448,0.51774 0.966672,-0.14125 0.322224,-0.65899 0.644449,0.51954 0.966673,-0.14059 0.322226,-0.66012 0.644446,0.52133 0.966676,-0.13993 0.32222,-0.66125 0.64444,0.52311 0.96667,-0.13927 0.32222,-0.66239 0.64445,0.52489 0.96667,-0.13863 0.32223,-0.66351 0.64445,0.52667 0.96667,-0.13798 0.32223,-0.66464 0.64445,0.52845 0.96668,-0.13733 0.32222,-0.66578 0.64444,0.53023 0.96667,-0.13669 0.32222,-0.66691 0.64445,0.532 0.96667,-0.13605 0.32223,-0.66804 0.64445,0.53377 0.96667,-0.13541 0.32223,-0.66918 0.64445,0.53553 0.96668,-0.13478 0.32222,-0.67031 0.64444,0.53729 0.96667,-0.13415 0.32222,-0.67144 0.64445,0.53906 0.96667,-0.13352 0.32223,-0.67257 0.64445,0.54081 0.96667,-0.13289 0.32223,-0.67371 0.64445,0.54256 0.96668,-0.13227 0.32222,-0.67484 0.64444,0.54432 0.96667,-0.13165 0.32222,-0.67597 0.64445,0.54607 0.96667,-0.13103 0.32223,-0.6771 0.64445,0.54781 0.96667,-0.13042 0.32223,-0.67823 0.64445,0.54956 0.96668,-0.12981 0.32222,-0.67936 0.64444,0.5513 0.96667,-0.12919 0.32222,-0.6805 0.64445,0.55303 0.96667,-0.12859 0.32223,-0.68163 0.64445,0.55477 0.96667,-0.12799 0.32223,-0.68276 0.64445,0.55651 0.96668,-0.12738 0.32222,-0.68389 0.64444,0.55824 0.96667,-0.12679 0.32222,-0.68502 0.64445,0.55997 0.96667,-0.12619 0.32223,-0.68615 0.64445,0.56169 0.96667,-0.12559 0.32223,-0.68729 0.64445,0.56341 0.96668,-0.12501 0.32222,-0.68842 0.64444,0.56514 0.96667,-0.12441 0.32222,-0.68955 0.64445,0.56685 0.96667,-0.12383 0.32222,-0.69069 0.64445,0.56856 0.96667,-0.12325 0.32223,-0.69182 0.64445,0.57028 0.96668,-0.12267 0.32222,-0.69295 0.64444,0.57199 0.96667,-0.12209 0.32222,-0.69408 0.64445,0.5737 0.96667,-0.12151 0.32222,-0.69521 0.64445,0.5754 0.96667,-0.12094 0.32223,-0.69634 0.64445,0.5771 0.96668,-0.12037 0.32222,-0.69748 0.64444,0.5788 0.96667,-0.11981 0.32222,-0.6986 0.64445,0.5805 0.96667,-0.11923 0.32222,-0.69974 0.64445,0.58219 0.96667,-0.11868 0.32223,-0.70087 0.64445,0.58389 0.96668,-0.11811 0.32222,-0.70201 0.64444,0.58557 0.96667,-0.11756 0.32222,-0.70314 0.64445,0.58726 0.96667,-0.117 0.32222,-0.70427 0.64445,0.58894 0.96667,-0.11645 0.32223,-0.7054 0.64445,0.59063 0.96668,-0.1159 0.32222,-0.70653 0.64444,0.59231 0.96667,-0.11535 0.32222,-0.70767 0.64445,0.59398 0.96667,-0.11481 0.32222,-0.70879 0.64445,0.59566 0.96667,-0.11426 0.32223,-0.70993 0.64445,0.59733 0.96668,-0.11373 0.32222,-0.71105 0.64444,0.59901 0.96667,-0.11318 0.32222,-0.71219 0.64445,0.60067 0.96667,-0.11265 0.32222,-0.71332 0.64445,0.60234 0.96667,-0.11212 0.32223,-0.71445 0.64445,0.604 0.96668,-0.11158 0.32222,-0.71559 0.64444,0.60566 0.96667,-0.11106 0.32222,-0.71672 0.64445,0.60732 0.96667,-0.11053 0.32222,-0.71785 0.64445,0.60897 0.96667,-0.11001 0.32223,-0.71898 0.64445,0.61063 0.96668,-0.10948 0.32222,-0.72011 0.64444,0.61227 0.96667,-0.10897 0.32222,-0.72124 0.64445,0.61393 0.96667,-0.10845 0.32222,-0.72237 0.64445,0.61557 0.96667,-0.10793 0.32223,-0.72351 0.64445,0.61721 0.96668,-0.10743 0.32222,-0.72464 0.64444,0.61886 0.96667,-0.10691 0.32222,-0.72577 0.64445,0.62049 0.96667,-0.10641 0.32222,-0.7269 0.64445,0.62214 0.96667,-0.1059 0.32223,-0.72804 0.64445,0.62377 0.96668,-0.1054 0.32222,-0.72917 0.64444,0.6254 0.96667,-0.1049 0.32222,-0.7303 0.64445,0.62703 0.96667,-0.1044 0.32222,-0.73143 0.64445,0.62866 0.96667,-0.1039 0.32223,-0.73256 0.64445,0.63028 0.96668,-0.10341 0.32222,-0.73369 0.64444,0.63191 0.96667,-0.10292 0.32222,-0.73483 0.64445,0.63353 0.96667,-0.10243 0.32222,-0.73596 0.64445,0.63515 0.96667,-0.10194 0.32223,-0.73709 0.64445,0.63677 0.96668,-0.10146 0.32222,-0.73822 0.64444,0.63838 0.96667,-0.10097 0.32222,-0.73935 0.64445,0.63999 0.96667,-0.10049 0.32222,-0.74049 0.64445,0.6416 0.96667,-0.10002 0.32223,-0.74162 0.64445,0.64321 0.96668,-0.0995 0.32222,-0.74275 0.64444,0.64482 0.96667,-0.0991 0.32222,-0.74389 0.64445,0.64642 0.96667,-0.0986 0.32222,-0.74501 0.64445,0.64802 0.96667,-0.0981 0.32223,-0.74615 0.64445,0.64962 0.96667,-0.0977 0.32223,-0.74728 0.64445,0.65122 0.96668,-0.0972 0.32222,-0.74841 0.64445,0.65282 0.96667,-0.0967 0.32222,-0.74954 0.64445,0.65441 0.96667,-0.0963 0.32223,-0.75068 0.64445,0.656 0.96667,-0.0958 0.32223,-0.7518 0.64445,0.65759 0.96668,-0.0953 0.32222,-0.75294 0.64445,0.65917 0.96667,-0.0949 0.32222,-0.75406 0.64445,0.66076 0.96667,-0.0944 0.32223,-0.7552 0.64445,0.66234 0.96667,-0.094 0.32223,-0.75633 0.64445,0.66392 0.96668,-0.0935 0.32222,-0.75747 0.64445,0.6655 0.96667,-0.0931 0.32222,-0.7586 0.64445,0.66708 0.96667,-0.0927 0.32223,-0.75973 0.64445,0.66865 0.96667,-0.0922 0.32223,-0.76086 0.64445,0.67022 0.96668,-0.0918 0.32222,-0.76199 0.64445,0.67179 0.96667,-0.0913 0.32222,-0.76312 0.64445,0.67336 0.96667,-0.0909 0.32223,-0.76426 0.64445,0.67493 0.96667,-0.0905 0.32223,-0.76539 0.64445,0.67649 0.96668,-0.09 0.32222,-0.76652 0.64445,0.67806 0.96667,-0.0896 0.32222,-0.76765 0.64445,0.67962 0.96667,-0.0892 0.32223,-0.76879 0.64445,0.68117 0.96667,-0.0887 0.32223,-0.76992 0.64445,0.68273 0.96668,-0.0883 0.32222,-0.77105 0.64445,0.68428 0.96667,-0.0879 0.32222,-0.77217 0.64445,0.68584 0.96667,-0.0875 0.32223,-0.77331 0.64445,0.68739 0.96667,-0.087 0.32223,-0.77445 0.64445,0.68893 0.96668,-0.0866 0.32222,-0.77558 0.64445,0.69048 0.96667,-0.0862 0.32222,-0.77671 0.64445,0.69203 0.96667,-0.0858 0.32223,-0.77784 0.64445,0.69357 0.96667,-0.0854 0.32223,-0.77897 0.64445,0.69511 0.96668,-0.085 0.32222,-0.7801 0.64445,0.69665 0.96667,-0.0846 0.32222,-0.78124 0.64445,0.69819 0.96667,-0.0842 0.32223,-0.78237 0.64445,0.69973 0.96667,-0.0838 0.32223,-0.7835 0.64445,0.70126 0.96668,-0.0834 0.32222,-0.78463 0.64445,0.70279 0.96667,-0.083 0.32222,-0.78576 0.64445,0.70433 0.96667,-0.0826 0.32223,-0.78689 0.64445,0.70585 0.96667,-0.0822 0.32223,-0.78802 0.64445,0.70738 0.96668,-0.0818 0.32222,-0.78916 0.64445,0.7089 0.96667,-0.0814 0.32222,-0.79029 0.64445,0.71042 0.96667,-0.081 0.32223,-0.79142 0.64445,0.71194 0.96667,-0.0806 0.32223,-0.79255 0.64445,0.71346 0.96668,-0.0802 0.32222,-0.79369 0.64445,0.71497 0.96667,-0.0798 0.32222,-0.79482 0.64445,0.71649 0.96667,-0.0795 0.32223,-0.79595 0.64445,0.71801 0.96667,-0.0791 0.32223,-0.79708 0.64445,0.71952 0.96668,-0.0787 0.32222,-0.79822 0.64444,0.72103 0.96667,-0.0783 0.32222,-0.79934 0.64445,0.72254 0.96667,-0.0779 0.32223,-0.80047 0.64445,0.72405 0.96667,-0.0776 0.32223,-0.80161 0.64445,0.72555 0.96668,-0.0772 0.32222,-0.80274 0.64444,0.72705 0.96667,-0.0768 0.32222,-0.80388 0.64445,0.72855 0.96667,-0.0765 0.32223,-0.80501 0.64445,0.73005 0.96667,-0.0761 0.32223,-0.80613 0.64445,0.73156 0.96668,-0.0757 0.32222,-0.80727 0.64444,0.73304 0.96667,-0.0754 0.32222,-0.80839 0.64445,0.73455 0.96667,-0.075 0.32223,-0.80954 0.64445,0.73603 0.96667,-0.0746 0.32223,-0.81067 0.64445,0.73752 0.96668,-0.0743 0.32222,-0.8118 0.64444,0.73901 0.96667,-0.0739 0.32222,-0.81293 0.64445,0.7405 0.96667,-0.0736 0.32223,-0.81406 0.64445,0.74199 0.96667,-0.0732 0.32223,-0.81519 0.64445,0.74347 0.96668,-0.0729 0.32222,-0.81632 0.64444,0.74496 0.96667,-0.0725 0.32222,-0.81745 0.64445,0.74644 0.96667,-0.0721 0.32223,-0.81859 0.64445,0.74792 0.96667,-0.0718 0.32223,-0.81972 0.64445,0.7494 0.96668,-0.0715 0.32222,-0.82085 0.64444,0.75087 0.96667,-0.0711 0.32222,-0.82199 0.64445,0.75234 0.96667,-0.0708 0.32223,-0.82312 0.64445,0.75382 0.96667,-0.0704 0.32223,-0.82424 0.64445,0.75529 0.96668,-0.0701 0.32222,-0.82537 0.64444,0.75677 0.96667,-0.0697 0.32222,-0.82651 0.64445,0.75823 0.96667,-0.0694 0.32223,-0.82764 0.64445,0.7597 0.96667,-0.0691 0.32223,-0.82878 0.64445,0.76116 0.96668,-0.0687 0.32222,-0.8299 0.64444,0.76263 0.96667,-0.0684 0.32222,-0.83104 0.64445,0.76409 0.96667,-0.0681 0.32223,-0.83217 0.64445,0.76555 0.96667,-0.0677 0.32223,-0.83331 0.64445,0.767 0.96668,-0.0674 0.32222,-0.83443 0.64444,0.76846 0.96667,-0.0671 0.32222,-0.83557 0.64445,0.76992 0.96667,-0.0668 0.32223,-0.8367 0.64445,0.77138 0.96667,-0.0665 0.32223,-0.83783 0.64445,0.77283 0.96668,-0.0661 0.32222,-0.83896 0.64444,0.77428 0.96667,-0.0658 0.32222,-0.84009 0.64445,0.77573 0.96667,-0.0655 0.32223,-0.84123 0.64445,0.77717 0.96667,-0.0652 0.32223,-0.84236 0.64445,0.77862 0.96668,-0.0649 0.32222,-0.84349 0.64444,0.78007 0.96667,-0.0646 0.32222,-0.84462 0.64445,0.78152 0.96667,-0.0642 0.32223,-0.84575 0.64445,0.78296 0.96667,-0.0639 0.32223,-0.84689 0.64445,0.78439 0.96668,-0.0636 0.32222,-0.84802 0.64444,0.78584 0.96667,-0.0633 0.32222,-0.84915 0.64445,0.78727 0.96667,-0.063 0.32223,-0.85028 0.64445,0.78872 0.96667,-0.0627 0.32223,-0.85141 0.64445,0.79015 0.96668,-0.0624 0.32222,-0.85255 0.64444,0.79158 0.96667,-0.0621 0.32222,-0.85367 0.64445,0.79302 0.96667,-0.0618 0.32222,-0.85481 0.64445,0.79444 0.96667,-0.0615 0.32223,-0.85593 0.64445,0.79588 0.96668,-0.0612 0.32222,-0.85707 0.64444,0.7973 0.96667,-0.0609 0.32222,-0.85821 0.64445,0.79873 0.96667,-0.0606 0.32222,-0.85933 0.64445,0.80016 0.96667,-0.0603 0.32223,-0.86047 0.64445,0.80158 0.96668,-0.06 0.32222,-0.8616 0.64444,0.803 0.96667,-0.0597 0.32222,-0.86273 0.64445,0.80442 0.96667,-0.0594 0.32222,-0.86386 0.64445,0.80584 0.96667,-0.0591 0.32223,-0.865 0.64445,0.80726 0.96668,-0.0589 0.32222,-0.86613 0.64444,0.80868 0.96667,-0.0586 0.32222,-0.86726 0.64445,0.81009 0.96667,-0.0583 0.32222,-0.86839 0.64445,0.81151 0.96667,-0.058 0.32223,-0.86952 0.64445,0.81292 0.96668,-0.0577 0.32222,-0.87066 0.64444,0.81433 0.96667,-0.0575 0.32222,-0.87178 0.64445,0.81575 0.96667,-0.0572 0.32222,-0.87292 0.64445,0.81715 0.96667,-0.0569 0.32223,-0.87405 0.64445,0.81856 0.96668,-0.0566 0.32222,-0.87518 0.64444,0.81997 0.96667,-0.0563 0.32222,-0.87632 0.64445,0.82137 0.96667,-0.0561 0.32222,-0.87744 0.64445,0.82278 0.96667,-0.0558 0.32223,-0.87857 0.64445,0.82418 0.96668,-0.0555 0.32222,-0.87971 0.64444,0.82558 0.96667,-0.0553 0.32222,-0.88084 0.64445,0.82698 0.96667,-0.055 0.32222,-0.88197 0.64445,0.82838 0.96667,-0.0547 0.32223,-0.8831 0.64445,0.82978 0.96668,-0.0545 0.32222,-0.88423 0.64444,0.83118 0.96667,-0.0542 0.32222,-0.88537 0.64445,0.83257 0.96667,-0.0539 0.32222,-0.8865 0.64445,0.83396 0.96667,-0.0537 0.32223,-0.88764 0.64445,0.83535 0.96668,-0.0534 0.32222,-0.88877 0.64444,0.83674 0.96667,-0.0531 0.32222,-0.8899 0.64445,0.83813 0.96667,-0.0529 0.32222,-0.89102 0.64445,0.83953 0.96667,-0.0526 0.32223,-0.89216 0.64445,0.84091 0.96668,-0.0524 0.32222,-0.89329 0.64444,0.8423 0.96667,-0.0521 0.32222,-0.89443 0.64445,0.84368 0.96667,-0.0519 0.32222,-0.89555 0.64445,0.84507 0.96667,-0.0516 0.32223,-0.89668 0.64445,0.84646 0.96668,-0.0514 0.32222,-0.89782 0.64444,0.84783 0.96667,-0.0511 0.32222,-0.89895 0.64445,0.84921 0.96667,-0.0509 0.32222,-0.90009 0.64445,0.85059 0.96667,-0.0506 0.32223,-0.90121 0.64445,0.85197 0.96668,-0.0504 0.32222,-0.90235 0.64444,0.85334 0.96667,-0.0501 0.32222,-0.90347 0.64445,0.85473 0.96667,-0.0499"
       style="opacity:1;fill:none;fill-opacity:1;stroke:#000000;stroke-width:1;stroke-miterlimit:4;stroke-dasharray:none;stroke-dashoffset:0;stroke-opacity:1"
       inkscape:connector-curvature="0"
       transform="translate(44,16)" />
    <path
       style="fill:none;fill-rule:evenodd;stroke:#000000;stroke-width:3;stroke-linecap:butt;stroke-linejoin:miter;stroke-opacity:1;stroke-miterlimit:4;stroke-dasharray:none;marker-end:url(#Arrow1Lend)"
       d="m -418.74252,-327.08696 0,-439.41636"
       id="path8282"
       inkscape:path-effect="#path-effect8284"
       inkscape:original-d="m -418.74252,-327.08696 0,-439.41636"
       inkscape:connector-curvature="0" />
    <path
       style="fill:none;fill-rule:evenodd;stroke:#000000;stroke-width:3;stroke-linecap:butt;stroke-linejoin:miter;stroke-opacity:1;stroke-miterlimit:4;stroke-dasharray:none;marker-end:url(#marker8344)"
       d="m -615.72226,-340.21894 986.91904,0"
       id="path8322"
       inkscape:path-effect="#path-effect8324"
       inkscape:original-d="m -615.72226,-340.21894 986.91904,0"
       inkscape:connector-curvature="0" />
    <path
       style="fill:none;fill-rule:evenodd;stroke:#000000;stroke-width:1;stroke-linecap:butt;stroke-linejoin:miter;stroke-miterlimit:4;stroke-dasharray:12, 12;stroke-dashoffset:0;stroke-opacity:1"
       d="m -594.68748,-608.58423 948.57146,0"
       id="path8376"
       inkscape:path-effect="#path-effect8378"
       inkscape:original-d="m -594.68748,-608.58423 948.57146,0"
       inkscape:connector-curvature="0" />
    <path
       inkscape:connector-curvature="0"
       inkscape:original-d="m -418.74252,378.34161 0,-650.84493"
       inkscape:path-effect="#path-effect8412"
       id="path8410"
       d="m -418.74252,378.34161 0,-650.84493"
       style="fill:none;fill-rule:evenodd;stroke:#000000;stroke-width:3;stroke-linecap:butt;stroke-linejoin:miter;stroke-miterlimit:4;stroke-dasharray:none;stroke-opacity:1;marker-end:url(#marker8418)"
       sodipodi:nodetypes="cc" />
    <path
       inkscape:connector-curvature="0"
       inkscape:original-d="m -615.72226,153.78106 986.91904,0"
       inkscape:path-effect="#path-effect8416"
       id="path8414"
       d="m -615.72226,153.78106 986.91904,0"
       style="fill:none;fill-rule:evenodd;stroke:#000000;stroke-width:3;stroke-linecap:butt;stroke-linejoin:miter;stroke-miterlimit:4;stroke-dasharray:none;stroke-opacity:1;marker-end:url(#marker8344)" />
    <path
       style="fill:none;fill-rule:evenodd;stroke:#000000;stroke-width:1;stroke-linecap:butt;stroke-linejoin:miter;stroke-opacity:1;stroke-miterlimit:4;stroke-dasharray:12,12;stroke-dashoffset:0"
       d="m -594.68748,-433.44137 737.14286,0"
       id="path9064"
       inkscape:path-effect="#path-effect9066"
       inkscape:original-d="m -594.68748,-433.44137 737.14286,0"
       inkscape:connector-curvature="0" />
    <path
       inkscape:connector-curvature="0"
       inkscape:original-d="m -594.68748,-433.44137 737.14286,0"
       inkscape:path-effect="#path-effect9070"
       id="path9068"
       d="m -594.68748,-433.44137 737.14286,0"
       style="fill:none;fill-rule:evenodd;stroke:#000000;stroke-width:1;stroke-linecap:butt;stroke-linejoin:miter;stroke-opacity:1;stroke-miterlimit:4;stroke-dasharray:12,12;stroke-dashoffset:0" />
    <path
       style="fill:none;fill-rule:evenodd;stroke:#000000;stroke-width:1;stroke-linecap:butt;stroke-linejoin:miter;stroke-miterlimit:4;stroke-dasharray:12, 12;stroke-dashoffset:0;stroke-opacity:1"
       d="m -594.68748,-513.44137 737.14286,0"
       id="path9072"
       inkscape:path-effect="#path-effect9074"
       inkscape:original-d="m -594.68748,-513.44137 737.14286,0"
       inkscape:connector-curvature="0" />
    <path
       inkscape:connector-curvature="0"
       inkscape:original-d="m -594.68748,-673.44137 737.14286,0"
       inkscape:path-effect="#path-effect9078"
       id="path9076"
       d="m -594.68748,-673.44137 737.14286,0"
       style="fill:none;fill-rule:evenodd;stroke:#000000;stroke-width:1;stroke-linecap:butt;stroke-linejoin:miter;stroke-miterlimit:4;stroke-dasharray:12, 12;stroke-dashoffset:0;stroke-opacity:1" />
    <path
       style="fill:none;fill-rule:evenodd;stroke:#000000;stroke-width:1px;stroke-linecap:butt;stroke-linejoin:miter;stroke-opacity:1"
       d="m -534.28569,-513.21816 0,667.15321"
       id="path9084"
       inkscape:path-effect="#path-effect9086"
       inkscape:original-d="m -534.28569,-513.21816 0,667.15321"
       inkscape:connector-curvature="0" />
    <path
       style="fill:none;fill-rule:evenodd;stroke:#000000;stroke-width:1px;stroke-linecap:butt;stroke-linejoin:miter;stroke-opacity:1"
       d="m -554.22923,-608.47758 0,762.12853"
       id="path9088"
       inkscape:path-effect="#path-effect9090"
       inkscape:original-d="m -554.22923,-608.47758 0,762.12853"
       inkscape:connector-curvature="0" />
    <path
       style="fill:none;fill-rule:evenodd;stroke:#000000;stroke-width:1px;stroke-linecap:butt;stroke-linejoin:miter;stroke-opacity:1"
       d="m -565.04462,-673.53066 0,827.33944"
       id="path9092"
       inkscape:path-effect="#path-effect9094"
       inkscape:original-d="m -565.04462,-673.53066 0,827.33944"
       inkscape:connector-curvature="0" />
    <path
       style="fill:none;fill-rule:evenodd;stroke:#000000;stroke-width:1px;stroke-linecap:butt;stroke-linejoin:miter;stroke-opacity:1"
       d="m -509.64283,-433.39673 0,587.27679"
       id="path9096"
       inkscape:path-effect="#path-effect9098"
       inkscape:original-d="m -509.64283,-433.39673 0,587.27679"
       inkscape:connector-curvature="0" />
    <path
       inkscape:connector-curvature="0"
       inkscape:original-d="m -247.64283,-433.39673 0,587.27679"
       inkscape:path-effect="#path-effect9102"
       id="path9100"
       d="m -247.64283,-433.39673 0,587.27679"
       style="fill:none;fill-rule:evenodd;stroke:#000000;stroke-width:1px;stroke-linecap:butt;stroke-linejoin:miter;stroke-opacity:1" />
    <path
       inkscape:connector-curvature="0"
       inkscape:original-d="m -106.99998,-513.21816 0,667.15321"
       inkscape:path-effect="#path-effect9106"
       id="path9104"
       d="m -106.99998,-513.21816 0,667.15321"
       style="fill:none;fill-rule:evenodd;stroke:#000000;stroke-width:1px;stroke-linecap:butt;stroke-linejoin:miter;stroke-opacity:1" />
    <path
       style="fill:none;fill-rule:evenodd;stroke:#000000;stroke-width:1px;stroke-linecap:butt;stroke-linejoin:miter;stroke-opacity:1"
       d="m -247.0369,153.48682 c -1e-5,42.95767 -98.97386,79.80204 -171.22085,79.80205 -72.24699,0 -90.40865,-36.84438 -90.40866,-79.80205 0,-42.95767 17.15151,-75.761445 89.39851,-75.761445 72.24699,3e-6 172.231,32.803775 172.231,75.761445 z"
       id="path9162"
       inkscape:connector-curvature="0"
       sodipodi:nodetypes="sssss" />
    <path
       sodipodi:nodetypes="sssss"
       inkscape:connector-curvature="0"
       id="path9165"
       d="m -107.13077,155.00205 c -1e-5,42.95767 -238.87999,98.48986 -311.12698,98.48987 -72.24699,0 -116.16754,-55.5322 -116.16755,-98.48987 0,-42.95767 41.39517,-99.500031 113.64217,-99.500031 72.24699,3e-6 313.65236,56.542361 313.65236,99.500031 z"
       style="fill:none;fill-rule:evenodd;stroke:#000000;stroke-width:1px;stroke-linecap:butt;stroke-linejoin:miter;stroke-opacity:1" />
    <path
       style="fill:none;fill-rule:evenodd;stroke:#000000;stroke-width:1px;stroke-linecap:butt;stroke-linejoin:miter;stroke-opacity:1"
       d="m 111.1161,152.18363 -139.017861,-0.44643 -11.964286,-0.35714 c 0,0 -10.535714,-0.35715 -13.660714,-0.71429 -3.125,-0.35714 -8.169643,-0.98214 -8.169643,-0.98214 0,0 -6.160714,-0.625 -10.982143,-2.94643 -4.821428,-2.32143 -1.923443,-0.94661 -2.901785,-1.38393 -4.026398,-1.79981 -12.208655,-5.09994 -12.208655,-5.09994 C -142.04606,102.04803 -354.97536,36.309123 -418.76282,36.309121 c -72.247,-3e-6 -135.36045,74.472569 -135.36045,117.430239 1e-5,42.95767 64.62868,115.91501 136.87567,115.915 64.92384,-10e-6 290.51589,-57.89693 335.582103,-100.80821 l 3.218119,-3.10494 5.808377,-4.92449 4.293149,-2.27285 8.207489,-1.38896 10.480333,-0.12626 13.258252,-0.63135 11.995561,-0.50508 20.2030514,0 5.555839,-0.3788"
       id="path9167"
       inkscape:connector-curvature="0"
       sodipodi:nodetypes="cssscsscsccc" />
    <path
       sodipodi:nodetypes="cssscccscccccccccccc"
       inkscape:connector-curvature="0"
       id="path9169"
       d="m 311.1263,137.80382 -340.561237,3.74026 -11.942622,0.23088 c 0,0 -9.401151,-1.22123 -12.526151,-1.57837 -3.125,-0.35714 -9.598214,-2.20522 -9.598214,-2.20522 -4.583752,-0.16479 -10.097773,-4.02023 -10.626313,-4.25485 -4.026398,-1.79981 -9.945875,-4.49257 -9.945875,-4.49257 C -138.33118,91.038647 -353.99322,21.934123 -417.78068,21.934121 c -72.247,-3e-6 -146.52116,89.204709 -146.52116,132.162379 10e-6,42.95767 74.09296,123.77216 146.33995,123.77215 64.92384,-10e-6 294.0081,-54.62073 339.074313,-97.53201 l 7.511267,-5.37779 4.293148,-2.65164 4.040611,-1.89405 4.166879,-1.01015 9.975256,-2.90418 11.995562,-0.50508 13.889597,0 21.5920109,-0.37881 312.1840761,0.25562"
       style="fill:none;fill-rule:evenodd;stroke:#000000;stroke-width:1px;stroke-linecap:butt;stroke-linejoin:miter;stroke-opacity:1" />
    <path
       sodipodi:type="star"
       style="opacity:1;fill:#000000;fill-opacity:1;stroke:none;stroke-width:1;stroke-miterlimit:4;stroke-dasharray:12, 12;stroke-dashoffset:0;stroke-opacity:1"
       id="path9171"
       sodipodi:sides="3"
       sodipodi:cx="-373.25891"
       sodipodi:cy="94.058655"
       sodipodi:r1="17.587246"
       sodipodi:r2="8.793623"
       sodipodi:arg1="2.0798672"
       sodipodi:arg2="3.1270648"
       inkscape:flatsided="false"
       inkscape:rounded="0"
       inkscape:randomized="0"
       d="m -381.83034,109.4158 -0.22127,-15.229397 -0.22126,-15.229394 13.29967,7.423075 13.29968,7.423074 -13.07841,7.806322 z"
       inkscape:transform-center-x="-3.6047049"
       inkscape:transform-center-y="-0.33111293"
       transform="matrix(0.86055039,0.04725139,-0.03625775,0.66033235,-77.818127,33.858143)" />
    <path
       transform="matrix(0.73004333,0.0788813,-0.07104299,0.65750006,-124.40896,23.93069)"
       inkscape:transform-center-y="-0.60958706"
       inkscape:transform-center-x="-2.7538604"
       d="m -381.83034,109.4158 -0.22127,-15.229397 -0.22126,-15.229394 13.29967,7.423075 13.29968,7.423074 -13.07841,7.806322 z"
       inkscape:randomized="0"
       inkscape:rounded="0"
       inkscape:flatsided="false"
       sodipodi:arg2="3.1270648"
       sodipodi:arg1="2.0798672"
       sodipodi:r2="8.793623"
       sodipodi:r1="17.587246"
       sodipodi:cy="94.058655"
       sodipodi:cx="-373.25891"
       sodipodi:sides="3"
       id="path9175"
       style="opacity:1;fill:#000000;fill-opacity:1;stroke:none;stroke-width:1;stroke-miterlimit:4;stroke-dasharray:12, 12;stroke-dashoffset:0;stroke-opacity:1"
       sodipodi:type="star" />
    <path
       sodipodi:type="star"
       style="opacity:1;fill:#000000;fill-opacity:1;stroke:none;stroke-width:1;stroke-miterlimit:4;stroke-dasharray:12, 12;stroke-dashoffset:0;stroke-opacity:1"
       id="path9177"
       sodipodi:sides="3"
       sodipodi:cx="-373.25891"
       sodipodi:cy="94.058655"
       sodipodi:r1="17.587246"
       sodipodi:r2="8.793623"
       sodipodi:arg1="2.0798672"
       sodipodi:arg2="3.1270648"
       inkscape:flatsided="false"
       inkscape:rounded="0"
       inkscape:randomized="0"
       d="m -381.83034,109.4158 -0.22127,-15.229397 -0.22126,-15.229394 13.29967,7.423075 13.29968,7.423074 -13.07841,7.806322 z"
       inkscape:transform-center-x="-3.0391938"
       inkscape:transform-center-y="-0.25899929"
       transform="matrix(0.7332534,0.03905095,-0.03517052,0.66039115,-102.58489,-5.2082728)" />
    <path
       transform="matrix(0.71425318,0.17037581,-0.15344583,0.64327895,-61.409221,37.312306)"
       inkscape:transform-center-y="-1.4158878"
       inkscape:transform-center-x="-2.0604811"
       d="m -381.83034,109.4158 -0.22127,-15.229397 -0.22126,-15.229394 13.29967,7.423075 13.29968,7.423074 -13.07841,7.806322 z"
       inkscape:randomized="0"
       inkscape:rounded="0"
       inkscape:flatsided="false"
       sodipodi:arg2="3.1270648"
       sodipodi:arg1="2.0798672"
       sodipodi:r2="8.793623"
       sodipodi:r1="17.587246"
       sodipodi:cy="94.058655"
       sodipodi:cx="-373.25891"
       sodipodi:sides="3"
       id="path9179"
       style="opacity:1;fill:#000000;fill-opacity:1;stroke:none;stroke-width:1;stroke-miterlimit:4;stroke-dasharray:12, 12;stroke-dashoffset:0;stroke-opacity:1"
       sodipodi:type="star" />
    <g
       id="g9243"
       transform="matrix(0.66096183,0,0,0.66096183,22.806276,38.602424)">
      <g
         id="content"
         transform="matrix(1.5848214,0,0,-1.5848214,-277.34374,893.43755)"
         xml:space="preserve"
         stroke-miterlimit="10.433"
         font-style="normal"
         font-variant="normal"
         font-weight="normal"
         font-stretch="normal"
         font-size-adjust="none"
         letter-spacing="normal"
         word-spacing="normal"
         style="font-style:normal;font-variant:normal;font-weight:normal;font-stretch:normal;letter-spacing:normal;word-spacing:normal;text-anchor:start;fill:none;fill-opacity:1;fill-rule:evenodd;stroke:#000000;stroke-linecap:butt;stroke-linejoin:miter;stroke-miterlimit:10.43299961;stroke-dasharray:none;stroke-dashoffset:0;stroke-opacity:1"><path
           d="m 472.16,421.25 0.03,0.13 0.04,0.15 0.04,0.16 0.04,0.18 0.06,0.19 0.06,0.21 0.06,0.22 0.07,0.22 0.08,0.23 0.09,0.24 0.1,0.25 0.1,0.24 0.11,0.25 0.12,0.25 0.13,0.25 0.14,0.25 0.15,0.24 0.15,0.24 0.17,0.23 0.18,0.22 0.18,0.22 0.2,0.2 0.21,0.19 0.22,0.18 0.23,0.16 0.25,0.14 0.12,0.07 0.13,0.06 0.14,0.05 0.13,0.05 0.14,0.05 0.14,0.04 0.15,0.03 0.15,0.03 0.15,0.02 0.16,0.02 0.16,0.01 0.16,0 c 0.25,0 1.44,0 2.48,-0.64 -1.39,-0.25 -2.39,-1.5 -2.39,-2.69 0,-0.79 0.55,-1.75 1.89,-1.75 1.1,0 2.69,0.89 2.69,2.89 0,2.6 -2.94,3.28 -4.63,3.28 -2.89,0 -4.64,-2.64 -5.23,-3.78 -1.25,3.28 -3.94,3.78 -5.37,3.78 -5.19,0 -8.04,-6.42 -8.04,-7.67 0,-0.5 0.5,-0.5 0.61,-0.5 0.39,0 0.55,0.11 0.64,0.55 1.69,5.28 4.99,6.53 6.68,6.53 0.95,0 2.68,-0.44 2.68,-3.33 0,-1.54 -0.84,-4.89 -2.68,-11.86 -0.8,-3.09 -2.54,-5.18 -4.74,-5.18 -0.3,0 -1.44,0 -2.48,0.65 1.25,0.24 2.34,1.28 2.34,2.69 0,1.34 -1.09,1.73 -1.84,1.73 -1.5,0 -2.75,-1.29 -2.75,-2.89 0,-2.28 2.5,-3.28 4.68,-3.28 3.3,0 5.08,3.49 5.24,3.78 0.59,-1.84 2.39,-3.78 5.37,-3.78 5.14,0 7.99,6.42 7.99,7.67 0,0.5 -0.45,0.5 -0.61,0.5 -0.44,0 -0.55,-0.2 -0.64,-0.54 -1.64,-5.33 -5.03,-6.53 -6.63,-6.53 -1.95,0 -2.75,1.59 -2.75,3.29 0,1.1 0.3,2.19 0.86,4.38 z"
           id="path9246"
           inkscape:connector-curvature="0"
           style="fill:#000000;stroke-width:0" /></g>    </g>
    <g
       id="g9376"
       transform="matrix(0.79455543,0,0,0.79455543,-750.66629,-382.34512)">
      <g
         word-spacing="normal"
         letter-spacing="normal"
         font-size-adjust="none"
         font-stretch="normal"
         font-weight="normal"
         font-variant="normal"
         font-style="normal"
         stroke-miterlimit="10.433"
         xml:space="preserve"
         transform="matrix(1.5848214,0,0,-1.5848214,-277.34374,893.43755)"
         id="g9378"
         style="font-style:normal;font-variant:normal;font-weight:normal;font-stretch:normal;letter-spacing:normal;word-spacing:normal;text-anchor:start;fill:none;fill-opacity:1;fill-rule:evenodd;stroke:#000000;stroke-linecap:butt;stroke-linejoin:miter;stroke-miterlimit:10.43299961;stroke-dasharray:none;stroke-dashoffset:0;stroke-opacity:1"><path
           id="path9380"
           d="m 473.84,436.89 0,0.12 -0.01,0.13 -0.02,0.12 -0.02,0.13 -0.03,0.12 -0.03,0.12 -0.04,0.12 -0.05,0.12 -0.05,0.11 -0.06,0.11 -0.06,0.11 -0.07,0.11 -0.07,0.11 -0.08,0.1 -0.08,0.1 -0.08,0.09 -0.09,0.09 -0.1,0.09 -0.1,0.08 -0.1,0.08 -0.11,0.07 -0.11,0.07 -0.11,0.06 -0.12,0.05 -0.12,0.05 -0.13,0.05 -0.12,0.04 -0.13,0.03 -0.14,0.02 -0.13,0.02 -0.14,0.01 -0.14,0.01 c -1.68,0 -2.68,-1.39 -2.68,-2.64 0,-1.35 1.14,-2.64 2.64,-2.64 1.68,0 2.68,1.39 2.68,2.64 z"
           inkscape:connector-curvature="0"
           style="fill:#000000;stroke-width:0" /><path
           id="path9382"
           d="m 472.16,421.25 0.03,0.13 0.03,0.15 0.04,0.16 0.05,0.18 0.05,0.19 0.06,0.21 0.07,0.22 0.07,0.22 0.08,0.23 0.09,0.24 0.09,0.25 0.11,0.24 0.11,0.25 0.12,0.25 0.13,0.25 0.13,0.25 0.15,0.24 0.16,0.24 0.16,0.23 0.18,0.22 0.19,0.22 0.2,0.2 0.21,0.19 0.22,0.18 0.23,0.16 0.24,0.14 0.13,0.07 0.13,0.06 0.13,0.05 0.14,0.05 0.14,0.05 0.14,0.04 0.15,0.03 0.15,0.03 0.15,0.02 0.15,0.02 0.16,0.01 0.16,0 c 0.25,0 1.44,0 2.49,-0.64 -1.39,-0.25 -2.39,-1.5 -2.39,-2.69 0,-0.79 0.54,-1.75 1.89,-1.75 1.09,0 2.69,0.89 2.69,2.89 0,2.6 -2.94,3.28 -4.63,3.28 -2.89,0 -4.64,-2.64 -5.23,-3.78 -1.25,3.28 -3.94,3.78 -5.38,3.78 -5.19,0 -8.03,-6.42 -8.03,-7.67 0,-0.5 0.5,-0.5 0.61,-0.5 0.39,0 0.55,0.11 0.64,0.55 1.69,5.28 4.98,6.53 6.67,6.53 0.96,0 2.69,-0.44 2.69,-3.33 0,-1.54 -0.84,-4.89 -2.69,-11.86 -0.8,-3.09 -2.53,-5.18 -4.73,-5.18 -0.3,0 -1.44,0 -2.49,0.65 1.25,0.24 2.35,1.28 2.35,2.69 0,1.34 -1.1,1.73 -1.85,1.73 -1.5,0 -2.75,-1.29 -2.75,-2.89 0,-2.28 2.5,-3.28 4.69,-3.28 3.3,0 5.08,3.49 5.24,3.78 0.59,-1.84 2.39,-3.78 5.37,-3.78 5.14,0 7.98,6.42 7.98,7.67 0,0.5 -0.45,0.5 -0.61,0.5 -0.43,0 -0.54,-0.2 -0.64,-0.54 -1.64,-5.33 -5.03,-6.53 -6.62,-6.53 -1.95,0 -2.75,1.59 -2.75,3.29 0,1.1 0.3,2.19 0.86,4.38 z"
           inkscape:connector-curvature="0"
           style="fill:#000000;stroke-width:0" /></g>    </g>
    <g
       id="g9520"
       transform="matrix(0.53932727,0,0,0.53932727,-646.74329,-812.96465)">
      <g
         id="g9522"
         transform="matrix(1.5848214,0,0,-1.5848214,-277.34374,893.43755)"
         xml:space="preserve"
         stroke-miterlimit="10.433"
         font-style="normal"
         font-variant="normal"
         font-weight="normal"
         font-stretch="normal"
         font-size-adjust="none"
         letter-spacing="normal"
         word-spacing="normal"
         style="font-style:normal;font-variant:normal;font-weight:normal;font-stretch:normal;letter-spacing:normal;word-spacing:normal;text-anchor:start;fill:none;fill-opacity:1;fill-rule:evenodd;stroke:#000000;stroke-linecap:butt;stroke-linejoin:miter;stroke-miterlimit:10.43299961;stroke-dasharray:none;stroke-dashoffset:0;stroke-opacity:1"><path
           d="m 487.16,435 0.1,0.37 0.05,0.19 0.06,0.18 0.06,0.17 0.07,0.17 0.07,0.17 0.08,0.16 0.08,0.16 0.1,0.16 0.09,0.15 0.11,0.14 0.11,0.14 0.13,0.14 0.13,0.12 0.14,0.13 0.15,0.12 0.17,0.11 0.17,0.11 0.19,0.1 0.19,0.09 0.21,0.09 0.23,0.08 0.23,0.08 0.26,0.07 0.26,0.06 0.28,0.06 0.3,0.04 0.31,0.05 0.33,0.03 0.35,0.03 0.18,0.01 0.19,0 c 0.25,0 0.84,0.05 0.84,1 0,0.05 0,0.55 -0.64,0.55 -1.64,0 -3.39,-0.16 -5.08,-0.16 -1.7,0 -3.55,0.16 -5.19,0.16 -0.29,0 -0.89,0 -0.89,-1 0,-0.55 0.5,-0.55 0.89,-0.55 2.85,-0.04 3.39,-1.09 3.39,-2.18 0,-0.16 -0.11,-0.91 -0.15,-1.05 l -4.49,-17.8 c -1.68,-6.67 -7.42,-11 -12.4,-11 -3.38,0 -6.08,2.19 -6.08,6.47 0,0.11 0,1.7 0.55,3.89 l 4.84,19.38 c 0.44,1.79 0.55,2.29 4.19,2.29 1.28,0 1.68,0 1.68,1 0,0.55 -0.54,0.55 -0.7,0.55 -1.39,0 -4.98,-0.16 -6.37,-0.16 -1.44,0 -4.99,0.16 -6.43,0.16 -0.4,0 -0.95,0 -0.95,-1 0,-0.55 0.45,-0.55 1.41,-0.55 0.09,0 1.04,0 1.89,-0.09 0.89,-0.11 1.34,-0.16 1.34,-0.8 0,-0.31 -0.55,-2.39 -0.84,-3.54 l -1.11,-4.38 c -0.44,-1.95 -2.83,-11.36 -3.03,-12.31 -0.35,-1.39 -0.35,-2.14 -0.35,-2.89 0,-6.08 4.53,-9.56 9.77,-9.56 6.26,0 12.45,5.62 14.09,12.2 z"
           id="path9524"
           inkscape:connector-curvature="0"
           style="fill:#000000;stroke-width:0" /><path
           d="m 511.36,394.25 0,0.02 0,0.03 0,0.01 0,0.02 -0.01,0.01 0,0.02 -0.01,0.01 0,0.02 -0.01,0.02 -0.01,0.02 -0.01,0.02 -0.02,0.03 -0.01,0.02 -0.02,0.03 -0.02,0.03 -0.03,0.03 -0.02,0.03 -0.03,0.04 -0.02,0.02 -0.02,0.02 -0.01,0.02 -0.02,0.02 -0.02,0.02 -0.02,0.03 -0.02,0.02 -0.02,0.02 -0.03,0.03 -0.02,0.02 -0.02,0.03 -0.03,0.03 -0.03,0.03 -0.02,0.03 -0.03,0.03 -0.03,0.03 -0.03,0.03 -0.03,0.03 -0.04,0.04 -0.03,0.03 -0.04,0.04 -0.03,0.03 -0.04,0.04 -0.04,0.04 c -6.22,6.28 -7.81,15.69 -7.81,23.31 0,8.67 1.89,17.35 8.01,23.56 0.64,0.61 0.64,0.71 0.64,0.86 0,0.35 -0.18,0.49 -0.48,0.49 -0.5,0 -4.99,-3.38 -7.92,-9.7 -2.55,-5.49 -3.14,-11.02 -3.14,-15.21 0,-3.89 0.54,-9.9 3.28,-15.54 2.98,-6.13 7.28,-9.36 7.78,-9.36 0.3,0 0.48,0.14 0.48,0.5 z"
           id="path9526"
           inkscape:connector-curvature="0"
           style="fill:#000000;stroke-width:0" /><path
           d="m 530.84,421.25 0.03,0.13 0.03,0.15 0.04,0.16 0.05,0.18 0.05,0.19 0.06,0.21 0.07,0.22 0.07,0.22 0.08,0.23 0.09,0.24 0.09,0.25 0.11,0.24 0.11,0.25 0.12,0.25 0.13,0.25 0.13,0.25 0.15,0.24 0.16,0.24 0.16,0.23 0.18,0.22 0.19,0.22 0.2,0.2 0.21,0.19 0.22,0.18 0.23,0.16 0.24,0.14 0.13,0.07 0.13,0.06 0.13,0.05 0.14,0.05 0.14,0.05 0.14,0.04 0.15,0.03 0.14,0.03 0.16,0.02 0.15,0.02 0.16,0.01 0.16,0 c 0.25,0 1.44,0 2.49,-0.64 -1.39,-0.25 -2.39,-1.5 -2.39,-2.69 0,-0.79 0.54,-1.75 1.89,-1.75 1.09,0 2.69,0.89 2.69,2.89 0,2.6 -2.94,3.28 -4.63,3.28 -2.89,0 -4.64,-2.64 -5.23,-3.78 -1.25,3.28 -3.94,3.78 -5.38,3.78 -5.19,0 -8.03,-6.42 -8.03,-7.67 0,-0.5 0.5,-0.5 0.61,-0.5 0.39,0 0.55,0.11 0.64,0.55 1.69,5.28 4.98,6.53 6.67,6.53 0.95,0 2.69,-0.44 2.69,-3.33 0,-1.54 -0.84,-4.89 -2.69,-11.86 -0.8,-3.09 -2.53,-5.18 -4.73,-5.18 -0.3,0 -1.44,0 -2.49,0.65 1.25,0.24 2.35,1.28 2.35,2.69 0,1.34 -1.1,1.73 -1.85,1.73 -1.5,0 -2.75,-1.29 -2.75,-2.89 0,-2.28 2.5,-3.28 4.69,-3.28 3.3,0 5.08,3.49 5.23,3.78 0.6,-1.84 2.4,-3.78 5.38,-3.78 5.14,0 7.98,6.42 7.98,7.67 0,0.5 -0.45,0.5 -0.61,0.5 -0.43,0 -0.54,-0.2 -0.64,-0.54 -1.64,-5.33 -5.03,-6.53 -6.62,-6.53 -1.95,0 -2.75,1.59 -2.75,3.29 0,1.1 0.3,2.19 0.86,4.38 z"
           id="path9528"
           inkscape:connector-curvature="0"
           style="fill:#000000;stroke-width:0" /><path
           d="m 557.02,418.65 0,0.37 0,0.39 -0.01,0.39 -0.02,0.41 -0.04,0.84 -0.06,0.88 -0.08,0.92 -0.1,0.95 -0.14,0.97 -0.16,1.01 -0.2,1.02 -0.23,1.03 -0.27,1.05 -0.3,1.06 -0.35,1.07 -0.39,1.07 -0.22,0.53 -0.22,0.53 -0.24,0.53 -0.25,0.53 c -2.98,6.12 -7.26,9.36 -7.76,9.36 -0.3,0 -0.5,-0.19 -0.5,-0.49 0,-0.15 0,-0.25 0.93,-1.15 4.89,-4.92 7.74,-12.85 7.74,-23.27 0,-8.51 -1.85,-17.28 -8.03,-23.56 -0.64,-0.59 -0.64,-0.7 -0.64,-0.84 0,-0.3 0.2,-0.5 0.5,-0.5 0.5,0 4.97,3.39 7.92,9.71 2.53,5.47 3.12,11 3.12,15.19 z"
           id="path9530"
           inkscape:connector-curvature="0"
           style="fill:#000000;stroke-width:0" /></g>    </g>
    <g
       id="g9680"
       transform="matrix(0.69756017,0,0,0.69756017,-728.98557,-728.60266)">
      <g
         word-spacing="normal"
         letter-spacing="normal"
         font-size-adjust="none"
         font-stretch="normal"
         font-weight="normal"
         font-variant="normal"
         font-style="normal"
         stroke-miterlimit="10.433"
         xml:space="preserve"
         transform="matrix(1.5848214,0,0,-1.5848214,-277.34374,893.43755)"
         id="g9682"
         style="font-style:normal;font-variant:normal;font-weight:normal;font-stretch:normal;letter-spacing:normal;word-spacing:normal;text-anchor:start;fill:none;fill-opacity:1;fill-rule:evenodd;stroke:#000000;stroke-linecap:butt;stroke-linejoin:miter;stroke-miterlimit:10.43299961;stroke-dasharray:none;stroke-dashoffset:0;stroke-opacity:1"><path
           id="path9684"
           d="m 468.1,428.48 -0.03,-0.11 -0.02,-0.1 -0.02,-0.1 -0.03,-0.09 -0.02,-0.09 -0.03,-0.09 -0.03,-0.08 -0.03,-0.07 -0.03,-0.07 -0.04,-0.07 -0.04,-0.06 -0.05,-0.06 -0.05,-0.05 -0.06,-0.05 -0.06,-0.05 -0.07,-0.04 -0.08,-0.04 -0.09,-0.03 -0.09,-0.04 -0.1,-0.03 -0.06,-0.01 -0.05,-0.01 -0.06,-0.02 -0.06,-0.01 -0.07,-0.01 -0.06,-0.01 -0.07,-0.01 -0.08,-0.01 -0.07,0 -0.08,-0.01 -0.08,-0.01 -0.09,0 -0.08,-0.01 -0.09,-0.01 -0.1,0 -0.09,0 -0.1,-0.01 -0.11,0 -0.1,0 -0.12,0 -0.11,-0.01 -0.12,0 -0.12,0 -0.12,0 c -0.63,0 -1.05,0 -1.05,-0.76 0,-0.49 0.42,-0.49 1.05,-0.49 l 12.43,0 -0.62,1.25 -4.74,0 c -1.07,0 -1.11,0.05 -1.11,0.36 0,0.03 0,0.2 0.13,0.72 l 4.78,19.03 c 0.28,1.08 0.31,1.19 1.78,1.19 l 4.45,0 c 3.91,0 7.19,-1.95 7.19,-6.69 0,-0.81 -0.36,-6.83 -3.84,-10.81 -1.36,-1.56 -4.35,-3.8 -8.64,-3.8 l 0.62,-1.25 c 7.74,0 15.16,7.11 15.16,14.7 0,5.1 -3.52,9.1 -9.19,9.1 l -12.69,0 c -0.7,0 -1.11,0 -1.11,-0.77 0,-0.48 0.38,-0.48 1.15,-0.48 0.56,0 0.7,0 1.32,-0.08 0.71,-0.06 0.77,-0.14 0.77,-0.48 0,-0.07 0,-0.24 -0.14,-0.77 z"
           inkscape:connector-curvature="0"
           style="fill:#000000;stroke-width:0" /><polyline
           id="polyline9686"
           points="462,418 495.72,418 495.72,420.04 462,420.04 "
           style="fill:#000000;fill-rule:nonzero;stroke-width:0" /><path
           id="path9688"
           d="m 486.07,395.38 -1.18,0 c -0.1,-0.76 -0.46,-2.83 -0.91,-3.17 -0.27,-0.2 -2.95,-0.2 -3.44,-0.2 l -6.42,0 c 3.66,3.23 4.88,4.2 6.97,5.84 2.58,2.06 4.98,4.22 4.98,7.53 0,4.22 -3.68,6.8 -8.15,6.8 -4.31,0 -7.25,-3.03 -7.25,-6.23 0,-1.79 1.5,-1.96 1.86,-1.96 0.83,0 1.84,0.6 1.84,1.85 0,0.62 -0.25,1.84 -2.06,1.84 1.08,2.47 3.45,3.23 5.09,3.23 3.49,0 5.3,-2.7 5.3,-5.53 0,-3.03 -2.16,-5.43 -3.28,-6.68 l -8.39,-8.3 c -0.36,-0.31 -0.36,-0.39 -0.36,-1.36 l 14.36,0 z"
           inkscape:connector-curvature="0"
           style="fill:#000000;stroke-width:0" /></g>    </g>
    <g
       transform="matrix(0.74309078,0,0,0.74309078,-23.589408,-461.27887)"
       id="g9768">
      <g
         style="font-style:normal;font-variant:normal;font-weight:normal;font-stretch:normal;letter-spacing:normal;word-spacing:normal;text-anchor:start;fill:none;fill-opacity:1;fill-rule:evenodd;stroke:#000000;stroke-linecap:butt;stroke-linejoin:miter;stroke-miterlimit:10.43299961;stroke-dasharray:none;stroke-dashoffset:0;stroke-opacity:1"
         word-spacing="normal"
         letter-spacing="normal"
         font-size-adjust="none"
         font-stretch="normal"
         font-weight="normal"
         font-variant="normal"
         font-style="normal"
         stroke-miterlimit="10.433"
         xml:space="preserve"
         transform="matrix(1.5848214,0,0,-1.5848214,-277.34374,893.43755)"
         id="g9770"><path
           style="fill:#000000;stroke-width:0"
           inkscape:connector-curvature="0"
           id="path9772"
           d="m 472.16,421.25 0.03,0.13 0.04,0.15 0.04,0.16 0.04,0.18 0.06,0.19 0.06,0.21 0.06,0.22 0.07,0.22 0.08,0.23 0.09,0.24 0.1,0.25 0.1,0.24 0.11,0.25 0.12,0.25 0.13,0.25 0.14,0.25 0.15,0.24 0.15,0.24 0.17,0.23 0.18,0.22 0.18,0.22 0.2,0.2 0.21,0.19 0.22,0.18 0.23,0.16 0.25,0.14 0.12,0.07 0.13,0.06 0.14,0.05 0.13,0.05 0.14,0.05 0.14,0.04 0.15,0.03 0.15,0.03 0.15,0.02 0.16,0.02 0.16,0.01 0.16,0 c 0.25,0 1.44,0 2.48,-0.64 -1.39,-0.25 -2.39,-1.5 -2.39,-2.69 0,-0.79 0.55,-1.75 1.89,-1.75 1.1,0 2.69,0.89 2.69,2.89 0,2.6 -2.94,3.28 -4.63,3.28 -2.89,0 -4.64,-2.64 -5.23,-3.78 -1.25,3.28 -3.94,3.78 -5.37,3.78 -5.19,0 -8.04,-6.42 -8.04,-7.67 0,-0.5 0.5,-0.5 0.61,-0.5 0.39,0 0.55,0.11 0.64,0.55 1.69,5.28 4.99,6.53 6.68,6.53 0.95,0 2.68,-0.44 2.68,-3.33 0,-1.54 -0.84,-4.89 -2.68,-11.86 -0.8,-3.09 -2.54,-5.18 -4.74,-5.18 -0.3,0 -1.44,0 -2.48,0.65 1.25,0.24 2.34,1.28 2.34,2.69 0,1.34 -1.09,1.73 -1.84,1.73 -1.5,0 -2.75,-1.29 -2.75,-2.89 0,-2.28 2.5,-3.28 4.68,-3.28 3.3,0 5.08,3.49 5.24,3.78 0.59,-1.84 2.39,-3.78 5.37,-3.78 5.14,0 7.99,6.42 7.99,7.67 0,0.5 -0.45,0.5 -0.61,0.5 -0.44,0 -0.55,-0.2 -0.64,-0.54 -1.64,-5.33 -5.03,-6.53 -6.63,-6.53 -1.95,0 -2.75,1.59 -2.75,3.29 0,1.1 0.3,2.19 0.86,4.38 z" /></g>    </g>
    <circle
       style="fill:#000000;fill-rule:evenodd;stroke:#000000;stroke-width:1px;stroke-linecap:butt;stroke-linejoin:miter;stroke-opacity:1;fill-opacity:1"
       id="path9774"
       cx="-419.02676"
       cy="154.0229"
       r="11.071428" />
  </g>
</svg>
